<svg width="45" height="35" viewBox="0 0 45 35" fill="none" xmlns="http://www.w3.org/2000/svg">
<path d="M13.1965 16.8147C13.3454 17.2751 13.5159 17.6324 13.6915 17.878C13.8796 18.1195 14.1006 18.378 14.3794 18.6452C14.4739 18.7246 14.5309 18.8161 14.5591 18.9033C14.5993 19.0277 14.5649 19.1763 14.4434 19.353L13.8284 20.1292C13.7405 20.2401 13.6406 20.3136 13.541 20.3458C13.4166 20.386 13.272 20.364 13.1114 20.2923C12.8768 20.162 12.6631 20.0111 12.4743 19.8523C12.2814 19.6809 12.0805 19.4847 11.8511 19.2428C11.2506 20.7015 10.2161 21.6682 8.74771 22.143C7.70238 22.481 6.77204 22.4519 5.96914 22.0518C5.16623 21.6516 4.59761 20.9557 4.27572 19.9602C3.93371 18.9024 4.02941 17.9231 4.57929 17.0305C5.12916 16.138 6.03254 15.4885 7.31431 15.0741C7.73742 14.9373 8.18504 14.8338 8.6656 14.7471C9.14616 14.6605 9.65123 14.6071 10.1852 14.5582L9.8915 13.6497C9.5857 12.704 9.17334 12.1088 8.66283 11.8478C8.13988 11.5907 7.40753 11.6213 6.44931 11.9312C6.01376 12.072 5.58186 12.2666 5.15763 12.5275C4.7334 12.7884 4.32967 13.0701 3.95044 13.3851C3.7795 13.5366 3.64626 13.6347 3.5672 13.6878C3.48814 13.7408 3.42994 13.7734 3.38016 13.7895C3.20594 13.8458 3.07859 13.7495 2.9941 13.4882L2.79694 12.8784C2.73256 12.6793 2.70916 12.5219 2.74322 12.4147C2.77728 12.3075 2.86111 12.1841 3.00717 12.0407C3.37029 11.6759 3.8326 11.3202 4.39409 10.9737C4.95156 10.6148 5.57452 10.3309 6.25896 10.1096C7.73984 9.63079 8.93114 9.61673 9.8453 10.0634C10.747 10.5141 11.4254 11.4219 11.868 12.7908L13.1716 16.8227L13.1965 16.8147ZM8.75572 20.3398C9.16638 20.207 9.56535 19.9956 9.96506 19.7014C10.3648 19.4072 10.6745 19.0047 10.8898 18.5227C11.0124 18.2219 11.0773 17.9123 11.0554 17.5895C11.0335 17.2666 10.9666 16.8897 10.8297 16.4666L10.6608 15.9439C10.2717 15.9735 9.86179 16.0235 9.44747 16.1025C9.03316 16.1815 8.63934 16.2813 8.25356 16.4061C7.41979 16.6757 6.86232 17.0346 6.5603 17.5034C6.25827 17.9721 6.21206 18.5094 6.41324 19.1316C6.60235 19.7165 6.89251 20.1038 7.30019 20.3018C7.69944 20.5164 8.18328 20.5249 8.75572 20.3398ZM19.1831 18.4528C18.9591 18.5253 18.7977 18.5362 18.67 18.4813C18.5463 18.4388 18.4028 18.2927 18.2517 18.0804L12.217 9.40651C12.0619 9.18177 11.9722 9.03206 11.9441 8.94495C11.8797 8.74584 11.943 8.60165 12.1422 8.53728L13.3617 8.14296C13.5981 8.06651 13.772 8.05154 13.8873 8.11048C14.011 8.15296 14.142 8.30304 14.2931 8.51534L19.0474 16.0775L18.325 7.21169C18.3068 6.94268 18.3292 6.75676 18.4046 6.64991C18.48 6.54305 18.6381 6.43694 18.8621 6.36452L19.8577 6.04263C20.0941 5.96618 20.2679 5.9512 20.3957 6.00613C20.5194 6.0486 20.6628 6.19466 20.789 6.41501L25.4511 14.117L24.9081 5.08319C24.9023 4.81016 24.9371 4.62021 25.0001 4.51738C25.0755 4.41053 25.2212 4.30844 25.4452 4.23602L26.6025 3.86182C26.8016 3.79744 26.9458 3.86078 27.0142 4.07234C27.0343 4.13456 27.042 4.20081 27.0537 4.2795C27.0654 4.35819 27.0727 4.46579 27.0672 4.61877L27.1783 15.2079C27.1841 15.481 27.1493 15.6709 27.0739 15.7778C26.9985 15.8846 26.8528 15.9867 26.6413 16.0551L25.5711 16.4011C25.3346 16.4776 25.1608 16.4926 25.0331 16.4377C24.9053 16.3827 24.7659 16.2491 24.6357 16.0163L20.1115 8.61338L20.7863 17.2472C20.8046 17.5162 20.7822 17.7021 20.7108 17.8214C20.6394 17.9407 20.4773 18.0344 20.2533 18.1068L19.1831 18.4528ZM35.2827 13.6185C34.6356 13.8277 33.9644 13.9623 33.2939 14.0141C32.6234 14.066 32.0857 14.0611 31.7018 13.979C31.4665 13.9314 31.2894 13.8512 31.2034 13.7553C31.1174 13.6594 31.0523 13.543 31.0161 13.431L30.8108 12.7964C30.7263 12.535 30.7857 12.3784 30.9723 12.3181C31.047 12.2939 31.1257 12.2822 31.2084 12.283C31.2911 12.2837 31.4192 12.2973 31.5597 12.3068C32.0432 12.3567 32.5519 12.3571 33.0695 12.2998C33.5994 12.2384 34.1008 12.1312 34.5986 11.9703C35.3826 11.7168 35.9481 11.3828 36.2827 10.9722C36.6173 10.5616 36.7125 10.091 36.5476 9.58073C36.4349 9.23229 36.2304 8.98228 35.9299 8.81827C35.6295 8.65425 35.138 8.5795 34.4638 8.57755L32.4783 8.60098C31.4773 8.60848 30.6685 8.40265 30.0768 7.97543C29.4891 7.56066 29.0804 7.01929 28.8712 6.37218C28.7022 5.84952 28.6653 5.35287 28.7605 4.88222C28.8558 4.41158 29.0418 3.96657 29.3266 3.57208C29.6074 3.16516 29.9621 2.8168 30.4116 2.50652C30.8611 2.19624 31.3636 1.96503 31.9112 1.78799C32.1849 1.69947 32.4752 1.61937 32.761 1.56818C33.0593 1.51297 33.3368 1.47825 33.6142 1.44354C33.8832 1.42528 34.1397 1.41106 34.3879 1.4133C34.636 1.41554 34.8344 1.43387 34.983 1.4683C35.1894 1.51153 35.346 1.57085 35.4569 1.6587C35.5637 1.73412 35.6453 1.85893 35.7017 2.03315L35.8908 2.61804C35.9753 2.87937 35.92 3.04845 35.7333 3.1088C35.6338 3.14099 35.4559 3.14352 35.2121 3.11237C34.3982 3.01816 33.5495 3.1139 32.6659 3.39958C31.9566 3.62892 31.4328 3.92198 31.1235 4.28316C30.8142 4.64433 30.7317 5.0696 30.8967 5.57982C31.0094 5.92826 31.2304 6.18669 31.5557 6.34266C31.881 6.49863 32.4179 6.5862 33.1459 6.5845L35.094 6.57314C36.0826 6.56966 36.8584 6.75865 37.4092 7.14413C37.9599 7.52962 38.3357 8.05415 38.5449 8.70126C38.7179 9.23636 38.7629 9.75791 38.6881 10.2494C38.6009 10.745 38.423 11.2148 38.1338 11.6382C37.8486 12.0741 37.4606 12.447 36.9778 12.7818C36.4741 13.137 35.9174 13.4133 35.2827 13.6185Z" fill="#252F3E"/>
<path fill-rule="evenodd" clip-rule="evenodd" d="M39.5898 18.9059C36.4734 23.2537 31.044 26.7823 25.9294 28.436C18.7614 30.7536 11.4458 30.1912 5.14322 27.3632C4.64479 27.1395 4.84033 26.5539 5.38929 26.6788C11.6555 28.0341 18.7634 27.784 25.4958 25.6072C30.038 24.1386 34.7224 21.5793 38.6867 18.1533C39.2705 17.6209 40.1009 18.1909 39.5898 18.9059Z" fill="#FF9900"/>
<path fill-rule="evenodd" clip-rule="evenodd" d="M40.667 16.4134C39.927 15.9104 37.1028 17.2084 35.8236 17.8007C35.4415 17.9792 35.2666 17.6509 35.543 17.2729C37.3514 14.8738 41.3496 14.1034 41.9746 14.5061C42.6037 14.9212 43.2746 18.9516 41.6799 21.5016C41.4364 21.8964 41.0646 21.8517 41.0932 21.4301C41.1926 20.0371 41.4029 16.904 40.667 16.4134Z" fill="#FF9900"/>
</svg>
