<svg width="30" height="30" viewBox="0 0 30 30" fill="none" xmlns="http://www.w3.org/2000/svg">
<path d="M27.0213 20.0823C24.2002 26.7372 16.5179 29.8453 9.86228 27.0237C3.20937 24.203 0.101292 16.5203 2.9231 9.86591C5.74349 3.21004 13.4259 0.101507 20.0796 2.92238C26.7349 5.74351 29.8424 13.4269 27.0213 20.0823Z" fill="#F7931A"/>
<path d="M20.9646 14.0314C21.4937 12.3514 20.3296 11.2195 18.6356 10.3196L19.5848 8.08041L18.2218 7.50278L17.2977 9.68292C16.9394 9.53108 16.5701 9.3829 16.2032 9.23591L17.1337 7.04144L15.7715 6.46393L14.8221 8.7022C14.5244 8.58314 14.2323 8.46578 13.9497 8.34618L13.9524 8.33916L12.0729 7.54162L11.4562 8.99743C11.4562 8.99743 12.4708 9.40491 12.4462 9.41635C12.9982 9.65055 13.042 10.0472 12.977 10.3459L11.8958 12.8968C11.9338 12.9132 11.9828 12.9358 12.0358 12.9674C11.9904 12.9482 11.9419 12.9273 11.8918 12.9065L10.3765 16.4799C10.2787 16.6433 10.0591 16.8771 9.67313 16.7142C9.68402 16.7371 8.68249 16.294 8.68249 16.294L7.72166 17.8069L9.49536 18.5587C9.82526 18.699 10.1477 18.8423 10.4656 18.9795L9.50619 21.2443L10.8676 21.8217L11.8174 19.581C12.1879 19.7472 12.5484 19.9035 12.9018 20.0529L11.9557 22.283L13.3187 22.8607L14.2774 20.6003C16.6245 21.4401 18.473 21.5427 19.5843 19.4754C20.4796 17.8109 19.9923 16.6923 18.824 15.8286C19.7848 15.7612 20.5794 15.2616 20.9646 14.0314ZM17.005 18.0654C16.2883 19.7581 13.4721 18.3371 12.5481 17.9464L13.8204 14.9461C14.7443 15.338 17.7534 16.3003 17.005 18.0654ZM18.1657 13.5634C17.5125 15.1029 15.172 13.8987 14.4026 13.5726L15.5563 10.8514C16.3257 11.1775 18.8463 11.9574 18.1657 13.5634Z" fill="white"/>
</svg>
