<svg width="23" height="19" viewBox="0 0 23 19" fill="none" xmlns="http://www.w3.org/2000/svg">
<path fill-rule="evenodd" clip-rule="evenodd" d="M15.6269 5.68073C15.7405 5.68073 15.8529 5.68186 15.9647 5.68804C15.3734 2.46575 12.0455 0 8.02901 0C3.59437 0 0 3.00645 0 6.71492C0 8.88953 1.23541 10.8224 3.15147 12.0494L3.2251 12.0961L2.44945 14.5259L5.35193 13.0476L5.48851 13.087C6.49039 13.3638 7.53097 13.4739 8.56859 13.413C8.40038 12.8956 8.31428 12.3551 8.31342 11.8111C8.31342 8.4247 11.5891 5.68073 15.6269 5.68073ZM8.90358 11.8505C8.90358 14.9839 11.9415 17.5239 15.6882 17.5239C16.4374 17.5239 17.1608 17.4216 17.8336 17.2333C17.8729 17.2232 17.9494 17.2001 17.9494 17.2001L20.4005 18.4502L19.7451 16.3964L19.8075 16.3576C21.4263 15.3212 22.47 13.6884 22.47 11.8505C22.47 8.7181 19.4332 6.17815 15.6882 6.17815C11.9415 6.17815 8.90358 8.71866 8.90358 11.8505ZM17.095 9.89494C17.095 9.38684 17.5211 8.97373 18.0471 8.97373C18.5738 8.97373 18.9998 9.38684 18.9998 9.8955C18.9998 10.4053 18.5738 10.819 18.0471 10.819C17.5211 10.819 17.095 10.4053 17.095 9.89494ZM13.327 8.97373C12.8015 8.97373 12.3743 9.38684 12.3743 9.89494C12.3743 10.4053 12.8015 10.819 13.327 10.819C13.8537 10.819 14.2803 10.4053 14.2803 9.8955C14.2803 9.38684 13.8537 8.97373 13.327 8.97373ZM10.823 3.30967C11.4457 3.30967 11.9499 3.79753 11.9499 4.40062C11.9499 5.00315 11.4457 5.4927 10.823 5.4927C10.1996 5.4927 9.69603 5.00315 9.69603 4.40062C9.69603 3.79753 10.1996 3.30967 10.823 3.30967ZM4.10759 4.40062C4.10759 5.00315 4.61232 5.4927 5.23508 5.4927C5.85784 5.4927 6.3637 5.00315 6.3637 4.40062C6.3637 3.79753 5.85784 3.30967 5.23508 3.30967C4.61232 3.30967 4.10759 3.79753 4.10759 4.40062Z" fill="#FA6C06"/>
</svg>
