<svg width="57" height="63" viewBox="0 0 57 63" fill="none" xmlns="http://www.w3.org/2000/svg">
<path d="M42.1759 37.3025L39.4729 43.4792L38.0767 41.5896L39.3822 38.4549L39.4196 38.3442L39.383 38.2702L39.3463 38.1962L36.296 34.2682L37.3047 31.4648L42.1759 37.3025ZM30.2109 40.967L28.1178 37.8555L27.9496 38.3536C27.9122 38.4642 27.8194 38.5562 27.7454 38.5929L25.1567 39.3213L26.8452 41.9878L26.8819 42.0618L26.8445 42.1725L26.2074 44.4233L28.0792 47.4599L30.2109 40.967ZM11.5135 37.7334L10.6919 44.5456L14.2075 52.2064L15.4351 45.4697L11.5135 37.7334ZM16.342 40.4125L18.0234 31.0549L13.2524 23.2782L12.1071 32.5087L16.342 40.4125ZM19.0993 25.315L21.5351 12.0816L15.5064 4.74316L13.9776 17.4815L19.0993 25.315Z" fill="#004712"/>
<path d="M48.7576 35.7036L45.8901 41.4548L40.1189 43.5741L42.7658 37.5635L48.7576 35.7036ZM30.8195 41.1726L28.6691 47.7209L36.0495 45.0354L38.5865 38.8027L30.8195 41.1726ZM26.1595 42.5576L15.9884 45.6567L14.7039 52.7441L24.119 49.328L26.1595 42.5576ZM27.4335 38.056L30.037 29.0714L18.6134 31.3158L16.8385 40.9502L27.4335 38.056ZM31.5541 23.8504L35.0936 11.7297L22.0884 12.2685L19.6332 25.7419L31.5541 23.8504Z" fill="#00B259"/>
<path d="M49.6462 35.2638C49.6649 35.2085 49.6649 35.2085 49.6462 35.2638L49.6836 35.1532C49.6836 35.1532 49.7023 35.0978 49.647 35.0791C49.647 35.0791 49.5916 35.0605 49.6103 35.0051L44.2224 29.0545C44.1305 28.9618 44.0198 28.9244 43.9458 28.9611L37.1426 30.4852L37.0873 30.4665L36.9751 30.7985L35.9104 33.768L34.1463 31.5075C34.0543 31.4148 33.9437 31.3774 33.8143 31.3954L29.8033 32.1365L30.7588 28.7603L30.8523 28.4836L30.797 28.4649L28.1325 25.0372L31.9028 24.4613C32.0321 24.4434 32.1249 24.3514 32.1623 24.2407L35.7968 11.4739L35.8155 11.4186C35.8155 11.4186 35.8342 11.3633 35.7788 11.3446C35.7788 11.3446 35.7975 11.2892 35.7422 11.2706L28.4751 4.13032C28.4385 4.05629 28.3832 4.0376 28.3278 4.0189L15.3076 3.68953C15.3076 3.68953 15.2523 3.67084 15.2336 3.72618C15.2336 3.72618 15.1783 3.70748 15.1596 3.76282L15.0474 4.09483L13.3676 17.6452C13.3489 17.7006 13.3855 17.7746 13.4222 17.8486L16.029 21.8117L13.017 22.1506C13.017 22.1506 12.9617 22.1319 12.943 22.1872C12.943 22.1872 12.9243 22.2425 12.869 22.2238L12.8316 22.3345L11.6085 32.5252C11.5898 32.5805 11.6265 32.6545 11.6631 32.7286L13.3681 35.8938L11.3716 36.3291L11.2976 36.3657C11.2976 36.3657 11.2789 36.4211 11.2236 36.4024L11.1675 36.5684L10.2308 44.4514C10.2121 44.5067 10.2487 44.5808 10.23 44.6361L14.0185 53.3139L14.0738 53.3326C14.0738 53.3326 14.1292 53.3513 14.1105 53.4066L14.3871 53.5L24.5051 49.8282C24.5791 49.7915 24.6719 49.6996 24.6906 49.6442L26.0013 45.2166L27.9097 48.3273C27.9097 48.3273 27.965 48.346 27.9463 48.4013L28.223 48.4948L36.3616 45.5723C36.4357 45.5356 36.5097 45.499 36.5471 45.3883L37.8526 42.2536L39.3407 44.2359L39.5621 44.3107C39.5621 44.3107 39.6174 44.3294 39.6361 44.274L46.2396 41.881C46.3136 41.8443 46.3876 41.8077 46.4063 41.7523L49.6462 35.2638C49.6275 35.3192 49.6275 35.3192 49.6462 35.2638ZM40.1191 43.5741L42.766 37.5634L48.8132 35.7223L45.9457 41.4734L40.1191 43.5741ZM38.0769 41.5896L39.3824 38.4549L39.4198 38.3442L39.3832 38.2702L39.3465 38.1962L36.2962 34.2682L37.3049 31.4648L42.1574 37.3578L39.4544 43.5345L38.0769 41.5896ZM35.9945 45.0167L28.614 47.7021L30.7644 41.1539L38.5315 38.7839L35.9945 45.0167ZM24.1746 49.3466L14.7042 52.744L15.9886 45.6566L26.0857 42.5942L24.1746 49.3466ZM10.6368 44.5269L11.4584 37.7147L15.4353 45.4697L14.2076 52.2064L10.6368 44.5269ZM21.48 12.0629L19.0441 25.2962L13.9778 17.4815L15.5066 4.74314L21.48 12.0629ZM35.0939 11.7297L31.5543 23.8504L19.6334 25.7419L22.0887 12.2685L35.0939 11.7297ZM27.4338 38.0559L16.8574 40.8948L18.6323 31.2605L30.0559 29.0161L27.4338 38.0559ZM18.0049 31.1102L16.3235 40.4678L12.1073 32.5087L13.2526 23.2782L18.0049 31.1102ZM26.9 42.1911L26.9374 42.0805L26.9007 42.0064L25.2122 39.3399L27.8009 38.6115C27.9303 38.5936 27.9677 38.4829 28.0051 38.3722L28.1733 37.8742L30.2664 40.9856L28.116 47.5339L26.2443 44.4973L26.9 42.1911Z" fill="black"/>
</svg>
