<svg width="34" height="37" viewBox="0 0 34 37" fill="none" xmlns="http://www.w3.org/2000/svg">
<path fill-rule="evenodd" clip-rule="evenodd" d="M29.7079 24.2946C29.8949 23.0087 29.7668 21.7861 29.7643 20.3613C29.7564 17.5673 30.6086 14.8699 31.504 12.2013L31.5161 12.1333C28.757 14.6392 24.9333 15.5948 21.4608 17.0619C22.0825 19.2002 22.0948 22.0862 21.4217 24.9417C22.406 23.6781 23.1983 22.212 24.4724 21.1052C22.326 24.8286 19.1543 29.2681 17.761 34.6619C24.0348 34.6117 28.6604 31.6304 29.7079 24.2946ZM14.1118 8.73978C12.2208 6.31992 11.0464 3.59934 9.93264 0.770258C9.12986 4.47276 8.11301 7.35839 6.50608 9.94974C5.72204 11.2138 4.83243 12.2556 4.14763 13.5443C3.44339 14.8646 2.8051 16.358 2.40147 18.1247C0.662847 25.6955 4.33848 29.7726 8.99052 33.0969C10.3687 28.6827 10.7075 23.8593 10.8236 19.5507C10.9439 15.1796 10.6384 10.9505 10.4931 7.29705C11.6744 15.3445 11.7091 24.6757 11.6342 33.5735C11.6342 33.5735 16.1732 29.0192 17.8911 26.5808C19.9394 23.682 19.7136 19.4319 18.7061 16.355C17.734 13.3897 15.9917 11.1436 14.1118 8.73978Z" fill="#FA6C06"/>
</svg>
