<svg width="23" height="23" viewBox="0 0 23 23" fill="none" xmlns="http://www.w3.org/2000/svg">
<path fill-rule="evenodd" clip-rule="evenodd" d="M4.65426 0.0456894C4.62396 0.0517388 4.59268 0.0507659 4.56281 0.0428458C4.53295 0.0349256 4.5053 0.0202689 4.48198 0C3.96891 0.119841 3.45284 0.22695 2.94202 0.36252C2.30386 0.534792 1.81102 0.919784 1.41704 1.44484C0.915203 2.12119 0.581893 2.87769 0.315995 3.66865C0.0201367 4.54499 -0.0779831 5.43406 0.0643286 6.35759C0.187915 7.17401 0.462801 7.938 0.74293 8.70873C1.20357 9.98579 1.7129 11.2374 2.42595 12.3998C3.51951 14.1907 4.87222 15.7636 6.38821 17.2062C7.58513 18.341 8.87792 19.3566 10.2995 20.1985C11.8657 21.122 13.5667 21.7325 15.2939 22.2643C16.1882 22.5437 17.1185 22.6193 18.0518 22.4111C19.0794 22.1819 20.0441 21.8081 20.9092 21.2029C21.2208 20.9805 21.5309 20.7049 21.7481 20.391C22.2687 19.6345 22.4178 18.7537 22.4679 17.8571C22.4867 17.5388 22.3788 17.3073 22.1107 17.1486C21.6126 16.8505 21.1197 16.5389 20.6126 16.2475C19.6689 15.7045 18.669 15.2528 17.7739 14.6132C17.6915 14.5532 17.5911 14.512 17.4968 14.4664C17.1597 14.2963 16.8391 14.324 16.5455 14.5712C16.401 14.6911 16.2519 14.8146 16.1283 14.9547C15.6123 15.5344 15.1127 16.1194 14.5944 16.6947C14.0371 17.3163 13.7577 17.3852 13.0394 16.9793C12.2744 16.5515 11.5272 16.0924 10.7999 15.6034C8.91986 14.3308 7.43083 12.68 6.26612 10.7378C5.95229 10.2127 5.66766 9.67645 5.38154 9.13941C5.19579 8.78887 5.26694 8.45631 5.54183 8.19041C5.89461 7.85111 6.27062 7.53203 6.63314 7.19947C7.06681 6.8025 7.51622 6.41526 7.92443 5.99806C8.21055 5.70745 8.22029 5.34043 8.02704 4.97567C7.93342 4.81538 7.83679 4.64985 7.73643 4.48956C7.62632 4.31953 7.49525 4.16 7.40162 3.98248C7.03461 3.32485 6.69006 2.65524 6.31706 2.00435C5.99348 1.4396 5.65194 0.889823 5.31263 0.339301C5.16133 0.0891321 4.92764 0.0232192 4.65426 0.0456894Z" fill="#FA6C06"/>
</svg>
