<svg width="23" height="23" viewBox="0 0 23 23" fill="none" xmlns="http://www.w3.org/2000/svg">
<path fill-rule="evenodd" clip-rule="evenodd" d="M22.0694 11.3507C22.0694 12.1293 21.9844 12.8876 21.8222 13.6192C22.248 14.4632 22.4693 15.3954 22.4682 16.3407C22.4682 19.7243 19.6863 22.4682 16.2543 22.4682C15.23 22.4696 14.2211 22.2196 13.3159 21.7401C12.6798 21.8559 12.024 21.9177 11.3528 21.9177C5.43449 21.9177 0.636832 17.1875 0.636832 11.3507C0.63669 10.6376 0.70915 9.92645 0.853089 9.22812C0.311746 8.31605 0 7.25864 0 6.12821C0 2.74253 2.78184 6.55315e-06 6.21597 6.55315e-06C7.38361 -0.00168472 8.52834 0.324026 9.52019 0.94016C10.1177 0.838351 10.7293 0.784989 11.3528 0.784989C17.2724 0.784989 22.0694 5.51595 22.0694 11.3507ZM14.6717 18.028C15.6224 17.6397 16.3547 17.0928 16.8498 16.4005C17.3442 15.7146 17.6069 14.8889 17.5996 14.0434C17.5996 13.3153 17.4536 12.6904 17.1643 12.1807C16.875 11.6751 16.4692 11.2538 15.9566 10.9238C15.4525 10.6002 14.8367 10.3242 14.122 10.0995C13.4177 9.87696 12.6215 9.67054 11.753 9.48798C11.0677 9.33211 10.5685 9.21064 10.2708 9.12849C9.9801 9.05056 9.68942 8.93822 9.40857 8.79919C9.13614 8.66368 8.92129 8.5043 8.77033 8.31964C8.62499 8.14832 8.55478 7.9461 8.55478 7.70598C8.55478 7.31278 8.77314 6.98067 9.2197 6.6928C9.6831 6.39229 10.3094 6.24133 11.0754 6.24133C11.9032 6.24133 12.505 6.37684 12.8652 6.64716C13.2373 6.92591 13.5603 7.32051 13.8271 7.82112C14.0588 8.21151 14.2673 8.48534 14.4681 8.66087C14.6823 8.84834 14.994 8.94453 15.39 8.94453C15.826 8.94453 16.1975 8.79217 16.4903 8.49026C16.783 8.19185 16.9305 7.84851 16.9305 7.47076C16.9305 7.07827 16.8168 6.67314 16.5949 6.2659C16.3758 5.86218 16.024 5.47601 15.5529 5.1109C15.0846 4.75 14.4906 4.45862 13.7835 4.24236C13.0807 4.02611 12.2396 3.91657 11.2833 3.91657C10.0847 3.91657 9.02801 4.08087 8.13911 4.40456C7.23688 4.73175 6.53685 5.21341 6.058 5.82988C5.57493 6.44986 5.33059 7.16955 5.33059 7.96647C5.33059 8.80411 5.5644 9.51677 6.02359 10.0855C6.47717 10.6444 7.09645 11.0909 7.86528 11.4125C8.61586 11.7285 9.56023 12.0065 10.6738 12.241C11.4918 12.4103 12.1525 12.5731 12.6391 12.7213C13.106 12.8666 13.4908 13.0759 13.7835 13.3441C14.0609 13.6018 14.1971 13.9304 14.1971 14.3446C14.1971 14.874 13.938 15.3065 13.403 15.6646C12.8574 16.0318 12.1314 16.2193 11.2446 16.2193C10.6015 16.2193 10.077 16.1252 9.68872 15.9462C9.30255 15.765 8.99993 15.534 8.78859 15.2581C8.57093 14.9758 8.3645 14.6135 8.17492 14.1838C8.00431 13.7913 7.79296 13.4859 7.54581 13.2788C7.28813 13.0639 6.97007 12.9558 6.60285 12.9558C6.15349 12.9558 5.77715 13.092 5.48366 13.3659C5.18806 13.6411 5.0371 13.9767 5.0371 14.3622C5.0371 14.9836 5.2667 15.6253 5.72308 16.2713C6.17934 16.9193 6.7838 17.4488 7.48613 17.816C8.49439 18.3433 9.78491 18.6108 11.324 18.6108C12.6068 18.6108 13.7323 18.4142 14.6717 18.028Z" fill="#FA6C06"/>
</svg>
