<svg width="45" height="44" viewBox="0 0 45 44" fill="none" xmlns="http://www.w3.org/2000/svg">
<path fill-rule="evenodd" clip-rule="evenodd" d="M24.2 4.66265C22.4542 4.02188 20.5207 4.91859 19.8799 6.66433C19.2366 8.40913 20.1293 10.3456 21.8741 10.9889L25.0318 12.1506L26.1949 8.98901C26.8383 7.24422 25.9456 5.30777 24.2 4.66265C24.2012 4.66313 24.2012 4.66313 24.2 4.66265V4.66265ZM21.0964 13.0988L12.6783 10.0019C10.9326 9.3611 8.99778 10.2573 8.35701 12.0031C7.71236 13.7474 8.60507 15.6838 10.3494 16.3285L18.7688 19.4259C20.5145 20.0666 22.4493 19.1704 23.0901 17.4247C23.7339 15.6786 22.8412 13.7421 21.0964 13.0988Z" fill="#36C5F0"/>
<path fill-rule="evenodd" clip-rule="evenodd" d="M39.9289 23.6181C40.5722 21.8733 39.6795 19.9368 37.9347 19.2935C36.189 18.6527 34.2542 19.5489 33.6134 21.2947L32.4493 24.4589L35.6071 25.6206C37.3528 26.2613 39.2876 25.3651 39.9289 23.6181ZM31.5095 20.5207L34.6131 12.0846C35.2559 10.3411 34.3645 8.40509 32.6202 7.76045C30.8745 7.11968 28.9396 8.01591 28.2989 9.76166L25.1953 18.1978C24.5507 19.9421 25.4434 21.8786 27.1877 22.5232C28.9335 23.164 30.8683 22.2677 31.5095 20.5207Z" fill="#2EB67D"/>
<path fill-rule="evenodd" clip-rule="evenodd" d="M20.981 39.3956C22.7268 40.0363 24.6616 39.1401 25.3023 37.3944C25.9457 35.6496 25.053 33.7131 23.3082 33.0698L20.1504 31.9081L18.9869 35.071C18.344 36.8145 19.2367 38.7509 20.981 39.3956ZM24.085 30.9581L32.5044 34.0555C34.2501 34.6963 36.1849 33.8001 36.8257 32.0543C37.4704 30.31 36.5777 28.3736 34.8333 27.7289L26.414 24.6315C24.6682 23.9908 22.7334 24.887 22.0926 26.6327C21.4488 28.3788 22.3402 30.3148 24.085 30.9581Z" fill="#ECB22E"/>
<path fill-rule="evenodd" clip-rule="evenodd" d="M5.25334 20.4391C4.60999 22.1839 5.50269 24.1204 7.24749 24.7637C8.99323 25.4045 10.9281 24.5083 11.5688 22.7625L12.7324 19.5996L9.57467 18.4379C7.82893 17.7972 5.89411 18.6934 5.25334 20.4391ZM13.6727 23.5365L10.5691 31.9727C9.9245 33.717 10.8172 35.6534 12.5615 36.2981C14.3073 36.9388 16.2421 36.0426 16.8829 34.2969L19.9859 25.862C20.6306 24.1177 19.7379 22.1813 17.9936 21.5366C16.247 20.8941 14.3135 21.7908 13.6727 23.5365C13.6727 23.5365 13.6722 23.5378 13.6727 23.5365Z" fill="#E01E5A"/>
</svg>
