<svg width="70" height="36" viewBox="0 0 70 36" fill="none" xmlns="http://www.w3.org/2000/svg">
<path d="M32.666 28.9976L27.4002 30.1023L26.4214 9.04598L31.687 7.94133L32.666 28.9976Z" fill="#00579F"/>
<path d="M47.5875 5.12542C46.4624 4.93125 44.7195 4.82188 42.6825 5.24922C37.4823 6.34015 34.4022 9.88139 35.2114 13.8507C35.7819 16.7848 38.7877 17.8503 40.9855 18.4075C43.2319 18.9767 44.0609 19.4819 44.2473 20.3702C44.5128 21.7389 43.0192 22.7088 41.5031 23.0269C39.4007 23.4679 38.2062 23.38 36.3351 22.9801L35.5734 22.8002L35.7956 27.5263C37.1487 27.8299 39.5289 27.8519 41.8959 27.3782C47.4211 26.219 50.4455 22.7343 49.6018 18.5005C49.1365 16.1777 47.3566 14.6966 44.0182 13.8814C41.9809 13.336 40.7212 12.9443 40.5212 11.9909C40.3609 11.1196 41.1071 10.0362 43.1861 9.60008C44.8889 9.19747 46.233 9.34509 47.2722 9.55697L47.7939 9.67331L47.5875 5.12542Z" fill="#00579F"/>
<path d="M57.2405 16.3099C57.4287 15.049 58.1475 10.1708 58.1475 10.1708C58.1347 10.2189 58.3303 8.88847 58.4313 8.07573L59.1674 9.75333C59.1674 9.75333 61.1873 14.4189 61.6174 15.3917C60.7944 15.5644 58.2806 16.0917 57.2405 16.3099ZM60.9817 1.79568L56.9085 2.65017C55.6525 2.91368 54.7754 3.48188 54.5107 4.91729L50.6069 25.2335L56.1321 24.0744C56.1321 24.0744 56.5145 21.37 56.5964 20.7876C57.2026 20.6605 62.5776 19.5329 63.3573 19.3693C63.6585 20.0525 64.6265 22.2924 64.6265 22.2924L69.5022 21.2695L60.9817 1.79568Z" fill="#00579F"/>
<path d="M18.7295 10.6597L16.4858 25.6287L15.3314 22.9305C13.6962 19.8806 9.96538 16.977 6.26024 15.9214L14.7201 32.7399L20.2885 31.5717L24.2976 9.49152L18.7295 10.6597Z" fill="#00579F"/>
<path d="M8.78377 12.7461L0.311558 14.5235L0.311209 14.9532C7.27461 15.2567 12.5061 18.4122 15.3316 22.9313L11.5263 13.958C10.9502 12.7209 9.94114 12.5481 8.78377 12.7461Z" fill="#FAA61A"/>
</svg>
