<svg width="23" height="23" viewBox="0 0 23 23" fill="none" xmlns="http://www.w3.org/2000/svg">
<path fill-rule="evenodd" clip-rule="evenodd" d="M5.10244 20.6681L0.850166 21.7835L1.98522 17.638L1.71774 17.213C0.59241 15.422 -0.00311256 13.3491 1.22342e-05 11.2339C0.00304308 5.03957 5.04258 3.03896e-05 11.2399 3.03896e-05C12.7159 -0.00341421 14.1778 0.286003 15.5412 0.851518C16.9045 1.41703 18.1421 2.24741 19.1822 3.29456C20.2285 4.33631 21.0577 5.57519 21.6221 6.93951C22.1864 8.30384 22.4746 9.76653 22.4699 11.243C22.4669 17.4372 17.4274 22.4775 11.2354 22.4775H11.2308C9.2187 22.4778 7.24356 21.9368 5.51236 20.9114L5.10244 20.6681ZM18.0449 14.4579C17.9608 14.317 17.735 14.2321 17.3978 14.0639C17.0599 13.8942 15.3997 13.0774 15.0898 12.9652C14.7799 12.8516 14.5549 12.7955 14.3299 13.1334C14.1048 13.4714 13.4577 14.2321 13.2607 14.4579C13.0637 14.683 12.8667 14.7118 12.5288 14.542C12.1908 14.3731 11.1028 14.0169 9.81313 12.866C8.80841 11.9704 8.13101 10.8649 7.93401 10.5262C7.737 10.1882 7.91279 10.0056 8.08176 9.83664C8.2333 9.6851 8.4197 9.44263 8.58867 9.24562C8.75764 9.04862 8.81371 8.90693 8.92661 8.68189C9.03875 8.45685 8.98268 8.25908 8.89858 8.09087C8.81371 7.92114 8.13859 6.25873 7.85672 5.58285C7.58243 4.92364 7.30359 5.01305 7.09674 5.00244C6.89973 4.99259 6.67469 4.99108 6.44965 4.99108C6.22461 4.99108 5.85864 5.07518 5.54873 5.41388C5.23959 5.75182 4.3667 6.56863 4.3667 8.23105C4.3667 9.89347 5.57753 11.4991 5.74574 11.7241C5.91471 11.9507 8.12722 15.3611 11.5157 16.8243C12.1442 17.0955 12.7866 17.3332 13.4403 17.5365C14.2503 17.7934 14.986 17.7562 15.568 17.6699C16.2173 17.5729 17.5668 16.853 17.8487 16.0635C18.129 15.2755 18.129 14.5989 18.0449 14.4572V14.4579Z" fill="#FA6C06"/>
</svg>
