<svg width="25" height="25" viewBox="0 0 25 25" fill="none" xmlns="http://www.w3.org/2000/svg">
<path d="M12.072 4.37595e-06C5.40949 -0.00561601 0.00548962 5.40351 -0.000117705 12.0816C-0.00572503 18.7596 5.39083 24.1762 12.0534 24.1818C18.715 24.1762 24.1153 18.7681 24.1255 12.0909C24.1255 5.41659 18.7309 0.00562476 12.072 4.37595e-06ZM12.0534 22.1698C6.5 22.1698 1.99793 17.6572 1.99793 12.0909C1.99793 6.52461 6.5 2.01205 12.0534 2.01205C17.6049 2.01767 22.1032 6.5265 22.1088 12.0909C22.1088 17.6572 17.6068 22.1698 12.0534 22.1698Z" fill="#FA6C06"/>
<path d="M15.312 11.5017C16.1187 11.0459 16.5547 10.1336 16.4043 9.21828C16.2176 7.8052 14.5371 7.27174 13.2112 7.15947V5.03516H11.9041V7.14077H11.0265V5.03516H9.71937V7.14077H7.08643V8.49774H8.06677C8.5056 8.49774 8.72033 8.62875 8.72033 8.98435V14.8146C8.72033 15.3012 8.47756 15.451 8.21614 15.451H7.21714V16.836H9.75669V18.9884H11.0731V16.836H11.9508V18.9884H13.2299V16.836H13.51C16.1989 16.836 17.0952 15.5165 17.0952 13.7197C17.0737 12.6603 16.3408 11.7488 15.312 11.5017ZM11.0264 8.58195H11.9601C12.6136 8.58195 13.9021 8.69426 13.9021 9.76109C13.9469 10.4574 13.4437 11.0675 12.7537 11.1555H11.0264V8.58195ZM12.4736 15.3199V15.3105H11.0264V12.503H12.707C13.0992 12.503 14.5743 12.6341 14.5743 13.6822C14.5743 14.7303 13.8741 15.3199 12.4736 15.3199Z" fill="#FA6C06"/>
</svg>
