<svg width="25" height="25" viewBox="0 0 25 25" fill="none" xmlns="http://www.w3.org/2000/svg">
<path fill-rule="evenodd" clip-rule="evenodd" d="M14.7799 5.86297C15.4285 5.24359 15.8327 4.36939 15.8327 3.40057C15.8327 1.52249 14.3138 0 12.44 0C10.5663 0 9.04736 1.52249 9.04736 3.40057C9.04736 4.40003 9.47754 5.29878 10.1624 5.92096L7.28798 10.2427C6.80339 9.97534 6.24661 9.82324 5.65439 9.82324C3.78067 9.82324 2.26172 11.3457 2.26172 13.2238C2.26172 14.5186 2.9837 15.6444 4.04617 16.2188L2.63411 19.6785C2.51298 19.6584 2.3886 19.6479 2.26178 19.6479C1.01263 19.6479 0 20.6629 0 21.915C0 23.167 1.01263 24.182 2.26178 24.182C3.51093 24.182 4.52356 23.167 4.52356 21.915C4.52356 21.1469 4.14242 20.4679 3.55936 20.0579L4.98752 16.5587C5.20314 16.6018 5.42613 16.6244 5.65439 16.6244C5.88265 16.6244 6.10564 16.6018 6.32126 16.5587L7.74941 20.0579C7.16632 20.4679 6.78516 21.1468 6.78516 21.915C6.78516 23.167 7.79779 24.182 9.04694 24.182C10.2961 24.182 11.3087 23.167 11.3087 21.915C11.3087 20.6629 10.2961 19.6479 9.04694 19.6479C8.92014 19.6479 8.79578 19.6584 8.67466 19.6785L7.26261 16.2188C8.32508 15.6444 9.04706 14.5186 9.04706 13.2238C9.04706 12.3007 8.68012 11.4636 8.08448 10.8508L10.9934 6.47736C11.4322 6.68502 11.9226 6.80114 12.44 6.80114C12.9878 6.80114 13.5052 6.67104 13.9632 6.44L16.953 10.6985C16.2649 11.3209 15.8325 12.2217 15.8325 13.2238C15.8325 14.5996 16.6477 15.7846 17.8203 16.32L16.29 19.6943C16.1423 19.6639 15.9893 19.6479 15.8326 19.6479C14.5834 19.6479 13.5708 20.6629 13.5708 21.915C13.5708 23.167 14.5834 24.182 15.8326 24.182C17.0817 24.182 18.0944 23.167 18.0944 21.915C18.0944 21.178 17.7435 20.5231 17.2 20.109L18.7927 16.597C18.9343 16.6151 19.0787 16.6244 19.2252 16.6244C19.536 16.6244 19.8371 16.5825 20.1231 16.504L21.3943 20.0079C20.7696 20.4114 20.356 21.1148 20.356 21.915C20.356 23.167 21.3686 24.182 22.6177 24.182C23.8669 24.182 24.8795 23.167 24.8795 21.915C24.8795 20.6629 23.8669 19.6479 22.6177 19.6479C22.5216 19.6479 22.4269 19.654 22.3339 19.6656L21.0395 16.0978C21.9882 15.4949 22.6179 14.433 22.6179 13.2238C22.6179 11.3457 21.0989 9.82324 19.2252 9.82324C18.7104 9.82324 18.2224 9.93816 17.7853 10.1438L14.7799 5.86297Z" fill="#FA6C06"/>
</svg>
