<svg width="25" height="25" viewBox="0 0 25 25" fill="none" xmlns="http://www.w3.org/2000/svg">
<path d="M7.11523 18.4204V19.1289C7.11523 20.0734 7.73722 20.8665 8.58906 21.1425C8.87414 22.8109 10.3182 24.1825 12.0629 24.1825C13.8075 24.1825 15.2516 22.8109 15.5366 21.1425C16.3885 20.8665 17.0105 20.0734 17.0105 19.1289V18.4204H7.11523Z" fill="#FA6C06"/>
<path d="M10.2416 0.191025C7.0513 0.858667 4.45324 3.45447 3.77678 6.6508C3.20182 9.37044 3.9114 12.1005 5.72256 14.1414C6.45481 14.9673 6.90151 15.9642 7.04801 17.0029H17.0806C17.2321 15.9691 17.6919 14.9564 18.445 14.095C19.7992 12.5474 20.5919 10.5604 20.5919 8.50145C20.5919 3.1087 15.61 -0.941784 10.2416 0.191025Z" fill="#FA6C06"/>
<path d="M2.12041 8.50195H0.706803C0.316129 8.50195 0 8.81882 0 9.2104C0 9.60198 0.316129 9.91885 0.706803 9.91885H2.12041C2.51108 9.91885 2.82721 9.60198 2.82721 9.2104C2.82721 8.81882 2.51108 8.50195 2.12041 8.50195Z" fill="#FA6C06"/>
<path d="M2.41302 4.9601L1.41356 3.95831C1.13743 3.68154 0.690166 3.68154 0.414089 3.95831C0.138012 4.23503 0.138012 4.68338 0.414089 4.9601L1.41356 5.96189C1.68963 6.23861 2.13695 6.23861 2.41302 5.96189C2.6891 5.68517 2.6891 5.23682 2.41302 4.9601Z" fill="#FA6C06"/>
<path d="M2.41302 12.459C2.13695 12.1823 1.68963 12.1823 1.41356 12.459L0.414089 13.4608C0.138012 13.7375 0.138012 14.1859 0.414089 14.4626C0.690166 14.7393 1.13748 14.7393 1.41356 14.4626L2.41302 13.4608C2.6891 13.1841 2.6891 12.7357 2.41302 12.459Z" fill="#FA6C06"/>
<path d="M23.4187 8.50195H22.0051C21.6145 8.50195 21.2983 8.81882 21.2983 9.2104C21.2983 9.60198 21.6145 9.91885 22.0051 9.91885H23.4187C23.8094 9.91885 24.1256 9.60198 24.1256 9.2104C24.1256 8.81882 23.8094 8.50195 23.4187 8.50195Z" fill="#FA6C06"/>
<path d="M23.7109 3.95827C23.4348 3.68155 22.9875 3.68155 22.7114 3.95827L21.7119 4.96007C21.4359 5.23679 21.4359 5.68514 21.7119 5.96186C21.988 6.23858 22.4353 6.23858 22.7114 5.96186L23.7109 4.96007C23.987 4.68335 23.987 4.23499 23.7109 3.95827Z" fill="#FA6C06"/>
<path d="M23.7109 13.4608L22.7114 12.459C22.4353 12.1823 21.988 12.1823 21.7119 12.459C21.4359 12.7357 21.4359 13.1841 21.7119 13.4608L22.7114 14.4626C22.9875 14.7393 23.4348 14.7393 23.7109 14.4626C23.987 14.1859 23.987 13.7375 23.7109 13.4608Z" fill="#FA6C06"/>
</svg>
