<svg width="26" height="22" viewBox="0 0 26 22" fill="none" xmlns="http://www.w3.org/2000/svg">
<path d="M23.0366 6.96964H22.7465L19.1498 0.996434C18.8711 0.534594 18.4211 0.204502 17.8827 0.0674341C17.3469 -0.0687003 16.7864 0.00279713 16.3068 0.268206L1.03769 8.71974C0.0467839 9.2681 -0.2943 10.4864 0.27684 11.4348L0.535904 11.8651L0.536101 11.8655L0.96902 12.5841L3.14137 16.1908V19.9126C3.14137 21.0108 4.08069 21.9038 5.23573 21.9038H23.0365C24.1916 21.9038 25.1309 21.0108 25.1309 19.9126V8.96088C25.1309 7.8627 24.1916 6.96964 23.0366 6.96964ZM3.14147 14.1862L2.74159 13.522L3.14147 13.3007V14.1862ZM3.14147 8.96088V9.85208L1.18504 10.9349C0.902217 10.4602 1.07185 9.85348 1.56514 9.58018L3.17014 8.69183C3.15733 8.78069 3.14147 8.86875 3.14147 8.96088ZM19.7993 4.0795L21.5395 6.96964H14.5783L19.7993 4.0795ZM16.8342 1.12869C17.0715 0.997414 17.3476 0.960965 17.6119 1.02906C17.8793 1.0971 18.1023 1.26142 18.2408 1.49136L18.2419 1.49318L8.34848 6.96964H6.28151L16.8342 1.12869ZM12.5659 15.4324C12.5659 15.7075 12.3317 15.9302 12.0423 15.9302H6.80651C6.51712 15.9302 6.28294 15.7075 6.28294 15.4324C6.28294 15.1572 6.51712 14.9346 6.80651 14.9346H12.0423C12.3317 14.9346 12.5659 15.1572 12.5659 15.4324ZM14.1366 18.917H6.80651C6.51712 18.917 6.28294 18.6943 6.28294 18.4192C6.28294 18.144 6.51712 17.9213 6.80651 17.9213H14.1366C14.426 17.9213 14.6602 18.144 14.6602 18.4192C14.6602 18.6943 14.426 18.917 14.1366 18.917ZM19.8305 18.917C19.1288 18.917 18.5688 18.917 17.8671 18.917C16.6762 18.917 15.7073 18.024 15.7073 16.9257C15.7073 15.8275 16.6762 14.9345 17.8671 14.9345C18.5688 14.9345 19.1288 14.9345 19.8305 14.9345C21.0213 14.9345 21.9903 15.8275 21.9903 16.9257C21.9903 18.024 21.0213 18.917 19.8305 18.917Z" fill="#FA6C06"/>
</svg>
