<svg width="24" height="24" viewBox="0 0 24 24" fill="none" xmlns="http://www.w3.org/2000/svg">
<path d="M23.664 10.068L20.5897 9.65806C20.3899 8.92413 20.0988 8.22852 19.7292 7.58323L21.6139 5.11858C21.7316 4.96452 21.7173 4.74697 21.5803 4.60994L19.3905 2.42013C19.253 2.28271 19.0359 2.26761 18.8818 2.38645L16.4172 4.27123C15.7719 3.90155 15.0763 3.61045 14.3423 3.41071L13.9324 0.336387C13.9065 0.143613 13.7423 0 13.5484 0H10.4516C10.2577 0 10.0935 0.143613 10.068 0.336L9.65806 3.41032C8.92413 3.61006 8.22852 3.90116 7.58323 4.27084L5.11858 2.38606C4.96452 2.26761 4.74697 2.28232 4.60994 2.41974L2.42013 4.60955C2.2831 4.74658 2.26839 4.96413 2.38645 5.11819L4.27123 7.58284C3.90155 8.22813 3.61045 8.92374 3.41071 9.65768L0.336387 10.0676C0.143613 10.0935 0 10.2577 0 10.4516V13.5484C0 13.7423 0.143613 13.9065 0.336 13.932L3.41032 14.3419C3.61006 15.0759 3.90116 15.7715 4.27084 16.4168L2.38606 18.8814C2.26839 19.0355 2.28271 19.253 2.41974 19.3901L4.60955 21.5799C4.68465 21.655 4.78374 21.6933 4.88361 21.6933C4.96606 21.6933 5.0489 21.6674 5.11858 21.6135L7.58323 19.7288C8.22852 20.0985 8.92413 20.3895 9.65806 20.5893L10.068 23.6636C10.0935 23.8564 10.2577 24 10.4516 24H13.5484C13.7423 24 13.9065 23.8564 13.932 23.664L14.3419 20.5897C15.0759 20.3899 15.7715 20.0988 16.4168 19.7292L18.8814 21.6139C18.9511 21.6677 19.0339 21.6937 19.1164 21.6937C19.2163 21.6937 19.3154 21.6554 19.3905 21.5803L21.5803 19.3905C21.7173 19.2534 21.732 19.0359 21.6139 18.8818L19.7292 16.4172C20.0988 15.7719 20.3899 15.0763 20.5897 14.3423L23.664 13.9324C23.8564 13.9065 24 13.7423 24 13.5484V10.4516C24 10.2577 23.8564 10.0935 23.664 10.068ZM12 15.4839C10.0757 15.4839 8.51613 13.9243 8.51613 12C8.51613 10.0757 10.0757 8.51613 12 8.51613C13.9243 8.51613 15.4839 10.0757 15.4839 12C15.4839 13.9243 13.9243 15.4839 12 15.4839Z" fill="#FA6C06"/>
<path d="M23.664 10.068L20.5897 9.65806C20.3899 8.92413 20.0988 8.22852 19.7292 7.58323L21.6139 5.11858C21.7316 4.96452 21.7173 4.74697 21.5803 4.60994L19.3905 2.42013C19.253 2.28271 19.0359 2.26761 18.8818 2.38645L16.4172 4.27123C15.7719 3.90155 15.0763 3.61045 14.3423 3.41071L13.9324 0.336387C13.9065 0.143613 13.7423 0 13.5484 0H10.4516C10.2577 0 10.0935 0.143613 10.068 0.336L9.65806 3.41032C8.92413 3.61006 8.22852 3.90116 7.58323 4.27084L5.11858 2.38606C4.96452 2.26761 4.74697 2.28232 4.60994 2.41974L2.42013 4.60955C2.2831 4.74658 2.26839 4.96413 2.38645 5.11819L4.27123 7.58284C3.90155 8.22813 3.61045 8.92374 3.41071 9.65768L0.336387 10.0676C0.143613 10.0935 0 10.2577 0 10.4516V13.5484C0 13.7423 0.143613 13.9065 0.336 13.932L3.41032 14.3419C3.61006 15.0759 3.90116 15.7715 4.27084 16.4168L2.38606 18.8814C2.26839 19.0355 2.28271 19.253 2.41974 19.3901L4.60955 21.5799C4.68465 21.655 4.78374 21.6933 4.88361 21.6933C4.96606 21.6933 5.0489 21.6674 5.11858 21.6135L7.58323 19.7288C8.22852 20.0985 8.92413 20.3895 9.65806 20.5893L10.068 23.6636C10.0935 23.8564 10.2577 24 10.4516 24H13.5484C13.7423 24 13.9065 23.8564 13.932 23.664L14.3419 20.5897C15.0759 20.3899 15.7715 20.0988 16.4168 19.7292L18.8814 21.6139C18.9511 21.6677 19.0339 21.6937 19.1164 21.6937C19.2163 21.6937 19.3154 21.6554 19.3905 21.5803L21.5803 19.3905C21.7173 19.2534 21.732 19.0359 21.6139 18.8818L19.7292 16.4172C20.0988 15.7719 20.3899 15.0763 20.5897 14.3423L23.664 13.9324C23.8564 13.9065 24 13.7423 24 13.5484V10.4516C24 10.2577 23.8564 10.0935 23.664 10.068ZM12 15.4839C10.0757 15.4839 8.51613 13.9243 8.51613 12C8.51613 10.0757 10.0757 8.51613 12 8.51613C13.9243 8.51613 15.4839 10.0757 15.4839 12C15.4839 13.9243 13.9243 15.4839 12 15.4839Z" fill="#FA6C06"/>
<path d="M23.664 10.068L20.5897 9.65806C20.3899 8.92413 20.0988 8.22852 19.7292 7.58323L21.6139 5.11858C21.7316 4.96452 21.7173 4.74697 21.5803 4.60994L19.3905 2.42013C19.253 2.28271 19.0359 2.26761 18.8818 2.38645L16.4172 4.27123C15.7719 3.90155 15.0763 3.61045 14.3423 3.41071L13.9324 0.336387C13.9065 0.143613 13.7423 0 13.5484 0H10.4516C10.2577 0 10.0935 0.143613 10.068 0.336L9.65806 3.41032C8.92413 3.61006 8.22852 3.90116 7.58323 4.27084L5.11858 2.38606C4.96452 2.26761 4.74697 2.28232 4.60994 2.41974L2.42013 4.60955C2.2831 4.74658 2.26839 4.96413 2.38645 5.11819L4.27123 7.58284C3.90155 8.22813 3.61045 8.92374 3.41071 9.65768L0.336387 10.0676C0.143613 10.0935 0 10.2577 0 10.4516V13.5484C0 13.7423 0.143613 13.9065 0.336 13.932L3.41032 14.3419C3.61006 15.0759 3.90116 15.7715 4.27084 16.4168L2.38606 18.8814C2.26839 19.0355 2.28271 19.253 2.41974 19.3901L4.60955 21.5799C4.68465 21.655 4.78374 21.6933 4.88361 21.6933C4.96606 21.6933 5.0489 21.6674 5.11858 21.6135L7.58323 19.7288C8.22852 20.0985 8.92413 20.3895 9.65806 20.5893L10.068 23.6636C10.0935 23.8564 10.2577 24 10.4516 24H13.5484C13.7423 24 13.9065 23.8564 13.932 23.664L14.3419 20.5897C15.0759 20.3899 15.7715 20.0988 16.4168 19.7292L18.8814 21.6139C18.9511 21.6677 19.0339 21.6937 19.1164 21.6937C19.2163 21.6937 19.3154 21.6554 19.3905 21.5803L21.5803 19.3905C21.7173 19.2534 21.732 19.0359 21.6139 18.8818L19.7292 16.4172C20.0988 15.7719 20.3899 15.0763 20.5897 14.3423L23.664 13.9324C23.8564 13.9065 24 13.7423 24 13.5484V10.4516C24 10.2577 23.8564 10.0935 23.664 10.068ZM12 15.4839C10.0757 15.4839 8.51613 13.9243 8.51613 12C8.51613 10.0757 10.0757 8.51613 12 8.51613C13.9243 8.51613 15.4839 10.0757 15.4839 12C15.4839 13.9243 13.9243 15.4839 12 15.4839Z" fill="#FA6C06"/>
</svg>
