<svg width="35" height="24" viewBox="0 0 35 24" fill="none" xmlns="http://www.w3.org/2000/svg">
<path d="M31.7125 18.1631V16.8662V9.08157V1.2969C31.7125 0.584424 31.1294 0 30.417 0H4.53106C3.81901 0 3.23431 0.581552 3.23431 1.2969V9.08157V16.8662V18.1631L0 22.0555C0 23.1279 0.868869 24 1.94001 24H33.0064C34.0775 24 34.9464 23.1275 34.9464 22.0555L31.7125 18.1631ZM20.0642 23.354H14.8871C14.7069 23.354 14.5632 23.21 14.5632 23.0294C14.5632 22.8488 14.7069 22.7047 14.8871 22.7047H20.0642C20.2415 22.7047 20.3881 22.8488 20.3881 23.0294C20.3836 23.21 20.2415 23.354 20.0642 23.354ZM12.138 22.0571L13.1256 20.869H21.8212L22.8088 22.0571H12.138ZM29.8896 15.8689C29.8896 16.4948 29.381 17.0013 28.7611 17.0013H6.18527C5.56535 17.0013 5.0568 16.4903 5.0568 15.8689V2.29707C5.0568 1.67119 5.56535 1.16475 6.18527 1.16475H28.7611C29.381 1.16475 29.8896 1.67448 29.8896 2.29707V15.8689Z" fill="#FA6C06"/>
<path d="M22.9505 12.0433C22.6385 11.9082 22.3601 11.7244 22.1079 11.4954C21.9277 11.3324 21.7738 11.1399 21.6493 10.9298C21.5584 10.7784 21.4749 10.6228 21.4118 10.4628C21.3487 10.3027 21.3107 10.1295 21.2681 9.96329C21.2374 9.83976 21.2169 9.71664 21.2095 9.59023C21.1993 9.31402 21.2038 9.04233 21.2681 8.77064C21.3221 8.54902 21.3897 8.33602 21.4892 8.13327C21.734 7.64119 22.0915 7.25951 22.5632 6.98043C22.5955 6.95539 22.632 6.93487 22.6729 6.90861C22.6422 6.87783 22.623 6.85279 22.6013 6.82653C22.3478 6.51092 22.0415 6.25236 21.6956 6.05085C21.5064 5.94086 21.3074 5.84811 21.1092 5.76438C20.9921 5.71431 20.866 5.68353 20.7427 5.65727C20.6285 5.631 20.5053 5.62074 20.3898 5.60596C20.0835 5.56944 19.7801 5.61171 19.4828 5.66917C19.3379 5.69543 19.2016 5.74427 19.0607 5.78942C18.9448 5.82307 18.8322 5.87027 18.7208 5.90967C18.6226 5.94332 18.5231 5.99052 18.4232 6.01679C18.2709 6.05947 18.114 6.09887 17.9588 6.13006C17.6804 6.19039 17.4049 6.14032 17.1354 6.07424C17.0093 6.04346 16.8893 5.99626 16.7661 5.95687C16.6211 5.90967 16.4803 5.85837 16.3337 5.80994C16.2076 5.7689 16.0815 5.71883 15.9513 5.69256C15.799 5.66014 15.6405 5.63839 15.4837 5.61048C15.1479 5.55754 14.8171 5.61048 14.4903 5.69872C14.3216 5.74263 14.1579 5.81774 13.9982 5.88833C13.7402 5.99709 13.5101 6.15715 13.2964 6.33198C13.0077 6.55976 12.7645 6.83432 12.5548 7.13556C12.4127 7.33543 12.2924 7.54105 12.215 7.77293C12.1536 7.9449 12.0979 8.11973 12.0496 8.29744C12.0131 8.43862 11.9779 8.57816 11.9587 8.7218C11.9353 8.88063 11.9251 9.04356 11.9177 9.20363C11.9091 9.39898 11.9058 9.59434 11.912 9.78518C11.9193 9.96863 11.937 10.1525 11.9558 10.3331C11.9763 10.505 12.0012 10.6766 12.0319 10.8502C12.0553 10.9737 12.0876 11.094 12.12 11.2159C12.1654 11.3919 12.2092 11.5701 12.2666 11.7416C12.3325 11.9398 12.4058 12.1368 12.4864 12.326C12.595 12.5817 12.7076 12.8358 12.8365 13.0824C13.0609 13.5068 13.323 13.9139 13.6161 14.2985C13.8127 14.557 14.019 14.8037 14.2684 15.015C14.5554 15.2646 14.8719 15.4513 15.256 15.5203C15.5885 15.5777 15.8964 15.5084 16.1982 15.3939C16.3505 15.3335 16.4971 15.2674 16.6482 15.2042C16.9004 15.0955 17.167 15.0294 17.4409 15.0031C17.7734 14.9724 18.0972 14.9797 18.417 15.075C18.5943 15.1263 18.7688 15.1923 18.9387 15.2646C19.1819 15.3643 19.4177 15.4776 19.6831 15.5203C20.0467 15.5777 20.3718 15.494 20.6838 15.322C20.9639 15.1694 21.2038 14.9637 21.4134 14.7228C21.6186 14.4848 21.8106 14.2353 21.9936 13.9796C22.1799 13.721 22.3572 13.4584 22.5124 13.1821C22.7016 12.8444 22.8641 12.4873 23.0386 12.1393C23.059 12.0995 23.0431 12.0716 23.0079 12.0527C22.9858 12.049 22.9665 12.049 22.9505 12.0433Z" fill="#FA6C06"/>
<path d="M17.9939 5.57824C18.2195 5.50478 18.432 5.39889 18.6343 5.26838C18.9185 5.08164 19.1617 4.8514 19.3627 4.57355C19.5724 4.2916 19.7304 3.9801 19.8344 3.64397C19.9106 3.39732 19.9577 3.14738 19.9401 2.86419C19.9401 2.80838 19.9429 2.72917 19.9401 2.64955C19.9372 2.55844 19.9208 2.54243 19.8344 2.55844C19.6481 2.59825 19.4565 2.63026 19.2759 2.69798C19.0663 2.78006 18.8657 2.87856 18.6753 2.99306C18.2343 3.25449 17.8928 3.61278 17.6365 4.0552C17.5165 4.26369 17.4223 4.4767 17.3535 4.70283C17.3228 4.80995 17.295 4.92445 17.2802 5.03937C17.2553 5.22611 17.2524 5.41818 17.2774 5.60779C17.2831 5.66196 17.2995 5.687 17.3552 5.68577C17.5734 5.68289 17.7859 5.64473 17.9939 5.57824Z" fill="#FA6C06"/>
</svg>
