<svg width="25" height="25" viewBox="0 0 25 25" fill="none" xmlns="http://www.w3.org/2000/svg">
<path d="M23.2718 2.39639H14.6223L14.3705 0.609712C14.3159 0.222181 13.9581 -0.0476396 13.5716 0.00708067C13.185 0.0618009 12.9158 0.420318 12.9704 0.807896L13.1942 2.39634H10.9436L11.1674 0.807896C11.2221 0.420365 10.9529 0.0618009 10.5662 0.00708067C10.1798 -0.0477814 9.82182 0.222134 9.76723 0.609712L9.51548 2.39639H0.866089C0.388517 2.39639 0 2.78581 0 3.2645V17.1753C0 17.654 0.388517 18.0434 0.866089 18.0434H7.31106L6.56 23.374C6.50536 23.7615 6.77455 24.1201 7.16123 24.1748C7.19475 24.1795 7.22808 24.1818 7.26104 24.1818C7.60769 24.1818 7.91036 23.9261 7.96019 23.5721L8.36332 20.7107H15.7746L16.1777 23.5721C16.2276 23.9261 16.5303 24.1818 16.8769 24.1818C16.9098 24.1818 16.9432 24.1795 16.9767 24.1748C17.3633 24.1201 17.6325 23.7615 17.5779 23.374L16.8269 18.0434H23.2718C23.7494 18.0434 24.1379 17.654 24.1379 17.1753V3.2645C24.1379 2.78581 23.7494 2.39639 23.2718 2.39639ZM8.56307 19.2933L8.73915 18.0434H15.3988L15.5749 19.2933H8.56307ZM17.8106 11.0047C17.7954 11.0277 17.779 11.0497 17.7615 11.0704C17.7593 11.0729 17.7572 11.0753 17.755 11.0778C17.7371 11.0984 17.7183 11.118 17.6984 11.1361C17.6964 11.138 17.6943 11.1396 17.6923 11.1415C17.6721 11.1595 17.6511 11.1765 17.6291 11.1919L17.6268 11.1936C17.6053 11.2086 17.5829 11.222 17.5601 11.2344C17.5567 11.2363 17.5534 11.2383 17.55 11.24C17.5278 11.2516 17.505 11.2618 17.4818 11.271C17.4775 11.2727 17.4733 11.2744 17.4689 11.276C17.4456 11.2847 17.4219 11.2921 17.3978 11.2983C17.3939 11.2993 17.3899 11.3002 17.386 11.3012C17.361 11.3071 17.3358 11.312 17.3102 11.3152C17.3079 11.3155 17.3055 11.3157 17.3032 11.3159C17.2762 11.319 17.2491 11.3209 17.2218 11.3209L17.2179 11.3207C17.1955 11.3206 17.173 11.3191 17.1507 11.3168C17.145 11.3163 17.1395 11.3157 17.1339 11.315C17.1106 11.3121 17.0874 11.3081 17.0643 11.3028C17.0603 11.3019 17.0564 11.3008 17.0524 11.2997C17.0292 11.294 17.0061 11.2872 16.9833 11.2789L16.979 11.2775C16.9552 11.2687 16.9319 11.2583 16.9088 11.2468C16.9065 11.2457 16.9042 11.245 16.9019 11.2438L15.1826 10.3676C15.0994 10.3253 14.9994 10.3345 14.9253 10.3915L12.964 11.9005C12.9532 11.9088 12.9421 11.9163 12.931 11.9238C12.9275 11.9262 12.9243 11.929 12.9207 11.9314L12.918 11.933C12.9113 11.9374 12.9044 11.9412 12.8976 11.9453C12.8884 11.9508 12.8793 11.9564 12.87 11.9614C12.8623 11.9656 12.8545 11.9694 12.8466 11.9733C12.8378 11.9777 12.829 11.982 12.8201 11.986C12.8122 11.9895 12.8043 11.9927 12.7964 11.9959C12.7872 11.9997 12.7779 12.0032 12.7686 12.0065C12.7609 12.0093 12.7532 12.0118 12.7454 12.0143C12.7355 12.0174 12.7254 12.0203 12.7154 12.023C12.7081 12.0249 12.7009 12.0268 12.6936 12.0285C12.6826 12.0311 12.6716 12.0332 12.6606 12.0352C12.654 12.0364 12.6475 12.0377 12.6409 12.0388C12.6282 12.0407 12.6155 12.0421 12.6028 12.0434C12.5978 12.0438 12.5928 12.0446 12.5878 12.045C12.5699 12.0463 12.552 12.0471 12.5341 12.0471L12.5313 12.047C12.5044 12.0469 12.4777 12.0452 12.4511 12.042C12.4424 12.041 12.4339 12.039 12.4252 12.0376C12.4064 12.0347 12.3877 12.0317 12.3692 12.0273C12.3592 12.0249 12.3496 12.0216 12.3398 12.0188C12.3229 12.014 12.306 12.0092 12.2895 12.0031C12.2792 11.9993 12.2691 11.9947 12.259 11.9904C12.2435 11.9839 12.2282 11.9773 12.2132 11.9697C12.2027 11.9643 12.1925 11.9584 12.1823 11.9525C12.1684 11.9445 12.1546 11.9363 12.1412 11.9273C12.1307 11.9203 12.1205 11.9128 12.1104 11.9051C12.098 11.8959 12.0859 11.8863 12.0741 11.8761C12.064 11.8674 12.0542 11.8584 12.0444 11.8491C12.0335 11.8385 12.0229 11.8275 12.0124 11.816C12.0032 11.8059 11.9942 11.7956 11.9855 11.7849C11.9813 11.7797 11.9766 11.7752 11.9725 11.7698C11.9651 11.7602 11.959 11.7501 11.9522 11.7403C11.9488 11.7354 11.9449 11.7313 11.9417 11.7263L10.8166 10.0027C10.7302 9.87029 10.5424 9.85479 10.4356 9.97132L6.75579 13.9836L6.75301 13.9863C6.74094 13.9993 6.72797 14.0115 6.71477 14.0237C6.7094 14.0287 6.70426 14.0342 6.69874 14.039C6.6896 14.0469 6.67965 14.0542 6.67003 14.0617C6.6599 14.0696 6.65 14.078 6.63953 14.0853C6.62232 14.0973 6.60427 14.1086 6.58645 14.1188C6.5797 14.1227 6.57287 14.1261 6.56603 14.1298C6.55269 14.1369 6.53926 14.1435 6.52568 14.1497C6.51927 14.1526 6.5129 14.1555 6.50644 14.1582C6.48758 14.1661 6.46859 14.1732 6.44935 14.1793L6.44647 14.1803C6.42493 14.1871 6.4031 14.1926 6.38123 14.1972C6.37745 14.198 6.37368 14.1986 6.36986 14.1993C6.35143 14.2029 6.3329 14.2057 6.31433 14.2078C6.30999 14.2083 6.3057 14.2088 6.30136 14.2093C6.27954 14.2113 6.25771 14.2127 6.23588 14.2127L6.23352 14.2125C6.20887 14.2125 6.18426 14.2108 6.15974 14.2081C6.15248 14.2073 6.14536 14.2061 6.13815 14.2051C6.11925 14.2025 6.10044 14.1992 6.08186 14.195C6.07507 14.1935 6.06833 14.1921 6.06164 14.1904C6.04009 14.1849 6.01878 14.1785 5.99775 14.1709C5.99455 14.1698 5.9913 14.169 5.98814 14.1678C5.96395 14.1587 5.94024 14.1483 5.91695 14.1365C5.91139 14.1337 5.90611 14.1304 5.90064 14.1275C5.88395 14.1184 5.86749 14.1088 5.85142 14.0984C5.84331 14.0932 5.83539 14.0876 5.82747 14.082C5.81531 14.0733 5.79612 14.0583 5.78457 14.0488C5.77783 14.0434 5.77113 14.0379 5.76463 14.0321C5.76208 14.0298 5.75935 14.0279 5.7568 14.0255C5.74501 14.0146 5.73436 14.003 5.72352 13.9915C5.71852 13.9862 5.71314 13.9814 5.70829 13.976C5.68976 13.9553 5.67288 13.9337 5.65718 13.9114L5.65492 13.9085L4.16417 11.7614C3.94674 11.4482 3.99987 11.0112 4.30178 10.7788C4.6242 10.5307 5.08405 10.605 5.31355 10.9355L6.13895 12.1246C6.22754 12.2522 6.41121 12.2647 6.51615 12.1503L10.2201 8.11206C10.223 8.1089 10.2262 8.1062 10.2292 8.10308C10.2388 8.09306 10.2487 8.08333 10.2589 8.07379C10.267 8.06623 10.2751 8.0588 10.2835 8.05172C10.292 8.04439 10.3009 8.0374 10.31 8.03045C10.3208 8.02209 10.3317 8.01406 10.3429 8.0064C10.3465 8.0039 10.3498 8.00106 10.3535 7.99865C10.3578 7.99582 10.3623 7.99364 10.3667 7.9909C10.379 7.98325 10.3913 7.97597 10.4039 7.96912C10.4125 7.96444 10.4212 7.96 10.4299 7.9557C10.4416 7.94998 10.4533 7.94459 10.4653 7.93954C10.4756 7.93514 10.4859 7.93103 10.4964 7.92716C10.5068 7.92333 10.5173 7.91978 10.5279 7.91643C10.5399 7.9126 10.5519 7.90906 10.5641 7.90594C10.5735 7.90353 10.5829 7.90135 10.5924 7.89932C10.6056 7.89649 10.6187 7.89394 10.632 7.8919C10.6411 7.89049 10.6501 7.88935 10.6592 7.88831C10.6726 7.88675 10.6859 7.88548 10.6993 7.88472C10.7089 7.88415 10.7185 7.88392 10.7281 7.88373C10.7408 7.88354 10.7533 7.88349 10.7659 7.88397C10.7766 7.88434 10.7873 7.88515 10.7981 7.886C10.8095 7.88694 10.8207 7.88798 10.832 7.88945C10.8439 7.89101 10.8557 7.89299 10.8674 7.89512C10.8776 7.89696 10.8876 7.8989 10.8977 7.90117C10.9101 7.904 10.9225 7.90731 10.9348 7.91081C10.9442 7.9135 10.9536 7.91624 10.9629 7.91936C10.975 7.92338 10.9871 7.92786 10.9991 7.93259C11.0086 7.93632 11.018 7.9402 11.0274 7.94436C11.0384 7.94927 11.0493 7.95451 11.0601 7.96004C11.0704 7.96524 11.0806 7.97068 11.0907 7.97644C11.1 7.98178 11.1091 7.98731 11.1182 7.99312C11.1295 8.00026 11.1405 8.00772 11.1514 8.01552C11.1591 8.021 11.1666 8.02658 11.1741 8.03244C11.1856 8.04142 11.1968 8.05082 11.2079 8.06055C11.2116 8.06386 11.2156 8.06665 11.2193 8.07005C11.2225 8.07298 11.2252 8.07624 11.2283 8.07922C11.2383 8.08876 11.2479 8.09864 11.2574 8.1088C11.265 8.11698 11.2725 8.1252 11.2796 8.13366C11.2868 8.14216 11.2937 8.15095 11.3006 8.15988C11.309 8.17084 11.3171 8.1819 11.3248 8.19324C11.3273 8.19684 11.3301 8.20005 11.3325 8.20373L12.5567 10.0792C12.6384 10.2041 12.8088 10.2332 12.927 10.1422L14.5391 8.90182C14.543 8.8988 14.5472 8.89639 14.5513 8.89346C14.5625 8.88519 14.574 8.87725 14.5857 8.86969C14.5944 8.86397 14.6033 8.85849 14.6122 8.85319C14.6224 8.84719 14.6328 8.84152 14.6433 8.83604C14.6541 8.83037 14.665 8.82494 14.676 8.81993C14.685 8.81577 14.6942 8.81194 14.7035 8.80816C14.7159 8.80311 14.7283 8.79829 14.7408 8.79399C14.7495 8.79101 14.7584 8.78836 14.7672 8.78567C14.7801 8.78179 14.7931 8.77811 14.8061 8.77499C14.8156 8.77272 14.8252 8.77083 14.8349 8.76899C14.8471 8.76663 14.8592 8.76431 14.8716 8.76261C14.8828 8.761 14.8941 8.75996 14.9054 8.75892C14.9162 8.75793 14.9268 8.75698 14.9375 8.75646C14.9505 8.75585 14.9635 8.75585 14.9765 8.75599C14.9858 8.75609 14.995 8.75613 15.0042 8.75656C15.0181 8.75722 15.032 8.75854 15.0459 8.76006C15.0546 8.761 15.0632 8.76195 15.0719 8.76318C15.0854 8.76516 15.0989 8.76771 15.1123 8.7705C15.1218 8.77244 15.1312 8.77447 15.1406 8.77678C15.1525 8.77976 15.1644 8.78316 15.1762 8.78685C15.1874 8.79025 15.1985 8.79389 15.2095 8.79786C15.2193 8.8014 15.229 8.80518 15.2387 8.8092C15.2517 8.81454 15.2645 8.82026 15.2771 8.8264C15.2815 8.82853 15.286 8.83009 15.2903 8.83231L16.7847 9.5939C16.8948 9.65004 17.0294 9.61408 17.0971 9.51045L19.0419 6.53311C19.2558 6.20569 19.694 6.11401 20.0208 6.32841C20.3475 6.5428 20.4389 6.98203 20.225 7.3095L17.8142 11.0003L17.8106 11.0047Z" fill="#FA6C06"/>
</svg>
