<svg width="26" height="25" viewBox="0 0 26 25" fill="none" xmlns="http://www.w3.org/2000/svg">
<path fill-rule="evenodd" clip-rule="evenodd" d="M13.4549 6.90576C15.0432 6.58262 16.2386 5.17513 16.2386 3.48776C16.2386 1.56152 14.6807 0 12.759 0C10.8372 0 9.2793 1.56152 9.2793 3.48776C9.2793 5.1751 10.4747 6.58258 12.063 6.90575V16.0453C12.063 16.4296 12.3746 16.7412 12.7589 16.7412C13.1433 16.7412 13.4549 16.4296 13.4549 16.0453V6.90576ZM2.78369 4.25586C2.78369 3.70357 3.23141 3.25586 3.78369 3.25586H8.12938C8.50809 3.25586 8.8151 3.56287 8.8151 3.94159C8.8151 4.32031 8.50809 4.62732 8.12938 4.62732H5.23123C4.67895 4.62732 4.23123 5.07503 4.23123 5.62732V16.0181C4.23123 16.4178 3.90719 16.7419 3.50746 16.7419C3.10773 16.7419 2.78369 16.4178 2.78369 16.0181V4.25586ZM22.7334 4.25586C22.7334 3.70357 22.2857 3.25586 21.7334 3.25586H17.3877C17.009 3.25586 16.702 3.56287 16.702 3.94159C16.702 4.32031 17.009 4.62732 17.3877 4.62732H20.2859C20.8381 4.62732 21.2859 5.07503 21.2859 5.62732V16.0181C21.2859 16.4178 21.6099 16.7419 22.0096 16.7419C22.4094 16.7419 22.7334 16.4178 22.7334 16.0181V4.25586ZM16.2386 20.6938C16.2386 22.6201 14.6807 24.1816 12.759 24.1816C10.8372 24.1816 9.2793 22.6201 9.2793 20.6938C9.2793 18.7676 10.8372 17.2061 12.759 17.2061C14.6807 17.2061 16.2386 18.7676 16.2386 20.6938ZM22.0378 24.1816C23.9595 24.1816 25.5174 22.6201 25.5174 20.6938C25.5174 18.7676 23.9595 17.2061 22.0378 17.2061C20.116 17.2061 18.5581 18.7676 18.5581 20.6938C18.5581 22.6201 20.116 24.1816 22.0378 24.1816ZM6.95932 20.6938C6.95932 22.6201 5.40143 24.1816 3.47966 24.1816C1.5579 24.1816 0 22.6201 0 20.6938C0 18.7676 1.5579 17.2061 3.47966 17.2061C5.40143 17.2061 6.95932 18.7676 6.95932 20.6938Z" fill="#FA6C06"/>
</svg>
