<svg width="23" height="25" viewBox="0 0 23 25" fill="none" xmlns="http://www.w3.org/2000/svg">
<path d="M11.014 12.6166C14.1949 12.6166 16.7832 10.0223 16.7832 6.83399V5.78261C16.7832 2.59429 14.1949 0 11.014 0C7.83308 0 5.24482 2.59429 5.24482 5.78261V6.83399C5.24482 10.0223 7.83308 12.6166 11.014 12.6166Z" fill="#FA6C06"/>
<path d="M19.0268 15.8686C17.2687 15.3445 14.4513 14.72 11.0139 14.72C7.57651 14.72 4.75905 15.3445 3.00102 15.8686C1.20628 16.4038 0 18.0245 0 19.9012V23.6568C0 23.9469 0.234963 24.1824 0.524471 24.1824H21.5033C21.7928 24.1824 22.0278 23.9469 22.0278 23.6568V19.9012C22.0278 18.0245 20.8215 16.4038 19.0268 15.8686Z" fill="#FA6C06"/>
</svg>
