<svg width="24" height="24" viewBox="0 0 24 24" fill="none" xmlns="http://www.w3.org/2000/svg">
<path d="M23.6679 12.7153C23.953 12.3563 23.9574 11.8494 23.6786 11.4854L22.3394 9.73683C22.1771 9.52484 22.1062 9.25671 22.1427 8.99219L22.441 6.82866C22.5039 6.37274 22.2475 5.93278 21.8198 5.76278L19.7945 4.9578C19.5383 4.85595 19.3355 4.65281 19.234 4.3964L18.4308 2.3662C18.2612 1.93746 17.8204 1.68027 17.3637 1.74354L15.2122 2.0416C14.9462 2.07845 14.6766 2.00677 14.464 1.8427L12.6865 0.470841C12.327 0.193363 11.8256 0.192998 11.4657 0.469949L9.71576 1.81645C9.50334 1.9799 9.2342 2.05124 8.96871 2.01446L6.81632 1.71628C6.35961 1.65301 5.91885 1.9102 5.74923 2.33893L4.94601 4.36914C4.84457 4.62555 4.64176 4.82869 4.38551 4.93054L2.36027 5.73552C1.93257 5.90552 1.67614 6.34548 1.73901 6.8014L2.03722 8.96408C2.07376 9.2291 2.00259 9.49772 1.83961 9.70988L0.467291 11.4963C0.19164 11.8551 0.191276 12.3543 0.466402 12.7135L1.81341 14.4722C1.97578 14.6842 2.04661 14.9524 2.01014 15.2169L1.71181 17.3804C1.64894 17.8363 1.90537 18.2763 2.33307 18.4463L4.35831 19.2513C4.61456 19.3531 4.81737 19.5563 4.91882 19.8127L5.72203 21.8429C5.89165 22.2716 6.33241 22.5288 6.78912 22.4655L8.94151 22.1674C9.207 22.1306 9.47614 22.2019 9.68856 22.3654L11.4394 23.7126C11.7989 23.9892 12.2996 23.9892 12.6591 23.7126L14.4099 22.3654C14.6223 22.2019 14.8915 22.1306 15.1569 22.1674L17.3093 22.4655C17.766 22.5288 18.2068 22.2716 18.3764 21.8429L19.1813 19.8086C19.2818 19.5546 19.4818 19.3527 19.7349 19.25L21.7731 18.4222C22.197 18.2501 22.45 17.8123 22.3875 17.3591L22.0897 15.1999C22.0524 14.9293 22.1274 14.6553 22.2972 14.4414L23.6679 12.7153ZM11.7366 15.2876C11.3814 15.7002 10.7614 15.7529 10.3417 15.4061L7.59997 13.1407C7.30787 12.8994 7.26577 12.4673 7.50578 12.1741C7.74672 11.8798 8.18072 11.8367 8.47483 12.0779L10.1806 13.4768C10.5998 13.8206 11.2167 13.7677 11.5713 13.3575L15.5975 8.69943C15.8458 8.41216 16.2802 8.3813 16.5666 8.6306C16.8512 8.87832 16.8823 9.30938 16.6361 9.59533L11.7366 15.2876Z" fill="#FA6C06"/>
</svg>
