<svg width="25" height="25" viewBox="0 0 25 25" fill="none" xmlns="http://www.w3.org/2000/svg">
<path d="M10.4121 18.6535C10.4121 19.1104 10.5932 19.5486 10.9155 19.8717C11.2379 20.1948 11.6751 20.3763 12.1309 20.3763C12.5868 20.3763 13.024 20.1948 13.3463 19.8717C13.6686 19.5486 13.8497 19.1104 13.8497 18.6535V16.8258L13.7387 16.8671C13.489 16.9594 13.2213 16.9923 12.9567 16.9631C12.6921 16.934 12.4379 16.8437 12.2141 16.6992C11.9934 16.5562 11.7287 16.4975 11.4684 16.534L10.4122 16.6822L10.4121 18.6535Z" fill="#FA6C06"/>
<path d="M12.5492 16.1799C12.6923 16.2722 12.8549 16.3299 13.024 16.3485C13.1932 16.3671 13.3643 16.3461 13.524 16.2871L13.7674 16.1965C13.6558 15.8493 13.4373 15.5465 13.1433 15.3315C12.8492 15.1165 12.4948 15.0005 12.1309 15H10.4121V16.0577L11.3828 15.9214C11.79 15.8643 12.204 15.9561 12.5492 16.1799Z" fill="#FA6C06"/>
<path d="M4.5519 15.209C4.34757 15.2088 4.1444 15.1783 3.94896 15.1185C3.70162 15.0433 3.49336 15 3.3775 15C2.9218 15.0005 2.48491 15.1822 2.16268 15.5052C1.84045 15.8281 1.6592 16.266 1.65869 16.7228V17.1774H1.96677C2.1328 17.1772 2.29199 17.1111 2.4094 16.9934C2.52681 16.8757 2.59285 16.7162 2.59304 16.5497C2.59326 16.354 2.67093 16.1664 2.80899 16.028C2.94706 15.8896 3.13426 15.8118 3.32952 15.8115H5.40762C5.34396 15.6352 5.22768 15.4828 5.07459 15.375C4.92149 15.2672 4.73899 15.2092 4.5519 15.209Z" fill="#FA6C06"/>
<path d="M18.8467 18.3995C18.8467 18.8564 19.0278 19.2946 19.3501 19.6177C19.6724 19.9408 20.1096 20.1223 20.5655 20.1223C21.0213 20.1223 21.4585 19.9408 21.7809 19.6177C22.1032 19.2946 22.2843 18.8564 22.2843 18.3995V17.7599C21.862 17.6917 21.5335 17.3068 21.3233 16.9219C20.6562 17.4516 19.8307 17.7409 18.9797 17.7433H18.8467V18.3995Z" fill="#FA6C06"/>
<path d="M1.65869 18.6526C1.65869 19.1095 1.83978 19.5477 2.16212 19.8708C2.48446 20.1939 2.92164 20.3754 3.3775 20.3754C3.83336 20.3754 4.27054 20.1939 4.59288 19.8708C4.91522 19.5477 5.09631 19.1095 5.09631 18.6526V17.3356C4.88702 17.2773 4.69815 17.1616 4.55102 17.0014C4.40389 16.8413 4.30436 16.6431 4.26367 16.4292H3.32952C3.29786 16.4292 3.26751 16.4418 3.24512 16.4643C3.22274 16.4867 3.21015 16.5171 3.21012 16.5489C3.20975 16.8793 3.07864 17.1961 2.84554 17.4297C2.61244 17.6633 2.29641 17.7947 1.96677 17.7951H1.65869V18.6526Z" fill="#FA6C06"/>
<path d="M5.09464 16.6607V16.4292H4.9043C4.94486 16.5227 5.0108 16.6029 5.09464 16.6607Z" fill="#FA6C06"/>
<path fill-rule="evenodd" clip-rule="evenodd" d="M0.944432 0H23.6357C23.8861 0.000272837 24.1261 0.100087 24.3032 0.277545C24.4802 0.455002 24.5798 0.69561 24.5801 0.946579V15.4154C24.5801 15.5685 24.543 15.7194 24.4719 15.8549C24.4008 15.9904 24.2979 16.1066 24.172 16.1934C24.0549 15.9273 23.8632 15.7011 23.6202 15.5421C23.3772 15.3832 23.0934 15.2984 22.8032 15.2981H22.3227C22.0369 14.9699 21.6654 14.7282 21.25 14.6002C20.8346 14.4722 20.3918 14.463 19.9715 14.5736C19.5511 14.6842 19.1699 14.9102 18.8708 15.2262C18.5717 15.5421 18.3665 15.9355 18.2784 16.3621H14.4557C14.3998 15.7826 14.1308 15.2446 13.7011 14.853C13.2713 14.4613 12.7115 14.244 12.1307 14.2432H10.1034C10.0216 14.2432 9.9431 14.2758 9.88524 14.3338C9.82738 14.3918 9.79487 14.4705 9.79487 14.5525V16.3621H5.71308V16.2916H5.76964C5.85147 16.2916 5.92995 16.259 5.98781 16.201C6.04568 16.1431 6.07818 16.0644 6.07818 15.9824C6.07776 15.5766 5.91679 15.1877 5.63059 14.9008C5.34438 14.6138 4.95632 14.4524 4.55154 14.452C4.40795 14.4517 4.26519 14.4303 4.12787 14.3882C3.81146 14.2919 3.55887 14.2431 3.37709 14.2431C2.79624 14.2439 2.23645 14.4612 1.80668 14.8529C1.37691 15.2445 1.10792 15.7825 1.05206 16.362H0.944432C0.694046 16.3617 0.453992 16.2619 0.276937 16.0844C0.0998817 15.907 0.000285837 15.6664 0 15.4154V0.946579C0.000285837 0.69561 0.0998817 0.455002 0.276937 0.277545C0.453992 0.100087 0.694046 0.000272837 0.944432 0ZM10.4734 3.98317C10.4353 4.04932 10.4153 4.12435 10.4153 4.20072L10.4154 9.20334C10.4154 9.27967 10.4355 9.35466 10.4736 9.42077C10.5116 9.48688 10.5664 9.54178 10.6324 9.57994C10.6983 9.61811 10.7731 9.6382 10.8493 9.63819C10.9254 9.63819 11.0003 9.61808 11.0662 9.57991L12.3312 8.848C12.3311 8.84809 12.3313 8.84792 12.3312 8.848L13.3462 8.2606C13.3495 8.25885 13.3528 8.25704 13.3561 8.25516L13.7861 8.00626C13.7886 8.00481 13.791 8.00333 13.7934 8.00182L14.6901 7.48294C14.6913 7.48226 14.6924 7.48158 14.6936 7.48089L15.3889 7.0786C15.4548 7.04043 15.5096 6.98553 15.5476 6.91943C15.5857 6.85332 15.6058 6.77833 15.6058 6.702C15.6058 6.62567 15.5857 6.55068 15.5476 6.48458C15.5096 6.41847 15.4548 6.36358 15.3889 6.32541L11.0662 3.82389C11.0002 3.7857 10.9254 3.76559 10.8492 3.76559C10.773 3.76559 10.6982 3.7857 10.6322 3.82389C10.5662 3.86209 10.5114 3.91702 10.4734 3.98317ZM14.3815 6.9473C14.3827 6.94661 14.3839 6.94593 14.3851 6.94526L14.8054 6.70198L11.0325 4.51863V8.88537L12.0227 8.31232L14.3815 6.9473ZM4.34384 12.7894H22.6085C22.6903 12.7894 22.7688 12.7568 22.8266 12.6988C22.8845 12.6408 22.917 12.5622 22.917 12.4802C22.917 12.3981 22.8845 12.3195 22.8266 12.2615C22.7688 12.2035 22.6903 12.1709 22.6085 12.1709H4.34384V11.372C4.34384 11.29 4.31134 11.2113 4.25347 11.1533C4.19561 11.0953 4.11714 11.0627 4.03531 11.0627C3.95348 11.0627 3.875 11.0953 3.81714 11.1533C3.75928 11.2113 3.72677 11.29 3.72677 11.372V12.1709H1.97166C1.88983 12.1709 1.81135 12.2035 1.75349 12.2615C1.69562 12.3195 1.66312 12.3981 1.66312 12.4802C1.66312 12.5622 1.69562 12.6408 1.75349 12.6988C1.81135 12.7568 1.88983 12.7894 1.97166 12.7894H3.72677V13.5883C3.72677 13.6703 3.75928 13.749 3.81714 13.807C3.875 13.865 3.95348 13.8976 4.03531 13.8976C4.11714 13.8976 4.19561 13.865 4.25347 13.807C4.31134 13.749 4.34384 13.6703 4.34384 13.5883V12.7894Z" fill="#FA6C06"/>
<path d="M21.2123 16.1925C21.2491 16.1553 21.2947 16.1282 21.3448 16.1135C21.3949 16.0988 21.4479 16.0971 21.4988 16.1086C21.5498 16.12 21.597 16.1442 21.636 16.1789C21.6751 16.2137 21.7047 16.2577 21.7221 16.3071C21.78 16.4692 22.0111 16.9701 22.2843 17.1117V16.9762C22.2843 16.5193 22.1032 16.0811 21.7809 15.758C21.4585 15.4349 21.0213 15.2534 20.5655 15.2534C20.1096 15.2534 19.6724 15.4349 19.3501 15.758C19.0278 16.0811 18.8467 16.5193 18.8467 16.9762V17.1242H18.9797C19.8176 17.1219 20.6204 16.7869 21.2123 16.1925Z" fill="#FA6C06"/>
<path d="M22.803 16.0543H22.7124C22.8374 16.3455 22.9017 16.6592 22.9014 16.9762V17.8107C23.1246 17.7854 23.3296 17.6755 23.4744 17.5035C23.6193 17.3315 23.693 17.1105 23.6804 16.8858C23.6678 16.6611 23.5698 16.4497 23.4067 16.2951C23.2435 16.1404 23.0275 16.0542 22.803 16.0542V16.0543Z" fill="#FA6C06"/>
<path d="M13.3758 21.3936H10.886C10.5588 21.3939 10.2451 21.5244 10.0138 21.7563C9.78239 21.9882 9.65224 22.3026 9.65186 22.6306V24.3165H14.61V22.6306C14.6096 22.3026 14.4795 21.9882 14.2481 21.7563C14.0167 21.5244 13.7031 21.3939 13.3758 21.3936ZM13.7008 23.0603H13.1447C13.0628 23.0603 12.9843 23.0278 12.9265 22.9698C12.8686 22.9118 12.8361 22.8331 12.8361 22.7511C12.8361 22.6691 12.8686 22.5904 12.9265 22.5324C12.9843 22.4744 13.0628 22.4418 13.1447 22.4418H13.7008C13.7827 22.4418 13.8611 22.4744 13.919 22.5324C13.9769 22.5904 14.0094 22.6691 14.0094 22.7511C14.0094 22.8331 13.9769 22.9118 13.919 22.9698C13.8611 23.0278 13.7827 23.0603 13.7008 23.0603Z" fill="#FA6C06"/>
<path d="M4.62243 21.3936H2.13259C1.80538 21.3939 1.49169 21.5244 1.26032 21.7563C1.02895 21.9882 0.898805 22.3026 0.898438 22.6306V24.3165H5.85658V22.6306C5.8562 22.3026 5.72605 21.9882 5.49468 21.7563C5.26332 21.5244 4.94963 21.3939 4.62243 21.3936ZM4.94742 23.0603H4.39118C4.30935 23.0603 4.23087 23.0278 4.17301 22.9698C4.11515 22.9118 4.08264 22.8331 4.08264 22.7511C4.08264 22.6691 4.11515 22.5904 4.17301 22.5324C4.23087 22.4744 4.30935 22.4418 4.39118 22.4418H4.94727C5.0291 22.4418 5.10757 22.4744 5.16544 22.5324C5.2233 22.5904 5.2558 22.6691 5.2558 22.7511C5.2558 22.8331 5.2233 22.9118 5.16544 22.9698C5.10757 23.0278 5.0291 23.0603 4.94727 23.0603H4.94742Z" fill="#FA6C06"/>
<path d="M21.8104 21.1387H19.3206C18.9934 21.139 18.6797 21.2695 18.4483 21.5014C18.2169 21.7333 18.0868 22.0477 18.0864 22.3757V24.3192H23.0446V22.3757C23.0442 22.0477 22.9141 21.7333 22.6827 21.5014C22.4513 21.2695 22.1376 21.139 21.8104 21.1387ZM22.1354 22.8055H21.5792C21.4973 22.8055 21.4189 22.7729 21.361 22.7149C21.3031 22.6569 21.2706 22.5782 21.2706 22.4962C21.2706 22.4142 21.3031 22.3355 21.361 22.2775C21.4189 22.2195 21.4973 22.1869 21.5792 22.1869H22.1354C22.2172 22.1869 22.2957 22.2195 22.3536 22.2775C22.4114 22.3355 22.4439 22.4142 22.4439 22.4962C22.4439 22.5782 22.4114 22.6569 22.3536 22.7149C22.2957 22.7729 22.2172 22.8055 22.1354 22.8055Z" fill="#FA6C06"/>
</svg>
