<svg width="630" height="512" viewBox="0 0 630 512" fill="none" xmlns="http://www.w3.org/2000/svg">
<path d="M395.495 337.652H562.821C584.505 337.652 602.092 320.066 602.092 298.382V285.064C602.092 263.38 584.505 245.793 562.821 245.793H434.765C413.081 245.793 395.495 263.38 395.495 285.064V337.652Z" stroke="#6C67AB" stroke-width="2" stroke-miterlimit="10"/>
<path opacity="0.75" d="M369.884 329.115H537.211C558.895 329.115 576.481 311.529 576.481 289.844V276.527C576.481 254.842 558.895 237.256 537.211 237.256H409.155C387.471 237.256 369.884 254.842 369.884 276.527V329.115Z" stroke="#7E97C9" stroke-miterlimit="10"/>
<path opacity="0.75" d="M164.539 177.556H451.34C487.004 177.556 516.088 148.542 516.088 112.489V90.3024C516.088 54.4623 487.217 25.2356 451.34 25.2356H229.075C193.41 25.2356 164.327 54.249 164.327 90.3024V177.556H164.539Z" stroke="#7E97C9" stroke-miterlimit="10"/>
<path d="M496.746 494.051C497.258 493.539 498.111 493.027 498.794 492.514C501.185 490.636 501.697 487.221 502.038 484.148C505.112 446.585 499.477 408.68 501.356 371.117C501.697 362.068 509.039 366.507 515.015 367.702C515.869 367.873 527.65 370.093 527.479 368.727C528.503 379.484 529.869 390.923 537.04 398.948C541.992 404.583 548.992 407.827 555.139 411.924C578.36 427.633 591.848 457.854 595.093 485.173C595.093 484.49 595.263 483.977 595.263 483.294C595.776 477.831 596.117 472.367 596.288 466.903C596.8 455.464 596.971 444.024 596.8 432.584C596.629 424.047 595.605 414.656 600.727 407.314C605.166 400.997 609.947 400.485 616.265 399.973C617.972 396.558 617.63 389.899 617.63 386.825C617.63 381.874 616.777 376.41 613.191 372.654C607.386 366.507 598.337 370.264 590.824 368.385C574.091 364.117 580.067 342.774 581.092 330.481C581.775 322.797 593.727 322.797 593.044 330.481C592.531 336.627 591.336 343.116 591.336 349.262C591.336 353.189 591.336 355.751 595.434 357.116C597.141 357.629 599.532 357.116 601.239 357.116C609.947 357.116 617.46 358.995 623.094 365.995C629.241 373.678 630.095 383.581 629.07 392.972C628.387 400.143 628.046 410.046 619.338 411.583C611.313 412.949 608.752 414.656 608.581 423.193C608.41 428.999 608.923 434.804 608.923 440.609C608.923 453.756 608.581 466.903 607.557 479.88C607.044 487.392 608.24 500.881 601.922 506.515C598.678 509.247 594.922 509.418 591.849 507.881C581.946 508.393 558.383 507.027 555.822 507.027H525.43C520.308 507.027 511.429 508.735 506.478 506.344C503.917 504.979 499.136 502.417 497.258 500.198C495.55 498.661 495.209 495.758 496.746 494.051Z" fill="#6C67AB"/>
<path d="M500.842 382.045C500.842 378.971 500.842 375.898 501.013 372.825C501.013 372.313 501.184 371.63 501.184 371.117C501.354 370.434 501.525 369.922 501.696 369.239C503.915 364.971 511.77 368.727 514.843 370.093C518.258 371.8 521.331 374.02 524.404 376.24C526.112 377.606 528.161 379.142 529.014 381.191C530.039 383.411 529.356 386.826 529.185 389.216C529.014 390.923 528.673 392.802 527.648 394.167C526.624 395.533 524.575 396.387 523.038 395.363C522.697 397.241 522.355 399.119 521.502 400.826C520.819 402.192 519.624 403.046 518.087 403.387C517.063 403.729 517.233 403.558 516.892 404.583C516.892 404.583 516.892 404.583 516.892 404.753C516.721 405.607 516.38 406.29 516.038 406.973V407.144C515.697 407.656 515.526 408.168 515.014 408.51C514.843 408.68 514.501 408.851 514.16 409.022C513.648 409.363 512.965 409.534 512.282 409.705C510.574 409.876 508.696 409.363 507.842 407.827C506.818 406.119 506.989 404.241 507.159 402.363C505.794 402.363 504.598 401.68 504.086 400.143C503.403 398.777 503.574 396.899 503.574 395.363C503.574 393.484 503.574 391.777 503.745 389.899C500.159 390.07 500.842 384.606 500.842 382.045Z" fill="#7E97C9"/>
<path opacity="0.1" d="M540.284 443.17C534.308 446.756 530.211 454.098 531.064 461.269C531.747 468.611 537.723 474.587 543.016 479.026C548.651 483.807 554.968 488.075 558.554 494.564C554.797 494.051 551.041 493.881 547.456 493.71C544.211 493.539 540.626 493.881 538.748 496.442C536.87 499.174 537.894 502.93 537.382 506.174C537.04 506.345 536.528 506.345 536.187 506.003C536.016 506.857 536.016 506.857 535.162 506.857C532.26 506.686 529.698 504.467 528.332 501.735C526.967 499.003 526.454 496.1 526.113 493.027C524.918 482.441 524.235 471.684 524.918 460.928C525.088 457.513 525.601 454.098 527.308 451.195C529.869 446.415 534.65 442.829 540.284 443.17Z" fill="url(#paint0_linear)"/>
<path d="M555.139 343.97C555.31 343.457 555.481 342.945 555.651 342.433C555.651 342.604 554.285 343.116 553.944 343.287C553.261 343.628 552.749 343.97 552.066 344.311C550.871 344.994 549.675 345.677 548.48 346.36C547.285 347.043 546.09 347.726 544.895 348.58C544.382 348.921 544.041 349.263 543.529 349.092C542.675 348.921 541.821 348.409 540.968 348.067C539.943 347.726 538.919 347.214 537.894 346.872C535.845 346.019 533.796 345.165 531.748 344.482C527.65 342.945 523.552 341.238 519.625 339.53C518.088 338.847 514.503 337.994 513.99 336.286C513.82 335.603 513.82 335.091 513.82 334.408C513.649 331.164 512.966 325.017 512.966 325.017C512.966 325.017 510.576 327.066 510.063 327.578C509.21 328.603 508.356 329.798 507.502 330.823C505.795 333.042 504.429 335.262 503.063 337.823C500.16 342.945 497.77 348.238 495.892 353.702C494.355 358.141 493.501 362.58 496.404 366.507C499.136 370.264 503.575 372.483 507.502 374.532C515.698 378.801 524.406 383.411 533.626 384.265C536.016 384.435 538.406 384.435 540.455 383.411C542.504 382.386 544.041 380.338 545.236 378.118C550.871 367.361 552.066 355.409 555.139 343.97Z" fill="#6C67AB"/>
<path d="M509.551 367.532C512.283 366.678 515.014 366.508 517.746 365.654C517.576 365.312 517.405 365.142 517.234 364.8C516.893 364.117 516.38 363.434 516.039 362.58C515.697 362.068 516.039 361.556 516.551 361.385C517.405 361.044 518.942 361.897 519.795 362.239C521.161 362.751 522.356 363.263 523.552 363.946C524.235 364.288 524.064 365.312 523.381 365.483C522.186 365.825 521.161 366.166 519.966 366.508C521.161 369.41 522.186 372.313 523.039 375.386C523.381 376.411 521.673 376.923 521.332 375.898C520.478 372.996 519.625 370.093 518.429 367.361C515.697 368.215 512.795 368.386 510.063 369.239C509.039 369.581 508.526 367.873 509.551 367.532Z" fill="#19034D"/>
<path d="M533.113 360.361C533.455 360.19 533.967 360.19 534.138 360.361C534.309 360.361 534.65 360.361 534.821 360.702C534.992 360.873 535.162 361.215 535.162 361.385C535.162 361.556 535.333 361.727 535.333 361.727C535.333 362.068 535.333 362.239 535.162 362.41C534.992 362.581 534.992 362.922 534.65 363.093C533.967 363.776 532.772 363.434 532.26 362.581C531.577 361.727 532.089 360.702 533.113 360.361Z" fill="#19034D"/>
<path d="M507.502 350.116C507.844 349.946 508.356 349.946 508.526 350.116C508.697 350.116 509.039 350.116 509.209 350.458C509.38 350.629 509.551 350.97 509.551 351.141C509.551 351.312 509.722 351.482 509.722 351.482C509.722 351.824 509.722 351.995 509.551 352.165C509.38 352.336 509.38 352.677 509.039 352.848C508.356 353.531 507.161 353.19 506.648 352.336C505.965 351.482 506.478 350.458 507.502 350.116Z" fill="#19034D"/>
<path opacity="0.75" d="M96.0404 292H279.567V229.192C279.567 194.442 251.432 166.384 216.585 166.384H96.0404C61.1934 166.384 33.0577 194.442 33.0577 229.192C33.0577 263.943 61.1934 292 96.0404 292Z" stroke="#6C67AB" stroke-miterlimit="10"/>
<path d="M463.28 460.927C466.524 472.025 469.256 485.002 462.768 494.563C454.914 506.003 436.645 506.003 425.205 497.807C413.765 489.783 407.619 476.294 402.326 463.318C393.447 441.463 385.593 419.096 382.52 395.704C380.641 382.045 382.349 365.141 394.642 359.165C413.765 349.945 429.986 364.629 436.132 380.85C446.206 407.144 455.255 433.779 463.28 460.927Z" fill="#F5DAB9"/>
<path d="M405.4 320.066C410.351 325.359 414.62 330.993 418.547 336.969C423.84 345.335 427.596 354.214 431.694 363.263C433.23 366.337 445.524 393.655 442.792 395.533C427.254 406.632 411.888 418.925 394.131 425.755C393.448 425.925 396.862 439.073 397.204 440.268C398.399 445.048 399.594 450 400.448 454.781C402.326 464.513 403.863 474.416 405.57 484.148C406.595 489.612 407.448 495.076 408.302 500.539C408.644 502.93 331.127 508.223 324.127 508.223C303.638 508.564 271.368 514.369 258.903 493.368C256.001 488.417 254.464 482.782 253.098 477.148C245.415 444.195 242.171 410.217 242.854 376.41C243.024 368.386 243.537 360.531 245.415 352.848C248.147 341.579 254.123 331.505 260.269 321.944C265.904 313.065 274.782 308.285 284.173 303.675C312.345 290.186 346.494 285.747 375.008 298.382C386.789 303.504 396.862 311.016 405.4 320.066Z" fill="#FA6C06"/>
<path d="M276.489 399.973C277.342 401.68 278.025 403.558 278.879 405.266C281.782 412.095 289.294 424.047 289.294 431.56C292.709 442.487 294.417 454.269 292.368 465.537C291.514 469.977 290.148 474.416 288.611 478.855C286.733 484.319 284.684 489.783 281.27 494.564C278.196 498.661 270.684 505.32 264.878 503.101C258.902 500.71 254.292 489.783 252.073 484.319C238.413 452.22 232.95 416.876 229.706 382.216C229.535 379.825 229.193 377.264 229.706 374.874C230.389 371.288 232.779 368.386 234.999 365.483C238.072 361.727 241.487 357.8 246.268 356.946C250.707 356.092 255.488 358.483 258.561 361.897C261.634 365.312 263.512 369.581 265.391 373.849C268.976 382.728 272.732 391.265 276.489 399.973Z" fill="#F5DAB9"/>
<path d="M251.562 396.387C254.123 395.704 291.003 386.655 291.003 391.265C290.661 371.288 289.637 351.311 287.759 331.334C287.076 325.017 286.393 318.529 284.003 312.723C281.612 306.748 277.173 301.455 271.368 299.235C266.928 297.528 262.148 297.698 257.538 298.723C243.025 301.796 230.902 313.748 227.316 328.09C225.78 334.237 225.78 340.725 225.78 347.043C225.95 365.824 227.316 384.606 228.512 403.387C236.366 403.216 244.049 398.436 251.562 396.387Z" fill="#FA6C06"/>
<path d="M232.949 294.966C232.437 296.674 232.096 298.381 231.925 300.259C231.071 312.211 239.096 322.285 246.95 330.31C250.024 333.554 254.463 335.603 257.195 339.018C260.439 342.774 260.268 348.921 265.732 350.628C268.122 351.311 270.854 350.457 272.561 348.579C274.61 346.36 274.61 343.799 273.586 341.067C272.391 337.823 271.366 333.725 269.317 330.993C267.781 328.773 264.707 327.237 262.317 325.871C257.707 323.139 253.951 317.846 253.268 312.553C251.902 302.479 253.268 291.039 249.853 281.478C249.17 279.771 248.487 278.234 247.121 277.039C245.755 275.843 243.877 275.16 242.169 275.843C239.779 276.697 238.755 279.6 237.901 281.99C236.364 286.259 234.145 290.527 232.949 294.966Z" fill="#DDC29B"/>
<path d="M246.096 421.828C244.901 443.341 245.243 465.367 251.048 486.368C252.755 492.685 255.658 501.564 261.805 504.979C268.634 508.906 279.391 505.662 285.708 502.076C289.977 499.686 293.904 496.783 296.636 492.685C300.734 486.368 301.075 478.172 300.563 470.66C299.197 450.171 294.245 431.218 290.148 411.242C285.879 389.557 280.757 368.044 274.952 346.531C272.561 337.481 269.317 330.652 261.634 324.846C256.17 320.749 247.121 315.285 246.609 326.042C245.072 357.8 247.804 389.728 246.096 421.828Z" fill="#DDC29B"/>
<path d="M332.151 312.553C332.834 313.748 333.346 314.943 333.688 316.138C334.029 317.846 333.858 319.553 333.688 321.09C332.151 333.554 329.59 345.847 316.101 349.774C307.223 352.336 296.295 351.482 288.1 346.872C285.539 345.335 282.977 343.798 280.929 341.579C278.88 339.359 277.343 336.627 277.343 333.554C268.294 335.603 259.074 326.383 254.464 319.895C243.707 304.869 240.121 285.917 241.829 267.819C242.17 263.379 242.853 258.599 245.585 255.013C247.463 252.452 250.195 250.744 252.756 249.037C265.05 241.183 278.197 240.671 291.514 246.988C303.637 252.623 312.174 264.745 317.979 276.356C320.37 281.307 320.711 287.795 322.76 292.918C324.98 299.064 327.882 305.04 331.297 310.675C331.639 311.528 331.98 312.041 332.151 312.553Z" fill="#F5DAB9"/>
<path d="M315.248 249.379C312.516 243.232 308.418 237.427 303.296 234.012C286.533 222.216 269.66 224.456 260.97 227.871C252.281 231.285 237.067 229.578 234.505 234.7C231.944 239.822 232.096 244.769 233.975 248.525C235.511 251.427 236.877 254.501 238.755 257.233C241.317 260.647 245.585 263.55 249.854 264.062C251.39 264.233 252.756 264.062 254.293 263.892C263.171 263.038 270.513 260.477 277.343 267.477C281.953 272.258 284.173 278.746 287.587 284.21C288.441 285.576 289.295 286.942 290.661 287.795C292.368 288.82 294.759 288.82 296.637 289.332C305.345 291.381 311.15 306.065 320.37 302.821C328.224 300.089 326.516 292.918 323.443 287.283C319.516 280.112 320.37 271.575 319.175 263.55C318.833 258.94 317.296 253.989 315.248 249.379Z" fill="#19034D"/>
<path d="M313.027 283.185C315.076 285.917 316.101 289.161 316.784 292.405C317.296 295.308 317.637 298.21 316.784 300.942C315.93 303.674 313.71 306.235 310.808 306.747C308.588 307.089 306.198 306.235 304.49 304.698C300.393 301.113 295.612 290.185 296.807 284.551C298.514 276.697 309.1 278.063 313.027 283.185Z" fill="#F5DAB9"/>
<path d="M298.515 453.756C299.369 459.39 300.052 464.854 300.393 470.488C300.905 478.172 300.734 486.197 296.466 492.514C293.734 496.612 289.807 499.515 285.539 501.905C279.221 505.491 268.464 508.735 261.635 504.808C255.659 501.393 252.756 492.343 250.878 486.197C247.975 475.611 246.439 464.683 245.756 453.756H298.515Z" fill="url(#paint1_linear)"/>
<path opacity="0.1" d="M359.811 420.632C362.885 411.754 365.958 402.875 369.202 393.997C369.031 394.68 370.91 397.582 371.251 398.265C371.934 399.802 372.617 401.338 373.3 402.875C374.666 406.119 376.202 409.193 377.568 412.266C380.3 418.242 383.032 424.389 386.447 430.023C389.179 429.169 391.74 427.803 393.96 425.925C394.813 431.389 396.521 436.34 397.716 441.804C398.228 444.536 398.74 447.439 399.253 450.171C399.594 451.536 399.765 453.073 400.106 454.439C400.277 454.951 401.32 461.445 401.832 461.786C371.752 488.397 350.783 489.696 361.519 427.12C360.665 426.096 359.641 425.072 359.47 423.706C359.128 422.681 359.47 421.657 359.811 420.632Z" fill="#2A2B2D"/>
<path opacity="0.1" d="M295.1 326.383C295.325 332.237 292.557 337.999 292.557 337.999L289.142 347.389C286.524 346.553 285.282 345.714 283.167 343.975C281.285 342.343 280.235 341.436 278.88 338.847C277.876 337.291 277.555 336.323 277.343 334.408C277.343 334.408 290.49 330.651 295.1 326.383Z" fill="#2A2B2D"/>
<path d="M342.054 507.198C319.004 509.93 293.392 513.003 271.196 506.344C274.782 501.222 278.367 496.1 282.977 491.66C287.587 487.392 293.222 483.977 299.539 483.294C302.783 482.953 306.198 483.123 309.442 483.636C315.247 484.319 322.589 487.392 328.394 486.88C333.175 486.538 339.493 482.27 344.103 480.562C375.007 468.269 411.716 451.707 445.694 460.586C462.768 465.025 473.183 479.367 461.231 495.417C454.572 504.466 443.986 502.759 433.571 502.929C405.57 503.442 377.397 503.1 349.566 506.344C347.005 506.686 344.615 507.027 342.054 507.198Z" fill="#F5DAB9"/>
<path opacity="0.1" d="M400.106 450.341C400.276 450 400.618 449.488 400.789 449.146C402.325 446.585 403.862 443.853 405.399 441.121C407.618 443.17 409.667 445.219 412.057 447.097C415.302 449.317 418.204 452.049 420.936 454.781C422.643 456.488 424.18 458.366 425.717 460.074C425.375 461.098 424.863 461.952 424.522 462.976C424.351 463.488 424.18 464.001 423.839 464.513C422.814 464.171 421.619 463.83 420.595 463.488C415.131 461.952 407.789 459.732 401.813 460.586C401.472 457.171 400.106 454.098 399.935 450.683C399.935 450.683 400.106 450.512 400.106 450.341Z" fill="#2A2B2D"/>
<path d="M185.403 151.962H472.879C508.627 151.962 537.779 123.023 537.779 87.0617V64.9318C537.779 29.1835 508.84 0.0316162 472.879 0.0316162H250.09C214.342 0.0316162 185.19 28.9707 185.19 64.9318V151.962H185.403Z" fill="#FA6C06"/>
<path d="M349.395 277.892H516.722C538.406 277.892 555.992 260.306 555.992 238.622V225.304C555.992 203.62 538.406 186.034 516.722 186.034H388.666C366.981 186.034 349.395 203.62 349.395 225.304V277.892Z" fill="#6C67AB"/>
<path opacity="0.49" d="M153.369 493.353L209.032 285.905C216.769 256.699 242.988 236.298 273.291 235.653C330.673 234.365 363.77 300.293 328.309 345.605C270.067 419.694 205.808 503.017 205.808 503.017L153.369 493.353Z" fill="url(#paint2_linear)"/>
<path d="M48.7616 249.127H232.714V183.854C232.714 157.022 210.784 135.092 183.952 135.092H48.7616C21.9299 135.092 0.00012207 157.022 0.00012207 183.854V200.366C0.00012207 227.456 21.6719 249.127 48.7616 249.127Z" fill="#7E97C9"/>
<path d="M444.842 485.172C447.232 485.172 449.452 485.002 451.33 484.489L450.647 480.904C443.134 482.44 431.012 480.904 427.597 473.733C426.573 471.513 426.573 468.781 427.597 466.732C428.792 464.513 430.5 462.976 432.89 462.293C437.5 460.927 443.476 462.464 447.403 464.683L449.281 461.439C445.013 459.049 437.842 456.829 431.866 458.707C428.451 459.732 425.89 461.951 424.353 465.025C422.816 468.269 422.646 472.196 424.353 475.269C427.768 482.611 436.988 485.172 444.842 485.172Z" fill="#83AFF6"/>
<path d="M462.257 497.466H474.892C487.868 497.466 498.283 487.05 498.283 474.074V449.829H438.865V474.074C438.865 487.05 449.28 497.466 462.257 497.466Z" fill="#83AFF6"/>
<path d="M422.303 501.051H513.65C515.187 501.051 516.382 499.856 516.382 498.32C516.382 496.783 515.187 495.588 513.65 495.588H422.303C420.767 495.588 419.571 496.783 419.571 498.32C419.571 499.856 420.767 501.051 422.303 501.051Z" fill="white"/>
<path d="M77.2347 439.755C76.7225 436.511 75.6981 433.438 72.9662 432.072C69.2099 429.852 64.2584 431.731 59.9898 430.877C47.8672 428.657 48.0379 411.754 48.2087 402.534C48.3794 396.558 48.5502 390.753 49.0624 384.777C49.2331 383.24 49.2332 381.533 50.0869 380.167C51.6235 377.776 54.8676 377.093 57.5995 377.776C62.8925 379.313 65.7951 384.947 66.8195 390.411C67.6732 395.875 67.3317 401.509 68.6977 406.802C69.0391 407.827 69.3807 408.851 69.8929 409.705C70.5758 410.729 71.4295 411.412 72.454 411.925C73.9907 412.608 75.8688 412.778 77.4055 411.925C79.1129 410.9 78.7714 409.534 78.7714 407.827C78.7714 405.949 79.1129 403.9 79.2837 401.851C79.7959 397.412 80.3081 392.972 80.6496 388.533C81.5033 379.825 82.1862 370.947 83.0399 362.239C83.3814 358.312 83.8937 354.043 85.9426 350.458C94.6504 334.92 107.797 348.579 108.993 359.848C111.725 385.63 98.4067 409.876 99.4311 435.487C99.4311 436.511 99.6019 437.707 99.9434 438.731C101.992 442.829 108.48 441.975 111.383 439.755C115.993 436.17 114.456 428.145 114.456 423.535C114.456 419.608 115.652 415.339 119.408 413.461C123.676 411.412 129.14 413.803 131.701 417.73C134.775 422.681 134.433 431.048 134.092 436.511C133.75 440.438 132.896 444.365 130.506 447.78C128.116 451.195 124.359 453.756 120.091 453.927C117.53 454.098 114.798 453.585 112.92 455.122C110.529 457 111.383 460.244 111.383 463.147C111.212 468.611 106.432 473.391 100.968 475.782C95.5041 478.172 89.1866 478.514 83.2107 478.855C78.0884 470.66 77.747 461.098 77.4055 451.878C77.4055 448.634 77.747 444.024 77.2347 439.755Z" fill="#228F4E"/>
<path d="M93.4541 344.482C87.3074 387.167 82.0144 430.706 89.5271 473.221" stroke="#2F7C1B" stroke-miterlimit="10"/>
<path d="M99.4309 344.311C101.138 352.336 102.846 360.36 102.846 368.385C102.846 383.923 96.1868 398.607 93.6257 413.973C90.7231 431.047 92.9427 448.463 94.9916 465.708" stroke="#2F7C1B" stroke-miterlimit="10"/>
<path d="M86.1123 419.778C78.5997 418.754 69.7211 417.559 65.1111 411.754C64.4281 410.9 63.9159 410.046 63.5744 409.022C62.3792 404.924 62.8915 400.314 62.8915 396.216C62.8915 392.289 62.8915 385.289 62.8915 379.996" stroke="#2F7C1B" stroke-miterlimit="10"/>
<path d="M92.7713 448.122C99.4302 449.146 106.772 450.171 112.577 446.927C116.163 444.878 118.553 441.463 119.748 437.877C120.944 434.292 121.285 430.365 121.285 426.608C121.285 422.511 120.944 418.413 120.261 414.315" stroke="#2F7C1B" stroke-miterlimit="10"/>
<path d="M85.9424 426.608C77.4053 425.413 69.039 423.194 61.1849 420.12C59.4775 419.437 57.77 418.754 56.5748 417.559C55.2089 416.193 54.6967 414.486 54.1845 412.778C52.9893 408.851 52.4771 382.386 53.843 376.069" stroke="#2F7C1B" stroke-miterlimit="10"/>
<path d="M117.7 464.513L67.6729 463.488L72.6245 500.71H110.871L117.7 464.513Z" fill="#F5BA00"/>
<path d="M130.332 503.101H341.71C344.1 503.101 345.979 501.223 345.979 498.833V497.296C345.979 494.905 344.1 493.027 341.71 493.027H130.332C127.942 493.027 126.064 494.905 126.064 497.296V498.833C126.064 501.223 128.112 503.101 130.332 503.101Z" fill="white"/>
<path d="M125.383 503.101H313.198L296.807 395.193C296.295 391.436 293.051 388.704 289.294 388.704H116.333C111.894 388.704 108.479 392.802 109.162 397.241L125.383 503.101Z" fill="#ECECEC"/>
<path d="M202.215 447.269C197.218 447.269 193.166 443.217 193.166 438.219C193.166 433.221 197.218 429.17 202.215 429.17C207.213 429.17 211.265 433.221 211.265 438.219C211.265 443.217 207.213 447.269 202.215 447.269Z" stroke="#7E97C9" stroke-width="2" stroke-miterlimit="10"/>
<path fill-rule="evenodd" clip-rule="evenodd" d="M458.31 382.751C454.249 392.35 457.378 404.091 465.478 410.535L465.497 410.55L465.517 410.564C468.097 412.5 471.074 415.63 473.276 418.171L473.289 418.186L473.302 418.201C474.853 419.907 475.742 421.522 476.26 423.243C476.787 424.994 476.956 426.935 476.956 429.346C476.956 434.183 476.456 439.169 475.297 443.971L478.616 444.772C479.847 439.67 480.371 434.412 480.371 429.346C480.371 426.805 480.198 424.478 479.53 422.259C478.855 420.016 477.699 417.965 475.843 415.919C473.612 413.346 470.458 410.006 467.586 407.848C460.674 402.336 458.006 392.233 461.455 384.082L458.31 382.751Z" fill="white"/>
<path fill-rule="evenodd" clip-rule="evenodd" d="M441.275 365.563C442.072 370.221 441.957 375.304 441.618 380.222C440.599 394.143 440.328 401.776 446.208 409.861L446.216 409.872L446.223 409.882C447.611 411.731 449.299 413.32 450.923 414.795C451.16 415.01 451.394 415.222 451.627 415.432C453.029 416.698 454.357 417.897 455.537 419.216C458.35 422.36 460.236 426.049 459.417 429.46L462.738 430.257C463.968 425.13 461.074 420.283 458.082 416.939C456.77 415.472 455.29 414.137 453.895 412.879C453.667 412.673 453.441 412.469 453.219 412.267C451.603 410.8 450.135 409.404 448.963 407.843C443.924 400.908 443.994 394.539 445.024 380.468L445.024 380.461C445.368 375.477 445.509 370.061 444.641 364.987C443.771 359.901 441.867 355.038 438.025 351.29L435.64 353.735C438.799 356.816 440.48 360.917 441.275 365.563Z" fill="white"/>
<path d="M63.2338 511.467H608.582C611.484 511.467 613.704 509.247 613.704 506.344V504.637C613.704 501.734 611.484 499.515 608.582 499.515H63.2338C60.3312 499.515 58.1116 501.734 58.1116 504.637V506.344C58.1116 509.247 60.502 511.467 63.2338 511.467Z" fill="#7E97C9"/>
<defs>
<linearGradient id="paint0_linear" x1="558.239" y1="484.771" x2="502.697" y2="459.345" gradientUnits="userSpaceOnUse">
<stop offset="0.9999" stop-color="#19034D" stop-opacity="0.9148"/>
<stop offset="1" stop-color="#311573" stop-opacity="0"/>
</linearGradient>
<linearGradient id="paint1_linear" x1="293.138" y1="511.226" x2="268.869" y2="458.354" gradientUnits="userSpaceOnUse">
<stop stop-color="#201B59" stop-opacity="0.9148"/>
<stop offset="0.5554" stop-color="#FFCC00" stop-opacity="0"/>
</linearGradient>
<linearGradient id="paint2_linear" x1="189.145" y1="408.262" x2="349.343" y2="233.96" gradientUnits="userSpaceOnUse">
<stop offset="0.00446914" stop-color="white"/>
<stop offset="0.551" stop-color="white" stop-opacity="0.3"/>
</linearGradient>
</defs>
</svg>
