<svg width="482" height="450" viewBox="0 0 482 450" fill="none" xmlns="http://www.w3.org/2000/svg">
<path d="M183.593 210.791C241.802 210.791 288.989 163.604 288.989 105.395C288.989 47.1871 241.802 0 183.593 0C125.385 0 78.1978 47.1871 78.1978 105.395C78.1978 163.604 125.385 210.791 183.593 210.791Z" fill="#7E97C9"/>
<path d="M183.593 185.601C227.889 185.601 263.798 149.692 263.798 105.396C263.798 61.0993 227.889 25.1902 183.593 25.1902C139.297 25.1902 103.388 61.0993 103.388 105.396C103.388 149.692 139.297 185.601 183.593 185.601Z" fill="#F5F8FF"/>
<path d="M204.349 120.711H182.585C178.152 120.711 174.524 117.083 174.524 112.65V82.4219C174.524 78.593 177.749 75.3687 181.578 75.3687C185.407 75.3687 188.631 78.593 188.631 82.4219V106.604H204.551C208.38 106.604 211.604 109.829 211.604 113.658C211.403 117.487 208.178 120.711 204.349 120.711Z" fill="#393567"/>
<path d="M19.7572 142.072L133.415 255.73C155.582 277.897 191.655 277.897 213.822 255.73L227.324 242.228C232.362 237.19 232.362 228.726 227.324 223.688L180.974 177.338C175.936 172.3 167.472 172.3 162.434 177.338L139.259 200.513C137.445 202.326 134.423 202.326 132.609 200.513L76.5861 144.087C74.7724 142.273 74.7724 139.452 76.5861 137.638L99.358 114.866C104.396 109.828 104.396 101.364 99.358 96.3264L51.799 48.7675C46.761 43.7295 38.4986 43.7294 33.4606 48.5659L20.5633 61.0602C-2.41014 83.026 -2.61165 119.501 19.7572 142.072Z" fill="#393567"/>
<path d="M23.3844 63.0756L87.2666 126.958L89.4833 124.741L99.5593 114.665C104.597 109.627 104.597 101.163 99.5593 96.125L52.0004 48.566C46.9624 43.528 38.7 43.528 33.662 48.3645L20.7646 60.8588L23.3844 63.0756Z" fill="#F5F8FF"/>
<path d="M153.163 190.839L217.045 254.722L219.262 252.505L229.338 242.429C234.376 237.391 234.376 228.927 229.338 223.889L181.779 176.33C176.741 171.292 168.479 171.292 163.441 176.128L150.543 188.623L153.163 190.839Z" fill="#F5F8FF"/>
<path d="M392.571 448.988L243.647 427.022C226.719 424.604 215.233 408.885 217.651 391.957L271.054 30.8318C273.472 13.9041 289.191 2.41738 306.119 4.83563L455.042 26.8014C471.97 29.2197 483.457 44.9383 481.039 61.8661L427.636 422.992C425.016 439.919 409.499 451.608 392.571 448.988Z" fill="#2A2B2D"/>
<path d="M282.666 38.821L232.25 379.7L417.043 407.03L467.458 66.1513L282.666 38.821Z" fill="#F5F8FF"/>
<path d="M282.595 38.7419L278.821 64.2581L463.613 91.5884L467.387 66.0722L282.595 38.7419Z" fill="#7E97C9"/>
<path d="M321.635 426.619C321.03 426.619 320.426 426.619 319.821 426.417C316.597 426.014 313.776 424.2 311.962 421.581C309.947 418.961 309.342 415.737 309.745 412.714C310.148 409.489 311.962 406.668 314.582 404.855C317.202 402.839 320.426 402.033 323.449 402.638C326.673 403.041 329.494 404.854 331.308 407.474C333.323 410.094 333.928 413.318 333.525 416.341C332.719 422.185 327.479 426.619 321.635 426.619ZM321.635 404.451C319.418 404.451 317.403 405.056 315.589 406.467C313.373 408.079 311.962 410.497 311.559 413.117C311.156 415.737 311.76 418.356 313.373 420.573C314.985 422.79 317.403 424.2 320.023 424.604C325.464 425.41 330.703 421.581 331.51 416.14C331.913 413.52 331.308 410.9 329.696 408.683C328.084 406.467 325.665 405.056 323.046 404.653C322.643 404.451 322.038 404.451 321.635 404.451Z" fill="#3A3A3A"/>
<path d="M321.635 404.451C319.418 404.451 317.403 405.056 315.589 406.467C313.373 408.079 311.962 410.497 311.559 413.117C311.156 415.737 311.76 418.356 313.373 420.573C314.985 422.79 317.403 424.2 320.023 424.604C325.464 425.41 330.703 421.581 331.51 416.14C331.913 413.52 331.308 410.9 329.696 408.683C328.084 406.467 325.665 405.056 323.046 404.653C322.643 404.451 322.038 404.451 321.635 404.451Z" fill="#3A3A3A"/>
<path d="M348.236 35.4667C348.035 35.4667 347.833 35.4667 347.632 35.4667C346.624 35.2652 345.617 34.8622 345.012 33.8546C344.408 33.0485 344.206 32.0409 344.206 31.0333C344.408 30.0257 344.811 29.0181 345.818 28.4135C346.624 27.8089 347.632 27.6074 348.64 27.6074C349.647 27.8089 350.655 28.212 351.259 29.2196C351.864 30.0257 352.065 31.0333 352.065 32.0409C351.864 34.0561 350.252 35.4667 348.236 35.4667ZM348.236 29.6226C347.833 29.6226 347.43 29.8241 347.229 30.0257C346.826 30.2272 346.624 30.8318 346.423 31.2348C346.423 31.6378 346.423 32.2424 346.826 32.6454C347.027 33.0485 347.632 33.25 348.035 33.4515C348.438 33.4515 349.043 33.4515 349.446 33.0485C349.849 32.847 350.05 32.2424 350.252 31.8393C350.252 31.4363 350.252 30.8317 349.849 30.4287C349.647 30.0257 349.043 29.8242 348.64 29.6226C348.438 29.6226 348.438 29.6226 348.236 29.6226Z" fill="#3A3A3A"/>
<path d="M348.236 29.6226C347.833 29.6226 347.43 29.8241 347.229 30.0257C346.826 30.2272 346.624 30.8318 346.423 31.2348C346.423 31.6378 346.423 32.2424 346.826 32.6454C347.027 33.0485 347.632 33.25 348.035 33.4515C348.438 33.4515 349.043 33.4515 349.446 33.0485C349.849 32.847 350.05 32.2424 350.252 31.8393C350.252 31.4363 350.252 30.8317 349.849 30.4287C349.647 30.0257 349.043 29.8242 348.64 29.6226H348.236Z" fill="#3A3A3A"/>
<path d="M408.289 44.3335C408.088 44.3335 407.886 44.3335 407.685 44.3335L360.529 37.2802C359.521 37.0787 358.514 36.6757 357.909 35.6681C357.305 34.862 357.103 33.8544 357.103 32.8467C357.103 31.8391 357.708 30.8316 358.715 30.227C359.521 29.6224 360.529 29.4209 361.536 29.4209L408.692 36.4741C409.7 36.6757 410.708 37.0787 411.312 38.0863C411.917 38.8924 412.118 39.9 412.118 40.9076C412.118 41.9152 411.514 42.9228 410.506 43.5274C410.103 43.9304 409.297 44.3335 408.289 44.3335ZM361.133 31.6376C360.126 31.6376 359.521 32.2422 359.32 33.2498C359.32 33.6529 359.32 34.2574 359.723 34.6605C359.924 35.0635 360.529 35.265 360.932 35.4665L408.088 42.5198C409.095 42.7213 410.103 41.9152 410.305 40.9076C410.305 40.5045 410.305 39.9 409.901 39.4969C409.7 39.0939 409.095 38.8924 408.692 38.6909L361.536 31.6376C361.335 31.6376 361.335 31.6376 361.133 31.6376Z" fill="#3A3A3A"/>
<path d="M361.133 31.6376C360.126 31.6376 359.521 32.2422 359.32 33.2498C359.32 33.6529 359.32 34.2574 359.723 34.6605C359.924 35.0635 360.529 35.265 360.932 35.4665L408.088 42.5198C409.095 42.7213 410.103 41.9152 410.305 40.9076C410.305 40.5045 410.305 39.9 409.901 39.4969C409.7 39.0939 409.095 38.8924 408.692 38.6909L361.536 31.6376H361.133Z" fill="#3A3A3A"/>
<path d="M417.963 302.684L288.989 283.539C286.974 283.136 284.959 284.748 284.556 286.764L279.518 320.216C279.115 322.231 280.727 324.247 282.742 324.65L392.974 340.973L404.259 356.691L406.274 342.988L411.514 343.794C413.529 344.197 415.544 342.585 415.947 340.57L420.985 307.117C421.388 304.9 419.978 302.885 417.963 302.684Z" fill="#C5D9FF"/>
<path d="M438.517 164.037L309.544 144.892C307.529 144.489 305.513 146.101 305.11 148.117L300.072 181.569C299.669 183.584 301.282 185.599 303.297 186.003L413.529 202.326L424.814 218.044L426.829 204.341L432.069 205.147C434.084 205.55 436.099 203.938 436.502 201.923L441.54 168.47C441.943 166.253 440.533 164.238 438.517 164.037Z" fill="#C5D9FF"/>
<path d="M275.285 207.163L404.259 226.307C406.274 226.71 407.886 228.524 407.483 230.741L402.445 264.193C402.042 266.208 400.228 267.82 398.012 267.417L287.78 251.094L272.464 262.782L274.479 249.079L269.24 248.273C267.224 247.87 265.612 246.056 266.015 243.839L271.053 210.387C271.053 208.17 273.069 206.76 275.285 207.163Z" fill="#FA6C06"/>
<path d="M236.833 348.385L232.205 379.682L416.997 407.012L421.626 375.715L236.833 348.385Z" fill="#F5F8FF"/>
<path d="M264.202 367.976C263.194 374.022 257.552 378.455 251.506 377.448C245.461 376.44 241.027 370.797 242.035 364.752C243.042 358.706 248.685 354.273 254.731 355.28C260.776 356.288 265.21 361.931 264.202 367.976Z" fill="#C5D9FF"/>
<path opacity="0.33" d="M400.632 398.607C400.229 398.607 399.624 398.607 399.221 398.405L279.316 380.672C276.696 380.269 274.278 378.858 272.666 376.641C271.054 374.424 270.449 371.805 270.852 369.185C271.658 363.744 276.696 359.915 282.339 360.721L402.244 378.455C407.685 379.261 411.514 384.299 410.708 389.74C409.7 394.98 405.468 398.607 400.632 398.607ZM399.423 396.39C403.856 396.995 407.887 393.972 408.491 389.538C408.894 387.322 408.29 385.307 407.081 383.493C405.871 381.679 403.856 380.672 401.841 380.268L281.936 362.535C277.503 361.93 273.472 364.953 272.868 369.386C272.465 371.603 273.069 373.618 274.278 375.432C275.487 377.246 277.503 378.253 279.518 378.656L399.423 396.39Z" fill="#7E97C9"/>
<path d="M294.229 57.0287C294.027 57.0287 293.826 57.0287 293.624 57.0287C291.407 56.6257 289.997 54.6105 290.198 52.5953C290.4 51.5877 291.004 50.5801 291.81 49.9755C292.617 49.3709 293.624 49.1694 294.833 49.1694C297.05 49.5725 298.461 51.5877 298.259 53.6029C297.856 55.6181 296.042 57.0287 294.229 57.0287ZM294.229 51.1846C293.826 51.1846 293.423 51.3862 293.02 51.5877C292.617 51.9907 292.415 52.3938 292.214 52.7968C292.214 53.4014 292.214 53.8044 292.617 54.2075C293.02 54.6105 293.423 54.812 293.826 55.0135C294.833 55.2151 295.841 54.409 296.042 53.4014C296.042 52.7968 296.042 52.3938 295.639 51.9907C295.236 51.5877 294.833 51.3862 294.43 51.1846H294.229Z" fill="#F5F8FF"/>
<path d="M305.111 58.6411C304.909 58.6411 304.708 58.6411 304.506 58.6411C302.289 58.2381 300.879 56.2228 301.08 54.2076C301.483 51.9909 303.498 50.5803 305.514 50.7818C306.521 50.9833 307.529 51.3864 308.133 52.394C308.738 53.2 308.939 54.2077 308.939 55.4168C308.738 56.4244 308.133 57.432 307.327 58.0365C306.723 58.4396 305.917 58.6411 305.111 58.6411ZM305.111 52.797C304.103 52.797 303.297 53.4016 303.297 54.4092C303.297 55.0137 303.297 55.4168 303.7 55.8198C304.103 56.2229 304.506 56.4244 304.909 56.6259C305.514 56.6259 305.917 56.6259 306.32 56.2228C306.723 55.8198 306.924 55.4168 307.126 55.0137C307.126 54.4091 307.126 54.0061 306.723 53.6031C306.32 53.2 305.917 52.9985 305.514 52.797C305.312 52.797 305.312 52.797 305.111 52.797Z" fill="#F5F8FF"/>
<path d="M315.791 60.2538C315.59 60.2538 315.388 60.2538 315.187 60.2538C312.97 59.8507 311.559 57.8355 311.962 55.8203C312.365 53.8051 314.38 52.193 316.396 52.3945C318.612 52.7975 320.023 54.8127 319.822 56.8279C319.419 58.8431 317.806 60.2538 315.791 60.2538ZM315.791 54.4097C315.388 54.4097 314.985 54.6112 314.582 54.8127C314.179 55.2158 313.977 55.6188 313.776 56.0218C313.776 56.6264 313.776 57.0295 314.179 57.4325C314.582 57.8356 314.985 58.0371 315.388 58.2386C316.396 58.4401 317.403 57.634 317.605 56.6264C317.806 55.6188 317 54.6112 315.993 54.4097C315.993 54.4097 315.993 54.4097 315.791 54.4097Z" fill="#F5F8FF"/>
<path d="M394.989 310.341C394.989 310.341 394.788 310.341 394.989 310.341L303.499 296.839C302.894 296.839 302.491 296.235 302.693 295.63C302.693 295.025 303.297 294.622 303.902 294.824L395.191 308.326C395.795 308.326 396.198 308.93 395.997 309.535C395.997 309.938 395.392 310.341 394.989 310.341Z" fill="#F5F8FF"/>
<path d="M340.981 313.566C340.779 313.566 340.779 313.566 340.981 313.566L301.886 307.722C301.281 307.722 300.878 307.117 301.08 306.513C301.08 305.908 301.684 305.505 302.289 305.707L341.182 311.551C341.787 311.551 342.19 312.155 341.989 312.76C341.787 313.163 341.384 313.566 340.981 313.566Z" fill="#F5F8FF"/>
<path d="M327.883 322.029C327.682 322.029 327.682 322.029 327.883 322.029L300.476 317.999C299.872 317.999 299.469 317.394 299.67 316.79C299.67 316.185 300.275 315.782 300.879 315.984L328.085 320.014C328.689 320.014 329.092 320.619 328.891 321.223C328.689 321.626 328.286 322.029 327.883 322.029Z" fill="#F5F8FF"/>
<path d="M393.378 321.223C393.378 321.223 393.176 321.223 393.378 321.223L353.073 315.177C352.469 315.177 352.066 314.573 352.267 313.968C352.267 313.364 352.872 312.961 353.476 313.162L393.579 319.006C394.184 319.006 394.587 319.611 394.385 320.216C394.385 320.82 393.781 321.223 393.378 321.223Z" fill="#F5F8FF"/>
<path d="M383.906 234.57C383.704 234.57 383.704 234.57 383.906 234.57L292.415 221.068C291.811 221.068 291.408 220.463 291.609 219.859C291.609 219.254 292.214 218.851 292.818 219.053L384.107 232.555C384.712 232.555 385.115 233.159 384.913 233.764C384.712 234.167 384.309 234.57 383.906 234.57Z" fill="#F5F8FF"/>
<path d="M329.697 237.794L290.602 231.95C289.997 231.95 289.594 231.345 289.796 230.741C289.796 230.136 290.4 229.733 291.005 229.935L329.898 235.779C330.503 235.779 330.906 236.383 330.704 236.988C330.704 237.391 330.301 237.794 329.697 237.794Z" fill="#F5F8FF"/>
<path d="M370.202 254.117C370.202 254.117 370 254.117 370.202 254.117L291.206 241.824C290.601 241.824 290.198 241.219 290.4 240.615C290.4 240.01 291.004 239.607 291.609 239.809L370.403 252.102C371.008 252.102 371.411 252.706 371.21 253.311C371.008 253.714 370.605 254.117 370.202 254.117Z" fill="#F5F8FF"/>
<path d="M382.294 245.452C382.092 245.452 382.092 245.452 382.294 245.452L341.989 239.406C341.385 239.406 340.982 238.802 341.183 238.197C341.183 237.593 341.788 237.19 342.392 237.391L382.495 243.235C383.1 243.235 383.503 243.84 383.301 244.445C383.1 245.049 382.697 245.452 382.294 245.452Z" fill="#F5F8FF"/>
<path d="M291.811 81.4136L420.784 100.558C422.799 100.961 424.411 102.775 424.008 104.992L418.97 138.444C418.567 140.459 416.754 142.071 414.537 141.668L304.305 125.345L288.989 137.033L291.005 123.33L285.765 122.524C283.75 122.121 282.138 120.307 282.541 118.09L287.579 84.6379C287.78 82.4212 289.594 81.0106 291.811 81.4136Z" fill="#FA6C06"/>
<path d="M400.43 108.82C400.43 108.82 400.228 108.82 400.43 108.82L308.939 95.3179C308.334 95.3179 307.931 94.7133 308.133 94.1088C308.133 93.5042 308.738 93.1011 309.342 93.3027L400.631 106.805C401.236 106.805 401.639 107.409 401.437 108.014C401.236 108.417 400.833 108.82 400.43 108.82Z" fill="#F5F8FF"/>
<path d="M346.422 111.842C346.221 111.842 346.221 111.842 346.422 111.842L307.327 105.998C306.723 105.998 306.32 105.394 306.521 104.789C306.521 104.184 307.126 103.781 307.73 103.983L346.624 109.827C347.228 109.827 347.631 110.432 347.43 111.036C347.228 111.641 346.825 111.842 346.422 111.842Z" fill="#F5F8FF"/>
<path d="M386.727 128.367C386.727 128.367 386.525 128.367 386.727 128.367L307.731 116.074C307.126 116.074 306.723 115.47 306.924 114.865C306.924 114.261 307.529 113.857 308.134 114.059L386.928 126.352C387.533 126.352 387.936 126.956 387.734 127.561C387.734 127.964 387.13 128.367 386.727 128.367Z" fill="#F5F8FF"/>
<path d="M398.817 119.702C398.817 119.702 398.616 119.702 398.817 119.702L358.513 113.656C357.909 113.656 357.506 113.052 357.707 112.447C357.707 111.843 358.312 111.44 358.916 111.641L399.019 117.485C399.624 117.485 400.027 118.09 399.825 118.695C399.624 119.299 399.221 119.702 398.817 119.702Z" fill="#F5F8FF"/>
<path d="M415.544 172.904L324.053 159.402C323.449 159.402 323.046 158.798 323.247 158.193C323.247 157.588 323.852 157.185 324.456 157.387L415.745 170.889C416.35 170.889 416.753 171.493 416.551 172.098C416.551 172.702 416.148 172.904 415.544 172.904Z" fill="#F5F8FF"/>
<path d="M361.537 176.128C361.537 176.128 361.335 176.128 361.537 176.128L322.442 170.284C321.837 170.284 321.434 169.68 321.635 169.075C321.635 168.47 322.24 168.067 322.845 168.269L361.738 174.113C362.343 174.113 362.746 174.718 362.544 175.322C362.343 175.725 361.94 176.128 361.537 176.128Z" fill="#F5F8FF"/>
<path d="M348.437 184.592C348.437 184.592 348.236 184.592 348.437 184.592L321.03 180.562C320.426 180.562 320.023 179.957 320.224 179.353C320.224 178.748 320.829 178.345 321.433 178.547L348.639 182.577C349.243 182.577 349.646 183.182 349.445 183.786C349.243 184.189 348.84 184.592 348.437 184.592Z" fill="#F5F8FF"/>
<path d="M413.932 183.987L373.628 177.942C373.023 177.942 372.62 177.337 372.821 176.733C372.821 176.128 373.426 175.725 374.031 175.926L414.133 181.771C414.738 181.771 415.141 182.375 414.939 182.98C414.939 183.584 414.536 183.987 413.932 183.987Z" fill="#F5F8FF"/>
<path d="M229.943 418.155L22.9812 441.532C18.9508 441.935 15.3234 439.113 14.9204 435.083L0.0078125 302.482C0.0078125 302.281 0.209327 302.079 0.410848 302.079L220.875 277.292C221.076 277.292 221.278 277.493 221.278 277.695L236.19 410.296C236.593 414.125 233.772 417.551 229.943 418.155Z" fill="#FA6C06"/>
<path opacity="0.29" d="M220.27 418.155L33.2588 441.532C29.2284 441.935 91.2968 362.535 90.6922 358.505L0.0078125 302.482C0.0078125 302.281 0.209327 302.079 0.410848 302.079L220.875 277.292C221.076 277.292 221.278 277.493 221.278 277.695L145.909 352.258C146.312 356.087 224.099 417.551 220.27 418.155Z" fill="#393567"/>
<path d="M0.410848 302.079L91.4983 211.999C96.9394 206.558 105.403 205.551 111.852 209.581L220.27 276.889C220.472 277.091 220.472 277.292 220.27 277.292L0.0078125 302.079" fill="#FA6C06"/>
<path d="M101.574 344.6L33.0571 439.919L220.069 418.759L132.004 340.972C122.935 332.912 108.829 334.524 101.574 344.6Z" fill="#FA6C06"/>
<path d="M11.4951 236.786L155.583 220.463C165.054 219.455 173.518 225.097 174.324 233.36L183.594 315.58L143.693 352.459L90.6929 358.504L38.2974 325.858L29.229 246.257L11.4951 236.786Z" fill="#F5F8FF"/>
<path d="M101.574 344.6L33.0571 439.919L220.069 418.759L132.004 340.972C122.935 332.912 108.829 334.524 101.574 344.6Z" fill="#FA6C06"/>
<path d="M33.4607 282.733L8.27058 285.554L4.24016 249.683C3.43408 243.033 8.27055 236.987 14.9207 236.383L16.1299 236.181C22.7801 235.375 28.8257 240.212 29.4303 246.862L33.4607 282.733Z" fill="#F5F8FF"/>
<path d="M50.388 263.992C49.7834 263.992 49.3804 263.589 49.3804 263.185C49.3804 262.581 49.7834 262.178 50.1864 261.976L154.574 250.288C155.179 250.288 155.582 250.691 155.783 251.094C155.783 251.699 155.38 252.102 154.977 252.303L50.388 263.992C50.5895 263.992 50.388 263.992 50.388 263.992Z" fill="#393567"/>
<path d="M54.4182 299.66C53.8137 299.66 53.4106 299.257 53.4106 298.854C53.4106 298.25 53.8137 297.847 54.2167 297.645L158.605 285.957C159.209 285.957 159.612 286.36 159.814 286.763C159.814 287.368 159.411 287.771 159.008 287.972L54.4182 299.66Z" fill="#393567"/>
<path d="M52.4031 281.524C51.7985 281.524 51.3955 281.121 51.3955 280.718C51.3955 280.113 51.7985 279.71 52.2016 279.509L97.3423 274.471C97.9469 274.471 98.3499 274.874 98.5514 275.277C98.5514 275.881 98.1484 276.284 97.7453 276.486L52.4031 281.524Z" fill="#393567"/>
<path d="M109.433 275.276C108.829 275.276 108.426 274.873 108.426 274.47C108.426 273.865 108.829 273.462 109.232 273.261L156.791 267.82C157.395 267.82 157.798 268.223 158 268.626C158 269.23 157.597 269.634 157.194 269.835L109.433 275.276Z" fill="#393567"/>
<path d="M56.6355 319.611C56.031 319.611 55.6279 319.208 55.6279 318.805C55.6279 318.201 56.031 317.798 56.434 317.596L101.575 312.558C102.179 312.558 102.582 312.961 102.784 313.364C102.784 313.969 102.381 314.372 101.978 314.573L56.6355 319.611C56.8371 319.611 56.8371 319.611 56.6355 319.611Z" fill="#393567"/>
</svg>
