<svg width="709" height="507" viewBox="0 0 709 507" fill="none" xmlns="http://www.w3.org/2000/svg">
<g opacity="0.5">
<path d="M386.641 444.198C386.157 454.826 383.317 464.23 378.122 472.41C372.928 480.521 365.621 486.813 356.202 491.288C346.852 495.763 336.151 498 324.1 498C304.222 498 288.569 491.463 277.141 478.388C265.713 465.314 260 446.855 260 423.013V415.462C260 400.5 262.562 387.425 267.687 376.238C272.882 364.982 280.327 356.312 290.024 350.229C299.72 344.076 310.94 341 323.684 341C342.038 341 356.79 345.894 367.941 355.683C379.092 365.401 385.429 378.825 386.953 395.955H350.592C350.315 386.656 347.994 379.979 343.631 375.924C339.268 371.869 332.619 369.841 323.684 369.841C314.611 369.841 307.962 373.267 303.737 380.119C299.512 386.971 297.296 397.913 297.088 412.945V423.747C297.088 440.038 299.097 451.68 303.114 458.671C307.2 465.663 314.195 469.159 324.1 469.159C332.48 469.159 338.887 467.166 343.319 463.181C347.752 459.196 350.107 452.868 350.384 444.198H386.641Z" fill="#7E97C9"/>
<path d="M460.092 441.996H440.353V495.902H403.887V343.202H463.416C481.355 343.202 495.38 347.223 505.492 355.263C515.604 363.304 520.66 374.665 520.66 389.348C520.66 399.976 518.513 408.785 514.218 415.777C509.994 422.769 503.345 428.432 494.272 432.767L525.854 494.329V495.902H486.791L460.092 441.996ZM440.353 413.574H463.416C470.342 413.574 475.537 411.757 479 408.121C482.532 404.415 484.298 399.276 484.298 392.704C484.298 386.132 482.532 380.993 479 377.287C475.467 373.512 470.273 371.624 463.416 371.624H440.353V413.574Z" fill="#7E97C9"/>
<path d="M590.578 343.202L624.342 449.442L658.002 343.202H706V495.902H669.43V460.244L672.962 387.25L636.393 495.902H612.291L575.617 387.146L579.15 460.244V495.902H542.684V343.202H590.578Z" fill="#7E97C9"/>
</g>
<path d="M631.062 103.716L343.027 391.751L328.867 405.94L298.604 436.204L228.42 506.358L11.7759 289.714L64.4723 237.017L128.974 301.519L190.973 363.518L228.42 400.965L265.867 363.518L494.081 135.275L578.366 51.0195L631.062 103.716Z" fill="#6C67AB"/>
<path d="M343.028 340.908V391.75L328.868 405.94L298.604 436.203V340.908H343.028Z" fill="#7E97C9"/>
<path d="M512.657 154.793V222.15L328.867 405.94H148.492C137.717 405.94 128.974 397.197 128.974 386.422V154.793C128.974 144.018 137.717 135.275 148.492 135.275H493.139C493.463 135.275 493.786 135.275 494.081 135.304C504.414 135.775 512.657 144.313 512.657 154.793Z" fill="#7288B5"/>
<path d="M497.613 106.453V237.164L371.259 363.517H143.987V106.453H497.613Z" fill="white"/>
<path d="M144.005 137.506L497.631 137.506V106.447L144.005 106.447V137.506Z" fill="#FA6C06"/>
<path d="M204.986 127.856H162.976C160.65 127.856 158.766 125.972 158.766 123.646V120.349C158.766 118.023 160.65 116.139 162.976 116.139H204.986C207.312 116.139 209.196 118.023 209.196 120.349V123.646C209.196 125.972 207.312 127.856 204.986 127.856Z" fill="#F5F7FF"/>
<path d="M512.922 381.593C512.922 381.593 512.952 381.563 512.922 381.593C512.863 381.622 512.863 381.622 512.922 381.593Z" fill="#323657"/>
<path d="M549.161 301.165L584.459 281.44L572.33 280.645L549.161 301.165Z" fill="#D6D6D6"/>
<path d="M549.162 301.164L560.025 283.707L569.151 283.471L549.162 301.164Z" fill="#E8E8E8"/>
<path d="M576.364 285.973L577.07 290.419L549.162 301.164L576.364 285.973Z" fill="#C2C2C2"/>
<path d="M86.2866 273.199C86.1688 271.815 86.051 270.402 85.9627 269.048L86.9342 268.989C87.0225 270.372 87.1403 271.756 87.258 273.14L86.2866 273.199ZM586.108 268.783L585.549 267.988C585.578 267.988 587.256 266.81 589.523 264.691L590.171 265.397C587.874 267.576 586.196 268.753 586.108 268.783ZM85.6389 263.807C85.5506 262.07 85.4623 260.304 85.3739 258.597L86.3454 258.567C86.4043 260.275 86.4926 262.041 86.5809 263.778L85.6389 263.807ZM593.88 261.629L593.144 260.981C594.292 259.656 595.381 258.273 596.323 256.919L597.118 257.478C596.147 258.862 595.058 260.275 593.88 261.629ZM85.2267 253.356C85.1973 251.619 85.1679 249.853 85.1384 248.146H86.1099C86.1099 249.853 86.1394 251.619 86.1982 253.356H85.2267ZM599.797 252.915L598.944 252.473C599.738 250.913 600.386 249.294 600.887 247.704L601.799 247.998C601.299 249.647 600.622 251.296 599.797 252.915ZM86.1099 242.935H85.1384C85.1679 241.198 85.1973 239.432 85.2267 237.724L86.1982 237.754C86.1688 239.432 86.1394 241.198 86.1099 242.935ZM602.918 242.847L601.946 242.729C602.064 241.728 602.123 240.756 602.123 239.755C602.123 239.049 602.094 238.313 602.035 237.606L603.006 237.518C603.065 238.254 603.095 238.99 603.095 239.726C603.095 240.786 603.036 241.816 602.918 242.847ZM601.093 232.572C600.651 230.982 600.033 229.363 599.267 227.774L600.151 227.361C600.916 229.01 601.564 230.659 602.035 232.307L601.093 232.572ZM86.4043 232.513L85.4328 232.454C85.5211 230.718 85.6095 228.951 85.7272 227.244L86.6987 227.303C86.581 229.039 86.4926 230.776 86.4043 232.513ZM596.736 223.328C595.823 221.945 594.793 220.561 593.644 219.207L594.38 218.589C595.558 219.972 596.618 221.385 597.53 222.798L596.736 223.328ZM87.0814 222.121L86.1099 222.033C86.2571 220.296 86.4338 218.559 86.6104 216.822L87.5819 216.91C87.4053 218.647 87.2286 220.384 87.0814 222.121ZM590.141 215.38C589.994 215.232 589.876 215.115 589.729 214.967C588.64 213.908 587.492 212.907 586.285 211.994L586.873 211.229C588.11 212.171 589.287 213.201 590.406 214.261C590.553 214.408 590.701 214.555 590.818 214.673L590.141 215.38ZM88.1707 211.759L87.1992 211.641C87.4053 209.904 87.6408 208.167 87.9057 206.459L88.8478 206.607C88.6123 208.314 88.3768 210.051 88.1707 211.759ZM582.016 209.168C580.573 208.344 579.043 207.549 577.423 206.842L577.806 205.959C579.455 206.695 581.015 207.49 582.487 208.344L582.016 209.168ZM572.595 204.958C571.035 204.428 569.416 203.928 567.62 203.457L567.856 202.515C569.651 202.986 571.3 203.486 572.89 204.016L572.595 204.958ZM562.586 202.25C561.055 201.926 559.377 201.573 557.493 201.219L557.67 200.277C559.583 200.63 561.261 200.984 562.792 201.337L562.586 202.25ZM89.6721 201.484L88.73 201.337C89.0244 199.63 89.3188 197.893 89.6426 196.185L90.5847 196.362C90.2903 198.04 89.9665 199.747 89.6721 201.484ZM552.371 200.248L550.81 199.983C549.633 199.777 548.426 199.571 547.219 199.335L547.395 198.393C548.602 198.599 549.78 198.835 550.987 199.041L552.547 199.306L552.371 200.248ZM542.096 198.364C540.242 198.01 538.563 197.628 536.974 197.274L537.18 196.332C538.77 196.686 540.448 197.039 542.273 197.422L542.096 198.364ZM531.881 196.009C530.144 195.537 528.466 195.037 526.847 194.507L527.141 193.594C528.731 194.095 530.409 194.595 532.116 195.066L531.881 196.009ZM521.93 192.77C520.282 192.123 518.662 191.416 517.132 190.68L517.544 189.797C519.075 190.533 520.664 191.21 522.283 191.858L521.93 192.77ZM91.6445 191.239L90.7025 191.033C91.0557 189.326 91.4679 187.618 91.8506 185.94L92.7927 186.176C92.3805 187.854 91.9978 189.561 91.6445 191.239ZM512.48 188.266C510.949 187.412 509.477 186.47 508.035 185.499L508.565 184.704C509.978 185.675 511.45 186.588 512.951 187.442L512.48 188.266ZM503.825 182.349C502.471 181.259 501.146 180.111 499.88 178.904L500.557 178.198C501.823 179.375 503.118 180.523 504.443 181.583L503.825 182.349ZM94.0585 181.142L93.1165 180.906C93.5581 179.228 94.0291 177.521 94.5296 175.872L95.4716 176.137C94.9712 177.786 94.5296 179.464 94.0585 181.142ZM496.2 175.165C495.052 173.9 493.904 172.545 492.815 171.162L493.58 170.573C494.669 171.927 495.788 173.252 496.907 174.518L496.2 175.165ZM97.0025 171.162L96.0899 170.867C96.6198 169.219 97.1791 167.541 97.7385 165.921L98.6511 166.245C98.0623 167.835 97.5324 169.484 97.0025 171.162ZM489.724 166.952C488.752 165.539 487.81 164.067 486.897 162.565L487.722 162.065C488.634 163.566 489.576 165.009 490.518 166.422L489.724 166.952ZM100.417 161.329L99.5048 160.976C100.123 159.357 100.771 157.708 101.418 156.118L102.302 156.471C101.654 158.091 101.036 159.71 100.417 161.329ZM484.307 158.002C483.512 156.501 482.717 154.941 481.952 153.321L482.835 152.909C483.571 154.499 484.366 156.059 485.16 157.531L484.307 158.002ZM104.362 151.702L103.479 151.32C104.186 149.73 104.922 148.14 105.658 146.58L106.541 146.992C105.775 148.523 105.039 150.113 104.362 151.702ZM479.832 148.582C479.155 147.021 478.507 145.373 477.889 143.724L478.802 143.371C479.42 145.02 480.067 146.639 480.715 148.199L479.832 148.582ZM108.808 142.311L107.954 141.87C108.749 140.309 109.573 138.778 110.397 137.248L111.251 137.719C110.427 139.22 109.603 140.751 108.808 142.311ZM476.123 138.808C475.563 137.189 475.033 135.511 474.533 133.833L475.445 133.538C475.946 135.216 476.505 136.865 477.035 138.484L476.123 138.808ZM113.783 133.185L112.959 132.684C113.842 131.183 114.754 129.682 115.667 128.21L116.491 128.71C115.579 130.182 114.666 131.684 113.783 133.185ZM473.061 128.798C472.619 127.15 472.178 125.442 471.736 123.735L472.678 123.499C473.09 125.207 473.532 126.885 474.003 128.534L473.061 128.798ZM119.288 124.353L118.493 123.823C119.465 122.381 120.436 120.938 121.437 119.525L122.232 120.084C121.231 121.468 120.26 122.911 119.288 124.353ZM470.47 118.701C469.999 117.052 469.469 115.404 468.88 113.784L469.793 113.461C470.382 115.109 470.941 116.787 471.412 118.436L470.47 118.701ZM125.294 115.845L124.528 115.256C125.559 113.873 126.648 112.489 127.737 111.135L128.503 111.724C127.413 113.078 126.324 114.461 125.294 115.845ZM466.938 108.986C466.231 107.425 465.466 105.865 464.641 104.364L465.495 103.893C466.319 105.424 467.114 107.013 467.821 108.603L466.938 108.986ZM131.8 107.72L131.064 107.102C132.183 105.777 133.331 104.452 134.508 103.157L135.215 103.804C134.067 105.1 132.919 106.425 131.8 107.72ZM138.747 100.007L138.041 99.3297C139.248 98.0638 140.484 96.8273 141.721 95.5909L142.398 96.268C141.162 97.5044 139.955 98.7409 138.747 100.007ZM462.021 99.889C461.108 98.4465 460.137 97.004 459.107 95.5909L459.901 95.0315C460.932 96.4446 461.933 97.9166 462.845 99.3591L462.021 99.889ZM146.166 92.7058L145.519 91.9993C146.784 90.8217 148.08 89.6441 149.405 88.496L150.052 89.232C148.698 90.3507 147.403 91.5282 146.166 92.7058ZM455.927 91.4988C454.838 90.174 453.69 88.8787 452.512 87.5834L453.219 86.9357C454.396 88.231 455.574 89.5558 456.663 90.8806L455.927 91.4988ZM153.968 85.817L153.349 85.081C154.674 83.9623 156.058 82.8731 157.412 81.7838L158.001 82.5492C156.647 83.609 155.292 84.7277 153.968 85.817ZM448.921 83.8446C447.714 82.6375 446.418 81.46 445.123 80.2824L445.771 79.5759C447.095 80.7534 448.361 81.9604 449.598 83.1674L448.921 83.8446ZM162.122 79.3992L161.534 78.6338C162.917 77.6034 164.33 76.573 165.773 75.5721L166.332 76.367C164.919 77.3679 163.506 78.3688 162.122 79.3992ZM441.178 76.9263C439.853 75.8371 438.47 74.7772 437.086 73.7174L437.675 72.952C439.088 74.0118 440.471 75.1011 441.796 76.1903L441.178 76.9263ZM170.63 73.4525L170.1 72.6576C171.543 71.7155 173.015 70.744 174.487 69.8314L174.987 70.6557C173.545 71.5683 172.073 72.5104 170.63 73.4525ZM432.876 70.6852C431.463 69.7137 430.021 68.7422 428.549 67.8001L429.078 66.9758C430.55 67.9179 432.022 68.8894 433.435 69.8609L432.876 70.6852ZM179.462 67.9473L178.962 67.123C180.463 66.2398 181.964 65.3861 183.495 64.5323L183.966 65.3861C182.436 66.2104 180.934 67.0641 179.462 67.9473ZM424.103 65.0917C422.631 64.2085 421.1 63.3548 419.57 62.5305L420.041 61.6767C421.571 62.5305 423.102 63.3842 424.604 64.2674L424.103 65.0917ZM188.529 62.9132L188.088 62.0594C189.619 61.2646 191.179 60.4697 192.739 59.7043L193.151 60.558C191.621 61.3235 190.06 62.1183 188.529 62.9132ZM414.977 60.1164C413.446 59.351 411.886 58.5856 410.296 57.8202L410.708 56.937C412.298 57.673 413.888 58.4678 415.419 59.2333L414.977 60.1164ZM197.891 58.3206L197.479 57.4375C199.039 56.7015 200.658 55.9949 202.248 55.2884L202.631 56.1716C201.041 56.8781 199.451 57.5846 197.891 58.3206ZM405.556 55.6711C403.996 54.994 402.377 54.2874 400.758 53.6398L401.111 52.7566C402.73 53.4043 404.349 54.1108 405.939 54.7879L405.556 55.6711ZM207.43 54.1697L207.076 53.2865C208.666 52.6388 210.315 51.9912 211.934 51.3729L212.287 52.2856C210.668 52.9038 209.049 53.522 207.43 54.1697ZM395.93 51.7262C394.311 51.108 392.662 50.5192 391.043 49.9304L391.367 49.0178C393.015 49.6066 394.664 50.1954 396.283 50.8136L395.93 51.7262ZM217.174 50.4898L216.85 49.5771C218.469 48.9884 220.147 48.429 221.796 47.8991L222.09 48.8117C220.471 49.3416 218.793 49.901 217.174 50.4898ZM386.097 48.2818C384.448 47.7519 382.8 47.222 381.122 46.7215L381.387 45.8089C383.065 46.3094 384.743 46.8393 386.391 47.3692L386.097 48.2818ZM227.066 47.222L226.771 46.3094C228.42 45.8089 230.127 45.3084 231.776 44.8374L232.041 45.7795C230.422 46.2505 228.714 46.7215 227.066 47.222ZM376.117 45.3084C374.468 44.8374 372.761 44.3958 371.083 43.9837L371.318 43.0416C372.996 43.4538 374.704 43.9248 376.382 44.3664L376.117 45.3084ZM237.104 44.3958L236.869 43.4538C238.547 43.0122 240.254 42.6 241.932 42.1879L242.168 43.1299C240.46 43.5421 238.782 43.9837 237.104 44.3958ZM366.019 42.7472C364.341 42.3645 362.634 41.9818 360.926 41.6285L361.132 40.6865C362.84 41.0397 364.547 41.4224 366.225 41.8052L366.019 42.7472ZM247.232 42.0112L247.025 41.0692C248.733 40.7159 250.44 40.3626 252.148 40.0094L252.325 40.9514C250.647 41.2752 248.939 41.6285 247.232 42.0112ZM355.804 40.6276C354.096 40.3037 352.389 40.0094 350.681 39.715L350.829 38.7729C352.536 39.0673 354.273 39.3617 355.981 39.6855L355.804 40.6276ZM257.447 40.0094L257.27 39.0673C258.978 38.7729 260.715 38.4785 262.422 38.2135L262.569 39.1556C260.891 39.4206 259.154 39.715 257.447 40.0094ZM345.53 38.9201C343.822 38.6551 342.085 38.4196 340.378 38.2135L340.495 37.242C342.232 37.4481 343.969 37.7131 345.677 37.9486L345.53 38.9201ZM267.751 38.4196L267.633 37.4481C269.341 37.2126 271.107 37.0065 272.814 36.8005L272.932 37.772C271.195 37.978 269.458 38.1841 267.751 38.4196ZM335.196 37.5953C333.489 37.4187 331.722 37.242 330.015 37.0949L330.103 36.1234C331.84 36.2706 333.577 36.4472 335.314 36.6533L335.196 37.5953ZM278.084 37.242L277.996 36.2706C279.733 36.0939 281.469 35.9467 283.206 35.829L283.295 36.8005C281.528 36.9182 279.791 37.0654 278.084 37.242ZM324.834 36.6533C323.126 36.5355 321.36 36.4178 319.623 36.3294L319.682 35.3579C321.419 35.4463 323.185 35.564 324.893 35.6818L324.834 36.6533ZM288.447 36.4178L288.388 35.4463C290.125 35.3579 291.862 35.2696 293.599 35.1813L293.628 36.1528C291.92 36.2411 290.154 36.3294 288.447 36.4178ZM314.412 36.1234C312.675 36.0645 310.938 36.035 309.201 36.0056V35.0341C310.938 35.0635 312.675 35.093 314.412 35.1519V36.1234ZM298.839 36.0056L298.809 35.0341C300.546 35.0047 302.283 34.9752 304.02 34.9752V35.9467C302.283 35.9467 300.546 35.9762 298.839 36.0056Z" fill="#7E97C9"/>
<path d="M657.999 133.215C645.9 127.503 631.945 130.536 623.231 139.78C621.112 142.017 619.316 144.608 617.932 147.552C613.722 156.413 614.252 166.304 618.492 174.371C621.406 179.964 626.116 184.675 632.269 187.589C632.887 187.883 633.506 188.148 634.124 188.384C636.95 189.503 639.835 190.15 642.72 190.386C654.82 191.357 666.831 184.881 672.336 173.252C679.431 158.267 673.013 140.309 657.999 133.215ZM665.536 170.043C661.414 178.757 652.406 183.615 643.338 182.879C641.189 182.702 639.011 182.202 636.891 181.377C636.42 181.201 635.949 180.995 635.507 180.789C630.885 178.61 627.382 175.077 625.174 170.868C621.995 164.803 621.612 157.414 624.762 150.76C625.792 148.552 627.147 146.609 628.736 144.931C635.242 138.013 645.723 135.717 654.79 140.015C666.036 145.344 670.864 158.797 665.536 170.043Z" fill="#F89248"/>
<path d="M625.175 170.867L618.521 174.37C614.312 166.304 613.782 156.412 617.962 147.551C619.346 144.636 621.142 142.016 623.261 139.779L628.737 144.931C627.147 146.609 625.822 148.552 624.763 150.76C621.613 157.413 621.995 164.832 625.175 170.867Z" fill="#FA6C06"/>
<path d="M636.891 181.378L634.123 188.384C633.505 188.149 632.887 187.884 632.269 187.589C626.116 184.675 621.406 179.964 618.491 174.371L625.144 170.868C627.352 175.048 630.856 178.61 635.478 180.789C635.949 180.995 636.42 181.201 636.891 181.378Z" fill="#FA6C06"/>
<path d="M642.721 190.385C639.835 190.15 636.95 189.502 634.124 188.383L636.892 181.377C639.011 182.201 641.16 182.701 643.339 182.878L642.721 190.385Z" fill="#FD8E3E"/>
<path d="M635.92 210.226H579.75V209.108H634.801V185.321H635.92V210.226Z" fill="#4DAFFF"/>
<path d="M609.307 197.48H579.75V204.192H609.307V197.48Z" fill="#E0E0E0"/>
<path d="M5.85843 99.7699H0V138.689H5.85843V99.7699Z" fill="#F5F8FF"/>
<path d="M20.4021 107.661H14.5437V138.66H20.4021V107.661Z" fill="#F5F8FF"/>
<path d="M34.9742 101.862H29.1157V138.69H34.9742V101.862Z" fill="#F5F8FF"/>
<path d="M49.5469 113.342H43.6885V138.689H49.5469V113.342Z" fill="#F5F8FF"/>
<path d="M64.1189 103.038H58.2605V138.66H64.1189V103.038Z" fill="#F5F8FF"/>
<path d="M78.691 97.6799H72.8325V138.689H78.691V97.6799Z" fill="#F5F8FF"/>
<path d="M93.2647 95.4431H87.4062V138.69H93.2647V95.4431Z" fill="#F5F8FF"/>
<path d="M5.85843 114.255H0V138.66H5.85843V114.255Z" fill="#FA6C06"/>
<path d="M20.4021 119.23H14.5437V138.69H20.4021V119.23Z" fill="#FA6C06"/>
<path d="M34.9742 115.581H29.1157V138.691H34.9742V115.581Z" fill="#FA6C06"/>
<path d="M49.5469 122.793H43.6885V138.69H49.5469V122.793Z" fill="#FA6C06"/>
<path d="M64.1189 116.317H58.2605V138.661H64.1189V116.317Z" fill="#FA6C06"/>
<path d="M78.691 112.959H72.8325V138.689H78.691V112.959Z" fill="#FA6C06"/>
<path d="M93.2647 111.547H87.4062V138.66H93.2647V111.547Z" fill="#FA6C06"/>
<path opacity="0.4" d="M132.094 39.0675H98.1797V43.9544H132.094V39.0675Z" fill="#7E97C9"/>
<path opacity="0.4" d="M146.284 48.105H98.1797V52.9919H146.284V48.105Z" fill="#7E97C9"/>
<path d="M707.665 103.156C704.25 93.618 695.123 87.7595 685.526 88.0539C683.2 88.1128 680.845 88.5544 678.52 89.3787C671.513 91.8811 666.508 97.4745 664.448 104.04C663.005 108.603 663.005 113.666 664.742 118.524C664.919 118.995 665.095 119.495 665.301 119.937C666.214 122.027 667.421 123.941 668.834 125.619C674.81 132.625 684.702 135.598 693.887 132.301C705.722 128.062 711.904 115.02 707.665 103.156ZM691.944 126.943C685.055 129.416 677.636 127.179 673.162 121.939C672.102 120.673 671.189 119.26 670.512 117.67C670.365 117.317 670.218 116.963 670.1 116.61C668.805 112.96 668.805 109.191 669.864 105.747C671.425 100.801 675.163 96.6208 680.433 94.7367C682.17 94.1184 683.936 93.7946 685.673 93.7357C692.886 93.5297 699.716 97.9161 702.277 105.07C705.457 113.961 700.835 123.764 691.944 126.943Z" fill="#F89248"/>
<path d="M669.864 105.748L664.418 104.04C666.478 97.4457 671.513 91.8817 678.49 89.3793C680.815 88.555 683.171 88.1134 685.496 88.0546L685.673 93.7658C683.936 93.8247 682.17 94.1485 680.433 94.7667C675.193 96.6214 671.424 100.802 669.864 105.748Z" fill="#FA6C06"/>
<path d="M670.511 117.671L665.271 119.938C665.065 119.467 664.888 118.996 664.712 118.525C662.975 113.667 662.975 108.633 664.417 104.041L669.864 105.748C668.804 109.163 668.774 112.961 670.099 116.611C670.217 116.964 670.364 117.318 670.511 117.671Z" fill="#F89248"/>
<path d="M668.834 125.619C667.42 123.941 666.213 122.057 665.301 119.937L670.541 117.67C671.218 119.26 672.131 120.673 673.19 121.939L668.834 125.619Z" fill="#FA6C06"/>
<path opacity="0.2" d="M387.923 179.432H209.697V185.644H387.923V179.432Z" fill="#7E97C9"/>
<path opacity="0.2" d="M387.923 199.658H209.697V205.869H387.923V199.658Z" fill="#7E97C9"/>
<path opacity="0.2" d="M387.923 219.175H209.697V225.387H387.923V219.175Z" fill="#7E97C9"/>
<path opacity="0.2" d="M387.923 239.401H209.697V245.612H387.923V239.401Z" fill="#7E97C9"/>
<path opacity="0.2" d="M387.923 262.128H209.697V268.34H387.923V262.128Z" fill="#7E97C9"/>
<path opacity="0.2" d="M387.923 282.381H209.697V288.593H387.923V282.381Z" fill="#7E97C9"/>
<path opacity="0.2" d="M387.923 301.871H209.697V308.083H387.923V301.871Z" fill="#7E97C9"/>
<path opacity="0.2" d="M387.923 322.125H209.697V328.336H387.923V322.125Z" fill="#7E97C9"/>
<path d="M173.839 199.422H189.088C191.856 199.422 194.123 197.184 194.123 194.388V179.138C194.123 176.371 191.885 174.104 189.088 174.104H173.839C171.072 174.104 168.805 176.341 168.805 179.138V194.388C168.805 197.155 171.072 199.422 173.839 199.422Z" fill="#FA6C06"/>
<path d="M173.84 278.702H189.089C191.856 278.702 194.123 276.465 194.123 273.668V258.419C194.123 255.651 191.886 253.385 189.089 253.385H173.84C171.072 253.385 168.805 255.622 168.805 258.419V273.668C168.805 276.436 171.072 278.702 173.84 278.702Z" fill="#6C67AB"/>
<path d="M180.61 272.167L173.604 266.073C173.015 265.572 172.956 264.689 173.457 264.13C173.957 263.541 174.84 263.482 175.4 263.983L180.375 268.281L187.44 260.391C187.941 259.832 188.824 259.773 189.383 260.273C189.943 260.774 190.002 261.657 189.501 262.216L180.61 272.167Z" fill="white"/>
<path d="M173.839 238.9H189.089C191.856 238.9 194.123 236.663 194.123 233.866V218.616C194.123 215.849 191.886 213.582 189.089 213.582H173.839C171.072 213.582 168.805 215.82 168.805 218.616V233.866C168.805 236.633 171.072 238.9 173.839 238.9Z" fill="#6C67AB"/>
<path d="M180.609 232.364L173.573 226.27C172.984 225.769 172.925 224.886 173.426 224.327C173.926 223.738 174.81 223.679 175.369 224.18L180.344 228.478L187.41 220.588C187.91 220.029 188.793 219.97 189.353 220.47C189.912 220.971 189.971 221.854 189.47 222.413L180.609 232.364Z" fill="white"/>
<path d="M173.839 318.473H189.088C191.855 318.473 194.122 316.236 194.122 313.439V298.19C194.122 295.422 191.885 293.156 189.088 293.156H173.839C171.071 293.156 168.804 295.393 168.804 298.19V313.439C168.804 316.236 171.071 318.473 173.839 318.473Z" fill="#6C67AB"/>
<path d="M180.609 311.968L173.602 305.874C173.013 305.373 172.955 304.49 173.455 303.931C173.955 303.342 174.839 303.283 175.398 303.784L180.373 308.082L187.439 300.192C187.939 299.633 188.822 299.574 189.382 300.074C189.941 300.575 190 301.458 189.499 302.017L180.609 311.968Z" fill="white"/>
<path d="M178.52 188.706C178.52 188.382 178.55 188.058 178.579 187.764C178.609 187.47 178.697 187.175 178.815 186.91C178.933 186.645 179.109 186.38 179.345 186.115C179.58 185.88 179.875 185.644 180.257 185.438C180.434 185.35 180.699 185.203 180.993 185.056C181.288 184.879 181.612 184.702 181.906 184.496C182.2 184.29 182.465 184.025 182.671 183.76C182.877 183.495 182.995 183.172 182.995 182.818C182.995 182.347 182.819 181.994 182.495 181.729C182.141 181.464 181.759 181.346 181.317 181.346C181.023 181.346 180.787 181.405 180.552 181.493C180.316 181.611 180.14 181.729 179.963 181.876C179.786 182.023 179.639 182.2 179.492 182.377C179.374 182.553 179.256 182.73 179.139 182.877L176.931 181.346C177.313 180.463 177.902 179.786 178.697 179.315C179.492 178.844 180.405 178.579 181.435 178.579C181.965 178.579 182.524 178.667 183.054 178.814C183.584 178.962 184.084 179.227 184.497 179.55C184.938 179.904 185.262 180.345 185.556 180.875C185.821 181.405 185.969 182.082 185.969 182.848C185.969 183.672 185.792 184.349 185.468 184.879C185.144 185.438 184.644 185.909 183.967 186.322C183.672 186.528 183.378 186.704 183.054 186.851C182.76 186.999 182.465 187.175 182.2 187.352C181.935 187.529 181.729 187.705 181.582 187.941C181.435 188.147 181.347 188.412 181.347 188.706H178.52ZM178.579 193.946V190.737H181.376V193.946H178.579Z" fill="white"/>
<path opacity="0.2" d="M416.979 240.079H400.463C399.904 240.079 399.462 239.637 399.462 239.078V235.516C399.462 234.956 399.904 234.515 400.463 234.515H417.008C417.567 234.515 418.009 234.956 418.009 235.516V239.078C418.009 239.637 417.538 240.079 416.979 240.079Z" fill="#7E97C9"/>
<path opacity="0.2" d="M416.979 253.473H400.463C399.904 253.473 399.462 253.031 399.462 252.472V248.91C399.462 248.351 399.904 247.909 400.463 247.909H417.008C417.567 247.909 418.009 248.351 418.009 248.91V252.472C418.009 253.031 417.538 253.473 416.979 253.473Z" fill="#7E97C9"/>
<path opacity="0.2" d="M416.979 266.898H400.463C399.904 266.898 399.462 266.457 399.462 265.897V262.335C399.462 261.776 399.904 261.334 400.463 261.334H417.008C417.567 261.334 418.009 261.776 418.009 262.335V265.897C418.009 266.427 417.538 266.898 416.979 266.898Z" fill="#7E97C9"/>
<path opacity="0.2" d="M416.979 280.293H400.463C399.904 280.293 399.462 279.851 399.462 279.292V275.729C399.462 275.17 399.904 274.729 400.463 274.729H417.008C417.567 274.729 418.009 275.17 418.009 275.729V279.292C418.009 279.851 417.538 280.293 416.979 280.293Z" fill="#7E97C9"/>
<path opacity="0.2" d="M416.979 293.688H400.463C399.904 293.688 399.462 293.246 399.462 292.687V289.125C399.462 288.565 399.904 288.124 400.463 288.124H417.008C417.567 288.124 418.009 288.565 418.009 289.125V292.687C418.009 293.246 417.538 293.688 416.979 293.688Z" fill="#7E97C9"/>
<path opacity="0.2" d="M416.979 307.111H400.463C399.904 307.111 399.462 306.67 399.462 306.11V302.519C399.462 301.96 399.904 301.518 400.463 301.518H417.008C417.567 301.518 418.009 301.96 418.009 302.519V306.081C418.009 306.64 417.538 307.111 416.979 307.111Z" fill="#7E97C9"/>
<path opacity="0.2" d="M429.933 240.079H426.665C426.106 240.079 425.664 239.637 425.664 239.078V235.516C425.664 234.956 426.106 234.515 426.665 234.515H429.933C430.492 234.515 430.934 234.956 430.934 235.516V239.078C430.934 239.637 430.492 240.079 429.933 240.079Z" fill="#7E97C9"/>
<path opacity="0.2" d="M429.933 253.473H426.665C426.106 253.473 425.664 253.031 425.664 252.472V248.91C425.664 248.351 426.106 247.909 426.665 247.909H429.933C430.492 247.909 430.934 248.351 430.934 248.91V252.472C430.934 253.031 430.492 253.473 429.933 253.473Z" fill="#7E97C9"/>
<path opacity="0.2" d="M429.933 266.898H426.665C426.106 266.898 425.664 266.457 425.664 265.897V262.335C425.664 261.776 426.106 261.334 426.665 261.334H429.933C430.492 261.334 430.934 261.776 430.934 262.335V265.897C430.934 266.427 430.492 266.898 429.933 266.898Z" fill="#7E97C9"/>
<path opacity="0.2" d="M429.933 280.293H426.665C426.106 280.293 425.664 279.851 425.664 279.292V275.729C425.664 275.17 426.106 274.729 426.665 274.729H429.933C430.492 274.729 430.934 275.17 430.934 275.729V279.292C430.934 279.851 430.492 280.293 429.933 280.293Z" fill="#7E97C9"/>
<path opacity="0.2" d="M429.933 293.688H426.665C426.106 293.688 425.664 293.246 425.664 292.687V289.125C425.664 288.565 426.106 288.124 426.665 288.124H429.933C430.492 288.124 430.934 288.565 430.934 289.125V292.687C430.934 293.246 430.492 293.688 429.933 293.688Z" fill="#7E97C9"/>
<path opacity="0.2" d="M429.933 307.111H426.665C426.106 307.111 425.664 306.67 425.664 306.11V302.519C425.664 301.96 426.106 301.518 426.665 301.518H429.933C430.492 301.518 430.934 301.96 430.934 302.519V306.081C430.934 306.64 430.492 307.111 429.933 307.111Z" fill="#7E97C9"/>
<path d="M612.397 69.6838L579.072 36.3584L563.234 52.1673L562.38 51.2842L579.072 34.592L613.28 68.8006L612.397 69.6838Z" fill="#6C67AB"/>
<g opacity="0.72">
<mask id="mask0" mask-type="alpha" maskUnits="userSpaceOnUse" x="399" y="46" width="147" height="170">
<g opacity="0.72">
<g opacity="0.72">
<path opacity="0.72" d="M535.355 215.408H410.355C404.614 215.408 399.934 210.757 399.934 204.987V56.4356C399.934 50.6949 404.585 46.014 410.355 46.014H535.355C541.095 46.014 545.776 50.6655 545.776 56.4356V204.987C545.776 210.757 541.125 215.408 535.355 215.408Z" fill="url(#paint0_linear)"/>
</g>
</g>
</mask>
<g mask="url(#mask0)">
<path opacity="0.72" d="M535.355 215.408H410.355C404.614 215.408 399.934 210.757 399.934 204.987V56.4356C399.934 50.6949 404.585 46.014 410.355 46.014H535.355C541.095 46.014 545.776 50.6655 545.776 56.4356V204.987C545.776 210.757 541.125 215.408 535.355 215.408Z" fill="#6C67AB"/>
</g>
</g>
<path opacity="0.72" d="M503.119 40.156H409.148C405.881 40.156 403.26 37.5064 403.26 34.2681V5.94744C403.26 2.67967 405.91 0.0595703 409.148 0.0595703H503.119C506.387 0.0595703 509.007 2.70911 509.007 5.94744V34.2681C509.007 37.5359 506.357 40.156 503.119 40.156Z" fill="#FA6C06"/>
<path d="M488.487 116.286C482.894 100.683 467.997 91.1152 452.277 91.5862C448.479 91.704 444.623 92.4105 440.854 93.7647C429.402 97.8568 421.189 106.983 417.833 117.758C415.507 125.235 415.478 133.478 418.333 141.427C418.628 142.222 418.922 142.987 419.246 143.753C420.747 147.197 422.69 150.288 425.016 153.026C434.76 164.478 450.952 169.336 465.966 163.978C485.308 157 495.405 135.657 488.487 116.286ZM462.787 155.146C451.541 159.179 439.412 155.528 432.081 146.932C430.345 144.871 428.873 142.546 427.754 139.985C427.518 139.425 427.283 138.836 427.077 138.248C424.957 132.301 424.957 126.119 426.723 120.525C429.255 112.459 435.408 105.599 443.975 102.538C446.801 101.537 449.686 101.007 452.542 100.918C464.318 100.565 475.504 107.748 479.685 119.436C484.896 133.949 477.33 149.935 462.787 155.146Z" fill="#6C67AB"/>
<path d="M426.723 120.495L417.832 117.727C421.218 106.953 429.402 97.8265 440.854 93.7344C444.622 92.3802 448.478 91.6737 452.276 91.5559L452.541 100.888C449.685 100.977 446.8 101.506 443.974 102.507C435.407 105.598 429.254 112.428 426.723 120.495Z" fill="#847FC0"/>
<path d="M427.753 139.984L419.186 143.694C418.862 142.928 418.539 142.163 418.274 141.368C415.447 133.419 415.447 125.176 417.773 117.699L426.664 120.466C424.898 126.059 424.898 132.242 427.017 138.188C427.282 138.836 427.518 139.425 427.753 139.984Z" fill="#9792D6"/>
<path d="M424.985 152.995C422.659 150.258 420.687 147.166 419.215 143.722L427.782 140.013C428.9 142.603 430.372 144.929 432.109 146.96L424.985 152.995Z" fill="#ADA8E8"/>
<path d="M520.782 139.042C514.6 136.098 507.417 137.658 502.972 142.398C501.882 143.546 500.97 144.871 500.263 146.372C498.114 150.906 498.379 155.999 500.558 160.121C502.059 162.976 504.473 165.42 507.623 166.892C507.947 167.039 508.241 167.186 508.565 167.304C510.008 167.863 511.48 168.217 512.981 168.334C519.193 168.835 525.346 165.508 528.172 159.561C531.793 151.878 528.496 142.693 520.782 139.042ZM524.639 157.942C522.519 162.417 517.927 164.89 513.246 164.537C512.127 164.448 511.038 164.183 509.949 163.771C509.713 163.683 509.478 163.565 509.242 163.477C506.887 162.358 505.062 160.533 503.943 158.384C502.324 155.293 502.118 151.495 503.737 148.08C504.267 146.961 504.973 145.96 505.768 145.107C509.124 141.544 514.482 140.396 519.134 142.575C524.904 145.254 527.377 152.172 524.639 157.942Z" fill="#6C67AB"/>
<path d="M503.971 158.355L500.556 160.15C498.378 156 498.113 150.936 500.262 146.402C500.968 144.901 501.881 143.576 502.97 142.428L505.767 145.078C504.972 145.931 504.265 146.932 503.736 148.051C502.146 151.436 502.352 155.264 503.971 158.355Z" fill="#6C67AB"/>
<path d="M509.977 163.742L508.564 167.334C508.24 167.216 507.916 167.069 507.622 166.921C504.472 165.42 502.058 163.006 500.556 160.15L503.971 158.355C505.09 160.504 506.915 162.329 509.27 163.448C509.506 163.536 509.741 163.654 509.977 163.742Z" fill="white"/>
<path d="M528.142 112.637C531.086 106.455 529.526 99.2717 524.786 94.8263C523.638 93.7371 522.313 92.8245 520.812 92.1179C516.278 89.9688 511.185 90.2338 507.063 92.4123C504.208 93.9137 501.764 96.3277 500.292 99.4777C500.145 99.8016 499.998 100.096 499.88 100.42C499.321 101.862 498.967 103.334 498.85 104.836C498.349 111.047 501.676 117.2 507.623 120.026C515.306 123.618 524.491 120.321 528.142 112.637ZM509.271 116.494C504.796 114.374 502.324 109.782 502.677 105.101C502.765 103.982 503.03 102.893 503.442 101.803C503.531 101.568 503.648 101.332 503.737 101.097C504.855 98.7418 506.681 96.9165 508.83 95.7978C511.921 94.1787 515.719 93.9726 519.133 95.5918C520.252 96.1217 521.253 96.8282 522.107 97.6231C525.669 100.979 526.817 106.337 524.639 110.989C521.93 116.759 515.041 119.232 509.271 116.494Z" fill="#6C67AB"/>
<path d="M508.83 95.796L507.035 92.3811C511.186 90.2025 516.249 89.9376 520.783 92.0867C522.284 92.7932 523.609 93.7058 524.757 94.7951L522.108 97.5918C521.254 96.7969 520.253 96.0904 519.134 95.5605C515.749 93.9708 511.951 94.1768 508.83 95.796Z" fill="#ADA8E8"/>
<path d="M503.442 101.802L499.851 100.389C499.969 100.065 500.116 99.7411 500.263 99.4467C501.764 96.2967 504.178 93.8826 507.034 92.3812L508.83 95.7962C506.681 96.9149 504.856 98.7401 503.737 101.095C503.649 101.331 503.531 101.566 503.442 101.802Z" fill="#9792D6"/>
<path d="M498.821 104.805C498.939 103.333 499.262 101.831 499.851 100.389L503.443 101.802C503.031 102.891 502.766 103.98 502.677 105.099L498.821 104.805Z" fill="#847FC0"/>
<path d="M509.478 178.521H480.686V177.932H508.889V167.069H509.478V178.521Z" fill="#E2F3FE"/>
<path d="M455.25 178.522H417.803V177.933H454.691V160.151H455.25V178.522Z" fill="#E2F3FE"/>
<path d="M443.563 171.986H417.803V175.43H443.563V171.986Z" fill="url(#paint1_linear)"/>
<path d="M495.847 171.986H480.686V175.43H495.847V171.986Z" fill="url(#paint2_linear)"/>
<path d="M485.984 33.1498C479.125 33.1498 473.531 27.5564 473.531 20.697C473.531 13.8376 479.125 8.24414 485.984 8.24414C492.844 8.24414 498.437 13.8376 498.437 20.697C498.437 27.5564 492.844 33.1498 485.984 33.1498ZM485.984 8.83293C479.449 8.83293 474.12 14.1615 474.12 20.697C474.12 27.2325 479.449 32.5611 485.984 32.5611C492.52 32.5611 497.848 27.2325 497.848 20.697C497.848 14.1615 492.52 8.83293 485.984 8.83293Z" fill="url(#paint3_linear)"/>
<path d="M463.729 10.687H426.812V13.9253H463.729V10.687Z" fill="url(#paint4_linear)"/>
<path d="M463.728 19.0778H432.258V22.3161H463.728V19.0778Z" fill="url(#paint5_linear)"/>
<path d="M463.729 27.4384H413.123V30.6767H463.729V27.4384Z" fill="url(#paint6_linear)"/>
<path d="M424.31 60.5577H411.975V63.2073H424.31V60.5577Z" fill="url(#paint7_linear)"/>
<path d="M482.511 70.4783H463.376V73.1278H482.511V70.4783Z" fill="url(#paint8_linear)"/>
<path d="M450.333 70.4783H438.646V73.1278H450.333V70.4783Z" fill="url(#paint9_linear)"/>
<path d="M435.114 70.4783H411.975V73.1278H435.114V70.4783Z" fill="url(#paint10_linear)"/>
<path d="M446.33 60.5577H428.049V63.2073H446.33V60.5577Z" fill="url(#paint11_linear)"/>
<path d="M458.989 70.4783H453.984V73.1278H458.989V70.4783Z" fill="url(#paint12_linear)"/>
<path d="M482.511 60.7046H468.851V63.3541H482.511V60.7046Z" fill="url(#paint13_linear)"/>
<path d="M498.998 70.4783H487.369V73.1278H498.998V70.4783Z" fill="url(#paint14_linear)"/>
<path d="M465.289 60.7046H450.834V63.3541H465.289V60.7046Z" fill="url(#paint15_linear)"/>
<defs>
<linearGradient id="paint0_linear" x1="472.867" y1="211.032" x2="472.867" y2="73.5443" gradientUnits="userSpaceOnUse">
<stop/>
<stop offset="0.2021" stop-color="white"/>
<stop offset="1" stop-color="white"/>
</linearGradient>
<linearGradient id="paint1_linear" x1="417.811" y1="173.707" x2="443.575" y2="173.707" gradientUnits="userSpaceOnUse">
<stop stop-color="#D5E4FF"/>
<stop offset="1" stop-color="#EDFFFE"/>
</linearGradient>
<linearGradient id="paint2_linear" x1="480.679" y1="173.707" x2="495.832" y2="173.707" gradientUnits="userSpaceOnUse">
<stop stop-color="#D5E4FF"/>
<stop offset="1" stop-color="#EDFFFE"/>
</linearGradient>
<linearGradient id="paint3_linear" x1="473.536" y1="20.6887" x2="498.434" y2="20.6887" gradientUnits="userSpaceOnUse">
<stop stop-color="#D5E4FF"/>
<stop offset="1" stop-color="#EDFFFE"/>
</linearGradient>
<linearGradient id="paint4_linear" x1="426.817" y1="12.3238" x2="463.74" y2="12.3238" gradientUnits="userSpaceOnUse">
<stop stop-color="#D5E4FF"/>
<stop offset="1" stop-color="#EDFFFE"/>
</linearGradient>
<linearGradient id="paint5_linear" x1="432.262" y1="20.6887" x2="463.739" y2="20.6887" gradientUnits="userSpaceOnUse">
<stop stop-color="#D5E4FF"/>
<stop offset="1" stop-color="#EDFFFE"/>
</linearGradient>
<linearGradient id="paint6_linear" x1="413.125" y1="29.0527" x2="463.74" y2="29.0527" gradientUnits="userSpaceOnUse">
<stop stop-color="#D5E4FF"/>
<stop offset="1" stop-color="#EDFFFE"/>
</linearGradient>
<linearGradient id="paint7_linear" x1="411.976" y1="61.8851" x2="424.306" y2="61.8851" gradientUnits="userSpaceOnUse">
<stop stop-color="#D5E4FF"/>
<stop offset="1" stop-color="#EDFFFE"/>
</linearGradient>
<linearGradient id="paint8_linear" x1="463.378" y1="71.8059" x2="482.509" y2="71.8059" gradientUnits="userSpaceOnUse">
<stop stop-color="#D5E4FF"/>
<stop offset="1" stop-color="#EDFFFE"/>
</linearGradient>
<linearGradient id="paint9_linear" x1="438.641" y1="71.8059" x2="450.32" y2="71.8059" gradientUnits="userSpaceOnUse">
<stop stop-color="#D5E4FF"/>
<stop offset="1" stop-color="#EDFFFE"/>
</linearGradient>
<linearGradient id="paint10_linear" x1="411.976" y1="71.8059" x2="435.114" y2="71.8059" gradientUnits="userSpaceOnUse">
<stop stop-color="#D5E4FF"/>
<stop offset="1" stop-color="#EDFFFE"/>
</linearGradient>
<linearGradient id="paint11_linear" x1="428.059" y1="61.8851" x2="446.329" y2="61.8851" gradientUnits="userSpaceOnUse">
<stop stop-color="#D5E4FF"/>
<stop offset="1" stop-color="#EDFFFE"/>
</linearGradient>
<linearGradient id="paint12_linear" x1="453.976" y1="71.8059" x2="458.994" y2="71.8059" gradientUnits="userSpaceOnUse">
<stop stop-color="#D5E4FF"/>
<stop offset="1" stop-color="#EDFFFE"/>
</linearGradient>
<linearGradient id="paint13_linear" x1="468.86" y1="62.0312" x2="482.508" y2="62.0312" gradientUnits="userSpaceOnUse">
<stop stop-color="#D5E4FF"/>
<stop offset="1" stop-color="#EDFFFE"/>
</linearGradient>
<linearGradient id="paint14_linear" x1="487.377" y1="71.8059" x2="499.016" y2="71.8059" gradientUnits="userSpaceOnUse">
<stop stop-color="#D5E4FF"/>
<stop offset="1" stop-color="#EDFFFE"/>
</linearGradient>
<linearGradient id="paint15_linear" x1="450.821" y1="62.0312" x2="465.289" y2="62.0312" gradientUnits="userSpaceOnUse">
<stop stop-color="#D5E4FF"/>
<stop offset="1" stop-color="#EDFFFE"/>
</linearGradient>
</defs>
</svg>
