<svg width="1200" height="108" viewBox="0 0 1200 108" fill="none" xmlns="http://www.w3.org/2000/svg">
<path d="M821 31C821 26.0294 825.029 22 830 22H1191C1195.97 22 1200 26.0294 1200 31V77C1200 81.9706 1195.97 86 1191 86H830C825.029 86 821 81.9706 821 77V31Z" fill="#FA6C06"/>
<path d="M898.295 57.4746L901.518 46.7812H904.779L899.828 61H896.771L891.84 46.7812H895.092L898.295 57.4746Z" fill="#F5F8FF"/>
<path d="M905.053 55.6191C905.053 54.571 905.255 53.6367 905.658 52.8164C906.062 51.9961 906.641 51.3613 907.396 50.9121C908.158 50.4629 909.04 50.2383 910.043 50.2383C911.469 50.2383 912.631 50.6745 913.529 51.5469C914.434 52.4193 914.939 53.6042 915.043 55.1016L915.062 55.8242C915.062 57.4453 914.61 58.7474 913.705 59.7305C912.8 60.707 911.586 61.1953 910.062 61.1953C908.539 61.1953 907.322 60.707 906.41 59.7305C905.505 58.7539 905.053 57.4258 905.053 55.7461V55.6191ZM907.875 55.8242C907.875 56.8268 908.064 57.5951 908.441 58.1289C908.819 58.6562 909.359 58.9199 910.062 58.9199C910.746 58.9199 911.28 58.6595 911.664 58.1387C912.048 57.6113 912.24 56.7715 912.24 55.6191C912.24 54.6361 912.048 53.8743 911.664 53.334C911.28 52.7936 910.74 52.5234 910.043 52.5234C909.353 52.5234 908.819 52.7936 908.441 53.334C908.064 53.8678 907.875 54.6979 907.875 55.8242Z" fill="#F5F8FF"/>
<path d="M919.779 61H916.947V46H919.779V61Z" fill="#F5F8FF"/>
<path d="M928.441 59.9258C927.745 60.7721 926.781 61.1953 925.551 61.1953C924.418 61.1953 923.552 60.8698 922.953 60.2188C922.361 59.5677 922.058 58.6139 922.045 57.3574V50.4336H924.867V57.2598C924.867 58.36 925.368 58.9102 926.371 58.9102C927.328 58.9102 927.986 58.5781 928.344 57.9141V50.4336H931.176V61H928.52L928.441 59.9258Z" fill="#F5F8FF"/>
<path d="M935.951 50.4336L936.039 51.6152C936.788 50.6973 937.8 50.2383 939.076 50.2383C940.437 50.2383 941.371 50.7754 941.879 51.8496C942.621 50.7754 943.679 50.2383 945.053 50.2383C946.199 50.2383 947.051 50.5736 947.611 51.2441C948.171 51.9082 948.451 52.9108 948.451 54.252V61H945.619V54.2617C945.619 53.6628 945.502 53.2266 945.268 52.9531C945.033 52.6732 944.62 52.5332 944.027 52.5332C943.181 52.5332 942.595 52.9368 942.27 53.7441L942.279 61H939.457V54.2715C939.457 53.6595 939.337 53.2168 939.096 52.9434C938.855 52.6699 938.445 52.5332 937.865 52.5332C937.064 52.5332 936.485 52.8652 936.127 53.5293V61H933.305V50.4336H935.951Z" fill="#F5F8FF"/>
<path d="M955.492 61.1953C953.943 61.1953 952.68 60.7201 951.703 59.7695C950.733 58.819 950.248 57.5527 950.248 55.9707V55.6973C950.248 54.6361 950.453 53.6888 950.863 52.8555C951.273 52.0156 951.853 51.3711 952.602 50.9219C953.357 50.4661 954.216 50.2383 955.18 50.2383C956.625 50.2383 957.761 50.694 958.588 51.6055C959.421 52.5169 959.838 53.8092 959.838 55.4824V56.6348H953.109C953.201 57.3249 953.474 57.8783 953.93 58.2949C954.392 58.7116 954.975 58.9199 955.678 58.9199C956.765 58.9199 957.615 58.526 958.227 57.7383L959.613 59.291C959.19 59.89 958.617 60.3587 957.895 60.6973C957.172 61.0293 956.371 61.1953 955.492 61.1953ZM955.17 52.5234C954.61 52.5234 954.154 52.7122 953.803 53.0898C953.458 53.4674 953.236 54.0078 953.139 54.7109H957.064V54.4863C957.051 53.8613 956.882 53.3796 956.557 53.041C956.231 52.696 955.769 52.5234 955.17 52.5234Z" fill="#F5F8FF"/>
<path d="M965.99 55.6191C965.99 54.571 966.192 53.6367 966.596 52.8164C966.999 51.9961 967.579 51.3613 968.334 50.9121C969.096 50.4629 969.978 50.2383 970.98 50.2383C972.406 50.2383 973.568 50.6745 974.467 51.5469C975.372 52.4193 975.876 53.6042 975.98 55.1016L976 55.8242C976 57.4453 975.548 58.7474 974.643 59.7305C973.738 60.707 972.523 61.1953 971 61.1953C969.477 61.1953 968.259 60.707 967.348 59.7305C966.443 58.7539 965.99 57.4258 965.99 55.7461V55.6191ZM968.812 55.8242C968.812 56.8268 969.001 57.5951 969.379 58.1289C969.757 58.6562 970.297 58.9199 971 58.9199C971.684 58.9199 972.217 58.6595 972.602 58.1387C972.986 57.6113 973.178 56.7715 973.178 55.6191C973.178 54.6361 972.986 53.8743 972.602 53.334C972.217 52.7936 971.677 52.5234 970.98 52.5234C970.29 52.5234 969.757 52.7936 969.379 53.334C969.001 53.8678 968.812 54.6979 968.812 55.8242Z" fill="#F5F8FF"/>
<path d="M978.51 61V52.5039H976.938V50.4336H978.51V49.5352C978.51 48.3503 978.848 47.4323 979.525 46.7812C980.209 46.1237 981.163 45.7949 982.387 45.7949C982.777 45.7949 983.256 45.86 983.822 45.9902L983.793 48.1777C983.559 48.1191 983.272 48.0898 982.934 48.0898C981.872 48.0898 981.342 48.5879 981.342 49.584V50.4336H983.441V52.5039H981.342V61H978.51Z" fill="#F5F8FF"/>
<path d="M992.865 61H990.033V50.4336H992.865V61ZM989.867 47.6992C989.867 47.276 990.007 46.9277 990.287 46.6543C990.574 46.3809 990.961 46.2441 991.449 46.2441C991.931 46.2441 992.315 46.3809 992.602 46.6543C992.888 46.9277 993.031 47.276 993.031 47.6992C993.031 48.1289 992.885 48.4805 992.592 48.7539C992.305 49.0273 991.924 49.1641 991.449 49.1641C990.974 49.1641 990.59 49.0273 990.297 48.7539C990.01 48.4805 989.867 48.1289 989.867 47.6992Z" fill="#F5F8FF"/>
<path d="M997.797 50.4336L997.885 51.6543C998.64 50.7103 999.652 50.2383 1000.92 50.2383C1002.04 50.2383 1002.88 50.5671 1003.42 51.2246C1003.97 51.8822 1004.25 52.8652 1004.26 54.1738V61H1001.44V54.2422C1001.44 53.6432 1001.31 53.2103 1001.05 52.9434C1000.79 52.6699 1000.36 52.5332 999.75 52.5332C998.956 52.5332 998.36 52.8717 997.963 53.5488V61H995.141V50.4336H997.797Z" fill="#F5F8FF"/>
<path d="M1010.37 57.5527L1012.33 50.4336H1015.28L1011.71 61H1009.02L1005.45 50.4336H1008.4L1010.37 57.5527Z" fill="#F5F8FF"/>
<path d="M1021.25 61.1953C1019.7 61.1953 1018.44 60.7201 1017.46 59.7695C1016.49 58.819 1016.01 57.5527 1016.01 55.9707V55.6973C1016.01 54.6361 1016.21 53.6888 1016.62 52.8555C1017.04 52.0156 1017.61 51.3711 1018.36 50.9219C1019.12 50.4661 1019.98 50.2383 1020.94 50.2383C1022.39 50.2383 1023.52 50.694 1024.35 51.6055C1025.18 52.5169 1025.6 53.8092 1025.6 55.4824V56.6348H1018.87C1018.96 57.3249 1019.24 57.8783 1019.69 58.2949C1020.15 58.7116 1020.74 58.9199 1021.44 58.9199C1022.53 58.9199 1023.38 58.526 1023.99 57.7383L1025.38 59.291C1024.95 59.89 1024.38 60.3587 1023.66 60.6973C1022.93 61.0293 1022.13 61.1953 1021.25 61.1953ZM1020.93 52.5234C1020.37 52.5234 1019.92 52.7122 1019.56 53.0898C1019.22 53.4674 1019 54.0078 1018.9 54.7109H1022.83V54.4863C1022.81 53.8613 1022.64 53.3796 1022.32 53.041C1021.99 52.696 1021.53 52.5234 1020.93 52.5234Z" fill="#F5F8FF"/>
<path d="M1032.93 58.0801C1032.93 57.735 1032.76 57.4648 1032.42 57.2695C1032.08 57.0677 1031.53 56.8887 1030.78 56.7324C1028.26 56.2051 1027.01 55.1374 1027.01 53.5293C1027.01 52.5918 1027.39 51.8105 1028.17 51.1855C1028.95 50.554 1029.97 50.2383 1031.22 50.2383C1032.57 50.2383 1033.64 50.554 1034.44 51.1855C1035.24 51.8171 1035.65 52.6374 1035.65 53.6465H1032.83C1032.83 53.2428 1032.7 52.9108 1032.44 52.6504C1032.18 52.3835 1031.77 52.25 1031.21 52.25C1030.74 52.25 1030.37 52.3574 1030.11 52.5723C1029.85 52.7871 1029.72 53.0605 1029.72 53.3926C1029.72 53.7051 1029.87 53.959 1030.16 54.1543C1030.46 54.3431 1030.96 54.5091 1031.66 54.6523C1032.37 54.7891 1032.96 54.9453 1033.44 55.1211C1034.93 55.668 1035.68 56.6152 1035.68 57.9629C1035.68 58.9264 1035.26 59.7077 1034.44 60.3066C1033.61 60.8991 1032.54 61.1953 1031.23 61.1953C1030.35 61.1953 1029.56 61.0391 1028.87 60.7266C1028.19 60.4076 1027.65 59.9746 1027.26 59.4277C1026.87 58.8743 1026.67 58.2786 1026.67 57.6406H1029.35C1029.38 58.1419 1029.56 58.526 1029.91 58.793C1030.25 59.0599 1030.71 59.1934 1031.29 59.1934C1031.83 59.1934 1032.24 59.0924 1032.51 58.8906C1032.79 58.6823 1032.93 58.4121 1032.93 58.0801Z" fill="#F5F8FF"/>
<path d="M1040.88 47.8359V50.4336H1042.69V52.5039H1040.88V57.7773C1040.88 58.168 1040.96 58.4479 1041.11 58.6172C1041.26 58.7865 1041.54 58.8711 1041.97 58.8711C1042.28 58.8711 1042.56 58.8483 1042.8 58.8027V60.9414C1042.24 61.1107 1041.67 61.1953 1041.09 61.1953C1039.11 61.1953 1038.1 60.196 1038.06 58.1973V52.5039H1036.52V50.4336H1038.06V47.8359H1040.88Z" fill="#F5F8FF"/>
<path d="M1043.53 55.6191C1043.53 54.571 1043.73 53.6367 1044.13 52.8164C1044.54 51.9961 1045.12 51.3613 1045.87 50.9121C1046.63 50.4629 1047.52 50.2383 1048.52 50.2383C1049.95 50.2383 1051.11 50.6745 1052.01 51.5469C1052.91 52.4193 1053.42 53.6042 1053.52 55.1016L1053.54 55.8242C1053.54 57.4453 1053.09 58.7474 1052.18 59.7305C1051.28 60.707 1050.06 61.1953 1048.54 61.1953C1047.02 61.1953 1045.8 60.707 1044.89 59.7305C1043.98 58.7539 1043.53 57.4258 1043.53 55.7461V55.6191ZM1046.35 55.8242C1046.35 56.8268 1046.54 57.5951 1046.92 58.1289C1047.3 58.6562 1047.84 58.9199 1048.54 58.9199C1049.22 58.9199 1049.76 58.6595 1050.14 58.1387C1050.52 57.6113 1050.72 56.7715 1050.72 55.6191C1050.72 54.6361 1050.52 53.8743 1050.14 53.334C1049.76 52.7936 1049.22 52.5234 1048.52 52.5234C1047.83 52.5234 1047.3 52.7936 1046.92 53.334C1046.54 53.8678 1046.35 54.6979 1046.35 55.8242Z" fill="#F5F8FF"/>
<path d="M1061.21 53.0801C1060.83 53.028 1060.49 53.002 1060.2 53.002C1059.13 53.002 1058.43 53.3633 1058.1 54.0859V61H1055.28V50.4336H1057.94L1058.02 51.6934C1058.59 50.7233 1059.37 50.2383 1060.38 50.2383C1060.69 50.2383 1060.98 50.2806 1061.25 50.3652L1061.21 53.0801Z" fill="#F5F8FF"/>
<path d="M1063.55 51.1465L1062.22 50.375C1062.78 49.4961 1063.07 48.5879 1063.09 47.6504V46H1065.34V47.5137C1065.34 48.0996 1065.17 48.7344 1064.85 49.418C1064.52 50.1016 1064.09 50.6777 1063.55 51.1465Z" fill="#F5F8FF"/>
<path d="M1070.79 58.0801C1070.79 57.735 1070.61 57.4648 1070.27 57.2695C1069.93 57.0677 1069.38 56.8887 1068.63 56.7324C1066.11 56.2051 1064.86 55.1374 1064.86 53.5293C1064.86 52.5918 1065.24 51.8105 1066.02 51.1855C1066.8 50.554 1067.82 50.2383 1069.08 50.2383C1070.42 50.2383 1071.49 50.554 1072.29 51.1855C1073.1 51.8171 1073.5 52.6374 1073.5 53.6465H1070.68C1070.68 53.2428 1070.55 52.9108 1070.29 52.6504C1070.03 52.3835 1069.62 52.25 1069.07 52.25C1068.59 52.25 1068.22 52.3574 1067.96 52.5723C1067.7 52.7871 1067.57 53.0605 1067.57 53.3926C1067.57 53.7051 1067.72 53.959 1068.01 54.1543C1068.31 54.3431 1068.81 54.5091 1069.52 54.6523C1070.22 54.7891 1070.81 54.9453 1071.29 55.1211C1072.78 55.668 1073.53 56.6152 1073.53 57.9629C1073.53 58.9264 1073.12 59.7077 1072.29 60.3066C1071.46 60.8991 1070.39 61.1953 1069.09 61.1953C1068.2 61.1953 1067.41 61.0391 1066.72 60.7266C1066.04 60.4076 1065.5 59.9746 1065.11 59.4277C1064.72 58.8743 1064.53 58.2786 1064.53 57.6406H1067.2C1067.23 58.1419 1067.41 58.526 1067.76 58.793C1068.1 59.0599 1068.57 59.1934 1069.14 59.1934C1069.68 59.1934 1070.09 59.0924 1070.37 58.8906C1070.65 58.6823 1070.79 58.4121 1070.79 58.0801Z" fill="#F5F8FF"/>
<path d="M1090.64 49.1543H1086.28V61H1083.35V49.1543H1079.06V46.7812H1090.64V49.1543Z" fill="#F5F8FF"/>
<path d="M1097.43 53.0801C1097.04 53.028 1096.7 53.002 1096.41 53.002C1095.34 53.002 1094.64 53.3633 1094.31 54.0859V61H1091.49V50.4336H1094.15L1094.23 51.6934C1094.8 50.7233 1095.58 50.2383 1096.59 50.2383C1096.9 50.2383 1097.19 50.2806 1097.46 50.3652L1097.43 53.0801Z" fill="#F5F8FF"/>
<path d="M1104.62 61C1104.49 60.7461 1104.4 60.4303 1104.34 60.0527C1103.66 60.8145 1102.77 61.1953 1101.67 61.1953C1100.64 61.1953 1099.78 60.8958 1099.1 60.2969C1098.42 59.6979 1098.08 58.9427 1098.08 58.0312C1098.08 56.9115 1098.49 56.0521 1099.32 55.4531C1100.15 54.8542 1101.35 54.5514 1102.92 54.5449H1104.22V53.9395C1104.22 53.4512 1104.1 53.0605 1103.84 52.7676C1103.59 52.4746 1103.2 52.3281 1102.66 52.3281C1102.18 52.3281 1101.81 52.4421 1101.54 52.6699C1101.27 52.8978 1101.14 53.2103 1101.14 53.6074H1098.31C1098.31 52.9954 1098.5 52.429 1098.88 51.9082C1099.26 51.3874 1099.79 50.9805 1100.48 50.6875C1101.17 50.388 1101.95 50.2383 1102.81 50.2383C1104.11 50.2383 1105.14 50.5671 1105.9 51.2246C1106.67 51.8757 1107.05 52.7936 1107.05 53.9785V58.5586C1107.06 59.5612 1107.2 60.3197 1107.47 60.834V61H1104.62ZM1102.29 59.0371C1102.71 59.0371 1103.09 58.946 1103.44 58.7637C1103.79 58.5749 1104.05 58.3242 1104.22 58.0117V56.1953H1103.17C1101.76 56.1953 1101 56.6836 1100.91 57.6602L1100.9 57.8262C1100.9 58.1777 1101.03 58.4674 1101.27 58.6953C1101.52 58.9232 1101.86 59.0371 1102.29 59.0371Z" fill="#F5F8FF"/>
<path d="M1108.78 55.6387C1108.78 53.9915 1109.15 52.6797 1109.89 51.7031C1110.63 50.7266 1111.64 50.2383 1112.92 50.2383C1113.95 50.2383 1114.8 50.6224 1115.47 51.3906V46H1118.3V61H1115.76L1115.62 59.877C1114.92 60.7559 1114.01 61.1953 1112.9 61.1953C1111.66 61.1953 1110.66 60.707 1109.91 59.7305C1109.16 58.7474 1108.78 57.3835 1108.78 55.6387ZM1111.61 55.8438C1111.61 56.8333 1111.78 57.5918 1112.12 58.1191C1112.47 58.6465 1112.97 58.9102 1113.63 58.9102C1114.5 58.9102 1115.11 58.5423 1115.47 57.8066V53.6367C1115.12 52.901 1114.51 52.5332 1113.65 52.5332C1112.29 52.5332 1111.61 53.6367 1111.61 55.8438Z" fill="#F5F8FF"/>
<path d="M1125.36 61.1953C1123.81 61.1953 1122.54 60.7201 1121.57 59.7695C1120.6 58.819 1120.11 57.5527 1120.11 55.9707V55.6973C1120.11 54.6361 1120.32 53.6888 1120.73 52.8555C1121.14 52.0156 1121.72 51.3711 1122.46 50.9219C1123.22 50.4661 1124.08 50.2383 1125.04 50.2383C1126.49 50.2383 1127.62 50.694 1128.45 51.6055C1129.28 52.5169 1129.7 53.8092 1129.7 55.4824V56.6348H1122.97C1123.06 57.3249 1123.34 57.8783 1123.79 58.2949C1124.26 58.7116 1124.84 58.9199 1125.54 58.9199C1126.63 58.9199 1127.48 58.526 1128.09 57.7383L1129.48 59.291C1129.05 59.89 1128.48 60.3587 1127.76 60.6973C1127.04 61.0293 1126.23 61.1953 1125.36 61.1953ZM1125.03 52.5234C1124.47 52.5234 1124.02 52.7122 1123.67 53.0898C1123.32 53.4674 1123.1 54.0078 1123 54.7109H1126.93V54.4863C1126.91 53.8613 1126.75 53.3796 1126.42 53.041C1126.09 52.696 1125.63 52.5234 1125.03 52.5234Z" fill="#F5F8FF"/>
<path fill-rule="evenodd" clip-rule="evenodd" d="M798 49H767.5V45H798V49ZM767.5 58.5H798V62.5H767.5V58.5Z" fill="#7E97C9"/>
<path d="M0 9C0 4.02944 4.02944 0 9 0H732C736.971 0 741 4.02944 741 9V99C741 103.971 736.971 108 732 108H9.00001C4.02944 108 0 103.971 0 99V9Z" fill="#7E97C9"/>
<path d="M52.3574 58.5098L56.4199 46.7812H58.4707L53.1973 61H51.5371L46.2734 46.7812H48.3145L52.3574 58.5098Z" fill="#F5F8FF"/>
<path d="M59.1738 55.6191C59.1738 54.584 59.3757 53.653 59.7793 52.8262C60.1895 51.9993 60.7559 51.3613 61.4785 50.9121C62.2077 50.4629 63.0378 50.2383 63.9688 50.2383C65.4076 50.2383 66.5697 50.7363 67.4551 51.7324C68.347 52.7285 68.793 54.0534 68.793 55.707V55.834C68.793 56.8626 68.5944 57.7871 68.1973 58.6074C67.8066 59.4212 67.2435 60.056 66.5078 60.5117C65.7786 60.9674 64.9388 61.1953 63.9883 61.1953C62.556 61.1953 61.3939 60.6973 60.502 59.7012C59.6165 58.7051 59.1738 57.3867 59.1738 55.7461V55.6191ZM60.9902 55.834C60.9902 57.0059 61.2604 57.9466 61.8008 58.6562C62.3477 59.3659 63.0768 59.7207 63.9883 59.7207C64.9062 59.7207 65.6354 59.3626 66.1758 58.6465C66.7161 57.9238 66.9863 56.9147 66.9863 55.6191C66.9863 54.4603 66.7096 53.5228 66.1562 52.8066C65.6094 52.084 64.8802 51.7227 63.9688 51.7227C63.0768 51.7227 62.3574 52.0775 61.8105 52.7871C61.2637 53.4967 60.9902 54.5124 60.9902 55.834Z" fill="#F5F8FF"/>
<path d="M73.0215 61H71.2148V46H73.0215V61Z" fill="#F5F8FF"/>
<path d="M82.4453 59.9551C81.7422 60.7819 80.7103 61.1953 79.3496 61.1953C78.2233 61.1953 77.3639 60.8698 76.7715 60.2188C76.1855 59.5612 75.8893 58.5911 75.8828 57.3086V50.4336H77.6895V57.2598C77.6895 58.8613 78.3405 59.6621 79.6426 59.6621C81.0228 59.6621 81.9408 59.1478 82.3965 58.1191V50.4336H84.2031V61H82.4844L82.4453 59.9551Z" fill="#F5F8FF"/>
<path d="M88.6562 50.4336L88.7051 51.6055C89.4798 50.694 90.5247 50.2383 91.8398 50.2383C93.3177 50.2383 94.3236 50.8047 94.8574 51.9375C95.209 51.4297 95.6647 51.0195 96.2246 50.707C96.791 50.3945 97.4583 50.2383 98.2266 50.2383C100.544 50.2383 101.723 51.4655 101.762 53.9199V61H99.9551V54.0273C99.9551 53.2721 99.7826 52.709 99.4375 52.3379C99.0924 51.9603 98.513 51.7715 97.6992 51.7715C97.0286 51.7715 96.472 51.9733 96.0293 52.377C95.5866 52.7741 95.3294 53.3112 95.2578 53.9883V61H93.4414V54.0762C93.4414 52.5397 92.6895 51.7715 91.1855 51.7715C90.0007 51.7715 89.1901 52.276 88.7539 53.2852V61H86.9473V50.4336H88.6562Z" fill="#F5F8FF"/>
<path d="M108.881 61.1953C107.449 61.1953 106.283 60.7266 105.385 59.7891C104.486 58.8451 104.037 57.5853 104.037 56.0098V55.6777C104.037 54.6296 104.236 53.6953 104.633 52.875C105.036 52.0482 105.596 51.4036 106.312 50.9414C107.035 50.4727 107.816 50.2383 108.656 50.2383C110.03 50.2383 111.098 50.6908 111.859 51.5957C112.621 52.5007 113.002 53.7962 113.002 55.4824V56.2344H105.844C105.87 57.276 106.173 58.1191 106.752 58.7637C107.338 59.4017 108.08 59.7207 108.979 59.7207C109.617 59.7207 110.157 59.5905 110.6 59.3301C111.042 59.0697 111.43 58.7246 111.762 58.2949L112.865 59.1543C111.98 60.515 110.652 61.1953 108.881 61.1953ZM108.656 51.7227C107.927 51.7227 107.315 51.9896 106.82 52.5234C106.326 53.0508 106.02 53.793 105.902 54.75H111.195V54.6133C111.143 53.6953 110.896 52.9857 110.453 52.4844C110.01 51.9766 109.411 51.7227 108.656 51.7227Z" fill="#F5F8FF"/>
<path d="M119.584 55.6191C119.584 54.584 119.786 53.653 120.189 52.8262C120.6 51.9993 121.166 51.3613 121.889 50.9121C122.618 50.4629 123.448 50.2383 124.379 50.2383C125.818 50.2383 126.98 50.7363 127.865 51.7324C128.757 52.7285 129.203 54.0534 129.203 55.707V55.834C129.203 56.8626 129.005 57.7871 128.607 58.6074C128.217 59.4212 127.654 60.056 126.918 60.5117C126.189 60.9674 125.349 61.1953 124.398 61.1953C122.966 61.1953 121.804 60.6973 120.912 59.7012C120.027 58.7051 119.584 57.3867 119.584 55.7461V55.6191ZM121.4 55.834C121.4 57.0059 121.671 57.9466 122.211 58.6562C122.758 59.3659 123.487 59.7207 124.398 59.7207C125.316 59.7207 126.046 59.3626 126.586 58.6465C127.126 57.9238 127.396 56.9147 127.396 55.6191C127.396 54.4603 127.12 53.5228 126.566 52.8066C126.02 52.084 125.29 51.7227 124.379 51.7227C123.487 51.7227 122.768 52.0775 122.221 52.7871C121.674 53.4967 121.4 54.5124 121.4 55.834Z" fill="#F5F8FF"/>
<path d="M132.357 61V51.8301H130.688V50.4336H132.357V49.3496C132.357 48.2168 132.66 47.3411 133.266 46.7227C133.871 46.1042 134.727 45.7949 135.834 45.7949C136.251 45.7949 136.664 45.8503 137.074 45.9609L136.977 47.4258C136.671 47.3672 136.345 47.3379 136 47.3379C135.414 47.3379 134.962 47.5104 134.643 47.8555C134.324 48.194 134.164 48.6823 134.164 49.3203V50.4336H136.42V51.8301H134.164V61H132.357Z" fill="#F5F8FF"/>
<path d="M145.834 47.875V50.4336H147.807V51.8301H145.834V58.3828C145.834 58.806 145.922 59.125 146.098 59.3398C146.273 59.5482 146.573 59.6523 146.996 59.6523C147.204 59.6523 147.491 59.6133 147.855 59.5352V61C147.38 61.1302 146.918 61.1953 146.469 61.1953C145.661 61.1953 145.053 60.9512 144.643 60.4629C144.232 59.9746 144.027 59.2812 144.027 58.3828V51.8301H142.104V50.4336H144.027V47.875H145.834Z" fill="#F5F8FF"/>
<path d="M151.732 51.7129C152.533 50.7298 153.575 50.2383 154.857 50.2383C157.09 50.2383 158.217 51.498 158.236 54.0176V61H156.43V54.0078C156.423 53.2461 156.247 52.6829 155.902 52.3184C155.564 51.9538 155.033 51.7715 154.311 51.7715C153.725 51.7715 153.21 51.9277 152.768 52.2402C152.325 52.5527 151.98 52.9629 151.732 53.4707V61H149.926V46H151.732V51.7129Z" fill="#F5F8FF"/>
<path d="M165.326 61.1953C163.894 61.1953 162.729 60.7266 161.83 59.7891C160.932 58.8451 160.482 57.5853 160.482 56.0098V55.6777C160.482 54.6296 160.681 53.6953 161.078 52.875C161.482 52.0482 162.042 51.4036 162.758 50.9414C163.48 50.4727 164.262 50.2383 165.102 50.2383C166.475 50.2383 167.543 50.6908 168.305 51.5957C169.066 52.5007 169.447 53.7962 169.447 55.4824V56.2344H162.289C162.315 57.276 162.618 58.1191 163.197 58.7637C163.783 59.4017 164.525 59.7207 165.424 59.7207C166.062 59.7207 166.602 59.5905 167.045 59.3301C167.488 59.0697 167.875 58.7246 168.207 58.2949L169.311 59.1543C168.425 60.515 167.097 61.1953 165.326 61.1953ZM165.102 51.7227C164.372 51.7227 163.76 51.9896 163.266 52.5234C162.771 53.0508 162.465 53.793 162.348 54.75H167.641V54.6133C167.589 53.6953 167.341 52.9857 166.898 52.4844C166.456 51.9766 165.857 51.7227 165.102 51.7227Z" fill="#F5F8FF"/>
<path d="M179.213 46.7812L183.861 58.3828L188.51 46.7812H190.941V61H189.066V55.4629L189.242 49.4863L184.574 61H183.139L178.48 49.5156L178.666 55.4629V61H176.791V46.7812H179.213Z" fill="#F5F8FF"/>
<path d="M200.492 61C200.388 60.7917 200.303 60.4206 200.238 59.8867C199.398 60.7591 198.396 61.1953 197.23 61.1953C196.189 61.1953 195.333 60.9023 194.662 60.3164C193.998 59.724 193.666 58.9753 193.666 58.0703C193.666 56.9701 194.083 56.1172 194.916 55.5117C195.756 54.8997 196.934 54.5938 198.451 54.5938H200.209V53.7637C200.209 53.1322 200.02 52.6309 199.643 52.2598C199.265 51.8822 198.708 51.6934 197.973 51.6934C197.328 51.6934 196.788 51.8561 196.352 52.1816C195.915 52.5072 195.697 52.901 195.697 53.3633H193.881C193.881 52.8359 194.066 52.3281 194.438 51.8398C194.815 51.3451 195.323 50.9544 195.961 50.668C196.605 50.3815 197.312 50.2383 198.08 50.2383C199.298 50.2383 200.251 50.5443 200.941 51.1562C201.632 51.7617 201.99 52.5983 202.016 53.666V58.5293C202.016 59.4993 202.139 60.2708 202.387 60.8438V61H200.492ZM197.494 59.623C198.061 59.623 198.598 59.4766 199.105 59.1836C199.613 58.8906 199.981 58.5098 200.209 58.041V55.873H198.793C196.579 55.873 195.473 56.5208 195.473 57.8164C195.473 58.3828 195.661 58.8255 196.039 59.1445C196.417 59.4635 196.902 59.623 197.494 59.623Z" fill="#F5F8FF"/>
<path d="M211 58.1973C211 57.709 210.814 57.3314 210.443 57.0645C210.079 56.791 209.438 56.5566 208.52 56.3613C207.608 56.166 206.882 55.9316 206.342 55.6582C205.808 55.3848 205.411 55.0592 205.15 54.6816C204.896 54.304 204.77 53.8548 204.77 53.334C204.77 52.4681 205.134 51.7357 205.863 51.1367C206.599 50.5378 207.536 50.2383 208.676 50.2383C209.874 50.2383 210.844 50.5475 211.586 51.166C212.335 51.7845 212.709 52.5755 212.709 53.5391H210.893C210.893 53.0443 210.681 52.6178 210.258 52.2598C209.841 51.9017 209.314 51.7227 208.676 51.7227C208.018 51.7227 207.504 51.8659 207.133 52.1523C206.762 52.4388 206.576 52.8132 206.576 53.2754C206.576 53.7116 206.749 54.0404 207.094 54.2617C207.439 54.4831 208.061 54.6947 208.959 54.8965C209.864 55.0983 210.596 55.3392 211.156 55.6191C211.716 55.8991 212.13 56.2376 212.396 56.6348C212.67 57.0254 212.807 57.5039 212.807 58.0703C212.807 59.0143 212.429 59.7728 211.674 60.3457C210.919 60.9121 209.939 61.1953 208.734 61.1953C207.888 61.1953 207.139 61.0456 206.488 60.7461C205.837 60.4466 205.326 60.0299 204.955 59.4961C204.59 58.9557 204.408 58.373 204.408 57.748H206.215C206.247 58.3535 206.488 58.8353 206.938 59.1934C207.393 59.5449 207.992 59.7207 208.734 59.7207C209.418 59.7207 209.965 59.584 210.375 59.3105C210.792 59.0306 211 58.6595 211 58.1973Z" fill="#F5F8FF"/>
<path d="M217.611 47.875V50.4336H219.584V51.8301H217.611V58.3828C217.611 58.806 217.699 59.125 217.875 59.3398C218.051 59.5482 218.35 59.6523 218.773 59.6523C218.982 59.6523 219.268 59.6133 219.633 59.5352V61C219.158 61.1302 218.695 61.1953 218.246 61.1953C217.439 61.1953 216.83 60.9512 216.42 60.4629C216.01 59.9746 215.805 59.2812 215.805 58.3828V51.8301H213.881V50.4336H215.805V47.875H217.611Z" fill="#F5F8FF"/>
<path d="M226.088 61.1953C224.656 61.1953 223.49 60.7266 222.592 59.7891C221.693 58.8451 221.244 57.5853 221.244 56.0098V55.6777C221.244 54.6296 221.443 53.6953 221.84 52.875C222.243 52.0482 222.803 51.4036 223.52 50.9414C224.242 50.4727 225.023 50.2383 225.863 50.2383C227.237 50.2383 228.305 50.6908 229.066 51.5957C229.828 52.5007 230.209 53.7962 230.209 55.4824V56.2344H223.051C223.077 57.276 223.38 58.1191 223.959 58.7637C224.545 59.4017 225.287 59.7207 226.186 59.7207C226.824 59.7207 227.364 59.5905 227.807 59.3301C228.249 59.0697 228.637 58.7246 228.969 58.2949L230.072 59.1543C229.187 60.515 227.859 61.1953 226.088 61.1953ZM225.863 51.7227C225.134 51.7227 224.522 51.9896 224.027 52.5234C223.533 53.0508 223.227 53.793 223.109 54.75H228.402V54.6133C228.35 53.6953 228.103 52.9857 227.66 52.4844C227.217 51.9766 226.618 51.7227 225.863 51.7227Z" fill="#F5F8FF"/>
<path d="M237.416 52.0547C237.143 52.0091 236.846 51.9863 236.527 51.9863C235.342 51.9863 234.538 52.4909 234.115 53.5V61H232.309V50.4336H234.066L234.096 51.6543C234.688 50.7103 235.528 50.2383 236.615 50.2383C236.967 50.2383 237.234 50.2839 237.416 50.375V52.0547Z" fill="#F5F8FF"/>
<path d="M253.764 48.3242H249.193V61H247.328V48.3242H242.768V46.7812H253.764V48.3242Z" fill="#F5F8FF"/>
<path d="M259.955 52.0547C259.682 52.0091 259.385 51.9863 259.066 51.9863C257.882 51.9863 257.077 52.4909 256.654 53.5V61H254.848V50.4336H256.605L256.635 51.6543C257.227 50.7103 258.067 50.2383 259.154 50.2383C259.506 50.2383 259.773 50.2839 259.955 50.375V52.0547Z" fill="#F5F8FF"/>
<path d="M267.758 61C267.654 60.7917 267.569 60.4206 267.504 59.8867C266.664 60.7591 265.661 61.1953 264.496 61.1953C263.454 61.1953 262.598 60.9023 261.928 60.3164C261.264 59.724 260.932 58.9753 260.932 58.0703C260.932 56.9701 261.348 56.1172 262.182 55.5117C263.021 54.8997 264.2 54.5938 265.717 54.5938H267.475V53.7637C267.475 53.1322 267.286 52.6309 266.908 52.2598C266.531 51.8822 265.974 51.6934 265.238 51.6934C264.594 51.6934 264.053 51.8561 263.617 52.1816C263.181 52.5072 262.963 52.901 262.963 53.3633H261.146C261.146 52.8359 261.332 52.3281 261.703 51.8398C262.081 51.3451 262.589 50.9544 263.227 50.668C263.871 50.3815 264.577 50.2383 265.346 50.2383C266.563 50.2383 267.517 50.5443 268.207 51.1562C268.897 51.7617 269.255 52.5983 269.281 53.666V58.5293C269.281 59.4993 269.405 60.2708 269.652 60.8438V61H267.758ZM264.76 59.623C265.326 59.623 265.863 59.4766 266.371 59.1836C266.879 58.8906 267.247 58.5098 267.475 58.041V55.873H266.059C263.845 55.873 262.738 56.5208 262.738 57.8164C262.738 58.3828 262.927 58.8255 263.305 59.1445C263.682 59.4635 264.167 59.623 264.76 59.623Z" fill="#F5F8FF"/>
<path d="M271.674 55.6289C271.674 54.0078 272.058 52.7057 272.826 51.7227C273.594 50.7331 274.6 50.2383 275.844 50.2383C277.081 50.2383 278.061 50.6615 278.783 51.5078V46H280.59V61H278.93L278.842 59.8672C278.119 60.7526 277.113 61.1953 275.824 61.1953C274.6 61.1953 273.601 60.694 272.826 59.6914C272.058 58.6888 271.674 57.3802 271.674 55.7656V55.6289ZM273.48 55.834C273.48 57.0319 273.728 57.9694 274.223 58.6465C274.717 59.3236 275.401 59.6621 276.273 59.6621C277.419 59.6621 278.256 59.1478 278.783 58.1191V53.2656C278.243 52.2695 277.413 51.7715 276.293 51.7715C275.408 51.7715 274.717 52.1133 274.223 52.7969C273.728 53.4805 273.48 54.4928 273.48 55.834Z" fill="#F5F8FF"/>
<path d="M287.787 61.1953C286.355 61.1953 285.189 60.7266 284.291 59.7891C283.393 58.8451 282.943 57.5853 282.943 56.0098V55.6777C282.943 54.6296 283.142 53.6953 283.539 52.875C283.943 52.0482 284.503 51.4036 285.219 50.9414C285.941 50.4727 286.723 50.2383 287.562 50.2383C288.936 50.2383 290.004 50.6908 290.766 51.5957C291.527 52.5007 291.908 53.7962 291.908 55.4824V56.2344H284.75C284.776 57.276 285.079 58.1191 285.658 58.7637C286.244 59.4017 286.986 59.7207 287.885 59.7207C288.523 59.7207 289.063 59.5905 289.506 59.3301C289.949 59.0697 290.336 58.7246 290.668 58.2949L291.771 59.1543C290.886 60.515 289.558 61.1953 287.787 61.1953ZM287.562 51.7227C286.833 51.7227 286.221 51.9896 285.727 52.5234C285.232 53.0508 284.926 53.793 284.809 54.75H290.102V54.6133C290.049 53.6953 289.802 52.9857 289.359 52.4844C288.917 51.9766 288.318 51.7227 287.562 51.7227Z" fill="#F5F8FF"/>
<path fill-rule="evenodd" clip-rule="evenodd" d="M311.233 54.5002L308.211 50.6141L309.79 49.3862L312.5 52.8713L315.211 49.3862L316.79 50.6141L313.767 54.5002L316.79 58.3862L315.211 59.6141L312.5 56.129L309.79 59.6141L308.211 58.3862L311.233 54.5002Z" fill="#F5F8FF"/>
<path fill-rule="evenodd" clip-rule="evenodd" d="M695.5 56H330V54H695.5V56Z" fill="#F5F8FF"/>
<path d="M427.65 40V25.7812H432.299C433.842 25.7812 435.001 26.1003 435.775 26.7383C436.557 27.3763 436.947 28.3203 436.947 29.5703C436.947 30.2344 436.758 30.8236 436.381 31.3379C436.003 31.8457 435.489 32.2396 434.838 32.5195C435.606 32.7344 436.212 33.1445 436.654 33.75C437.104 34.349 437.328 35.0651 437.328 35.8984C437.328 37.1745 436.915 38.1771 436.088 38.9062C435.261 39.6354 434.092 40 432.582 40H427.65ZM429.525 33.3496V38.4668H432.621C433.493 38.4668 434.18 38.2422 434.682 37.793C435.189 37.3372 435.443 36.7122 435.443 35.918C435.443 34.2057 434.512 33.3496 432.65 33.3496H429.525ZM429.525 31.8457H432.357C433.178 31.8457 433.832 31.6406 434.32 31.2305C434.815 30.8203 435.062 30.2637 435.062 29.5605C435.062 28.7793 434.835 28.2129 434.379 27.8613C433.923 27.5033 433.23 27.3242 432.299 27.3242H429.525V31.8457Z" fill="#F5F8FF"/>
<path d="M446.352 40C446.247 39.7917 446.163 39.4206 446.098 38.8867C445.258 39.7591 444.255 40.1953 443.09 40.1953C442.048 40.1953 441.192 39.9023 440.521 39.3164C439.857 38.724 439.525 37.9753 439.525 37.0703C439.525 35.9701 439.942 35.1172 440.775 34.5117C441.615 33.8997 442.794 33.5938 444.311 33.5938H446.068V32.7637C446.068 32.1322 445.88 31.6309 445.502 31.2598C445.124 30.8822 444.568 30.6934 443.832 30.6934C443.188 30.6934 442.647 30.8561 442.211 31.1816C441.775 31.5072 441.557 31.901 441.557 32.3633H439.74C439.74 31.8359 439.926 31.3281 440.297 30.8398C440.674 30.3451 441.182 29.9544 441.82 29.668C442.465 29.3815 443.171 29.2383 443.939 29.2383C445.157 29.2383 446.111 29.5443 446.801 30.1562C447.491 30.7617 447.849 31.5983 447.875 32.666V37.5293C447.875 38.4993 447.999 39.2708 448.246 39.8438V40H446.352ZM443.354 38.623C443.92 38.623 444.457 38.4766 444.965 38.1836C445.473 37.8906 445.84 37.5098 446.068 37.041V34.873H444.652C442.439 34.873 441.332 35.5208 441.332 36.8164C441.332 37.3828 441.521 37.8255 441.898 38.1445C442.276 38.4635 442.761 38.623 443.354 38.623Z" fill="#F5F8FF"/>
<path d="M452.67 40H450.863V25H452.67V40Z" fill="#F5F8FF"/>
<path d="M462.094 40C461.99 39.7917 461.905 39.4206 461.84 38.8867C461 39.7591 459.997 40.1953 458.832 40.1953C457.79 40.1953 456.934 39.9023 456.264 39.3164C455.6 38.724 455.268 37.9753 455.268 37.0703C455.268 35.9701 455.684 35.1172 456.518 34.5117C457.357 33.8997 458.536 33.5938 460.053 33.5938H461.811V32.7637C461.811 32.1322 461.622 31.6309 461.244 31.2598C460.867 30.8822 460.31 30.6934 459.574 30.6934C458.93 30.6934 458.389 30.8561 457.953 31.1816C457.517 31.5072 457.299 31.901 457.299 32.3633H455.482C455.482 31.8359 455.668 31.3281 456.039 30.8398C456.417 30.3451 456.924 29.9544 457.562 29.668C458.207 29.3815 458.913 29.2383 459.682 29.2383C460.899 29.2383 461.853 29.5443 462.543 30.1562C463.233 30.7617 463.591 31.5983 463.617 32.666V37.5293C463.617 38.4993 463.741 39.2708 463.988 39.8438V40H462.094ZM459.096 38.623C459.662 38.623 460.199 38.4766 460.707 38.1836C461.215 37.8906 461.583 37.5098 461.811 37.041V34.873H460.395C458.181 34.873 457.074 35.5208 457.074 36.8164C457.074 37.3828 457.263 37.8255 457.641 38.1445C458.018 38.4635 458.503 38.623 459.096 38.623Z" fill="#F5F8FF"/>
<path d="M468.158 29.4336L468.217 30.7617C469.024 29.7461 470.079 29.2383 471.381 29.2383C473.614 29.2383 474.74 30.498 474.76 33.0176V40H472.953V33.0078C472.947 32.2461 472.771 31.6829 472.426 31.3184C472.087 30.9538 471.557 30.7715 470.834 30.7715C470.248 30.7715 469.734 30.9277 469.291 31.2402C468.848 31.5527 468.503 31.9629 468.256 32.4707V40H466.449V29.4336H468.158Z" fill="#F5F8FF"/>
<path d="M481.723 38.7207C482.367 38.7207 482.93 38.5254 483.412 38.1348C483.894 37.7441 484.161 37.2559 484.213 36.6699H485.922C485.889 37.2754 485.681 37.8516 485.297 38.3984C484.913 38.9453 484.398 39.3815 483.754 39.707C483.116 40.0326 482.439 40.1953 481.723 40.1953C480.284 40.1953 479.138 39.7168 478.285 38.7598C477.439 37.7962 477.016 36.4811 477.016 34.8145V34.5117C477.016 33.4831 477.204 32.5684 477.582 31.7676C477.96 30.9668 478.5 30.3451 479.203 29.9023C479.913 29.4596 480.749 29.2383 481.713 29.2383C482.898 29.2383 483.881 29.5931 484.662 30.3027C485.45 31.0124 485.87 31.9336 485.922 33.0664H484.213C484.161 32.3828 483.9 31.8229 483.432 31.3867C482.969 30.944 482.396 30.7227 481.713 30.7227C480.795 30.7227 480.082 31.0547 479.574 31.7188C479.073 32.3763 478.822 33.3301 478.822 34.5801V34.9219C478.822 36.1393 479.073 37.0768 479.574 37.7344C480.076 38.3919 480.792 38.7207 481.723 38.7207Z" fill="#F5F8FF"/>
<path d="M492.338 40.1953C490.906 40.1953 489.74 39.7266 488.842 38.7891C487.943 37.8451 487.494 36.5853 487.494 35.0098V34.6777C487.494 33.6296 487.693 32.6953 488.09 31.875C488.493 31.0482 489.053 30.4036 489.77 29.9414C490.492 29.4727 491.273 29.2383 492.113 29.2383C493.487 29.2383 494.555 29.6908 495.316 30.5957C496.078 31.5007 496.459 32.7962 496.459 34.4824V35.2344H489.301C489.327 36.276 489.63 37.1191 490.209 37.7637C490.795 38.4017 491.537 38.7207 492.436 38.7207C493.074 38.7207 493.614 38.5905 494.057 38.3301C494.499 38.0697 494.887 37.7246 495.219 37.2949L496.322 38.1543C495.437 39.515 494.109 40.1953 492.338 40.1953ZM492.113 30.7227C491.384 30.7227 490.772 30.9896 490.277 31.5234C489.783 32.0508 489.477 32.793 489.359 33.75H494.652V33.6133C494.6 32.6953 494.353 31.9857 493.91 31.4844C493.467 30.9766 492.868 30.7227 492.113 30.7227Z" fill="#F5F8FF"/>
<path d="M503.041 34.6191C503.041 33.584 503.243 32.653 503.646 31.8262C504.057 30.9993 504.623 30.3613 505.346 29.9121C506.075 29.4629 506.905 29.2383 507.836 29.2383C509.275 29.2383 510.437 29.7363 511.322 30.7324C512.214 31.7285 512.66 33.0534 512.66 34.707V34.834C512.66 35.8626 512.462 36.7871 512.064 37.6074C511.674 38.4212 511.111 39.056 510.375 39.5117C509.646 39.9674 508.806 40.1953 507.855 40.1953C506.423 40.1953 505.261 39.6973 504.369 38.7012C503.484 37.7051 503.041 36.3867 503.041 34.7461V34.6191ZM504.857 34.834C504.857 36.0059 505.128 36.9466 505.668 37.6562C506.215 38.3659 506.944 38.7207 507.855 38.7207C508.773 38.7207 509.503 38.3626 510.043 37.6465C510.583 36.9238 510.854 35.9147 510.854 34.6191C510.854 33.4603 510.577 32.5228 510.023 31.8066C509.477 31.084 508.747 30.7227 507.836 30.7227C506.944 30.7227 506.225 31.0775 505.678 31.7871C505.131 32.4967 504.857 33.5124 504.857 34.834Z" fill="#F5F8FF"/>
<path d="M515.814 40V30.8301H514.145V29.4336H515.814V28.3496C515.814 27.2168 516.117 26.3411 516.723 25.7227C517.328 25.1042 518.184 24.7949 519.291 24.7949C519.708 24.7949 520.121 24.8503 520.531 24.9609L520.434 26.4258C520.128 26.3672 519.802 26.3379 519.457 26.3379C518.871 26.3379 518.419 26.5104 518.1 26.8555C517.781 27.194 517.621 27.6823 517.621 28.3203V29.4336H519.877V30.8301H517.621V40H515.814Z" fill="#F5F8FF"/>
<path d="M529.135 40H527.26V25.7812H529.135V40Z" fill="#F5F8FF"/>
<path d="M533.998 29.4336L534.057 30.7617C534.864 29.7461 535.919 29.2383 537.221 29.2383C539.454 29.2383 540.58 30.498 540.6 33.0176V40H538.793V33.0078C538.786 32.2461 538.611 31.6829 538.266 31.3184C537.927 30.9538 537.396 30.7715 536.674 30.7715C536.088 30.7715 535.574 30.9277 535.131 31.2402C534.688 31.5527 534.343 31.9629 534.096 32.4707V40H532.289V29.4336H533.998Z" fill="#F5F8FF"/>
<path d="M546.811 37.5488L549.428 29.4336H551.273L547.484 40H546.107L542.279 29.4336H544.125L546.811 37.5488Z" fill="#F5F8FF"/>
<path d="M557.26 40.1953C555.827 40.1953 554.662 39.7266 553.764 38.7891C552.865 37.8451 552.416 36.5853 552.416 35.0098V34.6777C552.416 33.6296 552.615 32.6953 553.012 31.875C553.415 31.0482 553.975 30.4036 554.691 29.9414C555.414 29.4727 556.195 29.2383 557.035 29.2383C558.409 29.2383 559.477 29.6908 560.238 30.5957C561 31.5007 561.381 32.7962 561.381 34.4824V35.2344H554.223C554.249 36.276 554.551 37.1191 555.131 37.7637C555.717 38.4017 556.459 38.7207 557.357 38.7207C557.995 38.7207 558.536 38.5905 558.979 38.3301C559.421 38.0697 559.809 37.7246 560.141 37.2949L561.244 38.1543C560.359 39.515 559.031 40.1953 557.26 40.1953ZM557.035 30.7227C556.306 30.7227 555.694 30.9896 555.199 31.5234C554.704 32.0508 554.398 32.793 554.281 33.75H559.574V33.6133C559.522 32.6953 559.275 31.9857 558.832 31.4844C558.389 30.9766 557.79 30.7227 557.035 30.7227Z" fill="#F5F8FF"/>
<path d="M569.633 37.1973C569.633 36.709 569.447 36.3314 569.076 36.0645C568.712 35.791 568.07 35.5566 567.152 35.3613C566.241 35.166 565.515 34.9316 564.975 34.6582C564.441 34.3848 564.044 34.0592 563.783 33.6816C563.529 33.304 563.402 32.8548 563.402 32.334C563.402 31.4681 563.767 30.7357 564.496 30.1367C565.232 29.5378 566.169 29.2383 567.309 29.2383C568.507 29.2383 569.477 29.5475 570.219 30.166C570.967 30.7845 571.342 31.5755 571.342 32.5391H569.525C569.525 32.0443 569.314 31.6178 568.891 31.2598C568.474 30.9017 567.947 30.7227 567.309 30.7227C566.651 30.7227 566.137 30.8659 565.766 31.1523C565.395 31.4388 565.209 31.8132 565.209 32.2754C565.209 32.7116 565.382 33.0404 565.727 33.2617C566.072 33.4831 566.693 33.6947 567.592 33.8965C568.497 34.0983 569.229 34.3392 569.789 34.6191C570.349 34.8991 570.762 35.2376 571.029 35.6348C571.303 36.0254 571.439 36.5039 571.439 37.0703C571.439 38.0143 571.062 38.7728 570.307 39.3457C569.551 39.9121 568.572 40.1953 567.367 40.1953C566.521 40.1953 565.772 40.0456 565.121 39.7461C564.47 39.4466 563.959 39.0299 563.588 38.4961C563.223 37.9557 563.041 37.373 563.041 36.748H564.848C564.88 37.3535 565.121 37.8353 565.57 38.1934C566.026 38.5449 566.625 38.7207 567.367 38.7207C568.051 38.7207 568.598 38.584 569.008 38.3105C569.424 38.0306 569.633 37.6595 569.633 37.1973Z" fill="#F5F8FF"/>
<path d="M576.244 26.875V29.4336H578.217V30.8301H576.244V37.3828C576.244 37.806 576.332 38.125 576.508 38.3398C576.684 38.5482 576.983 38.6523 577.406 38.6523C577.615 38.6523 577.901 38.6133 578.266 38.5352V40C577.79 40.1302 577.328 40.1953 576.879 40.1953C576.072 40.1953 575.463 39.9512 575.053 39.4629C574.643 38.9746 574.438 38.2812 574.438 37.3828V30.8301H572.514V29.4336H574.438V26.875H576.244Z" fill="#F5F8FF"/>
<path d="M579.662 34.6191C579.662 33.584 579.864 32.653 580.268 31.8262C580.678 30.9993 581.244 30.3613 581.967 29.9121C582.696 29.4629 583.526 29.2383 584.457 29.2383C585.896 29.2383 587.058 29.7363 587.943 30.7324C588.835 31.7285 589.281 33.0534 589.281 34.707V34.834C589.281 35.8626 589.083 36.7871 588.686 37.6074C588.295 38.4212 587.732 39.056 586.996 39.5117C586.267 39.9674 585.427 40.1953 584.477 40.1953C583.044 40.1953 581.882 39.6973 580.99 38.7012C580.105 37.7051 579.662 36.3867 579.662 34.7461V34.6191ZM581.479 34.834C581.479 36.0059 581.749 36.9466 582.289 37.6562C582.836 38.3659 583.565 38.7207 584.477 38.7207C585.395 38.7207 586.124 38.3626 586.664 37.6465C587.204 36.9238 587.475 35.9147 587.475 34.6191C587.475 33.4603 587.198 32.5228 586.645 31.8066C586.098 31.084 585.368 30.7227 584.457 30.7227C583.565 30.7227 582.846 31.0775 582.299 31.7871C581.752 32.4967 581.479 33.5124 581.479 34.834Z" fill="#F5F8FF"/>
<path d="M596.654 31.0547C596.381 31.0091 596.085 30.9863 595.766 30.9863C594.581 30.9863 593.777 31.4909 593.354 32.5V40H591.547V29.4336H593.305L593.334 30.6543C593.926 29.7103 594.766 29.2383 595.854 29.2383C596.205 29.2383 596.472 29.2839 596.654 29.375V31.0547Z" fill="#F5F8FF"/>
<path d="M345.84 75.6621C344.232 75.1999 343.06 74.6335 342.324 73.9629C341.595 73.2858 341.23 72.4525 341.23 71.4629C341.23 70.3431 341.676 69.4186 342.568 68.6895C343.467 67.9538 344.632 67.5859 346.064 67.5859C347.041 67.5859 347.91 67.7747 348.672 68.1523C349.44 68.5299 350.033 69.0508 350.449 69.7148C350.872 70.3789 351.084 71.1048 351.084 71.8926H349.199C349.199 71.0332 348.926 70.3594 348.379 69.8711C347.832 69.3763 347.061 69.1289 346.064 69.1289C345.14 69.1289 344.417 69.334 343.896 69.7441C343.382 70.1478 343.125 70.7109 343.125 71.4336C343.125 72.013 343.369 72.5046 343.857 72.9082C344.352 73.3053 345.189 73.6699 346.367 74.002C347.552 74.334 348.477 74.7018 349.141 75.1055C349.811 75.5026 350.306 75.9681 350.625 76.502C350.951 77.0358 351.113 77.6641 351.113 78.3867C351.113 79.5391 350.664 80.4635 349.766 81.1602C348.867 81.8503 347.666 82.1953 346.162 82.1953C345.186 82.1953 344.274 82.0098 343.428 81.6387C342.581 81.2611 341.927 80.7467 341.465 80.0957C341.009 79.4447 340.781 78.7057 340.781 77.8789H342.666C342.666 78.7383 342.982 79.4186 343.613 79.9199C344.251 80.4147 345.101 80.6621 346.162 80.6621C347.152 80.6621 347.91 80.4603 348.438 80.0566C348.965 79.653 349.229 79.1029 349.229 78.4062C349.229 77.7096 348.984 77.1725 348.496 76.7949C348.008 76.4108 347.122 76.0332 345.84 75.6621Z" fill="#F5F8FF"/>
<path d="M359.766 80.9551C359.062 81.7819 358.031 82.1953 356.67 82.1953C355.544 82.1953 354.684 81.8698 354.092 81.2188C353.506 80.5612 353.21 79.5911 353.203 78.3086V71.4336H355.01V78.2598C355.01 79.8613 355.661 80.6621 356.963 80.6621C358.343 80.6621 359.261 80.1478 359.717 79.1191V71.4336H361.523V82H359.805L359.766 80.9551Z" fill="#F5F8FF"/>
<path d="M365.977 71.4336L366.025 72.6055C366.8 71.694 367.845 71.2383 369.16 71.2383C370.638 71.2383 371.644 71.8047 372.178 72.9375C372.529 72.4297 372.985 72.0195 373.545 71.707C374.111 71.3945 374.779 71.2383 375.547 71.2383C377.865 71.2383 379.043 72.4655 379.082 74.9199V82H377.275V75.0273C377.275 74.2721 377.103 73.709 376.758 73.3379C376.413 72.9603 375.833 72.7715 375.02 72.7715C374.349 72.7715 373.792 72.9733 373.35 73.377C372.907 73.7741 372.65 74.3112 372.578 74.9883V82H370.762V75.0762C370.762 73.5397 370.01 72.7715 368.506 72.7715C367.321 72.7715 366.51 73.276 366.074 74.2852V82H364.268V71.4336H365.977Z" fill="#F5F8FF"/>
<path d="M386.299 76.6191C386.299 75.584 386.501 74.653 386.904 73.8262C387.314 72.9993 387.881 72.3613 388.604 71.9121C389.333 71.4629 390.163 71.2383 391.094 71.2383C392.533 71.2383 393.695 71.7363 394.58 72.7324C395.472 73.7285 395.918 75.0534 395.918 76.707V76.834C395.918 77.8626 395.719 78.7871 395.322 79.6074C394.932 80.4212 394.368 81.056 393.633 81.5117C392.904 81.9674 392.064 82.1953 391.113 82.1953C389.681 82.1953 388.519 81.6973 387.627 80.7012C386.742 79.7051 386.299 78.3867 386.299 76.7461V76.6191ZM388.115 76.834C388.115 78.0059 388.385 78.9466 388.926 79.6562C389.473 80.3659 390.202 80.7207 391.113 80.7207C392.031 80.7207 392.76 80.3626 393.301 79.6465C393.841 78.9238 394.111 77.9147 394.111 76.6191C394.111 75.4603 393.835 74.5228 393.281 73.8066C392.734 73.084 392.005 72.7227 391.094 72.7227C390.202 72.7227 389.482 73.0775 388.936 73.7871C388.389 74.4967 388.115 75.5124 388.115 76.834Z" fill="#F5F8FF"/>
<path d="M399.072 82V72.8301H397.402V71.4336H399.072V70.3496C399.072 69.2168 399.375 68.3411 399.98 67.7227C400.586 67.1042 401.442 66.7949 402.549 66.7949C402.965 66.7949 403.379 66.8503 403.789 66.9609L403.691 68.4258C403.385 68.3672 403.06 68.3379 402.715 68.3379C402.129 68.3379 401.676 68.5104 401.357 68.8555C401.038 69.194 400.879 69.6823 400.879 70.3203V71.4336H403.135V72.8301H400.879V82H399.072Z" fill="#F5F8FF"/>
<path d="M410.381 82V67.7812H415.029C416.572 67.7812 417.731 68.1003 418.506 68.7383C419.287 69.3763 419.678 70.3203 419.678 71.5703C419.678 72.2344 419.489 72.8236 419.111 73.3379C418.734 73.8457 418.219 74.2396 417.568 74.5195C418.337 74.7344 418.942 75.1445 419.385 75.75C419.834 76.349 420.059 77.0651 420.059 77.8984C420.059 79.1745 419.645 80.1771 418.818 80.9062C417.992 81.6354 416.823 82 415.312 82H410.381ZM412.256 75.3496V80.4668H415.352C416.224 80.4668 416.911 80.2422 417.412 79.793C417.92 79.3372 418.174 78.7122 418.174 77.918C418.174 76.2057 417.243 75.3496 415.381 75.3496H412.256ZM412.256 73.8457H415.088C415.908 73.8457 416.562 73.6406 417.051 73.2305C417.546 72.8203 417.793 72.2637 417.793 71.5605C417.793 70.7793 417.565 70.2129 417.109 69.8613C416.654 69.5033 415.96 69.3242 415.029 69.3242H412.256V73.8457Z" fill="#F5F8FF"/>
<path d="M429.082 82C428.978 81.7917 428.893 81.4206 428.828 80.8867C427.988 81.7591 426.986 82.1953 425.82 82.1953C424.779 82.1953 423.923 81.9023 423.252 81.3164C422.588 80.724 422.256 79.9753 422.256 79.0703C422.256 77.9701 422.673 77.1172 423.506 76.5117C424.346 75.8997 425.524 75.5938 427.041 75.5938H428.799V74.7637C428.799 74.1322 428.61 73.6309 428.232 73.2598C427.855 72.8822 427.298 72.6934 426.562 72.6934C425.918 72.6934 425.378 72.8561 424.941 73.1816C424.505 73.5072 424.287 73.901 424.287 74.3633H422.471C422.471 73.8359 422.656 73.3281 423.027 72.8398C423.405 72.3451 423.913 71.9544 424.551 71.668C425.195 71.3815 425.902 71.2383 426.67 71.2383C427.887 71.2383 428.841 71.5443 429.531 72.1562C430.221 72.7617 430.579 73.5983 430.605 74.666V79.5293C430.605 80.4993 430.729 81.2708 430.977 81.8438V82H429.082ZM426.084 80.623C426.65 80.623 427.188 80.4766 427.695 80.1836C428.203 79.8906 428.571 79.5098 428.799 79.041V76.873H427.383C425.169 76.873 424.062 77.5208 424.062 78.8164C424.062 79.3828 424.251 79.8255 424.629 80.1445C425.007 80.4635 425.492 80.623 426.084 80.623Z" fill="#F5F8FF"/>
<path d="M435.4 82H433.594V67H435.4V82Z" fill="#F5F8FF"/>
<path d="M444.824 82C444.72 81.7917 444.635 81.4206 444.57 80.8867C443.73 81.7591 442.728 82.1953 441.562 82.1953C440.521 82.1953 439.665 81.9023 438.994 81.3164C438.33 80.724 437.998 79.9753 437.998 79.0703C437.998 77.9701 438.415 77.1172 439.248 76.5117C440.088 75.8997 441.266 75.5938 442.783 75.5938H444.541V74.7637C444.541 74.1322 444.352 73.6309 443.975 73.2598C443.597 72.8822 443.04 72.6934 442.305 72.6934C441.66 72.6934 441.12 72.8561 440.684 73.1816C440.247 73.5072 440.029 73.901 440.029 74.3633H438.213C438.213 73.8359 438.398 73.3281 438.77 72.8398C439.147 72.3451 439.655 71.9544 440.293 71.668C440.938 71.3815 441.644 71.2383 442.412 71.2383C443.63 71.2383 444.583 71.5443 445.273 72.1562C445.964 72.7617 446.322 73.5983 446.348 74.666V79.5293C446.348 80.4993 446.471 81.2708 446.719 81.8438V82H444.824ZM441.826 80.623C442.393 80.623 442.93 80.4766 443.438 80.1836C443.945 79.8906 444.313 79.5098 444.541 79.041V76.873H443.125C440.911 76.873 439.805 77.5208 439.805 78.8164C439.805 79.3828 439.993 79.8255 440.371 80.1445C440.749 80.4635 441.234 80.623 441.826 80.623Z" fill="#F5F8FF"/>
<path d="M450.889 71.4336L450.947 72.7617C451.755 71.7461 452.809 71.2383 454.111 71.2383C456.344 71.2383 457.471 72.498 457.49 75.0176V82H455.684V75.0078C455.677 74.2461 455.501 73.6829 455.156 73.3184C454.818 72.9538 454.287 72.7715 453.564 72.7715C452.979 72.7715 452.464 72.9277 452.021 73.2402C451.579 73.5527 451.234 73.9629 450.986 74.4707V82H449.18V71.4336H450.889Z" fill="#F5F8FF"/>
<path d="M464.453 80.7207C465.098 80.7207 465.661 80.5254 466.143 80.1348C466.624 79.7441 466.891 79.2559 466.943 78.6699H468.652C468.62 79.2754 468.411 79.8516 468.027 80.3984C467.643 80.9453 467.129 81.3815 466.484 81.707C465.846 82.0326 465.169 82.1953 464.453 82.1953C463.014 82.1953 461.868 81.7168 461.016 80.7598C460.169 79.7962 459.746 78.4811 459.746 76.8145V76.5117C459.746 75.4831 459.935 74.5684 460.312 73.7676C460.69 72.9668 461.23 72.3451 461.934 71.9023C462.643 71.4596 463.48 71.2383 464.443 71.2383C465.628 71.2383 466.611 71.5931 467.393 72.3027C468.18 73.0124 468.6 73.9336 468.652 75.0664H466.943C466.891 74.3828 466.631 73.8229 466.162 73.3867C465.7 72.944 465.127 72.7227 464.443 72.7227C463.525 72.7227 462.812 73.0547 462.305 73.7188C461.803 74.3763 461.553 75.3301 461.553 76.5801V76.9219C461.553 78.1393 461.803 79.0768 462.305 79.7344C462.806 80.3919 463.522 80.7207 464.453 80.7207Z" fill="#F5F8FF"/>
<path d="M475.068 82.1953C473.636 82.1953 472.471 81.7266 471.572 80.7891C470.674 79.8451 470.225 78.5853 470.225 77.0098V76.6777C470.225 75.6296 470.423 74.6953 470.82 73.875C471.224 73.0482 471.784 72.4036 472.5 71.9414C473.223 71.4727 474.004 71.2383 474.844 71.2383C476.217 71.2383 477.285 71.6908 478.047 72.5957C478.809 73.5007 479.189 74.7962 479.189 76.4824V77.2344H472.031C472.057 78.276 472.36 79.1191 472.939 79.7637C473.525 80.4017 474.268 80.7207 475.166 80.7207C475.804 80.7207 476.344 80.5905 476.787 80.3301C477.23 80.0697 477.617 79.7246 477.949 79.2949L479.053 80.1543C478.167 81.515 476.839 82.1953 475.068 82.1953ZM474.844 72.7227C474.115 72.7227 473.503 72.9896 473.008 73.5234C472.513 74.0508 472.207 74.793 472.09 75.75H477.383V75.6133C477.331 74.6953 477.083 73.9857 476.641 73.4844C476.198 72.9766 475.599 72.7227 474.844 72.7227Z" fill="#F5F8FF"/>
<path d="M485.771 76.6191C485.771 75.584 485.973 74.653 486.377 73.8262C486.787 72.9993 487.354 72.3613 488.076 71.9121C488.805 71.4629 489.635 71.2383 490.566 71.2383C492.005 71.2383 493.167 71.7363 494.053 72.7324C494.945 73.7285 495.391 75.0534 495.391 76.707V76.834C495.391 77.8626 495.192 78.7871 494.795 79.6074C494.404 80.4212 493.841 81.056 493.105 81.5117C492.376 81.9674 491.536 82.1953 490.586 82.1953C489.154 82.1953 487.992 81.6973 487.1 80.7012C486.214 79.7051 485.771 78.3867 485.771 76.7461V76.6191ZM487.588 76.834C487.588 78.0059 487.858 78.9466 488.398 79.6562C488.945 80.3659 489.674 80.7207 490.586 80.7207C491.504 80.7207 492.233 80.3626 492.773 79.6465C493.314 78.9238 493.584 77.9147 493.584 76.6191C493.584 75.4603 493.307 74.5228 492.754 73.8066C492.207 73.084 491.478 72.7227 490.566 72.7227C489.674 72.7227 488.955 73.0775 488.408 73.7871C487.861 74.4967 487.588 75.5124 487.588 76.834Z" fill="#F5F8FF"/>
<path d="M498.545 82V72.8301H496.875V71.4336H498.545V70.3496C498.545 69.2168 498.848 68.3411 499.453 67.7227C500.059 67.1042 500.915 66.7949 502.021 66.7949C502.438 66.7949 502.852 66.8503 503.262 66.9609L503.164 68.4258C502.858 68.3672 502.533 68.3379 502.188 68.3379C501.602 68.3379 501.149 68.5104 500.83 68.8555C500.511 69.194 500.352 69.6823 500.352 70.3203V71.4336H502.607V72.8301H500.352V82H498.545Z" fill="#F5F8FF"/>
<path d="M517.705 78.2891H511.748L510.41 82H508.477L513.906 67.7812H515.547L520.986 82H519.062L517.705 78.2891ZM512.314 76.7461H517.148L514.727 70.0957L512.314 76.7461Z" fill="#F5F8FF"/>
<path d="M524.58 82H522.773V67H524.58V82Z" fill="#F5F8FF"/>
<path d="M529.443 82H527.637V67H529.443V82Z" fill="#F5F8FF"/>
<path d="M545.439 78.2891H539.482L538.145 82H536.211L541.641 67.7812H543.281L548.721 82H546.797L545.439 78.2891ZM540.049 76.7461H544.883L542.461 70.0957L540.049 76.7461Z" fill="#F5F8FF"/>
<path d="M554.59 80.7207C555.234 80.7207 555.798 80.5254 556.279 80.1348C556.761 79.7441 557.028 79.2559 557.08 78.6699H558.789C558.757 79.2754 558.548 79.8516 558.164 80.3984C557.78 80.9453 557.266 81.3815 556.621 81.707C555.983 82.0326 555.306 82.1953 554.59 82.1953C553.151 82.1953 552.005 81.7168 551.152 80.7598C550.306 79.7962 549.883 78.4811 549.883 76.8145V76.5117C549.883 75.4831 550.072 74.5684 550.449 73.7676C550.827 72.9668 551.367 72.3451 552.07 71.9023C552.78 71.4596 553.617 71.2383 554.58 71.2383C555.765 71.2383 556.748 71.5931 557.529 72.3027C558.317 73.0124 558.737 73.9336 558.789 75.0664H557.08C557.028 74.3828 556.768 73.8229 556.299 73.3867C555.837 72.944 555.264 72.7227 554.58 72.7227C553.662 72.7227 552.949 73.0547 552.441 73.7188C551.94 74.3763 551.689 75.3301 551.689 76.5801V76.9219C551.689 78.1393 551.94 79.0768 552.441 79.7344C552.943 80.3919 553.659 80.7207 554.59 80.7207Z" fill="#F5F8FF"/>
<path d="M563.271 68.875V71.4336H565.244V72.8301H563.271V79.3828C563.271 79.806 563.359 80.125 563.535 80.3398C563.711 80.5482 564.01 80.6523 564.434 80.6523C564.642 80.6523 564.928 80.6133 565.293 80.5352V82C564.818 82.1302 564.355 82.1953 563.906 82.1953C563.099 82.1953 562.49 81.9512 562.08 81.4629C561.67 80.9746 561.465 80.2812 561.465 79.3828V72.8301H559.541V71.4336H561.465V68.875H563.271Z" fill="#F5F8FF"/>
<path d="M569.326 82H567.52V71.4336H569.326V82ZM567.373 68.6309C567.373 68.3379 567.461 68.0905 567.637 67.8887C567.819 67.6868 568.086 67.5859 568.438 67.5859C568.789 67.5859 569.056 67.6868 569.238 67.8887C569.421 68.0905 569.512 68.3379 569.512 68.6309C569.512 68.9238 569.421 69.168 569.238 69.3633C569.056 69.5586 568.789 69.6562 568.438 69.6562C568.086 69.6562 567.819 69.5586 567.637 69.3633C567.461 69.168 567.373 68.9238 567.373 68.6309Z" fill="#F5F8FF"/>
<path d="M575.713 79.5488L578.33 71.4336H580.176L576.387 82H575.01L571.182 71.4336H573.027L575.713 79.5488Z" fill="#F5F8FF"/>
<path d="M586.162 82.1953C584.73 82.1953 583.564 81.7266 582.666 80.7891C581.768 79.8451 581.318 78.5853 581.318 77.0098V76.6777C581.318 75.6296 581.517 74.6953 581.914 73.875C582.318 73.0482 582.878 72.4036 583.594 71.9414C584.316 71.4727 585.098 71.2383 585.938 71.2383C587.311 71.2383 588.379 71.6908 589.141 72.5957C589.902 73.5007 590.283 74.7962 590.283 76.4824V77.2344H583.125C583.151 78.276 583.454 79.1191 584.033 79.7637C584.619 80.4017 585.361 80.7207 586.26 80.7207C586.898 80.7207 587.438 80.5905 587.881 80.3301C588.324 80.0697 588.711 79.7246 589.043 79.2949L590.146 80.1543C589.261 81.515 587.933 82.1953 586.162 82.1953ZM585.938 72.7227C585.208 72.7227 584.596 72.9896 584.102 73.5234C583.607 74.0508 583.301 74.793 583.184 75.75H588.477V75.6133C588.424 74.6953 588.177 73.9857 587.734 73.4844C587.292 72.9766 586.693 72.7227 585.938 72.7227Z" fill="#F5F8FF"/>
<path d="M599.639 82H597.764V67.7812H599.639V82Z" fill="#F5F8FF"/>
<path d="M604.502 71.4336L604.561 72.7617C605.368 71.7461 606.423 71.2383 607.725 71.2383C609.958 71.2383 611.084 72.498 611.104 75.0176V82H609.297V75.0078C609.29 74.2461 609.115 73.6829 608.77 73.3184C608.431 72.9538 607.9 72.7715 607.178 72.7715C606.592 72.7715 606.077 72.9277 605.635 73.2402C605.192 73.5527 604.847 73.9629 604.6 74.4707V82H602.793V71.4336H604.502Z" fill="#F5F8FF"/>
<path d="M617.314 79.5488L619.932 71.4336H621.777L617.988 82H616.611L612.783 71.4336H614.629L617.314 79.5488Z" fill="#F5F8FF"/>
<path d="M627.764 82.1953C626.331 82.1953 625.166 81.7266 624.268 80.7891C623.369 79.8451 622.92 78.5853 622.92 77.0098V76.6777C622.92 75.6296 623.118 74.6953 623.516 73.875C623.919 73.0482 624.479 72.4036 625.195 71.9414C625.918 71.4727 626.699 71.2383 627.539 71.2383C628.913 71.2383 629.98 71.6908 630.742 72.5957C631.504 73.5007 631.885 74.7962 631.885 76.4824V77.2344H624.727C624.753 78.276 625.055 79.1191 625.635 79.7637C626.221 80.4017 626.963 80.7207 627.861 80.7207C628.499 80.7207 629.04 80.5905 629.482 80.3301C629.925 80.0697 630.312 79.7246 630.645 79.2949L631.748 80.1543C630.863 81.515 629.535 82.1953 627.764 82.1953ZM627.539 72.7227C626.81 72.7227 626.198 72.9896 625.703 73.5234C625.208 74.0508 624.902 74.793 624.785 75.75H630.078V75.6133C630.026 74.6953 629.779 73.9857 629.336 73.4844C628.893 72.9766 628.294 72.7227 627.539 72.7227Z" fill="#F5F8FF"/>
<path d="M640.137 79.1973C640.137 78.709 639.951 78.3314 639.58 78.0645C639.215 77.791 638.574 77.5566 637.656 77.3613C636.745 77.166 636.019 76.9316 635.479 76.6582C634.945 76.3848 634.548 76.0592 634.287 75.6816C634.033 75.304 633.906 74.8548 633.906 74.334C633.906 73.4681 634.271 72.7357 635 72.1367C635.736 71.5378 636.673 71.2383 637.812 71.2383C639.01 71.2383 639.98 71.5475 640.723 72.166C641.471 72.7845 641.846 73.5755 641.846 74.5391H640.029C640.029 74.0443 639.818 73.6178 639.395 73.2598C638.978 72.9017 638.451 72.7227 637.812 72.7227C637.155 72.7227 636.641 72.8659 636.27 73.1523C635.898 73.4388 635.713 73.8132 635.713 74.2754C635.713 74.7116 635.885 75.0404 636.23 75.2617C636.576 75.4831 637.197 75.6947 638.096 75.8965C639.001 76.0983 639.733 76.3392 640.293 76.6191C640.853 76.8991 641.266 77.2376 641.533 77.6348C641.807 78.0254 641.943 78.5039 641.943 79.0703C641.943 80.0143 641.566 80.7728 640.811 81.3457C640.055 81.9121 639.076 82.1953 637.871 82.1953C637.025 82.1953 636.276 82.0456 635.625 81.7461C634.974 81.4466 634.463 81.0299 634.092 80.4961C633.727 79.9557 633.545 79.373 633.545 78.748H635.352C635.384 79.3535 635.625 79.8353 636.074 80.1934C636.53 80.5449 637.129 80.7207 637.871 80.7207C638.555 80.7207 639.102 80.584 639.512 80.3105C639.928 80.0306 640.137 79.6595 640.137 79.1973Z" fill="#F5F8FF"/>
<path d="M646.748 68.875V71.4336H648.721V72.8301H646.748V79.3828C646.748 79.806 646.836 80.125 647.012 80.3398C647.188 80.5482 647.487 80.6523 647.91 80.6523C648.118 80.6523 648.405 80.6133 648.77 80.5352V82C648.294 82.1302 647.832 82.1953 647.383 82.1953C646.576 82.1953 645.967 81.9512 645.557 81.4629C645.146 80.9746 644.941 80.2812 644.941 79.3828V72.8301H643.018V71.4336H644.941V68.875H646.748Z" fill="#F5F8FF"/>
<path d="M650.166 76.6191C650.166 75.584 650.368 74.653 650.771 73.8262C651.182 72.9993 651.748 72.3613 652.471 71.9121C653.2 71.4629 654.03 71.2383 654.961 71.2383C656.4 71.2383 657.562 71.7363 658.447 72.7324C659.339 73.7285 659.785 75.0534 659.785 76.707V76.834C659.785 77.8626 659.587 78.7871 659.189 79.6074C658.799 80.4212 658.236 81.056 657.5 81.5117C656.771 81.9674 655.931 82.1953 654.98 82.1953C653.548 82.1953 652.386 81.6973 651.494 80.7012C650.609 79.7051 650.166 78.3867 650.166 76.7461V76.6191ZM651.982 76.834C651.982 78.0059 652.253 78.9466 652.793 79.6562C653.34 80.3659 654.069 80.7207 654.98 80.7207C655.898 80.7207 656.628 80.3626 657.168 79.6465C657.708 78.9238 657.979 77.9147 657.979 76.6191C657.979 75.4603 657.702 74.5228 657.148 73.8066C656.602 73.084 655.872 72.7227 654.961 72.7227C654.069 72.7227 653.35 73.0775 652.803 73.7871C652.256 74.4967 651.982 75.5124 651.982 76.834Z" fill="#F5F8FF"/>
<path d="M667.158 73.0547C666.885 73.0091 666.589 72.9863 666.27 72.9863C665.085 72.9863 664.281 73.4909 663.857 74.5V82H662.051V71.4336H663.809L663.838 72.6543C664.43 71.7103 665.27 71.2383 666.357 71.2383C666.709 71.2383 666.976 71.2839 667.158 71.375V73.0547Z" fill="#F5F8FF"/>
<path d="M674.98 79.1973C674.98 78.709 674.795 78.3314 674.424 78.0645C674.059 77.791 673.418 77.5566 672.5 77.3613C671.589 77.166 670.863 76.9316 670.322 76.6582C669.788 76.3848 669.391 76.0592 669.131 75.6816C668.877 75.304 668.75 74.8548 668.75 74.334C668.75 73.4681 669.115 72.7357 669.844 72.1367C670.579 71.5378 671.517 71.2383 672.656 71.2383C673.854 71.2383 674.824 71.5475 675.566 72.166C676.315 72.7845 676.689 73.5755 676.689 74.5391H674.873C674.873 74.0443 674.661 73.6178 674.238 73.2598C673.822 72.9017 673.294 72.7227 672.656 72.7227C671.999 72.7227 671.484 72.8659 671.113 73.1523C670.742 73.4388 670.557 73.8132 670.557 74.2754C670.557 74.7116 670.729 75.0404 671.074 75.2617C671.419 75.4831 672.041 75.6947 672.939 75.8965C673.844 76.0983 674.577 76.3392 675.137 76.6191C675.697 76.8991 676.11 77.2376 676.377 77.6348C676.65 78.0254 676.787 78.5039 676.787 79.0703C676.787 80.0143 676.41 80.7728 675.654 81.3457C674.899 81.9121 673.919 82.1953 672.715 82.1953C671.868 82.1953 671.12 82.0456 670.469 81.7461C669.818 81.4466 669.307 81.0299 668.936 80.4961C668.571 79.9557 668.389 79.373 668.389 78.748H670.195C670.228 79.3535 670.469 79.8353 670.918 80.1934C671.374 80.5449 671.973 80.7207 672.715 80.7207C673.398 80.7207 673.945 80.584 674.355 80.3105C674.772 80.0306 674.98 79.6595 674.98 79.1973Z" fill="#F5F8FF"/>
</svg>
