<svg width="405" height="156" viewBox="0 0 405 156" fill="none" xmlns="http://www.w3.org/2000/svg">
<path opacity="0.5" fill-rule="evenodd" clip-rule="evenodd" d="M247.758 1C247.758 0.447715 247.31 0 246.758 0H159.241C158.689 0 158.241 0.447715 158.241 1V107.857C158.241 108.409 157.794 108.857 157.241 108.857H140.12C139.147 108.857 138.747 110.105 139.539 110.671L202.418 155.585C202.766 155.833 203.233 155.833 203.581 155.585L266.46 110.671C267.252 110.105 266.852 108.857 265.879 108.857H248.758C248.206 108.857 247.758 108.409 247.758 107.857V1ZM205.301 78.998C205.813 79.6047 206.068 80.4406 206.068 81.5057C206.068 82.463 205.813 83.218 205.301 83.7707C204.79 84.31 204.089 84.5797 203.197 84.5797C201.978 84.5797 201.034 84.182 200.366 83.3865C199.711 82.5776 199.383 81.4046 199.383 79.8676H192.756C192.756 82.6585 193.517 84.91 195.037 86.6223C196.571 88.321 198.767 89.3255 201.624 89.6356V93.7207H204.751V89.6558C207.202 89.4131 209.136 88.5637 210.551 87.1076C211.98 85.6515 212.695 83.7707 212.695 81.4653C212.695 80.1036 212.472 78.9373 212.026 77.9666C211.58 76.9959 210.964 76.1465 210.178 75.4184C209.391 74.6904 208.454 74.0433 207.366 73.477C206.291 72.8973 205.144 72.3445 203.925 71.8187C202.706 71.2794 201.821 70.7199 201.27 70.1401C200.72 69.5469 200.445 68.7514 200.445 67.7538C200.445 66.7695 200.681 66.0011 201.152 65.4483C201.637 64.882 202.313 64.5989 203.178 64.5989C204.148 64.5989 204.895 64.9764 205.419 65.7314C205.944 66.4864 206.206 67.565 206.206 68.9672H212.852C212.852 66.4055 212.164 64.2955 210.787 62.6372C209.424 60.9654 207.543 59.9475 205.144 59.5835V55.2354H202.018V59.5026C199.527 59.7453 197.534 60.6081 196.04 62.0912C194.546 63.5608 193.799 65.4348 193.799 67.7133C193.799 69.075 194.008 70.2345 194.428 71.1917C194.847 72.149 195.45 72.9916 196.237 73.7197C197.023 74.4477 197.961 75.0881 199.049 75.6409C200.137 76.1937 201.323 76.7397 202.608 77.279C203.892 77.8183 204.79 78.3913 205.301 78.998Z" fill="#67AB8A"/>
<path opacity="0.5" d="M256.341 52V65.2582H259L254.5 71L250 65.2582H252.659V52H256.341Z" fill="#67AB8A"/>
<path opacity="0.5" d="M172.341 56V69.2582H175L170.5 75L166 69.2582H168.659V56H172.341Z" fill="#67AB8A"/>
<path opacity="0.5" d="M154.341 92V105.258H157L152.5 111L148 105.258H150.659V92H154.341Z" fill="#67AB8A"/>
<path opacity="0.5" d="M99.3409 53V66.2582H102L97.5 72L93 66.2582H95.6591V53H99.3409Z" fill="#67AB8A"/>
<path opacity="0.5" d="M71.3409 66V79.2582H74L69.5 85L65 79.2582H67.6591V66H71.3409Z" fill="#67AB8A"/>
<path opacity="0.5" d="M85.3409 99V112.258H88L83.5 118L79 112.258H81.6591V99H85.3409Z" fill="#67AB8A"/>
<path opacity="0.5" d="M167.341 121V134.258H170L165.5 140L161 134.258H163.659V121H167.341Z" fill="#67AB8A"/>
<path opacity="0.5" d="M273.341 70V83.2582H276L271.5 89L267 83.2582H269.659V70H273.341Z" fill="#67AB8A"/>
<path opacity="0.5" d="M257.341 102V115.258H260L255.5 121L251 115.258H253.659V102H257.341Z" fill="#67AB8A"/>
<path opacity="0.5" d="M357.341 51V64.2582H360L355.5 70L351 64.2582H353.659V51H357.341Z" fill="#67AB8A"/>
<path opacity="0.5" d="M333.341 78V91.2582H336L331.5 97L327 91.2582H329.659V78H333.341Z" fill="#67AB8A"/>
<path opacity="0.5" d="M362.341 107V120.258H365L360.5 126L356 120.258H358.659V107H362.341Z" fill="#67AB8A"/>
<mask id="mask0" mask-type="alpha" maskUnits="userSpaceOnUse" x="178" y="8" width="50" height="51">
<path d="M228 33.1259C228 19.2623 216.794 8 203 8C189.206 8 178 19.2623 178 33.1259C178 46.9894 189.206 58.2517 203 58.2517C216.794 58.2517 228 46.9894 228 33.1259Z" fill="#827977"/>
</mask>
<g mask="url(#mask0)">
<path d="M228 33.1259C228 19.2623 216.794 8 203 8C189.206 8 178 19.2623 178 33.1259C178 46.9894 189.206 58.2517 203 58.2517C216.794 58.2517 228 46.9894 228 33.1259Z" fill="#FA6C06"/>
<path d="M207.56 44.271C207.56 44.271 214.531 45.3056 215.56 46.3697C216.442 47.3157 218.325 56.2723 218.737 58.2528C206.501 58.2528 203.001 58.2528 203.001 58.2528V45.5125L207.56 44.271Z" fill="#2A2D34"/>
<path d="M206.649 39.6309H199.325V47.7007H206.649V39.6309Z" fill="#D9A78C"/>
<path d="M203.001 16.3657C206.56 16.3657 212.178 18.4053 212.178 27.9236C212.178 33.4217 210.384 37.028 209.619 38.0035C208.913 38.9199 204.884 40.8708 203.001 40.8708C203.001 31.2639 203.001 16.3657 203.001 16.3657Z" fill="#F2D7BC"/>
<path d="M213.943 30.1981C214.09 28.6905 213.384 27.3308 212.325 27.183C211.266 27.0352 210.296 28.1585 210.149 29.666C210.002 31.1736 210.708 32.5333 211.766 32.6811C212.825 32.8289 213.796 31.7057 213.943 30.1981Z" fill="#EAC0A7"/>
<path d="M203.001 16.3657C199.443 16.3657 193.825 18.4053 193.825 27.9236C193.825 33.4217 195.619 37.028 196.384 38.0035C197.09 38.9199 201.119 40.8708 203.001 40.8708C203.001 31.2639 203.001 16.3657 203.001 16.3657Z" fill="#F2D7BC"/>
<path d="M192.059 30.2001C191.912 28.6925 192.618 27.3327 193.677 27.1849C194.736 27.0371 195.706 28.1604 195.854 29.668C196.001 31.1755 195.295 32.5353 194.236 32.6831C193.177 32.8309 192.206 31.7076 192.059 30.2001Z" fill="#F2D7BC"/>
<path d="M198.208 18.348C198.208 18.348 195.09 22.043 196.296 25.5015C196.502 29.6103 196.09 30.9996 194.767 32.1525C195.09 28.1619 194.708 26.8317 193.237 27.3046C192.649 24.2009 193.943 15.7763 198.208 18.348Z" fill="#690102"/>
<path d="M207.766 18.348C207.766 18.348 210.884 22.043 209.678 25.5015C209.472 29.6103 209.884 30.9996 211.207 32.1525C210.884 28.1619 211.266 26.8317 212.736 27.3046C213.295 24.2009 212.031 15.7763 207.766 18.348Z" fill="#690102"/>
<path d="M198.443 44.271C198.443 44.271 191.472 45.3056 190.443 46.3697C189.56 47.3157 187.678 56.2723 187.266 58.2528C199.501 58.2528 203.001 58.2528 203.001 58.2528V45.5125L198.443 44.271Z" fill="#2F343A"/>
<path d="M207.62 44.0635L203.002 45.039L198.355 44.0635L203.002 58.2522" fill="#B9C7D0"/>
<path d="M202.619 46.9312L201.854 56.5381L203.001 58.2526L204.148 56.5381L203.384 46.9312H202.619Z" fill="#129E95"/>
<path d="M199.648 50.1837L195.971 44.6856C196.971 44.3309 198.06 44.0353 199.207 43.8579L203.001 58.224L197.677 50.5976L199.648 50.1837Z" fill="#3A404C"/>
<path d="M206.325 50.1837L210.002 44.6856C209.002 44.3309 207.913 44.0353 206.766 43.8579L202.972 58.224L208.296 50.568L206.325 50.1837Z" fill="#3A404C"/>
<path d="M204.237 46.3421L203.001 47.6428L201.766 46.3421L203.001 45.0415L204.237 46.3421Z" fill="#129E95"/>
<path d="M203.001 45.0393L206.707 43.1475L208.619 44.2707L204.648 47.4632L203.001 45.0393Z" fill="white"/>
<path d="M203 45.0393L199.294 43.1475L197.353 44.2707L201.265 47.4632L203 45.0393Z" fill="white"/>
<path d="M211.766 19.9729C210.295 13.9427 201.384 9.18359 195.119 18.6723C194.707 20.5346 196.472 21.4214 196.472 21.4214C196.472 21.4214 197.648 18.6723 203.001 19.9434C205.678 19.3522 208.266 18.9088 209.472 21.3918C210.678 23.8748 211.766 19.9729 211.766 19.9729Z" fill="#690102"/>
<path d="M208.265 36.7928C206.442 36.7928 205.118 35.2852 203.001 35.2852C200.883 35.2852 199.589 36.7928 197.736 36.7928C195.736 36.7928 194.442 33.3047 194.059 32.0928C194.589 35.6104 195.765 37.9161 196.353 38.6846C197.059 39.601 201.089 41.5519 202.971 41.5519C204.853 41.5519 208.883 39.601 209.589 38.6846C210.177 37.9161 211.383 35.6104 211.883 32.0928C211.53 33.3047 210.265 36.7928 208.265 36.7928Z" fill="#690102"/>
<path d="M203 38.4764C203.618 38.4764 204.118 38.2104 204.118 37.8853H201.883C201.883 38.2104 202.383 38.4764 203 38.4764Z" fill="white"/>
</g>
<mask id="mask1" mask-type="alpha" maskUnits="userSpaceOnUse" x="0" y="89" width="51" height="51">
<path d="M50.625 114.44C50.625 100.403 39.279 89 25.3125 89C11.346 89 0 100.403 0 114.44C0 128.477 11.346 139.88 25.3125 139.88C39.3088 139.88 50.625 128.477 50.625 114.44Z" fill="#B5332B"/>
</mask>
<g mask="url(#mask1)">
<path d="M50.625 114.44C50.625 100.403 39.279 89 25.3125 89C11.346 89 0 100.403 0 114.44C0 128.477 11.346 139.88 25.3125 139.88C39.3088 139.88 50.625 128.477 50.625 114.44Z" fill="#6C67AB"/>
<path d="M29.0342 120.845H21.6191V129.016H29.0342V120.845Z" fill="#D9A78C"/>
<path d="M29.9273 125.723C29.9273 125.723 36.9851 126.77 38.0273 127.848C38.9207 128.805 40.8266 137.874 41.2435 139.879C28.8553 139.879 25.3115 139.879 25.3115 139.879V126.112L29.9273 125.723Z" fill="#CFE1EB"/>
<path d="M25.3115 97.4683C28.9148 97.4683 34.6027 99.5334 34.6027 109.171C34.6027 114.738 32.7862 118.389 32.0119 119.377C31.2972 120.304 27.2174 122.28 25.3115 122.28C25.3115 112.553 25.3115 97.4683 25.3115 97.4683Z" fill="#F2D7BC"/>
<path d="M36.3902 111.444C36.5391 109.918 35.8244 108.541 34.7523 108.391C33.6803 108.242 32.6975 109.379 32.5486 110.905C32.3997 112.432 33.1145 113.808 34.1865 113.958C35.2586 114.138 36.2413 113 36.3902 111.444Z" fill="#EAC0A7"/>
<path d="M25.3124 97.4683C21.7091 97.4683 16.0212 99.5334 16.0212 109.171C16.0212 114.738 17.8378 118.389 18.6121 119.377C19.3268 120.304 23.4065 122.28 25.3124 122.28C25.3124 112.553 25.3124 97.4683 25.3124 97.4683Z" fill="#F2D7BC"/>
<path d="M14.2339 111.444C14.085 109.918 14.7998 108.541 15.8718 108.391C16.9439 108.242 17.9266 109.379 18.0755 110.905C18.2244 112.432 17.5097 113.808 16.4376 113.958C15.3954 114.138 14.4126 113 14.2339 111.444Z" fill="#F2D7BC"/>
<path d="M20.7258 125.723C20.7258 125.723 13.6681 126.77 12.6259 127.848C11.7325 128.805 9.82658 137.874 9.40967 139.879C21.7979 139.879 25.3416 139.879 25.3416 139.879V126.112L20.7258 125.723Z" fill="#CFE1EB"/>
<path d="M25.3118 126.114L21.5596 124.587L20.6365 125.515L22.5126 129.705L25.3118 126.114Z" fill="white"/>
<path d="M25.3115 126.114L29.0935 124.587L30.0167 125.515L28.1406 129.705L25.3115 126.114Z" fill="white"/>
<path d="M34.8123 108.634C34.8123 108.634 37.8498 94.687 25.2531 94.687C12.5968 94.687 15.7534 108.245 15.7534 108.245C15.7534 108.245 17.4807 107.257 17.4807 111.717C18.1656 111.717 17.8082 111.717 17.8082 111.717C17.8082 111.717 18.4336 108.724 18.6123 106.06C23.0792 106.06 27.0101 105.492 30.3156 102.738C32.1917 102.738 32.4597 105.102 32.4597 106.898L31.6259 107.227C31.6259 107.227 32.4299 108.784 32.4895 111.747C33.0553 111.747 33.0553 111.747 33.0553 111.747C33.0553 111.747 32.9957 106.808 34.8123 108.634Z" fill="#8B5F3C"/>
<path d="M25.3109 118.661C26.9786 118.661 28.3485 118.092 28.3485 117.404H22.2734C22.2734 118.092 23.6433 118.661 25.3109 118.661Z" fill="white"/>
</g>
<mask id="mask2" mask-type="alpha" maskUnits="userSpaceOnUse" x="88" y="89" width="52" height="51">
<path d="M139.219 114.44C139.219 100.403 127.873 89 113.906 89C99.9397 89 88.5938 100.403 88.5938 114.44C88.5938 128.477 99.9397 139.88 113.906 139.88C127.903 139.88 139.219 128.477 139.219 114.44Z" fill="#B5332B"/>
</mask>
<g mask="url(#mask2)">
<path d="M139.219 114.44C139.219 100.403 127.873 89 113.906 89C99.9397 89 88.5938 100.403 88.5938 114.44C88.5938 128.477 99.9397 139.88 113.906 139.88C127.903 139.88 139.219 128.477 139.219 114.44Z" fill="#6C67AB"/>
<path d="M117.628 120.845H110.213V129.016H117.628V120.845Z" fill="#D9A78C"/>
<path d="M118.521 125.723C118.521 125.723 125.579 126.77 126.621 127.848C127.514 128.805 129.42 137.874 129.837 139.879C117.449 139.879 113.905 139.879 113.905 139.879V126.112L118.521 125.723Z" fill="#CFE1EB"/>
<path d="M113.905 97.4683C117.509 97.4683 123.196 99.5334 123.196 109.171C123.196 114.738 121.38 118.389 120.606 119.377C119.891 120.304 115.811 122.28 113.905 122.28C113.905 112.553 113.905 97.4683 113.905 97.4683Z" fill="#F2D7BC"/>
<path d="M124.984 111.444C125.133 109.918 124.418 108.541 123.346 108.391C122.274 108.242 121.291 109.379 121.142 110.905C120.993 112.432 121.708 113.808 122.78 113.958C123.852 114.138 124.835 113 124.984 111.444Z" fill="#EAC0A7"/>
<path d="M113.906 97.4683C110.303 97.4683 104.615 99.5334 104.615 109.171C104.615 114.738 106.432 118.389 107.206 119.377C107.921 120.304 112 122.28 113.906 122.28C113.906 112.553 113.906 97.4683 113.906 97.4683Z" fill="#F2D7BC"/>
<path d="M102.828 111.444C102.679 109.918 103.394 108.541 104.466 108.391C105.538 108.242 106.52 109.379 106.669 110.905C106.818 112.432 106.103 113.808 105.031 113.958C103.989 114.138 103.006 113 102.828 111.444Z" fill="#F2D7BC"/>
<path d="M109.32 125.723C109.32 125.723 102.262 126.77 101.22 127.848C100.326 128.805 98.4203 137.874 98.0034 139.879C110.392 139.879 113.935 139.879 113.935 139.879V126.112L109.32 125.723Z" fill="#CFE1EB"/>
<path d="M113.906 126.114L110.153 124.587L109.23 125.515L111.106 129.705L113.906 126.114Z" fill="white"/>
<path d="M113.905 126.114L117.687 124.587L118.61 125.515L116.734 129.705L113.905 126.114Z" fill="white"/>
<path d="M123.406 108.634C123.406 108.634 126.444 94.687 113.847 94.687C101.191 94.687 104.347 108.245 104.347 108.245C104.347 108.245 106.074 107.257 106.074 111.717C106.759 111.717 106.402 111.717 106.402 111.717C106.402 111.717 107.027 108.724 107.206 106.06C111.673 106.06 115.604 105.492 118.909 102.738C120.785 102.738 121.053 105.102 121.053 106.898L120.22 107.227C120.22 107.227 121.024 108.784 121.083 111.747C121.649 111.747 121.649 111.747 121.649 111.747C121.649 111.747 121.589 106.808 123.406 108.634Z" fill="#8B5F3C"/>
<path d="M113.907 118.661C115.575 118.661 116.945 118.092 116.945 117.404H110.87C110.87 118.092 112.239 118.661 113.907 118.661Z" fill="white"/>
</g>
<mask id="mask3" mask-type="alpha" maskUnits="userSpaceOnUse" x="178" y="89" width="51" height="51">
<path d="M228.625 114.44C228.625 100.403 217.279 89 203.312 89C189.346 89 178 100.403 178 114.44C178 128.477 189.346 139.88 203.312 139.88C217.309 139.88 228.625 128.477 228.625 114.44Z" fill="#B5332B"/>
</mask>
<g mask="url(#mask3)">
<path d="M228.625 114.44C228.625 100.403 217.279 89 203.312 89C189.346 89 178 100.403 178 114.44C178 128.477 189.346 139.88 203.312 139.88C217.309 139.88 228.625 128.477 228.625 114.44Z" fill="#6C67AB"/>
<path d="M207.034 120.845H199.619V129.016H207.034V120.845Z" fill="#D9A78C"/>
<path d="M207.927 125.723C207.927 125.723 214.985 126.77 216.027 127.848C216.921 128.805 218.827 137.874 219.244 139.879C206.855 139.879 203.312 139.879 203.312 139.879V126.112L207.927 125.723Z" fill="#CFE1EB"/>
<path d="M203.312 97.4683C206.915 97.4683 212.603 99.5334 212.603 109.171C212.603 114.738 210.786 118.389 210.012 119.377C209.297 120.304 205.217 122.28 203.312 122.28C203.312 112.553 203.312 97.4683 203.312 97.4683Z" fill="#F2D7BC"/>
<path d="M214.39 111.444C214.539 109.918 213.824 108.541 212.752 108.391C211.68 108.242 210.698 109.379 210.549 110.905C210.4 112.432 211.114 113.808 212.187 113.958C213.259 114.138 214.241 113 214.39 111.444Z" fill="#EAC0A7"/>
<path d="M203.312 97.4683C199.709 97.4683 194.021 99.5334 194.021 109.171C194.021 114.738 195.838 118.389 196.612 119.377C197.327 120.304 201.407 122.28 203.312 122.28C203.312 112.553 203.312 97.4683 203.312 97.4683Z" fill="#F2D7BC"/>
<path d="M192.234 111.444C192.085 109.918 192.8 108.541 193.872 108.391C194.944 108.242 195.927 109.379 196.075 110.905C196.224 112.432 195.51 113.808 194.438 113.958C193.395 114.138 192.413 113 192.234 111.444Z" fill="#F2D7BC"/>
<path d="M198.726 125.723C198.726 125.723 191.668 126.77 190.626 127.848C189.732 128.805 187.827 137.874 187.41 139.879C199.798 139.879 203.342 139.879 203.342 139.879V126.112L198.726 125.723Z" fill="#CFE1EB"/>
<path d="M203.312 126.114L199.56 124.587L198.636 125.515L200.513 129.705L203.312 126.114Z" fill="white"/>
<path d="M203.312 126.114L207.094 124.587L208.017 125.515L206.141 129.705L203.312 126.114Z" fill="white"/>
<path d="M212.813 108.634C212.813 108.634 215.851 94.687 203.254 94.687C190.598 94.687 193.754 108.245 193.754 108.245C193.754 108.245 195.481 107.257 195.481 111.717C196.166 111.717 195.809 111.717 195.809 111.717C195.809 111.717 196.434 108.724 196.613 106.06C201.08 106.06 205.011 105.492 208.316 102.738C210.192 102.738 210.46 105.102 210.46 106.898L209.627 107.227C209.627 107.227 210.431 108.784 210.49 111.747C211.056 111.747 211.056 111.747 211.056 111.747C211.056 111.747 210.996 106.808 212.813 108.634Z" fill="#8B5F3C"/>
<path d="M203.313 118.661C204.98 118.661 206.35 118.092 206.35 117.404H200.275C200.275 118.092 201.645 118.661 203.313 118.661Z" fill="white"/>
</g>
<mask id="mask4" mask-type="alpha" maskUnits="userSpaceOnUse" x="265" y="89" width="52" height="51">
<path d="M316.406 114.44C316.406 100.403 305.06 89 291.094 89C277.127 89 265.781 100.403 265.781 114.44C265.781 128.477 277.127 139.88 291.094 139.88C305.09 139.88 316.406 128.477 316.406 114.44Z" fill="#B5332B"/>
</mask>
<g mask="url(#mask4)">
<path d="M316.406 114.44C316.406 100.403 305.06 89 291.094 89C277.127 89 265.781 100.403 265.781 114.44C265.781 128.477 277.127 139.88 291.094 139.88C305.09 139.88 316.406 128.477 316.406 114.44Z" fill="#6C67AB"/>
<path d="M294.815 120.845H287.4V129.016H294.815V120.845Z" fill="#D9A78C"/>
<path d="M295.709 125.723C295.709 125.723 302.766 126.77 303.809 127.848C304.702 128.805 306.608 137.874 307.025 139.879C294.637 139.879 291.093 139.879 291.093 139.879V126.112L295.709 125.723Z" fill="#CFE1EB"/>
<path d="M291.093 97.4683C294.696 97.4683 300.384 99.5334 300.384 109.171C300.384 114.738 298.567 118.389 297.793 119.377C297.078 120.304 292.999 122.28 291.093 122.28C291.093 112.553 291.093 97.4683 291.093 97.4683Z" fill="#F2D7BC"/>
<path d="M302.171 111.444C302.32 109.918 301.606 108.541 300.534 108.391C299.462 108.242 298.479 109.379 298.33 110.905C298.181 112.432 298.896 113.808 299.968 113.958C301.04 114.138 302.023 113 302.171 111.444Z" fill="#EAC0A7"/>
<path d="M291.094 97.4683C287.49 97.4683 281.802 99.5334 281.802 109.171C281.802 114.738 283.619 118.389 284.393 119.377C285.108 120.304 289.188 122.28 291.094 122.28C291.094 112.553 291.094 97.4683 291.094 97.4683Z" fill="#F2D7BC"/>
<path d="M280.015 111.444C279.866 109.918 280.581 108.541 281.653 108.391C282.725 108.242 283.708 109.379 283.857 110.905C284.006 112.432 283.291 113.808 282.219 113.958C281.177 114.138 280.194 113 280.015 111.444Z" fill="#F2D7BC"/>
<path d="M286.507 125.723C286.507 125.723 279.449 126.77 278.407 127.848C277.514 128.805 275.608 137.874 275.191 139.879C287.579 139.879 291.123 139.879 291.123 139.879V126.112L286.507 125.723Z" fill="#CFE1EB"/>
<path d="M291.093 126.114L287.341 124.587L286.418 125.515L288.294 129.705L291.093 126.114Z" fill="white"/>
<path d="M291.093 126.114L294.875 124.587L295.798 125.515L293.922 129.705L291.093 126.114Z" fill="white"/>
<path d="M300.592 108.634C300.592 108.634 303.63 94.687 291.033 94.687C278.377 94.687 281.533 108.245 281.533 108.245C281.533 108.245 283.261 107.257 283.261 111.717C283.946 111.717 283.588 111.717 283.588 111.717C283.588 111.717 284.214 108.724 284.392 106.06C288.859 106.06 292.79 105.492 296.096 102.738C297.972 102.738 298.24 105.102 298.24 106.898L297.406 107.227C297.406 107.227 298.21 108.784 298.27 111.747C298.835 111.747 298.835 111.747 298.835 111.747C298.835 111.747 298.776 106.808 300.592 108.634Z" fill="#8B5F3C"/>
<path d="M291.093 118.661C292.76 118.661 294.13 118.092 294.13 117.404H288.055C288.055 118.092 289.425 118.661 291.093 118.661Z" fill="white"/>
</g>
<mask id="mask5" mask-type="alpha" maskUnits="userSpaceOnUse" x="354" y="89" width="51" height="51">
<path d="M405 114.44C405 100.403 393.654 89 379.687 89C365.721 89 354.375 100.403 354.375 114.44C354.375 128.477 365.721 139.88 379.687 139.88C393.684 139.88 405 128.477 405 114.44Z" fill="#B5332B"/>
</mask>
<g mask="url(#mask5)">
<path d="M405 114.44C405 100.403 393.654 89 379.687 89C365.721 89 354.375 100.403 354.375 114.44C354.375 128.477 365.721 139.88 379.687 139.88C393.684 139.88 405 128.477 405 114.44Z" fill="#6C67AB"/>
<path d="M383.409 120.845H375.994V129.016H383.409V120.845Z" fill="#D9A78C"/>
<path d="M384.302 125.722C384.302 125.722 391.36 126.77 392.402 127.847C393.296 128.805 395.202 137.873 395.619 139.879C383.23 139.879 379.687 139.879 379.687 139.879V126.111L384.302 125.722Z" fill="#CFE1EB"/>
<path d="M379.687 97.4683C383.29 97.4683 388.978 99.5334 388.978 109.171C388.978 114.738 387.161 118.389 386.387 119.377C385.672 120.304 381.592 122.28 379.687 122.28C379.687 112.553 379.687 97.4683 379.687 97.4683Z" fill="#F2D7BC"/>
<path d="M390.765 111.444C390.914 109.918 390.199 108.541 389.127 108.391C388.055 108.242 387.073 109.379 386.924 110.905C386.775 112.432 387.489 113.808 388.562 113.958C389.634 114.138 390.616 113 390.765 111.444Z" fill="#EAC0A7"/>
<path d="M379.686 97.4683C376.083 97.4683 370.395 99.5334 370.395 109.171C370.395 114.738 372.212 118.389 372.986 119.377C373.701 120.304 377.781 122.28 379.686 122.28C379.686 112.553 379.686 97.4683 379.686 97.4683Z" fill="#F2D7BC"/>
<path d="M368.608 111.444C368.459 109.918 369.174 108.541 370.246 108.391C371.318 108.242 372.3 109.379 372.449 110.905C372.598 112.432 371.883 113.808 370.811 113.958C369.769 114.138 368.786 113 368.608 111.444Z" fill="#F2D7BC"/>
<path d="M375.101 125.722C375.101 125.722 368.043 126.77 367.001 127.847C366.107 128.805 364.202 137.873 363.785 139.879C376.173 139.879 379.717 139.879 379.717 139.879V126.111L375.101 125.722Z" fill="#CFE1EB"/>
<path d="M379.687 126.113L375.935 124.587L375.011 125.515L376.888 129.705L379.687 126.113Z" fill="white"/>
<path d="M379.687 126.113L383.469 124.587L384.392 125.515L382.516 129.705L379.687 126.113Z" fill="white"/>
<path d="M389.187 108.634C389.187 108.634 392.224 94.687 379.628 94.687C366.971 94.687 370.128 108.245 370.128 108.245C370.128 108.245 371.855 107.257 371.855 111.717C372.54 111.717 372.183 111.717 372.183 111.717C372.183 111.717 372.808 108.724 372.987 106.06C377.454 106.06 381.385 105.492 384.69 102.738C386.566 102.738 386.834 105.102 386.834 106.898L386 107.227C386 107.227 386.804 108.784 386.864 111.747C387.43 111.747 387.43 111.747 387.43 111.747C387.43 111.747 387.37 106.808 389.187 108.634Z" fill="#8B5F3C"/>
<path d="M379.688 118.661C381.355 118.661 382.725 118.092 382.725 117.404H376.65C376.65 118.092 378.02 118.661 379.688 118.661Z" fill="white"/>
</g>
<path d="M25 80.9091V67H379V84" stroke="#949599"/>
<path d="M203 67V84" stroke="#949599"/>
<path d="M203 61V67" stroke="#949599"/>
<path d="M291 67V84" stroke="#949599"/>
<path d="M114 67V84" stroke="#949599"/>
</svg>
