<svg width="269" height="212" viewBox="0 0 269 212" fill="none" xmlns="http://www.w3.org/2000/svg">
<g opacity="0.69">
<path opacity="0.69" d="M210.404 53.7078L171.114 54.4019C170.003 54.4019 169.031 53.7078 169.031 52.8053L168.545 26.7044C168.545 25.802 169.448 25.0384 170.559 25.0384L209.849 24.3442C210.959 24.3442 211.931 25.0384 211.931 25.9408L212.417 52.0418C212.417 52.9442 211.515 53.7078 210.404 53.7078ZM170.628 25.5243C169.795 25.5243 169.101 26.0797 169.101 26.7044L169.587 52.8053C169.587 53.4301 170.281 53.916 171.183 53.916L210.473 53.2219C211.307 53.2219 212.001 52.6665 212.001 52.0418L211.515 25.9408C211.515 25.3161 210.821 24.8302 209.918 24.8302L170.628 25.5243Z" fill="white"/>
<path opacity="0.69" d="M211.498 29.6461L168.885 30.4199L168.893 30.9058L211.507 30.1319L211.498 29.6461Z" fill="white"/>
<path opacity="0.69" d="M171.947 29.0646C171.461 29.0646 171.045 28.6481 171.045 28.1622C171.045 27.6763 171.461 27.2598 171.947 27.2598C172.433 27.2598 172.85 27.6763 172.85 28.1622C172.85 28.6481 172.433 29.0646 171.947 29.0646ZM171.947 27.7457C171.739 27.7457 171.531 27.9539 171.531 28.1622C171.531 28.3704 171.739 28.5787 171.947 28.5787C172.155 28.5787 172.364 28.3704 172.364 28.1622C172.364 27.9539 172.155 27.7457 171.947 27.7457Z" fill="white"/>
<path opacity="0.69" d="M174.446 29.0646C173.96 29.0646 173.544 28.6481 173.544 28.1622C173.544 27.6763 173.96 27.2598 174.446 27.2598C174.932 27.2598 175.349 27.6763 175.349 28.1622C175.349 28.6481 175.001 29.0646 174.446 29.0646ZM174.446 27.6763C174.238 27.6763 174.03 27.8845 174.03 28.0928C174.03 28.301 174.238 28.5093 174.446 28.5093C174.654 28.5093 174.863 28.301 174.863 28.0928C174.863 27.8845 174.654 27.6763 174.446 27.6763Z" fill="white"/>
<path opacity="0.69" d="M176.945 28.9953C176.459 28.9953 176.042 28.5788 176.042 28.0929C176.042 27.6069 176.459 27.1904 176.945 27.1904C177.431 27.1904 177.847 27.6069 177.847 28.0929C177.847 28.5788 177.431 28.9953 176.945 28.9953ZM176.945 27.6763C176.737 27.6763 176.528 27.8846 176.528 28.0929C176.528 28.3011 176.737 28.5094 176.945 28.5094C177.153 28.5094 177.361 28.3011 177.361 28.0929C177.361 27.8152 177.153 27.6763 176.945 27.6763Z" fill="white"/>
</g>
<g opacity="0.69">
<path opacity="0.69" d="M78.5806 209.55L39.2904 210.244C38.1797 210.244 37.2078 209.55 37.2078 208.647L36.7219 182.546C36.7219 181.644 37.6244 180.88 38.735 180.88L78.0252 180.186C79.1359 180.186 80.1078 180.88 80.1078 181.783L80.5937 207.884C80.5937 208.786 79.6913 209.55 78.5806 209.55ZM38.8044 181.436C37.9714 181.436 37.2773 181.991 37.2773 182.616L37.7632 208.717C37.7632 209.341 38.4574 209.827 39.3598 209.827L78.65 209.133C79.483 209.133 80.1772 208.578 80.1772 207.953L79.6913 181.852C79.6913 181.227 78.9971 180.741 78.0947 180.741L38.8044 181.436Z" fill="white"/>
<path opacity="0.69" d="M79.6784 185.483L37.0647 186.256L37.0735 186.742L79.6872 185.968L79.6784 185.483Z" fill="white"/>
<path opacity="0.69" d="M40.1234 184.976C39.6375 184.976 39.2209 184.559 39.2209 184.073C39.2209 183.587 39.6375 183.171 40.1234 183.171C40.6093 183.171 41.0258 183.587 41.0258 184.073C41.0258 184.559 40.6093 184.976 40.1234 184.976ZM40.1234 183.587C39.9151 183.587 39.7069 183.796 39.7069 184.004C39.7069 184.212 39.9151 184.42 40.1234 184.42C40.3316 184.42 40.5399 184.212 40.5399 184.004C40.5399 183.796 40.3316 183.587 40.1234 183.587Z" fill="white"/>
<path opacity="0.69" d="M42.6224 184.906C42.1365 184.906 41.72 184.49 41.72 184.004C41.72 183.518 42.1365 183.102 42.6224 183.102C43.1083 183.102 43.5248 183.518 43.5248 184.004C43.5942 184.49 43.1777 184.906 42.6224 184.906ZM42.6224 183.587C42.4141 183.587 42.2059 183.796 42.2059 184.004C42.2059 184.212 42.4141 184.42 42.6224 184.42C42.8306 184.42 43.0389 184.212 43.0389 184.004C43.0389 183.726 42.9001 183.587 42.6224 183.587Z" fill="white"/>
<path opacity="0.69" d="M45.1212 184.837C44.6353 184.837 44.2188 184.421 44.2188 183.935C44.2188 183.449 44.6353 183.032 45.1212 183.032C45.6071 183.032 46.0236 183.449 46.0236 183.935C46.0236 184.421 45.6765 184.837 45.1212 184.837ZM45.1212 183.518C44.9129 183.518 44.7047 183.726 44.7047 183.935C44.7047 184.143 44.9129 184.351 45.1212 184.351C45.3294 184.351 45.5377 184.143 45.5377 183.935C45.5377 183.726 45.3294 183.518 45.1212 183.518Z" fill="white"/>
</g>
<g opacity="0.38">
<path opacity="0.38" d="M267.673 166.65H228.383C227.689 166.65 227.134 166.025 227.134 165.192V150.753C227.134 149.92 227.689 149.295 228.383 149.295H267.673C268.367 149.295 268.923 149.92 268.923 150.753V165.192C268.923 165.956 268.367 166.65 267.673 166.65ZM228.383 149.92C228.105 149.92 227.828 150.267 227.828 150.684V165.123C227.828 165.539 228.105 165.886 228.383 165.886H267.673C267.951 165.886 268.229 165.539 268.229 165.123V150.684C268.229 150.267 267.951 149.92 267.673 149.92H228.383Z" fill="white"/>
<g opacity="0.38">
<path opacity="0.38" d="M261.842 154.849H235.255V155.543H261.842V154.849Z" fill="white"/>
<path opacity="0.38" d="M261.842 155.89H235.255C234.839 155.89 234.561 155.613 234.561 155.196C234.561 154.78 234.839 154.502 235.255 154.502H261.842C262.259 154.502 262.536 154.78 262.536 155.196C262.536 155.543 262.189 155.89 261.842 155.89ZM261.842 155.196V155.543V155.196Z" fill="white"/>
</g>
<g opacity="0.38">
<path opacity="0.38" d="M247.126 157.973H235.255V158.667H247.126V157.973Z" fill="white"/>
<path opacity="0.38" d="M247.126 159.014H235.255C234.839 159.014 234.561 158.736 234.561 158.32C234.561 157.903 234.839 157.625 235.255 157.625H247.126C247.542 157.625 247.82 157.903 247.82 158.32C247.82 158.736 247.473 159.014 247.126 159.014ZM247.126 158.32V158.667V158.32Z" fill="white"/>
</g>
<g opacity="0.38">
<path opacity="0.38" d="M261.842 157.973H249.972V158.667H261.842V157.973Z" fill="white"/>
<path opacity="0.38" d="M261.842 159.014H249.972C249.555 159.014 249.278 158.736 249.278 158.32C249.278 157.903 249.555 157.625 249.972 157.625H261.842C262.259 157.625 262.536 157.903 262.536 158.32C262.536 158.736 262.189 159.014 261.842 159.014ZM261.842 158.32V158.667V158.32Z" fill="white"/>
</g>
<g opacity="0.38">
<path opacity="0.38" d="M261.842 161.305H235.255V161.999H261.842V161.305Z" fill="white"/>
<path opacity="0.38" d="M261.842 162.346H235.255C234.839 162.346 234.561 162.068 234.561 161.652C234.561 161.235 234.839 160.958 235.255 160.958H261.842C262.259 160.958 262.536 161.235 262.536 161.652C262.536 161.999 262.189 162.346 261.842 162.346ZM261.842 161.652V161.999V161.652Z" fill="white"/>
</g>
</g>
<g opacity="0.61">
<g opacity="0.61">
<path opacity="0.74" d="M68.2372 63.8431L69.4868 169.566C69.4868 170.885 68.4455 171.995 67.1266 171.995L3.6097 172.759C2.29077 172.759 1.18009 171.718 1.18009 170.399L0 64.6761C0 63.3572 1.04126 62.2465 2.36019 62.2465L65.8771 61.4829C67.1266 61.4829 68.2372 62.5242 68.2372 63.8431Z" fill="#BACBF2"/>
<g opacity="0.61">
<path opacity="0.61" d="M68.4453 63.843L68.5147 70.0905L0.277424 70.9235L0.208008 64.5371C0.208008 63.2876 1.17985 62.2464 2.42936 62.2464L66.0156 61.4828C67.3346 61.4134 68.4453 62.4546 68.4453 63.843Z" fill="#2A2B2D"/>
</g>
</g>
<path opacity="0.61" d="M4.92863 67.7996C4.16504 67.7996 3.54028 67.1749 3.54028 66.4113C3.54028 65.6477 4.16504 65.0229 4.92863 65.0229C5.69222 65.0229 6.31698 65.6477 6.31698 66.4113C6.31698 67.1749 5.69222 67.7996 4.92863 67.7996ZM4.85921 65.5783C4.37329 65.5783 4.02621 65.9948 4.02621 66.4113C4.02621 66.8972 4.44271 67.2443 4.85921 67.2443C5.34514 67.2443 5.69222 66.8278 5.69222 66.4113C5.76164 65.9254 5.34514 65.5089 4.85921 65.5783Z" fill="white"/>
<path opacity="0.61" d="M9.57926 67.7303C8.81567 67.7303 8.19092 67.1056 8.19092 66.342C8.19092 65.5784 8.81567 64.9536 9.57926 64.9536C10.3429 64.9536 10.9676 65.5784 10.9676 66.342C10.9676 67.1056 10.3429 67.7303 9.57926 67.7303ZM9.57926 65.509C9.09334 65.509 8.74625 65.9255 8.74625 66.342C8.74625 66.8279 9.16276 67.175 9.57926 67.175C10.0652 67.175 10.4123 66.7585 10.4123 66.342C10.4123 65.856 10.0652 65.509 9.57926 65.509Z" fill="white"/>
<path opacity="0.61" d="M14.1608 67.7303C13.3972 67.7303 12.7725 67.1056 12.7725 66.342C12.7725 65.5784 13.3972 64.9536 14.1608 64.9536C14.9244 64.9536 15.5492 65.5784 15.5492 66.342C15.5492 67.1056 14.9244 67.7303 14.1608 67.7303ZM14.1608 65.509C13.6749 65.509 13.3278 65.9255 13.3278 66.342C13.3278 66.8279 13.7443 67.175 14.1608 67.175C14.6467 67.175 14.9938 66.7585 14.9938 66.342C14.9938 65.856 14.5773 65.4395 14.1608 65.509Z" fill="white"/>
<path opacity="0.61" d="M37.6936 80.6419L6.17814 80.8502C5.90047 80.8502 5.6228 80.5725 5.6228 80.2948C5.6228 80.0172 5.90047 79.7395 6.17814 79.7395L37.6936 79.5312C37.9713 79.5312 38.249 79.8089 38.249 80.0866C38.249 80.4337 37.9713 80.6419 37.6936 80.6419Z" fill="white"/>
<path opacity="0.61" d="M48.1755 80.5726L41.6503 80.642C41.3726 80.642 41.095 80.3643 41.095 80.0867C41.095 79.809 41.3726 79.5313 41.6503 79.5313L48.1755 79.4619C48.4532 79.4619 48.7309 79.7396 48.7309 80.0172C48.7309 80.3643 48.5226 80.5726 48.1755 80.5726Z" fill="#2A2B2D"/>
<path opacity="0.61" d="M37.9016 106.882L6.38615 107.09C6.10848 107.09 5.83081 106.812 5.83081 106.535C5.83081 106.257 6.10848 105.979 6.38615 105.979L37.9016 105.771C38.1793 105.771 38.457 106.049 38.457 106.326C38.457 106.604 38.1793 106.882 37.9016 106.882Z" fill="white"/>
<path opacity="0.61" d="M48.3838 106.812L41.8586 106.882C41.5809 106.882 41.3032 106.604 41.3032 106.326C41.3032 106.049 41.5809 105.771 41.8586 105.771L48.3838 105.702C48.6615 105.702 48.9391 105.979 48.9391 106.257C48.9391 106.535 48.7309 106.812 48.3838 106.812Z" fill="#7E97C9"/>
<path opacity="0.61" d="M37.763 93.2064L6.24748 93.4146C5.96981 93.4146 5.69214 93.137 5.69214 92.8593C5.69214 92.5816 5.96981 92.304 6.24748 92.304L37.763 92.0957C38.0406 92.0957 38.3183 92.3734 38.3183 92.651C38.3183 92.9287 38.11 93.2064 37.763 93.2064Z" fill="#7E97C9"/>
<path opacity="0.61" d="M48.3142 93.0677L41.789 93.1371C41.5113 93.1371 41.2336 92.8595 41.2336 92.5818C41.2336 92.3041 41.5113 92.0264 41.789 92.0264L48.3142 91.957C48.5919 91.957 48.8695 92.2347 48.8695 92.5124C48.8695 92.8594 48.5919 93.0677 48.3142 93.0677Z" fill="white"/>
<path opacity="0.61" d="M59.074 92.9984L52.5487 93.0678C52.2711 93.0678 51.9934 92.7901 51.9934 92.5124C51.9934 92.2348 52.2711 91.9571 52.5487 91.9571L59.074 91.8877C59.3517 91.8877 59.6293 92.1654 59.6293 92.443C59.6293 92.7901 59.3517 92.9984 59.074 92.9984Z" fill="#2A2B2D"/>
<path opacity="0.61" d="M27.2116 86.8895L6.17814 87.0283C5.90047 87.0283 5.6228 86.7507 5.6228 86.473C5.6228 86.1953 5.90047 85.9176 6.17814 85.9176L27.2116 85.7788C27.4893 85.7788 27.7669 86.0565 27.7669 86.3341C27.7669 86.6812 27.4893 86.8895 27.2116 86.8895Z" fill="#2A2B2D"/>
<path opacity="0.61" d="M40.3313 86.8201L31.0988 86.8896C30.8211 86.8896 30.5435 86.6119 30.5435 86.3342C30.5435 86.0566 30.8211 85.7789 31.0988 85.7789L40.3313 85.7095C40.609 85.7095 40.8866 85.9871 40.8866 86.2648C40.8866 86.5425 40.609 86.8201 40.3313 86.8201Z" fill="#F9C8A5"/>
<path opacity="0.61" d="M40.4008 100.01L19.3674 100.148C19.0897 100.148 18.812 99.8708 18.812 99.5931C18.812 99.3154 19.0897 99.0378 19.3674 99.0378L40.4008 98.8989C40.6785 98.8989 40.9561 99.1766 40.9561 99.4543C40.9561 99.7319 40.6785 100.01 40.4008 100.01Z" fill="#2A2B2D"/>
<path opacity="0.61" d="M15.48 100.148L6.24748 100.218C5.96981 100.218 5.69214 99.94 5.69214 99.6623C5.69214 99.3847 5.96981 99.107 6.24748 99.107L15.48 99.0376C15.7577 99.0376 16.0353 99.3153 16.0353 99.5929C16.0353 99.94 15.8271 100.148 15.48 100.148Z" fill="#F9C8A5"/>
<path opacity="0.61" d="M37.9712 115.698L6.45573 115.906C6.17806 115.906 5.90039 115.629 5.90039 115.351C5.90039 115.073 6.17806 114.796 6.45573 114.796L37.9712 114.587C38.2489 114.587 38.5265 114.865 38.5265 115.143C38.5265 115.42 38.2489 115.698 37.9712 115.698Z" fill="#F9C8A5"/>
<path opacity="0.61" d="M48.4531 115.628L41.9279 115.698C41.6502 115.698 41.3726 115.42 41.3726 115.142C41.3726 114.865 41.6502 114.587 41.9279 114.587L48.4531 114.518C48.7308 114.518 49.0085 114.795 49.0085 115.073C49.0085 115.351 48.8002 115.628 48.4531 115.628Z" fill="#2A2B2D"/>
<path opacity="0.61" d="M38.1101 141.868L6.59465 142.076C6.31698 142.076 6.03931 141.799 6.03931 141.521C6.03931 141.243 6.31698 140.966 6.59465 140.966L38.1101 140.757C38.3878 140.757 38.6655 141.035 38.6655 141.313C38.6655 141.66 38.4572 141.868 38.1101 141.868Z" fill="white"/>
<path opacity="0.61" d="M48.6614 141.799L42.1361 141.868C41.8585 141.868 41.5808 141.59 41.5808 141.313C41.5808 141.035 41.8585 140.757 42.1361 140.757L48.6614 140.688C48.9391 140.688 49.2167 140.966 49.2167 141.243C49.2167 141.521 48.9391 141.799 48.6614 141.799Z" fill="#7E97C9"/>
<path opacity="0.61" d="M38.0405 128.193L6.52507 128.401C6.2474 128.401 5.96973 128.124 5.96973 127.846C5.96973 127.568 6.2474 127.291 6.52507 127.291L38.0405 127.083C38.3182 127.083 38.5959 127.36 38.5959 127.638C38.5959 127.916 38.3182 128.193 38.0405 128.193Z" fill="#7E97C9"/>
<path opacity="0.61" d="M48.5227 128.123L41.9975 128.193C41.7198 128.193 41.4421 127.915 41.4421 127.637C41.4421 127.36 41.7198 127.082 41.9975 127.082L48.5227 127.013C48.8004 127.013 49.078 127.29 49.078 127.568C49.078 127.846 48.8698 128.123 48.5227 128.123Z" fill="white"/>
<path opacity="0.61" d="M59.3516 128.054L52.8263 128.123C52.5487 128.123 52.271 127.846 52.271 127.568C52.271 127.29 52.5487 127.013 52.8263 127.013L59.3516 126.943C59.6292 126.943 59.9069 127.221 59.9069 127.499C59.9069 127.776 59.6292 128.054 59.3516 128.054Z" fill="#2A2B2D"/>
<path opacity="0.61" d="M27.4892 121.946L6.45573 122.084C6.17806 122.084 5.90039 121.807 5.90039 121.529C5.90039 121.251 6.17806 120.974 6.45573 120.974L27.4892 120.835C27.7669 120.835 28.0445 121.113 28.0445 121.39C28.0445 121.668 27.7669 121.946 27.4892 121.946Z" fill="#2A2B2D"/>
<path opacity="0.61" d="M40.5396 121.806L31.307 121.876C31.0294 121.876 30.7517 121.598 30.7517 121.321C30.7517 121.043 31.0294 120.765 31.307 120.765L40.5396 120.696C40.8172 120.696 41.0949 120.973 41.0949 121.251C41.0949 121.598 40.8866 121.806 40.5396 121.806Z" fill="#F9C8A5"/>
<path opacity="0.61" d="M40.6784 134.996L19.6449 135.135C19.3673 135.135 19.0896 134.857 19.0896 134.579C19.0896 134.302 19.3673 134.024 19.6449 134.024L40.6784 133.885C40.9561 133.885 41.2337 134.163 41.2337 134.441C41.2337 134.718 40.9561 134.996 40.6784 134.996Z" fill="#2A2B2D"/>
<path opacity="0.61" d="M15.7576 135.204L6.52507 135.273C6.2474 135.273 5.96973 134.996 5.96973 134.718C5.96973 134.44 6.2474 134.163 6.52507 134.163L15.7576 134.093C16.0352 134.093 16.3129 134.371 16.3129 134.649C16.3129 134.926 16.1047 135.204 15.7576 135.204Z" fill="#F9C8A5"/>
<path opacity="0.61" d="M38.1792 149.99L6.66373 150.198C6.38606 150.198 6.1084 149.921 6.1084 149.643C6.1084 149.365 6.38606 149.088 6.66373 149.088L38.1792 148.879C38.4569 148.879 38.7345 149.157 38.7345 149.435C38.7345 149.712 38.5263 149.99 38.1792 149.99Z" fill="#F9C8A5"/>
<path opacity="0.61" d="M48.7307 149.921L42.2055 149.99C41.9278 149.99 41.6501 149.712 41.6501 149.435C41.6501 149.157 41.9278 148.879 42.2055 148.879L48.7307 148.81C49.0084 148.81 49.2861 149.088 49.2861 149.365C49.2861 149.643 49.0084 149.921 48.7307 149.921Z" fill="#2A2B2D"/>
<path opacity="0.61" d="M48.8699 166.442L42.3446 166.511C42.067 166.511 41.7893 166.233 41.7893 165.956C41.7893 165.678 42.067 165.4 42.3446 165.4L48.8699 165.331C49.1475 165.331 49.4252 165.609 49.4252 165.886C49.4252 166.164 49.1475 166.442 48.8699 166.442Z" fill="white"/>
<path opacity="0.61" d="M59.6294 166.372L53.1042 166.442C52.8265 166.442 52.5488 166.164 52.5488 165.886C52.5488 165.609 52.8265 165.331 53.1042 165.331L59.6294 165.262C59.9071 165.262 60.1847 165.539 60.1847 165.817C60.1847 166.095 59.9071 166.372 59.6294 166.372Z" fill="#2A2B2D"/>
<path opacity="0.61" d="M27.6972 156.238L6.66373 156.376C6.38606 156.376 6.1084 156.099 6.1084 155.821C6.1084 155.543 6.38606 155.266 6.66373 155.266L27.6972 155.127C27.9749 155.127 28.2525 155.405 28.2525 155.682C28.3219 155.96 28.0443 156.238 27.6972 156.238Z" fill="#2A2B2D"/>
<path opacity="0.61" d="M40.8174 156.098L31.5849 156.168C31.3072 156.168 31.0295 155.89 31.0295 155.613C31.0295 155.335 31.3072 155.057 31.5849 155.057L40.8174 154.988C41.0951 154.988 41.3727 155.265 41.3727 155.543C41.3727 155.89 41.1645 156.098 40.8174 156.098Z" fill="#F9C8A5"/>
</g>
<path d="M59.2822 9.97502V23.9279V27.1905V65.9948V141.937V180.742V184.004V193.445C59.2822 197.679 61.9895 201.359 65.738 202.747C66.8487 203.163 68.0288 203.372 69.2089 203.372H76.2895H154.315C156.397 203.372 158.341 202.747 159.937 201.636C162.575 199.831 164.241 196.846 164.241 193.445L164.172 10.0444C164.172 6.99007 162.783 4.2828 160.632 2.40853C158.896 0.950766 156.675 0.0483398 154.245 0.0483398L69.1395 0.117761C63.7249 -0.0210733 59.2822 4.49105 59.2822 9.97502Z" fill="#474747"/>
<path d="M59.9998 13.4461V26.9825V30.1063V67.6611V141.105V178.659V181.783V190.946C59.9998 195.042 62.6376 198.582 66.3862 199.971C67.4274 200.387 68.6075 200.595 69.857 200.595H76.8682H153.852C155.935 200.595 157.809 199.971 159.405 198.929C161.974 197.194 163.64 194.278 163.64 191.016L163.57 13.585C163.57 10.6 162.182 7.96216 160.1 6.22672C158.364 4.83838 156.212 4.00537 153.783 4.00537L69.857 4.07479C64.3731 3.79712 59.9998 8.10099 59.9998 13.4461Z" fill="#4D4D4D"/>
<path d="M128.554 15.3532H100.677C99.7858 15.3532 98.9998 14.6196 98.9998 13.6763C98.9998 12.7855 99.7334 11.9995 100.677 11.9995H128.554C129.445 11.9995 130.231 12.7331 130.231 13.6763C130.231 14.5672 129.445 15.3532 128.554 15.3532Z" fill="#2A2B2D"/>
<path d="M94.6766 15.3532C93.7858 15.3532 92.9998 14.6196 92.9998 13.6763C92.9998 12.7855 93.7334 11.9995 94.6766 11.9995C95.5674 11.9995 96.3534 12.7331 96.3534 13.6763C96.3534 14.5672 95.6198 15.3532 94.6766 15.3532Z" fill="#2A2B2D"/>
<path d="M111.5 197C115.642 197 119 193.642 119 189.5C119 185.357 115.642 182 111.5 182C107.358 182 104 185.357 104 189.5C104 193.642 107.358 197 111.5 197Z" fill="#2A2B2D"/>
<path d="M158.827 27.8846L158.896 175.258C158.896 176.577 157.855 177.618 156.536 177.618L67.2651 177.687C65.9461 177.687 64.9049 176.646 64.9049 175.327L64.8354 27.954C64.8354 26.6351 65.8767 25.5938 67.1956 25.5938L156.466 25.5244C157.716 25.5244 158.827 26.6351 158.827 27.8846Z" fill="white"/>
<path d="M158.827 27.8848V37.4644L64.7661 37.5338V27.8848C64.7661 26.6353 65.8074 25.594 67.0569 25.594L156.397 25.5246C157.716 25.4552 158.827 26.5658 158.827 27.8848Z" fill="#7E97C9"/>
<path d="M147.165 30.1063C146.957 30.1063 146.818 29.9674 146.818 29.7592C146.818 29.5509 146.957 29.4121 147.165 29.4121H154.246C154.454 29.4121 154.593 29.5509 154.593 29.7592C154.593 29.9674 154.454 30.1063 154.246 30.1063H147.165Z" fill="white"/>
<path d="M147.165 31.911C146.956 31.911 146.818 31.7721 146.818 31.5639C146.818 31.3556 146.956 31.2168 147.165 31.2168H154.245C154.454 31.2168 154.592 31.3556 154.592 31.5639C154.592 31.7721 154.454 31.911 154.245 31.911H147.165Z" fill="white"/>
<path d="M147.165 33.7161C146.956 33.7161 146.818 33.5773 146.818 33.3691C146.818 33.1608 146.956 33.022 147.165 33.022H154.245C154.454 33.022 154.592 33.1608 154.592 33.3691C154.592 33.5773 154.454 33.7161 154.245 33.7161H147.165Z" fill="white"/>
<path d="M73.1656 34.8265C73.0962 34.8265 72.9574 34.8265 72.888 34.757L70.3195 32.1886C70.1113 31.9803 70.1113 31.6333 70.3195 31.3556L72.7491 28.8566C72.888 28.7177 73.0962 28.7177 73.235 28.8566C73.3739 28.9954 73.3739 29.2037 73.235 29.3425L70.8749 31.7027L73.3739 34.2017C73.5127 34.3405 73.5127 34.5488 73.3739 34.6876C73.3739 34.8265 73.235 34.8265 73.1656 34.8265Z" fill="white"/>
<path opacity="0.36" d="M158.827 37.603H64.9053V68.3549H158.827V37.603Z" fill="#7E97C9"/>
<path opacity="0.43" d="M107.319 51.4172H73.5822C73.0269 51.4172 72.6104 51.0007 72.6104 50.4453V44.7531C72.6104 44.1978 73.0269 43.7812 73.5822 43.7812H107.319C107.874 43.7812 108.291 44.1978 108.291 44.7531V50.4453C108.291 51.0007 107.805 51.4172 107.319 51.4172Z" fill="white"/>
<path opacity="0.43" d="M125.853 59.4693H73.5822C73.0269 59.4693 72.6104 59.0528 72.6104 58.4975V56.6232C72.6104 56.0679 73.0269 55.6514 73.5822 55.6514H125.853C126.409 55.6514 126.825 56.0679 126.825 56.6232V58.4975C126.825 59.0528 126.339 59.4693 125.853 59.4693Z" fill="white"/>
<path opacity="0.43" d="M147.234 58.8449C145.29 58.8449 143.485 58.0813 142.167 56.7624C140.778 55.374 140.084 53.5692 140.084 51.6949C140.084 49.7512 140.848 47.9464 142.167 46.6274C143.555 45.2391 145.36 44.5449 147.234 44.5449C149.178 44.5449 150.983 45.3085 152.301 46.6274C153.69 48.0158 154.384 49.8206 154.384 51.6949C154.384 53.6386 153.62 55.4434 152.301 56.7624C150.983 58.0813 149.178 58.8449 147.234 58.8449ZM147.234 45.7944C145.707 45.7944 144.18 46.4192 143.138 47.5299C142.028 48.6405 141.403 50.0983 141.403 51.6255C141.403 53.1527 142.028 54.6104 143.138 55.7211C144.249 56.8318 145.707 57.4565 147.234 57.4565C148.761 57.4565 150.219 56.8318 151.33 55.7211C152.44 54.6104 153.065 53.1527 153.065 51.6255C153.065 50.0983 152.44 48.6405 151.33 47.5299C150.288 46.4192 148.831 45.7944 147.234 45.7944Z" fill="white"/>
<path d="M91.9085 101.328H76.359C74.6235 101.328 73.1658 99.9396 73.1658 98.1348V82.5853C73.1658 80.8499 74.5541 79.3921 76.359 79.3921H91.9085C93.6439 79.3921 95.1017 80.7804 95.1017 82.5853V98.1348C95.1017 99.9396 93.6439 101.328 91.9085 101.328Z" fill="#6C67AB"/>
<g opacity="0.36">
<path opacity="0.36" d="M88.8543 90.4987C88.8543 93.1366 86.7718 95.2191 84.134 95.2191C81.4961 95.2191 79.4136 93.1366 79.4136 90.4987C79.4136 87.8608 81.4961 85.7783 84.134 85.7783C86.7718 85.7783 88.8543 87.9303 88.8543 90.4987Z" fill="#7E97C9"/>
</g>
<g opacity="0.26">
<path opacity="0.26" d="M111.97 86.8195H99.683C99.2665 86.8195 98.9194 86.4724 98.9194 86.0559V83.6957C98.9194 83.2792 99.2665 82.9321 99.683 82.9321H111.97C112.386 82.9321 112.733 83.2792 112.733 83.6957V86.0559C112.733 86.4724 112.386 86.8195 111.97 86.8195Z" fill="#2A2B2D"/>
<path opacity="0.26" d="M98.9195 92.8586C98.503 92.8586 98.2253 92.5809 98.2253 92.1644C98.2253 91.7479 98.503 91.4702 98.9195 91.4702H122.591C123.007 91.4702 123.285 91.7479 123.285 92.1644C123.285 92.5809 123.007 92.8586 122.591 92.8586H98.9195Z" fill="#2A2B2D"/>
<path opacity="0.26" d="M98.9195 97.7873C98.503 97.7873 98.2253 97.5096 98.2253 97.0931C98.2253 96.6766 98.503 96.3989 98.9195 96.3989H137.516C137.932 96.3989 138.21 96.6766 138.21 97.0931C138.21 97.5096 137.932 97.7873 137.516 97.7873H98.9195Z" fill="#2A2B2D"/>
<path opacity="0.26" d="M127.867 92.8586C127.45 92.8586 127.173 92.5809 127.173 92.1644C127.173 91.7479 127.45 91.4702 127.867 91.4702H151.538C151.955 91.4702 152.232 91.7479 152.232 92.1644C152.232 92.5809 151.955 92.8586 151.538 92.8586H127.867Z" fill="#2A2B2D"/>
</g>
<path d="M91.978 164.914H76.4286C74.6931 164.914 73.2354 163.526 73.2354 161.721V146.172C73.2354 144.436 74.6237 142.979 76.4286 142.979H91.978C93.7135 142.979 95.1712 144.367 95.1712 146.172V161.721C95.1018 163.526 93.7135 164.914 91.978 164.914Z" fill="#7E97C9"/>
<g opacity="0.57">
<path opacity="0.57" d="M88.9234 154.085C88.9234 156.723 86.8409 158.806 84.203 158.806C81.5652 158.806 79.4827 156.723 79.4827 154.085C79.4827 151.447 81.5652 149.365 84.203 149.365C86.7715 149.434 88.9234 151.517 88.9234 154.085Z" fill="#2A2B2D"/>
</g>
<g opacity="0.26">
<path opacity="0.26" d="M112.039 150.406H99.7524C99.3358 150.406 98.9888 150.059 98.9888 149.643V147.283C98.9888 146.866 99.3358 146.519 99.7524 146.519H112.039C112.456 146.519 112.803 146.866 112.803 147.283V149.643C112.803 150.059 112.456 150.406 112.039 150.406Z" fill="#2A2B2D"/>
<path opacity="0.26" d="M98.9193 156.445C98.5028 156.445 98.2251 156.168 98.2251 155.751C98.2251 155.335 98.5028 155.057 98.9193 155.057H122.591C123.007 155.057 123.285 155.335 123.285 155.751C123.285 156.168 123.007 156.445 122.591 156.445H98.9193Z" fill="#2A2B2D"/>
<path opacity="0.26" d="M98.9193 161.374C98.5028 161.374 98.2251 161.097 98.2251 160.68C98.2251 160.264 98.5028 159.986 98.9193 159.986H137.515C137.932 159.986 138.209 160.264 138.209 160.68C138.209 161.097 137.932 161.374 137.515 161.374H98.9193Z" fill="#2A2B2D"/>
<path opacity="0.26" d="M127.867 156.445C127.45 156.445 127.172 156.168 127.172 155.751C127.172 155.335 127.45 155.057 127.867 155.057H151.538C151.954 155.057 152.232 155.335 152.232 155.751C152.232 156.168 151.954 156.445 151.538 156.445H127.867Z" fill="#2A2B2D"/>
</g>
<path d="M91.978 133.052H76.4286C74.6931 133.052 73.2354 131.663 73.2354 129.858V114.309C73.2354 112.573 74.6237 111.116 76.4286 111.116H91.978C93.7135 111.116 95.1712 112.504 95.1712 114.309V129.858C95.1018 131.663 93.7135 133.052 91.978 133.052Z" fill="#F9C8A5"/>
<path opacity="0.43" d="M84.203 126.943C86.81 126.943 88.9234 124.83 88.9234 122.223C88.9234 119.616 86.81 117.502 84.203 117.502C81.5961 117.502 79.4827 119.616 79.4827 122.223C79.4827 124.83 81.5961 126.943 84.203 126.943Z" fill="white"/>
<g opacity="0.26">
<path opacity="0.26" d="M111.97 118.544H99.6828C99.2663 118.544 98.9192 118.197 98.9192 117.78V115.42C98.9192 115.003 99.2663 114.656 99.6828 114.656H111.97C112.386 114.656 112.733 115.003 112.733 115.42V117.78C112.803 118.197 112.456 118.544 111.97 118.544Z" fill="#2A2B2D"/>
<path opacity="0.26" d="M98.9193 124.583C98.5028 124.583 98.2251 124.305 98.2251 123.889C98.2251 123.472 98.5028 123.194 98.9193 123.194H109.887C110.304 123.194 110.581 123.472 110.581 123.889C110.581 124.305 110.304 124.583 109.887 124.583H98.9193Z" fill="#2A2B2D"/>
<path opacity="0.26" d="M98.9193 129.511C98.5028 129.511 98.2251 129.234 98.2251 128.817C98.2251 128.401 98.5028 128.123 98.9193 128.123H121.41C121.827 128.123 122.105 128.401 122.105 128.817C122.105 129.234 121.827 129.511 121.41 129.511H98.9193Z" fill="#2A2B2D"/>
<path opacity="0.26" d="M114.469 124.583C114.052 124.583 113.774 124.305 113.774 123.889C113.774 123.472 114.052 123.194 114.469 123.194H136.335C136.752 123.194 137.029 123.472 137.029 123.889C137.029 124.305 136.752 124.583 136.335 124.583H114.469Z" fill="#2A2B2D"/>
<path opacity="0.26" d="M140.362 124.514C139.945 124.514 139.667 124.236 139.667 123.82C139.667 123.403 139.945 123.125 140.362 123.125H151.33C151.746 123.125 152.024 123.403 152.024 123.82C152.024 124.236 151.746 124.514 151.33 124.514H140.362Z" fill="#2A2B2D"/>
</g>
<path opacity="0.39" d="M230.118 133.399L231.021 208.161C231.021 209.48 229.979 210.591 228.66 210.591L184.233 211.146C182.914 211.146 181.804 210.105 181.804 208.786L180.901 134.024C180.901 132.705 181.943 131.594 183.262 131.594L227.689 131.039C229.008 131.039 230.118 132.08 230.118 133.399Z" fill="white"/>
<path opacity="0.39" d="M230.118 133.399L231.021 208.161C231.021 209.48 229.979 210.591 228.66 210.591L184.233 211.146C182.914 211.146 181.804 210.105 181.804 208.786L180.901 134.024C180.901 132.705 181.943 131.594 183.262 131.594L227.689 131.039C229.008 131.039 230.118 132.08 230.118 133.399Z" fill="#F9C8A5"/>
<path d="M230.326 133.399L230.396 137.217L181.248 137.842L181.179 133.885C181.179 132.635 182.151 131.594 183.4 131.594L227.897 131.039C229.215 130.969 230.257 132.08 230.326 133.399Z" fill="#F9C8A5"/>
<path d="M184.511 135.551C183.956 135.551 183.47 135.134 183.47 134.579C183.47 134.024 183.886 133.538 184.442 133.538C184.997 133.538 185.483 133.954 185.483 134.509C185.483 135.134 185.066 135.551 184.511 135.551ZM184.511 133.954C184.164 133.954 183.886 134.232 183.886 134.579C183.886 134.926 184.164 135.204 184.511 135.204C184.858 135.204 185.136 134.926 185.136 134.579C185.136 134.232 184.858 133.954 184.511 133.954Z" fill="white"/>
<path d="M187.912 135.551C187.357 135.551 186.871 135.134 186.871 134.579C186.871 134.024 187.288 133.538 187.843 133.538C188.398 133.538 188.884 133.954 188.884 134.509C188.884 135.065 188.468 135.551 187.912 135.551ZM187.843 133.954C187.496 133.954 187.218 134.232 187.218 134.579C187.218 134.926 187.496 135.204 187.843 135.204C188.19 135.204 188.468 134.926 188.468 134.579C188.468 134.232 188.19 133.954 187.843 133.954Z" fill="white"/>
<path d="M191.175 135.551C190.619 135.551 190.134 135.134 190.134 134.579C190.134 134.024 190.55 133.538 191.105 133.538C191.661 133.538 192.147 133.954 192.147 134.509C192.216 135.065 191.73 135.551 191.175 135.551ZM191.175 133.885C190.828 133.885 190.55 134.162 190.55 134.509C190.55 134.857 190.828 135.134 191.175 135.134C191.522 135.134 191.8 134.857 191.8 134.509C191.8 134.162 191.522 133.885 191.175 133.885Z" fill="white"/>
<path d="M208.113 144.853L185.413 144.992C185.205 144.992 184.997 144.784 184.997 144.575C184.997 144.367 185.205 144.159 185.413 144.159L208.113 144.02C208.321 144.02 208.529 144.228 208.529 144.437C208.529 144.645 208.321 144.853 208.113 144.853Z" fill="white"/>
<path d="M215.679 144.783L210.959 144.853C210.751 144.853 210.542 144.644 210.542 144.436C210.542 144.228 210.751 144.02 210.959 144.02L215.679 143.95C215.888 143.95 216.096 144.158 216.096 144.367C216.096 144.575 215.888 144.783 215.679 144.783Z" fill="white"/>
<path d="M208.252 163.734L185.552 163.873C185.344 163.873 185.136 163.665 185.136 163.457C185.136 163.248 185.344 163.04 185.552 163.04L208.252 162.901C208.46 162.901 208.668 163.11 208.668 163.318C208.668 163.526 208.46 163.734 208.252 163.734Z" fill="white"/>
<path d="M215.818 163.665L211.098 163.734C210.889 163.734 210.681 163.526 210.681 163.318C210.681 163.11 210.889 162.901 211.098 162.901L215.818 162.832C216.026 162.832 216.235 163.04 216.235 163.249C216.235 163.457 216.026 163.665 215.818 163.665Z" fill="white"/>
<path d="M208.182 153.877L185.483 154.016C185.274 154.016 185.066 153.808 185.066 153.599C185.066 153.391 185.274 153.183 185.483 153.183L208.182 153.044C208.39 153.044 208.599 153.252 208.599 153.46C208.599 153.669 208.39 153.877 208.182 153.877Z" fill="white"/>
<path d="M215.748 153.808L211.028 153.877C210.82 153.877 210.612 153.669 210.612 153.461C210.612 153.252 210.82 153.044 211.028 153.044L215.748 152.975C215.957 152.975 216.165 153.183 216.165 153.391C216.165 153.599 215.957 153.808 215.748 153.808Z" fill="white"/>
<path d="M223.523 153.738L218.803 153.808C218.595 153.808 218.386 153.599 218.386 153.391C218.386 153.183 218.595 152.975 218.803 152.975L223.523 152.905C223.732 152.905 223.94 153.114 223.94 153.322C223.94 153.53 223.732 153.738 223.523 153.738Z" fill="white"/>
<path d="M200.546 149.365L185.413 149.504C185.205 149.504 184.997 149.296 184.997 149.088C184.997 148.879 185.205 148.671 185.413 148.671L200.546 148.532C200.755 148.532 200.963 148.74 200.963 148.949C200.963 149.157 200.824 149.365 200.546 149.365Z" fill="white"/>
<path d="M209.987 149.295L203.323 149.365C203.115 149.365 202.906 149.157 202.906 148.948C202.906 148.74 203.115 148.532 203.323 148.532L209.987 148.462C210.195 148.462 210.404 148.671 210.404 148.879C210.404 149.087 210.195 149.295 209.987 149.295Z" fill="white"/>
<path d="M210.057 158.736L194.924 158.875C194.715 158.875 194.507 158.667 194.507 158.459C194.507 158.25 194.715 158.042 194.924 158.042L210.057 157.903C210.265 157.903 210.473 158.112 210.473 158.32C210.473 158.597 210.265 158.736 210.057 158.736Z" fill="white"/>
<path d="M192.147 158.875L185.483 158.944C185.274 158.944 185.066 158.736 185.066 158.528C185.066 158.32 185.274 158.111 185.483 158.111L192.147 158.042C192.355 158.042 192.563 158.25 192.563 158.459C192.563 158.736 192.355 158.875 192.147 158.875Z" fill="white"/>
<path d="M208.321 170.051L185.622 170.19C185.413 170.19 185.205 169.982 185.205 169.774C185.205 169.565 185.413 169.357 185.622 169.357L208.321 169.218C208.529 169.218 208.738 169.427 208.738 169.635C208.668 169.912 208.529 170.051 208.321 170.051Z" fill="white"/>
<path d="M215.888 169.982L211.167 170.051C210.959 170.051 210.751 169.843 210.751 169.635C210.751 169.427 210.959 169.218 211.167 169.218L215.888 169.149C216.096 169.149 216.304 169.357 216.304 169.565C216.304 169.843 216.096 169.982 215.888 169.982Z" fill="white"/>
<path d="M208.46 188.933L185.76 189.072C185.552 189.072 185.344 188.864 185.344 188.655C185.344 188.447 185.552 188.239 185.76 188.239L208.46 188.1C208.668 188.1 208.876 188.308 208.876 188.517C208.876 188.725 208.668 188.933 208.46 188.933Z" fill="white"/>
<path d="M216.027 188.863L211.306 188.933C211.098 188.933 210.89 188.724 210.89 188.516C210.89 188.308 211.098 188.1 211.306 188.1L216.027 188.03C216.235 188.03 216.443 188.239 216.443 188.447C216.443 188.724 216.235 188.863 216.027 188.863Z" fill="white"/>
<path d="M208.39 179.076L185.691 179.215C185.483 179.215 185.274 179.006 185.274 178.798C185.274 178.59 185.483 178.382 185.691 178.382L208.39 178.243C208.599 178.243 208.807 178.451 208.807 178.659C208.807 178.867 208.599 179.076 208.39 179.076Z" fill="white"/>
<path d="M215.957 179.006L211.237 179.075C211.028 179.075 210.82 178.867 210.82 178.659C210.82 178.451 211.028 178.242 211.237 178.242L215.957 178.173C216.165 178.173 216.373 178.381 216.373 178.589C216.373 178.798 216.165 179.006 215.957 179.006Z" fill="white"/>
<path d="M223.732 178.937L219.011 179.006C218.803 179.006 218.595 178.798 218.595 178.59C218.595 178.382 218.803 178.173 219.011 178.173L223.732 178.104C223.94 178.104 224.148 178.312 224.148 178.52C224.079 178.798 223.94 178.937 223.732 178.937Z" fill="white"/>
<path d="M200.755 174.563L185.622 174.702C185.413 174.702 185.205 174.494 185.205 174.286C185.205 174.078 185.413 173.869 185.622 173.869L200.755 173.73C200.963 173.73 201.171 173.939 201.171 174.147C201.171 174.355 200.963 174.563 200.755 174.563Z" fill="white"/>
<path d="M210.195 174.494L203.531 174.563C203.323 174.563 203.115 174.355 203.115 174.147C203.115 173.938 203.323 173.73 203.531 173.73L210.195 173.661C210.404 173.661 210.612 173.869 210.612 174.077C210.612 174.285 210.404 174.494 210.195 174.494Z" fill="white"/>
<path d="M210.265 184.004L195.132 184.143C194.923 184.143 194.715 183.935 194.715 183.727C194.715 183.518 194.923 183.31 195.132 183.31L210.265 183.171C210.473 183.171 210.681 183.38 210.681 183.588C210.681 183.796 210.473 184.004 210.265 184.004Z" fill="white"/>
<path d="M192.355 184.074L185.691 184.143C185.483 184.143 185.274 183.935 185.274 183.727C185.274 183.518 185.483 183.31 185.691 183.31L192.355 183.241C192.563 183.241 192.771 183.449 192.771 183.657C192.702 183.935 192.563 184.074 192.355 184.074Z" fill="white"/>
<path d="M208.46 194.764L185.76 194.903C185.552 194.903 185.344 194.694 185.344 194.486C185.344 194.278 185.552 194.07 185.76 194.07L208.46 193.931C208.668 193.931 208.876 194.139 208.876 194.347C208.876 194.555 208.737 194.764 208.46 194.764Z" fill="white"/>
<path d="M216.027 194.694L211.306 194.764C211.098 194.764 210.89 194.556 210.89 194.347C210.89 194.139 211.098 193.931 211.306 193.931L216.027 193.861C216.235 193.861 216.443 194.07 216.443 194.278C216.443 194.556 216.304 194.694 216.027 194.694Z" fill="white"/>
<path d="M216.165 206.634L211.445 206.704C211.237 206.704 211.028 206.495 211.028 206.287C211.028 206.079 211.237 205.871 211.445 205.871L216.165 205.801C216.373 205.801 216.582 206.01 216.582 206.218C216.582 206.426 216.373 206.634 216.165 206.634Z" fill="white"/>
<path d="M223.94 206.565L219.219 206.634C219.011 206.634 218.803 206.426 218.803 206.218C218.803 206.01 219.011 205.801 219.219 205.801L223.94 205.732C224.148 205.732 224.356 205.94 224.356 206.148C224.287 206.357 224.148 206.565 223.94 206.565Z" fill="white"/>
<path d="M200.963 199.276L185.83 199.415C185.622 199.415 185.413 199.206 185.413 198.998C185.413 198.79 185.622 198.582 185.83 198.582L200.963 198.443C201.171 198.443 201.379 198.651 201.379 198.859C201.379 199.068 201.171 199.276 200.963 199.276Z" fill="white"/>
<path d="M210.403 199.207L203.739 199.276C203.531 199.276 203.323 199.068 203.323 198.859C203.323 198.651 203.531 198.443 203.739 198.443L210.403 198.374C210.612 198.374 210.82 198.582 210.82 198.79C210.75 198.998 210.612 199.207 210.403 199.207Z" fill="white"/>
<path d="M240.809 15.2509L241.711 104.66C241.711 105.979 240.67 107.021 239.351 107.09L185.9 107.645C184.581 107.645 183.539 106.604 183.47 105.285L182.568 15.8062C182.568 14.4873 183.609 13.446 184.928 13.3766L238.379 12.8213C239.698 12.8213 240.739 13.932 240.809 15.2509Z" fill="white"/>
<path d="M240.948 15.1815L241.018 20.1795L182.776 20.8043L182.707 15.6674C182.707 14.4179 183.679 13.3766 184.998 13.3766L238.519 12.8213C239.907 12.8213 240.948 13.8626 240.948 15.1815Z" fill="#7E97C9"/>
<path d="M233.798 15.8754C233.59 15.8754 233.451 15.7366 233.451 15.5283C233.451 15.3201 233.59 15.1812 233.798 15.1812L238.172 15.1118C238.31 15.1118 238.519 15.2507 238.519 15.4589C238.519 15.6672 238.38 15.806 238.172 15.806L233.798 15.8754Z" fill="white"/>
<path d="M233.798 16.9862C233.589 16.9862 233.45 16.8474 233.45 16.6392C233.45 16.4309 233.589 16.2921 233.798 16.2921L238.171 16.2227C238.31 16.2227 238.518 16.3615 238.518 16.5697C238.518 16.778 238.379 16.9168 238.171 16.9168L233.798 16.9862Z" fill="white"/>
<path d="M233.798 18.0971C233.589 18.0971 233.45 17.9583 233.45 17.75C233.45 17.5417 233.589 17.4029 233.798 17.4029L238.171 17.3335C238.379 17.3335 238.518 17.4723 238.518 17.6806C238.518 17.8888 238.379 18.0277 238.171 18.0277L233.798 18.0971Z" fill="white"/>
<path d="M187.982 19.2771C187.913 19.2771 187.774 19.2771 187.774 19.2077L186.177 17.6111C185.969 17.4029 185.969 17.1252 186.177 16.9169L187.704 15.3898C187.843 15.2509 188.051 15.2509 188.19 15.3898C188.329 15.5286 188.329 15.7369 188.19 15.8757L186.802 17.264L188.26 18.6524C188.399 18.7912 188.399 18.9995 188.26 19.1383C188.19 19.2077 188.051 19.2771 187.982 19.2771Z" fill="white"/>
<path opacity="0.36" d="M239.212 107.229L185.553 107.507C184.234 107.507 183.193 106.466 183.193 105.147L183.054 86.5429L241.364 86.1958L241.503 104.8C241.573 106.188 240.531 107.229 239.212 107.229Z" fill="#7E97C9"/>
<path d="M223.663 33.4384L200.2 33.5772C199.783 33.5772 199.436 33.2301 199.436 32.8136V30.2452C199.436 29.8287 199.783 29.4816 200.2 29.4816L223.663 29.3428C224.079 29.3428 224.426 29.6899 224.426 30.1064V32.6748C224.496 33.0913 224.149 33.4384 223.663 33.4384Z" fill="#6C67AB"/>
<path opacity="0.32" d="M231.16 50.2372L192.98 50.4455C191.176 50.4455 189.718 48.9877 189.648 47.1829V46.3498C189.648 44.545 191.106 43.0872 192.911 43.0178L231.091 42.8096C232.895 42.8096 234.353 44.2673 234.423 46.0722V46.9052C234.423 48.7795 232.965 50.2372 231.16 50.2372Z" fill="#7E97C9"/>
<path opacity="0.43" d="M195.827 46.7664C195.827 48.0159 194.855 49.0571 193.536 49.0571C192.286 49.0571 191.245 48.0853 191.245 46.7664C191.245 45.5168 192.217 44.4756 193.536 44.4756C194.785 44.545 195.827 45.5168 195.827 46.7664Z" fill="white"/>
<path d="M194.369 46.1416C194.369 46.6275 194.022 46.9746 193.536 46.9746C193.05 46.9746 192.703 46.6275 192.703 46.1416C192.703 45.6557 193.05 45.3086 193.536 45.3086C193.952 45.3086 194.369 45.6557 194.369 46.1416Z" fill="white"/>
<path d="M194.785 48.224H192.356V47.9463C192.356 47.2521 192.911 46.6968 193.605 46.6968C194.23 46.6968 194.785 47.1827 194.785 47.8075V48.224Z" fill="white"/>
<path opacity="0.32" d="M231.229 62.2465L193.05 62.4548C191.245 62.4548 189.787 60.997 189.718 59.1921V58.3591C189.718 56.5543 191.175 55.0965 192.98 55.0271L231.16 54.8188C232.965 54.8188 234.422 56.2766 234.492 58.0815V58.9145C234.492 60.7887 233.034 62.2465 231.229 62.2465Z" fill="#7E97C9"/>
<path opacity="0.43" d="M195.896 58.7756C195.896 60.0251 194.924 61.0664 193.605 61.0664C192.355 61.0664 191.314 60.0946 191.314 58.7756C191.314 57.5261 192.286 56.4849 193.605 56.4849C194.854 56.5543 195.896 57.5261 195.896 58.7756Z" fill="white"/>
<path d="M194.368 60.2331H192.841C192.702 60.2331 192.632 60.1637 192.632 60.0248V58.6365C192.632 58.4976 192.702 58.4282 192.841 58.4282H194.368C194.507 58.4282 194.576 58.4976 194.576 58.6365V60.0248C194.576 60.1637 194.507 60.2331 194.368 60.2331Z" fill="white"/>
<path d="M192.772 58.5672V58.0119C192.772 57.873 192.841 57.7342 192.911 57.5954C193.05 57.4566 193.188 57.4565 193.327 57.4565H193.813C193.952 57.4565 194.091 57.526 194.16 57.5954C194.23 57.6648 194.299 57.8036 194.299 57.9425V58.5672H194.091V57.9425C194.091 57.8731 194.091 57.8036 194.021 57.7342C193.952 57.6648 193.883 57.6648 193.813 57.6648H193.327C193.258 57.6648 193.119 57.7342 193.05 57.8036C192.98 57.873 192.911 57.9425 192.911 58.0813V58.6366L192.772 58.5672Z" fill="white"/>
<path d="M221.164 75.7135L204.712 75.783C202.699 75.783 201.102 74.1864 201.102 72.1733C201.102 70.1602 202.699 68.5636 204.712 68.5636L221.164 68.4941C223.177 68.4941 224.774 70.0907 224.774 72.1038C224.774 74.0475 223.177 75.6441 221.164 75.7135Z" fill="#F9C8A5"/>
<path d="M196.382 94.248C196.035 94.248 195.688 93.9703 195.688 93.5538C195.688 93.1373 195.965 92.8596 196.382 92.8596L228.244 92.6514C228.591 92.6514 228.938 92.929 228.938 93.3455C228.938 93.762 228.661 94.0397 228.244 94.0397L196.382 94.248Z" fill="white"/>
<path d="M202.838 99.0379C202.491 99.0379 202.144 98.7603 202.144 98.3437C202.144 97.9272 202.421 97.6496 202.838 97.6496L221.789 97.5107C222.136 97.5107 222.483 97.7884 222.483 98.2049C222.483 98.6214 222.205 98.8991 221.789 98.8991L202.838 99.0379Z" fill="white"/>
<path d="M200.061 75.9212L200.963 165.331C200.963 166.65 199.922 167.691 198.603 167.76L145.152 168.316C143.833 168.316 142.791 167.274 142.722 165.956L141.82 76.546C141.82 75.227 142.861 74.1858 144.18 74.1164L197.631 73.561C198.95 73.561 200.061 74.6023 200.061 75.9212Z" fill="white"/>
<path opacity="0.42" d="M200.061 75.9212L200.963 165.331C200.963 166.65 199.922 167.691 198.603 167.76L145.152 168.316C143.833 168.316 142.791 167.274 142.722 165.956L141.82 76.546C141.82 75.227 142.861 74.1858 144.18 74.1164L197.631 73.561C198.95 73.561 200.061 74.6023 200.061 75.9212Z" fill="#7E97C9"/>
<path d="M200.269 75.9219L200.339 80.9199L142.098 81.5447L142.028 76.4078C142.028 75.1583 143 74.117 144.319 74.117L197.84 73.5617C199.159 73.4923 200.269 74.6029 200.269 75.9219Z" fill="#7E97C9"/>
<path d="M193.049 76.6156C192.841 76.6156 192.702 76.4768 192.702 76.2686C192.702 76.0603 192.841 75.9215 193.049 75.9215L197.423 75.8521C197.561 75.8521 197.77 75.9909 197.77 76.1991C197.77 76.4074 197.631 76.5462 197.423 76.5462L193.049 76.6156Z" fill="white"/>
<path d="M193.119 77.7265C192.91 77.7265 192.771 77.5877 192.771 77.3794C192.771 77.1711 192.91 77.0323 193.119 77.0323L197.492 76.9629C197.7 76.9629 197.839 77.1017 197.839 77.31C197.839 77.5182 197.7 77.6571 197.492 77.6571L193.119 77.7265Z" fill="white"/>
<path d="M193.119 78.8373C192.91 78.8373 192.771 78.6985 192.771 78.4902C192.771 78.282 192.91 78.1431 193.119 78.1431L197.492 78.0737C197.7 78.0737 197.839 78.2126 197.839 78.4208C197.839 78.6291 197.7 78.7679 197.492 78.7679L193.119 78.8373Z" fill="white"/>
<path d="M147.303 79.948C147.234 79.948 147.095 79.948 147.095 79.8786L145.498 78.282C145.29 78.0738 145.29 77.7961 145.498 77.5878L147.025 76.0607C147.164 75.9218 147.372 75.9218 147.511 76.0607C147.65 76.1995 147.65 76.4078 147.511 76.5466L146.123 77.9349L147.581 79.3233C147.72 79.4621 147.72 79.6704 147.581 79.8092C147.442 79.948 147.373 79.948 147.303 79.948Z" fill="white"/>
<g opacity="0.36">
<path opacity="0.36" d="M198.533 167.969L144.874 168.247C143.555 168.247 142.514 167.205 142.514 165.886L142.375 147.283L200.685 146.936L200.824 165.539C200.824 166.858 199.783 167.969 198.533 167.969Z" fill="white"/>
<path opacity="0.36" d="M144.874 168.594C144.18 168.594 143.485 168.316 142.999 167.83C142.514 167.344 142.236 166.65 142.166 165.956L142.028 147.005L201.032 146.658L201.171 165.609C201.171 167.066 199.991 168.316 198.464 168.316L144.874 168.594ZM142.722 147.699L142.791 165.956C142.791 166.511 142.999 166.997 143.416 167.344C143.763 167.691 144.318 167.899 144.804 167.899L198.464 167.622C199.575 167.622 200.477 166.719 200.477 165.609L200.408 147.352L142.722 147.699Z" fill="white"/>
</g>
<path d="M194.091 95.2893L152.024 95.2199C151.261 95.2199 150.636 94.5951 150.705 93.8315V89.6665C150.705 88.9029 151.33 88.2781 152.094 88.3476L194.161 88.417C194.924 88.417 195.549 89.0417 195.48 89.8053V93.9704C195.41 94.6645 194.855 95.2893 194.091 95.2893Z" fill="white"/>
<path d="M194.3 100.635L151.816 100.565C151.191 100.565 150.706 100.079 150.706 99.4544C150.706 98.8297 151.191 98.3438 151.816 98.3438L194.3 98.4132C194.924 98.4132 195.41 98.8991 195.41 99.5238C195.41 100.149 194.924 100.635 194.3 100.635Z" fill="white"/>
<path d="M194.3 105.91L151.816 105.841C151.191 105.841 150.706 105.355 150.706 104.73C150.706 104.106 151.191 103.62 151.816 103.62L194.3 103.689C194.924 103.689 195.41 104.175 195.41 104.8C195.41 105.424 194.924 105.91 194.3 105.91Z" fill="white"/>
<path d="M156.398 113.685C156.398 115.282 155.079 116.531 153.482 116.531C151.886 116.531 150.636 115.212 150.636 113.616C150.636 112.019 151.955 110.77 153.552 110.77C155.148 110.77 156.398 112.088 156.398 113.685Z" fill="#F9C8A5"/>
<path d="M156.398 126.735C156.398 128.332 155.079 129.581 153.482 129.581C151.886 129.581 150.636 128.263 150.636 126.666C150.636 125.069 151.955 123.82 153.552 123.82C155.148 123.82 156.398 125.139 156.398 126.735Z" fill="#F9C8A5"/>
<path d="M156.398 139.369C156.398 140.966 155.079 142.215 153.482 142.215C151.886 142.215 150.636 140.896 150.636 139.3C150.636 137.703 151.955 136.454 153.552 136.454C155.079 136.523 156.398 137.773 156.398 139.369Z" fill="#F9C8A5"/>
<path d="M185.623 112.644H158.064C157.856 112.644 157.717 112.505 157.717 112.297C157.717 112.089 157.856 111.95 158.064 111.95H185.623C185.831 111.95 185.97 112.089 185.97 112.297C185.97 112.505 185.761 112.644 185.623 112.644Z" fill="white"/>
<path d="M171.809 115.559H158.064C157.856 115.559 157.717 115.42 157.717 115.212C157.717 115.004 157.856 114.865 158.064 114.865H171.809C172.017 114.865 172.156 115.004 172.156 115.212C172.156 115.42 172.017 115.559 171.809 115.559Z" fill="white"/>
<path d="M185.553 126.111H157.994C157.786 126.111 157.647 125.972 157.647 125.764C157.647 125.555 157.786 125.417 157.994 125.417H185.553C185.761 125.417 185.9 125.555 185.9 125.764C185.9 125.972 185.761 126.111 185.553 126.111Z" fill="white"/>
<path d="M171.809 129.026H158.064C157.856 129.026 157.717 128.887 157.717 128.679C157.717 128.47 157.856 128.332 158.064 128.332H171.809C172.017 128.332 172.156 128.47 172.156 128.679C172.156 128.887 172.017 129.026 171.809 129.026Z" fill="white"/>
<path d="M185.553 138.397H157.994C157.786 138.397 157.647 138.258 157.647 138.05C157.647 137.842 157.786 137.703 157.994 137.703H185.553C185.761 137.703 185.9 137.842 185.9 138.05C185.9 138.258 185.761 138.397 185.553 138.397Z" fill="white"/>
<path d="M171.809 141.313H158.064C157.856 141.313 157.717 141.174 157.717 140.966C157.717 140.757 157.856 140.619 158.064 140.619H171.809C172.017 140.619 172.156 140.757 172.156 140.966C172.156 141.174 172.017 141.313 171.809 141.313Z" fill="white"/>
<path d="M155.634 154.988C155.287 154.988 154.939 154.711 154.939 154.294C154.939 153.878 155.217 153.6 155.634 153.6L187.496 153.392C187.843 153.392 188.19 153.669 188.19 154.086C188.19 154.502 187.913 154.78 187.496 154.78L155.634 154.988C155.703 154.988 155.634 154.988 155.634 154.988Z" fill="white"/>
<path d="M162.159 159.778C161.812 159.778 161.465 159.5 161.465 159.083C161.465 158.667 161.742 158.389 162.159 158.389L181.11 158.25C181.457 158.25 181.804 158.528 181.804 158.945C181.804 159.361 181.526 159.639 181.11 159.639L162.159 159.778Z" fill="white"/>
<path d="M77.1224 60.9966H27.3502C26.7254 60.9966 26.2395 60.5107 26.2395 59.8859V45.4471C26.2395 44.8224 26.7254 44.3364 27.3502 44.3364H77.1224C77.7472 44.3364 78.2331 44.8224 78.2331 45.4471V59.8859C78.2331 60.5107 77.7472 60.9966 77.1224 60.9966Z" fill="#7E97C9"/>
<path d="M34.9865 57.7337C32.0015 57.7337 29.6414 55.3041 29.6414 52.3886C29.6414 49.4037 32.071 47.0435 34.9865 47.0435C37.9714 47.0435 40.3316 49.4731 40.3316 52.3886C40.3316 55.3041 37.902 57.7337 34.9865 57.7337Z" fill="#F9C8A5"/>
<path d="M34.5005 54.4016L32.4874 51.6249C32.3486 51.4167 32.3486 51.0696 32.6263 50.8613C32.7651 50.7919 32.9039 50.7225 33.0428 50.7919C33.1816 50.7919 33.3204 50.8613 33.3899 51.0002L34.6394 52.805L41.0258 46.4186C41.0952 46.3492 41.234 46.2798 41.3729 46.2798C41.5117 46.2798 41.6505 46.3492 41.7199 46.4186C41.9282 46.6269 41.9282 46.974 41.7199 47.1822L34.5005 54.4016Z" fill="white"/>
<path opacity="0.38" d="M71.4998 50.2367H44.913C44.7048 50.2367 44.5659 50.0978 44.5659 49.8896C44.5659 49.6813 44.7048 49.5425 44.913 49.5425H71.4998C71.7081 49.5425 71.8469 49.6813 71.8469 49.8896C71.8469 50.0978 71.7081 50.2367 71.4998 50.2367Z" fill="white"/>
<path opacity="0.38" d="M56.7834 53.43H44.913C44.7048 53.43 44.5659 53.2912 44.5659 53.0829C44.5659 52.8747 44.7048 52.7358 44.913 52.7358H56.7834C56.9916 52.7358 57.1305 52.8747 57.1305 53.0829C57.1305 53.2218 56.9916 53.43 56.7834 53.43Z" fill="white"/>
<path opacity="0.38" d="M71.4999 53.43H59.6296C59.4213 53.43 59.2825 53.2912 59.2825 53.0829C59.2825 52.8747 59.4213 52.7358 59.6296 52.7358H71.4999C71.7082 52.7358 71.847 52.8747 71.847 53.0829C71.847 53.2218 71.7082 53.43 71.4999 53.43Z" fill="white"/>
<path opacity="0.38" d="M71.4998 56.6922H44.913C44.7048 56.6922 44.5659 56.5534 44.5659 56.3451C44.5659 56.1369 44.7048 55.998 44.913 55.998H71.4998C71.7081 55.998 71.8469 56.1369 71.8469 56.3451C71.8469 56.5534 71.7081 56.6922 71.4998 56.6922Z" fill="white"/>
<path d="M267.465 137.772H217.693C217.068 137.772 216.582 137.286 216.582 136.661V122.222C216.582 121.598 217.068 121.112 217.693 121.112H267.465C268.09 121.112 268.576 121.598 268.576 122.222V136.661C268.576 137.286 268.021 137.772 267.465 137.772Z" fill="#7E97C9"/>
<path d="M225.329 134.441C222.344 134.441 219.983 132.011 219.983 129.096C219.983 126.111 222.413 123.75 225.329 123.75C228.244 123.75 230.674 126.18 230.674 129.096C230.674 132.081 228.244 134.441 225.329 134.441Z" fill="#F9C8A5"/>
<path d="M224.842 131.109L222.829 128.332C222.76 128.193 222.691 128.054 222.76 127.915C222.76 127.776 222.829 127.638 222.968 127.568C223.107 127.499 223.246 127.429 223.385 127.499C223.524 127.499 223.662 127.568 223.732 127.707L224.981 129.442L231.368 123.056C231.576 122.848 231.923 122.848 232.131 123.056C232.34 123.264 232.34 123.611 232.131 123.82L224.842 131.109Z" fill="white"/>
<path opacity="0.38" d="M261.842 127.013H235.255C235.047 127.013 234.908 126.874 234.908 126.665C234.908 126.457 235.047 126.318 235.255 126.318H261.842C262.05 126.318 262.189 126.457 262.189 126.665C262.189 126.874 262.05 127.013 261.842 127.013Z" fill="white"/>
<path opacity="0.38" d="M247.126 130.136H235.255C235.047 130.136 234.908 129.997 234.908 129.789C234.908 129.581 235.047 129.442 235.255 129.442H247.126C247.334 129.442 247.473 129.581 247.473 129.789C247.473 129.997 247.334 130.136 247.126 130.136Z" fill="white"/>
<path opacity="0.38" d="M261.842 130.136H249.972C249.764 130.136 249.625 129.997 249.625 129.789C249.625 129.581 249.764 129.442 249.972 129.442H261.842C262.051 129.442 262.19 129.581 262.19 129.789C262.19 129.997 262.051 130.136 261.842 130.136Z" fill="white"/>
<path opacity="0.38" d="M261.842 133.468H235.255C235.047 133.468 234.908 133.329 234.908 133.121C234.908 132.913 235.047 132.774 235.255 132.774H261.842C262.05 132.774 262.189 132.913 262.189 133.121C262.189 133.329 262.05 133.468 261.842 133.468Z" fill="white"/>
</svg>
