<svg width="428" height="163" viewBox="0 0 428 163" fill="none" xmlns="http://www.w3.org/2000/svg">
<path opacity="0.5" d="M260.341 130V116.742H263L258.5 111L254 116.742H256.659V130H260.341Z" fill="#67AB8A"/>
<path opacity="0.5" d="M176.341 126V112.742H179L174.5 107L170 112.742H172.659V126H176.341Z" fill="#67AB8A"/>
<path opacity="0.5" d="M158.341 90V76.7418H161L156.5 71L152 76.7418H154.659V90H158.341Z" fill="#67AB8A"/>
<path opacity="0.5" d="M103.341 129V115.742H106L101.5 110L97 115.742H99.6591V129H103.341Z" fill="#67AB8A"/>
<path opacity="0.5" d="M75.3409 116V102.742H78L73.5 97L69 102.742H71.6591V116H75.3409Z" fill="#67AB8A"/>
<path opacity="0.5" d="M89.3409 83V69.7418H92L87.5 64L83 69.7418H85.6591V83H89.3409Z" fill="#67AB8A"/>
<path opacity="0.5" d="M171.341 61V47.7418H174L169.5 42L165 47.7418H167.659V61H171.341Z" fill="#67AB8A"/>
<path opacity="0.5" d="M284.341 98V84.7418H287L282.5 79L278 84.7418H280.659V98H284.341Z" fill="#67AB8A"/>
<path opacity="0.5" d="M261.341 80V66.7418H264L259.5 61L255 66.7418H257.659V80H261.341Z" fill="#67AB8A"/>
<path opacity="0.5" d="M361.341 131V117.742H364L359.5 112L355 117.742H357.659V131H361.341Z" fill="#67AB8A"/>
<path opacity="0.5" d="M337.341 104V90.7418H340L335.5 85L331 90.7418H333.659V104H337.341Z" fill="#67AB8A"/>
<path opacity="0.5" d="M366.341 75V61.7418H369L364.5 56L360 61.7418H362.659V75H366.341Z" fill="#67AB8A"/>
<path opacity="0.5" fill-rule="evenodd" clip-rule="evenodd" d="M252.83 162C252.83 162.552 252.382 163 251.83 163H177.171C176.618 163 176.171 162.552 176.171 162V50.2582C176.171 49.7059 175.723 49.2582 175.171 49.2582H160.669C159.745 49.2582 159.315 48.1118 160.012 47.5045L213.843 0.5729C214.22 0.24458 214.781 0.24458 215.157 0.5729L268.989 47.5045C269.685 48.1118 269.256 49.2582 268.332 49.2582H253.83C253.278 49.2582 252.83 49.7059 252.83 50.2582V162ZM216.238 110.274C216.749 110.88 217.004 111.714 217.004 112.777C217.004 113.733 216.749 114.487 216.238 115.039C215.728 115.577 215.028 115.846 214.138 115.846C212.921 115.846 211.979 115.449 211.311 114.655C210.657 113.847 210.33 112.676 210.33 111.142H203.714C203.714 113.928 204.473 116.176 205.991 117.885C207.523 119.581 209.715 120.584 212.567 120.894V124.972H215.689V120.914C218.136 120.671 220.066 119.823 221.479 118.37C222.906 116.916 223.619 115.039 223.619 112.737C223.619 111.378 223.397 110.213 222.952 109.244C222.507 108.275 221.892 107.427 221.106 106.7C220.321 105.973 219.386 105.327 218.299 104.762C217.226 104.183 216.081 103.632 214.864 103.107C213.647 102.568 212.764 102.01 212.214 101.431C211.664 100.839 211.39 100.045 211.39 99.0485C211.39 98.066 211.625 97.2988 212.096 96.7469C212.581 96.1816 213.254 95.899 214.118 95.899C215.087 95.899 215.833 96.2758 216.356 97.0296C216.879 97.7833 217.141 98.8601 217.141 100.26H223.776C223.776 97.7025 223.089 95.5961 221.715 93.9406C220.354 92.2716 218.476 91.2554 216.081 90.892V86.5512H212.96V90.8112C210.474 91.0535 208.484 91.9149 206.993 93.3955C205.501 94.8626 204.755 96.7335 204.755 99.0081C204.755 100.368 204.964 101.525 205.383 102.481C205.802 103.436 206.404 104.278 207.189 105.004C207.974 105.731 208.91 106.371 209.996 106.922C211.082 107.474 212.266 108.019 213.549 108.558C214.831 109.096 215.728 109.668 216.238 110.274Z" fill="#67AB8A"/>
<mask id="mask0" mask-type="alpha" maskUnits="userSpaceOnUse" x="200" y="22" width="28" height="28">
<path d="M227.48 35.6712C227.48 28.1958 221.438 22.123 214 22.123C206.562 22.123 200.52 28.1958 200.52 35.6712C200.52 43.1466 206.562 49.2194 214 49.2194C221.438 49.2194 227.48 43.1466 227.48 35.6712Z" fill="#827977"/>
</mask>
<g mask="url(#mask0)">
<path d="M227.48 35.6712C227.48 28.1958 221.438 22.123 214 22.123C206.562 22.123 200.52 28.1958 200.52 35.6712C200.52 43.1466 206.562 49.2194 214 49.2194C221.438 49.2194 227.48 43.1466 227.48 35.6712Z" fill="#FA6C06"/>
<path d="M216.459 41.6821C216.459 41.6821 220.218 42.24 220.773 42.8138C221.248 43.3239 222.263 48.1534 222.485 49.2213C215.888 49.2213 214.001 49.2213 214.001 49.2213V42.3516L216.459 41.6821Z" fill="#2A2D34"/>
<path d="M215.967 39.1792H212.018V43.5306H215.967V39.1792Z" fill="#D9A78C"/>
<path d="M214.001 26.6353C215.92 26.6353 218.949 27.735 218.949 32.8674C218.949 35.8321 217.981 37.7766 217.569 38.3026C217.188 38.7967 215.016 39.8487 214.001 39.8487C214.001 34.6685 214.001 26.6353 214.001 26.6353Z" fill="#EAC0A7"/>
<path d="M219.901 34.0947C219.98 33.2819 219.599 32.5487 219.028 32.469C218.457 32.3893 217.934 32.995 217.855 33.8078C217.775 34.6207 218.156 35.3539 218.727 35.4336C219.298 35.5133 219.821 34.9076 219.901 34.0947Z" fill="#EAC0A7"/>
<path d="M214.001 26.6353C212.082 26.6353 209.053 27.735 209.053 32.8674C209.053 35.8321 210.02 37.7766 210.433 38.3026C210.813 38.7967 212.986 39.8487 214.001 39.8487C214.001 34.6685 214.001 26.6353 214.001 26.6353Z" fill="#F2D7BC"/>
<path d="M208.101 34.0947C208.022 33.2819 208.402 32.5487 208.973 32.469C209.544 32.3893 210.068 32.995 210.147 33.8078C210.226 34.6207 209.846 35.3539 209.275 35.4336C208.704 35.5133 208.18 34.9076 208.101 34.0947Z" fill="#F2D7BC"/>
<path d="M211.415 27.7034C211.415 27.7034 209.734 29.6958 210.384 31.5606C210.495 33.7762 210.273 34.5253 209.56 35.1469C209.734 32.9951 209.528 32.2779 208.735 32.5329C208.418 30.8593 209.116 26.3167 211.415 27.7034Z" fill="#690102"/>
<path d="M216.57 27.7034C216.57 27.7034 218.251 29.6958 217.6 31.5606C217.489 33.7762 217.711 34.5253 218.425 35.1469C218.251 32.9951 218.457 32.2779 219.25 32.5329C219.551 30.8593 218.869 26.3167 216.57 27.7034Z" fill="#690102"/>
<path d="M211.542 41.6821C211.542 41.6821 207.784 42.24 207.229 42.8138C206.753 43.3239 205.738 48.1534 205.516 49.2213C212.113 49.2213 214.001 49.2213 214.001 49.2213V42.3516L211.542 41.6821Z" fill="#2F343A"/>
<path d="M216.49 41.5698L214 42.0958L211.495 41.5698L214 49.2206" fill="#B9C7D0"/>
<path d="M213.794 43.1162L213.382 48.2964L214.001 49.2209L214.619 48.2964L214.207 43.1162H213.794Z" fill="#129E95"/>
<path d="M212.193 44.8695L210.21 41.9048C210.749 41.7135 211.336 41.5541 211.955 41.4585L214.001 49.2049L211.13 45.0926L212.193 44.8695Z" fill="#3A404C"/>
<path d="M215.793 44.8695L217.775 41.9048C217.236 41.7135 216.649 41.5541 216.031 41.4585L213.985 49.2049L216.856 45.0767L215.793 44.8695Z" fill="#3A404C"/>
<path d="M214.667 42.798L214.001 43.4993L213.334 42.798L214.001 42.0967L214.667 42.798Z" fill="#129E95"/>
<path d="M214.001 42.0958L215.999 41.0757L217.03 41.6814L214.889 43.4028L214.001 42.0958Z" fill="white"/>
<path d="M214 42.0958L212.002 41.0757L210.955 41.6814L213.065 43.4028L214 42.0958Z" fill="white"/>
<path d="M218.726 28.579C217.933 25.3274 213.128 22.7613 209.75 27.8777C209.528 28.8819 210.479 29.36 210.479 29.36C210.479 29.36 211.114 27.8777 214 28.5631C215.443 28.2443 216.839 28.0052 217.489 29.3441C218.139 30.683 218.726 28.579 218.726 28.579Z" fill="#690102"/>
<path d="M216.839 37.6486C215.856 37.6486 215.142 36.8357 214 36.8357C212.858 36.8357 212.16 37.6486 211.161 37.6486C210.083 37.6486 209.385 35.7678 209.179 35.1143C209.464 37.011 210.099 38.2543 210.416 38.6687C210.797 39.1628 212.969 40.2148 213.984 40.2148C214.999 40.2148 217.172 39.1628 217.553 38.6687C217.87 38.2543 218.52 37.011 218.79 35.1143C218.599 35.7678 217.917 37.6486 216.839 37.6486Z" fill="#690102"/>
<path d="M214 38.5566C214.333 38.5566 214.603 38.4131 214.603 38.2378H213.397C213.397 38.4131 213.667 38.5566 214 38.5566Z" fill="white"/>
</g>
<mask id="mask1" mask-type="alpha" maskUnits="userSpaceOnUse" x="23" y="66" width="28" height="28">
<path d="M50.5507 79.7025C50.5507 72.2271 44.5083 66.1543 37.0704 66.1543C29.6324 66.1543 23.5901 72.2271 23.5901 79.7025C23.5901 87.1779 29.6324 93.2507 37.0704 93.2507C44.5242 93.2507 50.5507 87.1779 50.5507 79.7025Z" fill="#B5332B"/>
</mask>
<g mask="url(#mask1)">
<path d="M50.5507 79.7025C50.5507 72.2271 44.5083 66.1543 37.0704 66.1543C29.6324 66.1543 23.5901 72.2271 23.5901 79.7025C23.5901 87.1779 29.6324 93.2507 37.0704 93.2507C44.5242 93.2507 50.5507 87.1779 50.5507 79.7025Z" fill="#6C67AB"/>
<path d="M39.0537 83.1133H35.1047V87.4646H39.0537V83.1133Z" fill="#D9A78C"/>
<path d="M39.53 85.7114C39.53 85.7114 43.2886 86.2693 43.8436 86.8431C44.3194 87.3531 45.3344 92.1827 45.5564 93.2506C38.959 93.2506 37.0718 93.2506 37.0718 93.2506V85.9186L39.53 85.7114Z" fill="#CFE1EB"/>
<path d="M37.0718 70.6641C38.9907 70.6641 42.0198 71.7639 42.0198 76.8962C42.0198 79.8609 41.0524 81.8054 40.6401 82.3314C40.2595 82.8255 38.0868 83.8775 37.0718 83.8775C37.0718 78.6973 37.0718 70.6641 37.0718 70.6641Z" fill="#F2D7BC"/>
<path d="M42.9716 78.1069C43.0508 77.2941 42.6702 76.5609 42.0993 76.4812C41.5284 76.4015 41.005 77.0072 40.9257 77.82C40.8464 78.6329 41.227 79.3661 41.798 79.4458C42.3689 79.5415 42.8923 78.9358 42.9716 78.1069Z" fill="#EAC0A7"/>
<path d="M37.0718 70.6641C35.1529 70.6641 32.1238 71.7639 32.1238 76.8962C32.1238 79.8609 33.0912 81.8054 33.5035 82.3314C33.8841 82.8255 36.0569 83.8775 37.0718 83.8775C37.0718 78.6973 37.0718 70.6641 37.0718 70.6641Z" fill="#F2D7BC"/>
<path d="M31.1718 78.1074C31.0925 77.2945 31.4731 76.5614 32.0441 76.4817C32.615 76.402 33.1384 77.0076 33.2176 77.8205C33.2969 78.6334 32.9163 79.3666 32.3454 79.4463C31.7903 79.5419 31.267 78.9363 31.1718 78.1074Z" fill="#F2D7BC"/>
<path d="M34.629 85.7114C34.629 85.7114 30.8704 86.2693 30.3153 86.8431C29.8396 87.3531 28.8246 92.1827 28.6025 93.2506C35.2 93.2506 37.0872 93.2506 37.0872 93.2506V85.9186L34.629 85.7114Z" fill="#CFE1EB"/>
<path d="M37.0712 85.9188L35.0729 85.106L34.5813 85.6001L35.5804 87.8315L37.0712 85.9188Z" fill="white"/>
<path d="M37.0718 85.9188L39.0859 85.106L39.5775 85.6001L38.5784 87.8315L37.0718 85.9188Z" fill="white"/>
<path d="M42.1303 76.6107C42.1303 76.6107 43.7479 69.1831 37.0395 69.1831C30.2993 69.1831 31.9804 76.4035 31.9804 76.4035C31.9804 76.4035 32.9002 75.8775 32.9002 78.2524C33.265 78.2524 33.0747 78.2524 33.0747 78.2524C33.0747 78.2524 33.4077 76.6585 33.5029 75.2399C35.8817 75.2399 37.9752 74.9371 39.7355 73.4707C40.7347 73.4707 40.8774 74.7299 40.8774 75.6862L40.4333 75.8616C40.4333 75.8616 40.8615 76.6904 40.8932 78.2684C41.1946 78.2684 41.1946 78.2684 41.1946 78.2684C41.1946 78.2684 41.1629 75.6384 42.1303 76.6107Z" fill="#8B5F3C"/>
<path d="M37.0715 81.9502C37.9596 81.9502 38.6891 81.6474 38.6891 81.2808H35.4539C35.4539 81.6474 36.1834 81.9502 37.0715 81.9502Z" fill="white"/>
</g>
<mask id="mask2" mask-type="alpha" maskUnits="userSpaceOnUse" x="26" y="110" width="22" height="21">
<path d="M47.1809 120.347C47.1809 114.741 42.6491 110.186 37.0707 110.186C31.4922 110.186 26.9604 114.741 26.9604 120.347C26.9604 125.954 31.4922 130.508 37.0707 130.508C42.6491 130.508 47.1809 125.954 47.1809 120.347Z" fill="#F6A100"/>
</mask>
<g mask="url(#mask2)">
<path d="M47.1809 120.347C47.1809 114.741 42.6491 110.186 37.0707 110.186C31.4922 110.186 26.9604 114.741 26.9604 120.347C26.9604 125.954 31.4922 130.508 37.0707 130.508C42.6491 130.508 47.1809 125.954 47.1809 120.347Z" fill="#7E97C9"/>
<path d="M38.5457 122.905H35.584V126.169H38.5457V122.905Z" fill="#D9A78C"/>
<path d="M35.2269 124.854C35.2269 124.854 32.4079 125.272 31.9916 125.702C31.6348 126.085 30.8736 129.707 30.707 130.508C35.6551 130.508 37.0705 130.508 37.0705 130.508V125.009L35.2269 124.854Z" fill="#C0D0D8"/>
<path d="M38.9022 124.854C38.9022 124.854 41.7212 125.272 42.1375 125.702C42.4943 126.085 43.2556 129.707 43.4221 130.508C38.474 130.508 37.0586 130.508 37.0586 130.508V125.009L38.9022 124.854Z" fill="#C0D0D8"/>
<path d="M36.8804 125.546L36.4998 129.42L37.0707 130.495L37.6297 129.42L37.261 125.546H36.8804Z" fill="#14A89A"/>
<path d="M37.5702 125.511L37.0706 126.013L36.571 125.511L37.0706 125.009L37.5702 125.511Z" fill="#14A89A"/>
<path d="M37.0701 113.569C38.5093 113.569 40.7811 114.394 40.7811 118.243C40.7811 120.466 40.0556 121.925 39.7463 122.319C39.4608 122.69 37.8313 123.479 37.0701 123.479C37.0701 119.594 37.0701 113.569 37.0701 113.569Z" fill="#F2D7BC"/>
<path d="M41.4946 119.163C41.5541 118.553 41.2686 118.004 40.8404 117.944C40.4122 117.884 40.0197 118.338 39.9602 118.948C39.9007 119.558 40.1862 120.107 40.6144 120.167C41.0307 120.227 41.4232 119.773 41.4946 119.163Z" fill="#EAC0A7"/>
<path d="M37.0709 113.568C35.6317 113.568 33.3599 114.393 33.3599 118.242C33.3599 120.466 34.0854 121.924 34.3947 122.319C34.6801 122.689 36.3097 123.478 37.0709 123.478C37.0709 119.593 37.0709 113.568 37.0709 113.568Z" fill="#F2D7BC"/>
<path d="M32.6458 119.163C32.5863 118.553 32.8718 118.004 33.3 117.944C33.7282 117.884 34.1207 118.338 34.1801 118.948C34.2396 119.558 33.9541 120.107 33.5259 120.167C33.0978 120.227 32.7052 119.773 32.6458 119.163Z" fill="#F2D7BC"/>
<path d="M37.0705 125.009L35.5599 124.399L35.1912 124.77L35.9405 126.443L37.0705 125.009Z" fill="white"/>
<path d="M37.0701 125.009L38.5688 124.399L38.9375 124.77L38.1881 126.443L37.0701 125.009Z" fill="white"/>
<path d="M35.6906 128.847H33.8113V129.265H35.6906V128.847Z" fill="#7F97A3"/>
<path d="M40.3293 128.847H38.45V129.265H40.3293V128.847Z" fill="#7F97A3"/>
<path d="M33.8471 119.223H34.1088C34.1088 119.223 33.9541 118.219 34.4061 117.896C34.4061 117.394 34.4061 117.251 34.4061 117.251C34.4061 117.251 34.2277 117.227 34.2277 116.474C34.2277 115.709 35.1317 115.171 37.0586 115.171C37.0586 114.083 37.0586 112.828 37.0586 112.828C37.0586 112.828 33.2405 113.246 33.2405 116.031C33.2405 117.191 33.2405 117.944 33.2405 117.944C33.2405 117.944 33.514 117.896 33.7163 118.064C33.9422 118.243 33.8471 119.223 33.8471 119.223Z" fill="#8B5F3C"/>
<path d="M40.2464 119.223H39.9847C39.9847 119.223 40.1393 118.219 39.6874 117.896C39.6874 117.394 39.6874 117.251 39.6874 117.251C39.6874 117.251 39.8658 117.227 39.8658 116.474C39.8658 115.709 38.9618 115.171 37.0349 115.171C37.0349 114.083 37.0349 112.828 37.0349 112.828C37.0349 112.828 40.853 113.246 40.853 116.031C40.853 117.191 40.853 117.944 40.853 117.944C40.853 117.944 40.5794 117.896 40.3772 118.064C40.1631 118.243 40.2464 119.223 40.2464 119.223Z" fill="#8B5F3C"/>
<path d="M37.0702 121.83C37.7362 121.83 38.2834 121.603 38.2834 121.328H35.8569C35.8569 121.603 36.3922 121.83 37.0702 121.83Z" fill="white"/>
</g>
<mask id="mask3" mask-type="alpha" maskUnits="userSpaceOnUse" x="26" y="137" width="22" height="21">
<path d="M47.1809 147.443C47.1809 141.837 42.6491 137.282 37.0707 137.282C31.4922 137.282 26.9604 141.837 26.9604 147.443C26.9604 153.05 31.4922 157.604 37.0707 157.604C42.6491 157.604 47.1809 153.05 47.1809 147.443Z" fill="#F6A100"/>
</mask>
<g mask="url(#mask3)">
<path d="M47.1809 147.443C47.1809 141.837 42.6491 137.282 37.0707 137.282C31.4922 137.282 26.9604 141.837 26.9604 147.443C26.9604 153.05 31.4922 157.604 37.0707 157.604C42.6491 157.604 47.1809 153.05 47.1809 147.443Z" fill="#7E97C9"/>
<path d="M38.5457 150.001H35.584V153.265H38.5457V150.001Z" fill="#D9A78C"/>
<path d="M35.2269 151.95C35.2269 151.95 32.4079 152.369 31.9916 152.799C31.6348 153.181 30.8736 156.804 30.707 157.605C35.6551 157.605 37.0705 157.605 37.0705 157.605V152.106L35.2269 151.95Z" fill="#C0D0D8"/>
<path d="M38.9022 151.95C38.9022 151.95 41.7212 152.369 42.1375 152.799C42.4943 153.181 43.2556 156.804 43.4221 157.605C38.474 157.605 37.0586 157.605 37.0586 157.605V152.106L38.9022 151.95Z" fill="#C0D0D8"/>
<path d="M36.8804 152.643L36.4998 156.516L37.0707 157.592L37.6297 156.516L37.261 152.643H36.8804Z" fill="#14A89A"/>
<path d="M37.5699 152.607L37.0704 153.109L36.5708 152.607L37.0704 152.105L37.5699 152.607Z" fill="#14A89A"/>
<path d="M37.0701 140.666C38.5093 140.666 40.7811 141.49 40.7811 145.34C40.7811 147.563 40.0556 149.022 39.7463 149.416C39.4608 149.787 37.8313 150.576 37.0701 150.576C37.0701 146.69 37.0701 140.666 37.0701 140.666Z" fill="#F2D7BC"/>
<path d="M41.4946 146.261C41.5541 145.651 41.2686 145.101 40.8404 145.041C40.4122 144.982 40.0197 145.436 39.9602 146.046C39.9007 146.655 40.1862 147.205 40.6144 147.265C41.0307 147.325 41.4232 146.87 41.4946 146.261Z" fill="#EAC0A7"/>
<path d="M37.0709 140.666C35.6317 140.666 33.3599 141.491 33.3599 145.34C33.3599 147.564 34.0854 149.022 34.3947 149.417C34.6801 149.787 36.3097 150.576 37.0709 150.576C37.0709 146.691 37.0709 140.666 37.0709 140.666Z" fill="#F2D7BC"/>
<path d="M32.646 146.261C32.5865 145.651 32.872 145.101 33.3002 145.041C33.7284 144.982 34.1209 145.436 34.1804 146.046C34.2399 146.655 33.9544 147.205 33.5262 147.265C33.098 147.325 32.7055 146.87 32.646 146.261Z" fill="#F2D7BC"/>
<path d="M37.0705 152.105L35.5599 151.496L35.1912 151.866L35.9405 153.54L37.0705 152.105Z" fill="white"/>
<path d="M37.0701 152.105L38.5688 151.496L38.9375 151.866L38.1881 153.54L37.0701 152.105Z" fill="white"/>
<path d="M35.6906 155.943H33.8113V156.362H35.6906V155.943Z" fill="#7F97A3"/>
<path d="M40.3293 155.943H38.45V156.362H40.3293V155.943Z" fill="#7F97A3"/>
<path d="M33.8471 146.32H34.1088C34.1088 146.32 33.9541 145.316 34.4061 144.993C34.4061 144.491 34.4061 144.347 34.4061 144.347C34.4061 144.347 34.2277 144.323 34.2277 143.57C34.2277 142.805 35.1317 142.267 37.0586 142.267C37.0586 141.18 37.0586 139.924 37.0586 139.924C37.0586 139.924 33.2405 140.343 33.2405 143.128C33.2405 144.288 33.2405 145.041 33.2405 145.041C33.2405 145.041 33.514 144.993 33.7163 145.16C33.9422 145.34 33.8471 146.32 33.8471 146.32Z" fill="#8B5F3C"/>
<path d="M40.2464 146.32H39.9847C39.9847 146.32 40.1393 145.316 39.6874 144.993C39.6874 144.491 39.6874 144.347 39.6874 144.347C39.6874 144.347 39.8658 144.323 39.8658 143.57C39.8658 142.805 38.9618 142.267 37.0349 142.267C37.0349 141.18 37.0349 139.924 37.0349 139.924C37.0349 139.924 40.853 140.343 40.853 143.128C40.853 144.288 40.853 145.041 40.853 145.041C40.853 145.041 40.5794 144.993 40.3772 145.16C40.1631 145.34 40.2464 146.32 40.2464 146.32Z" fill="#8B5F3C"/>
<path d="M37.0702 148.926C37.7362 148.926 38.2834 148.699 38.2834 148.424H35.8569C35.8569 148.699 36.3922 148.926 37.0702 148.926Z" fill="white"/>
</g>
<mask id="mask4" mask-type="alpha" maskUnits="userSpaceOnUse" x="53" y="137" width="22" height="21">
<path d="M74.1421 147.443C74.1421 141.837 69.6103 137.282 64.0319 137.282C58.4534 137.282 53.9216 141.837 53.9216 147.443C53.9216 153.05 58.4534 157.604 64.0319 157.604C69.6103 157.604 74.1421 153.05 74.1421 147.443Z" fill="#F6A100"/>
</mask>
<g mask="url(#mask4)">
<path d="M74.1421 147.443C74.1421 141.837 69.6103 137.282 64.0319 137.282C58.4534 137.282 53.9216 141.837 53.9216 147.443C53.9216 153.05 58.4534 157.604 64.0319 157.604C69.6103 157.604 74.1421 153.05 74.1421 147.443Z" fill="#7E97C9"/>
<path d="M65.5061 150.001H62.5444V153.265H65.5061V150.001Z" fill="#D9A78C"/>
<path d="M62.1873 151.95C62.1873 151.95 59.3684 152.369 58.9521 152.799C58.5952 153.181 57.834 156.804 57.6675 157.605C62.6155 157.605 64.031 157.605 64.031 157.605V152.106L62.1873 151.95Z" fill="#C0D0D8"/>
<path d="M65.8627 151.95C65.8627 151.95 68.6816 152.369 69.0979 152.799C69.4548 153.181 70.216 156.804 70.3825 157.605C65.4345 157.605 64.019 157.605 64.019 157.605V152.106L65.8627 151.95Z" fill="#C0D0D8"/>
<path d="M63.8408 152.643L63.4602 156.516L64.0311 157.592L64.5902 156.516L64.2214 152.643H63.8408Z" fill="#14A89A"/>
<path d="M64.5304 152.607L64.0308 153.109L63.5312 152.607L64.0308 152.105L64.5304 152.607Z" fill="#14A89A"/>
<path d="M64.0305 140.666C65.4697 140.666 67.7416 141.49 67.7416 145.34C67.7416 147.563 67.016 149.022 66.7068 149.416C66.4213 149.787 64.7918 150.576 64.0305 150.576C64.0305 146.69 64.0305 140.666 64.0305 140.666Z" fill="#F2D7BC"/>
<path d="M68.4553 146.261C68.5148 145.651 68.2293 145.101 67.8011 145.041C67.3729 144.982 66.9804 145.436 66.9209 146.046C66.8614 146.655 67.1469 147.205 67.5751 147.265C67.9914 147.325 68.3839 146.87 68.4553 146.261Z" fill="#EAC0A7"/>
<path d="M64.0314 140.666C62.5921 140.666 60.3203 141.491 60.3203 145.34C60.3203 147.564 61.0459 149.022 61.3551 149.417C61.6406 149.787 63.2701 150.576 64.0314 150.576C64.0314 146.691 64.0314 140.666 64.0314 140.666Z" fill="#F2D7BC"/>
<path d="M59.6062 146.261C59.5467 145.651 59.8322 145.101 60.2604 145.041C60.6886 144.982 61.0811 145.436 61.1406 146.046C61.2001 146.655 60.9146 147.205 60.4864 147.265C60.0582 147.325 59.6657 146.87 59.6062 146.261Z" fill="#F2D7BC"/>
<path d="M64.0309 152.105L62.5203 151.496L62.1516 151.866L62.901 153.54L64.0309 152.105Z" fill="white"/>
<path d="M64.0305 152.105L65.5292 151.496L65.8979 151.866L65.1486 153.54L64.0305 152.105Z" fill="white"/>
<path d="M62.651 155.943H60.7717V156.362H62.651V155.943Z" fill="#7F97A3"/>
<path d="M67.2897 155.943H65.4104V156.362H67.2897V155.943Z" fill="#7F97A3"/>
<path d="M60.8075 146.32H61.0692C61.0692 146.32 60.9146 145.316 61.3666 144.993C61.3666 144.491 61.3666 144.347 61.3666 144.347C61.3666 144.347 61.1882 144.323 61.1882 143.57C61.1882 142.805 62.0921 142.267 64.019 142.267C64.019 141.18 64.019 139.924 64.019 139.924C64.019 139.924 60.2009 140.343 60.2009 143.128C60.2009 144.288 60.2009 145.041 60.2009 145.041C60.2009 145.041 60.4745 144.993 60.6767 145.16C60.9027 145.34 60.8075 146.32 60.8075 146.32Z" fill="#8B5F3C"/>
<path d="M67.2068 146.32H66.9452C66.9452 146.32 67.0998 145.316 66.6478 144.993C66.6478 144.491 66.6478 144.347 66.6478 144.347C66.6478 144.347 66.8262 144.323 66.8262 143.57C66.8262 142.805 65.9223 142.267 63.9954 142.267C63.9954 141.18 63.9954 139.924 63.9954 139.924C63.9954 139.924 67.8135 140.343 67.8135 143.128C67.8135 144.288 67.8135 145.041 67.8135 145.041C67.8135 145.041 67.5399 144.993 67.3377 145.16C67.1236 145.34 67.2068 146.32 67.2068 146.32Z" fill="#8B5F3C"/>
<path d="M64.0306 148.926C64.6967 148.926 65.2438 148.699 65.2438 148.424H62.8174C62.8174 148.699 63.3526 148.926 64.0306 148.926Z" fill="white"/>
</g>
<mask id="mask5" mask-type="alpha" maskUnits="userSpaceOnUse" x="0" y="137" width="21" height="21">
<path d="M20.2205 147.443C20.2205 141.837 15.6887 137.282 10.1102 137.282C4.53176 137.282 0 141.837 0 147.443C0 153.05 4.53176 157.604 10.1102 157.604C15.6887 157.604 20.2205 153.05 20.2205 147.443Z" fill="#F6A100"/>
</mask>
<g mask="url(#mask5)">
<path d="M20.2205 147.443C20.2205 141.837 15.6887 137.282 10.1102 137.282C4.53176 137.282 0 141.837 0 147.443C0 153.05 4.53176 157.604 10.1102 157.604C15.6887 157.604 20.2205 153.05 20.2205 147.443Z" fill="#7E97C9"/>
<path d="M11.5857 150.001H8.62402V153.265H11.5857V150.001Z" fill="#D9A78C"/>
<path d="M8.26694 151.95C8.26694 151.95 5.44797 152.369 5.03166 152.799C4.67483 153.181 3.91359 156.804 3.74707 157.605C8.69514 157.605 10.1106 157.605 10.1106 157.605V152.106L8.26694 151.95Z" fill="#C0D0D8"/>
<path d="M11.9423 151.95C11.9423 151.95 14.7612 152.369 15.1775 152.799C15.5344 153.181 16.2956 156.804 16.4621 157.605C11.5141 157.605 10.0986 157.605 10.0986 157.605V152.106L11.9423 151.95Z" fill="#C0D0D8"/>
<path d="M9.9209 152.643L9.54028 156.516L10.1112 157.592L10.6702 156.516L10.3015 152.643H9.9209Z" fill="#14A89A"/>
<path d="M10.6105 152.607L10.1109 153.109L9.61133 152.607L10.1109 152.105L10.6105 152.607Z" fill="#14A89A"/>
<path d="M10.1106 140.666C11.5498 140.666 13.8216 141.49 13.8216 145.34C13.8216 147.563 13.0961 149.022 12.7868 149.416C12.5014 149.787 10.8718 150.576 10.1106 150.576C10.1106 146.69 10.1106 140.666 10.1106 140.666Z" fill="#F2D7BC"/>
<path d="M14.5346 146.261C14.5941 145.651 14.3086 145.101 13.8804 145.041C13.4522 144.982 13.0597 145.436 13.0003 146.046C12.9408 146.655 13.2263 147.205 13.6544 147.265C14.0708 147.325 14.4633 146.87 14.5346 146.261Z" fill="#EAC0A7"/>
<path d="M10.1107 140.666C8.67149 140.666 6.39966 141.491 6.39966 145.34C6.39966 147.564 7.12522 149.022 7.43447 149.417C7.71994 149.787 9.34947 150.576 10.1107 150.576C10.1107 146.691 10.1107 140.666 10.1107 140.666Z" fill="#F2D7BC"/>
<path d="M5.68556 146.261C5.62609 145.651 5.91155 145.101 6.33975 145.041C6.76795 144.982 7.16046 145.436 7.21994 146.046C7.27941 146.655 6.99394 147.205 6.56574 147.265C6.13755 147.325 5.74503 146.87 5.68556 146.261Z" fill="#F2D7BC"/>
<path d="M10.1105 152.105L8.59993 151.496L8.2312 151.866L8.98055 153.54L10.1105 152.105Z" fill="white"/>
<path d="M10.1106 152.105L11.6093 151.496L11.978 151.866L11.2287 153.54L10.1106 152.105Z" fill="white"/>
<path d="M8.73063 155.943H6.85132V156.362H8.73063V155.943Z" fill="#7F97A3"/>
<path d="M13.3693 155.943H11.49V156.362H13.3693V155.943Z" fill="#7F97A3"/>
<path d="M6.88713 146.32H7.14881C7.14881 146.32 6.99418 145.316 7.44617 144.993C7.44617 144.491 7.44617 144.347 7.44617 144.347C7.44617 144.347 7.26775 144.323 7.26775 143.57C7.26775 142.805 8.17173 142.267 10.0986 142.267C10.0986 141.18 10.0986 139.924 10.0986 139.924C10.0986 139.924 6.28052 140.343 6.28052 143.128C6.28052 144.288 6.28052 145.041 6.28052 145.041C6.28052 145.041 6.55409 144.993 6.75629 145.16C6.98229 145.34 6.88713 146.32 6.88713 146.32Z" fill="#8B5F3C"/>
<path d="M13.2869 146.32H13.0252C13.0252 146.32 13.1799 145.316 12.7279 144.993C12.7279 144.491 12.7279 144.347 12.7279 144.347C12.7279 144.347 12.9063 144.323 12.9063 143.57C12.9063 142.805 12.0023 142.267 10.0754 142.267C10.0754 141.18 10.0754 139.924 10.0754 139.924C10.0754 139.924 13.8935 140.343 13.8935 143.128C13.8935 144.288 13.8935 145.041 13.8935 145.041C13.8935 145.041 13.62 144.993 13.4178 145.16C13.2037 145.34 13.2869 146.32 13.2869 146.32Z" fill="#8B5F3C"/>
<path d="M10.1102 148.926C10.7763 148.926 11.3234 148.699 11.3234 148.424H8.89697C8.89697 148.699 9.43222 148.926 10.1102 148.926Z" fill="white"/>
</g>
<mask id="mask6" mask-type="alpha" maskUnits="userSpaceOnUse" x="112" y="66" width="28" height="28">
<path d="M139.016 79.7025C139.016 72.2271 132.973 66.1543 125.535 66.1543C118.097 66.1543 112.055 72.2271 112.055 79.7025C112.055 87.1779 118.097 93.2507 125.535 93.2507C132.989 93.2507 139.016 87.1779 139.016 79.7025Z" fill="#B5332B"/>
</mask>
<g mask="url(#mask6)">
<path d="M139.016 79.7025C139.016 72.2271 132.973 66.1543 125.535 66.1543C118.097 66.1543 112.055 72.2271 112.055 79.7025C112.055 87.1779 118.097 93.2507 125.535 93.2507C132.989 93.2507 139.016 87.1779 139.016 79.7025Z" fill="#6C67AB"/>
<path d="M127.517 83.1133H123.568V87.4646H127.517V83.1133Z" fill="#D9A78C"/>
<path d="M127.993 85.7114C127.993 85.7114 131.752 86.2693 132.307 86.8431C132.783 87.3531 133.798 92.1827 134.02 93.2506C127.422 93.2506 125.535 93.2506 125.535 93.2506V85.9186L127.993 85.7114Z" fill="#CFE1EB"/>
<path d="M125.535 70.6641C127.454 70.6641 130.483 71.7639 130.483 76.8962C130.483 79.8609 129.516 81.8054 129.103 82.3314C128.723 82.8255 126.55 83.8775 125.535 83.8775C125.535 78.6973 125.535 70.6641 125.535 70.6641Z" fill="#F2D7BC"/>
<path d="M131.434 78.1069C131.514 77.2941 131.133 76.5609 130.562 76.4812C129.991 76.4015 129.468 77.0072 129.389 77.82C129.309 78.6329 129.69 79.3661 130.261 79.4458C130.832 79.5415 131.355 78.9358 131.434 78.1069Z" fill="#EAC0A7"/>
<path d="M125.535 70.6641C123.617 70.6641 120.587 71.7639 120.587 76.8962C120.587 79.8609 121.555 81.8054 121.967 82.3314C122.348 82.8255 124.52 83.8775 125.535 83.8775C125.535 78.6973 125.535 70.6641 125.535 70.6641Z" fill="#F2D7BC"/>
<path d="M119.635 78.1069C119.556 77.2941 119.937 76.5609 120.508 76.4812C121.079 76.4015 121.602 77.0072 121.681 77.82C121.761 78.6329 121.38 79.3661 120.809 79.4458C120.254 79.5415 119.731 78.9358 119.635 78.1069Z" fill="#F2D7BC"/>
<path d="M123.092 85.7114C123.092 85.7114 119.334 86.2693 118.778 86.8431C118.303 87.3531 117.288 92.1827 117.066 93.2506C123.663 93.2506 125.55 93.2506 125.55 93.2506V85.9186L123.092 85.7114Z" fill="#CFE1EB"/>
<path d="M125.534 85.9188L123.536 85.106L123.044 85.6001L124.044 87.8315L125.534 85.9188Z" fill="white"/>
<path d="M125.535 85.9188L127.549 85.106L128.041 85.6001L127.042 87.8315L125.535 85.9188Z" fill="white"/>
<path d="M130.595 76.6107C130.595 76.6107 132.213 69.1831 125.504 69.1831C118.764 69.1831 120.445 76.4035 120.445 76.4035C120.445 76.4035 121.365 75.8775 121.365 78.2524C121.73 78.2524 121.539 78.2524 121.539 78.2524C121.539 78.2524 121.872 76.6585 121.967 75.2399C124.346 75.2399 126.44 74.9371 128.2 73.4707C129.199 73.4707 129.342 74.7299 129.342 75.6862L128.898 75.8616C128.898 75.8616 129.326 76.6904 129.358 78.2684C129.659 78.2684 129.659 78.2684 129.659 78.2684C129.659 78.2684 129.627 75.6384 130.595 76.6107Z" fill="#8B5F3C"/>
<path d="M125.535 81.9502C126.423 81.9502 127.153 81.6474 127.153 81.2808H123.917C123.917 81.6474 124.647 81.9502 125.535 81.9502Z" fill="white"/>
</g>
<mask id="mask7" mask-type="alpha" maskUnits="userSpaceOnUse" x="115" y="110" width="21" height="21">
<path d="M135.645 120.348C135.645 114.741 131.114 110.187 125.535 110.187C119.957 110.187 115.425 114.741 115.425 120.348C115.425 125.954 119.957 130.509 125.535 130.509C131.114 130.509 135.645 125.954 135.645 120.348Z" fill="#F6A100"/>
</mask>
<g mask="url(#mask7)">
<path d="M135.645 120.348C135.645 114.741 131.114 110.187 125.535 110.187C119.957 110.187 115.425 114.741 115.425 120.348C115.425 125.954 119.957 130.509 125.535 130.509C131.114 130.509 135.645 125.954 135.645 120.348Z" fill="#7E97C9"/>
<path d="M127.01 122.905H124.048V126.169H127.01V122.905Z" fill="#D9A78C"/>
<path d="M123.691 124.854C123.691 124.854 120.872 125.272 120.456 125.703C120.099 126.085 119.338 129.707 119.171 130.508C124.119 130.508 125.535 130.508 125.535 130.508V125.009L123.691 124.854Z" fill="#C0D0D8"/>
<path d="M127.367 124.854C127.367 124.854 130.186 125.272 130.602 125.703C130.959 126.085 131.72 129.707 131.886 130.508C126.938 130.508 125.523 130.508 125.523 130.508V125.009L127.367 124.854Z" fill="#C0D0D8"/>
<path d="M125.345 125.547L124.964 129.42L125.535 130.496L126.094 129.42L125.725 125.547H125.345Z" fill="#14A89A"/>
<path d="M126.034 125.511L125.535 126.013L125.035 125.511L125.535 125.009L126.034 125.511Z" fill="#14A89A"/>
<path d="M125.534 113.569C126.974 113.569 129.245 114.394 129.245 118.243C129.245 120.467 128.52 121.925 128.211 122.32C127.925 122.69 126.296 123.479 125.534 123.479C125.534 119.594 125.534 113.569 125.534 113.569Z" fill="#F2D7BC"/>
<path d="M129.959 119.164C130.019 118.554 129.733 118.004 129.305 117.944C128.877 117.884 128.484 118.339 128.425 118.948C128.365 119.558 128.651 120.108 129.079 120.168C129.495 120.228 129.888 119.773 129.959 119.164Z" fill="#EAC0A7"/>
<path d="M125.535 113.569C124.096 113.569 121.824 114.394 121.824 118.243C121.824 120.466 122.55 121.925 122.859 122.319C123.144 122.69 124.774 123.479 125.535 123.479C125.535 119.594 125.535 113.569 125.535 113.569Z" fill="#F2D7BC"/>
<path d="M121.11 119.164C121.051 118.554 121.336 118.004 121.764 117.944C122.193 117.884 122.585 118.339 122.644 118.948C122.704 119.558 122.419 120.108 121.99 120.168C121.562 120.228 121.17 119.773 121.11 119.164Z" fill="#F2D7BC"/>
<path d="M125.535 125.009L124.024 124.399L123.656 124.77L124.405 126.444L125.535 125.009Z" fill="white"/>
<path d="M125.534 125.009L127.033 124.399L127.402 124.77L126.652 126.444L125.534 125.009Z" fill="white"/>
<path d="M124.155 128.847H122.276V129.266H124.155V128.847Z" fill="#7F97A3"/>
<path d="M128.794 128.847H126.914V129.266H128.794V128.847Z" fill="#7F97A3"/>
<path d="M122.311 119.224H122.573C122.573 119.224 122.418 118.22 122.87 117.897C122.87 117.395 122.87 117.251 122.87 117.251C122.87 117.251 122.692 117.227 122.692 116.474C122.692 115.709 123.596 115.171 125.523 115.171C125.523 114.083 125.523 112.828 125.523 112.828C125.523 112.828 121.705 113.247 121.705 116.032C121.705 117.191 121.705 117.945 121.705 117.945C121.705 117.945 121.978 117.897 122.181 118.064C122.407 118.243 122.311 119.224 122.311 119.224Z" fill="#8B5F3C"/>
<path d="M128.711 119.224H128.449C128.449 119.224 128.604 118.22 128.152 117.897C128.152 117.395 128.152 117.251 128.152 117.251C128.152 117.251 128.33 117.227 128.33 116.474C128.33 115.709 127.426 115.171 125.499 115.171C125.499 114.083 125.499 112.828 125.499 112.828C125.499 112.828 129.317 113.247 129.317 116.032C129.317 117.191 129.317 117.945 129.317 117.945C129.317 117.945 129.044 117.897 128.842 118.064C128.627 118.243 128.711 119.224 128.711 119.224Z" fill="#8B5F3C"/>
<path d="M125.534 121.83C126.2 121.83 126.747 121.603 126.747 121.328H124.321C124.321 121.603 124.856 121.83 125.534 121.83Z" fill="white"/>
</g>
<mask id="mask8" mask-type="alpha" maskUnits="userSpaceOnUse" x="115" y="137" width="21" height="21">
<path d="M135.645 147.444C135.645 141.837 131.114 137.283 125.535 137.283C119.957 137.283 115.425 141.837 115.425 147.444C115.425 153.05 119.957 157.605 125.535 157.605C131.114 157.605 135.645 153.05 135.645 147.444Z" fill="#F6A100"/>
</mask>
<g mask="url(#mask8)">
<path d="M135.645 147.444C135.645 141.837 131.114 137.283 125.535 137.283C119.957 137.283 115.425 141.837 115.425 147.444C115.425 153.05 119.957 157.605 125.535 157.605C131.114 157.605 135.645 153.05 135.645 147.444Z" fill="#7E97C9"/>
<path d="M127.01 150.002H124.048V153.265H127.01V150.002Z" fill="#D9A78C"/>
<path d="M123.691 151.951C123.691 151.951 120.872 152.369 120.456 152.799C120.099 153.182 119.338 156.804 119.171 157.605C124.119 157.605 125.535 157.605 125.535 157.605V152.106L123.691 151.951Z" fill="#C0D0D8"/>
<path d="M127.367 151.951C127.367 151.951 130.186 152.369 130.602 152.799C130.959 153.182 131.72 156.804 131.886 157.605C126.938 157.605 125.523 157.605 125.523 157.605V152.106L127.367 151.951Z" fill="#C0D0D8"/>
<path d="M125.345 152.644L124.964 156.517L125.535 157.593L126.094 156.517L125.725 152.644H125.345Z" fill="#14A89A"/>
<path d="M126.034 152.608L125.535 153.11L125.035 152.608L125.535 152.105L126.034 152.608Z" fill="#14A89A"/>
<path d="M125.534 140.666C126.974 140.666 129.245 141.491 129.245 145.34C129.245 147.564 128.52 149.022 128.211 149.417C127.925 149.787 126.296 150.576 125.534 150.576C125.534 146.691 125.534 140.666 125.534 140.666Z" fill="#F2D7BC"/>
<path d="M129.959 146.261C130.019 145.652 129.733 145.102 129.305 145.042C128.877 144.982 128.484 145.436 128.425 146.046C128.365 146.656 128.651 147.206 129.079 147.265C129.495 147.325 129.888 146.871 129.959 146.261Z" fill="#EAC0A7"/>
<path d="M125.535 140.666C124.096 140.666 121.824 141.491 121.824 145.34C121.824 147.564 122.55 149.022 122.859 149.417C123.144 149.787 124.774 150.576 125.535 150.576C125.535 146.691 125.535 140.666 125.535 140.666Z" fill="#F2D7BC"/>
<path d="M121.11 146.261C121.051 145.651 121.336 145.101 121.764 145.041C122.193 144.982 122.585 145.436 122.644 146.046C122.704 146.655 122.419 147.205 121.99 147.265C121.562 147.325 121.17 146.87 121.11 146.261Z" fill="#F2D7BC"/>
<path d="M125.535 152.106L124.024 151.496L123.656 151.867L124.405 153.54L125.535 152.106Z" fill="white"/>
<path d="M125.534 152.106L127.033 151.496L127.402 151.867L126.652 153.54L125.534 152.106Z" fill="white"/>
<path d="M124.155 155.944H122.276V156.362H124.155V155.944Z" fill="#7F97A3"/>
<path d="M128.794 155.944H126.914V156.362H128.794V155.944Z" fill="#7F97A3"/>
<path d="M122.311 146.32H122.573C122.573 146.32 122.418 145.316 122.87 144.993C122.87 144.491 122.87 144.348 122.87 144.348C122.87 144.348 122.692 144.324 122.692 143.571C122.692 142.806 123.596 142.268 125.523 142.268C125.523 141.18 125.523 139.925 125.523 139.925C125.523 139.925 121.705 140.343 121.705 143.129C121.705 144.288 121.705 145.041 121.705 145.041C121.705 145.041 121.978 144.993 122.181 145.161C122.407 145.34 122.311 146.32 122.311 146.32Z" fill="#8B5F3C"/>
<path d="M128.711 146.32H128.449C128.449 146.32 128.604 145.316 128.152 144.993C128.152 144.491 128.152 144.348 128.152 144.348C128.152 144.348 128.33 144.324 128.33 143.571C128.33 142.806 127.426 142.268 125.499 142.268C125.499 141.18 125.499 139.925 125.499 139.925C125.499 139.925 129.317 140.343 129.317 143.129C129.317 144.288 129.317 145.041 129.317 145.041C129.317 145.041 129.044 144.993 128.842 145.161C128.627 145.34 128.711 146.32 128.711 146.32Z" fill="#8B5F3C"/>
<path d="M125.535 148.927C126.201 148.927 126.748 148.7 126.748 148.425H124.321C124.321 148.7 124.857 148.927 125.535 148.927Z" fill="white"/>
</g>
<mask id="mask9" mask-type="alpha" maskUnits="userSpaceOnUse" x="142" y="137" width="21" height="21">
<path d="M162.606 147.444C162.606 141.837 158.075 137.283 152.496 137.283C146.918 137.283 142.386 141.837 142.386 147.444C142.386 153.05 146.918 157.605 152.496 157.605C158.075 157.605 162.606 153.05 162.606 147.444Z" fill="#F6A100"/>
</mask>
<g mask="url(#mask9)">
<path d="M162.606 147.444C162.606 141.837 158.075 137.283 152.496 137.283C146.918 137.283 142.386 141.837 142.386 147.444C142.386 153.05 146.918 157.605 152.496 157.605C158.075 157.605 162.606 153.05 162.606 147.444Z" fill="#7E97C9"/>
<path d="M153.971 150.002H151.01V153.265H153.971V150.002Z" fill="#D9A78C"/>
<path d="M150.653 151.951C150.653 151.951 147.834 152.369 147.417 152.799C147.061 153.182 146.299 156.804 146.133 157.605C151.081 157.605 152.496 157.605 152.496 157.605V152.106L150.653 151.951Z" fill="#C0D0D8"/>
<path d="M154.328 151.951C154.328 151.951 157.147 152.369 157.563 152.799C157.92 153.182 158.681 156.804 158.848 157.605C153.9 157.605 152.484 157.605 152.484 157.605V152.106L154.328 151.951Z" fill="#C0D0D8"/>
<path d="M152.306 152.644L151.926 156.517L152.496 157.593L153.056 156.517L152.687 152.644H152.306Z" fill="#14A89A"/>
<path d="M152.996 152.608L152.496 153.11L151.997 152.608L152.496 152.105L152.996 152.608Z" fill="#14A89A"/>
<path d="M152.496 140.666C153.935 140.666 156.207 141.491 156.207 145.34C156.207 147.564 155.481 149.022 155.172 149.417C154.887 149.787 153.257 150.576 152.496 150.576C152.496 146.691 152.496 140.666 152.496 140.666Z" fill="#F2D7BC"/>
<path d="M156.922 146.261C156.981 145.652 156.696 145.102 156.267 145.042C155.839 144.982 155.447 145.436 155.387 146.046C155.328 146.656 155.613 147.206 156.041 147.265C156.458 147.325 156.85 146.871 156.922 146.261Z" fill="#EAC0A7"/>
<path d="M152.496 140.666C151.057 140.666 148.785 141.491 148.785 145.34C148.785 147.564 149.511 149.022 149.82 149.417C150.105 149.787 151.735 150.576 152.496 150.576C152.496 146.691 152.496 140.666 152.496 140.666Z" fill="#F2D7BC"/>
<path d="M148.071 146.261C148.012 145.651 148.297 145.101 148.725 145.041C149.153 144.982 149.546 145.436 149.605 146.046C149.665 146.655 149.379 147.205 148.951 147.265C148.523 147.325 148.131 146.87 148.071 146.261Z" fill="#F2D7BC"/>
<path d="M152.497 152.106L150.986 151.496L150.617 151.867L151.367 153.54L152.497 152.106Z" fill="white"/>
<path d="M152.496 152.106L153.995 151.496L154.363 151.867L153.614 153.54L152.496 152.106Z" fill="white"/>
<path d="M151.116 155.944H149.237V156.362H151.116V155.944Z" fill="#7F97A3"/>
<path d="M155.755 155.944H153.876V156.362H155.755V155.944Z" fill="#7F97A3"/>
<path d="M149.273 146.32H149.535C149.535 146.32 149.38 145.316 149.832 144.993C149.832 144.491 149.832 144.348 149.832 144.348C149.832 144.348 149.653 144.324 149.653 143.571C149.653 142.806 150.557 142.268 152.484 142.268C152.484 141.18 152.484 139.925 152.484 139.925C152.484 139.925 148.666 140.343 148.666 143.129C148.666 144.288 148.666 145.041 148.666 145.041C148.666 145.041 148.94 144.993 149.142 145.161C149.368 145.34 149.273 146.32 149.273 146.32Z" fill="#8B5F3C"/>
<path d="M155.672 146.32H155.411C155.411 146.32 155.565 145.316 155.113 144.993C155.113 144.491 155.113 144.348 155.113 144.348C155.113 144.348 155.292 144.324 155.292 143.571C155.292 142.806 154.388 142.268 152.461 142.268C152.461 141.18 152.461 139.925 152.461 139.925C152.461 139.925 156.279 140.343 156.279 143.129C156.279 144.288 156.279 145.041 156.279 145.041C156.279 145.041 156.005 144.993 155.803 145.161C155.589 145.34 155.672 146.32 155.672 146.32Z" fill="#8B5F3C"/>
<path d="M152.496 148.927C153.162 148.927 153.709 148.7 153.709 148.425H151.283C151.283 148.7 151.818 148.927 152.496 148.927Z" fill="white"/>
</g>
<mask id="mask10" mask-type="alpha" maskUnits="userSpaceOnUse" x="88" y="137" width="21" height="21">
<path d="M108.685 147.444C108.685 141.837 104.153 137.283 98.5746 137.283C92.9961 137.283 88.4644 141.837 88.4644 147.444C88.4644 153.05 92.9961 157.605 98.5746 157.605C104.153 157.605 108.685 153.05 108.685 147.444Z" fill="#F6A100"/>
</mask>
<g mask="url(#mask10)">
<path d="M108.685 147.444C108.685 141.837 104.153 137.283 98.5746 137.283C92.9961 137.283 88.4644 141.837 88.4644 147.444C88.4644 153.05 92.9961 157.605 98.5746 157.605C104.153 157.605 108.685 153.05 108.685 147.444Z" fill="#7E97C9"/>
<path d="M100.05 150.002H97.0884V153.265H100.05V150.002Z" fill="#D9A78C"/>
<path d="M96.7313 151.951C96.7313 151.951 93.9123 152.369 93.496 152.799C93.1392 153.182 92.3779 156.804 92.2114 157.605C97.1595 157.605 98.5749 157.605 98.5749 157.605V152.106L96.7313 151.951Z" fill="#C0D0D8"/>
<path d="M100.407 151.951C100.407 151.951 103.226 152.369 103.642 152.799C103.999 153.182 104.76 156.804 104.926 157.605C99.9784 157.605 98.563 157.605 98.563 157.605V152.106L100.407 151.951Z" fill="#C0D0D8"/>
<path d="M98.3848 152.644L98.0042 156.517L98.5751 157.593L99.1341 156.517L98.7654 152.644H98.3848Z" fill="#14A89A"/>
<path d="M99.0743 152.608L98.5748 153.11L98.0752 152.608L98.5748 152.105L99.0743 152.608Z" fill="#14A89A"/>
<path d="M98.5745 140.666C100.014 140.666 102.286 141.491 102.286 145.34C102.286 147.564 101.56 149.022 101.251 149.417C100.965 149.787 99.3357 150.576 98.5745 150.576C98.5745 146.691 98.5745 140.666 98.5745 140.666Z" fill="#F2D7BC"/>
<path d="M102.998 146.261C103.058 145.652 102.773 145.102 102.344 145.042C101.916 144.982 101.524 145.436 101.464 146.046C101.405 146.656 101.69 147.206 102.118 147.265C102.535 147.325 102.927 146.871 102.998 146.261Z" fill="#EAC0A7"/>
<path d="M98.5756 140.667C97.1363 140.667 94.8645 141.491 94.8645 145.341C94.8645 147.564 95.5901 149.023 95.8993 149.417C96.1848 149.788 97.8143 150.577 98.5756 150.577C98.5756 146.691 98.5756 140.667 98.5756 140.667Z" fill="#F2D7BC"/>
<path d="M94.1504 146.261C94.0909 145.652 94.3764 145.102 94.8046 145.042C95.2328 144.982 95.6253 145.436 95.6848 146.046C95.7443 146.656 95.4588 147.206 95.0306 147.265C94.6024 147.325 94.2099 146.871 94.1504 146.261Z" fill="#F2D7BC"/>
<path d="M98.5749 152.106L97.0643 151.496L96.6956 151.867L97.4449 153.54L98.5749 152.106Z" fill="white"/>
<path d="M98.5745 152.106L100.073 151.496L100.442 151.867L99.6925 153.54L98.5745 152.106Z" fill="white"/>
<path d="M97.195 155.944H95.3157V156.362H97.195V155.944Z" fill="#7F97A3"/>
<path d="M101.834 155.944H99.9543V156.362H101.834V155.944Z" fill="#7F97A3"/>
<path d="M95.3515 146.32H95.6132C95.6132 146.32 95.4585 145.316 95.9105 144.993C95.9105 144.491 95.9105 144.348 95.9105 144.348C95.9105 144.348 95.7321 144.324 95.7321 143.571C95.7321 142.806 96.6361 142.268 98.563 142.268C98.563 141.18 98.563 139.925 98.563 139.925C98.563 139.925 94.7449 140.343 94.7449 143.129C94.7449 144.288 94.7449 145.041 94.7449 145.041C94.7449 145.041 95.0184 144.993 95.2206 145.161C95.4466 145.34 95.3515 146.32 95.3515 146.32Z" fill="#8B5F3C"/>
<path d="M101.751 146.32H101.489C101.489 146.32 101.644 145.316 101.192 144.993C101.192 144.491 101.192 144.348 101.192 144.348C101.192 144.348 101.37 144.324 101.37 143.571C101.37 142.806 100.466 142.268 98.5393 142.268C98.5393 141.18 98.5393 139.925 98.5393 139.925C98.5393 139.925 102.357 140.343 102.357 143.129C102.357 144.288 102.357 145.041 102.357 145.041C102.357 145.041 102.084 144.993 101.882 145.161C101.668 145.34 101.751 146.32 101.751 146.32Z" fill="#8B5F3C"/>
<path d="M98.5746 148.927C99.2406 148.927 99.7878 148.7 99.7878 148.425H97.3613C97.3613 148.7 97.8966 148.927 98.5746 148.927Z" fill="white"/>
</g>
<mask id="mask11" mask-type="alpha" maskUnits="userSpaceOnUse" x="200" y="66" width="28" height="28">
<path d="M227.481 79.7025C227.481 72.2271 221.439 66.1543 214.001 66.1543C206.563 66.1543 200.52 72.2271 200.52 79.7025C200.52 87.1779 206.563 93.2507 214.001 93.2507C221.454 93.2507 227.481 87.1779 227.481 79.7025Z" fill="#B5332B"/>
</mask>
<g mask="url(#mask11)">
<path d="M227.481 79.7025C227.481 72.2271 221.439 66.1543 214.001 66.1543C206.563 66.1543 200.52 72.2271 200.52 79.7025C200.52 87.1779 206.563 93.2507 214.001 93.2507C221.454 93.2507 227.481 87.1779 227.481 79.7025Z" fill="#6C67AB"/>
<path d="M215.982 83.1133H212.033V87.4646H215.982V83.1133Z" fill="#D9A78C"/>
<path d="M216.459 85.7114C216.459 85.7114 220.217 86.2693 220.772 86.8431C221.248 87.3531 222.263 92.1827 222.485 93.2506C215.888 93.2506 214 93.2506 214 93.2506V85.9186L216.459 85.7114Z" fill="#CFE1EB"/>
<path d="M214 70.6641C215.919 70.6641 218.949 71.7639 218.949 76.8962C218.949 79.8609 217.981 81.8054 217.569 82.3314C217.188 82.8255 215.015 83.8775 214 83.8775C214 78.6973 214 70.6641 214 70.6641Z" fill="#F2D7BC"/>
<path d="M219.9 78.1069C219.98 77.2941 219.599 76.5609 219.028 76.4812C218.457 76.4015 217.934 77.0072 217.854 77.82C217.775 78.6329 218.156 79.3661 218.727 79.4458C219.298 79.5415 219.821 78.9358 219.9 78.1069Z" fill="#EAC0A7"/>
<path d="M214.001 70.6641C212.082 70.6641 209.052 71.7639 209.052 76.8962C209.052 79.8609 210.02 81.8054 210.432 82.3314C210.813 82.8255 212.986 83.8775 214.001 83.8775C214.001 78.6973 214.001 70.6641 214.001 70.6641Z" fill="#F2D7BC"/>
<path d="M208.101 78.1069C208.021 77.2941 208.402 76.5609 208.973 76.4812C209.544 76.4015 210.067 77.0072 210.146 77.82C210.226 78.6329 209.845 79.3661 209.274 79.4458C208.719 79.5415 208.196 78.9358 208.101 78.1069Z" fill="#F2D7BC"/>
<path d="M211.558 85.7114C211.558 85.7114 207.799 86.2693 207.244 86.8431C206.768 87.3531 205.753 92.1827 205.531 93.2506C212.129 93.2506 214.016 93.2506 214.016 93.2506V85.9186L211.558 85.7114Z" fill="#CFE1EB"/>
<path d="M214 85.9188L212.002 85.106L211.51 85.6001L212.509 87.8315L214 85.9188Z" fill="white"/>
<path d="M214 85.9188L216.015 85.106L216.506 85.6001L215.507 87.8315L214 85.9188Z" fill="white"/>
<path d="M219.059 76.6107C219.059 76.6107 220.677 69.1831 213.968 69.1831C207.228 69.1831 208.909 76.4035 208.909 76.4035C208.909 76.4035 209.829 75.8775 209.829 78.2524C210.194 78.2524 210.003 78.2524 210.003 78.2524C210.003 78.2524 210.336 76.6585 210.432 75.2399C212.81 75.2399 214.904 74.9371 216.664 73.4707C217.663 73.4707 217.806 74.7299 217.806 75.6862L217.362 75.8616C217.362 75.8616 217.79 76.6904 217.822 78.2684C218.123 78.2684 218.123 78.2684 218.123 78.2684C218.123 78.2684 218.092 75.6384 219.059 76.6107Z" fill="#8B5F3C"/>
<path d="M214 81.9502C214.888 81.9502 215.618 81.6474 215.618 81.2808H212.383C212.383 81.6474 213.112 81.9502 214 81.9502Z" fill="white"/>
</g>
<mask id="mask12" mask-type="alpha" maskUnits="userSpaceOnUse" x="203" y="110" width="22" height="21">
<path d="M224.11 120.347C224.11 114.741 219.578 110.186 214 110.186C208.421 110.186 203.89 114.741 203.89 120.347C203.89 125.954 208.421 130.508 214 130.508C219.578 130.508 224.11 125.954 224.11 120.347Z" fill="#F6A100"/>
</mask>
<g mask="url(#mask12)">
<path d="M224.11 120.347C224.11 114.741 219.578 110.186 214 110.186C208.421 110.186 203.89 114.741 203.89 120.347C203.89 125.954 208.421 130.508 214 130.508C219.578 130.508 224.11 125.954 224.11 120.347Z" fill="#7E97C9"/>
<path d="M215.475 122.905H212.514V126.168H215.475V122.905Z" fill="#D9A78C"/>
<path d="M212.157 124.854C212.157 124.854 209.338 125.272 208.921 125.702C208.564 126.085 207.803 129.707 207.637 130.508C212.585 130.508 214 130.508 214 130.508V125.009L212.157 124.854Z" fill="#C0D0D8"/>
<path d="M215.832 124.854C215.832 124.854 218.651 125.272 219.067 125.702C219.424 126.085 220.185 129.707 220.352 130.508C215.404 130.508 213.988 130.508 213.988 130.508V125.009L215.832 124.854Z" fill="#C0D0D8"/>
<path d="M213.81 125.546L213.429 129.42L214 130.495L214.559 129.42L214.191 125.546H213.81Z" fill="#14A89A"/>
<path d="M214.5 125.51L214 126.012L213.5 125.51L214 125.008L214.5 125.51Z" fill="#14A89A"/>
<path d="M214 113.569C215.439 113.569 217.711 114.394 217.711 118.243C217.711 120.467 216.985 121.925 216.676 122.32C216.391 122.69 214.761 123.479 214 123.479C214 119.594 214 113.569 214 113.569Z" fill="#F2D7BC"/>
<path d="M218.425 119.164C218.484 118.554 218.199 118.004 217.771 117.944C217.343 117.884 216.95 118.339 216.891 118.948C216.831 119.558 217.117 120.108 217.545 120.168C217.961 120.228 218.354 119.773 218.425 119.164Z" fill="#EAC0A7"/>
<path d="M214.001 113.568C212.561 113.568 210.29 114.393 210.29 118.242C210.29 120.466 211.015 121.924 211.324 122.319C211.61 122.689 213.239 123.478 214.001 123.478C214.001 119.593 214.001 113.568 214.001 113.568Z" fill="#F2D7BC"/>
<path d="M209.575 119.163C209.516 118.553 209.801 118.004 210.23 117.944C210.658 117.884 211.05 118.338 211.11 118.948C211.169 119.558 210.884 120.107 210.456 120.167C210.027 120.227 209.635 119.773 209.575 119.163Z" fill="#F2D7BC"/>
<path d="M214 125.009L212.489 124.399L212.121 124.77L212.87 126.443L214 125.009Z" fill="white"/>
<path d="M214 125.009L215.498 124.399L215.867 124.77L215.118 126.443L214 125.009Z" fill="white"/>
<path d="M212.62 128.847H210.741V129.265H212.62V128.847Z" fill="#7F97A3"/>
<path d="M217.259 128.847H215.38V129.265H217.259V128.847Z" fill="#7F97A3"/>
<path d="M210.777 119.223H211.038C211.038 119.223 210.884 118.219 211.336 117.896C211.336 117.394 211.336 117.251 211.336 117.251C211.336 117.251 211.157 117.227 211.157 116.474C211.157 115.709 212.061 115.171 213.988 115.171C213.988 114.083 213.988 112.828 213.988 112.828C213.988 112.828 210.17 113.246 210.17 116.031C210.17 117.191 210.17 117.944 210.17 117.944C210.17 117.944 210.443 117.896 210.646 118.064C210.872 118.243 210.777 119.223 210.777 119.223Z" fill="#8B5F3C"/>
<path d="M217.176 119.223H216.914C216.914 119.223 217.069 118.219 216.617 117.896C216.617 117.394 216.617 117.251 216.617 117.251C216.617 117.251 216.795 117.227 216.795 116.474C216.795 115.709 215.891 115.171 213.965 115.171C213.965 114.083 213.965 112.828 213.965 112.828C213.965 112.828 217.783 113.246 217.783 116.031C217.783 117.191 217.783 117.944 217.783 117.944C217.783 117.944 217.509 117.896 217.307 118.064C217.093 118.243 217.176 119.223 217.176 119.223Z" fill="#8B5F3C"/>
<path d="M214 121.83C214.666 121.83 215.213 121.603 215.213 121.328H212.786C212.786 121.603 213.322 121.83 214 121.83Z" fill="white"/>
</g>
<mask id="mask13" mask-type="alpha" maskUnits="userSpaceOnUse" x="203" y="137" width="22" height="21">
<path d="M224.11 147.443C224.11 141.837 219.578 137.282 214 137.282C208.421 137.282 203.89 141.837 203.89 147.443C203.89 153.05 208.421 157.604 214 157.604C219.578 157.604 224.11 153.05 224.11 147.443Z" fill="#F6A100"/>
</mask>
<g mask="url(#mask13)">
<path d="M224.11 147.443C224.11 141.837 219.578 137.282 214 137.282C208.421 137.282 203.89 141.837 203.89 147.443C203.89 153.05 208.421 157.604 214 157.604C219.578 157.604 224.11 153.05 224.11 147.443Z" fill="#7E97C9"/>
<path d="M215.475 150.001H212.513V153.265H215.475V150.001Z" fill="#D9A78C"/>
<path d="M212.156 151.95C212.156 151.95 209.337 152.369 208.921 152.799C208.564 153.181 207.803 156.804 207.636 157.605C212.585 157.605 214 157.605 214 157.605V152.106L212.156 151.95Z" fill="#C0D0D8"/>
<path d="M215.832 151.95C215.832 151.95 218.651 152.369 219.067 152.799C219.424 153.181 220.185 156.804 220.352 157.605C215.403 157.605 213.988 157.605 213.988 157.605V152.106L215.832 151.95Z" fill="#C0D0D8"/>
<path d="M213.809 152.643L213.429 156.516L214 157.592L214.559 156.516L214.19 152.643H213.809Z" fill="#14A89A"/>
<path d="M214.499 152.607L214 153.109L213.5 152.607L214 152.105L214.499 152.607Z" fill="#14A89A"/>
<path d="M214 140.666C215.439 140.666 217.711 141.49 217.711 145.34C217.711 147.563 216.985 149.022 216.676 149.416C216.39 149.787 214.761 150.576 214 150.576C214 146.69 214 140.666 214 140.666Z" fill="#F2D7BC"/>
<path d="M218.425 146.261C218.484 145.651 218.199 145.101 217.771 145.041C217.342 144.982 216.95 145.436 216.89 146.046C216.831 146.655 217.116 147.205 217.545 147.265C217.961 147.325 218.353 146.87 218.425 146.261Z" fill="#EAC0A7"/>
<path d="M214 140.666C212.561 140.666 210.289 141.49 210.289 145.34C210.289 147.563 211.015 149.022 211.324 149.416C211.61 149.787 213.239 150.576 214 150.576C214 146.69 214 140.666 214 140.666Z" fill="#F2D7BC"/>
<path d="M209.575 146.26C209.516 145.651 209.801 145.101 210.229 145.041C210.658 144.981 211.05 145.435 211.11 146.045C211.169 146.655 210.884 147.205 210.455 147.264C210.027 147.324 209.635 146.87 209.575 146.26Z" fill="#F2D7BC"/>
<path d="M214 152.105L212.489 151.496L212.121 151.866L212.87 153.54L214 152.105Z" fill="white"/>
<path d="M214 152.105L215.498 151.496L215.867 151.866L215.118 153.54L214 152.105Z" fill="white"/>
<path d="M212.62 155.943H210.741V156.362H212.62V155.943Z" fill="#7F97A3"/>
<path d="M217.259 155.943H215.379V156.362H217.259V155.943Z" fill="#7F97A3"/>
<path d="M210.777 146.32H211.038C211.038 146.32 210.884 145.316 211.336 144.993C211.336 144.491 211.336 144.347 211.336 144.347C211.336 144.347 211.157 144.323 211.157 143.57C211.157 142.805 212.061 142.267 213.988 142.267C213.988 141.18 213.988 139.924 213.988 139.924C213.988 139.924 210.17 140.343 210.17 143.128C210.17 144.288 210.17 145.041 210.17 145.041C210.17 145.041 210.443 144.993 210.646 145.16C210.872 145.34 210.777 146.32 210.777 146.32Z" fill="#8B5F3C"/>
<path d="M217.175 146.32H216.913C216.913 146.32 217.068 145.316 216.616 144.993C216.616 144.491 216.616 144.347 216.616 144.347C216.616 144.347 216.794 144.323 216.794 143.57C216.794 142.805 215.891 142.267 213.964 142.267C213.964 141.18 213.964 139.924 213.964 139.924C213.964 139.924 217.782 140.343 217.782 143.128C217.782 144.288 217.782 145.041 217.782 145.041C217.782 145.041 217.508 144.993 217.306 145.16C217.092 145.34 217.175 146.32 217.175 146.32Z" fill="#8B5F3C"/>
<path d="M214 148.926C214.666 148.926 215.213 148.699 215.213 148.424H212.786C212.786 148.699 213.322 148.926 214 148.926Z" fill="white"/>
</g>
<mask id="mask14" mask-type="alpha" maskUnits="userSpaceOnUse" x="230" y="137" width="22" height="21">
<path d="M251.071 147.443C251.071 141.837 246.54 137.282 240.961 137.282C235.383 137.282 230.851 141.837 230.851 147.443C230.851 153.05 235.383 157.604 240.961 157.604C246.54 157.604 251.071 153.05 251.071 147.443Z" fill="#F6A100"/>
</mask>
<g mask="url(#mask14)">
<path d="M251.071 147.443C251.071 141.837 246.54 137.282 240.961 137.282C235.383 137.282 230.851 141.837 230.851 147.443C230.851 153.05 235.383 157.604 240.961 157.604C246.54 157.604 251.071 153.05 251.071 147.443Z" fill="#7E97C9"/>
<path d="M242.436 150.001H239.474V153.265H242.436V150.001Z" fill="#D9A78C"/>
<path d="M239.117 151.95C239.117 151.95 236.298 152.369 235.882 152.799C235.525 153.181 234.764 156.804 234.597 157.605C239.545 157.605 240.961 157.605 240.961 157.605V152.106L239.117 151.95Z" fill="#C0D0D8"/>
<path d="M242.793 151.95C242.793 151.95 245.612 152.369 246.028 152.799C246.385 153.181 247.146 156.804 247.312 157.605C242.364 157.605 240.949 157.605 240.949 157.605V152.106L242.793 151.95Z" fill="#C0D0D8"/>
<path d="M240.771 152.643L240.391 156.516L240.962 157.592L241.521 156.516L241.152 152.643H240.771Z" fill="#14A89A"/>
<path d="M241.461 152.607L240.961 153.109L240.462 152.607L240.961 152.105L241.461 152.607Z" fill="#14A89A"/>
<path d="M240.961 140.666C242.4 140.666 244.672 141.49 244.672 145.34C244.672 147.563 243.946 149.022 243.637 149.416C243.352 149.787 241.722 150.576 240.961 150.576C240.961 146.69 240.961 140.666 240.961 140.666Z" fill="#F2D7BC"/>
<path d="M245.386 146.261C245.445 145.651 245.16 145.101 244.732 145.041C244.303 144.982 243.911 145.436 243.851 146.046C243.792 146.655 244.077 147.205 244.506 147.265C244.922 147.325 245.314 146.87 245.386 146.261Z" fill="#EAC0A7"/>
<path d="M240.962 140.666C239.522 140.666 237.25 141.49 237.25 145.34C237.25 147.563 237.976 149.022 238.285 149.416C238.571 149.787 240.2 150.576 240.962 150.576C240.962 146.69 240.962 140.666 240.962 140.666Z" fill="#F2D7BC"/>
<path d="M236.536 146.26C236.477 145.651 236.762 145.101 237.191 145.041C237.619 144.981 238.011 145.435 238.071 146.045C238.13 146.655 237.845 147.205 237.417 147.264C236.988 147.324 236.596 146.87 236.536 146.26Z" fill="#F2D7BC"/>
<path d="M240.961 152.105L239.451 151.496L239.082 151.866L239.831 153.54L240.961 152.105Z" fill="white"/>
<path d="M240.961 152.105L242.46 151.496L242.828 151.866L242.079 153.54L240.961 152.105Z" fill="white"/>
<path d="M239.581 155.943H237.702V156.362H239.581V155.943Z" fill="#7F97A3"/>
<path d="M244.22 155.943H242.34V156.362H244.22V155.943Z" fill="#7F97A3"/>
<path d="M237.737 146.32H237.999C237.999 146.32 237.845 145.316 238.297 144.993C238.297 144.491 238.297 144.347 238.297 144.347C238.297 144.347 238.118 144.323 238.118 143.57C238.118 142.805 239.022 142.267 240.949 142.267C240.949 141.18 240.949 139.924 240.949 139.924C240.949 139.924 237.131 140.343 237.131 143.128C237.131 144.288 237.131 145.041 237.131 145.041C237.131 145.041 237.404 144.993 237.607 145.16C237.833 145.34 237.737 146.32 237.737 146.32Z" fill="#8B5F3C"/>
<path d="M244.137 146.32H243.876C243.876 146.32 244.03 145.316 243.578 144.993C243.578 144.491 243.578 144.347 243.578 144.347C243.578 144.347 243.757 144.323 243.757 143.57C243.757 142.805 242.853 142.267 240.926 142.267C240.926 141.18 240.926 139.924 240.926 139.924C240.926 139.924 244.744 140.343 244.744 143.128C244.744 144.288 244.744 145.041 244.744 145.041C244.744 145.041 244.47 144.993 244.268 145.16C244.054 145.34 244.137 146.32 244.137 146.32Z" fill="#8B5F3C"/>
<path d="M240.961 148.926C241.627 148.926 242.175 148.699 242.175 148.424H239.748C239.748 148.699 240.283 148.926 240.961 148.926Z" fill="white"/>
</g>
<mask id="mask15" mask-type="alpha" maskUnits="userSpaceOnUse" x="176" y="137" width="22" height="21">
<path d="M197.15 147.443C197.15 141.837 192.618 137.282 187.039 137.282C181.461 137.282 176.929 141.837 176.929 147.443C176.929 153.05 181.461 157.604 187.039 157.604C192.618 157.604 197.15 153.05 197.15 147.443Z" fill="#F6A100"/>
</mask>
<g mask="url(#mask15)">
<path d="M197.15 147.443C197.15 141.837 192.618 137.282 187.039 137.282C181.461 137.282 176.929 141.837 176.929 147.443C176.929 153.05 181.461 157.604 187.039 157.604C192.618 157.604 197.15 153.05 197.15 147.443Z" fill="#7E97C9"/>
<path d="M188.514 150.001H185.552V153.265H188.514V150.001Z" fill="#D9A78C"/>
<path d="M185.195 151.95C185.195 151.95 182.376 152.369 181.96 152.799C181.603 153.181 180.842 156.804 180.675 157.605C185.623 157.605 187.039 157.605 187.039 157.605V152.106L185.195 151.95Z" fill="#C0D0D8"/>
<path d="M188.87 151.95C188.87 151.95 191.689 152.369 192.106 152.799C192.463 153.181 193.224 156.804 193.39 157.605C188.442 157.605 187.027 157.605 187.027 157.605V152.106L188.87 151.95Z" fill="#C0D0D8"/>
<path d="M186.849 152.643L186.468 156.516L187.039 157.592L187.598 156.516L187.229 152.643H186.849Z" fill="#14A89A"/>
<path d="M187.538 152.607L187.039 153.109L186.539 152.607L187.039 152.105L187.538 152.607Z" fill="#14A89A"/>
<path d="M187.038 140.666C188.478 140.666 190.749 141.49 190.749 145.34C190.749 147.563 190.024 149.022 189.715 149.416C189.429 149.787 187.8 150.576 187.038 150.576C187.038 146.69 187.038 140.666 187.038 140.666Z" fill="#F2D7BC"/>
<path d="M191.464 146.261C191.523 145.651 191.238 145.101 190.81 145.041C190.381 144.982 189.989 145.436 189.929 146.046C189.87 146.655 190.155 147.205 190.584 147.265C191 147.325 191.392 146.87 191.464 146.261Z" fill="#EAC0A7"/>
<path d="M187.039 140.666C185.6 140.666 183.328 141.491 183.328 145.34C183.328 147.564 184.054 149.022 184.363 149.417C184.649 149.787 186.278 150.576 187.039 150.576C187.039 146.691 187.039 140.666 187.039 140.666Z" fill="#F2D7BC"/>
<path d="M182.614 146.261C182.555 145.651 182.84 145.101 183.268 145.041C183.697 144.982 184.089 145.436 184.149 146.046C184.208 146.655 183.923 147.205 183.494 147.265C183.066 147.325 182.674 146.87 182.614 146.261Z" fill="#F2D7BC"/>
<path d="M187.039 152.105L185.528 151.496L185.159 151.866L185.909 153.54L187.039 152.105Z" fill="white"/>
<path d="M187.038 152.105L188.537 151.496L188.906 151.866L188.156 153.54L187.038 152.105Z" fill="white"/>
<path d="M185.659 155.943H183.78V156.362H185.659V155.943Z" fill="#7F97A3"/>
<path d="M190.298 155.943H188.418V156.362H190.298V155.943Z" fill="#7F97A3"/>
<path d="M183.815 146.32H184.077C184.077 146.32 183.922 145.316 184.374 144.993C184.374 144.491 184.374 144.347 184.374 144.347C184.374 144.347 184.196 144.323 184.196 143.57C184.196 142.805 185.1 142.267 187.027 142.267C187.027 141.18 187.027 139.924 187.027 139.924C187.027 139.924 183.209 140.343 183.209 143.128C183.209 144.288 183.209 145.041 183.209 145.041C183.209 145.041 183.482 144.993 183.685 145.16C183.911 145.34 183.815 146.32 183.815 146.32Z" fill="#8B5F3C"/>
<path d="M190.215 146.32H189.953C189.953 146.32 190.108 145.316 189.656 144.993C189.656 144.491 189.656 144.347 189.656 144.347C189.656 144.347 189.834 144.323 189.834 143.57C189.834 142.805 188.93 142.267 187.003 142.267C187.003 141.18 187.003 139.924 187.003 139.924C187.003 139.924 190.821 140.343 190.821 143.128C190.821 144.288 190.821 145.041 190.821 145.041C190.821 145.041 190.548 144.993 190.345 145.16C190.131 145.34 190.215 146.32 190.215 146.32Z" fill="#8B5F3C"/>
<path d="M187.038 148.926C187.705 148.926 188.252 148.699 188.252 148.424H185.825C185.825 148.699 186.36 148.926 187.038 148.926Z" fill="white"/>
</g>
<mask id="mask16" mask-type="alpha" maskUnits="userSpaceOnUse" x="288" y="66" width="28" height="28">
<path d="M315.945 79.7025C315.945 72.2271 309.903 66.1543 302.465 66.1543C295.027 66.1543 288.984 72.2271 288.984 79.7025C288.984 87.1779 295.027 93.2507 302.465 93.2507C309.918 93.2507 315.945 87.1779 315.945 79.7025Z" fill="#B5332B"/>
</mask>
<g mask="url(#mask16)">
<path d="M315.945 79.7025C315.945 72.2271 309.903 66.1543 302.465 66.1543C295.027 66.1543 288.984 72.2271 288.984 79.7025C288.984 87.1779 295.027 93.2507 302.465 93.2507C309.918 93.2507 315.945 87.1779 315.945 79.7025Z" fill="#6C67AB"/>
<path d="M304.448 83.1147H300.499V87.4661H304.448V83.1147Z" fill="#D9A78C"/>
<path d="M304.924 85.7124C304.924 85.7124 308.683 86.2703 309.238 86.8441C309.713 87.3541 310.728 92.1836 310.95 93.2516C304.353 93.2516 302.466 93.2516 302.466 93.2516V85.9196L304.924 85.7124Z" fill="#CFE1EB"/>
<path d="M302.466 70.6655C304.385 70.6655 307.414 71.7653 307.414 76.8977C307.414 79.8623 306.446 81.8069 306.034 82.3329C305.654 82.827 303.481 83.879 302.466 83.879C302.466 78.6988 302.466 70.6655 302.466 70.6655Z" fill="#F2D7BC"/>
<path d="M308.366 78.1089C308.445 77.296 308.064 76.5628 307.493 76.4831C306.922 76.4034 306.399 77.0091 306.32 77.822C306.24 78.6349 306.621 79.3681 307.192 79.4478C307.763 79.5434 308.286 78.9377 308.366 78.1089Z" fill="#EAC0A7"/>
<path d="M302.466 70.6655C300.547 70.6655 297.518 71.7653 297.518 76.8977C297.518 79.8623 298.485 81.8069 298.898 82.3329C299.278 82.827 301.451 83.879 302.466 83.879C302.466 78.6988 302.466 70.6655 302.466 70.6655Z" fill="#F2D7BC"/>
<path d="M296.566 78.1089C296.487 77.296 296.867 76.5628 297.438 76.4831C298.009 76.4034 298.532 77.0091 298.612 77.822C298.691 78.6349 298.31 79.3681 297.739 79.4478C297.184 79.5434 296.661 78.9377 296.566 78.1089Z" fill="#F2D7BC"/>
<path d="M300.023 85.7124C300.023 85.7124 296.264 86.2703 295.709 86.8441C295.234 87.3541 294.219 92.1836 293.997 93.2516C300.594 93.2516 302.481 93.2516 302.481 93.2516V85.9196L300.023 85.7124Z" fill="#CFE1EB"/>
<path d="M302.465 85.9203L300.467 85.1074L299.975 85.6015L300.974 87.833L302.465 85.9203Z" fill="white"/>
<path d="M302.466 85.9203L304.48 85.1074L304.972 85.6015L303.972 87.833L302.466 85.9203Z" fill="white"/>
<path d="M307.525 76.6107C307.525 76.6107 309.142 69.1831 302.434 69.1831C295.694 69.1831 297.375 76.4035 297.375 76.4035C297.375 76.4035 298.295 75.8775 298.295 78.2524C298.659 78.2524 298.469 78.2524 298.469 78.2524C298.469 78.2524 298.802 76.6585 298.897 75.2399C301.276 75.2399 303.369 74.9371 305.13 73.4707C306.129 73.4707 306.272 74.7299 306.272 75.6862L305.828 75.8616C305.828 75.8616 306.256 76.6904 306.288 78.2684C306.589 78.2684 306.589 78.2684 306.589 78.2684C306.589 78.2684 306.557 75.6384 307.525 76.6107Z" fill="#8B5F3C"/>
<path d="M302.466 81.9502C303.354 81.9502 304.083 81.6474 304.083 81.2808H300.848C300.848 81.6474 301.577 81.9502 302.466 81.9502Z" fill="white"/>
</g>
<mask id="mask17" mask-type="alpha" maskUnits="userSpaceOnUse" x="292" y="110" width="21" height="21">
<path d="M312.575 120.347C312.575 114.741 308.043 110.186 302.465 110.186C296.886 110.186 292.354 114.741 292.354 120.347C292.354 125.954 296.886 130.508 302.465 130.508C308.043 130.508 312.575 125.954 312.575 120.347Z" fill="#F6A100"/>
</mask>
<g mask="url(#mask17)">
<path d="M312.575 120.347C312.575 114.741 308.043 110.186 302.465 110.186C296.886 110.186 292.354 114.741 292.354 120.347C292.354 125.954 296.886 130.508 302.465 130.508C308.043 130.508 312.575 125.954 312.575 120.347Z" fill="#7E97C9"/>
<path d="M303.94 122.905H300.979V126.168H303.94V122.905Z" fill="#D9A78C"/>
<path d="M300.622 124.854C300.622 124.854 297.803 125.272 297.386 125.702C297.03 126.085 296.268 129.707 296.102 130.508C301.05 130.508 302.465 130.508 302.465 130.508V125.009L300.622 124.854Z" fill="#C0D0D8"/>
<path d="M304.297 124.854C304.297 124.854 307.116 125.272 307.532 125.702C307.889 126.085 308.65 129.707 308.817 130.508C303.869 130.508 302.453 130.508 302.453 130.508V125.009L304.297 124.854Z" fill="#C0D0D8"/>
<path d="M302.275 125.546L301.895 129.42L302.465 130.495L303.024 129.42L302.656 125.546H302.275Z" fill="#14A89A"/>
<path d="M302.965 125.51L302.465 126.012L301.966 125.51L302.465 125.008L302.965 125.51Z" fill="#14A89A"/>
<path d="M302.465 113.569C303.904 113.569 306.176 114.394 306.176 118.243C306.176 120.466 305.45 121.925 305.141 122.319C304.856 122.69 303.226 123.479 302.465 123.479C302.465 119.594 302.465 113.569 302.465 113.569Z" fill="#F2D7BC"/>
<path d="M306.89 119.163C306.949 118.553 306.664 118.004 306.235 117.944C305.807 117.884 305.415 118.338 305.355 118.948C305.296 119.558 305.581 120.107 306.009 120.167C306.426 120.227 306.818 119.773 306.89 119.163Z" fill="#EAC0A7"/>
<path d="M302.466 113.568C301.027 113.568 298.755 114.393 298.755 118.242C298.755 120.466 299.481 121.924 299.79 122.319C300.075 122.689 301.705 123.478 302.466 123.478C302.466 119.593 302.466 113.568 302.466 113.568Z" fill="#F2D7BC"/>
<path d="M298.041 119.163C297.982 118.553 298.267 118.004 298.695 117.944C299.123 117.884 299.516 118.338 299.575 118.948C299.635 119.558 299.349 120.107 298.921 120.167C298.493 120.227 298.101 119.773 298.041 119.163Z" fill="#F2D7BC"/>
<path d="M302.465 125.009L300.955 124.399L300.586 124.77L301.335 126.443L302.465 125.009Z" fill="white"/>
<path d="M302.465 125.009L303.964 124.399L304.332 124.77L303.583 126.443L302.465 125.009Z" fill="white"/>
<path d="M301.085 128.847H299.206V129.265H301.085V128.847Z" fill="#7F97A3"/>
<path d="M305.724 128.847H303.845V129.265H305.724V128.847Z" fill="#7F97A3"/>
<path d="M299.242 119.223H299.504C299.504 119.223 299.349 118.219 299.801 117.896C299.801 117.394 299.801 117.251 299.801 117.251C299.801 117.251 299.622 117.227 299.622 116.474C299.622 115.709 300.526 115.171 302.453 115.171C302.453 114.083 302.453 112.828 302.453 112.828C302.453 112.828 298.635 113.246 298.635 116.031C298.635 117.191 298.635 117.944 298.635 117.944C298.635 117.944 298.909 117.896 299.111 118.064C299.337 118.243 299.242 119.223 299.242 119.223Z" fill="#8B5F3C"/>
<path d="M305.641 119.223H305.379C305.379 119.223 305.534 118.219 305.082 117.896C305.082 117.394 305.082 117.251 305.082 117.251C305.082 117.251 305.261 117.227 305.261 116.474C305.261 115.709 304.357 115.171 302.43 115.171C302.43 114.083 302.43 112.828 302.43 112.828C302.43 112.828 306.248 113.246 306.248 116.031C306.248 117.191 306.248 117.944 306.248 117.944C306.248 117.944 305.974 117.896 305.772 118.064C305.558 118.243 305.641 119.223 305.641 119.223Z" fill="#8B5F3C"/>
<path d="M302.465 121.83C303.131 121.83 303.678 121.603 303.678 121.328H301.252C301.252 121.603 301.787 121.83 302.465 121.83Z" fill="white"/>
</g>
<mask id="mask18" mask-type="alpha" maskUnits="userSpaceOnUse" x="292" y="137" width="21" height="21">
<path d="M312.575 147.443C312.575 141.837 308.043 137.282 302.465 137.282C296.886 137.282 292.354 141.837 292.354 147.443C292.354 153.05 296.886 157.604 302.465 157.604C308.043 157.604 312.575 153.05 312.575 147.443Z" fill="#F6A100"/>
</mask>
<g mask="url(#mask18)">
<path d="M312.575 147.443C312.575 141.837 308.043 137.282 302.465 137.282C296.886 137.282 292.354 141.837 292.354 147.443C292.354 153.05 296.886 157.604 302.465 157.604C308.043 157.604 312.575 153.05 312.575 147.443Z" fill="#7E97C9"/>
<path d="M303.94 150.001H300.978V153.265H303.94V150.001Z" fill="#D9A78C"/>
<path d="M300.622 151.95C300.622 151.95 297.803 152.369 297.386 152.799C297.03 153.181 296.268 156.804 296.102 157.605C301.05 157.605 302.465 157.605 302.465 157.605V152.106L300.622 151.95Z" fill="#C0D0D8"/>
<path d="M304.297 151.95C304.297 151.95 307.116 152.369 307.532 152.799C307.889 153.181 308.65 156.804 308.817 157.605C303.869 157.605 302.453 157.605 302.453 157.605V152.106L304.297 151.95Z" fill="#C0D0D8"/>
<path d="M302.275 152.643L301.895 156.516L302.465 157.592L303.024 156.516L302.656 152.643H302.275Z" fill="#14A89A"/>
<path d="M302.965 152.607L302.465 153.109L301.966 152.607L302.465 152.105L302.965 152.607Z" fill="#14A89A"/>
<path d="M302.465 140.666C303.904 140.666 306.176 141.49 306.176 145.34C306.176 147.563 305.45 149.022 305.141 149.416C304.856 149.787 303.226 150.576 302.465 150.576C302.465 146.69 302.465 140.666 302.465 140.666Z" fill="#F2D7BC"/>
<path d="M306.89 146.261C306.949 145.651 306.664 145.101 306.235 145.041C305.807 144.982 305.415 145.436 305.355 146.046C305.296 146.655 305.581 147.205 306.009 147.265C306.426 147.325 306.818 146.87 306.89 146.261Z" fill="#EAC0A7"/>
<path d="M302.466 140.666C301.027 140.666 298.755 141.491 298.755 145.34C298.755 147.564 299.481 149.022 299.79 149.417C300.075 149.787 301.705 150.576 302.466 150.576C302.466 146.691 302.466 140.666 302.466 140.666Z" fill="#F2D7BC"/>
<path d="M298.041 146.261C297.982 145.651 298.267 145.101 298.695 145.041C299.123 144.982 299.516 145.436 299.575 146.046C299.635 146.655 299.349 147.205 298.921 147.265C298.493 147.325 298.101 146.87 298.041 146.261Z" fill="#F2D7BC"/>
<path d="M302.465 152.105L300.955 151.496L300.586 151.866L301.335 153.54L302.465 152.105Z" fill="white"/>
<path d="M302.465 152.105L303.964 151.496L304.332 151.866L303.583 153.54L302.465 152.105Z" fill="white"/>
<path d="M301.085 155.943H299.206V156.362H301.085V155.943Z" fill="#7F97A3"/>
<path d="M305.724 155.943H303.845V156.362H305.724V155.943Z" fill="#7F97A3"/>
<path d="M299.242 146.32H299.504C299.504 146.32 299.349 145.316 299.801 144.993C299.801 144.491 299.801 144.347 299.801 144.347C299.801 144.347 299.622 144.323 299.622 143.57C299.622 142.805 300.526 142.267 302.453 142.267C302.453 141.18 302.453 139.924 302.453 139.924C302.453 139.924 298.635 140.343 298.635 143.128C298.635 144.288 298.635 145.041 298.635 145.041C298.635 145.041 298.909 144.993 299.111 145.16C299.337 145.34 299.242 146.32 299.242 146.32Z" fill="#8B5F3C"/>
<path d="M305.64 146.32H305.379C305.379 146.32 305.533 145.316 305.081 144.993C305.081 144.491 305.081 144.347 305.081 144.347C305.081 144.347 305.26 144.323 305.26 143.57C305.26 142.805 304.356 142.267 302.429 142.267C302.429 141.18 302.429 139.924 302.429 139.924C302.429 139.924 306.247 140.343 306.247 143.128C306.247 144.288 306.247 145.041 306.247 145.041C306.247 145.041 305.973 144.993 305.771 145.16C305.557 145.34 305.64 146.32 305.64 146.32Z" fill="#8B5F3C"/>
<path d="M302.465 148.926C303.131 148.926 303.678 148.699 303.678 148.424H301.252C301.252 148.699 301.787 148.926 302.465 148.926Z" fill="white"/>
</g>
<mask id="mask19" mask-type="alpha" maskUnits="userSpaceOnUse" x="319" y="137" width="21" height="21">
<path d="M339.536 147.443C339.536 141.837 335.004 137.282 329.426 137.282C323.847 137.282 319.316 141.837 319.316 147.443C319.316 153.05 323.847 157.604 329.426 157.604C335.004 157.604 339.536 153.05 339.536 147.443Z" fill="#F6A100"/>
</mask>
<g mask="url(#mask19)">
<path d="M339.536 147.443C339.536 141.837 335.004 137.282 329.426 137.282C323.847 137.282 319.316 141.837 319.316 147.443C319.316 153.05 323.847 157.604 329.426 157.604C335.004 157.604 339.536 153.05 339.536 147.443Z" fill="#7E97C9"/>
<path d="M330.9 150.001H327.938V153.265H330.9V150.001Z" fill="#D9A78C"/>
<path d="M327.581 151.95C327.581 151.95 324.762 152.369 324.346 152.799C323.989 153.181 323.228 156.804 323.062 157.605C328.01 157.605 329.425 157.605 329.425 157.605V152.106L327.581 151.95Z" fill="#C0D0D8"/>
<path d="M331.257 151.95C331.257 151.95 334.076 152.369 334.492 152.799C334.849 153.181 335.61 156.804 335.777 157.605C330.829 157.605 329.413 157.605 329.413 157.605V152.106L331.257 151.95Z" fill="#C0D0D8"/>
<path d="M329.235 152.643L328.854 156.516L329.425 157.592L329.984 156.516L329.615 152.643H329.235Z" fill="#14A89A"/>
<path d="M329.924 152.607L329.425 153.109L328.925 152.607L329.425 152.105L329.924 152.607Z" fill="#14A89A"/>
<path d="M329.425 140.666C330.864 140.666 333.136 141.49 333.136 145.34C333.136 147.563 332.41 149.022 332.101 149.416C331.815 149.787 330.186 150.576 329.425 150.576C329.425 146.69 329.425 140.666 329.425 140.666Z" fill="#F2D7BC"/>
<path d="M333.849 146.261C333.909 145.651 333.623 145.101 333.195 145.041C332.767 144.982 332.374 145.436 332.315 146.046C332.255 146.655 332.541 147.205 332.969 147.265C333.385 147.325 333.778 146.87 333.849 146.261Z" fill="#EAC0A7"/>
<path d="M329.426 140.666C327.987 140.666 325.715 141.491 325.715 145.34C325.715 147.564 326.441 149.022 326.75 149.417C327.035 149.787 328.665 150.576 329.426 150.576C329.426 146.691 329.426 140.666 329.426 140.666Z" fill="#F2D7BC"/>
<path d="M325.001 146.261C324.942 145.651 325.227 145.101 325.655 145.041C326.083 144.982 326.476 145.436 326.535 146.046C326.595 146.655 326.309 147.205 325.881 147.265C325.453 147.325 325.06 146.87 325.001 146.261Z" fill="#F2D7BC"/>
<path d="M329.425 152.105L327.915 151.496L327.546 151.866L328.295 153.54L329.425 152.105Z" fill="white"/>
<path d="M329.425 152.105L330.923 151.496L331.292 151.866L330.543 153.54L329.425 152.105Z" fill="white"/>
<path d="M328.045 155.943H326.166V156.362H328.045V155.943Z" fill="#7F97A3"/>
<path d="M332.684 155.943H330.805V156.362H332.684V155.943Z" fill="#7F97A3"/>
<path d="M326.202 146.32H326.463C326.463 146.32 326.309 145.316 326.761 144.993C326.761 144.491 326.761 144.347 326.761 144.347C326.761 144.347 326.582 144.323 326.582 143.57C326.582 142.805 327.486 142.267 329.413 142.267C329.413 141.18 329.413 139.924 329.413 139.924C329.413 139.924 325.595 140.343 325.595 143.128C325.595 144.288 325.595 145.041 325.595 145.041C325.595 145.041 325.869 144.993 326.071 145.16C326.297 145.34 326.202 146.32 326.202 146.32Z" fill="#8B5F3C"/>
<path d="M332.601 146.32H332.339C332.339 146.32 332.494 145.316 332.042 144.993C332.042 144.491 332.042 144.347 332.042 144.347C332.042 144.347 332.22 144.323 332.22 143.57C332.22 142.805 331.316 142.267 329.389 142.267C329.389 141.18 329.389 139.924 329.389 139.924C329.389 139.924 333.208 140.343 333.208 143.128C333.208 144.288 333.208 145.041 333.208 145.041C333.208 145.041 332.934 144.993 332.732 145.16C332.518 145.34 332.601 146.32 332.601 146.32Z" fill="#8B5F3C"/>
<path d="M329.425 148.926C330.091 148.926 330.639 148.699 330.639 148.424H328.212C328.212 148.699 328.747 148.926 329.425 148.926Z" fill="white"/>
</g>
<mask id="mask20" mask-type="alpha" maskUnits="userSpaceOnUse" x="265" y="137" width="21" height="21">
<path d="M285.615 147.443C285.615 141.837 281.083 137.282 275.504 137.282C269.926 137.282 265.394 141.837 265.394 147.443C265.394 153.05 269.926 157.604 275.504 157.604C281.083 157.604 285.615 153.05 285.615 147.443Z" fill="#F6A100"/>
</mask>
<g mask="url(#mask20)">
<path d="M285.615 147.443C285.615 141.837 281.083 137.282 275.504 137.282C269.926 137.282 265.394 141.837 265.394 147.443C265.394 153.05 269.926 157.604 275.504 157.604C281.083 157.604 285.615 153.05 285.615 147.443Z" fill="#7E97C9"/>
<path d="M276.979 150.001H274.017V153.265H276.979V150.001Z" fill="#D9A78C"/>
<path d="M273.66 151.95C273.66 151.95 270.841 152.369 270.425 152.799C270.068 153.181 269.307 156.804 269.14 157.605C274.088 157.605 275.504 157.605 275.504 157.605V152.106L273.66 151.95Z" fill="#C0D0D8"/>
<path d="M277.335 151.95C277.335 151.95 280.154 152.369 280.571 152.799C280.927 153.181 281.689 156.804 281.855 157.605C276.907 157.605 275.492 157.605 275.492 157.605V152.106L277.335 151.95Z" fill="#C0D0D8"/>
<path d="M275.314 152.643L274.933 156.516L275.504 157.592L276.063 156.516L275.695 152.643H275.314Z" fill="#14A89A"/>
<path d="M276.003 152.607L275.503 153.109L275.004 152.607L275.503 152.105L276.003 152.607Z" fill="#14A89A"/>
<path d="M275.503 140.666C276.942 140.666 279.214 141.49 279.214 145.34C279.214 147.563 278.489 149.022 278.179 149.416C277.894 149.787 276.264 150.576 275.503 150.576C275.503 146.69 275.503 140.666 275.503 140.666Z" fill="#F2D7BC"/>
<path d="M279.928 146.261C279.988 145.651 279.702 145.101 279.274 145.041C278.846 144.982 278.453 145.436 278.394 146.046C278.334 146.655 278.62 147.205 279.048 147.265C279.464 147.325 279.857 146.87 279.928 146.261Z" fill="#EAC0A7"/>
<path d="M275.504 140.666C274.065 140.666 271.793 141.491 271.793 145.34C271.793 147.564 272.518 149.022 272.828 149.417C273.113 149.787 274.743 150.576 275.504 150.576C275.504 146.691 275.504 140.666 275.504 140.666Z" fill="#F2D7BC"/>
<path d="M271.079 146.261C271.019 145.651 271.305 145.101 271.733 145.041C272.161 144.982 272.554 145.436 272.613 146.046C272.672 146.655 272.387 147.205 271.959 147.265C271.531 147.325 271.138 146.87 271.079 146.261Z" fill="#F2D7BC"/>
<path d="M275.504 152.105L273.993 151.496L273.624 151.866L274.374 153.54L275.504 152.105Z" fill="white"/>
<path d="M275.503 152.105L277.002 151.496L277.371 151.866L276.621 153.54L275.503 152.105Z" fill="white"/>
<path d="M274.124 155.943H272.244V156.362H274.124V155.943Z" fill="#7F97A3"/>
<path d="M278.762 155.943H276.883V156.362H278.762V155.943Z" fill="#7F97A3"/>
<path d="M272.28 146.32H272.542C272.542 146.32 272.387 145.316 272.839 144.993C272.839 144.491 272.839 144.347 272.839 144.347C272.839 144.347 272.661 144.323 272.661 143.57C272.661 142.805 273.565 142.267 275.492 142.267C275.492 141.18 275.492 139.924 275.492 139.924C275.492 139.924 271.674 140.343 271.674 143.128C271.674 144.288 271.674 145.041 271.674 145.041C271.674 145.041 271.947 144.993 272.149 145.16C272.375 145.34 272.28 146.32 272.28 146.32Z" fill="#8B5F3C"/>
<path d="M278.68 146.32H278.418C278.418 146.32 278.573 145.316 278.121 144.993C278.121 144.491 278.121 144.347 278.121 144.347C278.121 144.347 278.299 144.323 278.299 143.57C278.299 142.805 277.395 142.267 275.469 142.267C275.469 141.18 275.469 139.924 275.469 139.924C275.469 139.924 279.287 140.343 279.287 143.128C279.287 144.288 279.287 145.041 279.287 145.041C279.287 145.041 279.013 144.993 278.811 145.16C278.597 145.34 278.68 146.32 278.68 146.32Z" fill="#8B5F3C"/>
<path d="M275.503 148.926C276.169 148.926 276.716 148.699 276.716 148.424H274.29C274.29 148.699 274.825 148.926 275.503 148.926Z" fill="white"/>
</g>
<mask id="mask21" mask-type="alpha" maskUnits="userSpaceOnUse" x="377" y="66" width="28" height="28">
<path d="M404.409 79.7025C404.409 72.2271 398.367 66.1543 390.929 66.1543C383.491 66.1543 377.449 72.2271 377.449 79.7025C377.449 87.1779 383.491 93.2507 390.929 93.2507C398.383 93.2507 404.409 87.1779 404.409 79.7025Z" fill="#B5332B"/>
</mask>
<g mask="url(#mask21)">
<path d="M404.409 79.7025C404.409 72.2271 398.367 66.1543 390.929 66.1543C383.491 66.1543 377.449 72.2271 377.449 79.7025C377.449 87.1779 383.491 93.2507 390.929 93.2507C398.383 93.2507 404.409 87.1779 404.409 79.7025Z" fill="#6C67AB"/>
<path d="M392.911 83.1133H388.962V87.4646H392.911V83.1133Z" fill="#D9A78C"/>
<path d="M393.387 85.7114C393.387 85.7114 397.146 86.2693 397.701 86.8431C398.177 87.3531 399.192 92.1827 399.414 93.2506C392.816 93.2506 390.929 93.2506 390.929 93.2506V85.9186L393.387 85.7114Z" fill="#CFE1EB"/>
<path d="M390.929 70.6641C392.848 70.6641 395.877 71.7639 395.877 76.8962C395.877 79.8609 394.91 81.8054 394.497 82.3314C394.117 82.8255 391.944 83.8775 390.929 83.8775C390.929 78.6973 390.929 70.6641 390.929 70.6641Z" fill="#F2D7BC"/>
<path d="M396.829 78.1069C396.908 77.2941 396.527 76.5609 395.956 76.4812C395.386 76.4015 394.862 77.0072 394.783 77.82C394.704 78.6329 395.084 79.3661 395.655 79.4458C396.226 79.5415 396.749 78.9358 396.829 78.1069Z" fill="#EAC0A7"/>
<path d="M390.929 70.6641C389.01 70.6641 385.981 71.7639 385.981 76.8962C385.981 79.8609 386.948 81.8054 387.361 82.3314C387.741 82.8255 389.914 83.8775 390.929 83.8775C390.929 78.6973 390.929 70.6641 390.929 70.6641Z" fill="#F2D7BC"/>
<path d="M385.029 78.1069C384.95 77.2941 385.33 76.5609 385.901 76.4812C386.472 76.4015 386.996 77.0072 387.075 77.82C387.154 78.6329 386.774 79.3661 386.203 79.4458C385.647 79.5415 385.124 78.9358 385.029 78.1069Z" fill="#F2D7BC"/>
<path d="M388.486 85.7114C388.486 85.7114 384.728 86.2693 384.173 86.8431C383.697 87.3531 382.682 92.1827 382.46 93.2506C389.057 93.2506 390.944 93.2506 390.944 93.2506V85.9186L388.486 85.7114Z" fill="#CFE1EB"/>
<path d="M390.928 85.9188L388.93 85.106L388.438 85.6001L389.438 87.8315L390.928 85.9188Z" fill="white"/>
<path d="M390.929 85.9188L392.943 85.106L393.435 85.6001L392.436 87.8315L390.929 85.9188Z" fill="white"/>
<path d="M395.988 76.6107C395.988 76.6107 397.606 69.1831 390.897 69.1831C384.157 69.1831 385.838 76.4035 385.838 76.4035C385.838 76.4035 386.758 75.8775 386.758 78.2524C387.123 78.2524 386.932 78.2524 386.932 78.2524C386.932 78.2524 387.265 76.6585 387.361 75.2399C389.739 75.2399 391.833 74.9371 393.593 73.4707C394.592 73.4707 394.735 74.7299 394.735 75.6862L394.291 75.8616C394.291 75.8616 394.719 76.6904 394.751 78.2684C395.052 78.2684 395.052 78.2684 395.052 78.2684C395.052 78.2684 395.021 75.6384 395.988 76.6107Z" fill="#8B5F3C"/>
<path d="M390.929 81.9502C391.817 81.9502 392.547 81.6474 392.547 81.2808H389.312C389.312 81.6474 390.041 81.9502 390.929 81.9502Z" fill="white"/>
</g>
<mask id="mask22" mask-type="alpha" maskUnits="userSpaceOnUse" x="380" y="110" width="22" height="21">
<path d="M401.039 120.347C401.039 114.741 396.508 110.186 390.929 110.186C385.351 110.186 380.819 114.741 380.819 120.347C380.819 125.954 385.351 130.508 390.929 130.508C396.508 130.508 401.039 125.954 401.039 120.347Z" fill="#F6A100"/>
</mask>
<g mask="url(#mask22)">
<path d="M401.039 120.347C401.039 114.741 396.508 110.186 390.929 110.186C385.351 110.186 380.819 114.741 380.819 120.347C380.819 125.954 385.351 130.508 390.929 130.508C396.508 130.508 401.039 125.954 401.039 120.347Z" fill="#7E97C9"/>
<path d="M392.404 122.905H389.442V126.169H392.404V122.905Z" fill="#D9A78C"/>
<path d="M389.085 124.854C389.085 124.854 386.266 125.272 385.85 125.702C385.493 126.085 384.731 129.707 384.565 130.508C389.513 130.508 390.928 130.508 390.928 130.508V125.009L389.085 124.854Z" fill="#C0D0D8"/>
<path d="M392.76 124.854C392.76 124.854 395.579 125.272 395.995 125.702C396.352 126.085 397.113 129.707 397.28 130.508C392.332 130.508 390.917 130.508 390.917 130.508V125.009L392.76 124.854Z" fill="#C0D0D8"/>
<path d="M390.738 125.546L390.358 129.42L390.929 130.495L391.488 129.42L391.119 125.546H390.738Z" fill="#14A89A"/>
<path d="M391.428 125.511L390.928 126.013L390.429 125.511L390.928 125.009L391.428 125.511Z" fill="#14A89A"/>
<path d="M390.928 113.569C392.367 113.569 394.639 114.394 394.639 118.243C394.639 120.466 393.913 121.925 393.604 122.319C393.319 122.69 391.689 123.479 390.928 123.479C390.928 119.594 390.928 113.569 390.928 113.569Z" fill="#F2D7BC"/>
<path d="M395.353 119.163C395.412 118.553 395.127 118.004 394.699 117.944C394.27 117.884 393.878 118.338 393.818 118.948C393.759 119.558 394.044 120.107 394.473 120.167C394.889 120.227 395.281 119.773 395.353 119.163Z" fill="#EAC0A7"/>
<path d="M390.929 113.568C389.49 113.568 387.218 114.393 387.218 118.242C387.218 120.466 387.943 121.924 388.253 122.319C388.538 122.689 390.168 123.478 390.929 123.478C390.929 119.593 390.929 113.568 390.929 113.568Z" fill="#F2D7BC"/>
<path d="M386.504 119.163C386.444 118.553 386.73 118.004 387.158 117.944C387.586 117.884 387.979 118.338 388.038 118.948C388.098 119.558 387.812 120.107 387.384 120.167C386.956 120.227 386.563 119.773 386.504 119.163Z" fill="#F2D7BC"/>
<path d="M390.928 125.009L389.418 124.399L389.049 124.77L389.798 126.443L390.928 125.009Z" fill="white"/>
<path d="M390.928 125.009L392.427 124.399L392.795 124.77L392.046 126.443L390.928 125.009Z" fill="white"/>
<path d="M389.548 128.847H387.669V129.265H389.548V128.847Z" fill="#7F97A3"/>
<path d="M394.187 128.847H392.308V129.265H394.187V128.847Z" fill="#7F97A3"/>
<path d="M387.705 119.223H387.966C387.966 119.223 387.812 118.219 388.264 117.896C388.264 117.394 388.264 117.251 388.264 117.251C388.264 117.251 388.085 117.227 388.085 116.474C388.085 115.709 388.989 115.171 390.916 115.171C390.916 114.083 390.916 112.828 390.916 112.828C390.916 112.828 387.098 113.246 387.098 116.031C387.098 117.191 387.098 117.944 387.098 117.944C387.098 117.944 387.372 117.896 387.574 118.064C387.8 118.243 387.705 119.223 387.705 119.223Z" fill="#8B5F3C"/>
<path d="M394.104 119.223H393.843C393.843 119.223 393.997 118.219 393.545 117.896C393.545 117.394 393.545 117.251 393.545 117.251C393.545 117.251 393.724 117.227 393.724 116.474C393.724 115.709 392.82 115.171 390.893 115.171C390.893 114.083 390.893 112.828 390.893 112.828C390.893 112.828 394.711 113.246 394.711 116.031C394.711 117.191 394.711 117.944 394.711 117.944C394.711 117.944 394.437 117.896 394.235 118.064C394.021 118.243 394.104 119.223 394.104 119.223Z" fill="#8B5F3C"/>
<path d="M390.928 121.83C391.594 121.83 392.141 121.603 392.141 121.328H389.715C389.715 121.603 390.25 121.83 390.928 121.83Z" fill="white"/>
</g>
<mask id="mask23" mask-type="alpha" maskUnits="userSpaceOnUse" x="380" y="137" width="22" height="21">
<path d="M401.039 147.443C401.039 141.837 396.508 137.282 390.929 137.282C385.351 137.282 380.819 141.837 380.819 147.443C380.819 153.05 385.351 157.604 390.929 157.604C396.508 157.604 401.039 153.05 401.039 147.443Z" fill="#F6A100"/>
</mask>
<g mask="url(#mask23)">
<path d="M401.039 147.443C401.039 141.837 396.508 137.282 390.929 137.282C385.351 137.282 380.819 141.837 380.819 147.443C380.819 153.05 385.351 157.604 390.929 157.604C396.508 157.604 401.039 153.05 401.039 147.443Z" fill="#7E97C9"/>
<path d="M392.403 150.001H389.442V153.265H392.403V150.001Z" fill="#D9A78C"/>
<path d="M389.085 151.95C389.085 151.95 386.266 152.369 385.849 152.799C385.492 153.181 384.731 156.804 384.565 157.605C389.513 157.605 390.928 157.605 390.928 157.605V152.106L389.085 151.95Z" fill="#C0D0D8"/>
<path d="M392.76 151.95C392.76 151.95 395.579 152.369 395.995 152.799C396.352 153.181 397.113 156.804 397.28 157.605C392.332 157.605 390.916 157.605 390.916 157.605V152.106L392.76 151.95Z" fill="#C0D0D8"/>
<path d="M390.738 152.643L390.357 156.516L390.928 157.592L391.487 156.516L391.119 152.643H390.738Z" fill="#14A89A"/>
<path d="M391.428 152.607L390.928 153.109L390.428 152.607L390.928 152.105L391.428 152.607Z" fill="#14A89A"/>
<path d="M390.928 140.666C392.367 140.666 394.639 141.49 394.639 145.34C394.639 147.563 393.913 149.022 393.604 149.416C393.319 149.787 391.689 150.576 390.928 150.576C390.928 146.69 390.928 140.666 390.928 140.666Z" fill="#F2D7BC"/>
<path d="M395.353 146.261C395.412 145.651 395.127 145.101 394.698 145.041C394.27 144.982 393.878 145.436 393.818 146.046C393.759 146.655 394.044 147.205 394.472 147.265C394.889 147.325 395.281 146.87 395.353 146.261Z" fill="#EAC0A7"/>
<path d="M390.929 140.666C389.489 140.666 387.218 141.491 387.218 145.34C387.218 147.564 387.943 149.022 388.252 149.417C388.538 149.787 390.167 150.576 390.929 150.576C390.929 146.691 390.929 140.666 390.929 140.666Z" fill="#F2D7BC"/>
<path d="M386.503 146.261C386.444 145.651 386.729 145.101 387.158 145.041C387.586 144.982 387.978 145.436 388.038 146.046C388.097 146.655 387.812 147.205 387.384 147.265C386.955 147.325 386.563 146.87 386.503 146.261Z" fill="#F2D7BC"/>
<path d="M390.928 152.105L389.418 151.496L389.049 151.866L389.798 153.54L390.928 152.105Z" fill="white"/>
<path d="M390.928 152.105L392.426 151.496L392.795 151.866L392.046 153.54L390.928 152.105Z" fill="white"/>
<path d="M389.548 155.943H387.669V156.362H389.548V155.943Z" fill="#7F97A3"/>
<path d="M394.187 155.943H392.308V156.362H394.187V155.943Z" fill="#7F97A3"/>
<path d="M387.705 146.32H387.966C387.966 146.32 387.812 145.316 388.264 144.993C388.264 144.491 388.264 144.347 388.264 144.347C388.264 144.347 388.085 144.323 388.085 143.57C388.085 142.805 388.989 142.267 390.916 142.267C390.916 141.18 390.916 139.924 390.916 139.924C390.916 139.924 387.098 140.343 387.098 143.128C387.098 144.288 387.098 145.041 387.098 145.041C387.098 145.041 387.372 144.993 387.574 145.16C387.8 145.34 387.705 146.32 387.705 146.32Z" fill="#8B5F3C"/>
<path d="M394.104 146.32H393.842C393.842 146.32 393.997 145.316 393.545 144.993C393.545 144.491 393.545 144.347 393.545 144.347C393.545 144.347 393.723 144.323 393.723 143.57C393.723 142.805 392.819 142.267 390.893 142.267C390.893 141.18 390.893 139.924 390.893 139.924C390.893 139.924 394.711 140.343 394.711 143.128C394.711 144.288 394.711 145.041 394.711 145.041C394.711 145.041 394.437 144.993 394.235 145.16C394.021 145.34 394.104 146.32 394.104 146.32Z" fill="#8B5F3C"/>
<path d="M390.928 148.926C391.594 148.926 392.141 148.699 392.141 148.424H389.715C389.715 148.699 390.25 148.926 390.928 148.926Z" fill="white"/>
</g>
<mask id="mask24" mask-type="alpha" maskUnits="userSpaceOnUse" x="407" y="137" width="22" height="21">
<path d="M428 147.443C428 141.837 423.469 137.282 417.89 137.282C412.312 137.282 407.78 141.837 407.78 147.443C407.78 153.05 412.312 157.604 417.89 157.604C423.469 157.604 428 153.05 428 147.443Z" fill="#F6A100"/>
</mask>
<g mask="url(#mask24)">
<path d="M428 147.443C428 141.837 423.469 137.282 417.89 137.282C412.312 137.282 407.78 141.837 407.78 147.443C407.78 153.05 412.312 157.604 417.89 157.604C423.469 157.604 428 153.05 428 147.443Z" fill="#7E97C9"/>
<path d="M419.366 150.001H416.405V153.265H419.366V150.001Z" fill="#D9A78C"/>
<path d="M416.047 151.95C416.047 151.95 413.228 152.369 412.812 152.799C412.455 153.181 411.694 156.804 411.528 157.605C416.476 157.605 417.891 157.605 417.891 157.605V152.106L416.047 151.95Z" fill="#C0D0D8"/>
<path d="M419.723 151.95C419.723 151.95 422.542 152.369 422.958 152.799C423.315 153.181 424.076 156.804 424.243 157.605C419.295 157.605 417.879 157.605 417.879 157.605V152.106L419.723 151.95Z" fill="#C0D0D8"/>
<path d="M417.701 152.643L417.32 156.516L417.891 157.592L418.45 156.516L418.082 152.643H417.701Z" fill="#14A89A"/>
<path d="M418.39 152.607L417.891 153.109L417.391 152.607L417.891 152.105L418.39 152.607Z" fill="#14A89A"/>
<path d="M417.891 140.666C419.33 140.666 421.602 141.49 421.602 145.34C421.602 147.563 420.876 149.022 420.567 149.416C420.281 149.787 418.652 150.576 417.891 150.576C417.891 146.69 417.891 140.666 417.891 140.666Z" fill="#F2D7BC"/>
<path d="M422.316 146.261C422.376 145.651 422.09 145.101 421.662 145.041C421.234 144.982 420.841 145.436 420.782 146.046C420.722 146.655 421.008 147.205 421.436 147.265C421.852 147.325 422.245 146.87 422.316 146.261Z" fill="#EAC0A7"/>
<path d="M417.892 140.666C416.453 140.666 414.181 141.491 414.181 145.34C414.181 147.564 414.906 149.022 415.216 149.417C415.501 149.787 417.131 150.576 417.892 150.576C417.892 146.691 417.892 140.666 417.892 140.666Z" fill="#F2D7BC"/>
<path d="M413.467 146.261C413.407 145.651 413.693 145.101 414.121 145.041C414.549 144.982 414.942 145.436 415.001 146.046C415.061 146.655 414.775 147.205 414.347 147.265C413.919 147.325 413.526 146.87 413.467 146.261Z" fill="#F2D7BC"/>
<path d="M417.891 152.105L416.38 151.496L416.012 151.866L416.761 153.54L417.891 152.105Z" fill="white"/>
<path d="M417.891 152.105L419.389 151.496L419.758 151.866L419.009 153.54L417.891 152.105Z" fill="white"/>
<path d="M416.511 155.943H414.632V156.362H416.511V155.943Z" fill="#7F97A3"/>
<path d="M421.15 155.943H419.271V156.362H421.15V155.943Z" fill="#7F97A3"/>
<path d="M414.668 146.32H414.929C414.929 146.32 414.775 145.316 415.227 144.993C415.227 144.491 415.227 144.347 415.227 144.347C415.227 144.347 415.048 144.323 415.048 143.57C415.048 142.805 415.952 142.267 417.879 142.267C417.879 141.18 417.879 139.924 417.879 139.924C417.879 139.924 414.061 140.343 414.061 143.128C414.061 144.288 414.061 145.041 414.061 145.041C414.061 145.041 414.335 144.993 414.537 145.16C414.763 145.34 414.668 146.32 414.668 146.32Z" fill="#8B5F3C"/>
<path d="M421.067 146.32H420.805C420.805 146.32 420.96 145.316 420.508 144.993C420.508 144.491 420.508 144.347 420.508 144.347C420.508 144.347 420.686 144.323 420.686 143.57C420.686 142.805 419.782 142.267 417.855 142.267C417.855 141.18 417.855 139.924 417.855 139.924C417.855 139.924 421.674 140.343 421.674 143.128C421.674 144.288 421.674 145.041 421.674 145.041C421.674 145.041 421.4 144.993 421.198 145.16C420.984 145.34 421.067 146.32 421.067 146.32Z" fill="#8B5F3C"/>
<path d="M417.891 148.926C418.557 148.926 419.104 148.699 419.104 148.424H416.677C416.677 148.699 417.213 148.926 417.891 148.926Z" fill="white"/>
</g>
<mask id="mask25" mask-type="alpha" maskUnits="userSpaceOnUse" x="353" y="137" width="22" height="21">
<path d="M374.079 147.443C374.079 141.837 369.547 137.282 363.969 137.282C358.39 137.282 353.858 141.837 353.858 147.443C353.858 153.05 358.39 157.604 363.969 157.604C369.547 157.604 374.079 153.05 374.079 147.443Z" fill="#F6A100"/>
</mask>
<g mask="url(#mask25)">
<path d="M374.079 147.443C374.079 141.837 369.547 137.282 363.969 137.282C358.39 137.282 353.858 141.837 353.858 147.443C353.858 153.05 358.39 157.604 363.969 157.604C369.547 157.604 374.079 153.05 374.079 147.443Z" fill="#7E97C9"/>
<path d="M365.444 150.001H362.483V153.265H365.444V150.001Z" fill="#D9A78C"/>
<path d="M362.126 151.95C362.126 151.95 359.307 152.369 358.89 152.799C358.533 153.181 357.772 156.804 357.606 157.605C362.554 157.605 363.969 157.605 363.969 157.605V152.106L362.126 151.95Z" fill="#C0D0D8"/>
<path d="M365.801 151.95C365.801 151.95 368.62 152.369 369.036 152.799C369.393 153.181 370.154 156.804 370.321 157.605C365.373 157.605 363.957 157.605 363.957 157.605V152.106L365.801 151.95Z" fill="#C0D0D8"/>
<path d="M363.779 152.643L363.398 156.516L363.969 157.592L364.528 156.516L364.16 152.643H363.779Z" fill="#14A89A"/>
<path d="M364.469 152.607L363.969 153.109L363.469 152.607L363.969 152.105L364.469 152.607Z" fill="#14A89A"/>
<path d="M363.969 140.666C365.408 140.666 367.68 141.49 367.68 145.34C367.68 147.563 366.954 149.022 366.645 149.416C366.36 149.787 364.73 150.576 363.969 150.576C363.969 146.69 363.969 140.666 363.969 140.666Z" fill="#F2D7BC"/>
<path d="M368.394 146.261C368.453 145.651 368.168 145.101 367.739 145.041C367.311 144.982 366.919 145.436 366.859 146.046C366.8 146.655 367.085 147.205 367.513 147.265C367.93 147.325 368.322 146.87 368.394 146.261Z" fill="#EAC0A7"/>
<path d="M363.97 140.666C362.53 140.666 360.259 141.491 360.259 145.34C360.259 147.564 360.984 149.022 361.293 149.417C361.579 149.787 363.208 150.576 363.97 150.576C363.97 146.691 363.97 140.666 363.97 140.666Z" fill="#F2D7BC"/>
<path d="M359.544 146.261C359.485 145.651 359.77 145.101 360.199 145.041C360.627 144.982 361.019 145.436 361.079 146.046C361.138 146.655 360.853 147.205 360.425 147.265C359.996 147.325 359.604 146.87 359.544 146.261Z" fill="#F2D7BC"/>
<path d="M363.969 152.105L362.459 151.496L362.09 151.866L362.839 153.54L363.969 152.105Z" fill="white"/>
<path d="M363.969 152.105L365.467 151.496L365.836 151.866L365.087 153.54L363.969 152.105Z" fill="white"/>
<path d="M362.589 155.943H360.71V156.362H362.589V155.943Z" fill="#7F97A3"/>
<path d="M367.228 155.943H365.349V156.362H367.228V155.943Z" fill="#7F97A3"/>
<path d="M360.746 146.32H361.007C361.007 146.32 360.853 145.316 361.305 144.993C361.305 144.491 361.305 144.347 361.305 144.347C361.305 144.347 361.126 144.323 361.126 143.57C361.126 142.805 362.03 142.267 363.957 142.267C363.957 141.18 363.957 139.924 363.957 139.924C363.957 139.924 360.139 140.343 360.139 143.128C360.139 144.288 360.139 145.041 360.139 145.041C360.139 145.041 360.413 144.993 360.615 145.16C360.841 145.34 360.746 146.32 360.746 146.32Z" fill="#8B5F3C"/>
<path d="M367.145 146.32H366.883C366.883 146.32 367.038 145.316 366.586 144.993C366.586 144.491 366.586 144.347 366.586 144.347C366.586 144.347 366.764 144.323 366.764 143.57C366.764 142.805 365.86 142.267 363.934 142.267C363.934 141.18 363.934 139.924 363.934 139.924C363.934 139.924 367.752 140.343 367.752 143.128C367.752 144.288 367.752 145.041 367.752 145.041C367.752 145.041 367.478 144.993 367.276 145.16C367.062 145.34 367.145 146.32 367.145 146.32Z" fill="#8B5F3C"/>
<path d="M363.969 148.926C364.635 148.926 365.182 148.699 365.182 148.424H362.756C362.756 148.699 363.291 148.926 363.969 148.926Z" fill="white"/>
</g>
<path fill-rule="evenodd" clip-rule="evenodd" d="M213.501 50.9126V56.7633H37.0718H36.5718V57.2633V63.614H37.5718V57.7633H125.036V63.6141H126.036V57.7633H213.501V63.6141H214.501V57.7633H301.965V63.6141H302.965V57.7633H390.43V63.614H391.43V57.2633V56.7633H390.93H214.501V50.9126H213.501ZM125.036 106.799V94.944H126.036V106.799H125.036ZM36.5718 94.944V106.799H37.5718V94.944H36.5718ZM213.501 106.799V94.944H214.501V106.799H213.501ZM301.965 94.944V106.799H302.965V94.944H301.965ZM390.429 106.799V94.944H391.429V106.799H390.429Z" fill="#949599"/>
</svg>
