<svg width="1200" height="670" viewBox="0 0 1200 670" fill="none" xmlns="http://www.w3.org/2000/svg">
<rect x="1.5" y="1.5" width="1197" height="667" rx="8.5" fill="white" fill-opacity="0.3" stroke="#7E97C9" stroke-width="3"/>
<path d="M267.913 154.568C267.786 155.914 267.289 156.966 266.422 157.723C265.555 158.474 264.402 158.85 262.964 158.85C261.958 158.85 261.071 158.613 260.302 158.139C259.54 157.659 258.95 156.98 258.534 156.102C258.118 155.223 257.901 154.203 257.884 153.042V151.863C257.884 150.673 258.095 149.624 258.517 148.717C258.939 147.809 259.543 147.11 260.329 146.619C261.12 146.128 262.033 145.882 263.068 145.882C264.46 145.882 265.581 146.261 266.431 147.018C267.28 147.775 267.774 148.844 267.913 150.225H265.729C265.625 149.318 265.359 148.665 264.931 148.266C264.509 147.861 263.888 147.659 263.068 147.659C262.114 147.659 261.38 148.009 260.866 148.708C260.357 149.401 260.097 150.421 260.086 151.768V152.886C260.086 154.25 260.329 155.29 260.814 156.006C261.305 156.723 262.022 157.081 262.964 157.081C263.825 157.081 264.472 156.888 264.905 156.5C265.339 156.113 265.613 155.469 265.729 154.568H267.913ZM275.281 158.676C275.188 158.497 275.107 158.205 275.038 157.801C274.368 158.5 273.547 158.85 272.576 158.85C271.634 158.85 270.866 158.581 270.271 158.043C269.675 157.506 269.378 156.841 269.378 156.05C269.378 155.05 269.748 154.284 270.487 153.753C271.233 153.215 272.296 152.947 273.677 152.947H274.969V152.331C274.969 151.846 274.833 151.459 274.561 151.17C274.29 150.875 273.877 150.728 273.322 150.728C272.842 150.728 272.449 150.849 272.143 151.092C271.837 151.329 271.684 151.632 271.684 152.002H269.577C269.577 151.488 269.748 151.008 270.089 150.563C270.43 150.112 270.892 149.76 271.476 149.505C272.065 149.251 272.721 149.124 273.443 149.124C274.541 149.124 275.417 149.401 276.07 149.956C276.723 150.505 277.058 151.279 277.075 152.279V156.509C277.075 157.353 277.193 158.026 277.43 158.529V158.676H275.281ZM272.966 157.159C273.382 157.159 273.773 157.058 274.137 156.856C274.506 156.654 274.784 156.382 274.969 156.041V154.273H273.833C273.053 154.273 272.467 154.409 272.074 154.68C271.681 154.952 271.484 155.336 271.484 155.833C271.484 156.238 271.617 156.561 271.883 156.804C272.154 157.041 272.516 157.159 272.966 157.159ZM281.522 158.676H279.415V145.362H281.522V158.676ZM286.064 158.676H283.957V145.362H286.064V158.676ZM302.62 154.568C302.492 155.914 301.995 156.966 301.129 157.723C300.262 158.474 299.109 158.85 297.67 158.85C296.665 158.85 295.778 158.613 295.009 158.139C294.246 157.659 293.657 156.98 293.241 156.102C292.825 155.223 292.608 154.203 292.591 153.042V151.863C292.591 150.673 292.802 149.624 293.223 148.717C293.645 147.809 294.249 147.11 295.035 146.619C295.827 146.128 296.74 145.882 297.774 145.882C299.167 145.882 300.288 146.261 301.137 147.018C301.987 147.775 302.481 148.844 302.62 150.225H300.435C300.331 149.318 300.065 148.665 299.638 148.266C299.216 147.861 298.595 147.659 297.774 147.659C296.821 147.659 296.087 148.009 295.572 148.708C295.064 149.401 294.804 150.421 294.792 151.768V152.886C294.792 154.25 295.035 155.29 295.52 156.006C296.012 156.723 296.728 157.081 297.67 157.081C298.531 157.081 299.178 156.888 299.612 156.5C300.045 156.113 300.32 155.469 300.435 154.568H302.62ZM308.514 158.85C307.179 158.85 306.095 158.431 305.263 157.593C304.437 156.749 304.024 155.628 304.024 154.229V153.969C304.024 153.033 304.203 152.198 304.561 151.464C304.925 150.725 305.434 150.15 306.087 149.739C306.74 149.329 307.468 149.124 308.271 149.124C309.548 149.124 310.533 149.531 311.227 150.346C311.926 151.161 312.276 152.314 312.276 153.805V154.654H306.147C306.211 155.429 306.468 156.041 306.919 156.492C307.375 156.943 307.947 157.168 308.635 157.168C309.6 157.168 310.386 156.778 310.993 155.998L312.128 157.081C311.753 157.642 311.25 158.078 310.62 158.39C309.996 158.696 309.294 158.85 308.514 158.85ZM308.262 150.814C307.685 150.814 307.216 151.017 306.858 151.421C306.506 151.826 306.28 152.389 306.182 153.111H310.195V152.955C310.149 152.25 309.961 151.719 309.632 151.36C309.303 150.996 308.846 150.814 308.262 150.814ZM315.873 149.297L315.934 150.381C316.627 149.543 317.537 149.124 318.664 149.124C320.617 149.124 321.611 150.242 321.646 152.479V158.676H319.539V152.6C319.539 152.005 319.409 151.566 319.149 151.282C318.895 150.993 318.476 150.849 317.892 150.849C317.043 150.849 316.41 151.233 315.994 152.002V158.676H313.888V149.297H315.873ZM326.439 147.018V149.297H328.095V150.858H326.439V156.093C326.439 156.451 326.508 156.711 326.647 156.873C326.792 157.029 327.046 157.107 327.41 157.107C327.653 157.107 327.898 157.078 328.147 157.021V158.65C327.667 158.783 327.205 158.85 326.76 158.85C325.142 158.85 324.333 157.957 324.333 156.171V150.858H322.79V149.297H324.333V147.018H326.439ZM333.842 158.85C332.507 158.85 331.423 158.431 330.591 157.593C329.765 156.749 329.352 155.628 329.352 154.229V153.969C329.352 153.033 329.531 152.198 329.889 151.464C330.253 150.725 330.762 150.15 331.415 149.739C332.068 149.329 332.796 149.124 333.599 149.124C334.876 149.124 335.861 149.531 336.555 150.346C337.254 151.161 337.603 152.314 337.603 153.805V154.654H331.475C331.539 155.429 331.796 156.041 332.247 156.492C332.703 156.943 333.275 157.168 333.963 157.168C334.928 157.168 335.714 156.778 336.321 155.998L337.456 157.081C337.08 157.642 336.578 158.078 335.948 158.39C335.324 158.696 334.622 158.85 333.842 158.85ZM333.59 150.814C333.012 150.814 332.544 151.017 332.186 151.421C331.833 151.826 331.608 152.389 331.51 153.111H335.523V152.955C335.477 152.25 335.289 151.719 334.96 151.36C334.63 150.996 334.174 150.814 333.59 150.814ZM344.156 151.222C343.879 151.175 343.593 151.152 343.298 151.152C342.333 151.152 341.683 151.522 341.348 152.262V158.676H339.242V149.297H341.253L341.305 150.346C341.813 149.531 342.518 149.124 343.42 149.124C343.72 149.124 343.969 149.164 344.165 149.245L344.156 151.222ZM260.597 179.676H258.413V167.056H260.597V179.676ZM265.044 170.297L265.105 171.381C265.798 170.543 266.708 170.124 267.835 170.124C269.788 170.124 270.782 171.242 270.817 173.479V179.676H268.71V173.6C268.71 173.005 268.58 172.566 268.32 172.282C268.066 171.993 267.647 171.849 267.064 171.849C266.214 171.849 265.581 172.233 265.165 173.002V179.676H263.059V170.297H265.044ZM275.61 168.018V170.297H277.266V171.858H275.61V177.093C275.61 177.451 275.679 177.711 275.818 177.873C275.963 178.029 276.217 178.107 276.581 178.107C276.824 178.107 277.069 178.078 277.318 178.021V179.65C276.838 179.783 276.376 179.85 275.931 179.85C274.313 179.85 273.504 178.957 273.504 177.171V171.858H271.961V170.297H273.504V168.018H275.61ZM283.013 179.85C281.678 179.85 280.594 179.431 279.762 178.593C278.936 177.749 278.523 176.628 278.523 175.229V174.969C278.523 174.033 278.702 173.198 279.06 172.464C279.424 171.725 279.933 171.15 280.586 170.739C281.239 170.329 281.967 170.124 282.77 170.124C284.047 170.124 285.032 170.531 285.726 171.346C286.425 172.161 286.774 173.314 286.774 174.805V175.654H280.646C280.71 176.429 280.967 177.041 281.418 177.492C281.874 177.943 282.446 178.168 283.134 178.168C284.099 178.168 284.885 177.778 285.492 176.998L286.627 178.081C286.252 178.642 285.749 179.078 285.119 179.39C284.495 179.696 283.793 179.85 283.013 179.85ZM282.761 171.814C282.183 171.814 281.715 172.017 281.357 172.421C281.004 172.826 280.779 173.389 280.681 174.111H284.694V173.955C284.648 173.25 284.46 172.719 284.131 172.36C283.801 171.996 283.345 171.814 282.761 171.814ZM293.327 172.222C293.05 172.175 292.764 172.152 292.469 172.152C291.504 172.152 290.854 172.522 290.519 173.262V179.676H288.413V170.297H290.424L290.476 171.346C290.984 170.531 291.689 170.124 292.591 170.124C292.891 170.124 293.14 170.164 293.336 170.245L293.327 172.222ZM296.613 170.297L296.673 171.381C297.367 170.543 298.277 170.124 299.404 170.124C301.357 170.124 302.351 171.242 302.385 173.479V179.676H300.279V173.6C300.279 173.005 300.149 172.566 299.889 172.282C299.635 171.993 299.216 171.849 298.632 171.849C297.783 171.849 297.15 172.233 296.734 173.002V179.676H294.628V170.297H296.613ZM310.143 179.676C310.051 179.497 309.97 179.205 309.901 178.801C309.23 179.5 308.41 179.85 307.439 179.85C306.497 179.85 305.728 179.581 305.133 179.043C304.538 178.506 304.24 177.841 304.24 177.05C304.24 176.05 304.61 175.284 305.35 174.753C306.095 174.215 307.159 173.947 308.54 173.947H309.831V173.331C309.831 172.846 309.695 172.459 309.424 172.17C309.152 171.875 308.739 171.728 308.184 171.728C307.705 171.728 307.312 171.849 307.006 172.092C306.699 172.329 306.546 172.632 306.546 173.002H304.44C304.44 172.488 304.61 172.008 304.951 171.563C305.292 171.112 305.754 170.76 306.338 170.505C306.928 170.251 307.583 170.124 308.306 170.124C309.404 170.124 310.279 170.401 310.932 170.956C311.585 171.505 311.92 172.279 311.938 173.279V177.509C311.938 178.353 312.056 179.026 312.293 179.529V179.676H310.143ZM307.829 178.159C308.245 178.159 308.635 178.058 308.999 177.856C309.369 177.654 309.646 177.382 309.831 177.041V175.273H308.696C307.916 175.273 307.329 175.409 306.936 175.68C306.543 175.952 306.347 176.336 306.347 176.833C306.347 177.238 306.48 177.561 306.745 177.804C307.017 178.041 307.378 178.159 307.829 178.159ZM316.384 179.676H314.278V166.362H316.384V179.676ZM332.94 175.568C332.813 176.914 332.316 177.966 331.449 178.723C330.582 179.474 329.43 179.85 327.991 179.85C326.985 179.85 326.098 179.613 325.33 179.139C324.567 178.659 323.977 177.98 323.561 177.102C323.145 176.223 322.929 175.203 322.911 174.042V172.863C322.911 171.673 323.122 170.624 323.544 169.717C323.966 168.809 324.57 168.11 325.356 167.619C326.147 167.128 327.06 166.882 328.095 166.882C329.487 166.882 330.608 167.261 331.458 168.018C332.307 168.775 332.801 169.844 332.94 171.225H330.756C330.652 170.318 330.386 169.665 329.958 169.266C329.536 168.861 328.915 168.659 328.095 168.659C327.141 168.659 326.407 169.009 325.893 169.708C325.385 170.401 325.124 171.421 325.113 172.768V173.886C325.113 175.25 325.356 176.29 325.841 177.006C326.332 177.723 327.049 178.081 327.991 178.081C328.852 178.081 329.499 177.888 329.932 177.5C330.366 177.113 330.64 176.469 330.756 175.568H332.94ZM334.31 174.9C334.31 173.981 334.492 173.155 334.856 172.421C335.22 171.681 335.731 171.115 336.39 170.722C337.049 170.323 337.806 170.124 338.661 170.124C339.926 170.124 340.952 170.531 341.738 171.346C342.53 172.161 342.957 173.242 343.021 174.588L343.03 175.082C343.03 176.007 342.85 176.833 342.492 177.561C342.14 178.289 341.631 178.853 340.967 179.251C340.308 179.65 339.545 179.85 338.678 179.85C337.355 179.85 336.295 179.41 335.497 178.532C334.705 177.648 334.31 176.472 334.31 175.004V174.9ZM336.416 175.082C336.416 176.047 336.615 176.804 337.014 177.353C337.413 177.896 337.967 178.168 338.678 178.168C339.389 178.168 339.941 177.891 340.334 177.336C340.733 176.781 340.932 175.969 340.932 174.9C340.932 173.952 340.727 173.201 340.317 172.646C339.912 172.092 339.36 171.814 338.661 171.814C337.973 171.814 337.427 172.089 337.023 172.638C336.618 173.181 336.416 173.996 336.416 175.082ZM346.765 170.297L346.826 171.381C347.52 170.543 348.43 170.124 349.557 170.124C351.51 170.124 352.504 171.242 352.538 173.479V179.676H350.432V173.6C350.432 173.005 350.302 172.566 350.042 172.282C349.788 171.993 349.369 171.849 348.785 171.849C347.936 171.849 347.303 172.233 346.887 173.002V179.676H344.781V170.297H346.765ZM357.332 168.018V170.297H358.987V171.858H357.332V177.093C357.332 177.451 357.401 177.711 357.54 177.873C357.684 178.029 357.938 178.107 358.303 178.107C358.545 178.107 358.791 178.078 359.039 178.021V179.65C358.56 179.783 358.097 179.85 357.652 179.85C356.034 179.85 355.225 178.957 355.225 177.171V171.858H353.683V170.297H355.225V168.018H357.332ZM366.208 179.676C366.115 179.497 366.034 179.205 365.965 178.801C365.295 179.5 364.474 179.85 363.503 179.85C362.561 179.85 361.793 179.581 361.198 179.043C360.602 178.506 360.305 177.841 360.305 177.05C360.305 176.05 360.675 175.284 361.414 174.753C362.16 174.215 363.223 173.947 364.604 173.947H365.896V173.331C365.896 172.846 365.76 172.459 365.488 172.17C365.217 171.875 364.804 171.728 364.249 171.728C363.769 171.728 363.376 171.849 363.07 172.092C362.764 172.329 362.611 172.632 362.611 173.002H360.504C360.504 172.488 360.675 172.008 361.016 171.563C361.357 171.112 361.819 170.76 362.403 170.505C362.992 170.251 363.648 170.124 364.37 170.124C365.468 170.124 366.344 170.401 366.997 170.956C367.65 171.505 367.985 172.279 368.002 173.279V177.509C368.002 178.353 368.12 179.026 368.357 179.529V179.676H366.208ZM363.893 178.159C364.309 178.159 364.7 178.058 365.064 177.856C365.433 177.654 365.711 177.382 365.896 177.041V175.273H364.76C363.98 175.273 363.394 175.409 363.001 175.68C362.608 175.952 362.411 176.336 362.411 176.833C362.411 177.238 362.544 177.561 362.81 177.804C363.081 178.041 363.443 178.159 363.893 178.159ZM374.061 178.168C374.587 178.168 375.023 178.015 375.37 177.709C375.717 177.402 375.901 177.024 375.925 176.573H377.909C377.886 177.157 377.704 177.703 377.363 178.211C377.022 178.714 376.56 179.113 375.977 179.407C375.393 179.702 374.763 179.85 374.087 179.85C372.775 179.85 371.735 179.425 370.966 178.575C370.198 177.726 369.814 176.553 369.814 175.056V174.839C369.814 173.412 370.195 172.271 370.958 171.416C371.721 170.555 372.761 170.124 374.078 170.124C375.194 170.124 376.101 170.451 376.8 171.104C377.505 171.751 377.875 172.603 377.909 173.661H375.925C375.901 173.123 375.717 172.681 375.37 172.334C375.029 171.988 374.593 171.814 374.061 171.814C373.379 171.814 372.853 172.063 372.483 172.56C372.114 173.051 371.926 173.799 371.92 174.805V175.143C371.92 176.16 372.102 176.92 372.466 177.422C372.836 177.919 373.367 178.168 374.061 178.168ZM382.139 168.018V170.297H383.795V171.858H382.139V177.093C382.139 177.451 382.209 177.711 382.348 177.873C382.492 178.029 382.746 178.107 383.11 178.107C383.353 178.107 383.599 178.078 383.847 178.021V179.65C383.367 179.783 382.905 179.85 382.46 179.85C380.842 179.85 380.033 178.957 380.033 177.171V171.858H378.49V170.297H380.033V168.018H382.139ZM400.047 179.676H397.854L392.229 170.722V179.676H390.036V167.056H392.229L397.872 176.044V167.056H400.047V179.676ZM406.566 179.85C405.231 179.85 404.147 179.431 403.315 178.593C402.489 177.749 402.076 176.628 402.076 175.229V174.969C402.076 174.033 402.255 173.198 402.613 172.464C402.977 171.725 403.486 171.15 404.139 170.739C404.792 170.329 405.52 170.124 406.323 170.124C407.6 170.124 408.585 170.531 409.279 171.346C409.978 172.161 410.328 173.314 410.328 174.805V175.654H404.199C404.263 176.429 404.52 177.041 404.971 177.492C405.427 177.943 405.999 178.168 406.687 178.168C407.652 178.168 408.438 177.778 409.045 176.998L410.18 178.081C409.805 178.642 409.302 179.078 408.672 179.39C408.048 179.696 407.346 179.85 406.566 179.85ZM406.314 171.814C405.737 171.814 405.268 172.017 404.91 172.421C404.558 172.826 404.332 173.389 404.234 174.111H408.247V173.955C408.201 173.25 408.013 172.719 407.684 172.36C407.355 171.996 406.898 171.814 406.314 171.814ZM414.61 168.018V170.297H416.265V171.858H414.61V177.093C414.61 177.451 414.679 177.711 414.818 177.873C414.962 178.029 415.216 178.107 415.58 178.107C415.823 178.107 416.069 178.078 416.317 178.021V179.65C415.838 179.783 415.375 179.85 414.93 179.85C413.312 179.85 412.503 178.957 412.503 177.171V171.858H410.96V170.297H412.503V168.018H414.61ZM426.121 176.772L427.612 170.297H429.666L427.109 179.676H425.375L423.364 173.236L421.388 179.676H419.654L417.089 170.297H419.143L420.66 176.703L422.584 170.297H424.17L426.121 176.772ZM430.68 174.9C430.68 173.981 430.862 173.155 431.226 172.421C431.59 171.681 432.102 171.115 432.76 170.722C433.419 170.323 434.176 170.124 435.031 170.124C436.297 170.124 437.323 170.531 438.109 171.346C438.9 172.161 439.328 173.242 439.391 174.588L439.4 175.082C439.4 176.007 439.221 176.833 438.863 177.561C438.51 178.289 438.002 178.853 437.337 179.251C436.678 179.65 435.916 179.85 435.049 179.85C433.725 179.85 432.665 179.41 431.868 178.532C431.076 177.648 430.68 176.472 430.68 175.004V174.9ZM432.786 175.082C432.786 176.047 432.986 176.804 433.385 177.353C433.783 177.896 434.338 178.168 435.049 178.168C435.76 178.168 436.311 177.891 436.704 177.336C437.103 176.781 437.302 175.969 437.302 174.9C437.302 173.952 437.097 173.201 436.687 172.646C436.282 172.092 435.731 171.814 435.031 171.814C434.344 171.814 433.798 172.089 433.393 172.638C432.989 173.181 432.786 173.996 432.786 175.082ZM446.092 172.222C445.814 172.175 445.528 172.152 445.234 172.152C444.269 172.152 443.618 172.522 443.283 173.262V179.676H441.177V170.297H443.188L443.24 171.346C443.748 170.531 444.453 170.124 445.355 170.124C445.655 170.124 445.904 170.164 446.1 170.245L446.092 172.222ZM450.469 175.654L449.533 176.616V179.676H447.427V166.362H449.533V174.042L450.192 173.219L452.783 170.297H455.314L451.83 174.207L455.687 179.676H453.251L450.469 175.654Z" fill="#425F9A"/>
<path d="M753.31 61.4745H759.039V63.2254H751.117V50.6048H753.31V61.4745ZM766.121 63.2254C766.029 63.0463 765.948 62.7544 765.878 62.3499C765.208 63.0492 764.388 63.3988 763.417 63.3988C762.475 63.3988 761.706 63.1301 761.111 62.5926C760.516 62.0552 760.218 61.3907 760.218 60.599C760.218 59.5993 760.588 58.8336 761.328 58.302C762.073 57.7646 763.136 57.4959 764.518 57.4959H765.809V56.8804C765.809 56.395 765.673 56.0079 765.402 55.7189C765.13 55.4242 764.717 55.2769 764.162 55.2769C763.683 55.2769 763.29 55.3982 762.983 55.6409C762.677 55.8779 762.524 56.1812 762.524 56.5511H760.418C760.418 56.0368 760.588 55.5571 760.929 55.1122C761.27 54.6614 761.732 54.309 762.316 54.0547C762.905 53.8004 763.561 53.6733 764.283 53.6733C765.381 53.6733 766.257 53.9507 766.91 54.5054C767.563 55.0544 767.898 55.8287 767.915 56.8284V61.0584C767.915 61.9021 768.034 62.5753 768.271 63.078V63.2254H766.121ZM763.807 61.7085C764.223 61.7085 764.613 61.6074 764.977 61.4051C765.347 61.2029 765.624 60.9313 765.809 60.5903V58.8221H764.674C763.893 58.8221 763.307 58.9579 762.914 59.2295C762.521 59.5011 762.325 59.8853 762.325 60.3823C762.325 60.7868 762.457 61.1104 762.723 61.3531C762.995 61.59 763.356 61.7085 763.807 61.7085ZM772.076 53.8467L772.137 54.9302C772.83 54.0923 773.74 53.6733 774.867 53.6733C776.82 53.6733 777.814 54.7915 777.849 57.0278V63.2254H775.743V57.1492C775.743 56.554 775.613 56.1148 775.352 55.8316C775.098 55.5427 774.679 55.3982 774.096 55.3982C773.246 55.3982 772.613 55.7825 772.197 56.5511V63.2254H770.091V53.8467H772.076ZM779.608 58.4667C779.608 57.022 779.944 55.8634 780.614 54.9908C781.284 54.1125 782.183 53.6733 783.31 53.6733C784.304 53.6733 785.107 54.02 785.719 54.7135V49.9114H787.826V63.2254H785.919L785.815 62.2546C785.185 63.0174 784.344 63.3988 783.292 63.3988C782.194 63.3988 781.304 62.9567 780.623 62.0726C779.947 61.1884 779.608 59.9865 779.608 58.4667ZM781.715 58.6487C781.715 59.6022 781.897 60.3476 782.261 60.8851C782.631 61.4167 783.154 61.6825 783.83 61.6825C784.691 61.6825 785.321 61.2982 785.719 60.5297V56.5251C785.332 55.7738 784.708 55.3982 783.847 55.3982C783.165 55.3982 782.639 55.6698 782.27 56.213C781.9 56.7504 781.715 57.5623 781.715 58.6487ZM792.264 63.2254H790.157V53.8467H792.264V63.2254ZM790.027 51.411C790.027 51.0874 790.128 50.8186 790.331 50.6048C790.539 50.391 790.833 50.2841 791.215 50.2841C791.596 50.2841 791.891 50.391 792.099 50.6048C792.307 50.8186 792.411 51.0874 792.411 51.411C792.411 51.7288 792.307 51.9946 792.099 52.2084C791.891 52.4164 791.596 52.5205 791.215 52.5205C790.833 52.5205 790.539 52.4164 790.331 52.2084C790.128 51.9946 790.027 51.7288 790.027 51.411ZM796.52 53.8467L796.58 54.9302C797.274 54.0923 798.184 53.6733 799.311 53.6733C801.264 53.6733 802.258 54.7915 802.293 57.0278V63.2254H800.186V57.1492C800.186 56.554 800.056 56.1148 799.796 55.8316C799.542 55.5427 799.123 55.3982 798.539 55.3982C797.69 55.3982 797.057 55.7825 796.641 56.5511V63.2254H794.535V53.8467H796.52ZM804.078 58.4667C804.078 57.0105 804.419 55.849 805.101 54.9822C805.789 54.1096 806.699 53.6733 807.831 53.6733C808.9 53.6733 809.741 54.046 810.354 54.7915L810.449 53.8467H812.347V62.9394C812.347 64.1702 811.963 65.141 811.195 65.8518C810.432 66.5626 809.4 66.918 808.1 66.918C807.412 66.918 806.739 66.7735 806.08 66.4846C805.427 66.2014 804.93 65.8287 804.59 65.3664L805.586 64.1009C806.234 64.8694 807.031 65.2537 807.979 65.2537C808.678 65.2537 809.23 65.063 809.634 64.6816C810.039 64.306 810.241 63.7513 810.241 63.0174V62.3846C809.634 63.0607 808.825 63.3988 807.814 63.3988C806.716 63.3988 805.818 62.9625 805.118 62.0899C804.425 61.2173 804.078 60.0096 804.078 58.4667ZM806.176 58.6487C806.176 59.5906 806.366 60.3332 806.748 60.8764C807.135 61.4138 807.67 61.6825 808.351 61.6825C809.201 61.6825 809.831 61.3184 810.241 60.5903V56.4644C809.842 55.7536 809.218 55.3982 808.369 55.3982C807.675 55.3982 807.135 55.6727 806.748 56.2217C806.366 56.7707 806.176 57.5797 806.176 58.6487ZM821.336 58.536V63.2254H819.143V50.6048H823.971C825.381 50.6048 826.499 50.9718 827.326 51.7057C828.158 52.4396 828.574 53.4104 828.574 54.6181C828.574 55.8547 828.166 56.8169 827.352 57.5045C826.543 58.1922 825.407 58.536 823.945 58.536H821.336ZM821.336 56.7764H823.971C824.751 56.7764 825.346 56.5944 825.757 56.2304C826.167 55.8605 826.372 55.3289 826.372 54.6354C826.372 53.9536 826.164 53.4104 825.748 53.0059C825.332 52.5956 824.76 52.3847 824.032 52.3731H821.336V56.7764ZM835.794 63.2254C835.702 63.0463 835.621 62.7544 835.552 62.3499C834.881 63.0492 834.061 63.3988 833.09 63.3988C832.148 63.3988 831.379 63.1301 830.784 62.5926C830.189 62.0552 829.891 61.3907 829.891 60.599C829.891 59.5993 830.261 58.8336 831.001 58.302C831.746 57.7646 832.81 57.4959 834.191 57.4959H835.482V56.8804C835.482 56.395 835.346 56.0079 835.075 55.7189C834.803 55.4242 834.39 55.2769 833.835 55.2769C833.356 55.2769 832.963 55.3982 832.656 55.6409C832.35 55.8779 832.197 56.1812 832.197 56.5511H830.091C830.091 56.0368 830.261 55.5571 830.602 55.1122C830.943 54.6614 831.405 54.309 831.989 54.0547C832.578 53.8004 833.234 53.6733 833.957 53.6733C835.055 53.6733 835.93 53.9507 836.583 54.5054C837.236 55.0544 837.571 55.8287 837.589 56.8284V61.0584C837.589 61.9021 837.707 62.5753 837.944 63.078V63.2254H835.794ZM833.48 61.7085C833.896 61.7085 834.286 61.6074 834.65 61.4051C835.02 61.2029 835.297 60.9313 835.482 60.5903V58.8221H834.347C833.567 58.8221 832.98 58.9579 832.587 59.2295C832.194 59.5011 831.998 59.8853 831.998 60.3823C831.998 60.7868 832.131 61.1104 832.396 61.3531C832.668 61.59 833.029 61.7085 833.48 61.7085ZM839.426 58.4667C839.426 57.0105 839.767 55.849 840.449 54.9822C841.137 54.1096 842.047 53.6733 843.179 53.6733C844.248 53.6733 845.089 54.046 845.702 54.7915L845.797 53.8467H847.695V62.9394C847.695 64.1702 847.311 65.141 846.543 65.8518C845.78 66.5626 844.748 66.918 843.448 66.918C842.76 66.918 842.087 66.7735 841.428 66.4846C840.775 66.2014 840.278 65.8287 839.938 65.3664L840.934 64.1009C841.582 64.8694 842.379 65.2537 843.327 65.2537C844.026 65.2537 844.578 65.063 844.982 64.6816C845.387 64.306 845.589 63.7513 845.589 63.0174V62.3846C844.982 63.0607 844.173 63.3988 843.162 63.3988C842.064 63.3988 841.165 62.9625 840.466 62.0899C839.773 61.2173 839.426 60.0096 839.426 58.4667ZM841.524 58.6487C841.524 59.5906 841.714 60.3332 842.096 60.8764C842.483 61.4138 843.018 61.6825 843.699 61.6825C844.549 61.6825 845.179 61.3184 845.589 60.5903V56.4644C845.19 55.7536 844.566 55.3982 843.717 55.3982C843.023 55.3982 842.483 55.6727 842.096 56.2217C841.714 56.7707 841.524 57.5797 841.524 58.6487ZM853.997 63.3988C852.662 63.3988 851.579 62.9798 850.746 62.1419C849.92 61.2982 849.507 60.1772 849.507 58.7787V58.5187C849.507 57.5826 849.686 56.7475 850.044 56.0137C850.408 55.274 850.917 54.699 851.57 54.2887C852.223 53.8784 852.951 53.6733 853.754 53.6733C855.031 53.6733 856.017 54.0807 856.71 54.8955C857.409 55.7103 857.759 56.8631 857.759 58.354V59.2035H851.631C851.694 59.9778 851.951 60.5903 852.402 61.0411C852.859 61.4918 853.431 61.7172 854.118 61.7172C855.083 61.7172 855.869 61.3271 856.476 60.547L857.612 61.6305C857.236 62.191 856.733 62.6273 856.103 62.9394C855.479 63.2456 854.777 63.3988 853.997 63.3988ZM853.746 55.3636C853.168 55.3636 852.7 55.5658 852.341 55.9703C851.989 56.3748 851.764 56.9382 851.665 57.6606H855.679V57.5045C855.632 56.7995 855.445 56.2679 855.115 55.9096C854.786 55.5456 854.329 55.3636 853.746 55.3636ZM864.659 60.677C864.659 60.3014 864.503 60.0154 864.191 59.8189C863.884 59.6224 863.373 59.4491 862.656 59.2988C861.94 59.1486 861.342 58.9579 860.862 58.7267C859.81 58.2182 859.284 57.4814 859.284 56.5164C859.284 55.7074 859.625 55.0313 860.307 54.4881C860.989 53.9449 861.856 53.6733 862.908 53.6733C864.029 53.6733 864.933 53.9507 865.621 54.5054C866.314 55.0602 866.661 55.7796 866.661 56.6638H864.555C864.555 56.2592 864.404 55.9241 864.104 55.6583C863.803 55.3867 863.405 55.2509 862.908 55.2509C862.445 55.2509 862.067 55.3578 861.772 55.5716C861.483 55.7854 861.339 56.0714 861.339 56.4297C861.339 56.7533 861.475 57.0047 861.746 57.1838C862.018 57.363 862.567 57.545 863.393 57.7299C864.219 57.909 864.867 58.1257 865.335 58.38C865.809 58.6285 866.158 58.929 866.383 59.2815C866.615 59.634 866.73 60.0616 866.73 60.5643C866.73 61.408 866.381 62.0928 865.681 62.6186C864.982 63.1387 864.066 63.3988 862.934 63.3988C862.165 63.3988 861.48 63.2601 860.879 62.9827C860.278 62.7053 859.81 62.3239 859.475 61.8385C859.14 61.3531 858.972 60.8302 858.972 60.2696H861.018C861.047 60.7666 861.235 61.1509 861.581 61.4225C861.928 61.6883 862.388 61.8212 862.96 61.8212C863.514 61.8212 863.936 61.7172 864.225 61.5091C864.514 61.2953 864.659 61.018 864.659 60.677ZM758.181 81.287H753.293L752.27 84.2254H749.99L754.757 71.6048H756.725L761.501 84.2254H759.213L758.181 81.287ZM753.908 79.5187H757.566L755.737 74.2832L753.908 79.5187ZM765.133 79.536V84.2254H762.94V71.6048H767.768C769.178 71.6048 770.296 71.9718 771.123 72.7057C771.955 73.4396 772.371 74.4104 772.371 75.6181C772.371 76.8547 771.963 77.8169 771.149 78.5045C770.34 79.1922 769.204 79.536 767.742 79.536H765.133ZM765.133 77.7764H767.768C768.548 77.7764 769.143 77.5944 769.554 77.2304C769.964 76.8605 770.169 76.3289 770.169 75.6354C770.169 74.9536 769.961 74.4104 769.545 74.0059C769.129 73.5956 768.557 73.3847 767.829 73.3731H765.133V77.7764ZM776.609 84.2254H774.425V71.6048H776.609V84.2254ZM787.375 82.7172C787.901 82.7172 788.337 82.564 788.684 82.2578C789.031 81.9515 789.215 81.573 789.239 81.1223H791.224C791.2 81.7059 791.018 82.252 790.677 82.7605C790.337 83.2633 789.874 83.662 789.291 83.9567C788.707 84.2514 788.077 84.3988 787.401 84.3988C786.089 84.3988 785.049 83.974 784.28 83.1246C783.512 82.2751 783.128 81.102 783.128 79.6054V79.3887C783.128 77.9614 783.509 76.8201 784.272 75.9648C785.035 75.1038 786.075 74.6733 787.392 74.6733C788.508 74.6733 789.415 74.9998 790.114 75.6528C790.819 76.3 791.189 77.1523 791.224 78.2098H789.239C789.215 77.6724 789.031 77.2304 788.684 76.8836C788.343 76.5369 787.907 76.3636 787.375 76.3636C786.693 76.3636 786.167 76.612 785.797 77.109C785.428 77.6002 785.24 78.3485 785.234 79.354V79.6921C785.234 80.7091 785.416 81.469 785.78 81.9717C786.15 82.4687 786.682 82.7172 787.375 82.7172ZM798.418 84.2254C798.325 84.0463 798.245 83.7544 798.175 83.3499C797.505 84.0492 796.684 84.3988 795.714 84.3988C794.772 84.3988 794.003 84.1301 793.408 83.5926C792.813 83.0552 792.515 82.3907 792.515 81.599C792.515 80.5993 792.885 79.8336 793.625 79.302C794.37 78.7646 795.433 78.4959 796.814 78.4959H798.106V77.8804C798.106 77.395 797.97 77.0079 797.699 76.7189C797.427 76.4242 797.014 76.2769 796.459 76.2769C795.979 76.2769 795.586 76.3982 795.28 76.6409C794.974 76.8779 794.821 77.1812 794.821 77.5511H792.714C792.714 77.0368 792.885 76.5571 793.226 76.1122C793.567 75.6614 794.029 75.309 794.613 75.0547C795.202 74.8004 795.858 74.6733 796.58 74.6733C797.678 74.6733 798.554 74.9507 799.207 75.5054C799.86 76.0544 800.195 76.8287 800.212 77.8284V82.0584C800.212 82.9021 800.331 83.5753 800.568 84.078V84.2254H798.418ZM796.104 82.7085C796.52 82.7085 796.91 82.6074 797.274 82.4051C797.644 82.2029 797.921 81.9313 798.106 81.5903V79.8221H796.97C796.19 79.8221 795.604 79.9579 795.211 80.2295C794.818 80.5011 794.621 80.8853 794.621 81.3823C794.621 81.7868 794.754 82.1104 795.02 82.3531C795.292 82.59 795.653 82.7085 796.104 82.7085ZM804.659 84.2254H802.553V70.9114H804.659V84.2254ZM809.201 84.2254H807.095V70.9114H809.201V84.2254ZM816.759 81.677C816.759 81.3014 816.603 81.0154 816.291 80.8189C815.985 80.6224 815.474 80.4491 814.757 80.2988C814.041 80.1486 813.442 79.9579 812.963 79.7267C811.911 79.2182 811.385 78.4814 811.385 77.5164C811.385 76.7074 811.726 76.0313 812.408 75.4881C813.09 74.9449 813.957 74.6733 815.008 74.6733C816.13 74.6733 817.034 74.9507 817.722 75.5054C818.415 76.0602 818.762 76.7796 818.762 77.6638H816.655C816.655 77.2592 816.505 76.9241 816.205 76.6583C815.904 76.3867 815.505 76.2509 815.008 76.2509C814.546 76.2509 814.168 76.3578 813.873 76.5716C813.584 76.7854 813.44 77.0714 813.44 77.4297C813.44 77.7533 813.575 78.0047 813.847 78.1838C814.119 78.363 814.668 78.545 815.494 78.7299C816.32 78.909 816.967 79.1257 817.435 79.38C817.909 79.6285 818.259 79.929 818.484 80.2815C818.715 80.634 818.831 81.0616 818.831 81.5643C818.831 82.408 818.481 83.0928 817.782 83.6186C817.083 84.1387 816.167 84.3988 815.034 84.3988C814.266 84.3988 813.581 84.2601 812.98 83.9827C812.379 83.7053 811.911 83.3239 811.576 82.8385C811.241 82.3531 811.073 81.8302 811.073 81.2696H813.119C813.148 81.7666 813.336 82.1509 813.682 82.4225C814.029 82.6883 814.488 82.8212 815.06 82.8212C815.615 82.8212 816.037 82.7172 816.326 82.5091C816.615 82.2953 816.759 82.018 816.759 81.677Z" fill="#425F9A"/>
<path d="M746.8 613.729H744.616V601.109H746.8V613.729ZM749.496 613.729V601.109H753.821C755.249 601.109 756.335 601.395 757.081 601.967C757.826 602.539 758.199 603.391 758.199 604.524C758.199 605.102 758.043 605.622 757.731 606.084C757.419 606.547 756.962 606.905 756.361 607.159C757.043 607.344 757.569 607.694 757.939 608.208C758.314 608.716 758.502 609.329 758.502 610.045C758.502 611.23 758.121 612.14 757.358 612.776C756.601 613.412 755.515 613.729 754.099 613.729H749.496ZM751.689 608.035V611.978H754.125C754.812 611.978 755.35 611.808 755.737 611.467C756.124 611.126 756.318 610.652 756.318 610.045C756.318 608.734 755.647 608.063 754.307 608.035H751.689ZM751.689 606.422H753.839C754.521 606.422 755.052 606.269 755.434 605.963C755.821 605.651 756.014 605.212 756.014 604.645C756.014 604.021 755.835 603.571 755.477 603.293C755.124 603.016 754.573 602.877 753.821 602.877H751.689V606.422ZM769.753 608.867H767.309V613.729H765.116V601.109H769.554C771.01 601.109 772.134 601.435 772.926 602.088C773.717 602.741 774.113 603.686 774.113 604.923C774.113 605.766 773.908 606.474 773.498 607.046C773.093 607.613 772.527 608.049 771.799 608.355L774.633 613.617V613.729H772.284L769.753 608.867ZM767.309 607.107H769.562C770.302 607.107 770.88 606.922 771.296 606.552C771.712 606.177 771.92 605.665 771.92 605.018C771.92 604.342 771.727 603.819 771.339 603.449C770.958 603.079 770.386 602.889 769.623 602.877H767.309V607.107ZM780.12 613.903C778.785 613.903 777.702 613.484 776.87 612.646C776.043 611.802 775.63 610.681 775.63 609.283V609.023C775.63 608.087 775.809 607.252 776.167 606.518C776.531 605.778 777.04 605.203 777.693 604.793C778.346 604.382 779.074 604.177 779.877 604.177C781.154 604.177 782.14 604.585 782.833 605.399C783.532 606.214 783.882 607.367 783.882 608.858V609.707H777.754C777.817 610.482 778.074 611.094 778.525 611.545C778.982 611.996 779.554 612.221 780.241 612.221C781.206 612.221 781.992 611.831 782.599 611.051L783.735 612.134C783.359 612.695 782.856 613.131 782.226 613.443C781.602 613.75 780.9 613.903 780.12 613.903ZM779.869 605.868C779.291 605.868 778.823 606.07 778.464 606.474C778.112 606.879 777.887 607.442 777.788 608.165H781.802V608.009C781.755 607.304 781.568 606.772 781.238 606.414C780.909 606.05 780.452 605.868 779.869 605.868ZM786.266 613.729V605.911H784.835V604.351H786.266V603.492C786.266 602.452 786.555 601.649 787.132 601.083C787.71 600.516 788.519 600.233 789.559 600.233C789.929 600.233 790.322 600.285 790.738 600.389L790.686 602.036C790.455 601.99 790.186 601.967 789.88 601.967C788.875 601.967 788.372 602.484 788.372 603.519V604.351H790.279V605.911H788.372V613.729H786.266ZM795.74 613.903C794.405 613.903 793.321 613.484 792.489 612.646C791.663 611.802 791.25 610.681 791.25 609.283V609.023C791.25 608.087 791.429 607.252 791.787 606.518C792.151 605.778 792.66 605.203 793.313 604.793C793.966 604.382 794.694 604.177 795.497 604.177C796.774 604.177 797.759 604.585 798.453 605.399C799.152 606.214 799.502 607.367 799.502 608.858V609.707H793.373C793.437 610.482 793.694 611.094 794.145 611.545C794.601 611.996 795.173 612.221 795.861 612.221C796.826 612.221 797.612 611.831 798.219 611.051L799.354 612.134C798.979 612.695 798.476 613.131 797.846 613.443C797.222 613.75 796.52 613.903 795.74 613.903ZM795.488 605.868C794.91 605.868 794.442 606.07 794.084 606.474C793.732 606.879 793.506 607.442 793.408 608.165H797.421V608.009C797.375 607.304 797.187 606.772 796.858 606.414C796.528 606.05 796.072 605.868 795.488 605.868ZM806.055 606.275C805.777 606.229 805.491 606.206 805.196 606.206C804.231 606.206 803.581 606.575 803.246 607.315V613.729H801.14V604.351H803.151L803.203 605.399C803.711 604.585 804.416 604.177 805.318 604.177C805.618 604.177 805.867 604.218 806.063 604.299L806.055 606.275ZM812.296 606.275C812.018 606.229 811.732 606.206 811.437 606.206C810.472 606.206 809.822 606.575 809.487 607.315V613.729H807.381V604.351H809.392L809.444 605.399C809.952 604.585 810.657 604.177 811.559 604.177C811.859 604.177 812.108 604.218 812.304 604.299L812.296 606.275ZM818.97 613.729C818.877 613.55 818.796 613.258 818.727 612.854C818.057 613.553 817.236 613.903 816.265 613.903C815.324 613.903 814.555 613.634 813.96 613.097C813.365 612.559 813.067 611.895 813.067 611.103C813.067 610.103 813.437 609.338 814.176 608.806C814.922 608.269 815.985 608 817.366 608H818.658V607.384C818.658 606.899 818.522 606.512 818.25 606.223C817.979 605.928 817.566 605.781 817.011 605.781C816.531 605.781 816.138 605.902 815.832 606.145C815.526 606.382 815.373 606.685 815.373 607.055H813.266C813.266 606.541 813.437 606.061 813.778 605.616C814.119 605.165 814.581 604.813 815.165 604.559C815.754 604.304 816.41 604.177 817.132 604.177C818.23 604.177 819.106 604.455 819.759 605.009C820.412 605.558 820.747 606.333 820.764 607.332V611.562C820.764 612.406 820.883 613.079 821.12 613.582V613.729H818.97ZM816.655 612.212C817.072 612.212 817.462 612.111 817.826 611.909C818.196 611.707 818.473 611.435 818.658 611.094V609.326H817.522C816.742 609.326 816.156 609.462 815.763 609.733C815.37 610.005 815.173 610.389 815.173 610.886C815.173 611.291 815.306 611.614 815.572 611.857C815.844 612.094 816.205 612.212 816.655 612.212ZM825.211 613.729H823.104V600.415H825.211V613.729ZM832.769 611.181C832.769 610.805 832.613 610.519 832.301 610.323C831.995 610.126 831.484 609.953 830.767 609.803C830.05 609.653 829.452 609.462 828.973 609.231C827.921 608.722 827.395 607.985 827.395 607.02C827.395 606.211 827.736 605.535 828.418 604.992C829.1 604.449 829.967 604.177 831.018 604.177C832.139 604.177 833.044 604.455 833.731 605.009C834.425 605.564 834.772 606.284 834.772 607.168H832.665C832.665 606.763 832.515 606.428 832.215 606.162C831.914 605.891 831.515 605.755 831.018 605.755C830.556 605.755 830.178 605.862 829.883 606.076C829.594 606.289 829.449 606.575 829.449 606.934C829.449 607.257 829.585 607.509 829.857 607.688C830.128 607.867 830.677 608.049 831.504 608.234C832.33 608.413 832.977 608.63 833.445 608.884C833.919 609.132 834.269 609.433 834.494 609.785C834.725 610.138 834.841 610.566 834.841 611.068C834.841 611.912 834.491 612.597 833.792 613.123C833.093 613.643 832.177 613.903 831.044 613.903C830.276 613.903 829.591 613.764 828.99 613.487C828.389 613.209 827.921 612.828 827.586 612.342C827.251 611.857 827.083 611.334 827.083 610.774H829.129C829.158 611.271 829.345 611.655 829.692 611.926C830.039 612.192 830.498 612.325 831.07 612.325C831.625 612.325 832.047 612.221 832.336 612.013C832.625 611.799 832.769 611.522 832.769 611.181Z" fill="#425F9A"/>
<path d="M863.81 272.013V276.702H861.617V264.081H866.445C867.855 264.081 868.973 264.448 869.799 265.182C870.632 265.916 871.048 266.887 871.048 268.095C871.048 269.331 870.64 270.293 869.825 270.981C869.016 271.669 867.881 272.013 866.419 272.013H863.81ZM863.81 270.253H866.445C867.225 270.253 867.82 270.071 868.231 269.707C868.641 269.337 868.846 268.805 868.846 268.112C868.846 267.43 868.638 266.887 868.222 266.482C867.806 266.072 867.234 265.861 866.506 265.85H863.81V270.253ZM878.268 276.702C878.176 276.523 878.095 276.231 878.025 275.826C877.355 276.526 876.534 276.875 875.564 276.875C874.622 276.875 873.853 276.607 873.258 276.069C872.663 275.532 872.365 274.867 872.365 274.076C872.365 273.076 872.735 272.31 873.475 271.778C874.22 271.241 875.283 270.972 876.664 270.972H877.956V270.357C877.956 269.872 877.82 269.484 877.549 269.195C877.277 268.901 876.864 268.753 876.309 268.753C875.829 268.753 875.436 268.875 875.13 269.117C874.824 269.354 874.671 269.658 874.671 270.028H872.564C872.564 269.513 872.735 269.034 873.076 268.589C873.417 268.138 873.879 267.785 874.463 267.531C875.052 267.277 875.708 267.15 876.43 267.15C877.528 267.15 878.404 267.427 879.057 267.982C879.71 268.531 880.045 269.305 880.062 270.305V274.535C880.062 275.379 880.181 276.052 880.418 276.555V276.702H878.268ZM875.954 275.185C876.37 275.185 876.76 275.084 877.124 274.882C877.494 274.679 877.771 274.408 877.956 274.067V272.299H876.82C876.04 272.299 875.454 272.434 875.061 272.706C874.668 272.978 874.471 273.362 874.471 273.859C874.471 274.263 874.604 274.587 874.87 274.83C875.142 275.067 875.503 275.185 875.954 275.185ZM884.509 276.702H882.403V267.323H884.509V276.702ZM882.273 264.887C882.273 264.564 882.374 264.295 882.576 264.081C882.784 263.868 883.079 263.761 883.46 263.761C883.842 263.761 884.136 263.868 884.344 264.081C884.552 264.295 884.656 264.564 884.656 264.887C884.656 265.205 884.552 265.471 884.344 265.685C884.136 265.893 883.842 265.997 883.46 265.997C883.079 265.997 882.784 265.893 882.576 265.685C882.374 265.471 882.273 265.205 882.273 264.887ZM886.416 271.943C886.416 270.499 886.751 269.34 887.421 268.467C888.092 267.589 888.99 267.15 890.117 267.15C891.111 267.15 891.914 267.497 892.527 268.19V263.388H894.633V276.702H892.726L892.622 275.731C891.992 276.494 891.152 276.875 890.1 276.875C889.002 276.875 888.112 276.433 887.43 275.549C886.754 274.665 886.416 273.463 886.416 271.943ZM888.522 272.125C888.522 273.079 888.704 273.824 889.068 274.362C889.438 274.893 889.961 275.159 890.637 275.159C891.498 275.159 892.128 274.775 892.527 274.006V270.002C892.14 269.25 891.516 268.875 890.655 268.875C889.973 268.875 889.447 269.146 889.077 269.69C888.707 270.227 888.522 271.039 888.522 272.125ZM904.298 264.081L907.938 273.755L911.57 264.081H914.405V276.702H912.22V272.541L912.437 266.976L908.71 276.702H907.141L903.422 266.985L903.639 272.541V276.702H901.455V264.081H904.298ZM922.405 276.702C922.313 276.523 922.232 276.231 922.163 275.826C921.492 276.526 920.672 276.875 919.701 276.875C918.759 276.875 917.99 276.607 917.395 276.069C916.8 275.532 916.502 274.867 916.502 274.076C916.502 273.076 916.872 272.31 917.612 271.778C918.357 271.241 919.421 270.972 920.802 270.972H922.093V270.357C922.093 269.872 921.957 269.484 921.686 269.195C921.414 268.901 921.001 268.753 920.446 268.753C919.967 268.753 919.574 268.875 919.268 269.117C918.961 269.354 918.808 269.658 918.808 270.028H916.702C916.702 269.513 916.872 269.034 917.213 268.589C917.554 268.138 918.016 267.785 918.6 267.531C919.189 267.277 919.845 267.15 920.568 267.15C921.666 267.15 922.541 267.427 923.194 267.982C923.847 268.531 924.182 269.305 924.2 270.305V274.535C924.2 275.379 924.318 276.052 924.555 276.555V276.702H922.405ZM920.091 275.185C920.507 275.185 920.897 275.084 921.261 274.882C921.631 274.679 921.908 274.408 922.093 274.067V272.299H920.958C920.178 272.299 919.591 272.434 919.198 272.706C918.805 272.978 918.609 273.362 918.609 273.859C918.609 274.263 918.742 274.587 919.007 274.83C919.279 275.067 919.64 275.185 920.091 275.185ZM931.316 269.247C931.039 269.201 930.753 269.178 930.458 269.178C929.493 269.178 928.843 269.548 928.508 270.288V276.702H926.401V267.323H928.412L928.464 268.372C928.973 267.557 929.678 267.15 930.579 267.15C930.88 267.15 931.128 267.19 931.325 267.271L931.316 269.247ZM935.693 272.68L934.757 273.642V276.702H932.651V263.388H934.757V271.068L935.416 270.244L938.008 267.323H940.539L937.054 271.232L940.911 276.702H938.476L935.693 272.68ZM945.878 276.875C944.543 276.875 943.46 276.456 942.628 275.618C941.801 274.775 941.388 273.654 941.388 272.255V271.995C941.388 271.059 941.567 270.224 941.926 269.49C942.29 268.75 942.798 268.176 943.451 267.765C944.104 267.355 944.832 267.15 945.635 267.15C946.913 267.15 947.898 267.557 948.591 268.372C949.29 269.187 949.64 270.34 949.64 271.831V272.68H943.512C943.575 273.454 943.833 274.067 944.283 274.518C944.74 274.968 945.312 275.194 946 275.194C946.965 275.194 947.75 274.804 948.357 274.024L949.493 275.107C949.117 275.668 948.614 276.104 947.984 276.416C947.36 276.722 946.658 276.875 945.878 276.875ZM945.627 268.84C945.049 268.84 944.581 269.042 944.223 269.447C943.87 269.851 943.645 270.415 943.546 271.137H947.56V270.981C947.514 270.276 947.326 269.744 946.996 269.386C946.667 269.022 946.21 268.84 945.627 268.84ZM953.922 265.043V267.323H955.578V268.883H953.922V274.119C953.922 274.477 953.991 274.737 954.13 274.899C954.275 275.055 954.529 275.133 954.893 275.133C955.136 275.133 955.381 275.104 955.63 275.046V276.676C955.15 276.809 954.688 276.875 954.243 276.875C952.625 276.875 951.816 275.982 951.816 274.197V268.883H950.273V267.323H951.816V265.043H953.922ZM959.435 276.702H957.329V267.323H959.435V276.702ZM957.199 264.887C957.199 264.564 957.3 264.295 957.502 264.081C957.71 263.868 958.005 263.761 958.386 263.761C958.767 263.761 959.062 263.868 959.27 264.081C959.478 264.295 959.582 264.564 959.582 264.887C959.582 265.205 959.478 265.471 959.27 265.685C959.062 265.893 958.767 265.997 958.386 265.997C958.005 265.997 957.71 265.893 957.502 265.685C957.3 265.471 957.199 265.205 957.199 264.887ZM963.691 267.323L963.752 268.407C964.445 267.569 965.355 267.15 966.482 267.15C968.435 267.15 969.429 268.268 969.464 270.504V276.702H967.357V270.626C967.357 270.03 967.227 269.591 966.967 269.308C966.713 269.019 966.294 268.875 965.71 268.875C964.861 268.875 964.228 269.259 963.812 270.028V276.702H961.706V267.323H963.691ZM971.249 271.943C971.249 270.487 971.59 269.325 972.272 268.459C972.96 267.586 973.87 267.15 975.003 267.15C976.072 267.15 976.912 267.523 977.525 268.268L977.62 267.323H979.519V276.416C979.519 277.647 979.134 278.618 978.366 279.328C977.603 280.039 976.571 280.394 975.271 280.394C974.584 280.394 973.91 280.25 973.252 279.961C972.599 279.678 972.102 279.305 971.761 278.843L972.758 277.577C973.405 278.346 974.202 278.73 975.15 278.73C975.849 278.73 976.401 278.54 976.805 278.158C977.21 277.783 977.412 277.228 977.412 276.494V275.861C976.805 276.537 975.996 276.875 974.985 276.875C973.887 276.875 972.989 276.439 972.289 275.566C971.596 274.694 971.249 273.486 971.249 271.943ZM973.347 272.125C973.347 273.067 973.538 273.81 973.919 274.353C974.306 274.89 974.841 275.159 975.523 275.159C976.372 275.159 977.002 274.795 977.412 274.067V269.941C977.014 269.23 976.389 268.875 975.54 268.875C974.847 268.875 974.306 269.149 973.919 269.698C973.538 270.247 973.347 271.056 973.347 272.125Z" fill="#425F9A"/>
<path d="M277.034 597.219C277.034 596.664 276.838 596.236 276.445 595.936C276.058 595.635 275.356 595.332 274.339 595.026C273.322 594.719 272.513 594.379 271.912 594.003C270.762 593.281 270.187 592.339 270.187 591.177C270.187 590.16 270.6 589.322 271.426 588.663C272.258 588.005 273.336 587.675 274.659 587.675C275.538 587.675 276.321 587.837 277.008 588.161C277.696 588.484 278.236 588.947 278.629 589.548C279.022 590.143 279.219 590.804 279.219 591.533H277.034C277.034 590.874 276.826 590.359 276.41 589.99C276 589.614 275.411 589.426 274.642 589.426C273.926 589.426 273.368 589.579 272.969 589.886C272.576 590.192 272.38 590.62 272.38 591.169C272.38 591.631 272.594 592.018 273.021 592.33C273.449 592.636 274.154 592.937 275.136 593.231C276.119 593.52 276.907 593.853 277.503 594.228C278.098 594.598 278.534 595.026 278.811 595.511C279.089 595.991 279.227 596.554 279.227 597.201C279.227 598.253 278.823 599.091 278.014 599.715C277.211 600.333 276.119 600.643 274.737 600.643C273.824 600.643 272.984 600.475 272.215 600.14C271.452 599.799 270.857 599.331 270.429 598.736C270.008 598.14 269.797 597.447 269.797 596.655H271.99C271.99 597.372 272.227 597.927 272.7 598.32C273.174 598.713 273.853 598.909 274.737 598.909C275.5 598.909 276.072 598.756 276.454 598.45C276.841 598.138 277.034 597.727 277.034 597.219ZM280.554 595.693C280.554 594.774 280.736 593.948 281.1 593.214C281.464 592.474 281.975 591.908 282.634 591.515C283.293 591.116 284.05 590.917 284.905 590.917C286.17 590.917 287.196 591.325 287.982 592.139C288.774 592.954 289.201 594.035 289.265 595.381L289.274 595.875C289.274 596.8 289.094 597.626 288.736 598.354C288.384 599.082 287.875 599.646 287.211 600.045C286.552 600.443 285.789 600.643 284.922 600.643C283.599 600.643 282.539 600.203 281.741 599.325C280.949 598.441 280.554 597.265 280.554 595.797V595.693ZM282.66 595.875C282.66 596.84 282.859 597.597 283.258 598.146C283.657 598.689 284.212 598.961 284.922 598.961C285.633 598.961 286.185 598.684 286.578 598.129C286.977 597.574 287.176 596.762 287.176 595.693C287.176 594.745 286.971 593.994 286.561 593.44C286.156 592.885 285.604 592.607 284.905 592.607C284.217 592.607 283.671 592.882 283.267 593.431C282.862 593.974 282.66 594.789 282.66 595.875ZM294.908 598.961C295.434 598.961 295.87 598.808 296.217 598.502C296.563 598.195 296.748 597.817 296.771 597.366H298.756C298.733 597.95 298.551 598.496 298.21 599.004C297.869 599.507 297.407 599.906 296.823 600.201C296.24 600.495 295.61 600.643 294.934 600.643C293.622 600.643 292.582 600.218 291.813 599.368C291.045 598.519 290.661 597.346 290.661 595.849V595.633C290.661 594.205 291.042 593.064 291.805 592.209C292.567 591.348 293.608 590.917 294.925 590.917C296.04 590.917 296.948 591.244 297.647 591.897C298.352 592.544 298.722 593.396 298.756 594.454H296.771C296.748 593.916 296.563 593.474 296.217 593.127C295.876 592.781 295.439 592.607 294.908 592.607C294.226 592.607 293.7 592.856 293.33 593.353C292.96 593.844 292.773 594.592 292.767 595.598V595.936C292.767 596.953 292.949 597.713 293.313 598.216C293.683 598.713 294.214 598.961 294.908 598.961ZM302.588 600.469H300.481V591.09H302.588V600.469ZM300.351 588.655C300.351 588.331 300.452 588.062 300.655 587.849C300.863 587.635 301.157 587.528 301.539 587.528C301.92 587.528 302.215 587.635 302.423 587.849C302.631 588.062 302.735 588.331 302.735 588.655C302.735 588.973 302.631 589.238 302.423 589.452C302.215 589.66 301.92 589.764 301.539 589.764C301.157 589.764 300.863 589.66 300.655 589.452C300.452 589.238 300.351 588.973 300.351 588.655ZM310.493 600.469C310.4 600.29 310.319 599.998 310.25 599.594C309.58 600.293 308.759 600.643 307.788 600.643C306.846 600.643 306.078 600.374 305.483 599.836C304.888 599.299 304.59 598.635 304.59 597.843C304.59 596.843 304.96 596.077 305.699 595.546C306.445 595.008 307.508 594.74 308.889 594.74H310.181V594.124C310.181 593.639 310.045 593.252 309.773 592.963C309.502 592.668 309.089 592.521 308.534 592.521C308.054 592.521 307.661 592.642 307.355 592.885C307.049 593.122 306.896 593.425 306.896 593.795H304.789C304.789 593.281 304.96 592.801 305.301 592.356C305.642 591.905 306.104 591.553 306.688 591.299C307.277 591.044 307.933 590.917 308.655 590.917C309.753 590.917 310.629 591.195 311.282 591.749C311.935 592.298 312.27 593.073 312.287 594.072V598.302C312.287 599.146 312.406 599.819 312.642 600.322V600.469H310.493ZM308.178 598.952C308.595 598.952 308.985 598.851 309.349 598.649C309.718 598.447 309.996 598.175 310.181 597.834V596.066H309.045C308.265 596.066 307.679 596.202 307.286 596.473C306.893 596.745 306.696 597.129 306.696 597.626C306.696 598.031 306.829 598.354 307.095 598.597C307.367 598.834 307.728 598.952 308.178 598.952ZM316.734 600.469H314.627V587.155H316.734V600.469ZM326.503 587.849L330.143 597.522L333.775 587.849H336.609V600.469H334.425V596.309L334.642 590.744L330.915 600.469H329.346L325.627 590.752L325.844 596.309V600.469H323.659V587.849H326.503ZM343.136 600.643C341.802 600.643 340.718 600.224 339.886 599.386C339.06 598.542 338.646 597.421 338.646 596.023V595.763C338.646 594.826 338.826 593.991 339.184 593.257C339.548 592.518 340.056 591.943 340.709 591.533C341.362 591.122 342.09 590.917 342.894 590.917C344.171 590.917 345.156 591.325 345.849 592.139C346.549 592.954 346.898 594.107 346.898 595.598V596.447H340.77C340.834 597.222 341.091 597.834 341.541 598.285C341.998 598.736 342.57 598.961 343.258 598.961C344.223 598.961 345.009 598.571 345.615 597.791L346.751 598.874C346.375 599.435 345.873 599.871 345.243 600.183C344.619 600.489 343.917 600.643 343.136 600.643ZM342.885 592.607C342.307 592.607 341.839 592.81 341.481 593.214C341.128 593.619 340.903 594.182 340.805 594.904H344.818V594.748C344.772 594.043 344.584 593.512 344.255 593.153C343.925 592.789 343.469 592.607 342.885 592.607ZM348.146 595.711C348.146 594.266 348.482 593.107 349.152 592.235C349.822 591.356 350.721 590.917 351.848 590.917C352.842 590.917 353.645 591.264 354.257 591.957V587.155H356.364V600.469H354.457L354.353 599.498C353.723 600.261 352.882 600.643 351.83 600.643C350.732 600.643 349.843 600.201 349.161 599.316C348.485 598.432 348.146 597.23 348.146 595.711ZM350.253 595.893C350.253 596.846 350.435 597.591 350.799 598.129C351.169 598.661 351.692 598.926 352.368 598.926C353.229 598.926 353.859 598.542 354.257 597.773V593.769C353.87 593.018 353.246 592.642 352.385 592.642C351.703 592.642 351.177 592.914 350.808 593.457C350.438 593.994 350.253 594.806 350.253 595.893ZM360.802 600.469H358.695V591.09H360.802V600.469ZM358.565 588.655C358.565 588.331 358.667 588.062 358.869 587.849C359.077 587.635 359.371 587.528 359.753 587.528C360.134 587.528 360.429 587.635 360.637 587.849C360.845 588.062 360.949 588.331 360.949 588.655C360.949 588.973 360.845 589.238 360.637 589.452C360.429 589.66 360.134 589.764 359.753 589.764C359.371 589.764 359.077 589.66 358.869 589.452C358.667 589.238 358.565 588.973 358.565 588.655ZM368.707 600.469C368.614 600.29 368.534 599.998 368.464 599.594C367.794 600.293 366.973 600.643 366.002 600.643C365.061 600.643 364.292 600.374 363.697 599.836C363.102 599.299 362.804 598.635 362.804 597.843C362.804 596.843 363.174 596.077 363.914 595.546C364.659 595.008 365.722 594.74 367.103 594.74H368.395V594.124C368.395 593.639 368.259 593.252 367.987 592.963C367.716 592.668 367.303 592.521 366.748 592.521C366.268 592.521 365.875 592.642 365.569 592.885C365.263 593.122 365.11 593.425 365.11 593.795H363.003C363.003 593.281 363.174 592.801 363.515 592.356C363.856 591.905 364.318 591.553 364.902 591.299C365.491 591.044 366.147 590.917 366.869 590.917C367.967 590.917 368.843 591.195 369.496 591.749C370.149 592.298 370.484 593.073 370.501 594.072V598.302C370.501 599.146 370.62 599.819 370.857 600.322V600.469H368.707ZM366.393 598.952C366.809 598.952 367.199 598.851 367.563 598.649C367.933 598.447 368.21 598.175 368.395 597.834V596.066H367.259C366.479 596.066 365.893 596.202 365.5 596.473C365.107 596.745 364.91 597.129 364.91 597.626C364.91 598.031 365.043 598.354 365.309 598.597C365.581 598.834 365.942 598.952 366.393 598.952Z" fill="#425F9A"/>
<path d="M594.426 494.342L629.923 561.241C660.87 555.78 709.365 546.678 732.575 533.48L646.562 483.875C637.915 488.881 605.348 492.066 594.426 494.342Z" fill="#F2AC79"/>
<path d="M543.712 424.257C561.005 414.245 584.215 410.604 606.515 412.424L625.629 343.25L606.515 295.465L508.669 308.208C508.669 308.208 415.375 392.4 403.542 436.089C403.087 437.91 402.632 440.185 402.177 442.006L522.777 449.287C524.597 440.64 531.424 431.538 543.712 424.257Z" fill="#BECBE9"/>
<path d="M543.712 317.31C561.005 307.298 584.215 303.657 606.515 305.477L625.629 236.303C519.592 226.746 420.381 268.159 403.542 329.597C403.087 331.418 402.632 333.693 402.177 335.513L522.777 342.795C524.597 333.238 531.424 324.136 543.712 317.31Z" fill="#B0BFE0"/>
<path d="M667.954 454.748V453.838C667.954 442.916 661.128 432.449 646.565 424.257C635.188 417.886 621.08 413.79 606.517 412.424L625.631 343.25C640.649 344.615 654.757 346.891 667.954 350.076C741.68 366.915 790.83 408.329 789.01 456.114L667.954 454.748Z" fill="#9D8FE9"/>
<path d="M646.565 234.027C661.128 242.674 668.41 253.596 667.954 264.519L789.01 265.884C790.83 209.452 722.111 162.122 625.631 153.475L606.517 222.65C621.535 223.56 635.643 227.656 646.565 234.027Z" fill="#E2E9F9"/>
<path d="M522.775 395.131V342.795L402.63 335.514V387.85L522.775 395.131Z" fill="#92A7D6"/>
<path d="M625.631 236.302V343.705L606.517 412.424V305.477L625.631 236.302Z" fill="#0584C4"/>
<path d="M667.955 264.518V454.748L789.466 456.114V265.884L667.955 264.518Z" fill="#CAD8FA"/>
<path d="M667.954 264.519V453.838C667.954 442.916 661.128 432.449 646.565 424.257C635.188 417.886 621.08 413.79 606.517 412.425V222.195C639.739 224.925 668.41 241.764 667.954 264.519Z" fill="#EFF4FF"/>
<path d="M667.954 506.629V378.748H522.323V507.54C522.323 518.462 529.605 528.929 543.713 537.121C571.929 553.504 618.348 553.504 646.564 537.121C661.127 528.929 668.409 517.552 667.954 506.629Z" fill="#C2E1F0"/>
<path d="M543.716 408.329C515.5 391.945 515.5 365.094 543.716 348.711C571.932 332.328 618.351 332.328 646.567 348.711C674.783 365.094 674.783 391.945 646.567 408.329C618.351 424.712 572.387 424.712 543.716 408.329Z" fill="white"/>
<path d="M667.95 454.748C667.495 465.216 660.669 475.683 646.561 483.419L732.574 533.025C769.892 511.18 788.55 486.605 789.461 455.659L667.95 454.748Z" fill="#FBCFB3"/>
<path d="M789.461 307.297V456.114L732.574 533.48V384.208L789.461 307.297Z" fill="#FBCFB3"/>
<path d="M667.95 305.932C667.495 316.4 660.669 326.867 646.561 334.603L732.574 384.209C769.892 362.364 788.55 337.789 789.461 306.843L667.95 305.932Z" fill="#FFE8D9"/>
<path d="M732.574 384.209V533.48L646.561 483.874V334.603L732.574 384.209Z" fill="#FFEEE3"/>
<path d="M732.579 435.635C693.822 454.236 670.462 461.591 628.822 463.851V561.241L732.579 533.48V435.635Z" fill="#F2AC79"/>
<path d="M594.027 396.933L628.414 464.338C660.271 463.647 709.887 453.22 732.153 435.478L646.155 385.883C637.509 390.888 604.948 395.113 594.027 396.933Z" fill="#FFCAA3"/>
<path d="M594.027 396.933V439.73L629.525 506.629V463.85L594.027 396.933Z" fill="#FFBC8B"/>
<path d="M543.716 483.875C527.788 474.773 520.506 462.03 522.782 449.743L401.271 399.682C401.271 399.682 401.271 450.653 401.271 454.293C401.727 510.725 470.82 556.607 553.018 565.337C580.323 567.157 603.533 565.792 629.929 561.241V506.629C604.899 511.18 563.74 495.252 543.716 483.875Z" fill="#6682BB"/>
<path d="M543.711 429.263C533.174 422.918 520.501 407.419 522.777 395.131L402.176 387.85C390.799 449.287 466.4 496.936 543.712 509.644C571.017 511.464 603.073 511.18 629.469 506.63L593.971 439.73C569.396 443.826 554.248 435.608 543.711 429.263Z" fill="#7E97C9"/>
<path d="M463.158 252.686L408.092 197.62H257" stroke="#B0BFE0" stroke-width="4.22374" stroke-miterlimit="10" stroke-linecap="round" stroke-linejoin="round"/>
<path d="M692.068 153.475L747.135 98.4084H898.227" stroke="#E2E9F9" stroke-width="4.22374" stroke-miterlimit="10" stroke-linecap="round" stroke-linejoin="round"/>
<path d="M474.534 558.51L419.468 613.577H268.831" stroke="#7E97C9" stroke-width="4.22374" stroke-miterlimit="10" stroke-linecap="round" stroke-linejoin="round"/>
<path d="M686.159 572.163L741.226 626.775H892.317" stroke="#FFCAA3" stroke-width="4.22374" stroke-miterlimit="10" stroke-linecap="round" stroke-linejoin="round"/>
<path d="M806.759 344.615L861.825 290.004H1012.92" stroke="#FFE8D9" stroke-width="4.22374" stroke-miterlimit="10" stroke-linecap="round" stroke-linejoin="round"/>
<rect x="1.5" y="1.5" width="1197" height="667" rx="8.5" fill="white" fill-opacity="0.3" stroke="#7E97C9" stroke-width="3"/>
</svg>
