<svg width="1200" height="670" viewBox="0 0 1200 670" fill="none" xmlns="http://www.w3.org/2000/svg">
<rect x="1.5" y="1.5" width="1197" height="667" rx="8.5" fill="white" fill-opacity="0.3" stroke="#7E97C9" stroke-width="3"/>
<rect opacity="0.4" x="891.096" y="245" width="287.905" height="57.2392" fill="#B0BFE0"/>
<rect opacity="0.4" x="862.902" y="308" width="316.097" height="58.0935" fill="#E2E9F9"/>
<rect opacity="0.4" x="841.545" y="372" width="334.892" height="57.2392" fill="#FFE8D9"/>
<rect opacity="0.4" x="827.021" y="437" width="349.415" height="57.2392" fill="#FFCAA3"/>
<rect opacity="0.8" x="912.453" y="180" width="265.692" height="57.2392" fill="#7E97C9"/>
<path fill-rule="evenodd" clip-rule="evenodd" d="M926.977 238.948H926.976L927.643 237.244H726.4L704 180H950.042L950.043 180L950.043 180L926.977 238.948Z" fill="#7E97C9"/>
<path fill-rule="evenodd" clip-rule="evenodd" d="M925.492 244.928L903.094 302.168H752.66L730.262 244.928H925.492Z" fill="#B0BFE0"/>
<path fill-rule="evenodd" clip-rule="evenodd" d="M877.165 366.241L877.165 366.241H776.877L754.145 308.148H899.898L900.566 306.439H900.567L877.166 366.241H877.165Z" fill="#E2E9F9"/>
<path fill-rule="evenodd" clip-rule="evenodd" d="M851.759 431.169L852.427 429.461H801.615L779.217 372.221H874.825L875.828 369.658H875.829L851.759 431.169H851.759Z" fill="#FFE8D9"/>
<path fill-rule="evenodd" clip-rule="evenodd" d="M804.621 437.144H849.421L827.021 494.389L804.621 437.144Z" fill="#FFCAA3"/>
<rect x="26" y="223.126" width="678" height="291.907" fill="#F8FAFF"/>
<path d="M52.2004 160.486H145.678L164.385 185.741L145.678 210.995H52.2004V160.486Z" stroke="#A4B6D9" stroke-width="2.97114"/>
<path d="M73.2905 193.875H69.3677V181.387L65.5145 182.513V179.542L72.9307 176.977H73.2905V193.875Z" fill="#425F9A"/>
<path d="M181.486 160.486H273.963L292.67 185.74L273.963 210.995H181.486V160.486Z" stroke="#C8D2E9" stroke-width="2.97114"/>
<path d="M309.486 160.486H401.963L420.67 185.74L401.963 210.995H309.486V160.486Z" stroke="#EBF0FB" stroke-width="2.97114"/>
<path d="M437.486 160.486H530.963L549.67 185.74L530.963 210.995H437.486V160.486Z" stroke="#FFEFE4" stroke-width="2.97114"/>
<path d="M565.486 160.486H658.963L677.67 185.74L658.963 210.995H565.486V160.486Z" stroke="#FFDABE" stroke-width="2.97114"/>
<path d="M205.702 193.875H193.91V191.322L199.342 185.612C200.68 184.087 201.349 182.876 201.349 181.979C201.349 181.252 201.191 180.698 200.874 180.319C200.556 179.94 200.096 179.75 199.492 179.75C198.897 179.75 198.413 180.006 198.042 180.516C197.67 181.019 197.485 181.65 197.485 182.408H193.562C193.562 181.371 193.821 180.416 194.339 179.542C194.858 178.66 195.577 177.971 196.498 177.476C197.419 176.98 198.448 176.733 199.585 176.733C201.411 176.733 202.816 177.155 203.798 177.998C204.789 178.841 205.284 180.052 205.284 181.631C205.284 182.296 205.16 182.946 204.912 183.58C204.665 184.207 204.278 184.869 203.752 185.565C203.233 186.254 202.394 187.178 201.233 188.339L199.051 190.857H205.702V193.875Z" fill="#425F9A"/>
<path d="M325.483 183.789H327.328C328.79 183.789 329.521 183.074 329.521 181.642C329.521 181.085 329.347 180.633 328.999 180.284C328.651 179.928 328.16 179.75 327.525 179.75C327.007 179.75 326.554 179.901 326.167 180.203C325.788 180.505 325.599 180.88 325.599 181.329H321.687C321.687 180.439 321.935 179.646 322.43 178.95C322.925 178.253 323.61 177.712 324.484 177.325C325.367 176.93 326.334 176.733 327.386 176.733C329.266 176.733 330.744 177.162 331.819 178.021C332.895 178.88 333.433 180.06 333.433 181.561C333.433 182.288 333.208 182.977 332.76 183.627C332.319 184.269 331.672 184.791 330.821 185.194C331.719 185.519 332.423 186.014 332.934 186.679C333.444 187.337 333.7 188.153 333.7 189.128C333.7 190.637 333.119 191.844 331.959 192.749C330.798 193.654 329.274 194.107 327.386 194.107C326.28 194.107 325.25 193.898 324.299 193.48C323.355 193.055 322.639 192.471 322.152 191.728C321.664 190.977 321.42 190.126 321.42 189.175H325.355C325.355 189.693 325.564 190.142 325.982 190.521C326.399 190.9 326.914 191.09 327.525 191.09C328.214 191.09 328.763 190.9 329.173 190.521C329.583 190.134 329.788 189.643 329.788 189.047C329.788 188.196 329.576 187.592 329.15 187.236C328.725 186.88 328.137 186.702 327.386 186.702H325.483V183.789Z" fill="#425F9A"/>
<path d="M460.237 187.271H461.955V190.289H460.237V193.875H456.326V190.289H449.792L449.56 187.898L456.326 177.011V176.977H460.237V187.271ZM453.285 187.271H456.326V182.072L456.082 182.466L453.285 187.271Z" fill="#425F9A"/>
<path d="M578.14 185.612L579.173 176.977H589.05V180.017H582.353L581.97 183.372C582.249 183.209 582.612 183.066 583.061 182.942C583.518 182.818 583.962 182.756 584.396 182.756C586.075 182.756 587.363 183.255 588.261 184.254C589.166 185.244 589.618 186.637 589.618 188.432C589.618 189.515 589.375 190.498 588.887 191.38C588.408 192.254 587.731 192.927 586.856 193.399C585.982 193.871 584.949 194.107 583.757 194.107C582.697 194.107 581.703 193.89 580.775 193.457C579.846 193.016 579.119 192.417 578.593 191.658C578.067 190.892 577.807 190.03 577.815 189.07H581.738C581.777 189.689 581.974 190.18 582.33 190.544C582.686 190.908 583.154 191.09 583.734 191.09C585.05 191.09 585.707 190.115 585.707 188.165C585.707 186.362 584.903 185.461 583.293 185.461C582.38 185.461 581.699 185.755 581.25 186.343L578.14 185.612Z" fill="#425F9A"/>
<rect x="436" y="311" width="115" height="46" fill="#D5DDEE"/>
<rect x="309.486" y="312.486" width="112.029" height="43.0289" stroke="#D5DDEE" stroke-width="2.97114" stroke-miterlimit="2.9238" stroke-linecap="square" stroke-dasharray="3.96 15.85"/>
<rect x="51" y="429.819" width="115.494" height="46.9195" fill="#D5DDEE"/>
<rect x="68.6143" y="447.066" width="42.0001" height="3.57448" rx="1.78724" fill="#A4B6D9"/>
<rect x="68.6152" y="456.002" width="22.3405" height="3.57448" rx="1.78724" fill="#A4B6D9"/>
<rect x="51" y="250.261" width="115.494" height="46.9195" fill="#D5DDEE"/>
<rect x="68.6143" y="267.448" width="52.7235" height="3.57448" rx="1.78724" fill="#A4B6D9"/>
<rect x="68.6152" y="276.384" width="23.2341" height="3.57448" rx="1.78724" fill="#A4B6D9"/>
<circle cx="149.298" cy="273.703" r="5.36172" fill="#E49797"/>
<rect x="180.028" y="250.261" width="114.592" height="46.9195" fill="#D5DDEE"/>
<rect x="198.059" y="267.448" width="54.5108" height="3.57448" rx="1.78724" fill="#A4B6D9"/>
<rect x="198.059" y="276.384" width="42.8937" height="3.57448" rx="1.78724" fill="#A4B6D9"/>
<circle cx="279.152" cy="273.704" r="5.36172" fill="#A4B6D9"/>
<rect x="308.155" y="250.261" width="114.592" height="46.9195" fill="#D5DDEE"/>
<rect x="325.699" y="267.448" width="58.9789" height="3.57448" rx="1.78724" fill="#A4B6D9"/>
<rect x="325.699" y="276.384" width="23.2341" height="3.57448" rx="1.78724" fill="#A4B6D9"/>
<circle cx="406.794" cy="273.703" r="5.36172" fill="#A4B6D9"/>
<rect x="436.281" y="250.261" width="114.592" height="46.9195" fill="#D5DDEE"/>
<rect x="564.407" y="250.261" width="114.592" height="46.9195" fill="#8ACD90"/>
<rect x="454.24" y="267.448" width="58.9789" height="3.57448" rx="1.78724" fill="#A4B6D9"/>
<rect x="454.241" y="276.384" width="23.2341" height="3.57448" rx="1.78724" fill="#A4B6D9"/>
<rect x="572.528" y="272.819" width="38.7989" height="16.2414" rx="8.12069" fill="#B8F2BD"/>
<circle cx="535.482" cy="273.703" r="5.36172" fill="#A4B6D9"/>
<rect x="180.028" y="310.716" width="114.592" height="46.0172" fill="#D5DDEE"/>
<rect x="198.059" y="327.321" width="62.5534" height="3.57448" rx="1.78724" fill="#A4B6D9"/>
<rect x="198.059" y="336.257" width="19.6596" height="3.57448" rx="1.78724" fill="#A4B6D9"/>
<circle cx="279.152" cy="333.576" r="5.36172" fill="#A4B6D9"/>
<rect x="180.028" y="370.267" width="114.592" height="46.0172" fill="#D5DDEE"/>
<rect x="198.059" y="387.193" width="62.5534" height="3.57448" rx="1.78724" fill="#A4B6D9"/>
<rect x="198.059" y="396.129" width="19.6596" height="3.57448" rx="1.78724" fill="#A4B6D9"/>
<circle cx="279.152" cy="393.449" r="5.36172" fill="#A4B6D9"/>
<rect x="180.028" y="429.819" width="114.592" height="46.9195" fill="#D5DDEE"/>
<rect x="198.059" y="447.066" width="58.9789" height="3.57448" rx="1.78724" fill="#A4B6D9"/>
<rect x="198.059" y="456.002" width="23.2341" height="3.57448" rx="1.78724" fill="#A4B6D9"/>
<circle cx="279.152" cy="453.321" r="5.36172" fill="#A4B6D9"/>
<rect x="51" y="370.267" width="115.494" height="46.0172" fill="#D5DDEE"/>
<rect x="68.6143" y="387.193" width="55.4044" height="3.57448" rx="1.78724" fill="#A4B6D9"/>
<rect x="68.6152" y="396.129" width="29.4894" height="3.57448" rx="1.78724" fill="#A4B6D9"/>
<circle cx="149.298" cy="393.449" r="5.36172" fill="#8ACD90"/>
<rect x="51" y="310.716" width="115.494" height="46.0172" fill="#D5DDEE"/>
<rect x="68.6143" y="327.321" width="29.4894" height="3.57448" rx="1.78724" fill="#A4B6D9"/>
<rect x="68.6152" y="336.257" width="23.2341" height="3.57448" rx="1.78724" fill="#A4B6D9"/>
<path d="M150.193 328.214L156.384 338.938H144.002L150.193 328.214Z" fill="#FA6C06"/>
<rect x="312.667" y="322.445" width="114.592" height="46.4682" fill="#8ACD90"/>
<rect x="385.481" y="337.386" width="38.7989" height="16.2414" rx="8.12069" fill="#B8F2BD"/>
<rect x="328.638" y="339.19" width="48.7241" height="3.6092" rx="1.8046" fill="#B3EFB9"/>
<rect x="328.637" y="349.116" width="19.8506" height="3.6092" rx="1.8046" fill="#B3EFB9"/>
<rect x="1.5" y="1.5" width="1197" height="667" rx="8.5" fill="white" fill-opacity="0.3" stroke="#7E97C9" stroke-width="3"/>
<rect x="963.5" y="434.5" width="62" height="47" rx="3.5" fill="white" stroke="#FFCAA3" stroke-width="3"/>
<path d="M988.166 461.88L990.108 452.379H992.283L989.371 465H987.273L984.872 455.786L982.419 465H980.313L977.4 452.379H979.576L981.535 461.862L983.945 452.379H985.782L988.166 461.88ZM993.011 460.224C993.011 459.305 993.193 458.479 993.558 457.745C993.922 457.005 994.433 456.439 995.092 456.046C995.751 455.647 996.508 455.448 997.363 455.448C998.628 455.448 999.654 455.855 1000.44 456.67C1001.23 457.485 1001.66 458.565 1001.72 459.912L1001.73 460.406C1001.73 461.331 1001.55 462.157 1001.19 462.885C1000.84 463.613 1000.33 464.177 999.668 464.575C999.01 464.974 998.247 465.173 997.38 465.173C996.057 465.173 994.996 464.734 994.199 463.856C993.407 462.972 993.011 461.796 993.011 460.328V460.224ZM995.118 460.406C995.118 461.371 995.317 462.128 995.716 462.677C996.115 463.22 996.669 463.492 997.38 463.492C998.091 463.492 998.643 463.214 999.036 462.66C999.434 462.105 999.634 461.293 999.634 460.224C999.634 459.276 999.429 458.525 999.018 457.97C998.614 457.416 998.062 457.138 997.363 457.138C996.675 457.138 996.129 457.413 995.725 457.962C995.32 458.505 995.118 459.32 995.118 460.406ZM1005.47 455.621L1005.53 456.705C1006.22 455.867 1007.13 455.448 1008.26 455.448C1010.21 455.448 1011.21 456.566 1011.24 458.802V465H1009.13V458.924C1009.13 458.329 1009 457.889 1008.74 457.606C1008.49 457.317 1008.07 457.173 1007.49 457.173C1006.64 457.173 1006 457.557 1005.59 458.326V465H1003.48V455.621H1005.47Z" fill="#425F9A"/>
<rect x="963.5" y="370.5" width="118" height="47" rx="3.5" fill="white" stroke="#FFE8D9" stroke-width="3"/>
<path d="M987.294 401H985.101L979.476 392.046V401H977.283V388.379H979.476L985.119 397.368V388.379H987.294V401ZM993.813 401.173C992.478 401.173 991.394 400.754 990.562 399.917C989.736 399.073 989.323 397.952 989.323 396.553V396.293C989.323 395.357 989.502 394.522 989.86 393.788C990.224 393.049 990.733 392.474 991.386 392.063C992.039 391.653 992.767 391.448 993.57 391.448C994.847 391.448 995.832 391.855 996.526 392.67C997.225 393.485 997.575 394.638 997.575 396.129V396.978H991.446C991.51 397.752 991.767 398.365 992.218 398.816C992.674 399.266 993.246 399.492 993.934 399.492C994.899 399.492 995.685 399.102 996.292 398.322L997.427 399.405C997.052 399.966 996.549 400.402 995.919 400.714C995.295 401.02 994.593 401.173 993.813 401.173ZM993.561 393.138C992.983 393.138 992.515 393.34 992.157 393.745C991.805 394.149 991.579 394.713 991.481 395.435H995.494V395.279C995.448 394.574 995.26 394.043 994.931 393.684C994.601 393.32 994.145 393.138 993.561 393.138ZM998.849 396.241C998.849 394.785 999.19 393.624 999.872 392.757C1000.56 391.884 1001.47 391.448 1002.6 391.448C1003.67 391.448 1004.51 391.821 1005.12 392.566L1005.22 391.621H1007.12V400.714C1007.12 401.945 1006.73 402.916 1005.97 403.626C1005.2 404.337 1004.17 404.693 1002.87 404.693C1002.18 404.693 1001.51 404.548 1000.85 404.259C1000.2 403.976 999.701 403.603 999.36 403.141L1000.36 401.875C1001 402.644 1001.8 403.028 1002.75 403.028C1003.45 403.028 1004 402.838 1004.4 402.456C1004.81 402.081 1005.01 401.526 1005.01 400.792V400.159C1004.4 400.835 1003.6 401.173 1002.58 401.173C1001.49 401.173 1000.59 400.737 999.889 399.864C999.195 398.992 998.849 397.784 998.849 396.241ZM1000.95 396.423C1000.95 397.365 1001.14 398.108 1001.52 398.651C1001.91 399.188 1002.44 399.457 1003.12 399.457C1003.97 399.457 1004.6 399.093 1005.01 398.365V394.239C1004.61 393.528 1003.99 393.173 1003.14 393.173C1002.45 393.173 1001.91 393.447 1001.52 393.996C1001.14 394.545 1000.95 395.354 1000.95 396.423ZM1008.89 396.224C1008.89 395.305 1009.08 394.479 1009.44 393.745C1009.81 393.005 1010.32 392.439 1010.98 392.046C1011.63 391.647 1012.39 391.448 1013.25 391.448C1014.51 391.448 1015.54 391.855 1016.32 392.67C1017.12 393.485 1017.54 394.565 1017.61 395.912L1017.61 396.406C1017.61 397.331 1017.44 398.157 1017.08 398.885C1016.73 399.613 1016.22 400.177 1015.55 400.575C1014.89 400.974 1014.13 401.173 1013.26 401.173C1011.94 401.173 1010.88 400.734 1010.08 399.856C1009.29 398.972 1008.89 397.796 1008.89 396.328V396.224ZM1011 396.406C1011 397.371 1011.2 398.128 1011.6 398.677C1012 399.22 1012.55 399.492 1013.26 399.492C1013.97 399.492 1014.53 399.214 1014.92 398.66C1015.32 398.105 1015.52 397.293 1015.52 396.224C1015.52 395.276 1015.31 394.525 1014.9 393.97C1014.5 393.416 1013.95 393.138 1013.25 393.138C1012.56 393.138 1012.01 393.413 1011.61 393.962C1011.2 394.505 1011 395.32 1011 396.406ZM1022.04 389.342V391.621H1023.69V393.181H1022.04V398.417C1022.04 398.775 1022.1 399.035 1022.24 399.197C1022.39 399.353 1022.64 399.431 1023.01 399.431C1023.25 399.431 1023.49 399.402 1023.74 399.344V400.974C1023.26 401.107 1022.8 401.173 1022.36 401.173C1020.74 401.173 1019.93 400.281 1019.93 398.495V393.181H1018.39V391.621H1019.93V389.342H1022.04ZM1027.55 401H1025.44V391.621H1027.55V401ZM1025.31 389.186C1025.31 388.862 1025.41 388.593 1025.62 388.379C1025.82 388.166 1026.12 388.059 1026.5 388.059C1026.88 388.059 1027.18 388.166 1027.38 388.379C1027.59 388.593 1027.7 388.862 1027.7 389.186C1027.7 389.503 1027.59 389.769 1027.38 389.983C1027.18 390.191 1026.88 390.295 1026.5 390.295C1026.12 390.295 1025.82 390.191 1025.62 389.983C1025.41 389.769 1025.31 389.503 1025.31 389.186ZM1035.45 401C1035.36 400.821 1035.28 400.529 1035.21 400.125C1034.54 400.824 1033.72 401.173 1032.75 401.173C1031.81 401.173 1031.04 400.905 1030.44 400.367C1029.85 399.83 1029.55 399.165 1029.55 398.374C1029.55 397.374 1029.92 396.608 1030.66 396.077C1031.41 395.539 1032.47 395.27 1033.85 395.27H1035.14V394.655C1035.14 394.17 1035.01 393.782 1034.73 393.494C1034.46 393.199 1034.05 393.051 1033.49 393.051C1033.02 393.051 1032.62 393.173 1032.32 393.416C1032.01 393.652 1031.86 393.956 1031.86 394.326H1029.75C1029.75 393.811 1029.92 393.332 1030.26 392.887C1030.6 392.436 1031.06 392.084 1031.65 391.829C1032.24 391.575 1032.89 391.448 1033.62 391.448C1034.71 391.448 1035.59 391.725 1036.24 392.28C1036.9 392.829 1037.23 393.603 1037.25 394.603V398.833C1037.25 399.677 1037.37 400.35 1037.6 400.853V401H1035.45ZM1033.14 399.483C1033.56 399.483 1033.95 399.382 1034.31 399.18C1034.68 398.977 1034.96 398.706 1035.14 398.365V396.597H1034.01C1033.23 396.597 1032.64 396.732 1032.25 397.004C1031.85 397.276 1031.66 397.66 1031.66 398.157C1031.66 398.561 1031.79 398.885 1032.06 399.128C1032.33 399.365 1032.69 399.483 1033.14 399.483ZM1042.09 389.342V391.621H1043.75V393.181H1042.09V398.417C1042.09 398.775 1042.16 399.035 1042.3 399.197C1042.45 399.353 1042.7 399.431 1043.06 399.431C1043.31 399.431 1043.55 399.402 1043.8 399.344V400.974C1043.32 401.107 1042.86 401.173 1042.41 401.173C1040.8 401.173 1039.99 400.281 1039.99 398.495V393.181H1038.44V391.621H1039.99V389.342H1042.09ZM1047.61 401H1045.5V391.621H1047.61V401ZM1045.37 389.186C1045.37 388.862 1045.47 388.593 1045.67 388.379C1045.88 388.166 1046.18 388.059 1046.56 388.059C1046.94 388.059 1047.23 388.166 1047.44 388.379C1047.65 388.593 1047.75 388.862 1047.75 389.186C1047.75 389.503 1047.65 389.769 1047.44 389.983C1047.23 390.191 1046.94 390.295 1046.56 390.295C1046.18 390.295 1045.88 390.191 1045.67 389.983C1045.47 389.769 1045.37 389.503 1045.37 389.186ZM1049.51 396.224C1049.51 395.305 1049.7 394.479 1050.06 393.745C1050.42 393.005 1050.93 392.439 1051.59 392.046C1052.25 391.647 1053.01 391.448 1053.86 391.448C1055.13 391.448 1056.16 391.855 1056.94 392.67C1057.73 393.485 1058.16 394.565 1058.22 395.912L1058.23 396.406C1058.23 397.331 1058.05 398.157 1057.7 398.885C1057.34 399.613 1056.83 400.177 1056.17 400.575C1055.51 400.974 1054.75 401.173 1053.88 401.173C1052.56 401.173 1051.5 400.734 1050.7 399.856C1049.91 398.972 1049.51 397.796 1049.51 396.328V396.224ZM1051.62 396.406C1051.62 397.371 1051.82 398.128 1052.22 398.677C1052.62 399.22 1053.17 399.492 1053.88 399.492C1054.59 399.492 1055.14 399.214 1055.54 398.66C1055.94 398.105 1056.14 397.293 1056.14 396.224C1056.14 395.276 1055.93 394.525 1055.52 393.97C1055.12 393.416 1054.56 393.138 1053.86 393.138C1053.18 393.138 1052.63 393.413 1052.23 393.962C1051.82 394.505 1051.62 395.32 1051.62 396.406ZM1061.97 391.621L1062.03 392.705C1062.72 391.867 1063.63 391.448 1064.76 391.448C1066.71 391.448 1067.71 392.566 1067.74 394.802V401H1065.64V394.924C1065.64 394.329 1065.51 393.889 1065.25 393.606C1064.99 393.317 1064.57 393.173 1063.99 393.173C1063.14 393.173 1062.51 393.557 1062.09 394.326V401H1059.98V391.621H1061.97Z" fill="#425F9A"/>
<rect x="963.5" y="306.5" width="96" height="47" rx="3.5" fill="white" stroke="#E2E9F9" stroke-width="3"/>
<path d="M979.476 332.311V337H977.283V324.379H982.111C983.521 324.379 984.639 324.746 985.465 325.48C986.298 326.214 986.714 327.185 986.714 328.393C986.714 329.629 986.306 330.591 985.491 331.279C984.682 331.967 983.547 332.311 982.085 332.311H979.476ZM979.476 330.551H982.111C982.891 330.551 983.486 330.369 983.897 330.005C984.307 329.635 984.512 329.103 984.512 328.41C984.512 327.728 984.304 327.185 983.888 326.78C983.472 326.37 982.9 326.159 982.172 326.148H979.476V330.551ZM993.345 329.546C993.067 329.499 992.781 329.476 992.486 329.476C991.521 329.476 990.871 329.846 990.536 330.586V337H988.43V327.621H990.441L990.493 328.67C991.001 327.855 991.706 327.448 992.608 327.448C992.908 327.448 993.157 327.488 993.353 327.569L993.345 329.546ZM993.969 332.224C993.969 331.305 994.151 330.479 994.515 329.745C994.879 329.005 995.39 328.439 996.049 328.046C996.708 327.647 997.465 327.448 998.32 327.448C999.586 327.448 1000.61 327.855 1001.4 328.67C1002.19 329.485 1002.62 330.565 1002.68 331.912L1002.69 332.406C1002.69 333.331 1002.51 334.157 1002.15 334.885C1001.8 335.613 1001.29 336.177 1000.63 336.575C999.967 336.974 999.204 337.173 998.337 337.173C997.014 337.173 995.954 336.734 995.156 335.856C994.365 334.972 993.969 333.796 993.969 332.328V332.224ZM996.075 332.406C996.075 333.371 996.274 334.128 996.673 334.677C997.072 335.22 997.627 335.492 998.337 335.492C999.048 335.492 999.6 335.214 999.993 334.66C1000.39 334.105 1000.59 333.293 1000.59 332.224C1000.59 331.276 1000.39 330.525 999.976 329.97C999.571 329.416 999.019 329.138 998.32 329.138C997.632 329.138 997.086 329.413 996.682 329.962C996.277 330.505 996.075 331.32 996.075 332.406ZM1012.68 332.406C1012.68 333.856 1012.35 335.015 1011.69 335.882C1011.04 336.743 1010.15 337.173 1009.04 337.173C1008.01 337.173 1007.19 336.835 1006.57 336.159V340.606H1004.47V327.621H1006.41L1006.49 328.575C1007.11 327.824 1007.95 327.448 1009.02 327.448C1010.16 327.448 1011.06 327.876 1011.7 328.731C1012.36 329.58 1012.68 330.762 1012.68 332.276V332.406ZM1010.59 332.224C1010.59 331.288 1010.4 330.545 1010.02 329.996C1009.65 329.447 1009.12 329.173 1008.43 329.173C1007.57 329.173 1006.95 329.528 1006.57 330.239V334.4C1006.95 335.128 1007.58 335.492 1008.44 335.492C1009.11 335.492 1009.64 335.223 1010.01 334.686C1010.39 334.142 1010.59 333.322 1010.59 332.224ZM1014.08 332.224C1014.08 331.305 1014.26 330.479 1014.62 329.745C1014.99 329.005 1015.5 328.439 1016.16 328.046C1016.82 327.647 1017.57 327.448 1018.43 327.448C1019.7 327.448 1020.72 327.855 1021.51 328.67C1022.3 329.485 1022.73 330.565 1022.79 331.912L1022.8 332.406C1022.8 333.331 1022.62 334.157 1022.26 334.885C1021.91 335.613 1021.4 336.177 1020.74 336.575C1020.08 336.974 1019.31 337.173 1018.45 337.173C1017.12 337.173 1016.06 336.734 1015.27 335.856C1014.47 334.972 1014.08 333.796 1014.08 332.328V332.224ZM1016.18 332.406C1016.18 333.371 1016.38 334.128 1016.78 334.677C1017.18 335.22 1017.74 335.492 1018.45 335.492C1019.16 335.492 1019.71 335.214 1020.1 334.66C1020.5 334.105 1020.7 333.293 1020.7 332.224C1020.7 331.276 1020.5 330.525 1020.09 329.97C1019.68 329.416 1019.13 329.138 1018.43 329.138C1017.74 329.138 1017.2 329.413 1016.79 329.962C1016.39 330.505 1016.18 331.32 1016.18 332.406ZM1029.84 334.452C1029.84 334.076 1029.68 333.79 1029.37 333.593C1029.06 333.397 1028.55 333.224 1027.83 333.073C1027.12 332.923 1026.52 332.732 1026.04 332.501C1024.99 331.993 1024.46 331.256 1024.46 330.291C1024.46 329.482 1024.8 328.806 1025.49 328.263C1026.17 327.719 1027.03 327.448 1028.09 327.448C1029.21 327.448 1030.11 327.725 1030.8 328.28C1031.49 328.835 1031.84 329.554 1031.84 330.438H1029.73C1029.73 330.034 1029.58 329.699 1029.28 329.433C1028.98 329.161 1028.58 329.025 1028.09 329.025C1027.62 329.025 1027.25 329.132 1026.95 329.346C1026.66 329.56 1026.52 329.846 1026.52 330.204C1026.52 330.528 1026.65 330.779 1026.92 330.958C1027.2 331.138 1027.74 331.32 1028.57 331.505C1029.4 331.684 1030.04 331.9 1030.51 332.155C1030.99 332.403 1031.34 332.704 1031.56 333.056C1031.79 333.409 1031.91 333.836 1031.91 334.339C1031.91 335.183 1031.56 335.867 1030.86 336.393C1030.16 336.913 1029.24 337.173 1028.11 337.173C1027.34 337.173 1026.66 337.035 1026.06 336.757C1025.46 336.48 1024.99 336.099 1024.65 335.613C1024.32 335.128 1024.15 334.605 1024.15 334.044H1026.2C1026.23 334.541 1026.41 334.925 1026.76 335.197C1027.11 335.463 1027.57 335.596 1028.14 335.596C1028.69 335.596 1029.11 335.492 1029.4 335.284C1029.69 335.07 1029.84 334.793 1029.84 334.452ZM1039.35 337C1039.26 336.821 1039.18 336.529 1039.11 336.125C1038.44 336.824 1037.62 337.173 1036.65 337.173C1035.71 337.173 1034.94 336.905 1034.34 336.367C1033.75 335.83 1033.45 335.165 1033.45 334.374C1033.45 333.374 1033.82 332.608 1034.56 332.077C1035.31 331.539 1036.37 331.27 1037.75 331.27H1039.04V330.655C1039.04 330.17 1038.91 329.782 1038.63 329.494C1038.36 329.199 1037.95 329.051 1037.4 329.051C1036.92 329.051 1036.52 329.173 1036.22 329.416C1035.91 329.652 1035.76 329.956 1035.76 330.326H1033.65C1033.65 329.811 1033.82 329.332 1034.16 328.887C1034.5 328.436 1034.97 328.084 1035.55 327.829C1036.14 327.575 1036.79 327.448 1037.52 327.448C1038.61 327.448 1039.49 327.725 1040.14 328.28C1040.8 328.829 1041.13 329.603 1041.15 330.603V334.833C1041.15 335.677 1041.27 336.35 1041.5 336.853V337H1039.35ZM1037.04 335.483C1037.46 335.483 1037.85 335.382 1038.21 335.18C1038.58 334.977 1038.86 334.706 1039.04 334.365V332.597H1037.91C1037.13 332.597 1036.54 332.732 1036.15 333.004C1035.75 333.276 1035.56 333.66 1035.56 334.157C1035.56 334.561 1035.69 334.885 1035.96 335.128C1036.23 335.365 1036.59 335.483 1037.04 335.483ZM1045.6 337H1043.49V323.686H1045.6V337Z" fill="#425F9A"/>
<rect x="963.5" y="241.5" width="142" height="47" rx="3.5" fill="white" stroke="#B0BFE0" stroke-width="3"/>
<path d="M986.913 267.891C986.786 269.238 986.289 270.29 985.422 271.047C984.555 271.798 983.402 272.173 981.964 272.173C980.958 272.173 980.071 271.936 979.302 271.463C978.54 270.983 977.95 270.304 977.534 269.426C977.118 268.547 976.901 267.527 976.884 266.366V265.187C976.884 263.997 977.095 262.948 977.517 262.041C977.939 261.133 978.543 260.434 979.329 259.943C980.12 259.452 981.033 259.206 982.068 259.206C983.46 259.206 984.581 259.585 985.431 260.342C986.28 261.099 986.774 262.168 986.913 263.549H984.729C984.625 262.641 984.359 261.988 983.931 261.59C983.509 261.185 982.888 260.983 982.068 260.983C981.114 260.983 980.38 261.333 979.866 262.032C979.357 262.725 979.097 263.745 979.086 265.092V266.21C979.086 267.574 979.329 268.614 979.814 269.33C980.305 270.047 981.022 270.405 981.964 270.405C982.825 270.405 983.472 270.212 983.905 269.824C984.339 269.437 984.613 268.793 984.729 267.891H986.913ZM994.281 272C994.188 271.821 994.107 271.529 994.038 271.125C993.368 271.824 992.547 272.173 991.576 272.173C990.634 272.173 989.866 271.905 989.271 271.367C988.675 270.83 988.378 270.165 988.378 269.374C988.378 268.374 988.748 267.608 989.487 267.077C990.233 266.539 991.296 266.27 992.677 266.27H993.969V265.655C993.969 265.17 993.833 264.782 993.561 264.494C993.29 264.199 992.877 264.051 992.322 264.051C991.842 264.051 991.449 264.173 991.143 264.416C990.837 264.652 990.684 264.956 990.684 265.326H988.577C988.577 264.811 988.748 264.332 989.089 263.887C989.43 263.436 989.892 263.084 990.476 262.829C991.065 262.575 991.721 262.448 992.443 262.448C993.541 262.448 994.417 262.725 995.07 263.28C995.723 263.829 996.058 264.603 996.075 265.603V269.833C996.075 270.677 996.193 271.35 996.43 271.853V272H994.281ZM991.966 270.483C992.382 270.483 992.773 270.382 993.137 270.18C993.506 269.977 993.784 269.706 993.969 269.365V267.597H992.833C992.053 267.597 991.467 267.732 991.074 268.004C990.681 268.276 990.484 268.66 990.484 269.157C990.484 269.561 990.617 269.885 990.883 270.128C991.154 270.365 991.516 270.483 991.966 270.483ZM1000.52 272H998.415V258.686H1000.52V272ZM1005.06 272H1002.96V258.686H1005.06V272ZM1017.04 269.452C1017.04 269.076 1016.89 268.79 1016.57 268.593C1016.27 268.397 1015.76 268.224 1015.04 268.073C1014.32 267.923 1013.73 267.732 1013.25 267.501C1012.19 266.993 1011.67 266.256 1011.67 265.291C1011.67 264.482 1012.01 263.806 1012.69 263.263C1013.37 262.719 1014.24 262.448 1015.29 262.448C1016.41 262.448 1017.32 262.725 1018 263.28C1018.7 263.835 1019.05 264.554 1019.05 265.438H1016.94C1016.94 265.034 1016.79 264.699 1016.49 264.433C1016.19 264.161 1015.79 264.025 1015.29 264.025C1014.83 264.025 1014.45 264.132 1014.16 264.346C1013.87 264.56 1013.72 264.846 1013.72 265.204C1013.72 265.528 1013.86 265.779 1014.13 265.958C1014.4 266.138 1014.95 266.32 1015.78 266.505C1016.6 266.684 1017.25 266.9 1017.72 267.155C1018.19 267.403 1018.54 267.704 1018.77 268.056C1019 268.409 1019.11 268.836 1019.11 269.339C1019.11 270.183 1018.76 270.867 1018.07 271.393C1017.37 271.913 1016.45 272.173 1015.32 272.173C1014.55 272.173 1013.86 272.035 1013.26 271.757C1012.66 271.48 1012.19 271.099 1011.86 270.613C1011.52 270.128 1011.36 269.605 1011.36 269.044H1013.4C1013.43 269.541 1013.62 269.925 1013.97 270.197C1014.31 270.463 1014.77 270.596 1015.34 270.596C1015.9 270.596 1016.32 270.492 1016.61 270.284C1016.9 270.07 1017.04 269.793 1017.04 269.452ZM1024.81 270.492C1025.34 270.492 1025.77 270.339 1026.12 270.032C1026.46 269.726 1026.65 269.348 1026.67 268.897H1028.66C1028.63 269.481 1028.45 270.027 1028.11 270.535C1027.77 271.038 1027.31 271.437 1026.72 271.731C1026.14 272.026 1025.51 272.173 1024.84 272.173C1023.52 272.173 1022.48 271.749 1021.71 270.899C1020.95 270.05 1020.56 268.877 1020.56 267.38V267.163C1020.56 265.736 1020.94 264.595 1021.71 263.739C1022.47 262.878 1023.51 262.448 1024.83 262.448C1025.94 262.448 1026.85 262.774 1027.55 263.427C1028.25 264.075 1028.62 264.927 1028.66 265.984H1026.67C1026.65 265.447 1026.46 265.005 1026.12 264.658C1025.78 264.312 1025.34 264.138 1024.81 264.138C1024.13 264.138 1023.6 264.387 1023.23 264.884C1022.86 265.375 1022.67 266.123 1022.67 267.129V267.467C1022.67 268.484 1022.85 269.244 1023.21 269.746C1023.58 270.243 1024.12 270.492 1024.81 270.492ZM1032.32 263.644C1033.01 262.847 1033.88 262.448 1034.93 262.448C1036.93 262.448 1037.95 263.589 1037.98 265.872V272H1035.87V265.95C1035.87 265.303 1035.73 264.846 1035.44 264.58C1035.17 264.309 1034.76 264.173 1034.21 264.173C1033.37 264.173 1032.74 264.548 1032.32 265.3V272H1030.22V258.686H1032.32V263.644ZM1044.24 272.173C1042.91 272.173 1041.82 271.754 1040.99 270.917C1040.17 270.073 1039.75 268.952 1039.75 267.553V267.293C1039.75 266.357 1039.93 265.522 1040.29 264.788C1040.65 264.049 1041.16 263.474 1041.82 263.063C1042.47 262.653 1043.2 262.448 1044 262.448C1045.28 262.448 1046.26 262.855 1046.96 263.67C1047.66 264.485 1048 265.638 1048 267.129V267.978H1041.88C1041.94 268.752 1042.2 269.365 1042.65 269.816C1043.1 270.266 1043.68 270.492 1044.36 270.492C1045.33 270.492 1046.12 270.102 1046.72 269.322L1047.86 270.405C1047.48 270.966 1046.98 271.402 1046.35 271.714C1045.73 272.02 1045.02 272.173 1044.24 272.173ZM1043.99 264.138C1043.41 264.138 1042.95 264.34 1042.59 264.745C1042.23 265.149 1042.01 265.713 1041.91 266.435H1045.92V266.279C1045.88 265.574 1045.69 265.043 1045.36 264.684C1045.03 264.32 1044.58 264.138 1043.99 264.138ZM1049.25 267.241C1049.25 265.797 1049.59 264.638 1050.26 263.765C1050.93 262.887 1051.83 262.448 1052.95 262.448C1053.95 262.448 1054.75 262.795 1055.36 263.488V258.686H1057.47V272H1055.56L1055.46 271.029C1054.83 271.792 1053.99 272.173 1052.94 272.173C1051.84 272.173 1050.95 271.731 1050.27 270.847C1049.59 269.963 1049.25 268.761 1049.25 267.241ZM1051.36 267.423C1051.36 268.377 1051.54 269.122 1051.91 269.66C1052.28 270.191 1052.8 270.457 1053.47 270.457C1054.34 270.457 1054.97 270.073 1055.36 269.304V265.3C1054.98 264.548 1054.35 264.173 1053.49 264.173C1052.81 264.173 1052.28 264.444 1051.91 264.988C1051.54 265.525 1051.36 266.337 1051.36 267.423ZM1065.35 271.081C1064.73 271.809 1063.85 272.173 1062.71 272.173C1061.7 272.173 1060.93 271.876 1060.4 271.281C1059.88 270.685 1059.62 269.824 1059.62 268.698V262.621H1061.73V268.671C1061.73 269.862 1062.22 270.457 1063.21 270.457C1064.23 270.457 1064.92 270.09 1065.28 269.356V262.621H1067.39V272H1065.4L1065.35 271.081ZM1071.77 272H1069.67V258.686H1071.77V272ZM1078.2 272.173C1076.87 272.173 1075.79 271.754 1074.95 270.917C1074.13 270.073 1073.71 268.952 1073.71 267.553V267.293C1073.71 266.357 1073.89 265.522 1074.25 264.788C1074.62 264.049 1075.12 263.474 1075.78 263.063C1076.43 262.653 1077.16 262.448 1077.96 262.448C1079.24 262.448 1080.22 262.855 1080.92 263.67C1081.62 264.485 1081.97 265.638 1081.97 267.129V267.978H1075.84C1075.9 268.752 1076.16 269.365 1076.61 269.816C1077.07 270.266 1077.64 270.492 1078.33 270.492C1079.29 270.492 1080.08 270.102 1080.68 269.322L1081.82 270.405C1081.44 270.966 1080.94 271.402 1080.31 271.714C1079.69 272.02 1078.98 272.173 1078.2 272.173ZM1077.95 264.138C1077.37 264.138 1076.91 264.34 1076.55 264.745C1076.2 265.149 1075.97 265.713 1075.87 266.435H1079.89V266.279C1079.84 265.574 1079.65 265.043 1079.32 264.684C1078.99 264.32 1078.54 264.138 1077.95 264.138ZM1083.21 267.241C1083.21 265.797 1083.55 264.638 1084.22 263.765C1084.89 262.887 1085.79 262.448 1086.92 262.448C1087.91 262.448 1088.71 262.795 1089.33 263.488V258.686H1091.43V272H1089.52L1089.42 271.029C1088.79 271.792 1087.95 272.173 1086.9 272.173C1085.8 272.173 1084.91 271.731 1084.23 270.847C1083.55 269.963 1083.21 268.761 1083.21 267.241ZM1085.32 267.423C1085.32 268.377 1085.5 269.122 1085.87 269.66C1086.24 270.191 1086.76 270.457 1087.44 270.457C1088.3 270.457 1088.93 270.073 1089.33 269.304V265.3C1088.94 264.548 1088.31 264.173 1087.45 264.173C1086.77 264.173 1086.25 264.444 1085.88 264.988C1085.51 265.525 1085.32 266.337 1085.32 267.423Z" fill="#425F9A"/>
<rect x="963.5" y="175.5" width="126" height="47" rx="3.5" fill="white" stroke="#7E97C9" stroke-width="3"/>
<path d="M984.555 200.652H979.476V206H977.283V193.379H985.301V195.148H979.476V198.901H984.555V200.652ZM989.08 206H986.974V196.621H989.08V206ZM986.844 194.186C986.844 193.862 986.945 193.593 987.147 193.379C987.355 193.166 987.65 193.059 988.031 193.059C988.413 193.059 988.707 193.166 988.915 193.379C989.123 193.593 989.227 193.862 989.227 194.186C989.227 194.503 989.123 194.769 988.915 194.983C988.707 195.191 988.413 195.295 988.031 195.295C987.65 195.295 987.355 195.191 987.147 194.983C986.945 194.769 986.844 194.503 986.844 194.186ZM996.292 198.546C996.014 198.499 995.728 198.476 995.434 198.476C994.469 198.476 993.818 198.846 993.483 199.586V206H991.377V196.621H993.388L993.44 197.67C993.948 196.855 994.653 196.448 995.555 196.448C995.855 196.448 996.104 196.488 996.3 196.569L996.292 198.546ZM1002.88 203.452C1002.88 203.076 1002.72 202.79 1002.41 202.593C1002.11 202.397 1001.59 202.224 1000.88 202.073C1000.16 201.923 999.562 201.732 999.083 201.501C998.031 200.993 997.505 200.256 997.505 199.291C997.505 198.482 997.846 197.806 998.528 197.263C999.21 196.719 1000.08 196.448 1001.13 196.448C1002.25 196.448 1003.15 196.725 1003.84 197.28C1004.53 197.835 1004.88 198.554 1004.88 199.438H1002.78C1002.78 199.034 1002.63 198.699 1002.32 198.433C1002.02 198.161 1001.63 198.025 1001.13 198.025C1000.67 198.025 1000.29 198.132 999.993 198.346C999.704 198.56 999.56 198.846 999.56 199.204C999.56 199.528 999.695 199.779 999.967 199.958C1000.24 200.138 1000.79 200.32 1001.61 200.505C1002.44 200.684 1003.09 200.9 1003.56 201.155C1004.03 201.403 1004.38 201.704 1004.6 202.056C1004.84 202.409 1004.95 202.836 1004.95 203.339C1004.95 204.183 1004.6 204.867 1003.9 205.393C1003.2 205.913 1002.29 206.173 1001.15 206.173C1000.39 206.173 999.701 206.035 999.1 205.757C998.499 205.48 998.031 205.099 997.696 204.613C997.361 204.128 997.193 203.605 997.193 203.044H999.239C999.268 203.541 999.456 203.925 999.802 204.197C1000.15 204.463 1000.61 204.596 1001.18 204.596C1001.74 204.596 1002.16 204.492 1002.45 204.284C1002.73 204.07 1002.88 203.793 1002.88 203.452ZM1009.43 194.342V196.621H1011.09V198.181H1009.43V203.417C1009.43 203.775 1009.5 204.035 1009.64 204.197C1009.78 204.353 1010.04 204.431 1010.4 204.431C1010.65 204.431 1010.89 204.402 1011.14 204.344V205.974C1010.66 206.107 1010.2 206.173 1009.75 206.173C1008.14 206.173 1007.33 205.281 1007.33 203.495V198.181H1005.78V196.621H1007.33V194.342H1009.43ZM1020.98 204.492C1021.5 204.492 1021.94 204.339 1022.29 204.032C1022.63 203.726 1022.82 203.348 1022.84 202.897H1024.83C1024.8 203.481 1024.62 204.027 1024.28 204.535C1023.94 205.038 1023.48 205.437 1022.89 205.731C1022.31 206.026 1021.68 206.173 1021 206.173C1019.69 206.173 1018.65 205.749 1017.88 204.899C1017.12 204.05 1016.73 202.877 1016.73 201.38V201.163C1016.73 199.736 1017.11 198.595 1017.87 197.739C1018.64 196.878 1019.68 196.448 1021 196.448C1022.11 196.448 1023.02 196.774 1023.72 197.427C1024.42 198.075 1024.79 198.927 1024.83 199.984H1022.84C1022.82 199.447 1022.63 199.005 1022.29 198.658C1021.95 198.312 1021.51 198.138 1020.98 198.138C1020.3 198.138 1019.77 198.387 1019.4 198.884C1019.03 199.375 1018.84 200.123 1018.84 201.129V201.467C1018.84 202.484 1019.02 203.244 1019.38 203.746C1019.75 204.243 1020.28 204.492 1020.98 204.492ZM1026.02 201.224C1026.02 200.305 1026.2 199.479 1026.57 198.745C1026.93 198.005 1027.44 197.439 1028.1 197.046C1028.76 196.647 1029.52 196.448 1030.37 196.448C1031.64 196.448 1032.67 196.855 1033.45 197.67C1034.24 198.485 1034.67 199.565 1034.73 200.912L1034.74 201.406C1034.74 202.331 1034.56 203.157 1034.21 203.885C1033.85 204.613 1033.34 205.177 1032.68 205.575C1032.02 205.974 1031.26 206.173 1030.39 206.173C1029.07 206.173 1028.01 205.734 1027.21 204.856C1026.42 203.972 1026.02 202.796 1026.02 201.328V201.224ZM1028.13 201.406C1028.13 202.371 1028.33 203.128 1028.73 203.677C1029.13 204.22 1029.68 204.492 1030.39 204.492C1031.1 204.492 1031.65 204.214 1032.05 203.66C1032.45 203.105 1032.65 202.293 1032.65 201.224C1032.65 200.276 1032.44 199.525 1032.03 198.97C1031.63 198.416 1031.07 198.138 1030.37 198.138C1029.69 198.138 1029.14 198.413 1028.74 198.962C1028.33 199.505 1028.13 200.32 1028.13 201.406ZM1038.48 196.621L1038.54 197.705C1039.23 196.867 1040.14 196.448 1041.27 196.448C1043.22 196.448 1044.22 197.566 1044.25 199.802V206H1042.15V199.924C1042.15 199.329 1042.02 198.889 1041.76 198.606C1041.5 198.317 1041.08 198.173 1040.5 198.173C1039.65 198.173 1039.02 198.557 1038.6 199.326V206H1036.49V196.621H1038.48ZM1049.04 194.342V196.621H1050.7V198.181H1049.04V203.417C1049.04 203.775 1049.11 204.035 1049.25 204.197C1049.4 204.353 1049.65 204.431 1050.02 204.431C1050.26 204.431 1050.5 204.402 1050.75 204.344V205.974C1050.27 206.107 1049.81 206.173 1049.37 206.173C1047.75 206.173 1046.94 205.281 1046.94 203.495V198.181H1045.4V196.621H1046.94V194.342H1049.04ZM1057.92 206C1057.83 205.821 1057.75 205.529 1057.68 205.125C1057.01 205.824 1056.19 206.173 1055.22 206.173C1054.27 206.173 1053.51 205.905 1052.91 205.367C1052.32 204.83 1052.02 204.165 1052.02 203.374C1052.02 202.374 1052.39 201.608 1053.13 201.077C1053.87 200.539 1054.94 200.27 1056.32 200.27H1057.61V199.655C1057.61 199.17 1057.47 198.782 1057.2 198.494C1056.93 198.199 1056.52 198.051 1055.96 198.051C1055.48 198.051 1055.09 198.173 1054.78 198.416C1054.48 198.652 1054.32 198.956 1054.32 199.326H1052.22C1052.22 198.811 1052.39 198.332 1052.73 197.887C1053.07 197.436 1053.53 197.084 1054.12 196.829C1054.71 196.575 1055.36 196.448 1056.08 196.448C1057.18 196.448 1058.06 196.725 1058.71 197.28C1059.36 197.829 1059.7 198.603 1059.72 199.603V203.833C1059.72 204.677 1059.83 205.35 1060.07 205.853V206H1057.92ZM1055.61 204.483C1056.02 204.483 1056.41 204.382 1056.78 204.18C1057.15 203.977 1057.42 203.706 1057.61 203.365V201.597H1056.47C1055.69 201.597 1055.11 201.732 1054.71 202.004C1054.32 202.276 1054.12 202.66 1054.12 203.157C1054.12 203.561 1054.26 203.885 1054.52 204.128C1054.79 204.365 1055.16 204.483 1055.61 204.483ZM1065.77 204.492C1066.3 204.492 1066.74 204.339 1067.08 204.032C1067.43 203.726 1067.61 203.348 1067.64 202.897H1069.62C1069.6 203.481 1069.42 204.027 1069.08 204.535C1068.74 205.038 1068.27 205.437 1067.69 205.731C1067.11 206.026 1066.48 206.173 1065.8 206.173C1064.49 206.173 1063.45 205.749 1062.68 204.899C1061.91 204.05 1061.53 202.877 1061.53 201.38V201.163C1061.53 199.736 1061.91 198.595 1062.67 197.739C1063.43 196.878 1064.47 196.448 1065.79 196.448C1066.91 196.448 1067.81 196.774 1068.51 197.427C1069.22 198.075 1069.59 198.927 1069.62 199.984H1067.64C1067.61 199.447 1067.43 199.005 1067.08 198.658C1066.74 198.312 1066.31 198.138 1065.77 198.138C1065.09 198.138 1064.57 198.387 1064.2 198.884C1063.83 199.375 1063.64 200.123 1063.63 201.129V201.467C1063.63 202.484 1063.82 203.244 1064.18 203.746C1064.55 204.243 1065.08 204.492 1065.77 204.492ZM1073.85 194.342V196.621H1075.51V198.181H1073.85V203.417C1073.85 203.775 1073.92 204.035 1074.06 204.197C1074.21 204.353 1074.46 204.431 1074.82 204.431C1075.07 204.431 1075.31 204.402 1075.56 204.344V205.974C1075.08 206.107 1074.62 206.173 1074.17 206.173C1072.56 206.173 1071.75 205.281 1071.75 203.495V198.181H1070.2V196.621H1071.75V194.342H1073.85Z" fill="#425F9A"/>
</svg>
