<svg width="1200" height="670" viewBox="0 0 1200 670" fill="none" xmlns="http://www.w3.org/2000/svg">
<rect x="1.5" y="1.5" width="1197" height="667" rx="8.5" fill="white" fill-opacity="0.3" stroke="#7E97C9" stroke-width="3"/>
<mask id="mask0" mask-type="alpha" maskUnits="userSpaceOnUse" x="0" y="0" width="1201" height="670">
<rect x="1.50098" y="1.5" width="1197" height="667" rx="8.5" fill="white" fill-opacity="0.3" stroke="#7E97C9" stroke-width="3"/>
</mask>
<g mask="url(#mask0)">
<g opacity="0.3">
<path d="M713.854 31.2018L564.024 -114.278V-83.3457C388.577 -62.8045 244.547 62.3762 196.698 228.156L334.204 155.658L394.136 277.938C419.268 200.607 483.792 140.674 564.024 122.792V176.682L713.854 31.2018Z" fill="url(#paint0_linear)"/>
<path d="M871.66 700.363L715.305 677.888L738.263 545.216C702.497 567.932 659.964 580.982 614.774 580.982C579.974 580.982 546.867 573.249 517.142 559.474L541.55 525.641L334.93 555.124L370.696 760.778L396.553 725.254C460.835 762.711 535.267 783.977 614.774 783.977C710.713 784.219 799.403 753.045 871.66 700.363Z" fill="#FFE8D9"/>
<path d="M1050 348.986C1050 297.271 1040.82 247.489 1024.14 201.573L949.226 354.061L840.478 296.546C844.345 313.462 846.52 330.862 846.52 348.986C846.52 412.302 820.904 469.817 779.58 511.866L751.064 472.234L715.298 677.888L921.918 707.37L900.169 677.404C992 597.656 1050 479.967 1050 348.986Z" fill="#B0BFE0"/>
<path d="M1014 175.474C946.814 21.5353 793.118 -86.2457 614.772 -86.2457C607.522 -86.2457 600.514 -86.0041 593.264 -85.7624L625.163 117.233C708.778 120.858 781.276 169.19 818.975 238.789L764.843 256.43L949.473 354.062L1041.55 166.774L1014 175.474Z" fill="#E2E9F9"/>
<path d="M713.854 31.2018L564.024 -114.278V-83.3457C388.577 -62.8045 244.547 62.3762 196.698 228.156L334.204 155.658L394.136 277.938C419.268 200.607 483.792 140.674 564.024 122.792V176.682L713.854 31.2018Z" fill="#7E97C9"/>
<path d="M476.301 535.066C419.511 492.775 382.778 425.11 382.778 348.986C382.778 342.22 383.02 335.695 383.745 329.17L426.035 342.945L333.962 155.657L149.333 253.288L187.516 265.613C182.199 292.679 179.541 320.47 179.541 348.986C179.541 494.225 250.831 622.789 360.545 702.054L335.171 555.365L476.301 535.066Z" fill="#FFCAA3"/>
<path d="M591.091 666.047C592.541 637.531 597.616 609.015 597.857 580.257C569.341 578.082 542.034 570.832 517.142 559.232L541.55 525.4L334.93 554.882L370.696 760.536L396.553 725.012C460.835 762.47 535.267 783.736 614.774 783.736C615.499 783.736 616.465 783.736 617.19 783.736C594.716 749.42 588.916 706.887 591.091 666.047Z" fill="#FFE8D9"/>
</g>
</g>
<path d="M676.917 129.422L575.552 30.9999V51.9269C456.857 65.8237 359.415 150.513 327.044 262.668L420.071 213.62L460.617 296.347C477.62 244.03 521.272 203.484 575.552 191.386V227.844L676.917 129.422Z" fill="url(#paint1_linear)"/>
<path d="M783.679 582.131L677.9 566.927L693.432 477.17C669.235 492.538 640.46 501.366 609.887 501.366C586.344 501.366 563.946 496.135 543.836 486.816L560.349 463.927L420.563 483.873L444.76 623.004L462.254 598.971C505.743 624.312 556.098 638.7 609.887 638.7C674.793 638.863 734.795 617.773 783.679 582.131Z" fill="#FFE8D9"/>
<path d="M904.332 344.414C904.332 309.427 898.119 275.747 886.838 244.684L836.156 347.847L762.584 308.936C765.2 320.381 766.672 332.152 766.672 344.414C766.672 387.249 749.341 426.16 721.384 454.607L702.092 427.795L677.896 566.926L817.681 586.872L802.967 566.599C865.094 512.647 904.332 433.027 904.332 344.414Z" fill="#B0BFE0"/>
<path d="M879.972 227.027C834.522 122.882 730.541 49.965 609.884 49.965C604.979 49.965 600.238 50.1285 595.333 50.2919L616.914 187.625C673.482 190.078 722.53 222.776 748.034 269.862L711.412 281.796L836.32 347.847L898.611 221.141L879.972 227.027Z" fill="#E2E9F9"/>
<path d="M676.917 129.422L575.552 30.9999V51.9269C456.857 65.8237 359.415 150.513 327.044 262.668L420.071 213.62L460.617 296.347C477.62 244.03 521.272 203.484 575.552 191.386V227.844L676.917 129.422Z" fill="#7E97C9"/>
<path d="M516.205 470.303C477.784 441.692 452.933 395.914 452.933 344.414C452.933 339.836 453.097 335.422 453.587 331.008L482.198 340.327L419.908 213.62L295 279.671L320.832 288.009C317.235 306.32 315.436 325.122 315.436 344.414C315.436 442.673 363.667 529.65 437.892 583.276L420.725 484.036L516.205 470.303Z" fill="#FFCAA3"/>
<path d="M593.865 558.916C594.846 539.623 598.279 520.331 598.443 500.876C579.151 499.404 560.676 494.5 543.836 486.652L560.349 463.763L420.563 483.709L444.76 622.841L462.254 598.808C505.743 624.149 556.098 638.536 609.887 638.536C610.378 638.536 611.032 638.536 611.522 638.536C596.317 615.32 592.394 586.546 593.865 558.916Z" fill="#FFE8D9"/>
<path d="M614.474 150.349H599.293V102.02L584.381 106.377V94.8786L613.082 84.9523H614.474V150.349Z" fill="#E2E9F9"/>
<path d="M844.87 310.571H799.885V300.83L820.606 279.046C825.713 273.231 828.266 268.612 828.266 265.188C828.266 262.413 827.661 260.302 826.451 258.856C825.241 257.41 823.484 256.686 821.182 256.686C818.909 256.686 817.064 257.66 815.647 259.609C814.231 261.527 813.522 263.933 813.522 266.826H798.557C798.557 262.87 799.545 259.225 801.523 255.889C803.501 252.524 806.246 249.897 809.759 248.008C813.271 246.119 817.197 245.174 821.536 245.174C828.502 245.174 833.86 246.783 837.609 250.001C841.387 253.218 843.276 257.838 843.276 263.859C843.276 266.398 842.804 268.877 841.859 271.298C840.915 273.689 839.439 276.212 837.432 278.869C835.454 281.496 832.251 285.024 827.824 289.451L819.5 299.059H844.87V310.571Z" fill="#B0BFE0"/>
<path d="M715.751 518.608H722.697C728.201 518.608 730.953 515.915 730.953 510.527C730.953 508.43 730.298 506.726 728.987 505.416C727.677 504.076 725.827 503.406 723.439 503.406C721.488 503.406 719.784 503.974 718.328 505.11C716.901 506.246 716.188 507.658 716.188 509.347H701.466C701.466 505.998 702.398 503.013 704.262 500.392C706.125 497.771 708.703 495.732 711.994 494.276C715.314 492.791 718.954 492.048 722.915 492.048C729.992 492.048 735.555 493.664 739.603 496.897C743.651 500.13 745.675 504.571 745.675 510.221C745.675 512.959 744.831 515.551 743.141 517.997C741.481 520.414 739.05 522.38 735.846 523.894C739.224 525.118 741.875 526.981 743.797 529.486C745.719 531.962 746.68 535.034 746.68 538.704C746.68 544.383 744.496 548.926 740.127 552.333C735.759 555.741 730.021 557.445 722.915 557.445C718.75 557.445 714.877 556.658 711.295 555.086C707.742 553.484 705.048 551.285 703.213 548.489C701.378 545.664 700.461 542.461 700.461 538.878H715.27C715.27 540.83 716.057 542.519 717.629 543.946C719.202 545.373 721.139 546.086 723.439 546.086C726.031 546.086 728.099 545.373 729.643 543.946C731.186 542.49 731.958 540.64 731.958 538.398C731.958 535.194 731.157 532.923 729.555 531.583C727.954 530.243 725.74 529.573 722.915 529.573H715.751V518.608Z" fill="#FFE8D9"/>
<path d="M475.291 525.348H481.938V537.026H475.291V550.905H460.154V537.026H434.867L433.969 527.773L460.154 485.643V485.508H475.291V525.348ZM448.387 525.348H460.154V505.226L459.211 506.753L448.387 525.348Z" fill="#FFCAA3"/>
<path d="M373.059 278.139L376.922 245.174H413.859V256.783H388.814L387.382 269.587C388.424 268.967 389.784 268.421 391.462 267.948C393.169 267.476 394.833 267.239 396.454 267.239C402.733 267.239 407.551 269.144 410.907 272.955C414.293 276.736 415.986 282.052 415.986 288.905C415.986 293.041 415.074 296.792 413.251 300.159C411.457 303.497 408.925 306.067 405.655 307.868C402.386 309.67 398.523 310.571 394.066 310.571C390.102 310.571 386.384 309.744 382.912 308.09C379.439 306.406 376.719 304.117 374.751 301.222C372.784 298.298 371.814 295.005 371.843 291.342H386.514C386.659 293.705 387.397 295.581 388.728 296.969C390.059 298.357 391.809 299.051 393.98 299.051C398.899 299.051 401.358 295.33 401.358 287.886C401.358 281.004 398.349 277.563 392.33 277.563C388.916 277.563 386.369 278.685 384.691 280.93L373.059 278.139Z" fill="#7E97C9"/>
<rect x="1.5" y="1.5" width="1197" height="667" rx="8.5" fill="white" fill-opacity="0.3" stroke="#7E97C9" stroke-width="3"/>
<rect x="511.5" y="552.5" width="145" height="47" rx="3.5" fill="white" stroke="#7E97C9" stroke-width="3"/>
<path d="M546.182 579.88L548.123 570.379H550.299L547.387 583H545.289L542.888 573.786L540.435 583H538.329L535.416 570.379H537.592L539.551 579.862L541.96 570.379H543.798L546.182 579.88ZM553.94 583H551.833V573.621H553.94V583ZM551.703 571.186C551.703 570.862 551.804 570.593 552.007 570.379C552.215 570.166 552.509 570.059 552.891 570.059C553.272 570.059 553.567 570.166 553.775 570.379C553.983 570.593 554.087 570.862 554.087 571.186C554.087 571.503 553.983 571.769 553.775 571.983C553.567 572.191 553.272 572.295 552.891 572.295C552.509 572.295 552.215 572.191 552.007 571.983C551.804 571.769 551.703 571.503 551.703 571.186ZM558.88 571.342V573.621H560.536V575.181H558.88V580.417C558.88 580.775 558.95 581.035 559.088 581.197C559.233 581.353 559.487 581.431 559.851 581.431C560.094 581.431 560.339 581.402 560.588 581.344V582.974C560.108 583.107 559.646 583.173 559.201 583.173C557.583 583.173 556.774 582.281 556.774 580.495V575.181H555.231V573.621H556.774V571.342H558.88ZM564.228 574.644C564.916 573.847 565.786 573.448 566.837 573.448C568.837 573.448 569.851 574.589 569.88 576.872V583H567.774V576.95C567.774 576.303 567.632 575.846 567.349 575.58C567.071 575.309 566.661 575.173 566.118 575.173C565.274 575.173 564.644 575.548 564.228 576.3V583H562.122V569.686H564.228V574.644ZM571.622 578.241C571.622 576.797 571.957 575.638 572.628 574.765C573.298 573.887 574.197 573.448 575.323 573.448C576.317 573.448 577.121 573.795 577.733 574.488V569.686H579.839V583H577.932L577.828 582.029C577.199 582.792 576.358 583.173 575.306 583.173C574.208 583.173 573.318 582.731 572.636 581.847C571.96 580.963 571.622 579.761 571.622 578.241ZM573.728 578.423C573.728 579.377 573.911 580.122 574.275 580.66C574.644 581.191 575.167 581.457 575.843 581.457C576.704 581.457 577.334 581.073 577.733 580.304V576.3C577.346 575.548 576.722 575.173 575.861 575.173C575.179 575.173 574.653 575.444 574.283 575.988C573.913 576.525 573.728 577.337 573.728 578.423ZM586.947 575.546C586.67 575.499 586.384 575.476 586.089 575.476C585.124 575.476 584.474 575.846 584.139 576.586V583H582.032V573.621H584.043L584.095 574.67C584.604 573.855 585.309 573.448 586.21 573.448C586.511 573.448 586.759 573.488 586.956 573.569L586.947 575.546ZM593.621 583C593.529 582.821 593.448 582.529 593.379 582.125C592.708 582.824 591.888 583.173 590.917 583.173C589.975 583.173 589.207 582.905 588.611 582.367C588.016 581.83 587.719 581.165 587.719 580.374C587.719 579.374 588.088 578.608 588.828 578.077C589.574 577.539 590.637 577.27 592.018 577.27H593.309V576.655C593.309 576.17 593.174 575.782 592.902 575.494C592.63 575.199 592.217 575.051 591.663 575.051C591.183 575.051 590.79 575.173 590.484 575.416C590.177 575.652 590.024 575.956 590.024 576.326H587.918C587.918 575.811 588.088 575.332 588.429 574.887C588.77 574.436 589.233 574.084 589.816 573.829C590.406 573.575 591.062 573.448 591.784 573.448C592.882 573.448 593.757 573.725 594.41 574.28C595.063 574.829 595.398 575.603 595.416 576.603V580.833C595.416 581.677 595.534 582.35 595.771 582.853V583H593.621ZM591.307 581.483C591.723 581.483 592.113 581.382 592.477 581.18C592.847 580.977 593.125 580.706 593.309 580.365V578.597H592.174C591.394 578.597 590.807 578.732 590.414 579.004C590.021 579.276 589.825 579.66 589.825 580.157C589.825 580.561 589.958 580.885 590.224 581.128C590.495 581.365 590.856 581.483 591.307 581.483ZM605.861 580.096L607.352 573.621H609.406L606.849 583H605.115L603.104 576.56L601.128 583H599.394L596.829 573.621H598.883L600.4 580.027L602.324 573.621H603.91L605.861 580.096ZM616.418 583C616.326 582.821 616.245 582.529 616.176 582.125C615.505 582.824 614.685 583.173 613.714 583.173C612.772 583.173 612.003 582.905 611.408 582.367C610.813 581.83 610.515 581.165 610.515 580.374C610.515 579.374 610.885 578.608 611.625 578.077C612.37 577.539 613.434 577.27 614.815 577.27H616.106V576.655C616.106 576.17 615.97 575.782 615.699 575.494C615.427 575.199 615.014 575.051 614.459 575.051C613.98 575.051 613.587 575.173 613.28 575.416C612.974 575.652 612.821 575.956 612.821 576.326H610.715C610.715 575.811 610.885 575.332 611.226 574.887C611.567 574.436 612.029 574.084 612.613 573.829C613.202 573.575 613.858 573.448 614.581 573.448C615.679 573.448 616.554 573.725 617.207 574.28C617.86 574.829 618.195 575.603 618.213 576.603V580.833C618.213 581.677 618.331 582.35 618.568 582.853V583H616.418ZM614.104 581.483C614.52 581.483 614.91 581.382 615.274 581.18C615.644 580.977 615.921 580.706 616.106 580.365V578.597H614.971C614.191 578.597 613.604 578.732 613.211 579.004C612.818 579.276 612.622 579.66 612.622 580.157C612.622 580.561 612.755 580.885 613.02 581.128C613.292 581.365 613.653 581.483 614.104 581.483ZM622.659 583H620.553V569.686H622.659V583ZM630.218 580.452C630.218 580.076 630.062 579.79 629.75 579.593C629.443 579.397 628.932 579.224 628.215 579.073C627.499 578.923 626.901 578.732 626.421 578.501C625.369 577.993 624.843 577.256 624.843 576.291C624.843 575.482 625.184 574.806 625.866 574.263C626.548 573.719 627.415 573.448 628.467 573.448C629.588 573.448 630.492 573.725 631.18 574.28C631.873 574.835 632.22 575.554 632.22 576.438H630.114C630.114 576.034 629.963 575.699 629.663 575.433C629.362 575.161 628.964 575.025 628.467 575.025C628.004 575.025 627.626 575.132 627.331 575.346C627.042 575.56 626.898 575.846 626.898 576.204C626.898 576.528 627.034 576.779 627.305 576.958C627.577 577.138 628.126 577.32 628.952 577.505C629.778 577.684 630.426 577.9 630.894 578.155C631.368 578.403 631.717 578.704 631.943 579.056C632.174 579.409 632.289 579.836 632.289 580.339C632.289 581.183 631.94 581.867 631.24 582.393C630.541 582.913 629.625 583.173 628.493 583.173C627.724 583.173 627.039 583.035 626.438 582.757C625.837 582.48 625.369 582.099 625.034 581.613C624.699 581.128 624.531 580.605 624.531 580.044H626.577C626.606 580.541 626.794 580.925 627.141 581.197C627.487 581.463 627.947 581.596 628.519 581.596C629.073 581.596 629.495 581.492 629.784 581.284C630.073 581.07 630.218 580.793 630.218 580.452Z" fill="#425F9A"/>
<rect x="369.5" y="140.5" width="176" height="47" rx="3.5" fill="white" stroke="#7E97C9" stroke-width="3"/>
<path d="M414.92 166.137H412.476V171H410.283V158.379H414.721C416.177 158.379 417.301 158.706 418.093 159.359C418.884 160.012 419.28 160.957 419.28 162.193C419.28 163.037 419.075 163.745 418.665 164.317C418.26 164.883 417.694 165.32 416.966 165.626L419.8 170.887V171H417.451L414.92 166.137ZM412.476 164.378H414.73C415.469 164.378 416.047 164.193 416.463 163.823C416.879 163.447 417.087 162.936 417.087 162.289C417.087 161.613 416.894 161.09 416.506 160.72C416.125 160.35 415.553 160.159 414.79 160.148H412.476V164.378ZM425.287 171.173C423.952 171.173 422.869 170.754 422.037 169.917C421.21 169.073 420.797 167.952 420.797 166.553V166.293C420.797 165.357 420.976 164.522 421.335 163.788C421.699 163.049 422.207 162.474 422.86 162.063C423.513 161.653 424.241 161.448 425.044 161.448C426.321 161.448 427.307 161.855 428 162.67C428.699 163.485 429.049 164.638 429.049 166.129V166.978H422.921C422.984 167.752 423.241 168.365 423.692 168.816C424.149 169.266 424.721 169.492 425.408 169.492C426.373 169.492 427.159 169.102 427.766 168.322L428.902 169.405C428.526 169.966 428.023 170.402 427.393 170.714C426.769 171.02 426.067 171.173 425.287 171.173ZM425.036 163.138C424.458 163.138 423.99 163.34 423.632 163.745C423.279 164.149 423.054 164.713 422.955 165.435H426.969V165.279C426.922 164.574 426.735 164.043 426.405 163.684C426.076 163.32 425.619 163.138 425.036 163.138ZM430.323 166.241C430.323 164.785 430.664 163.624 431.346 162.757C432.034 161.884 432.944 161.448 434.076 161.448C435.145 161.448 435.986 161.821 436.599 162.566L436.694 161.621H438.592V170.714C438.592 171.945 438.208 172.916 437.44 173.626C436.677 174.337 435.645 174.693 434.345 174.693C433.657 174.693 432.984 174.548 432.326 174.259C431.673 173.976 431.176 173.603 430.835 173.141L431.831 171.875C432.479 172.644 433.276 173.028 434.224 173.028C434.923 173.028 435.475 172.838 435.879 172.456C436.284 172.081 436.486 171.526 436.486 170.792V170.159C435.879 170.835 435.07 171.173 434.059 171.173C432.961 171.173 432.063 170.737 431.363 169.864C430.67 168.992 430.323 167.784 430.323 166.241ZM432.421 166.423C432.421 167.365 432.612 168.108 432.993 168.651C433.38 169.188 433.915 169.457 434.597 169.457C435.446 169.457 436.076 169.093 436.486 168.365V164.239C436.087 163.528 435.463 163.173 434.614 163.173C433.92 163.173 433.38 163.447 432.993 163.996C432.612 164.545 432.421 165.354 432.421 166.423ZM443.004 171H440.898V161.621H443.004V171ZM440.768 159.186C440.768 158.862 440.869 158.593 441.071 158.379C441.28 158.166 441.574 158.059 441.956 158.059C442.337 158.059 442.632 158.166 442.84 158.379C443.048 158.593 443.152 158.862 443.152 159.186C443.152 159.503 443.048 159.769 442.84 159.983C442.632 160.191 442.337 160.295 441.956 160.295C441.574 160.295 441.28 160.191 441.071 159.983C440.869 159.769 440.768 159.503 440.768 159.186ZM450.563 168.452C450.563 168.076 450.407 167.79 450.095 167.593C449.789 167.397 449.277 167.224 448.561 167.073C447.844 166.923 447.246 166.732 446.766 166.501C445.715 165.993 445.189 165.256 445.189 164.291C445.189 163.482 445.53 162.806 446.212 162.263C446.893 161.719 447.76 161.448 448.812 161.448C449.933 161.448 450.837 161.725 451.525 162.28C452.218 162.835 452.565 163.554 452.565 164.438H450.459C450.459 164.034 450.309 163.699 450.008 163.433C449.708 163.161 449.309 163.025 448.812 163.025C448.35 163.025 447.971 163.132 447.676 163.346C447.388 163.56 447.243 163.846 447.243 164.204C447.243 164.528 447.379 164.779 447.65 164.958C447.922 165.138 448.471 165.32 449.297 165.505C450.124 165.684 450.771 165.9 451.239 166.155C451.713 166.403 452.062 166.704 452.288 167.056C452.519 167.409 452.635 167.836 452.635 168.339C452.635 169.183 452.285 169.867 451.586 170.393C450.887 170.913 449.971 171.173 448.838 171.173C448.069 171.173 447.385 171.035 446.784 170.757C446.183 170.48 445.715 170.099 445.379 169.613C445.044 169.128 444.877 168.605 444.877 168.044H446.922C446.951 168.541 447.139 168.925 447.486 169.197C447.833 169.463 448.292 169.596 448.864 169.596C449.419 169.596 449.841 169.492 450.13 169.284C450.418 169.07 450.563 168.793 450.563 168.452ZM457.116 159.342V161.621H458.771V163.181H457.116V168.417C457.116 168.775 457.185 169.035 457.324 169.197C457.468 169.353 457.723 169.431 458.087 169.431C458.329 169.431 458.575 169.402 458.823 169.344V170.974C458.344 171.107 457.882 171.173 457.437 171.173C455.819 171.173 455.01 170.281 455.01 168.495V163.181H453.467V161.621H455.01V159.342H457.116ZM465.298 163.546C465.021 163.499 464.735 163.476 464.44 163.476C463.475 163.476 462.825 163.846 462.49 164.586V171H460.384V161.621H462.395L462.447 162.67C462.955 161.855 463.66 161.448 464.562 161.448C464.862 161.448 465.111 161.488 465.307 161.569L465.298 163.546ZM471.973 171C471.88 170.821 471.799 170.529 471.73 170.125C471.06 170.824 470.239 171.173 469.268 171.173C468.326 171.173 467.558 170.905 466.963 170.367C466.368 169.83 466.07 169.165 466.07 168.374C466.07 167.374 466.44 166.608 467.179 166.077C467.925 165.539 468.988 165.27 470.369 165.27H471.661V164.655C471.661 164.17 471.525 163.782 471.253 163.494C470.982 163.199 470.569 163.051 470.014 163.051C469.534 163.051 469.141 163.173 468.835 163.416C468.529 163.652 468.376 163.956 468.376 164.326H466.269C466.269 163.811 466.44 163.332 466.781 162.887C467.122 162.436 467.584 162.084 468.168 161.829C468.757 161.575 469.413 161.448 470.135 161.448C471.233 161.448 472.109 161.725 472.762 162.28C473.415 162.829 473.75 163.603 473.767 164.603V168.833C473.767 169.677 473.886 170.35 474.122 170.853V171H471.973ZM469.658 169.483C470.075 169.483 470.465 169.382 470.829 169.18C471.198 168.977 471.476 168.706 471.661 168.365V166.597H470.525C469.745 166.597 469.159 166.732 468.766 167.004C468.373 167.276 468.176 167.66 468.176 168.157C468.176 168.561 468.309 168.885 468.575 169.128C468.847 169.365 469.208 169.483 469.658 169.483ZM478.612 159.342V161.621H480.268V163.181H478.612V168.417C478.612 168.775 478.682 169.035 478.82 169.197C478.965 169.353 479.219 169.431 479.583 169.431C479.826 169.431 480.072 169.402 480.32 169.344V170.974C479.84 171.107 479.378 171.173 478.933 171.173C477.315 171.173 476.506 170.281 476.506 168.495V163.181H474.963V161.621H476.506V159.342H478.612ZM484.125 171H482.019V161.621H484.125V171ZM481.889 159.186C481.889 158.862 481.99 158.593 482.192 158.379C482.4 158.166 482.695 158.059 483.076 158.059C483.458 158.059 483.753 158.166 483.961 158.379C484.169 158.593 484.273 158.862 484.273 159.186C484.273 159.503 484.169 159.769 483.961 159.983C483.753 160.191 483.458 160.295 483.076 160.295C482.695 160.295 482.4 160.191 482.192 159.983C481.99 159.769 481.889 159.503 481.889 159.186ZM486.032 166.224C486.032 165.305 486.214 164.479 486.578 163.745C486.942 163.005 487.454 162.439 488.113 162.046C488.771 161.647 489.528 161.448 490.384 161.448C491.649 161.448 492.675 161.855 493.461 162.67C494.252 163.485 494.68 164.565 494.744 165.912L494.752 166.406C494.752 167.331 494.573 168.157 494.215 168.885C493.862 169.613 493.354 170.177 492.689 170.575C492.03 170.974 491.268 171.173 490.401 171.173C489.078 171.173 488.017 170.734 487.22 169.856C486.428 168.972 486.032 167.796 486.032 166.328V166.224ZM488.139 166.406C488.139 167.371 488.338 168.128 488.737 168.677C489.135 169.22 489.69 169.492 490.401 169.492C491.112 169.492 491.664 169.214 492.056 168.66C492.455 168.105 492.655 167.293 492.655 166.224C492.655 165.276 492.449 164.525 492.039 163.97C491.635 163.416 491.083 163.138 490.384 163.138C489.696 163.138 489.15 163.413 488.745 163.962C488.341 164.505 488.139 165.32 488.139 166.406ZM498.488 161.621L498.549 162.705C499.242 161.867 500.152 161.448 501.279 161.448C503.232 161.448 504.226 162.566 504.261 164.802V171H502.155V164.924C502.155 164.329 502.025 163.889 501.765 163.606C501.51 163.317 501.091 163.173 500.508 163.173C499.658 163.173 499.026 163.557 498.609 164.326V171H496.503V161.621H498.488Z" fill="#425F9A"/>
<rect x="726.5" y="147.5" width="97" height="47" rx="3.5" fill="white" stroke="#7E97C9" stroke-width="3"/>
<path d="M762.906 172.548L761.476 174.065V178H759.283V165.379H761.476V171.3L762.689 169.8L766.382 165.379H769.034L764.345 170.97L769.303 178H766.703L762.906 172.548ZM774.599 171.36L777.503 165.379H779.93L775.7 173.354V178H773.498V173.354L769.26 165.379H771.695L774.599 171.36ZM790.67 173.891C790.542 175.238 790.045 176.29 789.179 177.047C788.312 177.798 787.159 178.173 785.72 178.173C784.715 178.173 783.828 177.936 783.059 177.463C782.296 176.983 781.707 176.304 781.291 175.426C780.875 174.547 780.658 173.527 780.641 172.366V171.187C780.641 169.997 780.852 168.948 781.273 168.041C781.695 167.133 782.299 166.434 783.085 165.943C783.877 165.452 784.79 165.206 785.824 165.206C787.217 165.206 788.338 165.585 789.187 166.342C790.037 167.099 790.531 168.168 790.67 169.549H788.485C788.381 168.641 788.115 167.988 787.688 167.59C787.266 167.185 786.645 166.983 785.824 166.983C784.871 166.983 784.137 167.333 783.623 168.032C783.114 168.725 782.854 169.745 782.842 171.092V172.21C782.842 173.574 783.085 174.614 783.571 175.33C784.062 176.047 784.778 176.405 785.72 176.405C786.581 176.405 787.228 176.212 787.662 175.824C788.095 175.437 788.37 174.793 788.485 173.891H790.67Z" fill="#425F9A"/>
<rect x="761.5" y="406.5" width="141" height="47" rx="3.5" fill="white" stroke="#7E97C9" stroke-width="3"/>
<path d="M797.283 437V424.379H801.01C802.125 424.379 803.114 424.628 803.975 425.125C804.841 425.622 805.512 426.327 805.986 427.24C806.459 428.153 806.696 429.199 806.696 430.378V431.01C806.696 432.207 806.456 433.258 805.977 434.166C805.503 435.073 804.824 435.772 803.94 436.263C803.062 436.754 802.053 437 800.915 437H797.283ZM799.476 426.148V435.249H800.906C802.056 435.249 802.937 434.891 803.55 434.174C804.168 433.452 804.483 432.418 804.495 431.071V430.369C804.495 428.999 804.197 427.954 803.602 427.231C803.007 426.509 802.143 426.148 801.01 426.148H799.476ZM812.807 437.173C811.472 437.173 810.389 436.754 809.557 435.917C808.73 435.073 808.317 433.952 808.317 432.553V432.293C808.317 431.357 808.496 430.522 808.855 429.788C809.219 429.049 809.727 428.474 810.38 428.063C811.033 427.653 811.761 427.448 812.564 427.448C813.842 427.448 814.827 427.855 815.52 428.67C816.219 429.485 816.569 430.638 816.569 432.129V432.978H810.441C810.504 433.752 810.762 434.365 811.212 434.816C811.669 435.266 812.241 435.492 812.929 435.492C813.894 435.492 814.679 435.102 815.286 434.322L816.422 435.405C816.046 435.966 815.543 436.402 814.914 436.714C814.289 437.02 813.587 437.173 812.807 437.173ZM812.556 429.138C811.978 429.138 811.51 429.34 811.152 429.745C810.799 430.149 810.574 430.713 810.476 431.435H814.489V431.279C814.443 430.574 814.255 430.043 813.925 429.684C813.596 429.32 813.139 429.138 812.556 429.138ZM826.425 432.406C826.425 433.856 826.095 435.015 825.436 435.882C824.778 436.743 823.894 437.173 822.784 437.173C821.755 437.173 820.932 436.835 820.314 436.159V440.606H818.207V427.621H820.149L820.236 428.575C820.854 427.824 821.695 427.448 822.758 427.448C823.902 427.448 824.798 427.876 825.445 428.731C826.098 429.58 826.425 430.762 826.425 432.276V432.406ZM824.327 432.224C824.327 431.288 824.139 430.545 823.764 429.996C823.394 429.447 822.862 429.173 822.169 429.173C821.308 429.173 820.689 429.528 820.314 430.239V434.4C820.695 435.128 821.319 435.492 822.186 435.492C822.856 435.492 823.379 435.223 823.755 434.686C824.136 434.142 824.327 433.322 824.327 432.224ZM827.82 432.224C827.82 431.305 828.002 430.479 828.366 429.745C828.73 429.005 829.242 428.439 829.9 428.046C830.559 427.647 831.316 427.448 832.171 427.448C833.437 427.448 834.463 427.855 835.249 428.67C836.04 429.485 836.468 430.565 836.531 431.912L836.54 432.406C836.54 433.331 836.361 434.157 836.003 434.885C835.65 435.613 835.142 436.177 834.477 436.575C833.818 436.974 833.056 437.173 832.189 437.173C830.865 437.173 829.805 436.734 829.008 435.856C828.216 434.972 827.82 433.796 827.82 432.328V432.224ZM829.926 432.406C829.926 433.371 830.126 434.128 830.525 434.677C830.923 435.22 831.478 435.492 832.189 435.492C832.9 435.492 833.451 435.214 833.844 434.66C834.243 434.105 834.442 433.293 834.442 432.224C834.442 431.276 834.237 430.525 833.827 429.97C833.423 429.416 832.871 429.138 832.171 429.138C831.484 429.138 830.938 429.413 830.533 429.962C830.129 430.505 829.926 431.32 829.926 432.406ZM843.578 434.452C843.578 434.076 843.422 433.79 843.11 433.593C842.804 433.397 842.293 433.224 841.576 433.073C840.86 432.923 840.262 432.732 839.782 432.501C838.73 431.993 838.204 431.256 838.204 430.291C838.204 429.482 838.545 428.806 839.227 428.263C839.909 427.719 840.776 427.448 841.828 427.448C842.949 427.448 843.853 427.725 844.541 428.28C845.234 428.835 845.581 429.554 845.581 430.438H843.474C843.474 430.034 843.324 429.699 843.024 429.433C842.723 429.161 842.325 429.025 841.828 429.025C841.365 429.025 840.987 429.132 840.692 429.346C840.403 429.56 840.259 429.846 840.259 430.204C840.259 430.528 840.394 430.779 840.666 430.958C840.938 431.138 841.487 431.32 842.313 431.505C843.139 431.684 843.787 431.9 844.255 432.155C844.728 432.403 845.078 432.704 845.303 433.056C845.535 433.409 845.65 433.836 845.65 434.339C845.65 435.183 845.301 435.867 844.601 436.393C843.902 436.913 842.986 437.173 841.854 437.173C841.085 437.173 840.4 437.035 839.799 436.757C839.198 436.48 838.73 436.099 838.395 435.613C838.06 435.128 837.892 434.605 837.892 434.044H839.938C839.967 434.541 840.155 434.925 840.501 435.197C840.848 435.463 841.307 435.596 841.88 435.596C842.434 435.596 842.856 435.492 843.145 435.284C843.434 435.07 843.578 434.793 843.578 434.452ZM849.733 437H847.626V427.621H849.733V437ZM847.496 425.186C847.496 424.862 847.598 424.593 847.8 424.379C848.008 424.166 848.303 424.059 848.684 424.059C849.065 424.059 849.36 424.166 849.568 424.379C849.776 424.593 849.88 424.862 849.88 425.186C849.88 425.503 849.776 425.769 849.568 425.983C849.36 426.191 849.065 426.295 848.684 426.295C848.303 426.295 848.008 426.191 847.8 425.983C847.598 425.769 847.496 425.503 847.496 425.186ZM854.673 425.342V427.621H856.329V429.181H854.673V434.417C854.673 434.775 854.743 435.035 854.882 435.197C855.026 435.353 855.28 435.431 855.644 435.431C855.887 435.431 856.133 435.402 856.381 435.344V436.974C855.901 437.107 855.439 437.173 854.994 437.173C853.376 437.173 852.567 436.281 852.567 434.495V429.181H851.024V427.621H852.567V425.342H854.673ZM863.203 434.452C863.203 434.076 863.047 433.79 862.735 433.593C862.428 433.397 861.917 433.224 861.2 433.073C860.484 432.923 859.886 432.732 859.406 432.501C858.354 431.993 857.829 431.256 857.829 430.291C857.829 429.482 858.17 428.806 858.851 428.263C859.533 427.719 860.4 427.448 861.452 427.448C862.573 427.448 863.477 427.725 864.165 428.28C864.858 428.835 865.205 429.554 865.205 430.438H863.099C863.099 430.034 862.949 429.699 862.648 429.433C862.348 429.161 861.949 429.025 861.452 429.025C860.99 429.025 860.611 429.132 860.316 429.346C860.027 429.56 859.883 429.846 859.883 430.204C859.883 430.528 860.019 430.779 860.29 430.958C860.562 431.138 861.111 431.32 861.937 431.505C862.764 431.684 863.411 431.9 863.879 432.155C864.353 432.403 864.702 432.704 864.928 433.056C865.159 433.409 865.274 433.836 865.274 434.339C865.274 435.183 864.925 435.867 864.226 436.393C863.526 436.913 862.61 437.173 861.478 437.173C860.709 437.173 860.025 437.035 859.424 436.757C858.823 436.48 858.354 436.099 858.019 435.613C857.684 435.128 857.517 434.605 857.517 434.044H859.562C859.591 434.541 859.779 434.925 860.126 435.197C860.472 435.463 860.932 435.596 861.504 435.596C862.059 435.596 862.48 435.492 862.769 435.284C863.058 435.07 863.203 434.793 863.203 434.452Z" fill="#425F9A"/>
<rect x="316.5" y="382.5" width="135" height="47" rx="3.5" fill="white" stroke="#7E97C9" stroke-width="3"/>
<path d="M351.92 408.137H349.476V413H347.283V400.379H351.721C353.177 400.379 354.301 400.706 355.093 401.359C355.884 402.012 356.28 402.957 356.28 404.193C356.28 405.037 356.075 405.745 355.665 406.317C355.26 406.883 354.694 407.32 353.966 407.626L356.8 412.887V413H354.451L351.92 408.137ZM349.476 406.378H351.73C352.469 406.378 353.047 406.193 353.463 405.823C353.879 405.447 354.087 404.936 354.087 404.289C354.087 403.613 353.894 403.09 353.506 402.72C353.125 402.35 352.553 402.159 351.79 402.148H349.476V406.378ZM362.287 413.173C360.952 413.173 359.869 412.754 359.037 411.917C358.21 411.073 357.797 409.952 357.797 408.553V408.293C357.797 407.357 357.976 406.522 358.335 405.788C358.699 405.049 359.207 404.474 359.86 404.063C360.513 403.653 361.241 403.448 362.044 403.448C363.321 403.448 364.307 403.855 365 404.67C365.699 405.485 366.049 406.638 366.049 408.129V408.978H359.921C359.984 409.752 360.241 410.365 360.692 410.816C361.149 411.266 361.721 411.492 362.408 411.492C363.373 411.492 364.159 411.102 364.766 410.322L365.902 411.405C365.526 411.966 365.023 412.402 364.393 412.714C363.769 413.02 363.067 413.173 362.287 413.173ZM362.036 405.138C361.458 405.138 360.99 405.34 360.632 405.745C360.279 406.149 360.054 406.713 359.955 407.435H363.969V407.279C363.922 406.574 363.735 406.043 363.405 405.684C363.076 405.32 362.619 405.138 362.036 405.138ZM370.331 401.342V403.621H371.987V405.181H370.331V410.417C370.331 410.775 370.4 411.035 370.539 411.197C370.683 411.353 370.938 411.431 371.302 411.431C371.545 411.431 371.79 411.402 372.039 411.344V412.974C371.559 413.107 371.097 413.173 370.652 413.173C369.034 413.173 368.225 412.281 368.225 410.495V405.181H366.682V403.621H368.225V401.342H370.331ZM377.733 413.173C376.399 413.173 375.315 412.754 374.483 411.917C373.657 411.073 373.243 409.952 373.243 408.553V408.293C373.243 407.357 373.423 406.522 373.781 405.788C374.145 405.049 374.653 404.474 375.306 404.063C375.959 403.653 376.687 403.448 377.491 403.448C378.768 403.448 379.753 403.855 380.447 404.67C381.146 405.485 381.495 406.638 381.495 408.129V408.978H375.367C375.431 409.752 375.688 410.365 376.139 410.816C376.595 411.266 377.167 411.492 377.855 411.492C378.82 411.492 379.606 411.102 380.212 410.322L381.348 411.405C380.972 411.966 380.47 412.402 379.84 412.714C379.216 413.02 378.514 413.173 377.733 413.173ZM377.482 405.138C376.904 405.138 376.436 405.34 376.078 405.745C375.725 406.149 375.5 406.713 375.402 407.435H379.415V407.279C379.369 406.574 379.181 406.043 378.852 405.684C378.522 405.32 378.066 405.138 377.482 405.138ZM385.093 403.621L385.153 404.705C385.847 403.867 386.757 403.448 387.884 403.448C389.837 403.448 390.831 404.566 390.865 406.802V413H388.759V406.924C388.759 406.329 388.629 405.889 388.369 405.606C388.115 405.317 387.696 405.173 387.112 405.173C386.263 405.173 385.63 405.557 385.214 406.326V413H383.108V403.621H385.093ZM395.659 401.342V403.621H397.314V405.181H395.659V410.417C395.659 410.775 395.728 411.035 395.867 411.197C396.011 411.353 396.266 411.431 396.63 411.431C396.872 411.431 397.118 411.402 397.366 411.344V412.974C396.887 413.107 396.424 413.173 395.98 413.173C394.361 413.173 393.552 412.281 393.552 410.495V405.181H392.01V403.621H393.552V401.342H395.659ZM401.172 413H399.065V403.621H401.172V413ZM398.935 401.186C398.935 400.862 399.036 400.593 399.239 400.379C399.447 400.166 399.741 400.059 400.123 400.059C400.504 400.059 400.799 400.166 401.007 400.379C401.215 400.593 401.319 400.862 401.319 401.186C401.319 401.503 401.215 401.769 401.007 401.983C400.799 402.191 400.504 402.295 400.123 402.295C399.741 402.295 399.447 402.191 399.239 401.983C399.036 401.769 398.935 401.503 398.935 401.186ZM403.079 408.224C403.079 407.305 403.261 406.479 403.625 405.745C403.989 405.005 404.5 404.439 405.159 404.046C405.818 403.647 406.575 403.448 407.43 403.448C408.695 403.448 409.721 403.855 410.507 404.67C411.299 405.485 411.726 406.565 411.79 407.912L411.799 408.406C411.799 409.331 411.619 410.157 411.261 410.885C410.909 411.613 410.4 412.177 409.736 412.575C409.077 412.974 408.314 413.173 407.447 413.173C406.124 413.173 405.064 412.734 404.266 411.856C403.474 410.972 403.079 409.796 403.079 408.328V408.224ZM405.185 408.406C405.185 409.371 405.384 410.128 405.783 410.677C406.182 411.22 406.736 411.492 407.447 411.492C408.158 411.492 408.71 411.214 409.103 410.66C409.502 410.105 409.701 409.293 409.701 408.224C409.701 407.276 409.496 406.525 409.085 405.97C408.681 405.416 408.129 405.138 407.43 405.138C406.742 405.138 406.196 405.413 405.792 405.962C405.387 406.505 405.185 407.32 405.185 408.406ZM415.534 403.621L415.595 404.705C416.289 403.867 417.199 403.448 418.326 403.448C420.279 403.448 421.273 404.566 421.307 406.802V413H419.201V406.924C419.201 406.329 419.071 405.889 418.811 405.606C418.557 405.317 418.138 405.173 417.554 405.173C416.705 405.173 416.072 405.557 415.656 406.326V413H413.549V403.621H415.534Z" fill="#425F9A"/>
<defs>
<linearGradient id="paint0_linear" x1="196.593" y1="81.8862" x2="713.776" y2="81.8862" gradientUnits="userSpaceOnUse">
<stop stop-color="#821868"/>
<stop offset="1" stop-color="#A077EC"/>
</linearGradient>
<linearGradient id="paint1_linear" x1="326.972" y1="163.712" x2="676.864" y2="163.712" gradientUnits="userSpaceOnUse">
<stop stop-color="#821868"/>
<stop offset="1" stop-color="#A077EC"/>
</linearGradient>
</defs>
</svg>
