<svg width="1200" height="615" fill="none" xmlns="http://www.w3.org/2000/svg"><path d="M0 11C0 5 5 0 11 0h1178c6 0 11 5 11 11v593c0 6-5 11-11 11H11c-6 0-11-5-11-11V11z" fill="#F5F8FF"/><path fill-rule="evenodd" clip-rule="evenodd" d="M1189 3H11a8 8 0 00-8 8v593a8 8 0 008 8h1178a8 8 0 008-8V11a8 8 0 00-8-8zM11 0C5 0 0 5 0 11v593c0 6 5 11 11 11h1178c6 0 11-5 11-11V11c0-6-5-11-11-11H11z" fill="#7E97C9"/><path d="M223.7 460.2l4.1 10.4 4.2-10.4h2.2V473h-1.7v-5l.2-5.4-4.2 10.4h-1.3l-4.2-10.3.2 5.3v5h-1.7v-12.8h2.2zM242.8 473l-.2-1c-.8.8-1.7 1.2-2.7 1.2-1 0-1.7-.3-2.3-.8-.6-.5-1-1.2-1-2 0-1 .4-1.8 1.2-2.3.8-.6 1.8-.9 3.2-.9h1.6v-.7c0-.6-.2-1-.5-1.4-.4-.3-.9-.5-1.6-.5-.5 0-1 .2-1.4.5-.4.3-.6.6-.6 1h-1.6c0-.4.1-1 .5-1.3.3-.5.8-.8 1.3-1.1.6-.3 1.3-.4 2-.4 1 0 1.9.3 2.5.8a3 3 0 011 2.3v4.4c0 .8.1 1.5.3 2v.2h-1.7zm-2.7-1.2c.5 0 1-.2 1.5-.4.4-.3.8-.6 1-1v-2h-1.3c-2 0-3 .6-3 1.7 0 .5.2 1 .5 1.2.3.3.8.5 1.3.5zM248.3 463.5v1.2c.8-1 1.7-1.4 2.9-1.4 2 0 3 1.1 3 3.4v6.3h-1.6v-6.3c0-.7-.2-1.2-.5-1.5-.3-.3-.8-.5-1.4-.5-.5 0-1 .1-1.4.4l-1 1.1v6.8h-1.6v-9.5h1.6zM259.8 470.6l2.2-7.1h1.7l-3.8 11c-.6 1.6-1.5 2.3-2.8 2.3h-.3l-.6-.1v-1.3h.4c.6 0 1 0 1.3-.3.3-.2.6-.6.8-1.2l.3-1-3.4-9.4h1.8l2.4 7.1zM269.2 468.2c0-1 .2-1.8.6-2.6.3-.7.9-1.3 1.5-1.7.7-.4 1.4-.6 2.2-.6a4 4 0 013.2 1.4c.8.9 1.2 2 1.2 3.5v.2c0 .9-.2 1.7-.6 2.4a4 4 0 01-3.7 2.4 4 4 0 01-3.2-1.4c-.8-.9-1.2-2-1.2-3.5v-.1zm1.7.2c0 1 .2 1.9.7 2.5.5.6 1.1 1 2 1 .8 0 1.4-.4 2-1 .4-.7.7-1.6.7-2.7a4 4 0 00-.8-2.6c-.5-.6-1.1-1-2-1-.8 0-1.4.4-1.9 1s-.7 1.6-.7 2.8zM282.1 461.2v2.3h1.8v1.2h-1.8v6c0 .3.1.6.3.8.1.2.4.3.8.3l.7-.1v1.3l-1.2.2c-.7 0-1.3-.2-1.6-.7-.4-.4-.6-1-.6-1.9v-5.9h-1.7v-1.2h1.7v-2.3h1.6zM287.4 464.6c.8-.8 1.7-1.3 2.9-1.3 2 0 3 1.1 3 3.4v6.3h-1.6v-6.3c0-.7-.2-1.2-.5-1.5-.3-.3-.8-.5-1.4-.5-.6 0-1 .1-1.4.4l-1 1.1v6.8h-1.6v-13.5h1.6v5.1zM299.7 473.2c-1.3 0-2.4-.4-3.2-1.3-.8-.8-1.2-2-1.2-3.4v-.3c0-1 .2-1.8.6-2.5.3-.8.8-1.3 1.5-1.8.6-.4 1.3-.6 2-.6 1.3 0 2.3.4 3 1.2.6.9 1 2 1 3.5v.7h-6.5c0 1 .3 1.7.9 2.3.5.6 1.2.8 2 .8.5 0 1 0 1.4-.3.4-.2.8-.5 1-1l1 .8a4 4 0 01-3.5 1.9zm-.2-8.6c-.7 0-1.2.3-1.7.8-.4.4-.7 1.1-.8 2h4.8v-.1a3 3 0 00-.7-2 2 2 0 00-1.6-.7zM309.9 465l-.8-.1c-1.1 0-1.8.4-2.2 1.4v6.7h-1.6v-9.5h1.6v1c.5-.8 1.3-1.2 2.2-1.2l.8.1v1.5zM323.2 469.7h-5.4l-1.2 3.3h-1.7l4.8-12.8h1.5l5 12.8h-1.8l-1.2-3.3zm-4.9-1.4h4.4l-2.2-6-2.2 6zM329.3 473h-1.6v-13.5h1.6V473zM333.7 473h-1.6v-13.5h1.6V473zM335.9 468.2c0-1 .2-1.8.5-2.6.4-.7 1-1.3 1.6-1.7.6-.4 1.4-.6 2.2-.6a4 4 0 013.2 1.4c.8.9 1.2 2 1.2 3.5v.2c0 .9-.2 1.7-.6 2.4a4 4 0 01-3.8 2.4 4 4 0 01-3.1-1.4c-.8-.9-1.2-2-1.2-3.5v-.1zm1.6.2c0 1 .3 1.9.8 2.5.5.6 1.1 1 2 1 .8 0 1.4-.4 1.9-1 .5-.7.7-1.6.7-2.7a4 4 0 00-.7-2.6c-.5-.6-1.2-1-2-1s-1.4.4-2 1c-.4.6-.7 1.6-.7 2.8zM350.4 471.8c.6 0 1.1-.1 1.5-.5.5-.3.7-.8.8-1.3h1.5c0 .5-.2 1-.6 1.6-.3.5-.8.8-1.4 1.1a4 4 0 01-1.8.5 4 4 0 01-3-1.3c-.8-.9-1.2-2-1.2-3.6v-.2c0-1 .1-1.8.5-2.5a3.9 3.9 0 013.7-2.3c1 0 2 .3 2.7 1 .7.6 1 1.4 1 2.5h-1.4a2.2 2.2 0 00-2.3-2.2c-.8 0-1.5.3-2 1-.4.5-.6 1.4-.6 2.5v.3c0 1.1.2 2 .7 2.6.4.6 1 .8 2 .8zM361.9 473l-.2-1c-.8.8-1.7 1.2-2.7 1.2-1 0-1.8-.3-2.4-.8-.6-.5-.9-1.2-.9-2 0-1 .4-1.8 1.2-2.3.7-.6 1.8-.9 3.2-.9h1.5v-.7c0-.6-.1-1-.5-1.4-.3-.3-.8-.5-1.5-.5-.6 0-1 .2-1.4.5-.4.3-.6.6-.6 1h-1.7c0-.4.2-1 .5-1.3.4-.5.8-.8 1.4-1.1.6-.3 1.2-.4 2-.4 1 0 1.9.3 2.5.8a3 3 0 011 2.3v4.4c0 .8 0 1.5.3 2v.2h-1.7zm-2.7-1.2c.5 0 1-.2 1.4-.4.5-.3.8-.6 1-1v-2h-1.2c-2 0-3 .6-3 1.7 0 .5.1 1 .5 1.2.3.3.8.5 1.3.5zM368 461.2v2.3h1.8v1.2H368v6c0 .3.1.6.3.8.1.2.4.3.8.3l.7-.1v1.3l-1.2.2c-.7 0-1.3-.2-1.7-.7-.3-.4-.5-1-.5-1.9v-5.9h-1.7v-1.2h1.7v-2.3h1.6zM373.5 473h-1.7v-9.5h1.7v9.5zm-1.8-12c0-.3 0-.5.2-.7.2-.2.5-.3.8-.3.3 0 .5.1.7.3.2.2.2.4.2.7 0 .2 0 .5-.2.6-.2.2-.4.3-.7.3-.3 0-.6-.1-.8-.3a1 1 0 01-.2-.6zM375.6 468.2c0-1 .2-1.8.6-2.6.4-.7.9-1.3 1.5-1.7.7-.4 1.4-.6 2.3-.6a4 4 0 013.1 1.4c.8.9 1.2 2 1.2 3.5v.2c0 .9-.2 1.7-.5 2.4a4 4 0 01-3.8 2.4 4 4 0 01-3.2-1.4c-.8-.9-1.2-2-1.2-3.5v-.1zm1.7.2c0 1 .2 1.9.7 2.5.5.6 1.2 1 2 1s1.5-.4 2-1c.4-.7.7-1.6.7-2.7a4 4 0 00-.8-2.6c-.5-.6-1.1-1-2-1-.7 0-1.4.4-1.9 1s-.7 1.6-.7 2.8zM387.9 463.5v1.2c.8-1 1.7-1.4 2.9-1.4 2 0 3 1.1 3 3.4v6.3h-1.6v-6.3c0-.7-.2-1.2-.5-1.5-.3-.3-.8-.5-1.4-.5-.5 0-1 .1-1.4.4l-1 1.1v6.8h-1.6v-9.5h1.6zM401.8 470.5c0-.5-.2-.8-.5-1-.3-.3-.9-.5-1.7-.7l-2-.6c-.5-.3-.8-.5-1-.9-.3-.3-.4-.7-.4-1.2 0-.8.3-1.4 1-2 .7-.5 1.5-.8 2.5-.8 1.1 0 2 .3 2.6.8.7.6 1 1.3 1 2.2h-1.6c0-.5-.2-.8-.6-1.2-.3-.3-.8-.5-1.4-.5-.6 0-1 .2-1.4.4-.3.3-.5.6-.5 1s.2.7.5 1l1.7.5 2 .7c.5.2.8.5 1 .9.3.3.4.8.4 1.3 0 .8-.3 1.5-1 2s-1.5.8-2.6.8c-.8 0-1.5-.2-2-.4-.6-.3-1.1-.7-1.4-1.2-.4-.4-.5-1-.5-1.5h1.6c0 .5.3 1 .7 1.3.4.3.9.4 1.6.4.6 0 1 0 1.4-.3.4-.3.6-.6.6-1zM415.9 473l-.2-1c-.8.8-1.7 1.2-2.7 1.2-1 0-1.8-.3-2.4-.8-.6-.5-.9-1.2-.9-2 0-1 .4-1.8 1.2-2.3.7-.6 1.8-.9 3.2-.9h1.5v-.7c0-.6-.1-1-.5-1.4-.3-.3-.8-.5-1.5-.5-.6 0-1 .2-1.4.5-.4.3-.6.6-.6 1h-1.7c0-.4.2-1 .5-1.3.4-.5.8-.8 1.4-1.1.6-.3 1.2-.4 2-.4 1 0 1.9.3 2.5.8a3 3 0 011 2.3v4.4c0 .8 0 1.5.3 2v.2h-1.7zm-2.7-1.2c.5 0 1-.2 1.4-.4.5-.3.8-.6 1-1v-2h-1.2c-2 0-3 .6-3 1.7 0 .5.1 1 .5 1.2.3.3.8.5 1.3.5zM424.4 465l-.8-.1c-1 0-1.8.4-2.2 1.4v6.7h-1.6v-9.5h1.6v1c.6-.8 1.3-1.2 2.3-1.2l.7.1v1.5zM429.7 473.2c-1.3 0-2.4-.4-3.2-1.3-.8-.8-1.2-2-1.2-3.4v-.3c0-1 .2-1.8.6-2.5.3-.8.8-1.3 1.5-1.8.6-.4 1.3-.6 2-.6 1.3 0 2.3.4 3 1.2.6.9 1 2 1 3.5v.7h-6.5c0 1 .3 1.7.9 2.3.5.6 1.2.8 2 .8.5 0 1 0 1.4-.3.4-.2.8-.5 1-1l1 .8a4 4 0 01-3.5 1.9zm-.2-8.6c-.7 0-1.2.3-1.7.8-.4.4-.7 1.1-.8 2h4.8v-.1a3 3 0 00-.7-2 2 2 0 00-1.6-.7zM445.6 473l-.2-1c-.8.8-1.7 1.2-2.7 1.2-1 0-1.7-.3-2.3-.8-.6-.5-1-1.2-1-2 0-1 .4-1.8 1.2-2.3.8-.6 1.8-.9 3.2-.9h1.6v-.7c0-.6-.2-1-.5-1.4-.4-.3-.9-.5-1.6-.5-.5 0-1 .2-1.4.5-.4.3-.6.6-.6 1h-1.6c0-.4.1-1 .5-1.3.3-.5.8-.8 1.3-1.1.6-.3 1.3-.4 2-.4 1 0 1.9.3 2.5.8a3 3 0 011 2.3v4.4c0 .8.1 1.5.3 2v.2h-1.7zm-2.7-1.2c.5 0 1-.2 1.5-.4.4-.3.8-.6 1-1v-2H444c-2 0-3 .6-3 1.7 0 .5.2 1 .5 1.2.3.3.8.5 1.3.5zM452.5 470.8l2.4-7.3h1.6l-3.4 9.5H452l-3.4-9.5h1.6l2.4 7.3zM463.8 473l-.2-1c-.7.8-1.6 1.2-2.7 1.2-1 0-1.7-.3-2.3-.8-.6-.5-.9-1.2-.9-2 0-1 .4-1.8 1.1-2.3.8-.6 1.8-.9 3.2-.9h1.6v-.7c0-.6-.2-1-.5-1.4-.4-.3-.9-.5-1.5-.5s-1 .2-1.5.5c-.4.3-.6.6-.6 1H458c0-.4.2-1 .5-1.3.3-.5.8-.8 1.4-1.1.5-.3 1.2-.4 1.9-.4 1 0 2 .3 2.5.8a3 3 0 011 2.3v4.4c0 .8.1 1.5.3 2v.2h-1.7zm-2.7-1.2c.6 0 1-.2 1.5-.4.5-.3.8-.6 1-1v-2h-1.3c-2 0-3 .6-3 1.7 0 .5.2 1 .5 1.2.4.3.8.5 1.3.5zM469.5 473H468v-9.5h1.6v9.5zm-1.7-12c0-.3 0-.5.2-.7.2-.2.4-.3.7-.3.3 0 .6.1.8.3l.2.7c0 .2 0 .5-.2.6-.2.2-.5.3-.8.3-.3 0-.5-.1-.7-.3a1 1 0 01-.2-.6zM474 473h-1.7v-13.5h1.6V473zM482.4 473l-.2-1c-.8.8-1.7 1.2-2.7 1.2-1 0-1.8-.3-2.4-.8-.6-.5-.9-1.2-.9-2 0-1 .4-1.8 1.2-2.3.7-.6 1.8-.9 3.2-.9h1.5v-.7c0-.6-.1-1-.5-1.4-.3-.3-.8-.5-1.5-.5-.6 0-1 .2-1.4.5-.4.3-.6.6-.6 1h-1.7c0-.4.2-1 .5-1.3.4-.5.8-.8 1.4-1.1.6-.3 1.2-.4 2-.4 1 0 1.9.3 2.5.8a3 3 0 011 2.3v4.4c0 .8 0 1.5.3 2v.2h-1.7zm-2.7-1.2c.5 0 1-.2 1.4-.4.5-.3.8-.6 1-1v-2H481c-2 0-3 .6-3 1.7 0 .5.1 1 .5 1.2.3.3.8.5 1.3.5zM494.4 468.4c0 1.4-.4 2.6-1 3.5-.7.8-1.6 1.3-2.7 1.3-1.2 0-2.2-.4-2.8-1.3l-.1 1.1h-1.5v-13.5h1.6v5c.7-.8 1.6-1.2 2.8-1.2 1.1 0 2 .5 2.7 1.3.6.9 1 2 1 3.6v.2zm-1.7-.2c0-1.1-.2-2-.6-2.6-.4-.6-1-1-1.9-1-1 0-1.8.6-2.3 1.6v4.1c.5 1 1.3 1.5 2.4 1.5.7 0 1.3-.3 1.8-1 .4-.5.6-1.4.6-2.6zM498.2 473h-1.6v-13.5h1.6V473zM504.7 473.2c-1.3 0-2.3-.4-3.1-1.3-.8-.8-1.2-2-1.2-3.4v-.3c0-1 .2-1.8.5-2.5.4-.8.9-1.3 1.5-1.8.7-.4 1.4-.6 2.1-.6 1.3 0 2.2.4 3 1.2.6.9 1 2 1 3.5v.7H502c0 1 .3 1.7.8 2.3.6.6 1.2.8 2 .8.6 0 1 0 1.5-.3.4-.2.7-.5 1-1l1 .8a4 4 0 01-3.6 1.9zm-.2-8.6c-.6 0-1.2.3-1.6.8-.5.4-.7 1.1-.8 2h4.7v-.1a3 3 0 00-.6-2 2 2 0 00-1.7-.7zM520.7 473l-.3-1c-.7.8-1.6 1.2-2.7 1.2-.9 0-1.7-.3-2.3-.8-.6-.5-.9-1.2-.9-2 0-1 .4-1.8 1.2-2.3.7-.6 1.8-.9 3.1-.9h1.6v-.7c0-.6-.2-1-.5-1.4-.3-.3-.8-.5-1.5-.5-.6 0-1 .2-1.5.5-.3.3-.5.6-.5 1h-1.7c0-.4.2-1 .5-1.3.4-.5.8-.8 1.4-1.1.6-.3 1.2-.4 1.9-.4 1.1 0 2 .3 2.6.8a3 3 0 011 2.3v4.4c0 .8 0 1.5.3 2v.2h-1.7zm-2.7-1.2c.5 0 1-.2 1.4-.4.5-.3.8-.6 1-1v-2h-1.3c-2 0-3 .6-3 1.7 0 .5.2 1 .6 1.2.3.3.7.5 1.3.5zM526.1 463.5v1.2c.8-1 1.8-1.4 3-1.4 2 0 3 1.1 3 3.4v6.3h-1.7v-6.3c0-.7-.1-1.2-.4-1.5-.3-.3-.8-.5-1.5-.5-.5 0-1 .1-1.3.4-.4.3-.8.7-1 1.1v6.8h-1.6v-9.5h1.5zM534.1 468.2c0-1.5.4-2.7 1-3.6.8-.8 1.7-1.3 2.8-1.3 1.1 0 2 .4 2.6 1.2v-5h1.7V473h-1.5l-.1-1c-.7.8-1.6 1.2-2.7 1.2s-2-.5-2.7-1.4c-.7-.9-1-2-1-3.5v-.1zm1.7.2c0 1 .2 1.9.6 2.5.5.6 1 .9 1.9.9 1 0 1.8-.5 2.2-1.4V466a2.4 2.4 0 00-2.2-1.3c-.8 0-1.4.3-1.9 1-.4.5-.6 1.4-.6 2.7zM557.6 470.8l1.8-7.3h1.6l-2.7 9.5h-1.4l-2.3-7.2-2.2 7.2H551l-2.8-9.5h1.6l1.9 7.1 2.2-7.1h1.3l2.3 7.3zM564.3 464.6c.7-.8 1.7-1.3 2.8-1.3 2 0 3 1.1 3 3.4v6.3h-1.6v-6.3c0-.7-.1-1.2-.4-1.5-.3-.3-.8-.5-1.5-.5-.5 0-1 .1-1.4.4-.4.3-.7.7-.9 1.1v6.8h-1.6v-13.5h1.6v5.1zM574.4 473h-1.7v-9.5h1.7v9.5zm-1.8-12c0-.3 0-.5.2-.7.2-.2.5-.3.8-.3.3 0 .5.1.7.3.2.2.2.4.2.7 0 .2 0 .5-.2.6-.2.2-.4.3-.7.3-.4 0-.6-.1-.8-.3a1 1 0 01-.2-.6zM578.7 473h-1.6v-13.5h1.6V473zM585.3 473.2c-1.3 0-2.3-.4-3.1-1.3-.9-.8-1.3-2-1.3-3.4v-.3c0-1 .2-1.8.6-2.5.3-.8.8-1.3 1.5-1.8.6-.4 1.3-.6 2.1-.6 1.2 0 2.2.4 2.9 1.2.7.9 1 2 1 3.5v.7h-6.4c0 1 .3 1.7.8 2.3.5.6 1.2.8 2 .8.6 0 1 0 1.4-.3.4-.2.8-.5 1-1l1 .8a4 4 0 01-3.5 1.9zm-.2-8.6c-.7 0-1.2.3-1.7.8-.4.4-.7 1.1-.8 2h4.8v-.1a3 3 0 00-.7-2 2 2 0 00-1.6-.7zM597.1 473h-1.6v-13.5h1.6V473zM603.7 473.2c-1.3 0-2.4-.4-3.2-1.3-.8-.8-1.2-2-1.2-3.4v-.3c0-1 .2-1.8.6-2.5.3-.8.8-1.3 1.5-1.8.6-.4 1.3-.6 2-.6 1.3 0 2.3.4 3 1.2.7.9 1 2 1 3.5v.7H601c0 1 .2 1.7.8 2.3.5.6 1.2.8 2 .8.5 0 1 0 1.4-.3.4-.2.8-.5 1-1l1 .8a4 4 0 01-3.5 1.9zm-.2-8.6c-.7 0-1.2.3-1.7.8-.4.4-.7 1.1-.8 2h4.8v-.1a3 3 0 00-.7-2 2 2 0 00-1.6-.7zM614.8 470.5c0-.5-.1-.8-.5-1-.3-.3-.9-.5-1.7-.7l-2-.6c-.5-.3-.8-.5-1-.9-.3-.3-.4-.7-.4-1.2 0-.8.3-1.4 1-2 .7-.5 1.5-.8 2.5-.8 1.1 0 2 .3 2.6.8.7.6 1 1.3 1 2.2h-1.6c0-.5-.2-.8-.5-1.2-.4-.3-.9-.5-1.5-.5s-1 .2-1.4.4c-.3.3-.5.6-.5 1s.2.7.5 1l1.7.5c.8.2 1.5.4 2 .7.5.2.8.5 1 .9.3.3.4.8.4 1.3 0 .8-.3 1.5-1 2s-1.5.8-2.6.8c-.8 0-1.5-.2-2-.4-.6-.3-1-.7-1.4-1.2-.3-.4-.5-1-.5-1.5h1.6c0 .5.3 1 .7 1.3.4.3 1 .4 1.6.4.6 0 1 0 1.5-.3.3-.3.5-.6.5-1zM624.1 470.5c0-.5-.2-.8-.5-1-.3-.3-.9-.5-1.7-.7l-2-.6c-.5-.3-.8-.5-1-.9-.3-.3-.4-.7-.4-1.2 0-.8.3-1.4 1-2 .6-.5 1.5-.8 2.5-.8s2 .3 2.6.8c.7.6 1 1.3 1 2.2H624c0-.5-.2-.8-.6-1.2-.3-.3-.8-.5-1.4-.5-.6 0-1 .2-1.4.4-.3.3-.5.6-.5 1s.2.7.5 1l1.7.5 2 .7c.4.2.8.5 1 .9.3.3.4.8.4 1.3 0 .8-.3 1.5-1 2s-1.6.8-2.6.8c-.8 0-1.5-.2-2-.4-.6-.3-1.1-.7-1.4-1.2-.4-.4-.5-1-.5-1.5h1.6c0 .5.2 1 .6 1.3.5.3 1 .4 1.7.4.6 0 1 0 1.4-.3.4-.3.6-.6.6-1zM636.1 471.8c.6 0 1.1-.1 1.5-.5.5-.3.7-.8.8-1.3h1.5c0 .5-.2 1-.6 1.6-.3.5-.8.8-1.3 1.1a4 4 0 01-1.9.5 4 4 0 01-3-1.3c-.8-.9-1.2-2-1.2-3.6v-.2c0-1 .2-1.8.5-2.5s.8-1.3 1.5-1.7c.6-.4 1.4-.6 2.2-.6 1 0 2 .3 2.7 1 .7.6 1 1.4 1.1 2.5h-1.5a2.2 2.2 0 00-2.3-2.2c-.8 0-1.5.3-2 1-.4.5-.6 1.4-.6 2.5v.3c0 1.1.2 2 .7 2.6.4.6 1 .8 2 .8zM641.3 468.2c0-1 .2-1.8.5-2.6.4-.7 1-1.3 1.6-1.7.6-.4 1.4-.6 2.2-.6a4 4 0 013.2 1.4c.8.9 1.2 2 1.2 3.5v.2c0 .9-.2 1.7-.6 2.4a4 4 0 01-3.8 2.4 4 4 0 01-3.1-1.4c-.8-.9-1.2-2-1.2-3.5v-.1zm1.6.2c0 1 .3 1.9.8 2.5.5.6 1.1 1 2 1 .8 0 1.4-.4 1.9-1 .5-.7.7-1.6.7-2.7a4 4 0 00-.7-2.6c-.5-.6-1.2-1-2-1s-1.4.4-2 1c-.4.6-.7 1.6-.7 2.8zM653.5 463.5v1c.8-.8 1.7-1.2 2.9-1.2 1.3 0 2.2.5 2.7 1.5.3-.4.7-.8 1.2-1 .6-.3 1.2-.5 1.8-.5 2.1 0 3.2 1.1 3.2 3.3v6.4h-1.6v-6.3c0-.7-.2-1.2-.5-1.5-.3-.3-.8-.5-1.5-.5-.6 0-1.1.2-1.5.5-.4.4-.7.9-.7 1.5v6.3h-1.7v-6.2c0-1.4-.6-2.1-2-2.1-1 0-1.8.4-2.2 1.4v6.9H652v-9.5h1.5zM669.3 463.5v1c.8-.8 1.7-1.2 2.9-1.2 1.3 0 2.2.5 2.7 1.5.3-.4.7-.8 1.2-1 .5-.3 1.1-.5 1.8-.5 2.1 0 3.2 1.1 3.2 3.3v6.4h-1.6v-6.3c0-.7-.2-1.2-.5-1.5-.3-.3-.8-.5-1.5-.5-.6 0-1.2.2-1.5.5-.4.4-.7.9-.7 1.5v6.3h-1.7v-6.2c0-1.4-.7-2.1-2-2.1-1 0-1.8.4-2.2 1.4v6.9h-1.6v-9.5h1.5zM683.1 468.2c0-1 .2-1.8.6-2.6.4-.7.9-1.3 1.5-1.7.7-.4 1.4-.6 2.3-.6a4 4 0 013 1.4c.9.9 1.3 2 1.3 3.5v.2c0 .9-.2 1.7-.5 2.4a4 4 0 01-3.8 2.4 4 4 0 01-3.2-1.4c-.8-.9-1.2-2-1.2-3.5v-.1zm1.7.2c0 1 .2 1.9.7 2.5.5.6 1.2 1 2 1s1.5-.4 2-1c.4-.7.7-1.6.7-2.7a4 4 0 00-.8-2.6c-.5-.6-1.1-1-2-1-.7 0-1.4.4-1.9 1s-.7 1.6-.7 2.8zM695.4 463.5v1.2c.8-1 1.7-1.4 2.9-1.4 2 0 3 1.1 3 3.4v6.3h-1.6v-6.3c0-.7-.2-1.2-.5-1.5-.3-.3-.8-.5-1.4-.5-.5 0-1 .1-1.4.4l-1 1.1v6.8h-1.6v-9.5h1.6zM223.4 491.2v2.3h1.8v1.2h-1.8v6c0 .3.1.6.3.8.1.2.4.3.8.3l.8-.1v1.3l-1.3.2c-.7 0-1.3-.2-1.6-.7-.4-.4-.6-1-.6-1.9v-5.9h-1.7v-1.2h1.7v-2.3h1.6zM228.7 494.6c.8-.8 1.7-1.3 2.9-1.3 2 0 3 1.1 3 3.4v6.3H233v-6.3c0-.7-.2-1.2-.5-1.5-.3-.3-.8-.5-1.4-.5-.6 0-1 .1-1.4.4l-1 1.1v6.8h-1.6v-13.5h1.6v5.1zM241 503.2c-1.3 0-2.4-.4-3.2-1.3-.8-.8-1.2-2-1.2-3.4v-.3c0-1 .2-1.8.6-2.5.3-.8.8-1.3 1.5-1.8.6-.4 1.3-.6 2-.6 1.3 0 2.3.4 3 1.2.6.9 1 2 1 3.5v.7h-6.5c0 1 .3 1.7.9 2.3.5.6 1.2.8 2 .8.5 0 1 0 1.4-.3.4-.2.8-.5 1-1l1 .8a4 4 0 01-3.5 1.9zm-.2-8.6c-.7 0-1.2.3-1.7.8-.4.4-.7 1.1-.8 2h4.8v-.1a3 3 0 00-.7-2 2 2 0 00-1.6-.7zM249.6 500.6l2.2-7.1h1.7l-3.8 11c-.6 1.6-1.5 2.3-2.8 2.3h-.3l-.6-.1v-1.3h.4c.6 0 1 0 1.3-.3.3-.2.6-.6.8-1.2l.3-1-3.4-9.4h1.8l2.4 7.1zM267.5 498.4c0 1.4-.4 2.6-1 3.4-.7 1-1.6 1.4-2.7 1.4-1.2 0-2-.4-2.7-1.1v4.6h-1.7v-13.2h1.5l.1 1c.7-.8 1.6-1.2 2.8-1.2 1.1 0 2 .4 2.7 1.3.6.9 1 2 1 3.6v.2zm-1.6-.2c0-1.1-.3-2-.7-2.6-.5-.6-1.1-1-2-1-.9 0-1.6.5-2.1 1.4v4.5c.5 1 1.2 1.3 2.2 1.3.8 0 1.4-.3 1.9-.9.4-.6.7-1.5.7-2.7zM274.1 495l-.8-.1c-1 0-1.7.4-2.1 1.4v6.7h-1.6v-9.5h1.5v1c.6-.8 1.3-1.2 2.3-1.2l.7.1v1.5zM275 498.2c0-1 .2-1.8.6-2.6.4-.7.9-1.3 1.5-1.7.7-.4 1.4-.6 2.3-.6a4 4 0 013.1 1.4c.8.9 1.2 2 1.2 3.5v.2c0 .9-.2 1.7-.5 2.4a4 4 0 01-3.8 2.4 4 4 0 01-3.2-1.4c-.8-.9-1.2-2-1.2-3.5v-.1zm1.7.2c0 1 .2 1.9.7 2.5.5.6 1.2 1 2 1s1.5-.4 2-1c.4-.7.7-1.6.7-2.7a4 4 0 00-.8-2.6c-.5-.6-1.1-1-2-1-.7 0-1.4.4-1.9 1s-.7 1.6-.7 2.8zM288.7 500.8l2.4-7.3h1.7l-3.5 9.5h-1.2l-3.4-9.5h1.6l2.4 7.3zM296 503h-1.5v-9.5h1.6v9.5zm-1.7-12c0-.3.1-.5.3-.7.1-.2.4-.3.7-.3.3 0 .5.1.7.3.2.2.3.4.3.7 0 .2-.1.5-.3.6-.2.2-.4.3-.7.3-.3 0-.6-.1-.7-.3a1 1 0 01-.3-.6zM298.3 498.2c0-1.5.3-2.7 1-3.6.7-.8 1.6-1.3 2.8-1.3 1 0 2 .4 2.6 1.2v-5h1.6V503h-1.5v-1c-.7.8-1.6 1.2-2.8 1.2-1 0-2-.5-2.7-1.4-.7-.9-1-2-1-3.5v-.1zm1.6.2c0 1 .3 1.9.7 2.5.4.6 1 .9 1.8.9 1 0 1.8-.5 2.3-1.4V496a2.4 2.4 0 00-2.2-1.3c-.8 0-1.5.3-1.9 1-.5.5-.7 1.4-.7 2.7zM312.8 503.2c-1.3 0-2.3-.4-3.1-1.3-.9-.8-1.3-2-1.3-3.4v-.3c0-1 .2-1.8.6-2.5.3-.8.8-1.3 1.5-1.8.6-.4 1.3-.6 2.1-.6 1.2 0 2.2.4 2.9 1.2.7.9 1 2 1 3.5v.7h-6.4c0 1 .3 1.7.8 2.3.5.6 1.2.8 2 .8.6 0 1 0 1.5-.3.3-.2.7-.5 1-1l1 .8a4 4 0 01-3.6 1.9zm-.2-8.6c-.7 0-1.2.3-1.7.8-.4.4-.7 1.1-.8 2h4.8v-.1a3 3 0 00-.7-2 2 2 0 00-1.6-.7zM323.7 503v-8.3h-1.5v-1.2h1.5v-1c0-1 .2-1.8.8-2.4a3 3 0 012.3-.8c.4 0 .7 0 1.1.2v1.3l-1-.1c-.5 0-.9.2-1.2.5-.3.3-.4.7-.4 1.3v1h2v1.2h-2v8.3h-1.6zM330.9 503h-1.6v-13.5h1.6V503zM337.4 503.2c-1.2 0-2.3-.4-3.1-1.3-.8-.8-1.2-2-1.2-3.4v-.3c0-1 .2-1.8.5-2.5.4-.8.9-1.3 1.5-1.8.7-.4 1.4-.6 2.1-.6 1.3 0 2.2.4 3 1.2.6.9 1 2 1 3.5v.7h-6.5c0 1 .3 1.7.8 2.3.6.6 1.2.8 2 .8.6 0 1.1 0 1.5-.3.4-.2.7-.5 1-1l1 .8a4 4 0 01-3.6 1.9zm-.2-8.6c-.6 0-1.2.3-1.6.8-.5.4-.7 1.1-.8 2h4.7v-.1a3 3 0 00-.6-2 2 2 0 00-1.7-.7zM346.2 497l2.1-3.5h2l-3.2 4.7 3.2 4.8h-1.8l-2.2-3.6-2.2 3.6h-2l3.3-4.8-3.1-4.7h1.9l2 3.5zM353.7 503h-1.6v-9.5h1.6v9.5zm-1.7-12c0-.3 0-.5.2-.7.2-.2.4-.3.7-.3.4 0 .6.1.8.3l.2.7c0 .2 0 .5-.2.6-.2.2-.4.3-.8.3-.3 0-.5-.1-.7-.3a1 1 0 01-.2-.6zM364.4 498.4c0 1.4-.3 2.6-1 3.5-.7.8-1.6 1.3-2.7 1.3-1.2 0-2.1-.4-2.8-1.3v1.1h-1.5v-13.5h1.6v5c.6-.8 1.5-1.2 2.7-1.2 1.2 0 2 .5 2.7 1.3.7.9 1 2 1 3.6v.2zm-1.6-.2c0-1.1-.2-2-.7-2.6-.4-.6-1-1-1.8-1-1 0-1.9.6-2.3 1.6v4.1c.5 1 1.3 1.5 2.3 1.5.8 0 1.4-.3 1.8-1 .5-.5.7-1.4.7-2.6zM368.2 503h-1.6v-9.5h1.6v9.5zm-1.7-12c0-.3 0-.5.2-.7.2-.2.4-.3.7-.3.3 0 .6.1.7.3.2.2.3.4.3.7 0 .2 0 .5-.3.6-.1.2-.4.3-.7.3-.3 0-.5-.1-.7-.3a1 1 0 01-.2-.6zM372.6 503H371v-13.5h1.6V503zM377 503h-1.6v-9.5h1.6v9.5zm-1.8-12c0-.3.1-.5.3-.7.1-.2.4-.3.7-.3.3 0 .5.1.7.3.2.2.2.4.2.7 0 .2 0 .5-.2.6-.2.2-.4.3-.7.3-.3 0-.6-.1-.7-.3a1 1 0 01-.3-.6zM381.8 491.2v2.3h1.8v1.2h-1.8v6c0 .3 0 .6.2.8.2.2.5.3.8.3l.8-.1v1.3l-1.2.2c-.8 0-1.3-.2-1.7-.7-.3-.4-.5-1-.5-1.9v-5.9h-1.8v-1.2h1.8v-2.3h1.6zM388.6 500.6l2.2-7.1h1.7l-3.8 11c-.6 1.6-1.5 2.3-2.8 2.3h-.3l-.6-.1v-1.3h.4c.6 0 1 0 1.3-.3.3-.2.6-.6.8-1.2l.3-1-3.4-9.4h1.8l2.4 7.1zM404.3 503l-.2-1c-.7.8-1.6 1.2-2.7 1.2-1 0-1.7-.3-2.3-.8-.6-.5-.9-1.2-.9-2 0-1 .4-1.8 1.1-2.3.8-.6 1.8-.9 3.2-.9h1.6v-.7c0-.6-.2-1-.5-1.4-.4-.3-.9-.5-1.5-.5s-1 .2-1.5.5c-.4.3-.6.6-.6 1h-1.6c0-.4.2-1 .5-1.3.3-.5.8-.8 1.4-1.1.5-.3 1.2-.4 1.9-.4 1 0 2 .3 2.5.8a3 3 0 011 2.3v4.4c0 .8.1 1.5.3 2v.2h-1.7zm-2.7-1.2c.6 0 1-.2 1.5-.4.5-.3.8-.6 1-1v-2h-1.3c-2 0-3 .6-3 1.7 0 .5.2 1 .5 1.2.4.3.8.5 1.3.5zM409.8 493.5v1.2c.8-1 1.7-1.4 2.9-1.4 2 0 3 1.1 3 3.4v6.3h-1.6v-6.3c0-.7-.1-1.2-.5-1.5-.3-.3-.7-.5-1.4-.5-.5 0-1 .1-1.4.4l-1 1.1v6.8h-1.5v-9.5h1.5zM417.8 498.2c0-1.5.3-2.7 1-3.6.7-.8 1.6-1.3 2.8-1.3 1 0 2 .4 2.6 1.2v-5h1.6V503h-1.5v-1c-.7.8-1.6 1.2-2.8 1.2-1 0-2-.5-2.7-1.4-.7-.9-1-2-1-3.5v-.1zm1.6.2c0 1 .2 1.9.7 2.5.4.6 1 .9 1.8.9 1 0 1.8-.5 2.3-1.4V496a2.4 2.4 0 00-2.2-1.3c-.8 0-1.5.3-2 1-.4.5-.6 1.4-.6 2.7zM436.8 503.2c-1.3 0-2.4-.4-3.2-1.3-.8-.8-1.2-2-1.2-3.4v-.3c0-1 .2-1.8.5-2.5.4-.8 1-1.3 1.6-1.8.6-.4 1.3-.6 2-.6 1.3 0 2.3.4 3 1.2.6.9 1 2 1 3.5v.7H434c0 1 .3 1.7.8 2.3.6.6 1.2.8 2 .8.6 0 1.1 0 1.5-.3.4-.2.8-.5 1-1l1 .8a4 4 0 01-3.5 1.9zm-.2-8.6c-.7 0-1.2.3-1.7.8-.4.4-.7 1.1-.8 2h4.7v-.1a3 3 0 00-.6-2 2 2 0 00-1.6-.7zM445.6 497l2-3.5h2l-3.2 4.7 3.3 4.8h-2l-2.1-3.6-2.2 3.6h-2l3.3-4.8-3.1-4.7h1.9l2 3.5zM459.3 498.4c0 1.4-.3 2.6-1 3.4-.6 1-1.5 1.4-2.7 1.4-1.1 0-2-.4-2.7-1.1v4.6h-1.6v-13.2h1.5v1c.7-.8 1.6-1.2 2.8-1.2 1.2 0 2 .4 2.7 1.3.7.9 1 2 1 3.6v.2zm-1.6-.2c0-1.1-.2-2-.7-2.6-.4-.6-1-1-1.9-1-1 0-1.7.5-2.2 1.4v4.5c.5 1 1.2 1.3 2.3 1.3.7 0 1.3-.3 1.8-.9.5-.6.7-1.5.7-2.7zM465.3 503.2c-1.2 0-2.3-.4-3.1-1.3-.8-.8-1.2-2-1.2-3.4v-.3c0-1 .2-1.8.5-2.5.4-.8.9-1.3 1.5-1.8.7-.4 1.4-.6 2.1-.6 1.3 0 2.2.4 3 1.2.6.9 1 2 1 3.5v.7h-6.5c0 1 .3 1.7.8 2.3.6.6 1.2.8 2 .8.6 0 1.1 0 1.5-.3.4-.2.7-.5 1-1l1 .8a4 4 0 01-3.6 1.9zm-.2-8.6c-.6 0-1.2.3-1.6.8-.5.4-.7 1.1-.8 2h4.7v-.1a3 3 0 00-.6-2 2 2 0 00-1.7-.7zM472.5 493.5v1.2c.8-1 1.7-1.4 2.9-1.4 2 0 3 1.1 3 3.4v6.3h-1.6v-6.3c0-.7-.2-1.2-.5-1.5-.3-.3-.8-.5-1.4-.5-.5 0-1 .1-1.4.4l-1 1.1v6.8H471v-9.5h1.6zM480.5 498.2c0-1.5.3-2.7 1-3.6.7-.8 1.6-1.3 2.7-1.3s2 .4 2.7 1.2v-5h1.6V503H487v-1c-.7.8-1.6 1.2-2.8 1.2-1 0-2-.5-2.7-1.4-.7-.9-1-2-1-3.5v-.1zm1.6.2c0 1 .2 1.9.7 2.5.4.6 1 .9 1.8.9 1 0 1.8-.5 2.3-1.4V496a2.4 2.4 0 00-2.3-1.3c-.8 0-1.4.3-1.8 1-.5.5-.7 1.4-.7 2.7zM497.7 491.2v2.3h1.8v1.2h-1.8v6c0 .3 0 .6.2.8.2.2.5.3.9.3l.7-.1v1.3l-1.2.2c-.7 0-1.3-.2-1.7-.7-.3-.4-.5-1-.5-1.9v-5.9h-1.7v-1.2h1.7v-2.3h1.6zM503 494.6c.7-.8 1.7-1.3 2.8-1.3 2 0 3 1.1 3 3.4v6.3h-1.6v-6.3c0-.7-.1-1.2-.4-1.5-.3-.3-.8-.5-1.5-.5-.5 0-1 .1-1.4.4l-.9 1.1v6.8h-1.6v-13.5h1.6v5.1zM515.3 503.2c-1.3 0-2.4-.4-3.2-1.3-.8-.8-1.2-2-1.2-3.4v-.3c0-1 .2-1.8.5-2.5.4-.8.9-1.3 1.5-1.8.7-.4 1.4-.6 2.1-.6 1.3 0 2.2.4 3 1.2.6.9 1 2 1 3.5v.7h-6.5c0 1 .3 1.7.8 2.3.6.6 1.2.8 2 .8.6 0 1.1 0 1.5-.3.4-.2.7-.5 1-1l1 .8a4 4 0 01-3.5 1.9zm-.3-8.6c-.6 0-1.2.3-1.6.8-.4.4-.7 1.1-.8 2h4.7v-.1a3 3 0 00-.6-2 2 2 0 00-1.7-.7zM529.1 501.8c.6 0 1.1-.1 1.5-.5.5-.3.7-.8.8-1.3h1.5c0 .5-.2 1-.6 1.6-.3.5-.8.8-1.3 1.1a4 4 0 01-1.9.5 4 4 0 01-3-1.3c-.8-.9-1.2-2-1.2-3.6v-.2c0-1 .2-1.8.5-2.5s.8-1.3 1.5-1.7c.6-.4 1.4-.6 2.2-.6 1 0 2 .3 2.7 1 .7.6 1 1.4 1.1 2.5h-1.5a2.2 2.2 0 00-2.3-2.2c-.8 0-1.4.3-1.9 1-.5.5-.7 1.4-.7 2.5v.3c0 1.1.2 2 .7 2.6.4.6 1 .8 2 .8zM540.6 502c-.6.8-1.6 1.2-2.8 1.2-1 0-1.8-.3-2.3-.9-.5-.6-.8-1.5-.8-2.6v-6.2h1.6v6.1c0 1.5.6 2.2 1.8 2.2 1.2 0 2-.5 2.5-1.4v-7h1.6v9.6h-1.6v-1zM550.2 500.5c0-.5-.2-.8-.5-1-.3-.3-.9-.5-1.7-.7l-2-.6c-.5-.3-.8-.5-1-.9-.3-.3-.4-.7-.4-1.2 0-.8.3-1.4 1-2 .6-.5 1.5-.8 2.5-.8s2 .3 2.6.8c.7.6 1 1.3 1 2.2h-1.6c0-.5-.2-.8-.6-1.2-.3-.3-.8-.5-1.4-.5-.6 0-1 .2-1.4.4-.3.3-.5.6-.5 1s.2.7.5 1l1.7.5 2 .7c.5.2.8.5 1 .9.3.3.4.8.4 1.3 0 .8-.3 1.5-1 2s-1.5.8-2.6.8c-.8 0-1.5-.2-2-.4-.6-.3-1.1-.7-1.4-1.2-.4-.4-.5-1-.5-1.5h1.6c0 .5.2 1 .6 1.3.5.3 1 .4 1.7.4.6 0 1 0 1.4-.3.4-.3.6-.6.6-1zM556.2 491.2v2.3h1.7v1.2h-1.7v6c0 .3 0 .6.2.8.2.2.4.3.8.3l.8-.1v1.3l-1.3.2c-.7 0-1.2-.2-1.6-.7-.4-.4-.6-1-.6-1.9v-5.9h-1.7v-1.2h1.7v-2.3h1.7zM559.2 498.2c0-1 .2-1.8.6-2.6.3-.7.9-1.3 1.5-1.7.7-.4 1.4-.6 2.2-.6a4 4 0 013.2 1.4c.8.9 1.2 2 1.2 3.5v.2c0 .9-.2 1.7-.5 2.4a4 4 0 01-3.8 2.4 4 4 0 01-3.2-1.4c-.8-.9-1.2-2-1.2-3.5v-.1zm1.7.2c0 1 .2 1.9.7 2.5.5.6 1.1 1 2 1 .8 0 1.4-.4 2-1 .4-.7.7-1.6.7-2.7a4 4 0 00-.8-2.6c-.5-.6-1.1-1-2-1-.8 0-1.4.4-1.9 1s-.7 1.6-.7 2.8zM571.5 493.5v1c.7-.8 1.6-1.2 2.8-1.2 1.4 0 2.3.5 2.7 1.5.4-.4.8-.8 1.3-1 .5-.3 1-.5 1.8-.5 2 0 3.1 1.1 3.2 3.3v6.4h-1.7v-6.3c0-.7-.1-1.2-.4-1.5-.4-.3-.9-.5-1.6-.5-.6 0-1.1.2-1.5.5-.4.4-.6.9-.7 1.5v6.3h-1.6v-6.2c0-1.4-.7-2.1-2-2.1-1.1 0-1.9.4-2.3 1.4v6.9H570v-9.5h1.6zM589.7 503.2c-1.3 0-2.4-.4-3.2-1.3-.8-.8-1.2-2-1.2-3.4v-.3c0-1 .2-1.8.5-2.5.4-.8.9-1.3 1.5-1.8.7-.4 1.4-.6 2.2-.6 1.2 0 2.2.4 2.8 1.2.7.9 1 2 1 3.5v.7H587c0 1 .3 1.7.8 2.3.6.6 1.2.8 2 .8.6 0 1.1 0 1.5-.3.4-.2.8-.5 1-1l1 .8a4 4 0 01-3.5 1.9zm-.2-8.6c-.7 0-1.3.3-1.7.8-.4.4-.7 1.1-.8 2h4.7v-.1a3 3 0 00-.6-2 2 2 0 00-1.6-.7zM599.9 495l-.8-.1c-1.1 0-1.8.4-2.2 1.4v6.7h-1.6v-9.5h1.5v1c.6-.8 1.4-1.2 2.3-1.2l.8.1v1.5zM613.9 498.4c0 1.4-.4 2.6-1 3.5-.7.8-1.6 1.3-2.7 1.3-1.2 0-2.1-.4-2.8-1.3v1.1h-1.6v-13.5h1.6v5c.7-.8 1.6-1.2 2.8-1.2 1.1 0 2 .5 2.7 1.3.6.9 1 2 1 3.6v.2zm-1.7-.2c0-1.1-.2-2-.6-2.6-.4-.6-1-1-1.8-1-1.1 0-1.9.6-2.4 1.6v4.1c.5 1 1.3 1.5 2.4 1.5.8 0 1.4-.3 1.8-1 .4-.5.6-1.4.6-2.6zM621.8 503l-.2-1c-.8.8-1.7 1.2-2.7 1.2-1 0-1.7-.3-2.3-.8-.6-.5-1-1.2-1-2 0-1 .4-1.8 1.2-2.3.7-.6 1.8-.9 3.2-.9h1.5v-.7c0-.6-.1-1-.5-1.4-.3-.3-.8-.5-1.5-.5-.5 0-1 .2-1.4.5-.4.3-.6.6-.6 1h-1.6c0-.4.1-1 .5-1.3.3-.5.7-.8 1.3-1.1.6-.3 1.2-.4 2-.4 1 0 1.9.3 2.5.8a3 3 0 011 2.3v4.4c0 .8 0 1.5.3 2v.2h-1.7zm-2.7-1.2c.5 0 1-.2 1.5-.4l1-1v-2h-1.3c-2 0-3 .6-3 1.7 0 .5.2 1 .5 1.2.3.3.8.5 1.3.5zM631.3 500.5c0-.5-.2-.8-.5-1-.4-.3-1-.5-1.8-.7l-2-.6c-.4-.3-.8-.5-1-.9-.2-.3-.4-.7-.4-1.2 0-.8.4-1.4 1-2 .7-.5 1.5-.8 2.6-.8 1 0 2 .3 2.6.8.7.6 1 1.3 1 2.2h-1.6c0-.5-.2-.8-.6-1.2-.4-.3-.9-.5-1.4-.5-.6 0-1 .2-1.4.4-.4.3-.5.6-.5 1s.1.7.4 1l1.7.5c.8.2 1.5.4 2 .7.5.2.9.5 1.1.9.3.3.4.8.4 1.3 0 .8-.4 1.5-1 2-.7.5-1.6.8-2.7.8-.7 0-1.4-.2-2-.4-.6-.3-1-.7-1.4-1.2-.3-.4-.5-1-.5-1.5h1.7c0 .5.2 1 .6 1.3.4.3 1 .4 1.6.4.6 0 1.1 0 1.5-.3.4-.3.6-.6.6-1zM639 503.2c-1.3 0-2.4-.4-3.2-1.3-.8-.8-1.2-2-1.2-3.4v-.3c0-1 .2-1.8.5-2.5.4-.8.9-1.3 1.5-1.8.7-.4 1.4-.6 2.1-.6 1.3 0 2.2.4 3 1.2.6.9 1 2 1 3.5v.7h-6.5c0 1 .3 1.7.8 2.3.6.6 1.2.8 2 .8.6 0 1.1 0 1.5-.3.4-.2.7-.5 1-1l1 .8a4 4 0 01-3.6 1.9zm-.3-8.6c-.6 0-1.2.3-1.6.8-.5.4-.7 1.1-.8 2h4.7v-.1a3 3 0 00-.6-2 2 2 0 00-1.7-.7zM644.6 502.1c0-.2 0-.5.2-.7l.8-.2c.3 0 .6 0 .7.2.2.2.3.5.3.7 0 .3 0 .5-.3.7-.1.2-.4.3-.7.3-.4 0-.6 0-.8-.3a1 1 0 01-.2-.7zM224.2 529l.3 1.7.4-1.6 2.5-8.9h1.4l2.5 9 .3 1.5.3-1.7 2-8.8h1.7l-3.1 12.8h-1.6l-2.6-9.3-.2-1-.2 1-2.7 9.3h-1.6l-3-12.8h1.6l2 8.8zM240.9 533.2c-1.3 0-2.4-.4-3.2-1.3-.8-.8-1.2-2-1.2-3.4v-.3c0-1 .2-1.8.6-2.5.3-.8.8-1.3 1.5-1.8.6-.4 1.3-.6 2-.6 1.3 0 2.3.4 3 1.2.6.9 1 2 1 3.5v.7H238c0 1 .3 1.7.9 2.3.5.6 1.2.8 2 .8.5 0 1 0 1.4-.3.4-.2.8-.5 1-1l1 .8a4 4 0 01-3.5 1.9zm-.2-8.6c-.7 0-1.2.3-1.7.8-.4.4-.7 1.1-.8 2h4.8v-.1a3 3 0 00-.7-2 2 2 0 00-1.6-.6zM254.8 531.8c.5 0 1-.1 1.5-.5.4-.3.6-.8.7-1.3h1.5c0 .5-.2 1-.5 1.6-.4.5-.8.8-1.4 1.1a4 4 0 01-1.8.5 4 4 0 01-3.1-1.3c-.8-.9-1.2-2-1.2-3.6v-.2c0-1 .2-1.8.5-2.5.4-.7.9-1.3 1.5-1.7.6-.4 1.4-.6 2.2-.6 1.1 0 2 .3 2.7 1 .7.6 1 1.4 1.1 2.5H257a2.2 2.2 0 00-2.3-2.1c-.8 0-1.4.2-1.9.8-.4.6-.7 1.5-.7 2.6v.3c0 1.1.3 2 .7 2.6.5.6 1.1.8 2 .8zM260 528.2c0-1 .1-1.8.5-2.6.3-.7.9-1.3 1.5-1.7.7-.4 1.4-.6 2.2-.6a4 4 0 013.2 1.4c.8.9 1.2 2 1.2 3.5v.2c0 .9-.2 1.7-.6 2.4a4 4 0 01-3.7 2.4 4 4 0 01-3.2-1.4c-.8-.9-1.2-2-1.2-3.5v-.1zm1.6.2c0 1 .2 1.9.7 2.5.5.6 1.1 1 2 1 .8 0 1.4-.4 2-1 .4-.7.7-1.6.7-2.7a4 4 0 00-.8-2.6c-.5-.6-1.1-1-2-1-.8 0-1.4.4-1.9 1s-.7 1.6-.7 2.8zM272.2 523.5v1.2c.7-1 1.7-1.4 2.9-1.4 2 0 3 1.1 3 3.4v6.3h-1.6v-6.3c0-.7-.2-1.2-.5-1.5-.3-.3-.8-.5-1.4-.5-.6 0-1 .1-1.4.4l-1 1.1v6.8h-1.6v-9.5h1.6zM286 530.5c0-.5 0-.8-.4-1-.3-.3-1-.5-1.7-.7l-2-.6c-.5-.3-.8-.5-1-.9-.3-.3-.4-.7-.4-1.2 0-.8.3-1.4 1-2 .6-.5 1.5-.8 2.5-.8s2 .3 2.6.8c.7.6 1 1.3 1 2.2H286c0-.5-.2-.8-.6-1.2-.3-.3-.8-.5-1.4-.5-.6 0-1 .2-1.4.4-.3.3-.5.6-.5 1s.2.7.5 1l1.7.5 2 .7c.4.2.8.5 1 .9.3.3.4.8.4 1.3 0 .8-.3 1.5-1 2s-1.6.8-2.6.8c-.8 0-1.5-.2-2-.4-.7-.3-1.1-.7-1.4-1.2-.4-.4-.5-1-.5-1.5h1.6c0 .5.2 1 .6 1.3.4.3 1 .4 1.7.4.6 0 1 0 1.4-.3.4-.3.6-.6.6-1zM292 521.2v2.3h1.8v1.2H292v6c0 .3.1.6.3.8.1.2.4.3.8.3l.8-.1v1.3l-1.3.2c-.7 0-1.3-.2-1.6-.7-.4-.4-.6-1-.6-1.9v-5.9h-1.7v-1.2h1.7v-2.3h1.6zM301.6 533l-.2-1c-.8.8-1.7 1.2-2.7 1.2-1 0-1.7-.3-2.3-.8-.6-.5-1-1.2-1-2 0-1 .4-1.8 1.2-2.3.7-.6 1.8-.9 3.2-.9h1.5v-.7c0-.6-.1-1-.5-1.4-.3-.3-.8-.5-1.5-.5-.6 0-1 .2-1.4.5-.4.3-.6.6-.6 1h-1.7c0-.4.2-.9.5-1.3.4-.5.8-.8 1.4-1.1.6-.3 1.2-.4 2-.4 1 0 1.9.3 2.5.8a3 3 0 011 2.3v4.4c0 .8 0 1.5.3 2v.2h-1.7zm-2.7-1.2c.5 0 1-.2 1.5-.4l1-1v-2H300c-2 0-3 .6-3 1.7 0 .5.1 1 .5 1.2.3.3.8.5 1.3.5zM307 523.5l.1 1.2c.7-1 1.7-1.4 2.9-1.4 2 0 3 1.1 3 3.4v6.3h-1.6v-6.3c0-.7-.2-1.2-.5-1.5-.3-.3-.8-.5-1.4-.5-.6 0-1 .1-1.4.4l-1 1.1v6.8h-1.6v-9.5h1.6zM317.7 521.2v2.3h1.7v1.2h-1.7v6c0 .3 0 .6.2.8.2.2.4.3.8.3l.8-.1v1.3l-1.3.2c-.7 0-1.2-.2-1.6-.7-.4-.4-.6-1-.6-1.9v-5.9h-1.7v-1.2h1.7v-2.3h1.7zM323.1 533h-1.6v-13.5h1.6V533zM328.8 530.6l2.2-7.1h1.8l-3.8 11c-.6 1.5-1.6 2.3-2.9 2.3h-.3l-.6-.1v-1.3h.5c.5 0 1 0 1.2-.3.4-.2.6-.6.8-1.2l.4-1-3.4-9.4h1.8l2.3 7.1zM347.1 530.8l1.9-7.3h1.6l-2.8 9.5h-1.3l-2.3-7.2-2.3 7.2h-1.3l-2.7-9.5h1.6l1.8 7.1 2.3-7.1h1.3l2.2 7.3zM351.8 528.2c0-1 .2-1.8.6-2.6.3-.7.8-1.3 1.5-1.7.6-.4 1.4-.6 2.2-.6a4 4 0 013.2 1.4c.8.9 1.2 2 1.2 3.5v.2c0 .9-.2 1.7-.6 2.4a4 4 0 01-3.8 2.4 4 4 0 01-3.1-1.4c-.8-.9-1.2-2-1.2-3.5v-.1zm1.6.2c0 1 .3 1.9.8 2.5.5.6 1.1 1 2 1 .8 0 1.4-.4 2-1 .4-.7.6-1.6.6-2.7a4 4 0 00-.7-2.6c-.5-.6-1.2-1-2-1s-1.4.4-2 1c-.4.6-.7 1.6-.7 2.8zM367.1 525l-.8-.1c-1 0-1.8.4-2.2 1.4v6.7h-1.6v-9.5h1.6v1c.5-.8 1.3-1.2 2.3-1.2l.7.1v1.5zM371.3 528.6l-1 1v3.4h-1.7v-13.5h1.6v8.2l1-1 2.9-3.2h2l-3.8 4 4.2 5.5h-2l-3.2-4.4zM381.8 528.2c0-1 .1-1.8.5-2.6.4-.7.9-1.3 1.5-1.7.7-.4 1.4-.6 2.3-.6a4 4 0 013.1 1.4c.8.9 1.2 2 1.2 3.5v.2c0 .9-.2 1.7-.5 2.4a4 4 0 01-3.8 2.4 4 4 0 01-3.1-1.4c-.8-.9-1.2-2-1.2-3.5v-.1zm1.6.2c0 1 .2 1.9.7 2.5.5.6 1.2 1 2 1s1.5-.4 2-1c.5-.7.7-1.6.7-2.7a4 4 0 00-.8-2.6c-.4-.6-1.1-1-2-1-.7 0-1.4.4-1.9 1s-.7 1.6-.7 2.8zM394 523.5v1.2c.8-1 1.7-1.4 2.9-1.4 2 0 3 1.1 3 3.4v6.3h-1.6v-6.3c0-.7-.2-1.2-.5-1.5-.3-.3-.7-.5-1.4-.5-.5 0-1 .1-1.4.4l-1 1.1v6.8h-1.5v-9.5h1.5zM408.4 523.5v1.2c.8-1 1.7-1.4 2.9-1.4 2 0 3 1.1 3 3.4v6.3h-1.6v-6.3c0-.7-.2-1.2-.5-1.5-.3-.3-.7-.5-1.4-.5-.5 0-1 .1-1.4.4l-1 1.1v6.8H407v-9.5h1.5zM420.7 533.2c-1.3 0-2.3-.4-3.1-1.3-.8-.8-1.2-2-1.2-3.4v-.3c0-1 .2-1.8.5-2.5.4-.8.9-1.3 1.5-1.8.7-.4 1.4-.6 2.1-.6 1.3 0 2.2.4 3 1.2.6.9 1 2 1 3.5v.7H418c0 1 .3 1.7.8 2.3.5.6 1.2.8 2 .8.6 0 1 0 1.5-.3.4-.2.7-.5 1-1l1 .8a4 4 0 01-3.6 1.9zm-.2-8.6c-.6 0-1.2.3-1.6.8-.5.4-.7 1.1-.8 2h4.7v-.1a3 3 0 00-.7-2 2 2 0 00-1.6-.6zM434.8 530.8l1.8-7.3h1.6l-2.8 9.5h-1.3l-2.3-7.2-2.2 7.2h-1.4l-2.7-9.5h1.6l1.9 7.1 2.2-7.1h1.3l2.3 7.3zM450.2 533l-.2-1c-.8.8-1.7 1.2-2.7 1.2-1 0-1.7-.3-2.3-.8-.6-.5-1-1.2-1-2 0-1 .4-1.8 1.2-2.3.7-.6 1.8-.9 3.2-.9h1.5v-.7c0-.6-.1-1-.5-1.4-.3-.3-.8-.5-1.5-.5-.5 0-1 .2-1.4.5-.4.3-.6.6-.6 1h-1.6c0-.4.1-.9.5-1.3.3-.5.8-.8 1.3-1.1.6-.3 1.2-.4 2-.4 1 0 1.9.3 2.5.8a3 3 0 011 2.3v4.4c0 .8 0 1.5.3 2v.2h-1.7zm-2.7-1.2c.5 0 1-.2 1.5-.4l1-1v-2h-1.3c-2 0-3 .6-3 1.7 0 .5.2 1 .5 1.2.3.3.8.5 1.3.5zM455.9 533h-1.6v-13.5h1.6V533zM460.3 533h-1.7v-13.5h1.7V533zM462.4 528.2c0-1 .2-1.8.6-2.6.4-.7.9-1.3 1.5-1.7.7-.4 1.4-.6 2.3-.6a4 4 0 013.1 1.4c.8.9 1.2 2 1.2 3.5v.2c0 .9-.2 1.7-.5 2.4a4 4 0 01-3.8 2.4 4 4 0 01-3.2-1.4c-.8-.9-1.2-2-1.2-3.5v-.1zm1.7.2c0 1 .2 1.9.7 2.5.5.6 1.2 1 2 1s1.5-.4 2-1c.4-.7.7-1.6.7-2.7a4 4 0 00-.8-2.6c-.5-.6-1.1-1-2-1-.7 0-1.4.4-1.9 1s-.7 1.6-.7 2.8zM477 531.8c.5 0 1-.1 1.5-.5.4-.3.7-.8.7-1.3h1.5c0 .5-.2 1-.5 1.6-.4.5-.8.8-1.4 1.1a4 4 0 01-1.8.5 4 4 0 01-3.1-1.3c-.8-.9-1.2-2-1.2-3.6v-.2c0-1 .2-1.8.5-2.5.4-.7.9-1.3 1.5-1.7.6-.4 1.4-.6 2.2-.6 1.1 0 2 .3 2.7 1 .7.6 1 1.4 1.1 2.5h-1.5a2.2 2.2 0 00-2.3-2.1c-.8 0-1.4.2-1.9.8-.4.6-.7 1.5-.7 2.6v.3c0 1.1.3 2 .7 2.6.5.6 1.1.8 2 .8zM488.4 533l-.2-1c-.7.8-1.7 1.2-2.7 1.2-1 0-1.7-.3-2.3-.8-.6-.5-1-1.2-1-2 0-1 .5-1.8 1.2-2.3.8-.6 1.8-.9 3.2-.9h1.6v-.7c0-.6-.2-1-.5-1.4-.4-.3-.9-.5-1.5-.5s-1.1.2-1.5.5c-.4.3-.6.6-.6 1h-1.6c0-.4.2-.9.5-1.3.3-.5.8-.8 1.4-1.1.5-.3 1.2-.4 1.9-.4 1 0 2 .3 2.5.8a3 3 0 011 2.3v4.4c0 .8.1 1.5.3 2v.2h-1.7zm-2.7-1.2c.5 0 1-.2 1.5-.4.4-.3.8-.6 1-1v-2h-1.3c-2 0-3 .6-3 1.7 0 .5.2 1 .5 1.2.4.3.8.5 1.3.5zM494.6 521.2v2.3h1.7v1.2h-1.7v6c0 .3 0 .6.2.8.2.2.4.3.8.3l.8-.1v1.3l-1.3.2c-.7 0-1.2-.2-1.6-.7-.4-.4-.6-1-.6-1.9v-5.9h-1.7v-1.2h1.7v-2.3h1.7zM500 533h-1.6v-9.5h1.6v9.5zm-1.7-12c0-.3 0-.5.2-.7.2-.2.4-.3.7-.3.3 0 .6.1.7.3.2.2.3.4.3.7 0 .2-.1.5-.3.6-.1.2-.4.3-.7.3-.3 0-.5-.1-.7-.3a1 1 0 01-.2-.6zM502.2 528.2c0-1 .2-1.8.5-2.6.4-.7 1-1.3 1.6-1.7.6-.4 1.4-.6 2.2-.6a4 4 0 013.1 1.4c.8.9 1.2 2 1.2 3.5v.2c0 .9-.1 1.7-.5 2.4a4 4 0 01-3.8 2.4 4 4 0 01-3.1-1.4c-.8-.9-1.2-2-1.2-3.5v-.1zm1.6.2c0 1 .3 1.9.8 2.5.4.6 1.1 1 2 1 .8 0 1.4-.4 1.9-1 .5-.7.7-1.6.7-2.7a4 4 0 00-.7-2.6c-.5-.6-1.2-1-2-1s-1.4.4-2 1c-.4.6-.7 1.6-.7 2.8zM514.4 523.5v1.2c.8-1 1.8-1.4 3-1.4 2 0 3 1.1 3 3.4v6.3h-1.7v-6.3c0-.7-.1-1.2-.4-1.5-.3-.3-.8-.5-1.5-.5-.5 0-1 .1-1.4.4-.4.3-.7.7-.9 1.1v6.8H513v-9.5h1.5zM528.8 523.5v1c.8-.8 1.7-1.2 2.9-1.2 1.3 0 2.2.5 2.7 1.5.3-.4.7-.8 1.2-1 .5-.3 1.1-.5 1.8-.5 2.1 0 3.2 1.1 3.2 3.3v6.4H539v-6.3c0-.7-.2-1.2-.5-1.5-.3-.3-.8-.5-1.5-.5s-1.2.2-1.6.5c-.4.4-.6.9-.6 1.5v6.3H533v-6.2c0-1.4-.7-2.1-2-2.1-1 0-1.8.4-2.2 1.4v6.9h-1.6v-9.5h1.5zM547 533.2c-1.3 0-2.3-.4-3.1-1.3-.8-.8-1.2-2-1.2-3.4v-.3c0-1 .1-1.8.5-2.5.4-.8.9-1.3 1.5-1.8.7-.4 1.4-.6 2.1-.6 1.2 0 2.2.4 2.9 1.2.7.9 1 2 1 3.5v.7h-6.4c0 1 .3 1.7.8 2.3.5.6 1.2.8 2 .8.6 0 1 0 1.5-.3.4-.2.7-.5 1-1l1 .8a4 4 0 01-3.6 1.9zm-.2-8.6c-.6 0-1.2.3-1.6.8-.5.4-.8 1.1-.9 2h4.8v-.1a3 3 0 00-.7-2 2 2 0 00-1.6-.6zM554.8 521.2v2.3h1.8v1.2h-1.8v6c0 .3.1.6.3.8.1.2.4.3.8.3l.7-.1v1.3l-1.2.2c-.7 0-1.3-.2-1.7-.7-.3-.4-.5-1-.5-1.9v-5.9h-1.7v-1.2h1.7v-2.3h1.6zM560.1 524.6c.7-.8 1.7-1.3 2.8-1.3 2 0 3 1.1 3 3.4v6.3h-1.5v-6.3c0-.7-.2-1.2-.5-1.5-.3-.3-.8-.5-1.5-.5-.5 0-1 .1-1.3.4l-1 1.1v6.8h-1.6v-13.5h1.6v5.1zM568 528.2c0-1 .2-1.8.5-2.6.4-.7 1-1.3 1.6-1.7.6-.4 1.4-.6 2.2-.6a4 4 0 013.1 1.4c.8.9 1.2 2 1.2 3.5v.2c0 .9-.1 1.7-.5 2.4a4 4 0 01-3.8 2.4 4 4 0 01-3.1-1.4c-.8-.9-1.2-2-1.2-3.5v-.1zm1.6.2c0 1 .3 1.9.8 2.5.4.6 1.1 1 2 1 .7 0 1.4-.4 1.9-1 .5-.7.7-1.6.7-2.7a4 4 0 00-.7-2.6c-.5-.6-1.2-1-2-1s-1.4.4-2 1c-.4.6-.7 1.6-.7 2.8zM578.3 528.2c0-1.5.3-2.7 1-3.6.7-.8 1.6-1.3 2.7-1.3 1.2 0 2 .4 2.7 1.2v-5h1.6V533h-1.5v-1c-.7.8-1.6 1.2-2.8 1.2-1 0-2-.5-2.7-1.4-.7-.9-1-2-1-3.5v-.1zm1.6.2c0 1 .2 1.9.7 2.5.4.6 1 .9 1.8.9 1 0 1.8-.5 2.3-1.4V526a2.4 2.4 0 00-2.3-1.3c-.8 0-1.4.3-1.8 1-.5.5-.7 1.4-.7 2.7zM594.4 530.5c0-.5-.2-.8-.5-1-.4-.3-1-.5-1.8-.7l-2-.6c-.4-.3-.8-.5-1-.9-.2-.3-.3-.7-.3-1.2 0-.8.3-1.4 1-2 .6-.5 1.5-.8 2.5-.8s2 .3 2.6.8c.7.6 1 1.3 1 2.2h-1.6c0-.5-.2-.8-.6-1.2-.4-.3-.8-.5-1.4-.5-.6 0-1 .2-1.4.4-.3.3-.5.6-.5 1s.2.7.5 1l1.6.5c.9.2 1.5.4 2 .7.5.2.9.5 1.1.9.3.3.4.8.4 1.3 0 .8-.3 1.5-1 2s-1.6.8-2.7.8c-.7 0-1.4-.2-2-.4-.6-.3-1-.7-1.4-1.2-.3-.4-.5-1-.5-1.5h1.7c0 .5.2 1 .6 1.3.4.3 1 .4 1.6.4.7 0 1.1 0 1.5-.3.4-.3.6-.6.6-1zM604.8 521.2v2.3h1.8v1.2h-1.8v6c0 .3 0 .6.2.8.2.2.5.3.8.3l.8-.1v1.3l-1.2.2c-.8 0-1.3-.2-1.7-.7-.3-.4-.5-1-.5-1.9v-5.9h-1.8v-1.2h1.8v-2.3h1.6zM610.1 524.6c.7-.8 1.7-1.3 2.8-1.3 2 0 3 1.1 3 3.4v6.3h-1.6v-6.3c0-.7-.1-1.2-.4-1.5-.3-.3-.8-.5-1.5-.5-.5 0-1 .1-1.4.4-.4.3-.7.7-.9 1.1v6.8h-1.6v-13.5h1.6v5.1zM624.3 533l-.3-1c-.7.8-1.6 1.2-2.7 1.2-1 0-1.7-.3-2.3-.8-.6-.5-.9-1.2-.9-2 0-1 .4-1.8 1.1-2.3.8-.6 1.9-.9 3.2-.9h1.6v-.7c0-.6-.2-1-.5-1.4-.3-.3-.8-.5-1.5-.5-.6 0-1 .2-1.5.5-.4.3-.6.6-.6 1h-1.6c0-.4.2-.9.5-1.3.4-.5.8-.8 1.4-1.1.6-.3 1.2-.4 1.9-.4 1 0 2 .3 2.6.8a3 3 0 011 2.3v4.4c0 .8 0 1.5.3 2v.2h-1.7zm-2.7-1.2c.5 0 1-.2 1.4-.4.5-.3.8-.6 1-1v-2h-1.3c-2 0-3 .6-3 1.7 0 .5.2 1 .6 1.2.3.3.7.5 1.3.5zM630.4 521.2v2.3h1.8v1.2h-1.8v6c0 .3 0 .6.2.8.2.2.5.3.8.3l.8-.1v1.3l-1.2.2c-.8 0-1.3-.2-1.7-.7-.4-.4-.5-1-.5-1.9v-5.9H627v-1.2h1.8v-2.3h1.6zM647 530.8l1.8-7.3h1.6l-2.8 9.5h-1.3l-2.3-7.2-2.2 7.2h-1.4l-2.7-9.5h1.6l1.9 7.1 2.2-7.1h1.3l2.3 7.3zM656 533.2c-1.3 0-2.3-.4-3.1-1.3-.8-.8-1.2-2-1.2-3.4v-.3c0-1 .1-1.8.5-2.5.4-.8.9-1.3 1.5-1.8.7-.4 1.4-.6 2.1-.6 1.3 0 2.2.4 2.9 1.2.7.9 1 2 1 3.5v.7h-6.4c0 1 .3 1.7.8 2.3.5.6 1.2.8 2 .8.6 0 1 0 1.5-.3.4-.2.7-.5 1-1l1 .8a4 4 0 01-3.6 1.9zm-.2-8.6c-.6 0-1.2.3-1.6.8-.5.4-.8 1.1-.9 2h4.8v-.1a3 3 0 00-.7-2 2 2 0 00-1.6-.6zM225 561.8c.6 0 1.1-.1 1.6-.5.4-.3.6-.8.7-1.3h1.5c0 .5-.2 1-.5 1.6-.4.5-.8.8-1.4 1.1a4 4 0 01-1.9.5 4 4 0 01-3-1.3c-.8-.9-1.2-2-1.2-3.6v-.2c0-1 .2-1.8.5-2.5.4-.7.8-1.3 1.5-1.7.6-.4 1.4-.6 2.2-.6 1.1 0 2 .3 2.7 1 .7.6 1 1.4 1.1 2.5h-1.5a2.2 2.2 0 00-2.3-2.1c-.8 0-1.4.2-1.9.8-.4.6-.7 1.5-.7 2.6v.3c0 1.1.3 2 .7 2.6.5.6 1.1.8 2 .8zM230.2 558.2c0-1 .2-1.8.6-2.6.3-.7.8-1.3 1.5-1.7.7-.4 1.4-.6 2.2-.6a4 4 0 013.2 1.4c.8.9 1.2 2 1.2 3.5v.2c0 .9-.2 1.7-.6 2.4a4 4 0 01-3.7 2.4 4 4 0 01-3.2-1.4c-.8-.9-1.2-2-1.2-3.5v-.1zm1.7.2c0 1 .2 1.9.7 2.5.5.6 1.1 1 2 1 .8 0 1.4-.4 2-1 .4-.7.7-1.6.7-2.7a4 4 0 00-.8-2.6c-.5-.6-1.1-1-2-1-.8 0-1.4.4-2 1-.4.6-.6 1.6-.6 2.8zM242.5 553.5v1.2c.7-1 1.7-1.4 2.9-1.4 2 0 3 1.1 3 3.4v6.3h-1.6v-6.3c0-.7-.2-1.2-.5-1.5-.3-.3-.8-.5-1.4-.5-.6 0-1 .1-1.4.4l-1 1.1v6.8H241v-9.5h1.6zM256.4 560.5c0-.5-.2-.8-.5-1-.3-.3-1-.5-1.7-.7l-2-.6c-.5-.3-.8-.5-1-.9-.3-.3-.4-.7-.4-1.2 0-.8.3-1.4 1-2 .6-.5 1.5-.8 2.5-.8s2 .3 2.6.8c.7.6 1 1.3 1 2.2h-1.6c0-.5-.2-.8-.6-1.2-.4-.3-.8-.5-1.4-.5-.6 0-1 .2-1.4.4-.3.3-.5.6-.5 1s.2.7.5 1l1.7.5 2 .7c.4.2.8.5 1 .9.3.3.4.8.4 1.3 0 .8-.3 1.5-1 2s-1.6.8-2.7.8c-.7 0-1.4-.2-2-.4-.6-.3-1-.7-1.4-1.2-.3-.4-.4-1-.4-1.5h1.6c0 .5.2 1 .6 1.3.4.3 1 .4 1.6.4.7 0 1.2 0 1.5-.3.4-.3.6-.6.6-1zM262.3 551.2v2.3h1.8v1.2h-1.8v6c0 .3.1.6.3.8.1.2.4.3.8.3l.8-.1v1.3l-1.3.2c-.7 0-1.3-.2-1.6-.7-.4-.4-.6-1-.6-1.9v-5.9H259v-1.2h1.7v-2.3h1.6zM271.9 563l-.2-1c-.8.8-1.7 1.2-2.7 1.2-1 0-1.8-.3-2.4-.8-.6-.5-.9-1.2-.9-2 0-1 .4-1.8 1.2-2.3.7-.6 1.8-.9 3.2-.9h1.5v-.7c0-.6-.1-1-.5-1.4-.3-.3-.8-.5-1.5-.5-.6 0-1 .2-1.4.5-.4.3-.6.6-.6 1h-1.7c0-.4.2-.9.5-1.3.4-.5.8-.8 1.4-1.1.6-.3 1.2-.4 2-.4 1 0 1.9.3 2.5.8a3 3 0 011 2.3v4.4c0 .8 0 1.5.3 2v.2h-1.7zm-2.7-1.2c.5 0 1-.2 1.4-.4.5-.3.8-.6 1-1v-2h-1.2c-2 0-3 .6-3 1.7 0 .5.1 1 .5 1.2.3.3.8.5 1.3.5zM277.3 553.5l.1 1.2c.7-1 1.7-1.4 2.8-1.4 2 0 3 1.1 3 3.4v6.3h-1.5v-6.3c0-.7-.2-1.2-.5-1.5-.3-.3-.8-.5-1.4-.5-.6 0-1 .1-1.4.4l-1 1.1v6.8h-1.6v-9.5h1.5zM288 551.2v2.3h1.7v1.2H288v6c0 .3.1.6.3.8.1.2.4.3.8.3l.8-.1v1.3l-1.3.2c-.7 0-1.3-.2-1.6-.7-.4-.4-.6-1-.6-1.9v-5.9h-1.7v-1.2h1.7v-2.3h1.6zM293.4 563h-1.6v-13.5h1.6V563zM299.1 560.6l2.2-7.1h1.8l-3.8 11c-.6 1.5-1.6 2.3-2.9 2.3h-.3l-.6-.1v-1.3h.5c.5 0 1 0 1.2-.3.3-.2.6-.6.8-1.2l.4-1-3.4-9.4h1.7l2.4 7.1zM310.5 553.5v1c.8-.8 1.7-1.2 2.9-1.2 1.3 0 2.2.5 2.7 1.5.3-.4.7-.8 1.2-1 .5-.3 1.1-.5 1.8-.5 2.1 0 3.2 1.1 3.2 3.3v6.4h-1.6v-6.3c0-.7-.2-1.2-.5-1.5-.3-.3-.8-.5-1.5-.5-.6 0-1.1.2-1.5.5-.4.4-.7.9-.7 1.5v6.3h-1.7v-6.2c0-1.4-.6-2.1-2-2.1-1 0-1.8.4-2.2 1.4v6.9H309v-9.5h1.5zM330.7 563l-.3-1c-.7.8-1.6 1.2-2.7 1.2-1 0-1.7-.3-2.3-.8-.6-.5-.9-1.2-.9-2 0-1 .4-1.8 1.1-2.3.8-.6 1.9-.9 3.2-.9h1.6v-.7c0-.6-.2-1-.5-1.4-.3-.3-.9-.5-1.5-.5s-1 .2-1.5.5c-.4.3-.6.6-.6 1h-1.6c0-.4.2-.9.5-1.3.3-.5.8-.8 1.4-1.1.6-.3 1.2-.4 1.9-.4 1 0 2 .3 2.6.8a3 3 0 011 2.3v4.4c0 .8 0 1.5.3 2v.2h-1.7zm-2.7-1.2c.5 0 1-.2 1.4-.4.5-.3.8-.6 1-1v-2h-1.3c-2 0-3 .6-3 1.7 0 .5.2 1 .5 1.2.4.3.8.5 1.4.5zM337.2 558.6l-1 1v3.4h-1.6v-13.5h1.6v8.2l.9-1 3-3.2h2l-3.8 4 4.1 5.5h-1.9l-3.3-4.4zM347.5 563.2c-1.3 0-2.4-.4-3.2-1.3-.8-.8-1.2-2-1.2-3.4v-.3c0-1 .2-1.8.5-2.5.4-.8 1-1.3 1.6-1.8.6-.4 1.3-.6 2-.6 1.3 0 2.3.4 3 1.2.6.9 1 2 1 3.5v.7h-6.5c0 1 .3 1.7.9 2.3.5.6 1.1.8 2 .8.5 0 1 0 1.4-.3.4-.2.8-.5 1-1l1 .8a4 4 0 01-3.5 1.9zm-.2-8.6c-.7 0-1.2.3-1.7.8-.4.4-.7 1.1-.8 2h4.8v-.1a3 3 0 00-.7-2 2 2 0 00-1.6-.6zM363.4 563l-.2-1c-.8.8-1.7 1.2-2.7 1.2-1 0-1.7-.3-2.3-.8-.6-.5-1-1.2-1-2 0-1 .4-1.8 1.2-2.3.7-.6 1.8-.9 3.2-.9h1.5v-.7c0-.6-.1-1-.5-1.4-.3-.3-.8-.5-1.5-.5-.5 0-1 .2-1.4.5-.4.3-.6.6-.6 1h-1.6c0-.4.1-.9.5-1.3.3-.5.8-.8 1.3-1.1.6-.3 1.2-.4 2-.4 1 0 1.9.3 2.5.8a3 3 0 011 2.3v4.4c0 .8 0 1.5.3 2v.2h-1.7zm-2.7-1.2c.5 0 1-.2 1.5-.4l1-1v-2h-1.3c-2 0-3 .6-3 1.7 0 .5.2 1 .5 1.2.3.3.8.5 1.3.5zM370.3 560.8l2.4-7.3h1.6L371 563h-1.2l-3.5-9.5h1.7l2.4 7.3zM381.6 563l-.2-1c-.8.8-1.7 1.2-2.7 1.2-1 0-1.7-.3-2.3-.8-.6-.5-1-1.2-1-2 0-1 .5-1.8 1.2-2.3.8-.6 1.8-.9 3.2-.9h1.6v-.7c0-.6-.2-1-.5-1.4-.4-.3-.9-.5-1.5-.5s-1.1.2-1.5.5c-.4.3-.6.6-.6 1h-1.6c0-.4.1-.9.5-1.3.3-.5.8-.8 1.4-1.1.5-.3 1.2-.4 1.9-.4 1 0 2 .3 2.5.8a3 3 0 011 2.3v4.4c0 .8.1 1.5.3 2v.2h-1.7zm-2.7-1.2c.5 0 1-.2 1.5-.4.4-.3.8-.6 1-1v-2H380c-2 0-3 .6-3 1.7 0 .5.2 1 .5 1.2.4.3.8.5 1.3.5zM387.3 563h-1.6v-9.5h1.6v9.5zm-1.7-12c0-.3 0-.5.2-.7.2-.2.4-.3.7-.3.3 0 .6.1.7.3.2.2.3.4.3.7 0 .2-.1.5-.3.6-.1.2-.4.3-.7.3-.3 0-.5-.1-.7-.3a1 1 0 01-.2-.6zM391.7 563H390v-13.5h1.6V563zM400.2 563l-.3-1c-.7.8-1.6 1.2-2.7 1.2-.9 0-1.7-.3-2.3-.8-.6-.5-.9-1.2-.9-2 0-1 .4-1.8 1.2-2.3.7-.6 1.8-.9 3.1-.9h1.6v-.7c0-.6-.1-1-.5-1.4-.3-.3-.8-.5-1.5-.5-.6 0-1 .2-1.5.5-.3.3-.5.6-.5 1h-1.7c0-.4.2-.9.5-1.3.4-.5.8-.8 1.4-1.1.6-.3 1.2-.4 1.9-.4 1.1 0 2 .3 2.6.8a3 3 0 011 2.3v4.4c0 .8 0 1.5.3 2v.2h-1.7zm-2.7-1.2c.5 0 1-.2 1.4-.4.5-.3.8-.6 1-1v-2h-1.3c-2 0-3 .6-3 1.7 0 .5.2 1 .6 1.2.3.3.7.5 1.3.5zM412.1 558.4c0 1.4-.3 2.6-1 3.5-.6.8-1.5 1.3-2.6 1.3-1.2 0-2.2-.4-2.8-1.3l-.1 1.1H404v-13.5h1.6v5c.7-.8 1.6-1.2 2.7-1.2 1.2 0 2.1.5 2.8 1.3.6.9 1 2 1 3.6v.2zm-1.6-.2c0-1.1-.2-2-.6-2.6-.4-.6-1-1-1.9-1-1 0-1.8.6-2.3 1.6v4.1c.5 1 1.3 1.5 2.4 1.5.7 0 1.3-.3 1.8-1 .4-.5.6-1.4.6-2.6zM416 563h-1.7v-13.5h1.7V563zM422.5 563.2c-1.3 0-2.3-.4-3.1-1.3-.8-.8-1.2-2-1.2-3.4v-.3c0-1 .1-1.8.5-2.5.4-.8.9-1.3 1.5-1.8.7-.4 1.4-.6 2.1-.6 1.3 0 2.2.4 3 1.2.6.9 1 2 1 3.5v.7h-6.5c0 1 .3 1.7.8 2.3.5.6 1.2.8 2 .8.6 0 1 0 1.5-.3.4-.2.7-.5 1-1l1 .8a4 4 0 01-3.6 1.9zm-.2-8.6c-.6 0-1.2.3-1.6.8-.5.4-.7 1.1-.9 2h4.8v-.1a3 3 0 00-.7-2 2 2 0 00-1.6-.6zM428.2 562.1c0-.2 0-.5.2-.7l.8-.2c.3 0 .5 0 .7.2.2.2.3.5.3.7 0 .3-.1.5-.3.7-.2.2-.4.3-.7.3-.4 0-.6 0-.8-.3a1 1 0 01-.2-.7zM841.7 474h-5.5v4.6h6.4v1.4h-8.1v-12.8h8v1.4h-6.3v4.1h5.5v1.4zM843.9 475.2c0-1.5.3-2.7 1-3.6.7-.8 1.6-1.3 2.8-1.3 1.1 0 2 .4 2.6 1.1l.1-1h1.5v13.3h-1.6V479c-.7.7-1.5 1-2.6 1-1.2 0-2.1-.4-2.8-1.3-.7-.9-1-2-1-3.5v-.1zm1.6.2c0 1 .2 1.9.7 2.5.5.6 1 1 1.9 1 1 0 1.7-.5 2.2-1.3v-4.7a2.4 2.4 0 00-2.2-1.3c-.8 0-1.4.4-1.9 1s-.7 1.5-.7 2.8zM860.4 479c-.6.8-1.6 1.2-2.8 1.2-1 0-1.8-.3-2.3-.9-.5-.6-.8-1.5-.8-2.6v-6.2h1.6v6.1c0 1.5.6 2.2 1.8 2.2 1.2 0 2-.5 2.4-1.4v-7h1.7v9.6h-1.6v-1zM866.2 480h-1.6v-9.5h1.6v9.5zm-1.7-12c0-.3 0-.5.2-.7.2-.2.4-.3.7-.3.3 0 .6.1.7.3.2.2.3.4.3.7 0 .2-.1.5-.3.6-.1.2-.4.3-.7.3-.3 0-.5-.1-.7-.3a1 1 0 01-.2-.6zM871 468.2v2.3h1.8v1.2H871v6c0 .3.1.6.3.8.1.2.4.3.8.3l.8-.1v1.3l-1.3.2c-.7 0-1.3-.2-1.6-.7-.4-.4-.6-1-.6-1.9v-5.9h-1.7v-1.2h1.7v-2.3h1.6zM877.8 477.6l2.2-7.1h1.8l-3.8 11c-.6 1.6-1.6 2.3-2.9 2.3h-.3l-.6-.1v-1.3h.5c.5 0 1 0 1.2-.3.4-.2.6-.6.8-1.2l.4-1-3.4-9.4h1.8l2.3 7.1zM895 476.7h-5.3l-1.2 3.3h-1.8l4.9-12.8h1.5L898 480h-1.8l-1.2-3.3zm-4.8-1.4h4.3l-2.2-6-2.1 6zM901.2 480h-1.6v-13.5h1.6V480zM905.6 480H904v-13.5h1.6V480zM907.8 475.2c0-1 .2-1.8.5-2.6.4-.7.9-1.3 1.5-1.7.7-.4 1.4-.6 2.3-.6a4 4 0 013.1 1.4c.8.9 1.2 2 1.2 3.5v.2c0 .9-.2 1.7-.5 2.4a4 4 0 01-3.8 2.4 4 4 0 01-3.1-1.4c-.8-.9-1.2-2-1.2-3.5v-.1zm1.6.2c0 1 .2 1.9.7 2.5.5.6 1.2 1 2 1s1.5-.4 2-1c.5-.7.7-1.6.7-2.7a4 4 0 00-.7-2.6c-.5-.6-1.2-1-2-1s-1.5.4-2 1-.7 1.6-.7 2.8zM922.3 478.8c.6 0 1-.1 1.5-.5.4-.3.7-.8.7-1.3h1.6c0 .5-.3 1-.6 1.6-.4.5-.8.8-1.4 1.1a4 4 0 01-1.8.5 4 4 0 01-3.1-1.3c-.8-.9-1.2-2-1.2-3.6v-.2c0-1 .2-1.8.6-2.5a3.9 3.9 0 013.7-2.3c1 0 2 .3 2.6 1 .7.6 1.1 1.4 1.2 2.5h-1.6a2.2 2.2 0 00-2.2-2.2c-.9 0-1.5.3-2 1-.4.5-.6 1.4-.6 2.5v.3c0 1.1.2 2 .6 2.6.5.6 1.1.8 2 .8zM933.8 480l-.3-1c-.7.8-1.6 1.2-2.7 1.2-1 0-1.7-.3-2.3-.8-.6-.5-.9-1.2-.9-2 0-1 .4-1.8 1.1-2.3.8-.6 1.9-.9 3.2-.9h1.6v-.7c0-.6-.2-1-.5-1.4-.3-.3-.8-.5-1.5-.5-.6 0-1 .2-1.5.5-.4.3-.6.6-.6 1h-1.6c0-.4.2-1 .5-1.3.3-.5.8-.8 1.4-1.1.6-.3 1.2-.4 1.9-.4 1 0 2 .3 2.6.8a3 3 0 011 2.3v4.4c0 .8 0 1.5.3 2v.2h-1.7zm-2.7-1.2c.5 0 1-.2 1.4-.4.5-.3.8-.6 1-1v-2h-1.3c-2 0-3 .6-3 1.7 0 .5.2 1 .5 1.2.4.3.8.5 1.4.5zM939.9 468.2v2.3h1.8v1.2h-1.8v6c0 .3 0 .6.2.8.2.2.4.3.8.3l.8-.1v1.3l-1.2.2c-.8 0-1.3-.2-1.7-.7-.4-.4-.5-1-.5-1.9v-5.9h-1.8v-1.2h1.8v-2.3h1.6zM945.3 480h-1.6v-9.5h1.6v9.5zm-1.7-12c0-.3 0-.5.2-.7.2-.2.4-.3.7-.3.4 0 .6.1.8.3l.2.7c0 .2 0 .5-.2.6-.2.2-.4.3-.8.3-.3 0-.5-.1-.7-.3a1 1 0 01-.2-.6zM947.5 475.2c0-1 .2-1.8.6-2.6.3-.7.8-1.3 1.5-1.7.6-.4 1.4-.6 2.2-.6a4 4 0 013.2 1.4c.8.9 1.2 2 1.2 3.5v.2c0 .9-.2 1.7-.6 2.4a4 4 0 01-3.8 2.4 4 4 0 01-3-1.4c-.9-.9-1.3-2-1.3-3.5v-.1zm1.6.2c0 1 .3 1.9.8 2.5.5.6 1.1 1 2 1 .8 0 1.4-.4 2-1 .4-.7.6-1.6.6-2.7a4 4 0 00-.7-2.6c-.5-.6-1.2-1-2-1s-1.4.4-2 1c-.4.6-.7 1.6-.7 2.8zM959.7 470.5l.1 1.2c.7-1 1.7-1.4 2.8-1.4 2 0 3 1.1 3 3.4v6.3h-1.5v-6.3c0-.7-.2-1.2-.5-1.5-.3-.3-.8-.5-1.4-.5-.6 0-1 .1-1.4.4l-1 1.1v6.8h-1.6v-9.5h1.5z" fill="#2A2B2D"/><path fill-rule="evenodd" clip-rule="evenodd" d="M809 485a11 11 0 110-22 11 11 0 010 22zm0-2a9 9 0 100-18 9 9 0 000 18zm3.3-12.7l-5.3 5.3-2.3-2.3-1.4 1.4 3.7 3.7 6.7-6.7-1.4-1.4z" fill="#FA6C06"/><path d="M836.2 516.6h6v1.4h-7.7v-12.8h1.7v11.4zM843.5 513.2c0-1 .2-1.8.5-2.6.4-.7 1-1.3 1.6-1.7.6-.4 1.4-.6 2.2-.6a4 4 0 013.1 1.4c.8.9 1.2 2 1.2 3.5v.2c0 .9-.1 1.7-.5 2.4a4 4 0 01-3.8 2.4 4 4 0 01-3.1-1.4c-.8-.9-1.2-2-1.2-3.5v-.1zm1.6.2c0 1 .3 1.9.8 2.5.4.6 1.1 1 2 1 .7 0 1.4-.4 1.9-1 .5-.7.7-1.6.7-2.7a4 4 0 00-.7-2.6c-.5-.6-1.2-1-2-1s-1.4.4-2 1c-.4.6-.7 1.6-.7 2.8zM856.4 506.2v2.3h1.8v1.2h-1.8v6c0 .3 0 .6.2.8.2.2.5.3.8.3l.8-.1v1.3l-1.2.2c-.8 0-1.3-.2-1.7-.7-.4-.4-.5-1-.5-1.9v-5.9H853v-1.2h1.8v-2.3h1.6zM871.9 514.7h-5.4l-1.2 3.3h-1.7l4.8-12.8h1.5l5 12.8H873l-1.2-3.3zm-4.9-1.4h4.4l-2.2-6-2.2 6zM878 518h-1.6v-13.5h1.6V518zM882.4 518h-1.6v-13.5h1.6V518zM884.6 513.2c0-1 .2-1.8.5-2.6.4-.7 1-1.3 1.6-1.7.6-.4 1.4-.6 2.2-.6a4 4 0 013.2 1.4c.8.9 1.2 2 1.2 3.5v.2c0 .9-.2 1.7-.6 2.4a4 4 0 01-3.8 2.4 4 4 0 01-3.1-1.4c-.8-.9-1.2-2-1.2-3.5v-.1zm1.6.2c0 1 .3 1.9.8 2.5.5.6 1.1 1 2 1 .8 0 1.4-.4 1.9-1 .5-.7.7-1.6.7-2.7a4 4 0 00-.7-2.6c-.5-.6-1.2-1-2-1s-1.4.4-2 1c-.4.6-.7 1.6-.7 2.8zM899.1 516.8c.6 0 1.1-.1 1.5-.5.5-.3.7-.8.8-1.3h1.5c0 .5-.2 1-.6 1.6-.3.5-.8.8-1.4 1.1a4 4 0 01-1.8.5 4 4 0 01-3-1.3c-.8-.9-1.2-2-1.2-3.6v-.2c0-1 .1-1.8.5-2.5a3.9 3.9 0 013.7-2.3c1 0 2 .3 2.7 1 .7.6 1 1.4 1 2.5h-1.4a2.2 2.2 0 00-2.3-2.2c-.8 0-1.5.3-2 1-.4.5-.6 1.4-.6 2.5v.3c0 1.1.2 2 .7 2.6.4.6 1 .8 2 .8zM910.6 518l-.2-1c-.8.8-1.7 1.2-2.7 1.2-1 0-1.8-.3-2.4-.8-.6-.5-.9-1.2-.9-2 0-1 .4-1.8 1.2-2.3.7-.6 1.8-.9 3.2-.9h1.5v-.7c0-.6-.1-1-.5-1.4-.3-.3-.8-.5-1.5-.5-.6 0-1 .2-1.4.5-.4.3-.6.6-.6 1h-1.7c0-.4.2-1 .5-1.3.4-.5.8-.8 1.4-1.1.6-.3 1.2-.4 2-.4 1 0 1.9.3 2.5.8a3 3 0 011 2.3v4.4c0 .8 0 1.5.3 2v.2h-1.7zm-2.7-1.2c.5 0 1-.2 1.4-.4.5-.3.8-.6 1-1v-2h-1.2c-2 0-3 .6-3 1.7 0 .5.1 1 .5 1.2.3.3.8.5 1.3.5zM916.7 506.2v2.3h1.8v1.2h-1.8v6c0 .3 0 .6.3.8.1.2.4.3.8.3l.7-.1v1.3l-1.2.2c-.7 0-1.3-.2-1.7-.7-.3-.4-.5-1-.5-1.9v-5.9h-1.7v-1.2h1.7v-2.3h1.6zM922.2 518h-1.7v-9.5h1.7v9.5zm-1.8-12c0-.3 0-.5.2-.7.2-.2.4-.3.8-.3.3 0 .5.1.7.3l.2.7c0 .2 0 .5-.2.6-.2.2-.4.3-.7.3-.4 0-.6-.1-.8-.3a1 1 0 01-.2-.6zM924.3 513.2c0-1 .2-1.8.6-2.6.4-.7.9-1.3 1.5-1.7.7-.4 1.4-.6 2.3-.6a4 4 0 013.1 1.4c.8.9 1.2 2 1.2 3.5v.2c0 .9-.2 1.7-.5 2.4a4 4 0 01-3.8 2.4 4 4 0 01-3.2-1.4c-.8-.9-1.2-2-1.2-3.5v-.1zm1.7.2c0 1 .2 1.9.7 2.5.5.6 1.2 1 2 1s1.5-.4 2-1c.4-.7.7-1.6.7-2.7a4 4 0 00-.8-2.6c-.5-.6-1.1-1-2-1-.7 0-1.4.4-1.9 1s-.7 1.6-.7 2.8zM936.6 508.5v1.2c.8-1 1.7-1.4 2.9-1.4 2 0 3 1.1 3 3.4v6.3H941v-6.3c0-.7-.2-1.2-.5-1.5-.3-.3-.8-.5-1.4-.5-.5 0-1 .1-1.4.4l-1 1.1v6.8H935v-9.5h1.6z" fill="#2A2B2D"/><path fill-rule="evenodd" clip-rule="evenodd" d="M809 523a11 11 0 110-22 11 11 0 010 22zm0-2a9 9 0 100-18 9 9 0 000 18zm3.3-12.7l-5.3 5.3-2.3-2.3-1.4 1.4 3.7 3.7 6.7-6.7-1.4-1.4z" fill="#FA6C06"/><path d="M836.2 551v5h-1.7v-12.8h4.7c1.4 0 2.5.4 3.3 1 .8.8 1.2 1.7 1.2 3 0 1.2-.4 2.1-1.2 2.8-.8.7-1.9 1-3.3 1h-3zm0-1.4h3c1 0 1.6-.2 2-.6.6-.5.8-1 .8-1.9 0-.7-.2-1.3-.7-1.8-.5-.5-1.2-.7-2-.7h-3.1v5zM849.4 556.2c-1.3 0-2.3-.4-3.1-1.3-.8-.8-1.3-2-1.3-3.4v-.3c0-1 .2-1.8.6-2.5.3-.8.9-1.3 1.5-1.8.6-.4 1.4-.6 2.1-.6 1.2 0 2.2.4 2.9 1.2.7.9 1 2 1 3.5v.7h-6.4c0 1 .3 1.7.8 2.3.5.6 1.2.8 2 .8.6 0 1 0 1.5-.3.4-.2.7-.5 1-1l1 .8a4 4 0 01-3.6 1.9zm-.2-8.6c-.6 0-1.2.3-1.6.8-.5.4-.8 1.1-.9 2h4.8v-.1a3 3 0 00-.7-2 2 2 0 00-1.6-.6zM859.6 548l-.8-.1c-1 0-1.8.4-2.2 1.4v6.7H855v-9.5h1.6v1c.5-.8 1.3-1.2 2.3-1.2l.7.1v1.5zM864.7 554.8c.6 0 1.1-.1 1.6-.5.4-.3.6-.8.7-1.3h1.5c0 .5-.2 1-.5 1.6-.4.5-.8.8-1.4 1.1a4 4 0 01-1.9.5 4 4 0 01-3-1.3c-.8-.9-1.2-2-1.2-3.6v-.2c0-1 .2-1.8.5-2.5a3.9 3.9 0 013.7-2.3c1.1 0 2 .3 2.7 1 .7.6 1 1.4 1.1 2.5H867a2.2 2.2 0 00-2.3-2.1c-.8 0-1.4.2-1.9.8-.4.6-.7 1.5-.7 2.6v.3c0 1.1.3 2 .7 2.6.5.6 1.1.8 2 .8zM874.3 556.2c-1.3 0-2.3-.4-3.1-1.3-.9-.8-1.3-2-1.3-3.4v-.3c0-1 .2-1.8.6-2.5.3-.8.8-1.3 1.5-1.8.6-.4 1.3-.6 2.1-.6 1.2 0 2.2.4 2.9 1.2.7.9 1 2 1 3.5v.7h-6.4c0 1 .3 1.7.8 2.3.5.6 1.2.8 2 .8.6 0 1 0 1.4-.3.4-.2.8-.5 1-1l1 .8a4 4 0 01-3.5 1.9zm-.2-8.6c-.7 0-1.2.3-1.7.8-.4.4-.7 1.1-.8 2h4.8v-.1a3 3 0 00-.7-2 2 2 0 00-1.6-.6zM881.4 546.5v1.2c.8-1 1.8-1.4 3-1.4 2 0 3 1.1 3 3.4v6.3h-1.6v-6.3c0-.7-.2-1.2-.5-1.5-.3-.3-.8-.5-1.5-.5-.5 0-1 .1-1.3.4-.4.3-.8.7-1 1.1v6.8H880v-9.5h1.5zM892 544.2v2.3h1.8v1.2H892v6c0 .3.1.6.3.8.1.2.4.3.8.3l.8-.1v1.3l-1.3.2c-.7 0-1.3-.2-1.6-.7-.4-.4-.6-1-.6-1.9v-5.9h-1.7v-1.2h1.7v-2.3h1.6zM907.5 552.7h-5.4L901 556h-1.7l4.9-12.8h1.5l4.9 12.8h-1.8l-1.2-3.3zm-4.8-1.4h4.3l-2.2-6-2.1 6zM913.7 556H912v-13.5h1.6V556zM918 556h-1.6v-13.5h1.7V556zM920.2 551.2c0-1 .2-1.8.6-2.6.4-.7.9-1.3 1.5-1.7.7-.4 1.4-.6 2.3-.6a4 4 0 013.1 1.4c.8.9 1.2 2 1.2 3.5v.2c0 .9-.2 1.7-.5 2.4a4 4 0 01-3.8 2.4 4 4 0 01-3.2-1.4c-.8-.9-1.2-2-1.2-3.5v-.1zm1.7.2c0 1 .2 1.9.7 2.5.5.6 1.2 1 2 1s1.5-.4 2-1c.4-.7.7-1.6.7-2.7a4 4 0 00-.8-2.6c-.5-.6-1.1-1-2-1-.7 0-1.4.4-1.9 1s-.7 1.6-.7 2.8zM934.8 554.8c.5 0 1-.1 1.5-.5.4-.3.7-.8.7-1.3h1.5c0 .5-.2 1-.5 1.6-.4.5-.8.8-1.4 1.1a4 4 0 01-1.8.5 4 4 0 01-3.1-1.3c-.8-.9-1.2-2-1.2-3.6v-.2c0-1 .2-1.8.5-2.5a3.9 3.9 0 013.8-2.3c1 0 1.9.3 2.6 1 .7.6 1 1.4 1.1 2.5H937a2.2 2.2 0 00-2.2-2.1c-.9 0-1.5.2-2 .8-.4.6-.7 1.5-.7 2.6v.3c0 1.1.3 2 .7 2.6.5.6 1.1.8 2 .8zM946.2 556l-.2-1c-.7.8-1.6 1.2-2.7 1.2-1 0-1.7-.3-2.3-.8-.6-.5-.9-1.2-.9-2 0-1 .4-1.8 1.1-2.3.8-.6 1.8-.9 3.2-.9h1.6v-.7c0-.6-.2-1-.5-1.4-.4-.3-.9-.5-1.5-.5s-1.1.2-1.5.5c-.4.3-.6.6-.6 1h-1.6c0-.4.2-.9.5-1.3.3-.5.8-.8 1.4-1.1.5-.3 1.2-.4 1.9-.4 1 0 2 .3 2.5.8a3 3 0 011 2.3v4.4c0 .8.1 1.5.3 2v.2h-1.7zm-2.7-1.2c.5 0 1-.2 1.5-.4.4-.3.8-.6 1-1v-2h-1.3c-2 0-3 .6-3 1.7 0 .5.2 1 .5 1.2.4.3.8.5 1.3.5zM952.4 544.2v2.3h1.7v1.2h-1.7v6c0 .3 0 .6.2.8.2.2.4.3.8.3l.8-.1v1.3l-1.3.2c-.7 0-1.2-.2-1.6-.7-.4-.4-.6-1-.6-1.9v-5.9H949v-1.2h1.7v-2.3h1.7zM957.8 556h-1.6v-9.5h1.6v9.5zm-1.7-12c0-.3 0-.5.2-.7.2-.2.4-.3.7-.3.3 0 .6.1.7.3.2.2.3.4.3.7 0 .2-.1.5-.3.6-.1.2-.4.3-.7.3-.3 0-.5-.1-.7-.3a1 1 0 01-.2-.6zM960 551.2c0-1 .2-1.8.5-2.6.4-.7 1-1.3 1.6-1.7.6-.4 1.4-.6 2.2-.6a4 4 0 013.1 1.4c.8.9 1.3 2 1.3 3.5v.2c0 .9-.2 1.7-.6 2.4a4 4 0 01-3.8 2.4 4 4 0 01-3.1-1.4c-.8-.9-1.2-2-1.2-3.5v-.1zm1.6.2c0 1 .3 1.9.8 2.5.5.6 1.1 1 2 1 .8 0 1.4-.4 1.9-1 .5-.7.7-1.6.7-2.7a4 4 0 00-.7-2.6c-.5-.6-1.2-1-2-1s-1.4.4-2 1c-.4.6-.7 1.6-.7 2.8zM972.2 546.5v1.2c.8-1 1.8-1.4 3-1.4 2 0 3 1.1 3 3.4v6.3h-1.7v-6.3c0-.7-.1-1.2-.4-1.5-.3-.3-.8-.5-1.5-.5-.5 0-1 .1-1.4.4-.4.3-.7.7-.9 1.1v6.8h-1.6v-9.5h1.5z" fill="#2A2B2D"/><path fill-rule="evenodd" clip-rule="evenodd" d="M809 561a11 11 0 110-22 11 11 0 010 22zm0-2a9 9 0 100-18 9 9 0 000 18zm3.3-12.7l-5.3 5.3-2.3-2.3-1.4 1.4 3.7 3.7 6.7-6.7-1.4-1.4z" fill="#FA6C06"/><path opacity=".5" fill-rule="evenodd" clip-rule="evenodd" d="M1130 422H66.5v-1H1130v1z" fill="#7E97C9"/><path fill-rule="evenodd" clip-rule="evenodd" d="M869 163a15 15 0 0110.3-4H940a1 1 0 010 2h-59.9a15 15 0 00-10.3 4l-25.4 24a1 1 0 01-1.4-1.4l26-24.5zM869 243a15 15 0 0010.3 4H940a1 1 0 000-2h-59.9a15 15 0 01-10.3-4l-25.4-24a1 1 0 00-1.4 1.4l26 24.5zM907.4 76.4A15 15 0 01918 72h21.5a1 1 0 010 2h-20.6a15 15 0 00-10.6 4.4L798.4 188.2a1 1 0 11-1.4-1.4L907.4 76.4zM904.4 329.9a15 15 0 0010.6 4.4h21.5a1 1 0 000-2h-20.6a15 15 0 01-10.6-4.4L795.4 218a1 1 0 10-1.4 1.4L904.4 330z" fill="#FA6C06"/><path fill-rule="evenodd" clip-rule="evenodd" d="M397 197.5c0 .6-.4 1-1 1H253a1 1 0 010-2h143c.6 0 1 .4 1 1z" fill="#7E97C9"/><rect x="99.2" y="43.1" width="151.8" height="64.4" rx="8.8" fill="#fff"/><mask id="a" maskUnits="userSpaceOnUse" x="111" y="58" width="33" height="34"><path d="M144 75.3c0-9-7.4-16.5-16.4-16.5a16.5 16.5 0 000 33c9 0 16.4-7.4 16.4-16.5z" fill="#B5332B"/></mask><g mask="url(#a)"><path d="M144 75.3c0-9-7.4-16.5-16.4-16.5a16.5 16.5 0 000 33c9 0 16.4-7.4 16.4-16.5z" fill="#6C67AB"/><path d="M130 79.5h-4.8v5.3h4.8v-5.3z" fill="#D9A78C"/><path d="M130.6 82.6s4.5.7 5.2 1.4c.6.6 1.8 6.5 2 7.8h-10.2v-9l3-.2z" fill="#CFE1EB"/><path d="M127.6 64.3c2.3 0 6 1.4 6 7.6 0 3.6-1.2 6-1.7 6.6-.5.6-3.1 2-4.3 2V64.2z" fill="#F2D7BC"/><path d="M134.7 73.4c.1-1-.3-1.9-1-2-.7 0-1.3.6-1.4 1.6-.1 1 .3 2 1 2 .7.1 1.3-.6 1.4-1.6z" fill="#EAC0A7"/><path d="M127.6 64.3c-2.4 0-6 1.4-6 7.6 0 3.6 1.1 6 1.6 6.6.5.6 3.1 2 4.4 2V64.2z" fill="#F2D7BC"/><path d="M120.4 73.4c-.1-1 .3-1.9 1-2 .7 0 1.4.6 1.5 1.6 0 1-.4 2-1 2-.8.1-1.4-.6-1.5-1.6z" fill="#F2D7BC"/><path d="M124.6 82.6s-4.6.7-5.3 1.4c-.5.6-1.8 6.5-2 7.8h10.3v-9l-3-.2z" fill="#CFE1EB"/><path d="M127.6 82.9l-2.5-1-.6.6 1.2 2.7 1.9-2.3z" fill="#fff"/><path d="M127.6 82.9l2.4-1 .6.6-1.2 2.7-1.8-2.3z" fill="#fff"/><path d="M133.7 71.6s2-9-6.2-9-6.1 8.7-6.1 8.7 1-.6 1 2.3h.3s.4-2 .5-3.7c3 0 5.5-.4 7.6-2.2 1.2 0 1.4 1.6 1.4 2.7l-.5.2s.5 1 .5 3h.4s0-3.2 1.1-2z" fill="#8B5F3C"/><path d="M127.6 78c1 0 2-.3 2-.8h-4c0 .5.9.9 2 .9z" fill="#fff"/></g><g opacity=".8" fill="#7E97C9"><path d="M150.5 64.4h-1.2V55h1.2v9.3zM153.6 57.5v.9c.6-.7 1.3-1 2.1-1 1.5 0 2.2.8 2.2 2.4v4.6h-1.1v-4.6c0-.5-.2-.8-.4-1-.2-.3-.6-.4-1-.4s-.7 0-1 .3a2 2 0 00-.7.8v4.9h-1.2v-6.9h1.1zM162 62.8l1.6-5.3h1.2l-2.4 6.9h-1l-2.4-6.9h1.2l1.7 5.3zM168.7 64.5a3 3 0 01-2.2-1c-.6-.5-1-1.4-1-2.4V61c0-.7.2-1.3.5-1.8.2-.6.6-1 1-1.3.5-.3 1-.4 1.6-.4.9 0 1.6.3 2 .9.6.5.8 1.4.8 2.5v.5h-4.6c0 .6.2 1.2.5 1.6.4.4 1 .6 1.5.6.4 0 .8 0 1-.2l.8-.7.7.6c-.6.8-1.4 1.3-2.6 1.3zm-.1-6.2c-.5 0-.9.2-1.2.6-.3.3-.5.8-.6 1.4h3.4c0-.7-.2-1.1-.5-1.5-.2-.3-.6-.5-1.1-.5zM176.7 62.5c0-.3 0-.5-.3-.7l-1.3-.5a6 6 0 01-1.4-.4 2 2 0 01-.7-.6 1.8 1.8 0 01.5-2.3c.4-.4 1-.6 1.7-.6.8 0 1.4.2 2 .6.4.4.7.9.7 1.5h-1.2a1 1 0 00-.4-.8c-.3-.2-.6-.4-1-.4-.5 0-.8.1-1 .3-.3.2-.4.4-.4.7 0 .3 0 .5.3.7l1.2.4c.6.1 1 .3 1.4.5.4.1.7.4.9.6l.2 1c0 .6-.2 1-.7 1.4a3 3 0 01-2 .6c-.5 0-1-.1-1.4-.3l-1-.8a2 2 0 01-.3-1.2h1.1c0 .4.2.8.5 1 .3.2.7.3 1.2.3.4 0 .8 0 1-.2.3-.2.4-.5.4-.8zM181 55.8v1.7h1.3v1H181v4.2c0 .2 0 .4.2.6l.6.2.5-.1v1h-.9c-.5 0-.9 0-1.1-.4a2 2 0 01-.4-1.3v-4.3h-1.3v-.9h1.3v-1.7h1.1zM183.3 60.9c0-.7 0-1.3.3-1.8.3-.6.7-1 1.1-1.3a3 3 0 011.7-.4c.9 0 1.6.3 2.2 1 .6.6.9 1.4.9 2.5v.1a4 4 0 01-.4 1.8 2.9 2.9 0 01-2.7 1.7c-1 0-1.7-.3-2.3-1-.6-.6-.8-1.5-.8-2.6zm1.1.1c0 .8.2 1.4.6 1.8.3.5.8.7 1.4.7.6 0 1-.2 1.4-.7.3-.4.5-1.1.5-2 0-.7-.2-1.3-.5-1.8-.4-.4-.9-.7-1.4-.7-.6 0-1 .3-1.4.7-.4.5-.6 1.1-.6 2zM194.3 58.6h-.6c-.8 0-1.3.2-1.6.9v4.9H191v-6.9h1.1v.8c.4-.6 1-1 1.6-1l.6.2v1zM203.8 62H200l-.9 2.4H198l3.5-9.3h1l3.6 9.3h-1.3l-.9-2.5zm-3.5-1h3.2l-1.6-4.4-1.6 4.3zM157.1 87a2 2 0 00-.5-1.5c-.3-.4-1-.7-1.8-1-.8-.3-1.5-.6-2.1-1l-1.6-1-1-1.4c-.2-.6-.3-1.2-.3-2 0-1.2.4-2.3 1.2-3.1.8-.8 2-1.3 3.3-1.4V72h1.8v2.5c1.4.2 2.4.8 3.2 1.7.7 1 1.1 2.1 1.1 3.6h-3.3c0-1-.2-1.6-.6-2-.3-.5-.8-.7-1.5-.7a2 2 0 00-1.4.5 2 2 0 00-.5 1.5c0 .5.2 1 .5 1.4.3.3 1 .7 1.8 1l2.3 1 1.5 1.2c.4.4.7.8.9 1.4.2.5.3 1 .3 1.8 0 1.3-.4 2.3-1.2 3.1-.8.8-2 1.3-3.3 1.4v2.3H154v-2.3a5.5 5.5 0 01-3.7-1.6c-.8-1-1.2-2.2-1.2-3.8h3.3c0 1 .2 1.6.6 2.1.4.5 1 .7 1.9.7.6 0 1.1-.1 1.5-.5.4-.3.6-.8.6-1.4zM171.8 81.6h1.8c.8 0 1.4-.2 1.8-.6.4-.4.6-1 .6-1.7a2 2 0 00-.6-1.6c-.4-.3-1-.5-1.6-.5-.6 0-1.2.2-1.6.5-.4.4-.6.8-.6 1.4h-3.3c0-1 .2-1.7.7-2.4.4-.7 1-1.2 2-1.6.8-.4 1.7-.6 2.7-.6 1.8 0 3.1.5 4.1 1.3 1 .8 1.5 2 1.5 3.5 0 .7-.2 1.4-.7 2-.4.7-1 1.2-1.8 1.5a4 4 0 012 1.5c.6.7.8 1.5.8 2.4 0 1.5-.6 2.7-1.6 3.5-1.1 1-2.5 1.4-4.3 1.4-1.7 0-3-.5-4-1.3-1.1-.9-1.6-2-1.6-3.5h3.3c0 .6.2 1.1.6 1.5.5.4 1.1.6 1.8.6.8 0 1.4-.2 1.8-.6.5-.4.7-1 .7-1.6 0-1.7-1-2.5-2.7-2.5h-1.8v-2.6zM193 84.5c0 2.3-.4 4-1.4 5.3-1 1.2-2.3 1.8-4.2 1.8-1.8 0-3.2-.6-4.1-1.8a8.2 8.2 0 01-1.5-5.1v-3c0-2.4.5-4.2 1.5-5.4a5 5 0 014.1-1.8c1.8 0 3.2.6 4.2 1.8 1 1.2 1.4 3 1.4 5.1v3zm-3.3-3.4a6 6 0 00-.5-3c-.4-.6-1-.9-1.8-.9s-1.3.3-1.7.9c-.4.6-.6 1.5-.6 2.8v4c0 1.4.2 2.4.6 3 .3.7 1 1 1.7 1 .8 0 1.4-.3 1.8-1 .3-.6.5-1.5.5-2.8v-4zM196.3 95.5l-1.8-.9.4-.7a6 6 0 00.8-2.8v-2.5h2.8v2.2a6.6 6.6 0 01-2.2 4.7zM212.1 84.5c0 2.3-.4 4-1.4 5.3-1 1.2-2.3 1.8-4.2 1.8-1.8 0-3.2-.6-4.1-1.8a8.2 8.2 0 01-1.5-5.1v-3c0-2.4.5-4.2 1.5-5.4a5 5 0 014.1-1.8c1.8 0 3.2.6 4.2 1.8 1 1.2 1.4 3 1.4 5.1v3zm-3.3-3.4a6 6 0 00-.5-3c-.4-.6-1-.9-1.8-.9s-1.3.3-1.7.9c-.4.6-.6 1.5-.6 2.8v4c0 1.4.2 2.4.6 3 .3.7 1 1 1.7 1 .8 0 1.4-.3 1.8-1 .3-.6.5-1.5.5-2.8v-4zM225.5 84.5c0 2.3-.4 4-1.4 5.3-1 1.2-2.3 1.8-4.2 1.8-1.8 0-3.1-.6-4.1-1.8a8.2 8.2 0 01-1.5-5.1v-3c0-2.4.5-4.2 1.5-5.4a5 5 0 014.1-1.8c1.8 0 3.2.6 4.2 1.8 1 1.2 1.4 3 1.4 5.1v3zm-3.3-3.4a6 6 0 00-.5-3c-.4-.6-1-.9-1.8-.9s-1.3.3-1.7.9c-.4.6-.6 1.5-.6 2.8v4c0 1.4.2 2.4.6 3 .3.7 1 1 1.7 1 .8 0 1.4-.3 1.8-1 .3-.6.5-1.5.5-2.8v-4zM239 84.5c0 2.3-.5 4-1.5 5.3-1 1.2-2.3 1.8-4.2 1.8-1.8 0-3.1-.6-4.1-1.8a8.2 8.2 0 01-1.5-5.1v-3c0-2.4.5-4.2 1.5-5.4a5 5 0 014.1-1.8c1.8 0 3.2.6 4.2 1.8 1 1.2 1.4 3 1.4 5.1v3zm-3.4-3.4a6 6 0 00-.5-3c-.4-.6-1-.9-1.8-.9s-1.3.3-1.7.9c-.4.6-.6 1.5-.6 2.8v4c0 1.4.2 2.4.6 3 .3.7 1 1 1.7 1 .9 0 1.4-.3 1.8-1 .3-.6.5-1.5.5-2.8v-4z"/></g><rect x="99.2" y="43.1" width="151.8" height="64.4" rx="8.8" stroke="#7E97C9" stroke-width="1.9"/><rect x="939.4" y="43" width="138.4" height="64.4" rx="8.8" fill="#fff"/><mask id="b" maskUnits="userSpaceOnUse" x="951" y="58" width="34" height="34"><path d="M984.2 75.2c0-9.1-7.3-16.5-16.4-16.5a16.5 16.5 0 000 33c9 0 16.4-7.4 16.4-16.5z" fill="#B5332B"/></mask><g mask="url(#b)"><path d="M984.2 75.2c0-9.1-7.3-16.5-16.4-16.5a16.5 16.5 0 000 33c9 0 16.4-7.4 16.4-16.5z" fill="#FA6C06"/><path d="M970.2 79.3h-4.8v5.3h4.8v-5.3z" fill="#D9A78C"/><path d="M970.8 82.5s4.6.7 5.3 1.4c.5.6 1.8 6.5 2 7.8h-10.3v-9l3-.2z" fill="#CFE1EB"/><path d="M967.8 64.2c2.4 0 6 1.3 6 7.6 0 3.6-1.1 6-1.6 6.6-.5.6-3.1 1.9-4.4 1.9V64.2z" fill="#F2D7BC"/><path d="M975 73.2c.1-1-.4-1.9-1-2-.8 0-1.4.7-1.5 1.7 0 1 .4 1.9 1 2 .8 0 1.4-.7 1.5-1.7z" fill="#EAC0A7"/><path d="M967.8 64.2c-2.3 0-6 1.3-6 7.6 0 3.6 1.2 6 1.7 6.6.4.6 3 1.9 4.3 1.9V64.2z" fill="#F2D7BC"/><path d="M960.6 73.2c0-1 .4-1.9 1.1-2 .7 0 1.3.7 1.4 1.7.1 1-.3 1.9-1 2-.7 0-1.3-.7-1.5-1.7z" fill="#F2D7BC"/><path d="M964.8 82.5s-4.5.7-5.2 1.4c-.6.6-1.8 6.5-2 7.8h10.2v-9l-3-.2z" fill="#CFE1EB"/><path d="M967.8 82.7l-2.4-1-.6.6 1.2 2.8 1.8-2.4zM967.8 82.7l2.5-1 .6.6-1.2 2.8-1.9-2.4z" fill="#fff"/><path d="M974 71.4s2-9-6.2-9-6.2 8.8-6.2 8.8 1.1-.7 1.1 2.2h.3s.4-2 .5-3.7c2.9 0 5.4-.3 7.6-2.1 1.2 0 1.4 1.5 1.4 2.7l-.6.2s.5 1 .6 3h.3s0-3.3 1.2-2.1z" fill="#8B5F3C"/><path d="M967.8 77.9c1.1 0 2-.4 2-.8h-4c0 .4 1 .8 2 .8z" fill="#fff"/></g><g opacity=".8" fill="#FA6C06"><path d="M990.7 64.2h-1.2V55h1.2v9.2zM993.9 57.3v1c.6-.8 1.2-1 2-1 1.5 0 2.3.7 2.3 2.4v4.5H997v-4.5c0-.5-.1-.9-.3-1.1-.3-.3-.6-.4-1-.4s-.8.1-1 .3a2 2 0 00-.7.8v4.9h-1.2v-6.9h1.1zM1002.2 62.6l1.7-5.3h1.2l-2.5 6.9h-.9l-2.4-6.9h1.2l1.7 5.3zM1009 64.3a3 3 0 01-2.3-.9c-.6-.6-.9-1.4-.9-2.4v-.3c0-.6.2-1.2.4-1.8.3-.5.6-1 1.1-1.2.5-.3 1-.5 1.5-.5 1 0 1.6.3 2.1.9.5.6.8 1.4.8 2.5v.5h-4.7c0 .7.2 1.2.6 1.6.4.5.9.7 1.4.7.5 0 .8-.1 1.1-.3l.8-.7.7.6c-.6.9-1.5 1.3-2.6 1.3zm-.2-6.1c-.4 0-.8.2-1.1.5-.4.3-.6.8-.7 1.4h3.5c0-.6-.2-1.1-.5-1.4-.3-.4-.7-.5-1.2-.5zM1017 62.4c0-.3-.1-.6-.4-.8l-1.2-.4c-.6-.1-1-.3-1.4-.5a2 2 0 01-.8-.6c-.2-.2-.2-.5-.2-.9 0-.5.2-1 .7-1.4.4-.4 1-.6 1.8-.6s1.4.2 1.9.6c.5.4.7 1 .7 1.6h-1.2a1 1 0 00-.4-.9c-.3-.2-.6-.3-1-.3s-.8 0-1 .3c-.2.1-.4.4-.4.7 0 .3.1.5.4.6.2.2.6.3 1.2.4l1.4.5c.4.2.6.4.8.7.2.2.3.5.3.9 0 .6-.3 1.1-.8 1.5a3 3 0 01-1.9.5c-.5 0-1 0-1.4-.3-.4-.2-.8-.4-1-.8a2 2 0 01-.4-1.1h1.2c0 .4.2.7.5 1 .3.2.6.3 1.1.3.5 0 .8-.1 1.1-.3.3-.2.4-.4.4-.7zM1021.3 55.7v1.6h1.3v1h-1.3v4.2c0 .3 0 .5.2.6 0 .2.3.2.5.2h.6v.9l-.9.1c-.5 0-1-.1-1.2-.5-.3-.3-.4-.7-.4-1.3v-4.2h-1.2v-1h1.2v-1.6h1.2zM1023.5 60.7c0-.7.1-1.3.4-1.8.3-.5.6-1 1.1-1.2a3 3 0 011.6-.5c1 0 1.7.3 2.3 1 .6.6.8 1.5.8 2.6a4 4 0 01-.3 1.8 3 3 0 01-2.8 1.7c-.9 0-1.6-.3-2.2-1-.6-.6-.9-1.4-.9-2.5zm1.2.1c0 .8.2 1.4.5 1.9.4.4.8.7 1.4.7.6 0 1.1-.3 1.5-.7.3-.5.5-1.2.5-2 0-.7-.2-1.4-.6-1.8-.3-.5-.8-.7-1.4-.7-.6 0-1 .2-1.4.7-.3.4-.5 1-.5 2zM1034.5 58.4h-.5c-.8 0-1.3.3-1.6 1v4.8h-1.2v-6.9h1.1v.8c.5-.6 1-.9 1.7-.9l.5.1v1.1zM1044.1 61.8h-3.9l-.8 2.4h-1.3l3.5-9.2h1.1l3.5 9.2h-1.2l-.9-2.4zm-3.5-1h3.1l-1.5-4.3-1.6 4.3zM997.4 86.8a2 2 0 00-.5-1.5c-.4-.3-1-.7-1.8-1l-2.1-.9-1.6-1c-.4-.5-.8-1-1-1.5-.2-.5-.4-1.2-.4-1.9 0-1.3.5-2.3 1.3-3.2.8-.8 1.9-1.3 3.2-1.4V72h1.9v2.4c1.3.2 2.4.8 3.1 1.7.8 1 1.2 2.2 1.2 3.6h-3.3c0-.9-.2-1.6-.6-2-.4-.5-.9-.7-1.5-.7a2 2 0 00-1.4.6 2 2 0 00-.6 1.4c0 .6.2 1 .5 1.4.4.4 1 .7 1.9 1l2.2 1.1c.6.3 1.1.7 1.5 1.1l1 1.4c.2.5.3 1.1.3 1.8 0 1.3-.4 2.3-1.2 3.2-.8.8-2 1.2-3.4 1.4v2.2h-1.8v-2.2a5.5 5.5 0 01-3.6-1.7c-.9-.9-1.3-2.2-1.3-3.7h3.3c0 .9.2 1.6.7 2 .4.6 1 .8 1.8.8.7 0 1.2-.2 1.6-.5.4-.4.6-.9.6-1.5zM1020 91.2h-11.3v-2.3l5.4-5.7 1.6-2c.4-.7.5-1.3.5-1.8 0-.7-.1-1.3-.5-1.7-.4-.5-1-.7-1.6-.7-.8 0-1.3.3-1.8.8a3 3 0 00-.6 2h-3.3c0-1 .2-2 .7-2.7.5-.9 1.2-1.5 2-2 1-.5 2-.7 3-.7 1.8 0 3 .4 4 1.2 1 .8 1.4 2 1.4 3.5 0 .8-.2 1.6-.6 2.5-.4.8-1.1 1.8-2.2 3l-3.7 4h7v2.6zM1023.1 95.4l-1.7-1 .4-.7a6 6 0 00.8-2.8v-2.5h2.8v2.3a6.6 6.6 0 01-2.2 4.7zM1036.8 74.4v2.7h-.4c-1.5 0-2.7.5-3.6 1.2-.9.8-1.4 1.8-1.6 3.1.9-.9 2-1.3 3.3-1.3 1.5 0 2.6.5 3.5 1.5.8 1 1.3 2.4 1.3 4.1 0 1.1-.3 2-.8 3a5 5 0 01-2 2c-.8.5-1.7.7-2.8.7-1.8 0-3.2-.6-4.3-1.8a7.1 7.1 0 01-1.6-4.9v-1.2c0-1.8.4-3.3 1-4.7a7.5 7.5 0 013-3.2 8.6 8.6 0 014.4-1.2h.5zm-3.3 8.3a2.6 2.6 0 00-2.4 1.6v1c0 1 .3 2 .7 2.5.4.7 1 1 1.8 1a2 2 0 001.7-.9c.5-.5.7-1.3.7-2.1 0-1-.2-1.7-.7-2.2-.4-.6-1-.9-1.8-.9zM1050.2 74.4v2.7h-.4c-1.5 0-2.6.5-3.6 1.2-.9.8-1.4 1.8-1.6 3.1.9-.9 2-1.3 3.4-1.3s2.5.5 3.4 1.5c.8 1 1.3 2.4 1.3 4.1 0 1.1-.3 2-.7 3a5 5 0 01-2 2c-.9.5-1.8.7-3 .7-1.7 0-3-.6-4.2-1.8a7.1 7.1 0 01-1.6-4.9v-1.2c0-1.8.4-3.3 1-4.7a7.5 7.5 0 013-3.2 8.5 8.5 0 014.4-1.2h.6zm-3.3 8.3c-.5 0-1 .2-1.4.5-.4.2-.8.6-1 1v1c0 1.2.3 2 .7 2.6.4.7 1 1 1.8 1a2 2 0 001.7-.9c.5-.5.7-1.3.7-2.1 0-1-.2-1.7-.7-2.2-.4-.6-1-.9-1.8-.9zM1065.8 84.3c0 2.3-.5 4-1.4 5.3-1 1.2-2.4 1.8-4.2 1.8-1.8 0-3.2-.6-4.2-1.8a8.1 8.1 0 01-1.4-5v-3.1c0-2.4.5-4.1 1.4-5.3 1-1.2 2.4-1.8 4.2-1.8a5 5 0 014.1 1.8c1 1.1 1.5 2.9 1.5 5v3.1zm-3.3-3.3a6 6 0 00-.6-3c-.3-.6-1-1-1.7-1-.8 0-1.4.3-1.7 1-.4.5-.6 1.5-.6 2.7v4c0 1.4.2 2.4.5 3 .4.7 1 1 1.8 1s1.4-.2 1.7-.9c.4-.6.6-1.6.6-2.9v-4z"/></g><rect x="939.4" y="43" width="138.4" height="64.4" rx="8.8" stroke="#FA6C06" stroke-width="1.9"/><rect x="698.9" y="167.7" width="158" height="65" rx="8.8" fill="#fff"/><path d="M754.7 191.2h-5.2L716.7 207v5.6a3 3 0 003 3h35c1.6 0 2.9-1.3 2.8-3v-18.3a3 3 0 00-2.7-3z" fill="#67AB82"/><path d="M751.7 191.3v14.8a3 3 0 01-2.9 3h-35a3 3 0 01-3-3v-18.3a3 3 0 013-3h35a3 3 0 013 3v3.5z" fill="#7EC9A5"/><path d="M746.4 206a2.1 2.1 0 100-4.3 2.1 2.1 0 000 4.2zM731.3 206.4a9.4 9.4 0 100-18.8 9.4 9.4 0 000 18.8zM716.2 192.2a2.1 2.1 0 100-4.3 2.1 2.1 0 000 4.3z" fill="#67AB82"/><path d="M731.2 195.7a1.6 1.6 0 110-3.3c.9 0 1.6.7 1.6 1.6a1 1 0 002.1 0c0-1.7-1.1-3.2-2.8-3.6v-.2a1 1 0 10-2.1 0v.3c-1.5.5-2.5 2-2.6 3.5 0 2.1 1.7 3.8 3.8 3.8.9 0 1.6.7 1.6 1.6a1.5 1.5 0 01-1.6 1.6c-.9 0-1.6-.6-1.6-1.5a1 1 0 00-2.2 0c0 1.5 1 3 2.6 3.4v.5a1 1 0 102.1 0v-.4a3.7 3.7 0 002.8-3.6c0-2-1.6-3.7-3.6-3.7z" fill="#E9EB85"/><g opacity=".8" fill="#67AB82"><path d="M764.3 180.3l3 7.6 3-7.6h1.6v9.3h-1.2V186l.1-3.9-3 7.5h-1l-3-7.5.2 3.9v3.6h-1.2v-9.3h1.5zM778.1 189.6l-.1-.8c-.6.6-1.2.9-2 .9-.7 0-1.2-.2-1.7-.6-.4-.4-.6-.8-.6-1.4 0-.7.3-1.3.8-1.7.6-.4 1.3-.6 2.3-.6h1.1v-.5c0-.4 0-.8-.3-1-.3-.2-.6-.4-1.1-.4-.4 0-.8.1-1 .4-.3.2-.5.4-.5.7h-1.2c0-.3.2-.7.4-1 .2-.3.6-.5 1-.7.4-.2.9-.3 1.4-.3.7 0 1.4.2 1.8.6.5.4.7 1 .7 1.6v3.2c0 .6 0 1.1.3 1.5H778zm-2-1c.4 0 .8 0 1.1-.2.4-.2.6-.4.7-.8v-1.4h-.9c-1.4 0-2.1.5-2.1 1.3 0 .4 0 .7.3.9.3.2.6.3 1 .3zM782.9 186.4l-.8.8v2.4H781v-9.8h1.1v6l.7-.8 2-2.3h1.5l-2.7 2.9 3 4h-1.4l-2.3-3.2zM790.2 189.7a3 3 0 01-2.2-1c-.6-.5-.9-1.3-.9-2.4v-.2c0-.7.1-1.3.4-1.8.2-.5.6-1 1-1.3.5-.3 1-.4 1.6-.4.9 0 1.6.3 2 .9.6.6.8 1.4.8 2.5v.5h-4.6c0 .7.2 1.2.6 1.6.3.4.8.6 1.4.6.4 0 .8 0 1-.2l.8-.7.7.6c-.6.9-1.4 1.3-2.6 1.3zm-.1-6.1c-.5 0-.9.1-1.2.5-.3.3-.5.8-.6 1.4h3.4c0-.7-.2-1.1-.4-1.5-.3-.3-.7-.4-1.2-.4zM798.3 187.8c0-.4-.2-.6-.4-.8-.2-.2-.7-.3-1.2-.4l-1.5-.5a2 2 0 01-.7-.6l-.3-.9c0-.6.3-1 .7-1.4.5-.4 1.1-.6 1.9-.6.7 0 1.4.2 1.8.6.5.4.8 1 .8 1.5h-1.2a1 1 0 00-.4-.8c-.3-.2-.6-.3-1-.3-.5 0-.8 0-1 .2-.3.2-.4.5-.4.8 0 .2.1.5.3.6l1.2.4 1.5.5.8.6.2 1c0 .6-.2 1-.7 1.4-.5.4-1.1.6-2 .6-.5 0-1-.1-1.4-.3l-1-.8a2 2 0 01-.3-1.1h1.2c0 .4.1.7.4.9.3.2.7.3 1.2.3.4 0 .8 0 1-.2.3-.2.5-.4.5-.7zM808.4 189.6l-.2-.8c-.5.6-1.2.9-2 .9-.6 0-1.1-.2-1.6-.6-.4-.4-.6-.8-.6-1.4 0-.7.2-1.3.8-1.7.5-.4 1.3-.6 2.3-.6h1.1v-.5c0-.4-.1-.8-.3-1-.3-.2-.7-.4-1.1-.4-.4 0-.8.1-1 .4-.4.2-.5.4-.5.7H804c0-.3.1-.7.4-1 .2-.3.6-.5 1-.7.4-.2.8-.3 1.3-.3.8 0 1.4.2 1.9.6.4.4.7 1 .7 1.6v3.2c0 .6 0 1.1.2 1.5h-1.2zm-2-1c.4 0 .8 0 1.1-.2.3-.2.6-.4.7-.8v-1.4h-.9c-1.4 0-2.2.5-2.2 1.3 0 .4.2.7.4.9.3.2.6.3 1 .3zM815.8 186v3.6h-1.2v-9.3h3.4c1 0 1.8.3 2.4.8.6.5.9 1.2.9 2 0 1-.3 1.7-.9 2.1-.5.5-1.3.8-2.4.8h-2.2zm0-1h2.2c.7 0 1.2-.2 1.5-.5.4-.3.5-.7.5-1.3 0-.6-.1-1-.5-1.3a2 2 0 00-1.4-.6h-2.3v3.7zM826 183.8h-.6c-.8 0-1.3.3-1.6 1v4.8h-1.2v-6.9h1.2v.8c.4-.6 1-1 1.6-1l.5.2v1zM826.6 186c0-.6.1-1.2.4-1.7.2-.6.6-1 1-1.3a3 3 0 011.7-.4c1 0 1.7.3 2.3 1 .5.6.8 1.5.8 2.5v.1a4 4 0 01-.4 1.8 2.9 2.9 0 01-2.7 1.7c-1 0-1.7-.3-2.3-1-.5-.6-.8-1.5-.8-2.5v-.1zm1.2.2c0 .8.1 1.4.5 1.8.3.5.8.7 1.4.7.6 0 1-.2 1.4-.7.4-.4.5-1 .5-2 0-.7-.1-1.3-.5-1.7-.3-.5-.8-.7-1.4-.7-.6 0-1 .2-1.4.6-.4.5-.5 1.2-.5 2zM834.9 189.6v-6h-1.1v-.9h1v-.7c0-.7.3-1.3.7-1.7.3-.4.9-.6 1.6-.6l.8.1v1h-.7c-.4 0-.6 0-.9.2-.2.3-.3.6-.3 1v.7h1.5v1H836v5.9H835zM840 189.6H839v-6.9h1.2v6.9zm-1.2-8.7c0-.2 0-.3.2-.5l.5-.2c.2 0 .4 0 .5.2l.2.5c0 .2 0 .3-.2.5l-.5.2-.5-.2a.7.7 0 01-.2-.5zM843.5 181v1.7h1.3v1h-1.3v4.2l.2.6.6.2h.6v.9l-1 .1c-.5 0-.9-.2-1.1-.5a2 2 0 01-.4-1.3v-4.3H841v-.9h1.3v-1.6h1.1zM770.7 212.2a2 2 0 00-.5-1.5c-.4-.3-1-.7-1.8-1-.8-.3-1.5-.6-2.1-1-.6-.2-1.1-.6-1.6-1l-1-1.4c-.2-.5-.3-1.2-.3-2 0-1.2.4-2.3 1.2-3 .8-.9 1.9-1.4 3.3-1.5v-2.5h1.8v2.5c1.3.2 2.4.8 3.1 1.7.8 1 1.2 2.1 1.2 3.6h-3.3c0-.9-.2-1.6-.6-2-.4-.5-.9-.7-1.5-.7a2 2 0 00-1.4.5 2 2 0 00-.5 1.5c0 .6.1 1 .5 1.4.3.3 1 .7 1.8 1l2.3 1 1.4 1.2c.4.4.8.8 1 1.4.2.5.3 1 .3 1.8 0 1.3-.4 2.3-1.2 3.1-.8.8-2 1.3-3.4 1.5v2.2h-1.8v-2.2a5.5 5.5 0 01-3.6-1.7c-.8-1-1.3-2.2-1.3-3.7h3.3c0 .9.2 1.6.7 2 .4.5 1 .8 1.8.8.7 0 1.2-.2 1.6-.6.4-.3.6-.8.6-1.4zM789.7 210c-.8.8-1.8 1.2-3 1.2-1.4 0-2.6-.5-3.5-1.5a6 6 0 01-1.3-4c0-1.2.2-2.2.7-3 .5-1 1.1-1.7 2-2.2.8-.5 1.8-.8 2.9-.8a5.4 5.4 0 014.9 3.2c.4 1 .7 2.2.7 3.5v1.3c0 2.7-.7 5-2 6.5a7.8 7.8 0 01-6 2.5h-.7V214h.7c2.8-.2 4.4-1.5 4.6-4zm-2.2-1.3c.6 0 1-.2 1.4-.4.4-.3.7-.6.9-1v-1.4c0-1-.2-2-.7-2.6a2 2 0 00-3.3 0c-.4.6-.6 1.4-.6 2.3 0 .9.2 1.6.6 2.2.4.6 1 .9 1.7.9zM796.4 220.7l-1.7-.9.4-.7a6 6 0 00.8-2.8v-2.5h2.8v2.2a6.5 6.5 0 01-2.2 4.7zM801.6 208.4l1-8.4h9.3v2.7h-6.6l-.4 3.6c.8-.4 1.6-.6 2.5-.6 1.5 0 2.8.5 3.7 1.4.9 1 1.3 2.4 1.3 4.1 0 1.1-.2 2-.7 3-.4.8-1 1.4-1.9 1.9-.8.5-1.8.7-3 .7-1 0-2-.2-2.8-.6a4.7 4.7 0 01-2.8-4.2h3.3c0 .6.3 1.2.7 1.6.4.4 1 .5 1.6.5a2 2 0 001.7-.8c.4-.5.6-1.3.6-2.2 0-1-.2-1.7-.7-2.2-.4-.5-1-.8-2-.8-.7 0-1.4.3-1.8.7l-.4.3-2.6-.7zM825.7 209.7c0 2.3-.5 4-1.4 5.3-1 1.2-2.4 1.8-4.2 1.8-1.8 0-3.2-.6-4.1-1.8a8.2 8.2 0 01-1.5-5.1v-3c0-2.4.5-4.2 1.4-5.4a5 5 0 014.2-1.8c1.8 0 3.2.6 4.1 1.8 1 1.2 1.5 3 1.5 5.2v3zm-3.3-3.3a6 6 0 00-.6-3c-.3-.7-1-1-1.7-1-.8 0-1.4.3-1.7 1-.4.5-.6 1.4-.6 2.7v4c0 1.4.2 2.4.5 3 .4.7 1 1 1.8 1s1.4-.3 1.8-1c.3-.5.5-1.5.5-2.8v-4zM839.1 209.7c0 2.3-.5 4-1.4 5.3-1 1.2-2.4 1.8-4.2 1.8-1.8 0-3.2-.6-4.1-1.8a8.2 8.2 0 01-1.5-5.1v-3c0-2.4.5-4.2 1.4-5.4a5 5 0 014.2-1.8c1.8 0 3.2.6 4.1 1.8 1 1.2 1.5 3 1.5 5.2v3zm-3.3-3.3a6 6 0 00-.6-3c-.3-.7-1-1-1.7-1-.8 0-1.4.3-1.7 1-.4.5-.6 1.4-.6 2.7v4c0 1.4.2 2.4.5 3 .4.7 1 1 1.8 1s1.4-.3 1.8-1c.3-.5.5-1.5.5-2.8v-4z"/></g><rect x="698.9" y="167.7" width="158" height="65" rx="8.8" stroke="#FA6C06" stroke-width="1.9"/><rect x="99.2" y="168.3" width="151.8" height="64.4" rx="8.8" fill="#fff"/><mask id="c" maskUnits="userSpaceOnUse" x="111" y="183" width="33" height="34"><path d="M144 200.5c0-9.1-7.4-16.5-16.4-16.5a16.5 16.5 0 000 33c9 0 16.4-7.4 16.4-16.5z" fill="#B5332B"/></mask><g mask="url(#c)"><path d="M144 200.5c0-9.1-7.4-16.5-16.4-16.5a16.5 16.5 0 000 33c9 0 16.4-7.4 16.4-16.5z" fill="#6C67AB"/><path d="M130 204.6h-4.8v5.3h4.8v-5.3z" fill="#D9A78C"/><path d="M130.6 207.8s4.5.7 5.2 1.4c.6.6 1.8 6.5 2 7.8h-10.2v-9l3-.2z" fill="#CFE1EB"/><path d="M127.6 189.5c2.3 0 6 1.3 6 7.6 0 3.6-1.2 6-1.7 6.6-.5.6-3.1 1.9-4.3 1.9v-16.1z" fill="#F2D7BC"/><path d="M134.7 198.5c.1-1-.3-1.9-1-2-.7 0-1.3.7-1.4 1.7-.1 1 .3 1.9 1 2 .7 0 1.3-.7 1.4-1.7z" fill="#EAC0A7"/><path d="M127.6 189.5c-2.4 0-6 1.3-6 7.6 0 3.6 1.1 6 1.6 6.6.5.6 3.1 1.9 4.4 1.9v-16.1z" fill="#F2D7BC"/><path d="M120.4 198.5c-.1-1 .3-1.9 1-2 .7 0 1.4.7 1.5 1.7 0 1-.4 1.9-1 2-.8 0-1.4-.7-1.5-1.7z" fill="#F2D7BC"/><path d="M124.6 207.8s-4.6.7-5.3 1.4c-.5.6-1.8 6.5-2 7.8h10.3v-9l-3-.2z" fill="#CFE1EB"/><path d="M127.6 208l-2.5-1-.6.7 1.2 2.7 1.9-2.4zM127.6 208l2.4-1 .6.7-1.2 2.7-1.8-2.4z" fill="#fff"/><path d="M133.7 196.7s2-9-6.2-9-6.1 8.8-6.1 8.8 1-.7 1 2.2h.3s.4-2 .5-3.7c3 0 5.5-.3 7.6-2.1 1.2 0 1.4 1.5 1.4 2.7l-.5.2s.5 1 .5 3h.4s0-3.3 1.1-2z" fill="#8B5F3C"/><path d="M127.6 203.2c1 0 2-.4 2-.8h-4c0 .4.9.8 2 .8z" fill="#fff"/></g><g opacity=".8" fill="#7E97C9"><path d="M150.5 189.5h-1.2v-9.2h1.2v9.2zM153.6 182.6v1c.6-.7 1.3-1 2.1-1 1.5 0 2.2.7 2.2 2.4v4.5h-1.1V185c0-.5-.2-.9-.4-1.1-.2-.3-.6-.4-1-.4s-.7.1-1 .3a2 2 0 00-.7.8v4.9h-1.2v-6.9h1.1zM162 188l1.6-5.4h1.2l-2.4 6.9h-1l-2.4-6.9h1.2l1.7 5.3zM168.7 189.6a3 3 0 01-2.2-.9c-.6-.6-1-1.4-1-2.4v-.3c0-.6.2-1.2.5-1.8.2-.5.6-1 1-1.2.5-.3 1-.5 1.6-.5.9 0 1.6.3 2 .9.6.6.8 1.4.8 2.5v.5h-4.6c0 .7.2 1.2.5 1.6.4.5 1 .7 1.5.7.4 0 .8-.1 1-.3l.8-.7.7.6c-.6.9-1.4 1.3-2.6 1.3zm-.1-6.1c-.5 0-.9.2-1.2.5-.3.3-.5.8-.6 1.4h3.4c0-.6-.2-1.1-.5-1.4-.2-.4-.6-.5-1.1-.5zM176.7 187.7c0-.3 0-.6-.3-.8l-1.3-.4a6 6 0 01-1.4-.5 2 2 0 01-.7-.6c-.2-.2-.3-.5-.3-.9 0-.5.2-1 .7-1.4.5-.4 1.1-.6 1.8-.6.8 0 1.4.2 2 .6.4.4.7 1 .7 1.6h-1.2a1 1 0 00-.4-.9c-.3-.2-.6-.3-1-.3-.5 0-.8 0-1 .3-.3.1-.4.4-.4.7 0 .3 0 .5.3.6.2.2.6.3 1.2.4l1.4.5c.4.2.7.4.9.7l.2.9c0 .6-.2 1.1-.7 1.5a3 3 0 01-2 .5c-.5 0-1 0-1.4-.3-.4-.2-.7-.4-1-.8a2 2 0 01-.3-1.1h1.1c0 .4.2.7.5 1 .3.2.7.3 1.2.3.4 0 .8-.1 1-.3.3-.2.4-.4.4-.7zM181 181v1.6h1.3v1H181v4.2c0 .3 0 .5.2.6.1.2.3.2.6.2h.5v.9l-.9.1c-.5 0-.9-.1-1.1-.4a2 2 0 01-.4-1.4v-4.2h-1.3v-1h1.3V181h1.1zM183.3 186c0-.7 0-1.3.3-1.8s.7-1 1.1-1.2a3 3 0 011.7-.5c.9 0 1.6.3 2.2 1 .6.6.9 1.5.9 2.6a4 4 0 01-.4 1.8 2.9 2.9 0 01-2.7 1.7c-1 0-1.7-.3-2.3-1-.6-.6-.8-1.4-.8-2.5zm1.1.2c0 .7.2 1.3.6 1.8.3.4.8.7 1.4.7.6 0 1-.3 1.4-.7.3-.5.5-1.2.5-2 0-.7-.2-1.3-.5-1.8-.4-.5-.9-.7-1.4-.7-.6 0-1 .2-1.4.7-.4.4-.6 1-.6 2zM194.3 183.7h-.6c-.8 0-1.3.3-1.6 1v4.8H191v-6.9h1.1v.8c.4-.6 1-.9 1.6-.9l.6.1v1.1zM198.8 189.5v-9.2h3c1 0 1.7.2 2.2.6.5.4.8 1 .8 1.8 0 .5-.1.8-.4 1.2-.2.3-.6.6-1 .7.5.2.9.5 1.2.8.3.4.4.9.4 1.4 0 .9-.2 1.5-.8 2-.5.5-1.3.7-2.3.7h-3.1zm1.2-4.3v3.3h2c.5 0 1-.1 1.3-.4.3-.3.5-.7.5-1.2 0-1.2-.6-1.7-1.8-1.7h-2zm0-1h1.8c.5 0 1-.1 1.3-.4.3-.3.5-.6.5-1 0-.6-.2-1-.5-1.2-.3-.2-.7-.3-1.3-.3H200v3zM157.1 212.1a2 2 0 00-.5-1.4c-.3-.4-1-.8-1.8-1l-2.1-1-1.6-1-1-1.5c-.2-.5-.3-1.2-.3-1.9 0-1.3.4-2.3 1.2-3.2.8-.8 2-1.3 3.3-1.4v-2.4h1.8v2.4c1.4.2 2.4.8 3.2 1.7.7 1 1.1 2.2 1.1 3.6h-3.3c0-.9-.2-1.5-.6-2-.3-.5-.8-.7-1.5-.7a2 2 0 00-1.4.6 2 2 0 00-.5 1.4c0 .6.2 1 .5 1.4.3.4 1 .7 1.8 1l2.3 1.1c.6.3 1 .7 1.5 1.1.4.4.7.9.9 1.4.2.5.3 1.1.3 1.8 0 1.3-.4 2.4-1.2 3.2-.8.8-2 1.2-3.3 1.4v2.3H154v-2.3a5.5 5.5 0 01-3.7-1.7c-.8-.9-1.2-2.2-1.2-3.7h3.3c0 .9.2 1.6.6 2 .4.6 1 .8 1.9.8.6 0 1.1-.2 1.5-.5.4-.4.6-.9.6-1.5zM169 208.3l1-8.4h9.2v2.8h-6.6l-.4 3.5c.8-.4 1.6-.6 2.5-.6 1.6 0 2.8.5 3.7 1.5 1 1 1.4 2.3 1.4 4 0 1.1-.3 2.1-.7 3-.5.8-1.1 1.5-2 2-.8.4-1.8.6-3 .6-1 0-1.9-.2-2.7-.6a4.7 4.7 0 01-2.8-4.2h3.2c0 .7.3 1.2.7 1.6.4.4 1 .6 1.6.6a2 2 0 001.8-.8c.4-.6.6-1.3.6-2.3 0-1-.3-1.7-.7-2.2-.5-.5-1.2-.7-2-.7s-1.4.2-2 .6l-.2.3-2.7-.7zM182.4 208.3l1-8.4h9.2v2.8H186l-.4 3.5c.8-.4 1.6-.6 2.5-.6 1.6 0 2.8.5 3.7 1.5 1 1 1.4 2.3 1.4 4 0 1.1-.3 2.1-.7 3-.5.8-1.1 1.5-2 2-.8.4-1.8.6-3 .6-1 0-1.9-.2-2.7-.6a4.7 4.7 0 01-2.8-4.2h3.2c0 .7.3 1.2.7 1.6.4.4 1 .6 1.6.6a2 2 0 001.8-.8c.4-.6.6-1.3.6-2.3 0-1-.3-1.7-.7-2.2-.5-.5-1.2-.7-2-.7s-1.4.2-2 .6l-.2.3-2.6-.7zM196.3 220.7l-1.8-1 .4-.7a6 6 0 00.8-2.8v-2.5h2.8v2.3a6.6 6.6 0 01-2.2 4.7zM212.1 209.6c0 2.3-.4 4-1.4 5.3-1 1.2-2.3 1.8-4.2 1.8-1.8 0-3.2-.6-4.1-1.8a8.2 8.2 0 01-1.5-5v-3.1c0-2.4.5-4.1 1.5-5.3a5 5 0 014.1-1.8c1.8 0 3.2.6 4.2 1.8 1 1.2 1.4 2.9 1.4 5v3.1zm-3.3-3.3a6 6 0 00-.5-3c-.4-.6-1-1-1.8-1s-1.3.3-1.7 1c-.4.5-.6 1.5-.6 2.7v4c0 1.4.2 2.4.6 3 .3.7 1 1 1.7 1 .8 0 1.4-.2 1.8-.9.3-.6.5-1.6.5-2.9v-4zM225.5 209.6c0 2.3-.4 4-1.4 5.3-1 1.2-2.3 1.8-4.2 1.8-1.8 0-3.1-.6-4.1-1.8a8.2 8.2 0 01-1.5-5v-3.1c0-2.4.5-4.1 1.5-5.3a5 5 0 014.1-1.8c1.8 0 3.2.6 4.2 1.8 1 1.2 1.4 2.9 1.4 5v3.1zm-3.3-3.3a6 6 0 00-.5-3c-.4-.6-1-1-1.8-1s-1.3.3-1.7 1c-.4.5-.6 1.5-.6 2.7v4c0 1.4.2 2.4.6 3 .3.7 1 1 1.7 1 .8 0 1.4-.2 1.8-.9.3-.6.5-1.6.5-2.9v-4zM239 209.6c0 2.3-.5 4-1.5 5.3-1 1.2-2.3 1.8-4.2 1.8-1.8 0-3.1-.6-4.1-1.8a8.2 8.2 0 01-1.5-5v-3.1c0-2.4.5-4.1 1.5-5.3a5 5 0 014.1-1.8c1.8 0 3.2.6 4.2 1.8 1 1.2 1.4 2.9 1.4 5v3.1zm-3.4-3.3a6 6 0 00-.5-3c-.4-.6-1-1-1.8-1s-1.3.3-1.7 1c-.4.5-.6 1.5-.6 2.7v4c0 1.4.2 2.4.6 3 .3.7 1 1 1.7 1 .9 0 1.4-.2 1.8-.9.3-.6.5-1.6.5-2.9v-4z"/></g><rect x="99.2" y="168.3" width="151.8" height="64.4" rx="8.8" stroke="#7E97C9" stroke-width="1.9"/><rect x="939.4" y="129.8" width="138.4" height="64.4" rx="8.8" fill="#fff"/><mask id="d" maskUnits="userSpaceOnUse" x="951" y="145" width="34" height="34"><path d="M984.2 162c0-9-7.3-16.5-16.4-16.5a16.5 16.5 0 000 33c9 0 16.4-7.4 16.4-16.5z" fill="#B5332B"/></mask><g mask="url(#d)"><path d="M984.2 162c0-9-7.3-16.5-16.4-16.5a16.5 16.5 0 000 33c9 0 16.4-7.4 16.4-16.5z" fill="#FA6C06"/><path d="M970.2 166.2h-4.8v5.3h4.8v-5.3z" fill="#D9A78C"/><path d="M970.8 169.3s4.6.7 5.3 1.4c.5.6 1.8 6.5 2 7.8h-10.3v-9l3-.2z" fill="#CFE1EB"/><path d="M967.8 151c2.4 0 6 1.4 6 7.6 0 3.6-1.1 6-1.6 6.6-.5.6-3.1 2-4.4 2V151z" fill="#F2D7BC"/><path d="M975 160c.1-.9-.4-1.8-1-1.9-.8 0-1.4.6-1.5 1.6 0 1 .4 2 1 2 .8.1 1.4-.6 1.5-1.6z" fill="#EAC0A7"/><path d="M967.8 151c-2.3 0-6 1.4-6 7.6 0 3.6 1.2 6 1.7 6.6.4.6 3 2 4.3 2V151z" fill="#F2D7BC"/><path d="M960.6 160c0-.9.4-1.8 1.1-1.9.7 0 1.3.6 1.4 1.6.1 1-.3 2-1 2-.7.1-1.3-.6-1.5-1.6z" fill="#F2D7BC"/><path d="M964.8 169.3s-4.5.7-5.2 1.4c-.6.6-1.8 6.5-2 7.8h10.2v-9l-3-.2z" fill="#CFE1EB"/><path d="M967.8 169.6l-2.4-1-.6.6 1.2 2.7 1.8-2.3zM967.8 169.6l2.5-1 .6.6-1.2 2.7-1.9-2.3z" fill="#fff"/><path d="M974 158.3s2-9-6.2-9-6.2 8.7-6.2 8.7 1.1-.6 1.1 2.3h.3s.4-2 .5-3.7c2.9 0 5.4-.4 7.6-2.2 1.2 0 1.4 1.6 1.4 2.7l-.6.3s.5 1 .6 2.9h.3s0-3.2 1.2-2z" fill="#8B5F3C"/><path d="M967.8 164.8c1.1 0 2-.4 2-.9h-4c0 .5 1 .9 2 .9z" fill="#fff"/></g><g opacity=".8" fill="#FA6C06"><path d="M990.7 151h-1.2v-9.2h1.2v9.3zM993.9 144.2v.9c.6-.7 1.2-1 2-1 1.5 0 2.3.8 2.3 2.4v4.6H997v-4.6c0-.5-.1-.8-.3-1-.3-.3-.6-.4-1-.4s-.8 0-1 .3a2 2 0 00-.7.8v4.9h-1.2v-6.9h1.1zM1002.2 149.5l1.7-5.3h1.2l-2.5 6.9h-.9l-2.4-6.9h1.2l1.7 5.3zM1009 151.2a3 3 0 01-2.3-1c-.6-.5-.9-1.4-.9-2.4v-.2c0-.7.2-1.3.4-1.8.3-.5.6-1 1.1-1.3.5-.3 1-.4 1.5-.4 1 0 1.6.3 2.1.9.5.5.8 1.4.8 2.5v.5h-4.7c0 .6.2 1.2.6 1.6.4.4.9.6 1.4.6.5 0 .8 0 1.1-.2l.8-.7.7.6c-.6.8-1.5 1.3-2.6 1.3zm-.2-6.2c-.4 0-.8.2-1.1.6-.4.3-.6.8-.7 1.4h3.5c0-.7-.2-1.1-.5-1.5-.3-.3-.7-.5-1.2-.5zM1017 149.2c0-.3-.1-.5-.4-.7-.2-.2-.6-.3-1.2-.5-.6 0-1-.2-1.4-.4a2 2 0 01-.8-.6c-.2-.3-.2-.6-.2-1 0-.5.2-1 .7-1.3.4-.4 1-.6 1.8-.6s1.4.2 1.9.6c.5.4.7.9.7 1.5h-1.2a1 1 0 00-.4-.8c-.3-.2-.6-.4-1-.4s-.8.1-1 .3c-.2.2-.4.4-.4.7 0 .3.1.5.4.7l1.2.4c.6.1 1 .3 1.4.5.4.1.6.4.8.6.2.3.3.6.3 1 0 .6-.3 1-.8 1.4a3 3 0 01-1.9.6c-.5 0-1-.1-1.4-.3-.4-.2-.8-.5-1-.8a2 2 0 01-.4-1.2h1.2c0 .4.2.8.5 1 .3.2.6.3 1.1.3.5 0 .8 0 1.1-.2.3-.2.4-.5.4-.8zM1021.3 142.5v1.7h1.3v1h-1.3v4.2c0 .2 0 .4.2.6l.5.2h.6v.9h-.9c-.5 0-1 0-1.2-.4-.3-.3-.4-.8-.4-1.3V145h-1.2v-.9h1.2v-1.7h1.2zM1023.5 147.6c0-.7.1-1.3.4-1.8.3-.6.6-1 1.1-1.3a3 3 0 011.6-.4c1 0 1.7.3 2.3 1 .6.6.8 1.5.8 2.5v.1a4 4 0 01-.3 1.8 3 3 0 01-2.8 1.7c-.9 0-1.6-.3-2.2-1-.6-.6-.9-1.5-.9-2.5v-.1zm1.2.1c0 .8.2 1.4.5 1.8.4.5.8.7 1.4.7.6 0 1.1-.2 1.5-.7.3-.4.5-1 .5-2 0-.7-.2-1.3-.6-1.8-.3-.4-.8-.7-1.4-.7-.6 0-1 .3-1.4.7-.3.5-.5 1.2-.5 2zM1034.5 145.3h-.5c-.8 0-1.3.2-1.6.9v4.9h-1.2v-6.9h1.1v.8c.5-.6 1-1 1.7-1l.5.2v1zM1039 151v-9.2h3c1 0 1.8.2 2.3.7.5.4.7 1 .7 1.8 0 .4 0 .8-.3 1.1-.3.4-.6.6-1 .8.5.1.9.4 1.1.8.3.4.5.9.5 1.4 0 .8-.3 1.5-.8 2-.6.4-1.3.7-2.3.7h-3.2zm1.2-4.3v3.4h2c.6 0 1-.2 1.4-.5.3-.3.5-.7.5-1.2 0-1.1-.6-1.7-1.8-1.7h-2zm0-1h1.9c.5 0 1 0 1.2-.3.4-.3.5-.7.5-1.1 0-.5-.1-.9-.4-1.1-.3-.2-.8-.4-1.4-.4h-1.8v3zM997.4 173.7a2 2 0 00-.5-1.5c-.4-.4-1-.7-1.8-1-.8-.3-1.5-.6-2.1-1-.6-.3-1.2-.6-1.6-1-.4-.4-.8-.9-1-1.4-.2-.6-.4-1.2-.4-2 0-1.2.5-2.3 1.3-3.1.8-.8 1.9-1.3 3.2-1.4v-2.5h1.9v2.5c1.3.2 2.4.8 3.1 1.7.8 1 1.2 2.1 1.2 3.6h-3.3c0-1-.2-1.6-.6-2-.4-.5-.9-.7-1.5-.7a2 2 0 00-1.4.5 2 2 0 00-.6 1.5c0 .5.2 1 .5 1.4.4.3 1 .7 1.9 1l2.2 1 1.5 1.2c.4.4.7.8 1 1.4.2.5.3 1 .3 1.8 0 1.3-.4 2.3-1.2 3.1-.8.8-2 1.3-3.4 1.4v2.3h-1.8v-2.2a5.5 5.5 0 01-3.6-1.7c-.9-1-1.3-2.2-1.3-3.8h3.3c0 1 .2 1.6.7 2.1.4.5 1 .8 1.8.8.7 0 1.2-.2 1.6-.6.4-.3.6-.8.6-1.4zM1018.5 171.8h1.8v2.7h-1.8v3.6h-3.3v-3.6h-6.8l-.2-2.1 7-11h3.3v10.4zm-7 0h3.7V166l-.3.3-3.4 5.5zM1023.1 182.2l-1.7-.9.4-.7a6 6 0 00.8-2.8v-2.5h2.8v2.2a6.6 6.6 0 01-2.2 4.7zM1035.8 178h-3.3v-12.6l-4 1.2v-2.7l7-2.5h.3v16.7zM1052 165.9c0 .8-.2 1.5-.6 2.1-.4.6-1 1.1-1.6 1.5.8.4 1.4 1 1.9 1.6.5.7.7 1.5.7 2.4 0 1.5-.5 2.7-1.5 3.5-1 .9-2.4 1.3-4.1 1.3-1.7 0-3.1-.4-4.1-1.3-1-.9-1.5-2-1.5-3.5 0-1 .2-1.7.7-2.4.4-.7 1-1.2 1.9-1.6-.7-.4-1.3-.9-1.7-1.5a4 4 0 01-.6-2.1c0-1.4.5-2.6 1.4-3.4 1-.8 2.3-1.3 3.9-1.3s2.9.5 3.8 1.3c1 .8 1.4 2 1.4 3.4zm-3 7.4c0-.8-.1-1.3-.5-1.8-.5-.4-1-.6-1.7-.6s-1.3.2-1.7.6c-.4.5-.6 1-.6 1.8 0 .7.2 1.2.6 1.7.4.4 1 .6 1.7.6s1.3-.2 1.7-.6c.4-.4.6-1 .6-1.7zm-.3-7.3c0-.6-.1-1.1-.5-1.5-.3-.4-.8-.6-1.4-.6-.6 0-1.1.2-1.5.6-.3.3-.5.9-.5 1.5 0 .7.2 1.2.5 1.6.4.4.9.6 1.5.6s1.1-.2 1.4-.6c.4-.4.5-1 .5-1.6zM1065.8 171.2c0 2.3-.5 4-1.4 5.3-1 1.2-2.4 1.8-4.2 1.8-1.8 0-3.2-.6-4.2-1.8a8.1 8.1 0 01-1.4-5.1v-3c0-2.4.5-4.2 1.4-5.4 1-1.2 2.4-1.8 4.2-1.8a5 5 0 014.1 1.8c1 1.2 1.5 3 1.5 5.1v3zm-3.3-3.4a6 6 0 00-.6-3c-.3-.6-1-.9-1.7-.9-.8 0-1.4.3-1.7.9-.4.6-.6 1.5-.6 2.8v4c0 1.4.2 2.4.5 3 .4.7 1 1 1.8 1s1.4-.3 1.7-1c.4-.5.6-1.5.6-2.8v-4z"/></g><rect x="939.4" y="129.8" width="138.4" height="64.4" rx="8.8" stroke="#FA6C06" stroke-width="1.9"/><rect x="99.2" y="293.3" width="151.8" height="64.5" rx="8.8" fill="#fff"/><mask id="e" maskUnits="userSpaceOnUse" x="111" y="309" width="33" height="34"><path d="M144 325.6c0-9.2-7.4-16.5-16.4-16.5a16.5 16.5 0 000 33c9 0 16.4-7.4 16.4-16.5z" fill="#B5332B"/></mask><g mask="url(#e)"><path d="M144 325.6c0-9.2-7.4-16.5-16.4-16.5a16.5 16.5 0 000 33c9 0 16.4-7.4 16.4-16.5z" fill="#6C67AB"/><path d="M130 329.7h-4.8v5.3h4.8v-5.3z" fill="#D9A78C"/><path d="M130.6 332.9s4.5.6 5.2 1.3c.6.7 1.8 6.5 2 7.8h-10.2v-8.9l3-.2z" fill="#CFE1EB"/><path d="M127.6 314.5c2.3 0 6 1.4 6 7.6 0 3.6-1.2 6-1.7 6.7-.5.6-3.1 1.8-4.3 1.8v-16z" fill="#F2D7BC"/><path d="M134.7 323.6c.1-1-.3-1.9-1-2-.7 0-1.3.7-1.4 1.7-.1 1 .3 1.8 1 2 .7 0 1.3-.7 1.4-1.7z" fill="#EAC0A7"/><path d="M127.6 314.5c-2.4 0-6 1.4-6 7.6 0 3.6 1.1 6 1.6 6.7.5.6 3.1 1.8 4.4 1.8v-16z" fill="#F2D7BC"/><path d="M120.4 323.6c-.1-1 .3-1.9 1-2 .7 0 1.4.7 1.5 1.7 0 1-.4 1.8-1 2-.8 0-1.4-.7-1.5-1.7z" fill="#F2D7BC"/><path d="M124.6 332.9s-4.6.6-5.3 1.3c-.5.7-1.8 6.5-2 7.8h10.3v-8.9l-3-.2z" fill="#CFE1EB"/><path d="M127.6 333.1l-2.5-1-.6.6 1.2 2.8 1.9-2.4z" fill="#fff"/><path d="M127.6 333.1l2.4-1 .6.6-1.2 2.8-1.8-2.4z" fill="#fff"/><path d="M133.7 321.8s2-9-6.2-9-6.1 8.7-6.1 8.7 1-.6 1 2.3h.3s.4-2 .5-3.7c3 0 5.5-.4 7.6-2.1 1.2 0 1.4 1.5 1.4 2.7l-.5.2s.5 1 .5 3h.4s0-3.3 1.1-2.1z" fill="#8B5F3C"/><path d="M127.6 328.3c1 0 2-.4 2-.8h-4c0 .4.9.8 2 .8z" fill="#fff"/></g><g opacity=".8" fill="#7E97C9"><path d="M150.5 314.6h-1.2v-9.2h1.2v9.2zM153.6 307.8v.9c.6-.7 1.3-1 2.1-1 1.5 0 2.2.8 2.2 2.4v4.5h-1.1v-4.5c0-.5-.2-.8-.4-1-.2-.3-.6-.4-1-.4s-.7 0-1 .3a2 2 0 00-.7.8v4.8h-1.2v-6.8h1.1zM162 313l1.6-5.2h1.2l-2.4 6.8h-1l-2.4-6.8h1.2l1.7 5.3zM168.7 314.8a3 3 0 01-2.2-1c-.6-.6-1-1.4-1-2.4v-.2c0-.7.2-1.3.5-1.8.2-.6.6-1 1-1.3.5-.3 1-.4 1.6-.4.9 0 1.6.3 2 .8.6.6.8 1.5.8 2.6v.5h-4.6c0 .6.2 1.2.5 1.6.4.4 1 .6 1.5.6.4 0 .8 0 1-.2l.8-.7.7.5c-.6 1-1.4 1.4-2.6 1.4zm-.1-6.2c-.5 0-.9.2-1.2.5-.3.4-.5.9-.6 1.5h3.4v-.1c0-.6-.2-1-.5-1.4-.2-.3-.6-.5-1.1-.5zM176.7 312.8c0-.3 0-.5-.3-.7l-1.3-.5a6 6 0 01-1.4-.4 2 2 0 01-.7-.7c-.2-.2-.3-.5-.3-.8 0-.6.2-1 .7-1.5.5-.3 1.1-.5 1.8-.5.8 0 1.4.2 2 .6.4.4.7.9.7 1.5h-1.2a1 1 0 00-.4-.8c-.3-.3-.6-.4-1-.4-.5 0-.8.1-1 .3-.3.2-.4.4-.4.7 0 .3 0 .5.3.7l1.2.4c.6.1 1 .3 1.4.5.4.1.7.4.9.6l.2 1c0 .6-.2 1-.7 1.4a3 3 0 01-2 .6c-.5 0-1-.1-1.4-.3l-1-.8a2 2 0 01-.3-1.2h1.1c0 .4.2.7.5 1 .3.2.7.3 1.2.3.4 0 .8 0 1-.3.3-.1.4-.4.4-.7zM181 306.1v1.7h1.3v.9H181v4.2c0 .3 0 .5.2.7l.6.2.5-.1v1h-.9c-.5 0-.9 0-1.1-.4a2 2 0 01-.4-1.4v-4.2h-1.3v-1h1.3v-1.6h1.1zM183.3 311.2c0-.7 0-1.3.3-1.9.3-.5.7-1 1.1-1.2a3 3 0 011.7-.4c.9 0 1.6.3 2.2 1 .6.6.9 1.4.9 2.5v.1a4 4 0 01-.4 1.8 2.9 2.9 0 01-2.7 1.7c-1 0-1.7-.4-2.3-1-.6-.6-.8-1.5-.8-2.6zm1.1.1c0 .8.2 1.4.6 1.8.3.5.8.7 1.4.7.6 0 1-.2 1.4-.7.3-.5.5-1.1.5-2 0-.7-.2-1.3-.5-1.8-.4-.4-.9-.7-1.4-.7-.6 0-1 .3-1.4.7-.4.5-.6 1.1-.6 2zM194.3 308.8h-.6c-.8 0-1.3.3-1.6 1v4.8H191v-6.8h1.1v.8c.4-.6 1-1 1.6-1l.6.2v1zM205.5 311.7c0 1-.4 1.7-1 2.3-.7.5-1.5.8-2.5.8s-2-.4-2.6-1.2c-.6-.8-1-1.8-1-3.1v-1c0-.8.2-1.5.5-2.2a3.4 3.4 0 013.2-2c1 0 1.8.3 2.4.8.6.6 1 1.3 1 2.3h-1.2c0-.7-.3-1.3-.7-1.6a2 2 0 00-1.5-.5c-.7 0-1.3.3-1.8.9a4 4 0 00-.6 2.4v.9c0 1 .2 1.8.6 2.4.4.6 1 .9 1.7.9s1.2-.2 1.6-.5c.4-.3.6-.8.7-1.6h1.2zM157.1 337.3a2 2 0 00-.5-1.5c-.3-.4-1-.7-1.8-1a22 22 0 01-2.1-1l-1.6-1-1-1.4c-.2-.6-.3-1.2-.3-2 0-1.2.4-2.3 1.2-3.1.8-.8 2-1.3 3.3-1.4v-2.5h1.8v2.5c1.4.2 2.4.7 3.2 1.7.7.9 1.1 2.1 1.1 3.6h-3.3c0-1-.2-1.6-.6-2-.3-.5-.8-.7-1.5-.7a2 2 0 00-1.4.5 2 2 0 00-.5 1.5c0 .5.2 1 .5 1.4.3.3 1 .7 1.8 1l2.3 1 1.5 1.2c.4.4.7.8.9 1.3.2.6.3 1.2.3 1.9 0 1.2-.4 2.3-1.2 3.1-.8.8-2 1.3-3.3 1.4v2.3H154v-2.3a5.5 5.5 0 01-3.7-1.6c-.8-1-1.2-2.2-1.2-3.8h3.3c0 1 .2 1.6.6 2.1.4.5 1 .7 1.9.7.6 0 1.1-.1 1.5-.5.4-.3.6-.8.6-1.4zM176.5 341.6h-3.3V329l-4 1.3v-2.7l7-2.5h.3v16.6zM193 334.8c0 2.3-.4 4-1.4 5.2-1 1.3-2.3 1.9-4.2 1.9-1.8 0-3.2-.6-4.1-1.8a8.2 8.2 0 01-1.5-5.1v-3.1c0-2.3.5-4 1.5-5.3a5 5 0 014.1-1.8c1.8 0 3.2.6 4.2 1.8 1 1.2 1.4 2.9 1.4 5.1v3zm-3.3-3.4a6 6 0 00-.5-3c-.4-.6-1-1-1.8-1s-1.3.4-1.7 1c-.4.6-.6 1.5-.6 2.8v4c0 1.4.2 2.4.6 3 .3.7 1 1 1.7 1 .8 0 1.4-.3 1.8-1 .3-.6.5-1.5.5-2.8v-4zM196.3 345.8l-1.8-.9.4-.7a6 6 0 00.8-2.8v-2.6h2.8v2.3a6.6 6.6 0 01-2.2 4.7zM212.1 334.8c0 2.3-.4 4-1.4 5.2-1 1.3-2.3 1.9-4.2 1.9-1.8 0-3.2-.6-4.1-1.8a8.2 8.2 0 01-1.5-5.1v-3.1c0-2.3.5-4 1.5-5.3a5 5 0 014.1-1.8c1.8 0 3.2.6 4.2 1.8 1 1.2 1.4 2.9 1.4 5.1v3zm-3.3-3.4a6 6 0 00-.5-3c-.4-.6-1-1-1.8-1s-1.3.4-1.7 1c-.4.6-.6 1.5-.6 2.8v4c0 1.4.2 2.4.6 3 .3.7 1 1 1.7 1 .8 0 1.4-.3 1.8-1 .3-.6.5-1.5.5-2.8v-4zM225.5 334.8c0 2.3-.4 4-1.4 5.2-1 1.3-2.3 1.9-4.2 1.9-1.8 0-3.1-.6-4.1-1.8a8.2 8.2 0 01-1.5-5.1v-3.1c0-2.3.5-4 1.5-5.3a5 5 0 014.1-1.8c1.8 0 3.2.6 4.2 1.8 1 1.2 1.4 2.9 1.4 5.1v3zm-3.3-3.4a6 6 0 00-.5-3c-.4-.6-1-1-1.8-1s-1.3.4-1.7 1c-.4.6-.6 1.5-.6 2.8v4c0 1.4.2 2.4.6 3 .3.7 1 1 1.7 1 .8 0 1.4-.3 1.8-1 .3-.6.5-1.5.5-2.8v-4zM239 334.8c0 2.3-.5 4-1.5 5.2-1 1.3-2.3 1.9-4.2 1.9-1.8 0-3.1-.6-4.1-1.8a8.2 8.2 0 01-1.5-5.1v-3.1c0-2.3.5-4 1.5-5.3a5 5 0 014.1-1.8c1.8 0 3.2.6 4.2 1.8 1 1.2 1.4 2.9 1.4 5.1v3zm-3.4-3.4a6 6 0 00-.5-3c-.4-.6-1-1-1.8-1s-1.3.4-1.7 1c-.4.6-.6 1.5-.6 2.8v4c0 1.4.2 2.4.6 3 .3.7 1 1 1.7 1 .9 0 1.4-.3 1.8-1 .3-.6.5-1.5.5-2.8v-4z"/></g><rect x="99.2" y="293.3" width="151.8" height="64.5" rx="8.8" stroke="#7E97C9" stroke-width="1.9"/><rect x="939.4" y="218.1" width="119.3" height="62.8" rx="8.8" fill="#fff"/><mask id="f" maskUnits="userSpaceOnUse" x="951" y="233" width="34" height="34"><path d="M984.2 249.5c0-9-7.3-16.5-16.4-16.5a16.5 16.5 0 000 33c9 0 16.4-7.4 16.4-16.5z" fill="#B5332B"/></mask><g mask="url(#f)"><path d="M984.2 249.5c0-9-7.3-16.5-16.4-16.5a16.5 16.5 0 000 33c9 0 16.4-7.4 16.4-16.5z" fill="#FA6C06"/><path d="M970.2 253.7h-4.8v5.3h4.8v-5.3z" fill="#D9A78C"/><path d="M970.8 256.8s4.6.7 5.3 1.4c.5.6 1.8 6.5 2 7.8h-10.3v-9l3-.2z" fill="#CFE1EB"/><path d="M967.8 238.5c2.4 0 6 1.4 6 7.6 0 3.6-1.1 6-1.6 6.6-.5.6-3.1 1.9-4.4 1.9v-16z" fill="#F2D7BC"/><path d="M975 247.6c.1-1-.4-1.9-1-2-.8-.1-1.4.6-1.5 1.6 0 1 .4 2 1 2 .8.1 1.4-.6 1.5-1.6z" fill="#EAC0A7"/><path d="M967.8 238.5c-2.3 0-6 1.4-6 7.6 0 3.6 1.2 6 1.7 6.6.4.6 3 2 4.3 2v-16.2z" fill="#F2D7BC"/><path d="M960.6 247.6c0-1 .4-1.9 1.1-2 .7-.1 1.3.6 1.4 1.6.1 1-.3 2-1 2-.7.1-1.3-.6-1.5-1.6z" fill="#F2D7BC"/><path d="M964.8 256.8s-4.5.7-5.2 1.4c-.6.6-1.8 6.5-2 7.8h10.2v-9l-3-.2z" fill="#CFE1EB"/><path d="M967.8 257l-2.4-.9-.6.6 1.2 2.7 1.8-2.3zM967.8 257l2.5-.9.6.6-1.2 2.7-1.9-2.3z" fill="#fff"/><path d="M974 245.8s2-9-6.2-9-6.2 8.7-6.2 8.7 1.1-.6 1.1 2.3h.3s.4-2 .5-3.7c2.9 0 5.4-.4 7.6-2.2 1.2 0 1.4 1.6 1.4 2.7l-.6.2s.5 1 .6 3h.3s0-3.2 1.2-2z" fill="#8B5F3C"/><path d="M967.8 252.3c1.1 0 2-.4 2-.9h-4c0 .5 1 .9 2 .9z" fill="#fff"/></g><g opacity=".8" fill="#FA6C06"><path d="M990.7 239.5h-1.2v-9.3h1.2v9.3zM993.9 232.6v.9c.6-.7 1.2-1 2-1 1.5 0 2.3.8 2.3 2.4v4.6H997v-4.6c0-.5-.1-.8-.3-1-.3-.3-.6-.4-1-.4s-.8 0-1 .3a2 2 0 00-.7.8v4.9h-1.2v-6.9h1.1zM1002.2 237.9l1.7-5.3h1.2l-2.5 6.9h-.9l-2.4-6.9h1.2l1.7 5.3zM1009 239.6a3 3 0 01-2.3-1c-.6-.5-.9-1.3-.9-2.4v-.2c0-.7.2-1.3.4-1.8.3-.5.6-1 1.1-1.3.5-.3 1-.4 1.5-.4 1 0 1.6.3 2.1.9.5.6.8 1.4.8 2.5v.5h-4.7c0 .7.2 1.2.6 1.6.4.4.9.6 1.4.6.5 0 .8 0 1.1-.2l.8-.7.7.6c-.6.9-1.5 1.3-2.6 1.3zm-.2-6.1c-.4 0-.8.1-1.1.5-.4.3-.6.8-.7 1.4h3.5c0-.7-.2-1.1-.5-1.5-.3-.3-.7-.4-1.2-.4zM1017 237.7c0-.4-.1-.6-.4-.8-.2-.2-.6-.3-1.2-.4a6 6 0 01-1.4-.5l-.8-.6c-.2-.3-.2-.6-.2-.9 0-.6.2-1 .7-1.4.4-.4 1-.6 1.8-.6s1.4.2 1.9.6c.5.4.7 1 .7 1.5h-1.2a1 1 0 00-.4-.8c-.3-.2-.6-.3-1-.3s-.8 0-1 .2c-.2.2-.4.5-.4.8 0 .2.1.5.4.6l1.2.4c.6.1 1 .3 1.4.5l.8.6c.2.3.3.6.3 1 0 .6-.3 1-.8 1.4a3 3 0 01-1.9.6c-.5 0-1-.1-1.4-.3-.4-.2-.8-.5-1-.8a2 2 0 01-.4-1.1h1.2c0 .4.2.7.5.9.3.2.6.3 1.1.3.5 0 .8 0 1.1-.2.3-.2.4-.4.4-.7zM1021.3 231v1.6h1.3v1h-1.3v4.2c0 .2 0 .5.2.6l.5.2h.6v.9h-.9c-.5 0-1 0-1.2-.4-.3-.3-.4-.7-.4-1.3v-4.3h-1.2v-.9h1.2V231h1.2zM1023.5 236c0-.7.1-1.3.4-1.8.3-.6.6-1 1.1-1.3a3 3 0 011.6-.4c1 0 1.7.3 2.3 1 .6.6.8 1.5.8 2.5v.1a4 4 0 01-.3 1.8 3 3 0 01-2.8 1.7c-.9 0-1.6-.3-2.2-1-.6-.6-.9-1.5-.9-2.5v-.1zm1.2.1c0 .8.2 1.4.5 1.8.4.5.8.7 1.4.7.6 0 1.1-.2 1.5-.7.3-.4.5-1 .5-2 0-.7-.2-1.3-.6-1.7-.3-.5-.8-.7-1.4-.7-.6 0-1 .2-1.4.6-.3.5-.5 1.2-.5 2zM1034.5 233.7h-.5c-.8 0-1.3.3-1.6 1v4.8h-1.2v-6.9h1.1v.8c.5-.6 1-1 1.7-1l.5.2v1zM1045.8 236.5c-.1 1-.5 1.8-1 2.3-.7.5-1.5.8-2.5.8s-2-.4-2.6-1.2c-.7-.8-1-1.8-1-3.1v-.9c0-.9.1-1.6.5-2.3a3.4 3.4 0 013.2-2c1 0 1.8.3 2.4.8.5.6.9 1.3 1 2.3h-1.2c-.1-.7-.4-1.3-.7-1.6a2 2 0 00-1.5-.5c-.8 0-1.4.3-1.8.9a4 4 0 00-.7 2.4v1c0 1 .2 1.7.6 2.3.5.6 1 .9 1.8.9.7 0 1.2-.2 1.5-.5.4-.3.7-.8.8-1.6h1.2zM997.4 262.1a2 2 0 00-.5-1.5c-.4-.4-1-.7-1.8-1-.8-.3-1.5-.6-2.1-1-.6-.2-1.2-.6-1.6-1-.4-.4-.8-.9-1-1.4-.2-.5-.4-1.2-.4-2 0-1.2.5-2.3 1.3-3 .8-1 1.9-1.4 3.2-1.5v-2.5h1.9v2.5c1.3.2 2.4.8 3.1 1.7.8 1 1.2 2.1 1.2 3.6h-3.3c0-.9-.2-1.6-.6-2-.4-.5-.9-.7-1.5-.7a2 2 0 00-1.4.5 2 2 0 00-.6 1.5c0 .6.2 1 .5 1.4.4.3 1 .7 1.9 1l2.2 1 1.5 1.2c.4.4.7.8 1 1.4.2.5.3 1 .3 1.8 0 1.3-.4 2.3-1.2 3.1-.8.8-2 1.3-3.4 1.5v2.2h-1.8v-2.2a5.5 5.5 0 01-3.6-1.7c-.9-1-1.3-2.2-1.3-3.7h3.3c0 .9.2 1.6.7 2 .4.5 1 .8 1.8.8.7 0 1.2-.2 1.6-.6.4-.3.6-.8.6-1.4zM1020 251.7l-6.4 14.8h-3.5l6.4-14h-8.2V250h11.7v1.8zM1031 249.7v2.7h-.3c-1.5 0-2.7.4-3.6 1.2-.9.7-1.4 1.8-1.6 3.1.9-.9 2-1.3 3.3-1.3 1.5 0 2.6.5 3.5 1.5.8 1 1.3 2.4 1.3 4.1 0 1-.3 2-.7 3a5 5 0 01-2 2c-.9.5-1.8.7-3 .7-1.7 0-3-.6-4.2-1.8a7.1 7.1 0 01-1.6-4.9v-1.2c0-1.8.4-3.4 1-4.7a7.5 7.5 0 013-3.2 8.6 8.6 0 014.4-1.2h.6zm-3.2 8.3a2.6 2.6 0 00-2.4 1.5v1c0 1.1.3 2 .7 2.6.4.6 1 1 1.8 1a2 2 0 001.7-.9c.5-.6.7-1.3.7-2.2 0-.9-.2-1.6-.7-2.2-.4-.5-1-.8-1.8-.8zM1046.7 259.6c0 2.3-.5 4-1.4 5.3-1 1.2-2.4 1.8-4.2 1.8-1.8 0-3.2-.6-4.1-1.8a8.1 8.1 0 01-1.5-5.1v-3c0-2.4.5-4.2 1.4-5.4a5 5 0 014.2-1.8c1.8 0 3.2.6 4.1 1.8a8 8 0 011.5 5.2v3zm-3.3-3.3a6 6 0 00-.6-3c-.3-.7-1-1-1.7-1-.8 0-1.4.3-1.8 1-.3.5-.5 1.4-.5 2.7v4c0 1.4.2 2.4.5 3 .4.7 1 1 1.8 1s1.4-.3 1.7-.9c.4-.6.6-1.6.6-2.9v-4z"/></g><rect x="939.4" y="218.1" width="119.3" height="62.8" rx="8.8" stroke="#FA6C06" stroke-width="1.9"/><rect x="939.4" y="302.6" width="156.8" height="65" rx="8.8" fill="#fff"/><mask id="g" maskUnits="userSpaceOnUse" x="951" y="318" width="34" height="34"><path d="M984.2 335.1c0-9-7.3-16.5-16.4-16.5a16.5 16.5 0 000 33c9 0 16.4-7.4 16.4-16.5z" fill="#B5332B"/></mask><g mask="url(#g)"><path d="M984.2 335.3a16.4 16.4 0 10-32.8 0 16.4 16.4 0 0032.8 0z" fill="#FA6C06"/><path d="M968 333.5c-1.3.2-2.6-.6-2.8-1.9-.3-1.3.6-2.5 2-2.7h.8c1.3 0 2.3 1 2.3 2.3 0 .8.7 1.5 1.6 1.5.9 0 1.6-.7 1.6-1.5 0-2.5-1.8-4.6-4.2-5.2v-.4c0-.8-.7-1.5-1.6-1.5-.8 0-1.5.7-1.5 1.5v.5a5.3 5.3 0 00-3.8 5c0 3 2.5 5.5 5.6 5.5a2.3 2.3 0 012.3 2.3 2.2 2.2 0 01-2.3 2.3c-1.3 0-2.4-1-2.4-2.2 0-1-.7-1.6-1.6-1.6-.9 0-1.6.7-1.6 1.5 0 2.3 1.5 4.3 3.8 5v.7c0 .9.7 1.5 1.5 1.5 1 0 1.6-.6 1.6-1.5v-.5a5.3 5.3 0 00-1.2-10.6h-.1z" fill="#F5F8FF"/></g><g opacity=".8" fill="#7E97C9"><path d="M990.6 320.9v3.6h-1.2v-9.3h3.4c1 0 1.8.3 2.4.8.6.5.8 1.2.8 2 0 1-.2 1.6-.8 2.1-.6.5-1.4.8-2.4.8h-2.2zm0-1h2.2c.7 0 1.2-.2 1.5-.5.4-.3.5-.8.5-1.3 0-.6-.1-1-.5-1.3a2 2 0 00-1.4-.6h-2.3v3.7zM1000.2 324.6a3 3 0 01-2.3-1c-.6-.5-.9-1.4-.9-2.4v-.2c0-.7.2-1.3.4-1.8.3-.5.6-1 1.1-1.3.5-.3 1-.4 1.5-.4 1 0 1.6.3 2.1.9.5.6.7 1.4.7 2.5v.5h-4.6c0 .6.2 1.2.6 1.6.4.4.9.6 1.4.6.4 0 .8 0 1-.2.4-.2.6-.4.8-.7l.8.6c-.6.8-1.5 1.3-2.6 1.3zm-.2-6.2c-.4 0-.8.2-1.2.6-.3.3-.5.8-.6 1.4h3.5c0-.7-.2-1.1-.5-1.5-.3-.3-.7-.5-1.2-.5zM1007.5 318.7h-.6c-.7 0-1.3.2-1.5.9v4.9h-1.2v-6.9h1.1v.8c.5-.6 1-1 1.7-1l.5.2v1zM1009.3 324.5v-6h-1.1v-.9h1v-.7c0-.7.3-1.3.7-1.7.4-.4 1-.6 1.6-.6l.8.1v1l-.7-.1c-.3 0-.6.1-.8.3-.3.3-.3.6-.3 1v.7h1.4v1h-1.4v5.9h-1.2zM1012.9 321c0-.7.1-1.3.4-1.8.3-.6.6-1 1-1.3a3 3 0 011.7-.4c1 0 1.7.3 2.3 1 .6.6.8 1.5.8 2.5v.1a4 4 0 01-.4 1.8c-.2.5-.6 1-1 1.2a3 3 0 01-1.7.5c-1 0-1.7-.3-2.2-1-.6-.6-.9-1.5-.9-2.5v-.1zm1.2.1c0 .8.1 1.4.5 1.8.4.5.8.7 1.4.7.6 0 1-.2 1.4-.7.4-.4.6-1 .6-2a3 3 0 00-.6-1.8c-.3-.4-.8-.7-1.4-.7-.6 0-1 .3-1.4.7-.4.5-.5 1.2-.5 2zM1024 318.7h-.7c-.7 0-1.3.2-1.5.9v4.9h-1.2v-6.9h1.1v.8c.4-.6 1-1 1.7-1l.5.2v1zM1026.1 317.6v.8c.5-.6 1.2-1 2-1 1 0 1.7.5 2 1.2l1-.8c.3-.2.7-.3 1.2-.3 1.5 0 2.3.8 2.3 2.4v4.6h-1.2v-4.6c0-.4 0-.8-.3-1-.2-.3-.6-.4-1.1-.4-.5 0-.8.1-1.1.4-.3.2-.5.6-.5 1v4.6h-1.2V320c0-1-.5-1.5-1.5-1.5-.7 0-1.3.3-1.5 1v5h-1.2v-6.9h1.1zM1040.6 324.5l-.2-.8c-.5.6-1.2.9-2 .9-.6 0-1.1-.2-1.6-.6-.4-.4-.6-.9-.6-1.4 0-.8.3-1.3.8-1.7.5-.4 1.3-.6 2.3-.6h1.1v-.5c0-.4-.1-.8-.4-1-.2-.3-.6-.4-1-.4-.5 0-.8.1-1 .3-.4.3-.5.5-.5.8h-1.2c0-.3.1-.7.4-1 .2-.3.5-.6 1-.7.4-.2.8-.3 1.3-.3.8 0 1.5.2 1.9.6.4.4.7 1 .7 1.6v3.2c0 .6 0 1 .2 1.5h-1.2zm-2-1c.4 0 .8 0 1.1-.2.3-.2.6-.5.7-.8v-1.4h-.9c-1.4 0-2.2.5-2.2 1.3 0 .4.2.7.4.9.3.2.6.3 1 .3zM1044.5 317.6v.9c.6-.7 1.3-1 2.1-1 1.5 0 2.2.8 2.2 2.4v4.6h-1.2v-4.6c0-.5 0-.8-.3-1-.2-.3-.6-.4-1-.4s-.7 0-1 .3a2 2 0 00-.7.8v4.9h-1.2v-6.9h1.1zM1053.3 323.6c.5 0 .8-.1 1.1-.3.3-.3.5-.6.5-1h1.1c0 .4-.1.8-.3 1.1-.3.4-.6.7-1 .9l-1.4.3c-.9 0-1.6-.3-2.2-1-.5-.6-.8-1.4-.8-2.5v-.2c0-.7.1-1.3.3-1.8a2.8 2.8 0 012.7-1.6c.8 0 1.4.2 2 .7.5.4.7 1 .8 1.8h-1.2a1.6 1.6 0 00-1.6-1.6c-.6 0-1 .3-1.4.7a3 3 0 00-.5 1.8v.3c0 .8.2 1.4.5 1.8.4.4.8.6 1.4.6zM1060.2 324.6a3 3 0 01-2.3-1c-.5-.5-.8-1.4-.8-2.4v-.2c0-.7.1-1.3.4-1.8.2-.5.6-1 1-1.3.5-.3 1-.4 1.6-.4.9 0 1.6.3 2 .9.5.6.8 1.4.8 2.5v.5h-4.7c0 .6.3 1.2.6 1.6.4.4.9.6 1.5.6.4 0 .7 0 1-.2l.8-.7.7.6c-.6.8-1.4 1.3-2.6 1.3zm-.1-6.2c-.5 0-.9.2-1.2.6-.4.3-.5.8-.6 1.4h3.4c0-.7-.2-1.1-.5-1.5-.3-.3-.6-.5-1.1-.5zM1068 324.5v-6h-1v-.9h1v-.7c0-.7.2-1.3.6-1.7.4-.4 1-.6 1.7-.6l.8.1v1l-.7-.1c-.4 0-.7.1-.9.3-.2.3-.3.6-.3 1v.7h1.5v1h-1.5v5.9h-1.2zM1074.7 324.6a3 3 0 01-2.3-1c-.6-.5-.9-1.4-.9-2.4v-.2c0-.7.2-1.3.4-1.8.3-.5.6-1 1.1-1.3.5-.3 1-.4 1.5-.4 1 0 1.6.3 2 .9.6.6.8 1.4.8 2.5v.5h-4.6c0 .6.2 1.2.6 1.6.4.4.8.6 1.4.6.4 0 .8 0 1-.2.4-.2.6-.4.8-.7l.8.6c-.6.8-1.5 1.3-2.6 1.3zm-.2-6.2c-.5 0-.8.2-1.2.6-.3.3-.5.8-.6 1.4h3.5c0-.7-.2-1.1-.5-1.5-.3-.3-.7-.5-1.2-.5zM1081.5 324.6a3 3 0 01-2.2-1c-.6-.5-.9-1.4-.9-2.4v-.2c0-.7.1-1.3.4-1.8.3-.5.6-1 1-1.3.5-.3 1-.4 1.6-.4.9 0 1.6.3 2 .9.6.6.8 1.4.8 2.5v.5h-4.6c0 .6.2 1.2.6 1.6.3.4.8.6 1.4.6.4 0 .8 0 1-.2l.8-.7.7.6c-.5.8-1.4 1.3-2.6 1.3zm-.1-6.2c-.5 0-.9.2-1.2.6-.3.3-.5.8-.6 1.4h3.4c0-.7-.2-1.1-.4-1.5-.3-.3-.7-.5-1.2-.5zM996 345.7h-6.4V343h6.4v2.7zM1012.3 351.5h-3.3v-12.7l-3.9 1.2v-2.7l6.9-2.5h.3v16.7zM1018.7 355.6l-1.7-.9.4-.7c.5-1 .8-1.9.8-2.8v-2.5h2.8v2.2a6.6 6.6 0 01-2.2 4.7zM1031.2 344.8c-1 .9-2 1.3-3 1.3-1.5 0-2.7-.5-3.6-1.5a6 6 0 01-1.3-4c0-1.2.2-2.2.7-3 .5-1 1.1-1.7 2-2.2.8-.5 1.8-.8 2.9-.8a5.4 5.4 0 014.9 3.2c.4 1 .7 2.2.7 3.5v1.3c0 2.7-.7 4.9-2 6.5a7.8 7.8 0 01-6 2.5h-.7V349h.7c2.9-.2 4.4-1.5 4.7-4zm-2.3-1.2c.6 0 1-.2 1.4-.4.4-.3.7-.6.9-1v-1.4c0-1.1-.2-2-.7-2.6a2 2 0 00-1.7-1c-.6 0-1.2.4-1.6 1-.4.6-.6 1.4-.6 2.3 0 .9.2 1.6.6 2.2.4.6 1 .9 1.8.9zM1048 344.6c0 2.3-.5 4-1.4 5.3-1 1.2-2.3 1.8-4.2 1.8-1.8 0-3.2-.6-4.1-1.8a8.1 8.1 0 01-1.5-5.1v-3c0-2.4.5-4.2 1.4-5.4 1-1.2 2.4-1.8 4.2-1.8 1.8 0 3.2.6 4.1 1.8 1 1.2 1.5 3 1.5 5.1v3.1zm-3.3-3.4a6 6 0 00-.5-3c-.4-.6-1-.9-1.8-.9s-1.4.3-1.7.9c-.4.6-.6 1.5-.6 2.8v4c0 1.4.2 2.4.5 3 .4.7 1 1 1.8 1s1.4-.3 1.8-1c.3-.5.5-1.5.5-2.8v-4zM1061.4 344.6c0 2.3-.5 4-1.4 5.3-1 1.2-2.3 1.8-4.2 1.8a5 5 0 01-4.1-1.8 8.3 8.3 0 01-1.5-5.1v-3c0-2.4.5-4.2 1.4-5.4a5 5 0 014.2-1.8c1.8 0 3.2.6 4.2 1.8a8 8 0 011.4 5.1v3.1zm-3.3-3.4a6 6 0 00-.5-3c-.4-.6-1-.9-1.8-.9s-1.3.3-1.7.9c-.4.6-.6 1.5-.6 2.8v4c0 1.4.2 2.4.5 3 .4.7 1 1 1.8 1s1.4-.3 1.8-1c.3-.5.5-1.5.5-2.8v-4zM1077.3 347.1a2 2 0 00-.5-1.5c-.3-.4-1-.7-1.7-1-.9-.3-1.6-.6-2.2-1-.6-.2-1.1-.6-1.5-1a4.3 4.3 0 01-1.4-3.3c0-1.3.4-2.4 1.2-3.2.9-.8 2-1.3 3.3-1.4v-2.5h1.8v2.5c1.4.2 2.4.8 3.2 1.7.8 1 1.1 2.1 1.1 3.6h-3.3c0-1-.1-1.6-.5-2-.4-.5-.9-.7-1.5-.7a2 2 0 00-1.5.5 2 2 0 00-.5 1.5c0 .6.2 1 .5 1.4.3.3 1 .7 1.9 1l2.2 1 1.5 1.2a4.2 4.2 0 011.2 3.2c0 1.3-.4 2.3-1.2 3.1-.8.8-1.9 1.3-3.3 1.4v2.3h-1.8v-2.2a5.5 5.5 0 01-3.6-1.7c-.9-1-1.3-2.2-1.3-3.7h3.3c0 .9.2 1.6.6 2 .5.5 1 .8 1.9.8.6 0 1.2-.2 1.6-.6.4-.3.5-.8.5-1.4z"/></g><rect x="939.4" y="302.6" width="156.8" height="65" rx="8.8" stroke="#FA6C06" stroke-width="1.9"/><path d="M395.8 145.7c0-5.3 4.4-9.7 9.8-9.7h200.3c5.4 0 9.8 4.4 9.8 9.7v103.1c0 5.4-4.4 9.8-9.8 9.8H405.6a9.7 9.7 0 01-9.8-9.8v-103z" fill="#7E97C9"/><path fill-rule="evenodd" clip-rule="evenodd" d="M606 138H405.5a7.8 7.8 0 00-7.8 7.7v103.1c0 4.3 3.5 7.8 7.8 7.8h200.3c4.3 0 7.8-3.5 7.8-7.8v-103c0-4.4-3.5-7.8-7.8-7.8zm-200.4-2a9.7 9.7 0 00-9.8 9.7v103.1c0 5.4 4.4 9.8 9.8 9.8h200.3c5.4 0 9.8-4.4 9.8-9.8v-103c0-5.4-4.4-9.8-9.8-9.8H405.6z" fill="#7E97C9"/><path fill-rule="evenodd" clip-rule="evenodd" d="M311.1 76.4a15 15 0 00-10.6-4.4H255a1 1 0 010-2h46.4c4 0 7.8 1.6 10.6 4.4l87 87.2a1 1 0 11-1.4 1.4L311 76.4zM311.1 312.6a15 15 0 01-10.6 4.4H255a1 1 0 000 2h46.4c4 0 7.8-1.6 10.6-4.4l87-87.2a1 1 0 10-1.4-1.4L311 312.6z" fill="#7E97C9"/><g opacity=".8" fill="#F5F8FF"><path d="M453.3 172l3.7 9 3.6-9h1.9v11H461v-4.2l.1-4.7-3.6 9h-1.1l-3.6-9 .1 4.7v4.3h-1.4v-11h1.8zM464.5 178.9c0-.8.1-1.5.4-2.2.3-.6.8-1.1 1.3-1.5.6-.3 1.3-.5 2-.5 1.1 0 2 .4 2.7 1.2.7.7 1 1.8 1 3v.2c0 .8-.1 1.5-.4 2.1a3.5 3.5 0 01-3.3 2c-1.1 0-2-.4-2.7-1.1-.7-.8-1-1.8-1-3.1v-.1zm1.4.2c0 .9.2 1.6.6 2.2.4.5 1 .8 1.7.8a2 2 0 001.7-.9c.4-.5.6-1.3.6-2.3 0-1-.2-1.6-.6-2.2a2 2 0 00-1.7-.8 2 2 0 00-1.7.8c-.4.5-.6 1.3-.6 2.4zM475 174.9v1a3 3 0 012.5-1.2c1.8 0 2.7 1 2.7 3v5.4h-1.4v-5.5c0-.6-.2-1-.4-1.3-.3-.3-.7-.4-1.3-.4a2 2 0 00-1.2.4c-.3.2-.6.5-.8 1v5.8h-1.4v-8.2h1.3zM485.7 183.2c-1.1 0-2-.3-2.7-1a4 4 0 01-1-3v-.3c0-.8 0-1.5.4-2.1.3-.7.7-1.2 1.3-1.5.6-.4 1.2-.6 1.8-.6 1 0 2 .4 2.5 1 .6.8.9 1.8.9 3v.7h-5.6c0 .8.3 1.4.7 2 .5.4 1 .7 1.8.7.5 0 .9-.1 1.2-.3l1-.8.8.6c-.7 1.1-1.7 1.6-3.1 1.6zm-.2-7.3c-.5 0-1 .2-1.4.6a3 3 0 00-.7 1.7h4.1c0-.8-.2-1.4-.6-1.7-.3-.4-.8-.6-1.4-.6zM493.1 181l2-6.1h1.4l-3.3 9.4c-.5 1.4-1.3 2.1-2.4 2.1h-.3l-.5-.1V185h.4c.5 0 .8 0 1.1-.2.3-.2.5-.6.7-1l.3-1-3-8h1.6l2 6.1zM503.8 172l3.6 9 3.6-9h1.9v11h-1.5v-4.2l.2-4.7-3.7 9h-1l-3.7-9 .1 4.7v4.3H502v-11h1.9zM520.3 183a3 3 0 01-.2-.8c-.6.7-1.4 1-2.3 1a3 3 0 01-2-.7c-.5-.4-.8-1-.8-1.7 0-.9.3-1.5 1-2 .6-.5 1.6-.7 2.7-.7h1.4v-.7c0-.4-.1-.8-.4-1.1-.3-.3-.8-.5-1.3-.5a2 2 0 00-1.3.4c-.3.3-.5.6-.5 1h-1.4c0-.5.1-.9.4-1.2a3 3 0 011.2-1 4 4 0 011.6-.3c1 0 1.7.2 2.3.7.5.5.8 1.1.8 2v3.8c0 .7.1 1.3.3 1.8h-1.5zm-2.3-1c.4 0 .9-.1 1.2-.3.4-.3.7-.6.9-1v-1.6H519c-1.7 0-2.6.5-2.6 1.5 0 .4.2.8.5 1 .3.3.6.4 1 .4zM525 174.9v1a3 3 0 012.6-1.2c1.7 0 2.6 1 2.6 3v5.4h-1.4v-5.5c0-.6-.2-1-.4-1.3-.3-.3-.7-.4-1.3-.4a2 2 0 00-1.2.4c-.3.2-.6.5-.8 1v5.8h-1.4v-8.2h1.3zM537.4 183a3 3 0 01-.2-.8c-.7.7-1.5 1-2.4 1a3 3 0 01-2-.7c-.5-.4-.7-1-.7-1.7 0-.9.3-1.5 1-2 .6-.5 1.5-.7 2.7-.7h1.4v-.7c0-.4-.2-.8-.5-1.1-.3-.3-.7-.5-1.3-.5a2 2 0 00-1.2.4c-.4.3-.6.6-.6 1h-1.4c0-.5.2-.9.5-1.2a3 3 0 011.1-1 4 4 0 011.7-.3c1 0 1.7.2 2.2.7.6.5.8 1.1.9 2v3.8c0 .7 0 1.3.3 1.8h-1.5zm-2.4-1c.5 0 .9-.1 1.3-.3.4-.3.7-.6.9-1v-1.6H536c-1.8 0-2.6.5-2.6 1.5 0 .4.1.8.4 1 .3.3.7.4 1.1.4zM540.4 178.9c0-1.3.3-2.3 1-3 .5-.8 1.3-1.2 2.3-1.2 1 0 1.8.4 2.3 1v-.8h1.4v8c0 1-.3 1.9-1 2.5-.6.6-1.4 1-2.5 1-.6 0-1.2-.2-1.8-.5a3 3 0 01-1.3-1l.8-.8c.6.7 1.3 1 2.2 1 .7 0 1.2-.1 1.6-.5.4-.4.6-1 .6-1.6v-.7c-.6.6-1.4 1-2.3 1-1 0-1.8-.5-2.4-1.2-.6-.8-.9-1.9-.9-3.2zm1.4.2c0 .9.2 1.6.6 2.1.4.6 1 .8 1.6.8a2 2 0 002-1.2v-3.7a2 2 0 00-2-1.2c-.7 0-1.2.3-1.6.8a4 4 0 00-.6 2.4zM553 183.2c-1.2 0-2.1-.3-2.8-1a4 4 0 01-1-3v-.3c0-.8.1-1.5.4-2.1.3-.7.8-1.2 1.3-1.5.6-.4 1.2-.6 1.8-.6 1.1 0 2 .4 2.5 1 .6.8 1 1.8 1 3v.7h-5.6c0 .8.2 1.4.7 2 .4.4 1 .7 1.7.7.5 0 1-.1 1.3-.3l.9-.8.8.6c-.7 1.1-1.7 1.6-3 1.6zm-.3-7.3c-.5 0-1 .2-1.4.6a3 3 0 00-.7 1.7h4.1c0-.8-.2-1.4-.6-1.7-.3-.4-.8-.6-1.4-.6zM561.7 176.1h-.7c-.9 0-1.5.4-1.8 1.1v5.9h-1.4v-8.2h1.3v1c.5-.8 1.2-1.2 2-1.2l.6.1v1.3zM449.3 212.5c0-.8-.2-1.4-.6-1.8-.4-.5-1-.9-2-1.3l-2.6-1.2c-.8-.4-1.5-.8-2.1-1.3-.6-.6-1-1.2-1.4-1.9a6 6 0 01-.4-2.5c0-1.6.5-3 1.6-4s2.6-1.7 4.5-1.9v-3h2.3v3c1.7.3 3.1 1 4.2 2.3 1 1.2 1.5 2.7 1.5 4.5h-5a4 4 0 00-.5-2.3 2 2 0 00-1.7-.8c-.6 0-1.1.2-1.5.6-.3.4-.5 1-.5 1.7s.2 1.2.6 1.7c.4.4 1 .8 2 1.2l2.5 1.2c.8.4 1.5.9 2.1 1.4.6.5 1 1.1 1.4 1.8.3.7.5 1.5.5 2.5 0 1.7-.6 3-1.6 4-1 1.1-2.5 1.8-4.3 2v2.9H446v-3c-2.2-.2-3.8-1-5-2.2a7 7 0 01-1.6-4.8h4.9c0 1 .2 2 .7 2.5.5.6 1.2.9 2.1.9a2 2 0 001.6-.6c.4-.4.6-1 .6-1.6zM475 218h-4.9v-15.6l-4.8 1.4v-3.7l9.3-3.2h.5V218zM496.2 209.4c0 2.9-.7 5-2 6.6a6.6 6.6 0 01-5.4 2.4c-2.3 0-4.2-.8-5.5-2.4-1.3-1.5-1.9-3.7-1.9-6.6v-3.9c0-2.8.6-5 2-6.6a6.7 6.7 0 015.4-2.3c2.3 0 4.2.8 5.4 2.3 1.3 1.6 2 3.8 2 6.7v3.8zm-5-4.5c0-1.5-.1-2.6-.5-3.4a2 2 0 00-2-1.1 2 2 0 00-1.8 1c-.3.7-.5 1.8-.6 3.2v5.4c0 1.6.2 2.8.6 3.5.4.7 1 1 2 1a2 2 0 001.8-1c.4-.7.6-1.8.6-3.3v-5.3zM513.5 209.4c0 2.9-.7 5-2 6.6a6.7 6.7 0 01-5.4 2.4c-2.4 0-4.2-.8-5.5-2.4-1.3-1.5-2-3.7-2-6.6v-3.9c0-2.8.7-5 2-6.6a6.7 6.7 0 015.5-2.3c2.3 0 4.1.8 5.4 2.3 1.3 1.6 2 3.8 2 6.7v3.8zm-5-4.5c0-1.5-.2-2.6-.6-3.4a2 2 0 00-1.8-1.1 2 2 0 00-1.9 1c-.4.7-.6 1.8-.6 3.2v5.4c0 1.6.2 2.8.6 3.5.4.7 1 1 1.9 1a2 2 0 001.8-1c.4-.7.6-1.8.6-3.3v-5.3zM538.2 209.4c0 2.9-.7 5-2 6.6a6.6 6.6 0 01-5.4 2.4c-2.4 0-4.2-.8-5.5-2.4-1.3-1.5-2-3.7-2-6.6v-3.9c0-2.8.7-5 2-6.6a6.7 6.7 0 015.5-2.3c2.3 0 4.1.8 5.4 2.3 1.3 1.6 2 3.8 2 6.7v3.8zm-5-4.5c0-1.5-.2-2.6-.6-3.4a2 2 0 00-1.8-1.1 2 2 0 00-1.9 1c-.4.7-.6 1.8-.6 3.2v5.4c0 1.6.2 2.8.6 3.5.4.7 1 1 1.9 1a2 2 0 001.8-1c.4-.7.6-1.8.6-3.3v-5.3zM555.4 209.4c0 2.9-.6 5-2 6.6a6.7 6.7 0 01-5.3 2.4c-2.4 0-4.2-.8-5.5-2.4-1.3-1.5-2-3.7-2-6.6v-3.9c0-2.8.7-5 2-6.6a6.7 6.7 0 015.4-2.3c2.4 0 4.2.8 5.5 2.3 1.3 1.6 2 3.8 2 6.7v3.8zm-4.9-4.5c0-1.5-.2-2.6-.6-3.4a2 2 0 00-1.9-1.1 2 2 0 00-1.8 1c-.4.7-.6 1.8-.6 3.2v5.4c0 1.6.2 2.8.6 3.5.4.7 1 1 1.9 1a2 2 0 001.8-1c.4-.7.6-1.8.6-3.3v-5.3zM572.7 209.4c0 2.9-.6 5-2 6.6a6.6 6.6 0 01-5.4 2.4c-2.3 0-4.2-.8-5.4-2.4-1.3-1.5-2-3.7-2-6.6v-3.9c0-2.8.7-5 2-6.6a6.7 6.7 0 015.4-2.3c2.4 0 4.2.8 5.5 2.3 1.3 1.6 1.9 3.8 1.9 6.7v3.8zm-5-4.5c0-1.5-.1-2.6-.5-3.4a2 2 0 00-1.9-1.1 2 2 0 00-1.8 1c-.4.7-.6 1.8-.7 3.2v5.4c0 1.6.2 2.8.6 3.5.4.7 1 1 2 1a2 2 0 001.8-1c.4-.7.6-1.8.6-3.3v-5.3z"/></g><path fill-rule="evenodd" clip-rule="evenodd" d="M629.5 203c0-.8.7-1.4 1.5-1.4h46.8l-10.9-8.4a1.5 1.5 0 111.8-2.4l14.4 11a1.5 1.5 0 010 2.4l-14.4 11a1.5 1.5 0 11-1.8-2.3l10.9-8.3H631c-.8 0-1.5-.7-1.5-1.5z" fill="#7E97C9"/></svg>