<svg width="318" height="212" viewBox="0 0 318 212" fill="none" xmlns="http://www.w3.org/2000/svg">
<path d="M252.645 6.09362V156.724C252.645 160.095 249.926 162.814 246.555 162.814H30.8873C27.5158 162.814 24.7969 160.095 24.7969 156.724V6.09362C24.7969 2.72212 27.5158 0.0031521 30.8873 0.0031521H246.555C249.926 -0.105606 252.645 2.61336 252.645 6.09362Z" fill="#254048"/>
<path d="M241.226 12.1841H36.2163V130.948H241.226V12.1841Z" fill="#6C67AB"/>
<path d="M241.226 12.1841H36.2163V130.948H241.226V12.1841Z" fill="#F0F0F0"/>
<path d="M98.1 50.6846H45.6785V88.0974H98.1V50.6846Z" fill="#F9C8A5"/>
<path d="M98.1 92.9917H45.6785V96.0369H98.1V92.9917Z" fill="#758789"/>
<path d="M165.639 50.6846H113.217V88.0974H165.639V50.6846Z" fill="#C9D3E8"/>
<path d="M165.639 92.9917H113.217V96.0369H165.639V92.9917Z" fill="#758789"/>
<path d="M231.764 50.6846H179.342V88.0974H231.764V50.6846Z" fill="#6C67AB"/>
<path d="M231.764 92.9917H179.342V96.0369H231.764V92.9917Z" fill="#758789"/>
<path d="M241.226 12.1841H36.2163V42.6364H241.226V12.1841Z" fill="#7E97C9"/>
<path d="M234.592 101.04H42.9597V106.695H234.592V101.04Z" fill="#54666F"/>
<path d="M234.592 109.523H42.96V112.133H234.592V109.523Z" fill="#758789"/>
<path d="M234.592 116.484H42.96V119.094H234.592V116.484Z" fill="#758789"/>
<path d="M114.523 123.444H42.96V126.055H114.523V123.444Z" fill="#758789"/>
<path d="M252.645 143.999V156.615C252.645 159.986 249.926 162.705 246.555 162.705H30.8871C27.5156 162.705 24.7966 159.986 24.7966 156.615V143.999H252.645Z" fill="#F0F0F0"/>
<path d="M184.671 191.961H92.8794L97.2297 189.242L109.628 181.521H167.814L184.671 191.961Z" fill="#F0F0F0"/>
<path d="M184.671 191.961H92.8794V193.919H184.671V191.961Z" fill="#CFCFD1"/>
<path d="M164.007 162.814H113.543V184.892H164.007V162.814Z" fill="#E0E2E6"/>
<path opacity="0.2" d="M164.007 162.814H113.543V166.295H164.007V162.814Z" fill="black"/>
<path d="M76.5658 203.599H7.61308C3.37151 203.599 0 200.227 0 195.986V89.2937C0 85.1609 3.37151 81.6807 7.61308 81.6807H76.5658C80.8074 81.6807 84.1789 85.0522 84.1789 89.2937V196.094C84.0701 200.227 80.6986 203.599 76.5658 203.599Z" fill="#254048"/>
<path d="M77.3269 89.8374H6.85156V184.675H77.3269V89.8374Z" fill="#6C67AB"/>
<path d="M77.3271 89.8374H6.85181V184.675H77.3271V89.8374Z" fill="#F0F0F0"/>
<path d="M73.1944 121.051H34.3677V123.444H73.1944V121.051Z" fill="#758789"/>
<path d="M73.1941 128.665H34.3674V131.057H73.1941V128.665Z" fill="#758789"/>
<path d="M73.1944 144.543H34.3677V147.044H73.1944V144.543Z" fill="#758789"/>
<path d="M73.1941 152.156H34.3674V154.657H73.1941V152.156Z" fill="#758789"/>
<path d="M73.1944 167.926H34.3677V170.318H73.1944V167.926Z" fill="#758789"/>
<path d="M73.1941 175.539H34.3674V177.932H73.1941V175.539Z" fill="#758789"/>
<path d="M31.1049 114.417H6.85181V137.8H31.1049V114.417Z" fill="#F9C8A5"/>
<path d="M31.1049 137.8H6.85181V161.183H31.1049V137.8Z" fill="#C9D3E8"/>
<path d="M31.1049 161.292H6.85181V184.675H31.1049V161.292Z" fill="#6C67AB"/>
<path d="M77.3271 89.8374H6.85181V114.199H77.3271V89.8374Z" fill="#7E97C9"/>
<path d="M77.3271 137.147H6.85181V138.561H77.3271V137.147Z" fill="#E0E2E6"/>
<path d="M77.3271 160.53H6.85181V161.944H77.3271V160.53Z" fill="#E0E2E6"/>
<path d="M45.7877 198.161H38.5009C36.3257 198.161 34.4768 196.638 34.4768 194.789C34.4768 192.94 36.2169 191.417 38.5009 191.417H45.7877C47.9628 191.417 49.8117 192.94 49.8117 194.789C49.7029 196.638 47.9628 198.161 45.7877 198.161Z" fill="#54666F"/>
<g opacity="0.3">
<path opacity="0.3" d="M38.3918 192.179H45.6786C47.7451 192.179 49.3764 193.484 49.594 195.115C49.594 195.006 49.594 194.898 49.594 194.789C49.594 192.94 47.8538 191.417 45.5699 191.417H38.2831C36.1079 191.417 34.259 192.94 34.259 194.789C34.259 194.898 34.259 195.006 34.259 195.115C34.6941 193.484 36.3254 192.179 38.3918 192.179Z" fill="black"/>
</g>
<path d="M308.656 102.78V196.094H144.104V102.78C144.104 98.9733 147.15 95.8193 150.956 95.8193H301.695C305.502 95.8193 308.656 98.9733 308.656 102.78Z" fill="#3C4A4D"/>
<path d="M301.695 102.78H150.956V189.243H301.695V102.78Z" fill="#6C67AB"/>
<path d="M301.695 102.78H150.956V189.243H301.695V102.78Z" fill="#F0F0F0"/>
<path d="M196.526 130.731H158.025V158.029H196.526V130.731Z" fill="#F9C8A5"/>
<path d="M196.526 161.509H158.025V163.684H196.526V161.509Z" fill="#758789"/>
<path d="M246.119 130.731H207.619V158.029H246.119V130.731Z" fill="#C9D3E8"/>
<path d="M246.119 161.509H207.619V163.684H246.119V161.509Z" fill="#758789"/>
<path d="M294.734 130.731H256.234V158.029H294.734V130.731Z" fill="#6C67AB"/>
<path d="M294.734 161.509H256.234V163.684H294.734V161.509Z" fill="#758789"/>
<path d="M301.695 102.78H150.956V124.966H301.695V102.78Z" fill="#7E97C9"/>
<path d="M296.801 167.491H155.959V171.624H296.801V167.491Z" fill="#54666F"/>
<path d="M296.801 173.582H155.959V175.539H296.801V173.582Z" fill="#758789"/>
<path d="M296.801 178.693H155.959V180.651H296.801V178.693Z" fill="#758789"/>
<path d="M208.598 183.696H155.959V185.653H208.598V183.696Z" fill="#758789"/>
<path d="M317.791 206.862H134.86L144.105 196.095H308.656L317.791 206.862Z" fill="#F0F0F0"/>
<path d="M249.709 201.533H226.326H203.051L196.091 205.339H226.326H256.56L249.709 201.533Z" fill="#CFCFD1"/>
<path d="M306.372 211.103H146.388C140.081 211.103 134.86 210.885 134.86 206.861H317.791C317.791 210.885 312.68 211.103 306.372 211.103Z" fill="#254048"/>
<path d="M88.5294 206.753H51.6603C48.8326 206.753 46.4399 204.36 46.4399 201.532V130.187C46.4399 127.25 48.7239 124.966 51.6603 124.966H88.5294C91.3571 124.966 93.7498 127.25 93.7498 130.187V201.532C93.7498 204.36 91.4658 206.753 88.5294 206.753Z" fill="#254048"/>
<path d="M89.0731 130.513H51.1165V193.702H89.0731V130.513Z" fill="#6C67AB"/>
<path d="M89.0731 130.513H51.1165V193.702H89.0731V130.513Z" fill="#F0F0F0"/>
<path d="M87.0067 151.286H66.0164V152.918H87.0067V151.286Z" fill="#758789"/>
<path d="M87.0067 156.398H66.0164V158.029H87.0067V156.398Z" fill="#758789"/>
<path d="M87.0067 166.947H66.0164V168.579H87.0067V166.947Z" fill="#758789"/>
<path d="M87.0067 171.95H66.0164V173.582H87.0067V171.95Z" fill="#758789"/>
<path d="M87.0067 182.5H66.0164V184.131H87.0067V182.5Z" fill="#758789"/>
<path d="M87.0067 187.611H66.0164V189.243H87.0067V187.611Z" fill="#758789"/>
<path d="M64.1672 146.827H51.1162V162.488H64.1672V146.827Z" fill="#F9C8A5"/>
<path d="M64.1672 162.488H51.1162V178.04H64.1672V162.488Z" fill="#C9D3E8"/>
<path d="M64.1672 178.041H51.1162V193.593H64.1672V178.041Z" fill="#6C67AB"/>
<path d="M89.0731 130.513H51.1165V146.718H89.0731V130.513Z" fill="#7E97C9"/>
<path d="M89.0728 161.944H51.1162V162.814H89.0728V161.944Z" fill="#E0E2E6"/>
<path d="M89.0728 177.605H51.1162V178.475H89.0728V177.605Z" fill="#E0E2E6"/>
<path d="M72.9773 203.272H67.2131C65.4729 203.272 64.0591 202.076 64.0591 200.662C64.0591 199.248 65.4729 198.052 67.2131 198.052H72.9773C74.7174 198.052 76.1312 199.248 76.1312 200.662C76.1312 202.076 74.7174 203.272 72.9773 203.272Z" fill="#54666F"/>
<g opacity="0.3">
<path opacity="0.3" d="M67.2129 198.487H72.9771C74.6085 198.487 75.9136 199.466 76.0224 200.88C76.0224 200.771 76.0224 200.662 76.0224 200.662C76.0224 199.249 74.6085 198.052 72.8684 198.052H67.1042C65.3641 198.052 63.9502 199.249 63.9502 200.662C63.9502 200.771 63.9502 200.88 63.9502 200.88C64.2765 199.575 65.5816 198.487 67.2129 198.487Z" fill="black"/>
</g>
</svg>
