<svg width="190" height="45" viewBox="0 0 190 45" fill="none" xmlns="http://www.w3.org/2000/svg">
<path d="M16.1201 25.0272C11.4833 25.0272 7.71592 21.2598 7.71592 16.6231C7.71592 11.9863 11.4833 8.21885 16.1201 8.21885V0.50293C7.20877 0.50293 0 7.7117 0 16.6231C0 25.5344 7.20877 32.7432 16.1201 32.7432V25.0272Z" fill="#16AB4B"/>
<path d="M16.1202 12.5295V20.2092C20.757 20.2092 24.5244 23.9766 24.5244 28.6134C24.5244 33.2502 20.757 37.0176 16.1202 37.0176V44.6973C25.0316 44.6973 32.2404 37.4886 32.2404 28.6134C32.2041 19.7383 24.9954 12.5295 16.1202 12.5295Z" fill="#EB6B29"/>
<path d="M159.245 14.3408C160.332 14.3408 161.274 15.2464 161.274 16.3332C161.274 17.4199 160.368 18.3256 159.245 18.3256C158.158 18.3256 157.217 17.4199 157.217 16.3332C157.253 15.2464 158.158 14.3408 159.245 14.3408Z" fill="#424242"/>
<path d="M55.7865 14.377C56.8733 14.377 57.8151 15.2826 57.8151 16.3693C57.8151 17.4561 56.9095 18.3617 55.7865 18.3617C54.6998 18.3617 53.7579 17.4561 53.7579 16.3693C53.7942 15.2826 54.6998 14.377 55.7865 14.377ZM57.4891 19.702V32.3083H54.1202V19.702H57.4891Z" fill="#424242"/>
<path d="M60.7133 19.7021H64.0822L64.046 21.6221C64.6618 20.7527 65.821 19.7021 67.7409 19.7021C68.7914 19.7021 70.3129 19.9919 71.2547 21.1511C72.0879 22.1654 72.1966 23.3609 72.1966 24.5201V32.3084H68.8277V25.5344C68.8277 24.8823 68.7914 23.8318 68.2118 23.1797C67.7047 22.6364 66.9802 22.5639 66.6542 22.5639C65.7848 22.5639 65.0965 22.8537 64.5893 23.6144C64.0822 24.3752 64.0822 25.2446 64.0822 25.9328V32.3084H60.7133V19.7021Z" fill="#424242"/>
<path d="M44.7018 19.4123C43.5063 19.4123 42.3834 19.7384 41.4053 20.2817V12.4209L38.0364 13.399V26.0777C38.0364 29.7364 41.0068 32.7069 44.6656 32.7069C48.3243 32.7069 51.2947 29.7364 51.2947 26.0777C51.3309 22.3828 48.3605 19.4123 44.7018 19.4123ZM44.7018 29.5191C42.7818 29.5191 41.2242 27.9614 41.2242 26.0415C41.2242 24.1216 42.7818 22.5639 44.7018 22.5639C46.6217 22.5639 48.1794 24.1216 48.1794 26.0415C48.1431 27.9614 46.6217 29.5191 44.7018 29.5191Z" fill="#424242"/>
<path d="M84.7302 19.847V20.7164C83.6435 19.9194 82.3031 19.4485 80.8541 19.4485C77.1954 19.4485 74.225 22.4189 74.225 26.0777C74.225 29.7364 77.1954 32.7068 80.8541 32.7068C82.3031 32.7068 83.6435 32.2359 84.7302 31.439V32.3084H88.0991V19.847H84.7302ZM81.2526 29.519C79.3327 29.519 77.775 27.9614 77.775 26.0414C77.775 24.1215 79.3327 22.5638 81.2526 22.5638C83.1725 22.5638 84.7302 24.1215 84.7302 26.0414C84.7302 27.9614 83.1725 29.519 81.2526 29.519Z" fill="#424242"/>
<path d="M143.777 19.7022V20.6802C142.69 19.8833 141.35 19.4124 139.901 19.4124C136.242 19.4124 133.272 22.3828 133.272 26.0415C133.272 29.7003 136.242 32.6707 139.901 32.6707C141.35 32.6707 142.69 32.1998 143.777 31.4028V32.2722H147.146V19.6659H143.777V19.7022ZM140.299 29.5191C138.379 29.5191 136.822 27.9615 136.822 26.0415C136.822 24.1216 138.379 22.5639 140.299 22.5639C142.219 22.5639 143.777 24.1216 143.777 26.0415C143.777 27.9615 142.219 29.5191 140.299 29.5191Z" fill="#424242"/>
<path d="M169.533 19.4124C165.874 19.4124 162.904 22.3828 162.904 26.0415C162.904 29.7003 165.874 32.6707 169.533 32.6707C173.192 32.6707 176.162 29.7003 176.162 26.0415C176.198 22.3828 173.228 19.4124 169.533 19.4124ZM169.533 29.5191C167.613 29.5191 166.055 27.9615 166.055 26.0415C166.055 24.1216 167.613 22.5639 169.533 22.5639C171.453 22.5639 173.01 24.1216 173.01 26.0415C173.01 27.9615 171.453 29.5191 169.533 29.5191Z" fill="#424242"/>
<path d="M90.7798 19.847H94.2936V21.7307C94.837 20.6801 95.5977 20.1368 95.8513 19.9919C96.3947 19.6296 97.0829 19.4485 97.9161 19.4485C98.5319 19.4485 99.0029 19.5934 99.4013 19.7383L98.9304 22.9985C98.4595 22.6725 98.0248 22.5276 97.3003 22.5276C96.6482 22.5276 95.6702 22.6725 94.9819 23.5419C94.3298 24.3751 94.2936 25.4256 94.2936 26.295V32.3084H90.7798V19.847Z" fill="#424242"/>
<path d="M106.429 30.0624L100.669 19.8469H104.618L108.349 26.6934L111.682 19.8469H115.522L106.502 37.0176H102.662L106.429 30.0624Z" fill="#424242"/>
<path d="M122.295 22.6726C121.498 21.9119 120.665 21.8757 120.303 21.8757C119.506 21.8757 118.999 22.2741 118.999 22.8537C118.999 23.1435 119.144 23.6507 120.086 23.9405L120.883 24.1941C121.825 24.4839 123.237 24.991 123.962 25.9329C124.324 26.44 124.578 27.1645 124.578 27.9252C124.578 29.012 124.215 30.0987 123.237 31.0043C122.259 31.91 121.1 32.2722 119.615 32.2722C117.115 32.2722 115.702 31.0768 114.942 30.2799L116.717 28.215C117.369 29.012 118.383 29.5916 119.397 29.5916C120.339 29.5916 121.064 29.1207 121.064 28.2875C121.064 27.5268 120.448 27.237 120.013 27.0558L119.216 26.766C118.347 26.4762 117.333 26.0778 116.608 25.317C116.065 24.7374 115.702 23.9767 115.702 22.9986C115.702 21.8394 116.246 20.8614 116.97 20.2818C117.912 19.521 119.144 19.4124 120.122 19.4124C121.028 19.4124 122.44 19.521 123.962 20.6802L122.295 22.6726Z" fill="#424242"/>
<path d="M153.449 22.5999V32.3082H150.08V22.5999H148.74V19.7019H150.08V16.9488L153.449 16.0432V19.7382H155.768V22.6362H153.449V22.5999Z" fill="#424242"/>
<path d="M160.911 19.7021V32.3084H157.542V19.7021H160.911Z" fill="#424242"/>
<path d="M178.48 19.7021H181.849V21.6221C182.501 20.7527 183.624 19.7021 185.544 19.7021C186.595 19.7021 188.153 19.9919 189.058 21.1511C189.891 22.1654 190 23.3609 190 24.5201V32.3084H186.631V25.5344C186.631 24.8823 186.595 23.8318 186.015 23.1797C185.508 22.6364 184.784 22.5639 184.458 22.5639C183.588 22.5639 182.9 22.8537 182.393 23.6144C181.886 24.3752 181.886 25.2446 181.886 25.9328V32.3084H178.517V19.7021H178.48Z" fill="#424242"/>
<path d="M130.301 22.5999V32.3082H126.932V22.5999H125.592V19.7019H126.932V16.9488L130.301 16.0432V19.7382H132.62V22.6362H130.301V22.5999Z" fill="#424242"/>
</svg>
