<svg width="160" height="42" viewBox="0 0 160 42" fill="none" xmlns="http://www.w3.org/2000/svg">
<g opacity="0.7">
<path d="M62.8314 27.3833L62.335 20.3002C62.2778 19.4602 62.2397 18.7922 62.2397 18.0857C62.087 18.8492 61.9725 19.3266 61.7434 20.1283L59.6434 27.3828H57.3716L55.4816 20.4151C55.3097 19.766 55.0808 18.8306 54.9472 18.067C54.9472 18.8497 54.9089 19.6324 54.8516 20.4532L54.3934 27.3828H51.7397L52.9807 14.1157H56.3979L58.1352 20.7592C58.3832 21.7138 58.4788 22.1718 58.5932 22.8595C58.7076 22.1718 58.8604 21.4847 59.0706 20.702L60.8652 14.1157H64.2632L65.4467 27.3833H62.8314Z" fill="#686868"/>
<path d="M69.9333 23.2977V23.3744C69.9333 24.882 70.678 25.7419 71.9953 25.7419C72.8733 25.7419 73.6943 25.4169 74.4768 24.7681L75.4697 26.2959C74.3432 27.2127 73.1597 27.6513 71.7851 27.6513C68.9785 27.6513 67.165 25.666 67.165 22.5924C67.165 20.8362 67.528 19.6719 68.3869 18.7173C69.1887 17.8199 70.1622 17.3999 71.4607 17.3999C72.5867 17.3999 73.656 17.7818 74.2859 18.4309C75.1833 19.3472 75.5841 20.6645 75.5841 22.7071V23.2985H69.9333V23.2977ZM72.9308 21.3126C72.9308 20.5874 72.8544 20.2053 72.6253 19.8425C72.377 19.4609 72.0145 19.2698 71.499 19.2698C70.5255 19.2698 69.9719 20.0333 69.9719 21.3888V21.4271H72.9308V21.3126Z" fill="#686868"/>
<path d="M80.2047 27.6129C78.9065 27.6129 77.8758 27.0405 77.57 26.1809C77.4175 25.7607 77.3986 25.5701 77.3986 24.6727V19.3655H76.4248V17.6093H77.3986C77.3986 16.6547 77.3986 16.0247 77.4939 15.2992L80.09 14.6501C79.9947 15.5473 79.9375 16.6166 79.9375 17.6093H82.2286L81.5793 19.3655H79.9375V24.2719C79.9375 25.5126 80.1666 25.837 81.0446 25.837C81.274 25.837 81.5026 25.7796 81.9609 25.6462L82.2856 27.1733C81.5412 27.4788 80.8727 27.6129 80.2047 27.6129Z" fill="#686868"/>
<path d="M90.5326 27.8798C89.9404 27.6315 89.406 27.1921 89.1582 26.6963C88.9672 26.8871 88.7572 27.0781 88.5661 27.2117C88.0889 27.5553 87.4015 27.7462 86.5999 27.7462C84.4237 27.7462 83.24 26.6388 83.24 24.6917C83.24 22.4009 84.8243 21.3318 87.9362 21.3318C88.127 21.3318 88.2989 21.3318 88.5086 21.3507V20.9499C88.5086 19.8617 88.2989 19.4992 87.3632 19.4992C86.5422 19.4992 85.5878 19.9 84.5379 20.6063L83.4497 18.7735C83.965 18.4491 84.3469 18.2582 85.0343 17.9719C85.9889 17.5708 86.8094 17.3992 87.7068 17.3992C89.3488 17.3992 90.4748 18.01 90.857 19.0982C90.9906 19.4992 91.0478 19.8047 91.0284 20.8546L90.9712 24.1382C90.9518 25.207 91.0284 25.6655 91.8875 26.3146L90.5326 27.8798ZM88.3561 23.1074C86.581 23.1074 85.97 23.4319 85.97 24.5962C85.97 25.3597 86.4474 25.8752 87.096 25.8752C87.5734 25.8752 88.0506 25.6272 88.4325 25.2072L88.4708 23.1074H88.3561Z" fill="#686868"/>
<path d="M101.663 16.33H98.4937V27.3835H95.7828V16.33H92.5376V14.1157H102.102L101.663 16.33Z" fill="#686868"/>
<path d="M107.925 19.8424C107.677 19.7088 107.467 19.6516 107.181 19.6516C106.608 19.6516 106.093 19.9188 105.615 20.4723V27.3833H103.057V20.8545C103.057 19.5371 102.905 18.5445 102.695 17.9909L104.985 17.3801C105.215 17.7812 105.348 18.2203 105.386 18.7736C105.94 18.029 106.723 17.3801 107.677 17.3801C108.059 17.3801 108.23 17.4182 108.631 17.5901L107.925 19.8424Z" fill="#686868"/>
<path d="M116.305 27.8798C115.714 27.6315 115.179 27.1921 114.931 26.6963C114.74 26.8871 114.53 27.0781 114.339 27.2117C113.861 27.5553 113.174 27.7462 112.372 27.7462C110.196 27.7462 109.013 26.6388 109.013 24.6917C109.013 22.4009 110.597 21.3318 113.709 21.3318C113.9 21.3318 114.071 21.3318 114.281 21.3507V20.9499C114.281 19.8617 114.071 19.4992 113.136 19.4992C112.315 19.4992 111.36 19.9 110.311 20.6063L109.223 18.7735C109.738 18.4491 110.12 18.2582 110.807 17.9719C111.762 17.5708 112.583 17.3992 113.48 17.3992C115.122 17.3992 116.248 18.01 116.63 19.0982C116.763 19.4992 116.821 19.8047 116.802 20.8546L116.744 24.1382C116.725 25.207 116.802 25.6655 117.661 26.3146L116.305 27.8798ZM114.129 23.1074C112.354 23.1074 111.743 23.4319 111.743 24.5962C111.743 25.3597 112.22 25.8752 112.869 25.8752C113.347 25.8752 113.824 25.6272 114.205 25.2072L114.243 23.1074H114.129Z" fill="#686868"/>
<path d="M125.335 27.3832C125.259 27.2307 125.221 27.0779 125.183 26.8107C124.553 27.3641 123.808 27.6313 122.93 27.6313C120.448 27.6313 118.883 25.7036 118.883 22.6679C118.883 19.6135 120.581 17.5137 123.063 17.5137C123.77 17.5137 124.323 17.6853 124.801 18.0672C124.763 17.8572 124.724 17.1892 124.724 16.6165V13.2566L127.263 13.6574V23.8133C127.263 26.2189 127.454 27.0011 127.626 27.3832H125.335ZM124.763 20.1864C124.285 19.7665 123.828 19.5565 123.37 19.5565C122.224 19.5565 121.728 20.5111 121.728 22.6873C121.728 24.7873 122.167 25.4745 123.503 25.4745C123.981 25.4745 124.515 25.1496 124.763 24.8445V20.1864Z" fill="#686868"/>
<path d="M132.132 23.2977V23.3744C132.132 24.882 132.876 25.7419 134.194 25.7419C135.072 25.7419 135.893 25.4169 136.676 24.7681L137.669 26.2959C136.542 27.2127 135.359 27.6513 133.984 27.6513C131.178 27.6513 129.365 25.666 129.365 22.5924C129.365 20.8362 129.727 19.6719 130.587 18.7173C131.389 17.8199 132.362 17.3999 133.66 17.3999C134.786 17.3999 135.855 17.7818 136.485 18.4309C137.383 19.3472 137.783 20.6645 137.783 22.7071V23.2985H132.132L132.132 23.2977ZM135.129 21.3126C135.129 20.5874 135.053 20.2053 134.824 19.8425C134.576 19.4609 134.213 19.2698 133.697 19.2698C132.724 19.2698 132.17 20.0333 132.17 21.3888V21.4271H135.129L135.129 21.3126Z" fill="#686868"/>
<path d="M144.464 19.8424C144.217 19.7088 144.007 19.6516 143.72 19.6516C143.148 19.6516 142.632 19.9188 142.155 20.4723V27.3833H139.597V20.8545C139.597 19.5371 139.445 18.5445 139.234 17.9909L141.526 17.3801C141.754 17.7812 141.888 18.2203 141.927 18.7736C142.48 18.029 143.263 17.3801 144.218 17.3801C144.6 17.3801 144.771 17.4182 145.172 17.5901L144.464 19.8424Z" fill="#686868"/>
<path d="M150.811 32.8394C149.878 32.8394 149.528 32.8099 148.594 32.6349L147.748 29.7469C148.857 30.0388 149.644 30.1555 150.49 30.1555C153.582 30.1555 155.77 28.4048 155.77 25.8967C155.77 24.0298 154.486 22.8042 152.59 22.8042C151.394 22.8042 150.199 23.0366 148.332 23.6209L149.265 12.5364H159.212L158.628 15.8613H152.911L152.503 19.9157C153.116 19.7992 153.348 19.7707 153.874 19.7707C157.49 19.7707 160 22.1034 160 25.4298C160 29.7469 156.178 32.8394 150.811 32.8394Z" fill="#F28B27"/>
<path d="M26.8533 15.6818L27.6705 19.8845C30.9393 18.8338 34.9085 22.1026 34.9085 22.1026L30.7058 21.1687C30.7058 21.1687 27.904 23.6203 26.6198 25.9551C25.3357 28.29 26.8533 32.1425 26.8533 32.1425L30.7058 34.7108C27.0868 35.1777 23.4678 30.975 23.4678 30.975L20.0823 33.0764C27.3203 42.6492 33.6244 41.0149 33.6244 41.0149C40.8624 40.1977 43.8977 29.4574 43.8977 29.4574C45.0651 12.5298 26.8533 15.6818 26.8533 15.6818ZM31.6009 26.7259C31.6009 26.7259 31.1728 27.356 31.1728 27.4728L30.5891 28.7569L30.244 29.7791C30.0902 30.0534 29.9542 30.093 29.6551 30.0411L27.2036 29.2239L26.9701 28.7569L27.437 27.5895L28.0207 26.3053L28.4877 25.1379L29.5655 25.1994L31.0921 25.9551L31.6009 26.7259Z" fill="url(#paint0_linear)"/>
<path d="M31.6009 26.7259C31.6009 26.7259 31.1728 27.356 31.1728 27.4728L30.5891 28.7569L30.244 29.7791C30.0902 30.0534 29.9542 30.093 29.6551 30.0411L27.2036 29.2239L26.9701 28.7569L27.437 27.5895L28.0207 26.3053L28.4877 25.1379L29.5655 25.1994L31.0921 25.9551L31.6009 26.7259Z" fill="url(#paint1_linear)"/>
<path d="M33.5077 8.09344C29.6552 1.90611 18.7982 3.65724 18.7982 3.65724C3.03801 9.49435 13.5448 24.7876 13.5448 24.7876L17.0471 22.2192C14.7122 19.6509 15.9964 14.631 15.9964 14.631L16.8136 18.9505C16.8136 18.9505 20.0425 20.5028 22.6108 20.6195C25.1791 20.7362 28.2543 17.783 28.2543 17.783L28.9548 13.2301C30.9394 16.3821 28.6045 21.4021 28.6045 21.4021L31.8733 23.6201C37.5937 13.2301 33.5077 8.09344 33.5077 8.09344ZM24.4018 18.8337H23.2344H21.7168H20.5493C20.3159 18.8337 20.0824 18.717 20.0824 18.3668L20.1991 15.7984C20.1991 15.6817 20.3158 15.4482 20.6661 15.4482C21.133 15.4482 21.7168 15.4482 21.8335 15.4482C21.8335 15.4482 23.2344 15.4482 23.3511 15.4482H24.5186C24.6353 15.4482 24.9855 15.5649 24.9855 15.7984L25.1023 18.3668C24.7521 18.717 24.6353 18.8337 24.4018 18.8337Z" fill="url(#paint2_linear)"/>
<path d="M24.4018 18.8337H23.2344H21.7168H20.5493C20.3159 18.8337 20.0824 18.717 20.0824 18.3668L20.1991 15.7984C20.1991 15.6817 20.3158 15.4482 20.6661 15.4482H21.8335H23.3511H24.5186C24.6353 15.4482 24.9855 15.5649 24.9855 15.7984L25.1023 18.3668C24.7521 18.717 24.6353 18.8337 24.4018 18.8337Z" fill="url(#paint3_linear)"/>
<path d="M13.0777 25.6046L12.7274 25.1376C9.34192 19.3005 8.52472 14.2806 10.1591 10.1946C12.1437 5.29146 17.1636 3.89055 17.3971 3.77381L17.6306 4.70775L17.5139 4.24078L17.6306 4.70775C17.5139 4.70775 12.7274 6.10865 10.9763 10.5449C9.45866 14.1639 10.2759 18.7168 13.3112 24.2037L15.8795 22.3358C15.179 21.1684 13.5446 17.5494 15.0623 14.0471C15.179 13.9304 15.2958 13.6969 15.5293 13.8136C15.7627 13.8136 15.8795 13.9304 15.9962 14.2806L16.8134 18.8336C17.2804 19.067 18.6813 19.8842 20.5492 20.2345C23.351 20.8182 25.8026 20.001 27.5537 18.0164L28.0207 13.1132C28.0207 12.9964 28.1374 12.763 28.3709 12.6462C28.4876 12.5295 28.8379 12.6462 28.8379 12.763C31.056 15.915 29.6551 20.2345 28.9546 21.5186L31.5229 23.2698C32.3401 21.4019 35.3754 14.2806 33.0406 9.26069C31.9899 6.69237 29.5383 5.05797 25.9193 4.35752L26.0361 3.42358C29.8885 4.24078 32.5736 5.99191 33.9745 8.91047C37.0098 15.0978 32.3401 23.8535 32.1066 24.2037L31.8732 24.6707L27.9039 21.6354L28.0207 21.2851C28.0207 21.2851 29.7718 17.5494 28.8379 14.3973L28.6044 18.1331L28.4876 18.2498C26.3863 20.5847 23.5845 21.5186 20.4324 20.8182C17.9808 20.3512 16.3464 19.1838 16.2297 19.1838L16.113 19.067L15.646 16.1485C15.4125 19.1838 17.1636 21.9856 17.1636 21.9856L17.3971 22.3358L13.0777 25.6046Z" fill="#31552A"/>
<path d="M24.7518 9.49438L22.5337 14.7478L19.7319 9.96135C19.7319 9.96135 22.7672 11.5957 24.7518 9.49438Z" fill="white"/>
<path d="M26.2545 4.85318L26.2546 4.85431C26.5921 7.66727 24.9054 10.0829 22.6213 10.4132C20.2156 10.6281 17.9822 8.65409 17.6451 5.84542C17.3073 3.02986 18.9974 0.612347 21.2848 0.285584C23.564 -0.0400228 25.9163 1.9221 26.2545 4.85318Z" fill="url(#paint4_linear)" stroke="#31552A" stroke-width="0.5"/>
<path fill-rule="evenodd" clip-rule="evenodd" d="M18.3028 5.26191C18.1882 7.80998 19.7682 9.88773 21.7585 9.97729C23.7487 10.0668 25.509 8.1394 25.6236 5.59133C25.7383 3.04326 24.1582 0.96551 22.168 0.875955C20.1778 0.786401 18.4175 2.71384 18.3028 5.26191ZM21.7432 10.3162C19.5031 10.2154 17.844 7.91229 17.9639 5.24666C18.0839 2.58104 19.9431 0.436253 22.1832 0.537053C24.4234 0.637853 26.0825 2.94095 25.9625 5.60658C25.8426 8.2722 23.9833 10.417 21.7432 10.3162Z" fill="white"/>
<path opacity="0.6" d="M18.6813 6.10871C18.6813 6.10871 17.6306 1.78925 23.0007 0.621826L18.6813 6.10871Z" fill="url(#paint5_linear)"/>
<path opacity="0.6" d="M18.6814 6.10871C18.6814 6.10871 17.8642 1.90599 22.6506 0.621826C22.6506 0.738568 18.3311 2.4897 18.6814 6.10871Z" fill="url(#paint6_linear)"/>
<path d="M26.5032 4.70801C26.5032 4.70801 33.2742 6.57588 33.5077 12.2962C33.5077 12.2962 32.924 7.39308 26.6199 5.64195L26.5032 4.70801Z" fill="url(#paint7_linear)"/>
<path d="M30.8226 15.565C30.8226 15.565 30.7059 12.0627 26.9701 10.0781L26.5032 10.5451C26.5032 10.6618 29.772 11.1288 30.8226 15.565Z" fill="url(#paint8_linear)"/>
<path d="M17.2803 9.84448C17.2803 9.84448 14.1283 12.8798 13.7781 16.0318L14.245 15.9151C14.245 15.9151 14.8288 12.4128 17.6306 10.3115L17.2803 9.84448Z" fill="url(#paint9_linear)"/>
<path d="M17.2803 5.2915C17.2803 5.2915 10.2757 8.67703 11.0929 15.7983C11.0929 15.7983 12.2604 8.56028 17.0468 6.22544L17.2803 5.2915Z" fill="url(#paint10_linear)"/>
<path d="M39.5782 35.9947C36.7764 35.0608 35.142 32.3757 35.9592 30.0409C36.7764 27.5893 39.695 26.4219 42.4968 27.3558C45.2986 28.2898 46.933 30.9748 46.1158 33.3097C45.2986 35.6445 42.2633 36.8119 39.5782 35.9947Z" fill="url(#paint11_linear)"/>
<path opacity="0.6" d="M36.5427 29.9243C36.5427 29.9243 38.7608 26.0718 43.4305 28.7568L36.5427 29.9243Z" fill="url(#paint12_linear)"/>
<path d="M36.5427 29.9243C36.5427 29.9243 38.7608 26.1885 43.197 28.6401C43.197 28.6401 38.7608 27.0057 36.5427 29.9243Z" fill="url(#paint13_linear)"/>
<path d="M38.5274 25.3712C38.5274 25.3712 37.0098 21.2853 34.3247 19.6509C34.3247 19.6509 37.1265 22.2192 37.9437 25.488L38.5274 25.3712Z" fill="url(#paint14_linear)"/>
<path d="M42.8468 27.3558C42.8468 27.3558 42.73 19.4174 35.959 17.0825C35.959 17.0825 41.6794 20.8183 41.7961 26.3052L42.8468 27.3558Z" fill="url(#paint15_linear)"/>
<path d="M27.437 15.7985C28.0207 15.6817 28.6044 15.6817 29.1881 15.6817V15.565C29.1881 15.4483 29.0713 15.4483 29.0713 15.3315C29.0713 15.2148 28.9546 15.2148 29.0713 15.098C29.0713 14.9813 29.0713 14.9813 28.9546 14.8645C28.9546 14.8645 28.9546 14.8645 28.9546 14.7478C28.2542 14.7478 27.5537 14.7478 26.7365 14.8645L26.2695 14.9813L27.3202 20.2347L27.7872 20.1179C27.7872 20.1179 28.1374 20.1179 28.6044 20.1179C28.6044 20.1179 28.6044 20.0012 28.7211 20.0012C28.7211 19.8845 28.8379 19.8845 28.8379 19.7677V19.651C28.8379 19.5342 28.8379 19.184 28.9546 19.0673C28.6044 19.0673 28.3709 19.0673 28.1374 19.0673L27.437 15.7985Z" fill="#0951B7"/>
<path d="M41.563 18.7169C40.0453 16.9657 37.7105 15.9151 35.0254 15.2146C35.0254 15.5648 34.9087 15.9151 34.9087 16.2653C37.477 16.849 39.4616 17.8997 40.8625 19.4173C44.0146 22.9196 43.0916 28.5012 43.0916 28.618L44.0256 28.7347C44.0256 28.5012 45.182 22.5694 41.563 18.7169Z" fill="#104E67"/>
<path d="M35.9599 21.7523C35.3762 21.0518 34.6758 20.5848 33.9753 20.2346C33.9753 20.3514 33.8586 20.5848 33.8586 20.7016C33.8586 20.8183 33.7418 21.0518 33.7418 21.1686C33.7418 21.1686 33.8586 21.1686 33.8586 21.2853H33.7418L33.6251 21.402C33.6251 21.5188 33.5083 21.6355 33.5083 21.7523C33.5083 21.7523 33.5083 21.7523 33.5083 21.869C33.5083 21.9858 33.3916 21.9858 33.3916 22.1025C33.3916 22.1025 33.3916 22.1025 33.3916 22.2192L35.6097 22.8029C35.8432 22.8029 36.0767 22.8029 36.1934 22.5695C36.1934 22.2192 36.0767 21.869 35.9599 21.7523Z" fill="#104E67"/>
<path d="M40.5012 35.1996C38.2831 38.1181 35.4923 40.431 32.6905 40.431C27.2036 40.431 21.9502 34.7106 20.5493 33.193L23.2344 31.5586C24.1683 32.726 27.4371 35.7613 31.1728 35.0609C31.2896 35.0609 31.6398 34.8274 31.5231 34.5939C31.4063 34.4772 31.4063 34.1269 31.2896 34.1269L27.0869 31.6754C26.0362 29.107 26.2697 26.6554 28.0208 24.3206C28.4878 23.6201 28.9547 23.1532 29.4217 22.6862C29.4217 22.6862 29.4217 22.6862 29.305 22.6862C29.1882 22.5695 29.0715 22.5695 28.9547 22.4527L28.838 22.336C28.7213 22.336 28.7213 22.2192 28.7213 22.2192C28.371 22.5695 27.9041 23.1532 27.4371 23.7369C25.5692 26.3052 25.219 29.2238 26.3864 32.1423L26.5031 32.2591L29.6552 34.1269C26.5031 33.66 23.8181 30.6247 23.8181 30.6247L23.5846 30.2744L19.2651 32.9595L19.6154 33.4265C19.8488 33.7767 25.9194 41.5984 32.8072 41.4817C35.9593 41.365 38.9836 39.0521 41.3184 35.9L40.5012 35.1996Z" fill="#104E67"/>
<path d="M35.9594 32.3758L32.1069 28.1731L37.5938 27.5894C37.7106 27.5894 34.9087 29.574 35.9594 32.3758Z" fill="#DBDCDF"/>
<path fill-rule="evenodd" clip-rule="evenodd" d="M37.0518 29.4434C36.0635 31.3548 37.0782 33.8945 39.3982 35.0941C41.7183 36.2937 44.3772 35.6535 45.3655 33.7421C46.3538 31.8307 45.3391 29.291 43.0191 28.0914C40.699 26.8918 38.0401 27.532 37.0518 29.4434ZM39.2424 35.3955C36.8045 34.1349 35.6529 31.4102 36.7504 29.2876C37.8479 27.165 40.7369 26.5295 43.1749 27.79C45.6128 29.0506 46.7644 31.7753 45.6669 33.8979C44.5694 36.0205 41.6804 36.656 39.2424 35.3955Z" fill="white"/>
<path d="M29.5388 19.7675C29.6556 18.9503 29.6556 18.1331 29.6556 17.3159C29.6556 17.1991 29.6556 17.1991 29.6556 17.1991C29.5388 16.7322 29.4221 16.0317 29.3053 15.448C27.7877 15.5647 26.8538 15.5647 26.8538 15.5647L27.671 19.7675C28.2547 19.7675 28.8384 19.6507 29.5388 19.7675Z" fill="url(#paint16_linear)"/>
<path d="M29.6552 18.9505C29.0715 18.9505 28.4878 18.9505 28.1376 18.9505L27.5539 15.7985C28.1376 15.6817 28.7213 15.6817 29.4217 15.6817C29.305 15.3315 29.305 14.9813 29.1882 14.7478C28.4878 14.7478 27.6706 14.7478 26.9701 14.8645L26.5032 14.9813L27.5539 20.2347L28.0208 20.1179C28.0208 20.1179 28.7213 20.0012 29.6552 20.1179C29.5385 19.7677 29.6552 19.3007 29.6552 18.9505Z" fill="#104E67"/>
<path d="M42.847 27.3557C42.0298 26.6553 41.2126 26.0716 40.3954 25.3711L40.7457 25.2544C40.6289 25.7213 40.5122 26.0716 40.2787 26.4218L40.1619 26.772L39.9285 26.4218L38.9945 25.2544L39.228 25.3711L32.2235 28.2897L32.3402 28.0562L34.9085 34.944L34.6751 34.8272L36.7764 34.7105H37.1266L37.0099 35.0607C36.8932 35.5277 36.7764 35.8779 36.5429 36.2281L36.4262 35.9946H39.695L36.5429 36.3449H36.3095L36.4262 35.9946C36.5429 35.5277 36.7764 35.1775 36.8932 34.7105L37.1266 34.944H34.9085H34.7918L34.6751 34.8272L32.1067 27.9394L31.99 27.8227L32.1067 27.706L39.228 24.7874L39.3447 24.6707L39.5782 24.9041L40.5122 26.0716L40.1619 26.1883C40.2787 25.8381 40.3954 25.3711 40.6289 25.0209L40.7457 24.7874L40.8624 24.9041C41.4461 25.8381 42.2633 26.6553 42.847 27.3557Z" fill="#104E67"/>
<path d="M17.3972 4.82475L16.58 8.32702L16.4633 8.09353C16.9302 7.97679 17.2805 7.97679 17.6307 7.97679H18.0977L17.9809 8.32702L17.1637 9.61118L17.047 9.37769L22.6506 14.6311H22.3004L27.437 9.37769V9.61118L26.3863 7.7433L26.2696 7.39308H26.6198C27.0868 7.39308 27.437 7.27634 27.904 7.27634L27.7873 7.62656L26.5031 4.70801L28.2542 7.50982L28.371 7.7433L27.904 7.86005C27.437 7.97679 27.0868 7.97679 26.6198 7.97679L26.7366 7.62656L27.7873 9.49444L27.904 9.61118L22.6506 14.8646L22.5339 14.9813L22.4171 14.8646L16.8135 9.61118H16.6967L16.8135 9.49444L17.3972 8.09353L17.5139 8.44376C17.047 8.44376 16.6967 8.5605 16.3465 8.5605H16.113L16.2298 8.21027L17.3972 4.82475Z" fill="#31552A"/>
<path d="M27.5001 27.5021L27.0789 28.65C26.9385 28.7934 27.0789 29.2239 27.2193 29.2239L29.7464 30.2283C29.8868 30.3718 30.1676 30.2283 30.308 30.0848L30.7292 29.0804C30.7292 28.9369 31.2908 27.6455 31.2908 27.6455C31.2908 27.6455 31.5716 27.0716 31.712 26.6411C31.8524 26.4977 31.712 26.2107 31.5716 26.0672L29.1849 24.9193C29.0445 24.7758 28.6233 24.9193 28.6233 25.0628L28.0617 26.2107L27.5001 27.5021Z" fill="white"/>
<path d="M27.7875 27.4725L27.4373 28.4064C27.3205 28.5231 27.4373 28.8734 27.554 28.8734L29.6554 29.6906C29.7721 29.8073 30.0056 29.6906 30.1223 29.5738L30.4726 28.7566C30.4726 28.6399 30.9395 27.5892 30.9395 27.5892C30.9395 27.5892 31.173 27.1222 31.2898 26.772C31.4065 26.6553 31.2898 26.4218 31.173 26.305L29.1884 25.3711C29.0717 25.2544 28.7214 25.3711 28.7214 25.4879L28.2545 26.4218L27.7875 27.4725Z" fill="#ED6203"/>
<path d="M15.8798 19.8844C15.763 19.8844 15.5295 19.7676 15.4128 19.7676C15.2961 19.7676 15.1793 19.6509 15.0626 19.6509C14.9458 19.7676 14.7123 19.7676 14.3621 19.8844C13.8951 20.0011 13.1947 20.1178 12.7277 20.3513C12.611 20.4681 12.4942 20.4681 12.2608 20.5848C12.2608 20.7016 12.0273 20.8183 11.5603 21.0518C12.4942 23.3866 13.5449 24.9043 13.5449 24.9043L17.0472 22.3359C16.3467 21.869 16.1132 20.935 15.8798 19.8844Z" fill="url(#paint17_linear)"/>
<path d="M16.1132 19.8844C15.8797 19.8844 15.6463 19.7676 15.296 19.7676C15.1793 19.7676 15.0625 19.6509 14.9458 19.6509C14.9458 19.6509 14.9458 19.6509 14.8291 19.6509C15.1793 20.935 15.6462 21.9857 15.9965 22.4527L13.4281 24.3206C12.7277 23.1531 12.2607 21.9857 11.9105 20.935C11.7938 21.0518 11.677 21.0518 11.4435 21.1685C11.3268 21.2853 11.21 21.2853 10.9766 21.2853C11.4435 22.4527 12.144 23.8536 12.8444 25.1378L13.0779 25.6047L17.3974 22.5694L17.1639 22.2192C17.1639 22.2192 16.5802 21.2853 16.1132 19.8844Z" fill="#30780E"/>
<path d="M11.0934 22.3358C11.0934 22.3358 13.1948 20.468 16.5803 20.1177L16.4636 19.3005C16.4636 19.3005 12.0274 19.4173 10.6265 21.9856L11.0934 22.3358Z" fill="#656E02"/>
<path d="M23.8181 31.3251C23.9348 31.4418 23.9348 31.4418 24.0515 31.4418C24.752 31.6753 25.219 32.0256 25.6859 32.6093C25.9194 32.726 26.1529 32.726 26.5031 32.8428C26.9701 32.0256 27.3203 31.6753 27.3203 31.6753L23.4678 29.574C23.3511 30.0409 23.0009 30.3912 22.6506 30.7414C22.7674 30.8581 22.8841 30.8581 23.1176 30.8581C23.3511 31.0916 23.4678 31.2084 23.8181 31.3251Z" fill="url(#paint18_linear)"/>
<path d="M23.3509 29.3406L23.2342 29.8075C23.2342 29.8075 22.884 30.2745 22.417 30.8582C22.6505 30.975 22.884 30.975 23.1174 31.0917C23.2342 31.0917 23.3509 31.2085 23.4677 31.2085C23.5844 30.975 23.8179 30.7415 23.9346 30.6247L26.7365 32.1424C26.6197 32.3759 26.3862 32.6094 26.2695 32.8428C26.6197 32.9596 26.8532 33.0763 27.0867 33.3098C27.3202 32.9596 27.5536 32.6094 27.9039 32.2591L28.1374 31.7922L23.3509 29.3406Z" fill="#656E02"/>
<path d="M21.4832 31.4419L23.7013 30.1577C23.7013 30.1577 26.97 33.8935 29.4216 33.7767H29.8886L30.1221 34.4772L27.5537 34.0102L24.4017 32.0256L23.7013 31.6754L23.1175 31.3251L21.4832 31.4419Z" fill="#104E67"/>
<path d="M23.4679 29.4571C22.1837 32.6091 17.1638 33.6598 17.1638 33.6598L20.666 30.9747C20.666 30.9747 20.5493 27.3557 19.4986 24.7874C18.4479 22.219 14.4787 21.0516 14.4787 21.0516L10.0425 22.5693C11.9104 19.4172 17.6307 19.3005 17.6307 19.3005L18.0977 15.448C6.19001 14.8643 3.3882 20.9349 3.3882 20.9349C-0.464292 27.1222 5.95653 36.1114 5.95653 36.1114C18.2145 47.6688 27.2036 31.5584 27.2036 31.5584L23.4679 29.4571ZM16.1131 29.8073C15.9964 29.4571 15.6461 28.8733 15.6461 28.7566C15.6461 28.7566 15.1792 27.4724 15.0624 27.4724L14.5954 26.5385C14.4787 26.4218 14.5954 26.0715 14.7122 26.0715L16.9303 24.9041C17.047 24.7874 17.3973 24.9041 17.3973 25.0209L17.8642 26.1883L18.4479 27.4724L18.9149 28.6399C19.0317 28.7566 18.9149 29.1068 18.6814 29.1068L16.4633 29.924C16.4633 30.0408 16.2298 29.924 16.1131 29.8073Z" fill="url(#paint19_linear)"/>
<path d="M16.1131 29.8073C15.9964 29.4571 15.6461 28.8733 15.6461 28.7566C15.6461 28.7566 15.1792 27.4724 15.0624 27.4724L14.5954 26.5385C14.4787 26.4218 14.5954 26.0715 14.7122 26.0715L16.9303 24.9041C17.047 24.7874 17.3973 24.9041 17.3973 25.0209L17.8642 26.1883L18.4479 27.4724L18.9149 28.6399C19.0317 28.7566 18.9149 29.1068 18.6814 29.1068L16.4633 29.924C16.4633 30.0408 16.2298 29.924 16.1131 29.8073Z" fill="url(#paint20_linear)"/>
<path d="M28.1376 31.6753L27.9041 32.1423C24.0516 37.7459 19.9656 40.7812 15.6462 41.0147C10.3928 41.3649 6.09527 36.834 6.09527 36.6005L6.79573 35.9C6.79573 36.0168 10.8597 40.3143 15.6462 39.964C19.4987 39.7306 23.3511 36.9287 26.8534 31.7921L23.9349 30.3912C23.1177 31.5586 20.7828 34.5939 16.8136 34.7106C16.6968 34.7106 16.3466 34.5939 16.3466 34.3604C16.2299 34.1269 16.3466 33.8934 16.4634 33.7767L20.1991 31.0916C20.1991 30.6247 20.3159 28.8735 19.7321 27.1224C19.0317 24.3206 17.1638 22.5695 14.5955 21.7523L10.0425 23.6201C9.9258 23.7369 9.57557 23.6201 9.45883 23.5034C9.34209 23.3867 9.34209 23.0364 9.34209 22.9197C11.21 19.5342 15.6462 18.9504 17.1638 18.9504L17.6308 15.7984C15.5294 15.7984 7.7077 16.2654 4.32217 20.7016C2.57104 22.9197 2.56006 26.5167 3.49399 30.019L2.32657 30.2525C1.39263 26.4 1.52036 22.5695 3.38824 20.1179C7.59095 14.631 17.514 14.8645 17.981 14.8645H18.448L17.981 20.0011H17.514C17.514 20.0011 13.3113 20.1179 10.9765 22.336L14.4787 20.9351H14.5955C17.6308 21.7523 19.7321 23.8536 20.4326 27.0057C21.0163 29.3405 20.7828 31.4419 20.7828 31.5586V31.6753L18.3312 33.4265C21.133 32.2591 22.8842 29.574 22.8842 29.574L23.0009 29.107L28.1376 31.6753Z" fill="#766E2D"/>
<path d="M8.40747 28.173L14.1278 27.8228L11.0925 32.4924C11.0925 32.4924 11.326 29.1069 8.40747 28.173Z" fill="white"/>
<path d="M3.38856 28.7567C3.38856 28.7567 2.1044 21.8689 7.00757 19.1838C7.00757 19.1838 2.80485 21.9856 4.08901 28.4065L3.38856 28.7567Z" fill="url(#paint21_linear)"/>
<path d="M11.3268 19.8845C11.3268 19.8845 8.1748 21.5189 8.1748 25.7216L8.75852 25.8384C8.75852 26.0719 7.70783 23.0366 11.3268 19.8845Z" fill="url(#paint22_linear)"/>
<path d="M12.144 34.7106C12.144 34.7106 16.23 36.1115 19.1486 35.0608C19.1486 35.0608 15.2961 35.6446 12.2608 34.2437L12.144 34.7106Z" fill="url(#paint23_linear)"/>
<path d="M7.94096 36.6954C8.99164 36.4619 10.0423 36.2284 11.093 35.9949L10.9763 36.3451C10.7428 35.9949 10.5093 35.6447 10.3925 35.2945L10.2758 34.9442H10.7428L12.2604 35.061L12.0269 35.1777L14.245 27.823L14.3618 28.0565L7.47399 25.7216L7.70747 25.6049L6.54005 27.356L6.42331 27.5895L6.30657 27.356C6.07308 27.0058 5.8396 26.5388 5.60611 26.1886H5.95634L3.85498 28.7569L5.60611 25.9551L5.72286 25.7216L5.8396 25.9551C6.07308 26.3053 6.30657 26.7723 6.54005 27.1225H6.18982L7.35725 25.3714L7.47399 25.2546L7.59073 25.3714L14.4785 27.7062L14.5953 27.823L14.4785 27.9397L12.2604 35.2945L12.1437 35.4112H12.0269L10.3925 35.2945L10.5093 34.9442C10.626 35.2945 10.9763 35.6447 11.093 36.1117L11.2097 36.3451H10.9763C10.0423 36.4619 8.99164 36.6954 7.94096 36.6954Z" fill="#766E2D"/>
<path d="M7.94092 36.6952C7.94092 36.6952 14.1283 41.5983 20.1988 37.7458C20.1988 37.7458 13.6613 39.8472 9.45857 36.4617L7.94092 36.6952Z" fill="url(#paint24_linear)"/>
<path d="M10.1792 29.7044L10.1791 29.7045L10.1845 29.7127C11.486 31.6648 10.6436 34.5541 8.26926 36.137C5.90321 37.7144 2.92469 37.23 1.73346 35.2808L1.73363 35.2807L1.72816 35.2724C0.423522 33.3155 1.15901 30.4314 3.6355 28.8532C6.13455 27.3785 8.99335 27.7639 10.1792 29.7044Z" fill="url(#paint25_linear)" stroke="#766E2D" stroke-width="0.5"/>
<path fill-rule="evenodd" clip-rule="evenodd" d="M4.48039 28.836C2.23322 29.8206 1.14631 32.1997 1.99123 34.1281C2.83616 36.0565 5.32198 36.8702 7.56916 35.8856C9.81633 34.901 10.9032 32.5219 10.0583 30.5935C9.21339 28.6651 6.72757 27.8514 4.48039 28.836ZM1.68052 34.2642C0.744381 32.1276 1.9645 29.568 4.34426 28.5253C6.72401 27.4826 9.43289 28.3208 10.369 30.4574C11.3052 32.5939 10.0851 35.1536 7.7053 36.1963C5.32554 37.239 2.61666 36.4008 1.68052 34.2642Z" fill="white"/>
<path opacity="0.6" d="M1.6374 33.3098C1.6374 33.3098 1.52066 28.7568 7.00754 28.7568L1.6374 33.3098Z" fill="url(#paint26_linear)"/>
<path d="M1.63721 33.3098C1.63721 33.3098 1.63721 28.9903 6.65712 28.7568C6.65712 28.8736 2.10418 29.6908 1.63721 33.3098Z" fill="url(#paint27_linear)"/>
<path d="M24.1681 37.3958C24.4016 37.2791 24.6351 36.9288 24.6351 36.9288C24.9853 36.6953 25.3356 36.3451 25.6858 36.1116C26.1528 35.6447 26.503 35.2944 26.9699 34.8275C27.0867 34.7107 27.3202 34.3605 27.4369 34.2438C27.4369 34.2438 27.4369 34.127 27.5537 34.127C27.5537 34.127 27.5537 34.0103 27.6704 34.0103C25.1021 33.0763 23.0007 30.6248 23.0007 30.6248L19.7319 32.7261C21.1328 34.7107 22.7672 36.2284 24.1681 37.3958Z" fill="#2D78A1"/>
<path d="M23.9344 37.6291C24.2846 37.3956 24.7516 37.6291 24.7516 37.6291C24.7516 37.6291 24.7516 37.1621 24.8684 37.1621C22.6503 35.5277 21.0159 33.6599 20.3154 32.8427L23.0005 31.2083C23.5842 31.9087 25.2186 33.7766 27.3199 34.4771C27.3199 34.4771 27.4367 34.3603 27.4367 34.2436C27.4367 34.2436 28.3706 34.2436 28.4874 34.1268C28.6041 34.0101 27.9037 33.6599 28.0204 33.5431C27.5534 33.4264 27.2032 33.1929 26.853 32.8427C24.9851 31.792 23.5842 30.1576 23.5842 30.1576L23.3507 29.8074L19.0312 32.4924L19.3815 32.9594C19.3815 33.0762 21.2493 35.411 23.9344 37.6291Z" fill="#104E67"/>
<path d="M28.838 14.5142C28.838 14.5142 29.6552 17.0825 28.4878 20.2345C28.4878 20.2345 28.9548 20.1178 29.1882 19.3006C29.4217 18.4834 29.6552 15.3314 28.838 14.5142Z" fill="#30780E"/>
<path d="M32.6902 23.3867C32.6902 23.3867 33.8577 20.8184 34.3246 18.9505C34.7916 17.0826 33.7409 19.651 33.7409 19.651L32.5735 22.5695L32.6902 23.3867Z" fill="#31552A"/>
<path d="M35.1421 14.5142C35.1421 14.5142 35.0254 16.6155 34.7919 17.0825C34.5584 17.5495 34.4417 16.2653 34.4417 16.2653L34.6751 14.8644L35.1421 14.5142Z" fill="#31552A"/>
<path d="M28.7213 14.7477L28.838 14.5142C28.838 14.5142 30.0054 17.1993 28.4878 20.2346L29.305 20.3514L29.5385 20.2346C29.5385 20.2346 30.5892 15.9152 29.4217 14.3975L28.838 14.2808L28.7213 14.7477Z" fill="#31552A"/>
<path d="M13.6616 20.4682C12.9612 20.7016 12.3775 20.9351 11.677 21.2854C12.4942 23.5035 13.5449 24.7876 13.5449 24.7876L17.0471 22.2193C16.3467 21.4021 15.9965 20.3514 15.8797 19.4175C15.0625 19.8844 14.3621 20.2347 13.6616 20.4682Z" fill="#426D38"/>
<path d="M15.9964 19.3005C15.6462 19.4173 15.296 19.6508 15.0625 19.7675C15.4127 20.8182 15.7629 21.6354 16.1132 22.2191L13.5448 24.087C12.9611 23.0363 12.4942 21.9856 12.0272 21.0517C11.677 21.1684 11.4435 21.2852 11.0933 21.4019C11.5602 22.5693 12.1439 23.7367 12.9611 25.0209L13.1946 25.4879L17.5141 22.3358L17.2806 21.9856C17.0471 21.9856 16.3467 20.9349 15.9964 19.3005Z" fill="#31552A"/>
<path d="M11.0934 22.3358C11.0934 22.3358 12.4943 20.8182 16.5803 20.1177L16.3468 19.3005C16.3468 19.3005 15.4129 19.4173 14.9459 19.6508C14.479 19.8842 11.0934 21.4019 11.0934 21.4019L10.6265 21.8689L11.0934 22.3358Z" fill="#656E02"/>
<path d="M18.4423 26.1606L17.8406 25.0553C17.6902 24.9171 17.5398 24.7789 17.2389 24.9171L14.6817 25.8843C14.5313 26.0225 14.3809 26.1606 14.5313 26.437L14.9826 27.4042C14.9826 27.5424 15.5843 28.7859 15.5843 28.7859C15.5843 28.9241 15.8851 29.3386 16.0355 29.7531C16.186 29.8913 16.3364 30.0294 16.6372 29.8913L19.3449 28.9241C19.4953 28.7859 19.6457 28.6477 19.4953 28.3714L18.8936 27.266L18.4423 26.1606Z" fill="white"/>
<path d="M18.0978 26.3051L17.6308 25.3712C17.5141 25.2544 17.3974 25.1377 17.1639 25.2544L15.1793 26.0716C15.0625 26.1883 14.9458 26.3051 15.0625 26.5386L15.4127 27.3558C15.4127 27.4725 15.8797 28.5232 15.8797 28.5232C15.8797 28.6399 16.1132 28.9902 16.2299 29.3404C16.3467 29.4571 16.4634 29.5739 16.6969 29.4571L18.7983 28.6399C18.915 28.5232 19.0317 28.4064 18.915 28.173L18.448 27.239L18.0978 26.3051Z" fill="#ED6203"/>
<path d="M23.2409 19.093H24.5494C24.6948 19.093 24.9856 18.9495 24.9856 18.6624L24.8402 15.7919C24.8402 15.6484 24.6948 15.3613 24.4041 15.3613H23.2409C23.0955 15.3613 21.6416 15.3613 21.6416 15.3613C21.6416 15.3613 20.9147 15.3613 20.4785 15.3613C20.3331 15.3613 20.0424 15.5049 20.0424 15.7919L19.897 18.5189C19.897 18.6624 20.0424 18.9495 20.3331 18.9495H21.6416L23.2409 19.093Z" fill="white"/>
<path d="M23.1179 18.7167H24.1686C24.2854 18.7167 24.5188 18.5999 24.5188 18.3665L24.4021 16.0316C24.4021 15.9149 24.2854 15.6814 24.0519 15.6814H23.1179C23.0012 15.6814 21.8338 15.6814 21.8338 15.6814C21.8338 15.6814 21.2501 15.6814 20.8998 15.6814C20.7831 15.6814 20.5496 15.7981 20.5496 16.0316L20.4329 18.2497C20.4329 18.3665 20.5496 18.6 20.7831 18.6H21.8338L23.1179 18.7167Z" fill="#ED6203"/>
</g>
<defs>
<linearGradient id="paint0_linear" x1="43.3048" y1="30.9665" x2="26.3427" y2="24.6905" gradientUnits="userSpaceOnUse">
<stop offset="0.203125" stop-color="#6AAAD3"/>
<stop offset="0.385417" stop-color="#5D9FC8"/>
<stop offset="0.604167" stop-color="#3A83AB"/>
<stop offset="1" stop-color="#196890"/>
</linearGradient>
<linearGradient id="paint1_linear" x1="43.3048" y1="30.9665" x2="26.3427" y2="24.6905" gradientUnits="userSpaceOnUse">
<stop offset="0.203125" stop-color="#6AAAD3"/>
<stop offset="0.385417" stop-color="#5D9FC8"/>
<stop offset="0.604167" stop-color="#3A83AB"/>
<stop offset="1" stop-color="#196890"/>
</linearGradient>
<linearGradient id="paint2_linear" x1="27.021" y1="4.50558" x2="14.1298" y2="19.9411" gradientUnits="userSpaceOnUse">
<stop offset="0.1875" stop-color="#76AC62"/>
<stop offset="1" stop-color="#37602F"/>
</linearGradient>
<linearGradient id="paint3_linear" x1="27.021" y1="4.50558" x2="14.1298" y2="19.9411" gradientUnits="userSpaceOnUse">
<stop offset="0.1875" stop-color="#76AC62"/>
<stop offset="1" stop-color="#37602F"/>
</linearGradient>
<linearGradient id="paint4_linear" x1="19.218" y1="0.0952462" x2="21.9697" y2="12.4521" gradientUnits="userSpaceOnUse">
<stop offset="0.1875" stop-color="#76AC62"/>
<stop offset="1" stop-color="#37602F"/>
</linearGradient>
<linearGradient id="paint5_linear" x1="19.0487" y1="6.2016" x2="22.6107" y2="0.773723" gradientUnits="userSpaceOnUse">
<stop offset="0.0306891" stop-color="white" stop-opacity="0"/>
<stop offset="0.998" stop-color="white" stop-opacity="0.46"/>
</linearGradient>
<linearGradient id="paint6_linear" x1="19.04" y1="6.2016" x2="22.7196" y2="1.07917" gradientUnits="userSpaceOnUse">
<stop offset="0.0306891" stop-color="white" stop-opacity="0"/>
<stop offset="0.998" stop-color="white" stop-opacity="0.46"/>
</linearGradient>
<linearGradient id="paint7_linear" x1="25.7345" y1="6.24979" x2="34.3384" y2="10.4904" gradientUnits="userSpaceOnUse">
<stop offset="0.0306891" stop-color="white" stop-opacity="0"/>
<stop offset="0.4342" stop-color="white" stop-opacity="0.2"/>
<stop offset="0.998" stop-color="white" stop-opacity="0.6"/>
</linearGradient>
<linearGradient id="paint8_linear" x1="26.1501" y1="11.509" x2="31.6094" y2="14.1996" gradientUnits="userSpaceOnUse">
<stop offset="0.0306891" stop-color="white" stop-opacity="0"/>
<stop offset="0.4342" stop-color="white" stop-opacity="0.2"/>
<stop offset="0.998" stop-color="white" stop-opacity="0.6"/>
</linearGradient>
<linearGradient id="paint9_linear" x1="15.045" y1="12.6299" x2="16.1848" y2="13.1917" gradientUnits="userSpaceOnUse">
<stop offset="0.0306891" stop-color="white" stop-opacity="0"/>
<stop offset="0.4342" stop-color="white" stop-opacity="0.2"/>
<stop offset="0.998" stop-color="white" stop-opacity="0.6"/>
</linearGradient>
<linearGradient id="paint10_linear" x1="12.347" y1="9.64495" x2="14.7004" y2="10.8049" gradientUnits="userSpaceOnUse">
<stop offset="0.0306891" stop-color="white" stop-opacity="0"/>
<stop offset="0.4342" stop-color="white" stop-opacity="0.2"/>
<stop offset="0.998" stop-color="white" stop-opacity="0.6"/>
</linearGradient>
<linearGradient id="paint11_linear" x1="36.3498" y1="28.9309" x2="45.2127" y2="33.5448" gradientUnits="userSpaceOnUse">
<stop offset="0.203125" stop-color="#6AAAD3"/>
<stop offset="0.385417" stop-color="#5D9FC8"/>
<stop offset="0.604167" stop-color="#3A83AB"/>
<stop offset="1" stop-color="#196890"/>
</linearGradient>
<linearGradient id="paint12_linear" x1="37.2476" y1="29.9601" x2="37.7208" y2="27.0384" gradientUnits="userSpaceOnUse">
<stop stop-color="white" stop-opacity="0.46"/>
<stop offset="1" stop-color="white" stop-opacity="0"/>
</linearGradient>
<linearGradient id="paint13_linear" x1="38.717" y1="31.2083" x2="41.0804" y2="27.331" gradientUnits="userSpaceOnUse">
<stop offset="0.0306891" stop-color="white" stop-opacity="0"/>
<stop offset="0.4342" stop-color="white" stop-opacity="0.2"/>
<stop offset="0.998" stop-color="white" stop-opacity="0.6"/>
</linearGradient>
<linearGradient id="paint14_linear" x1="36.9738" y1="22.142" x2="35.9864" y2="22.9414" gradientUnits="userSpaceOnUse">
<stop offset="0.0306891" stop-color="white" stop-opacity="0"/>
<stop offset="0.4342" stop-color="white" stop-opacity="0.2"/>
<stop offset="0.998" stop-color="white" stop-opacity="0.6"/>
</linearGradient>
<linearGradient id="paint15_linear" x1="41.0373" y1="21.0112" x2="38.8846" y2="22.7539" gradientUnits="userSpaceOnUse">
<stop offset="0.0306891" stop-color="white" stop-opacity="0"/>
<stop offset="0.4342" stop-color="white" stop-opacity="0.2"/>
<stop offset="0.998" stop-color="white" stop-opacity="0.6"/>
</linearGradient>
<linearGradient id="paint16_linear" x1="20.0198" y1="17.636" x2="43.8835" y2="17.636" gradientUnits="userSpaceOnUse">
<stop stop-color="#74D3FC"/>
<stop offset="0.1037" stop-color="#74D3FC"/>
<stop offset="0.3404" stop-color="#4AA0D5"/>
<stop offset="0.3587" stop-color="#479DD3"/>
<stop offset="0.6247" stop-color="#206EB8"/>
<stop offset="0.8311" stop-color="#155EA8"/>
<stop offset="1" stop-color="#1056A0"/>
</linearGradient>
<linearGradient id="paint17_linear" x1="6.57543" y1="17.4831" x2="27.9762" y2="30.7484" gradientUnits="userSpaceOnUse">
<stop stop-color="#8DFD51"/>
<stop offset="0.1736" stop-color="#68D12E"/>
<stop offset="0.5615" stop-color="#50B617"/>
<stop offset="0.6937" stop-color="#46A30E"/>
<stop offset="0.8785" stop-color="#3A8E05"/>
<stop offset="1" stop-color="#368601"/>
</linearGradient>
<linearGradient id="paint18_linear" x1="2.13378" y1="31.2757" x2="27.1907" y2="31.2757" gradientUnits="userSpaceOnUse">
<stop stop-color="#E4E950"/>
<stop offset="0.1292" stop-color="#C4CC19"/>
<stop offset="0.2065" stop-color="#B4BE15"/>
<stop offset="0.3474" stop-color="#9DA90E"/>
<stop offset="0.4362" stop-color="#95A10C"/>
<stop offset="0.7407" stop-color="#889613"/>
<stop offset="0.8515" stop-color="#7F8E0A"/>
<stop offset="1" stop-color="#788802"/>
</linearGradient>
<linearGradient id="paint19_linear" x1="2.13381" y1="27.7973" x2="21.932" y2="27.913" gradientUnits="userSpaceOnUse">
<stop stop-color="#F1E442"/>
<stop offset="1" stop-color="#888033"/>
</linearGradient>
<linearGradient id="paint20_linear" x1="2.13381" y1="27.7973" x2="21.932" y2="27.913" gradientUnits="userSpaceOnUse">
<stop stop-color="#F1E442"/>
<stop offset="1" stop-color="#888033"/>
</linearGradient>
<linearGradient id="paint21_linear" x1="5.15639" y1="28.7468" x2="5.15639" y2="19.1548" gradientUnits="userSpaceOnUse">
<stop offset="0.0306891" stop-color="white" stop-opacity="0"/>
<stop offset="0.4342" stop-color="white" stop-opacity="0.2"/>
<stop offset="0.998" stop-color="white" stop-opacity="0.6"/>
</linearGradient>
<linearGradient id="paint22_linear" x1="9.7367" y1="26.0491" x2="9.7367" y2="19.963" gradientUnits="userSpaceOnUse">
<stop offset="0.0306891" stop-color="white" stop-opacity="0"/>
<stop offset="0.4342" stop-color="white" stop-opacity="0.2"/>
<stop offset="0.998" stop-color="white" stop-opacity="0.6"/>
</linearGradient>
<linearGradient id="paint23_linear" x1="15.6687" y1="35.5137" x2="15.6687" y2="34.2431" gradientUnits="userSpaceOnUse">
<stop offset="0.0306891" stop-color="white" stop-opacity="0"/>
<stop offset="0.4342" stop-color="white" stop-opacity="0.2"/>
<stop offset="0.998" stop-color="white" stop-opacity="0.6"/>
</linearGradient>
<linearGradient id="paint24_linear" x1="14.023" y1="39.2285" x2="14.023" y2="36.4585" gradientUnits="userSpaceOnUse">
<stop offset="0.0306891" stop-color="white" stop-opacity="0"/>
<stop offset="0.4342" stop-color="white" stop-opacity="0.2"/>
<stop offset="0.998" stop-color="white" stop-opacity="0.6"/>
</linearGradient>
<linearGradient id="paint25_linear" x1="0.831521" y1="32.4984" x2="11.926" y2="29.9555" gradientUnits="userSpaceOnUse">
<stop stop-color="#F1E442"/>
<stop offset="1" stop-color="#888033"/>
</linearGradient>
<linearGradient id="paint26_linear" x1="2.1868" y1="33.3869" x2="4.58537" y2="28.0139" gradientUnits="userSpaceOnUse">
<stop offset="0.0306891" stop-color="white" stop-opacity="0"/>
<stop offset="0.998" stop-color="white" stop-opacity="0.46"/>
</linearGradient>
<linearGradient id="paint27_linear" x1="4.19421" y1="33.3745" x2="4.19421" y2="28.8338" gradientUnits="userSpaceOnUse">
<stop offset="0.0306891" stop-color="white" stop-opacity="0"/>
<stop offset="0.4342" stop-color="white" stop-opacity="0.2"/>
<stop offset="0.998" stop-color="white" stop-opacity="0.6"/>
</linearGradient>
</defs>
</svg>
