<svg width="163" height="41" viewBox="0 0 163 41" fill="none" xmlns="http://www.w3.org/2000/svg">
<g opacity="0.7">
<path d="M62.4128 26.8631L61.9083 19.663C61.8501 18.8092 61.8114 18.1301 61.8114 17.4119C61.6561 18.1881 61.5398 18.6734 61.3069 19.4883L59.1721 26.8625H56.8628L54.9414 19.7796C54.7667 19.1198 54.534 18.1688 54.3982 17.3927C54.3982 18.1883 54.3592 18.984 54.3011 19.8183L53.8352 26.8625H51.1377L52.3992 13.376H55.8729L57.639 20.1294C57.8911 21.0998 57.9882 21.5654 58.1046 22.2644C58.2209 21.5654 58.3762 20.8669 58.5899 20.0712L60.4141 13.376H63.8683L65.0714 26.8631H62.4128Z" fill="#686868"/>
<path d="M69.6322 22.7103V22.7882C69.6322 24.3208 70.3892 25.1949 71.7283 25.1949C72.6208 25.1949 73.4554 24.8646 74.2508 24.205L75.2602 25.7578C74.115 26.6896 72.9119 27.1357 71.5146 27.1357C68.6616 27.1357 66.8181 25.1175 66.8181 21.993C66.8181 20.2078 67.1871 19.0242 68.0601 18.0537C68.8753 17.1415 69.8649 16.7146 71.1848 16.7146C72.3295 16.7146 73.4165 17.1028 74.0569 17.7627C74.9691 18.6941 75.3765 20.0333 75.3765 22.1096V22.7111H69.6322V22.7103ZM72.6793 20.6923C72.6793 19.9551 72.6016 19.5666 72.3687 19.1979C72.1163 18.8099 71.7478 18.6157 71.2238 18.6157C70.2342 18.6157 69.6714 19.3919 69.6714 20.7697V20.8087H72.6793V20.6923Z" fill="#686868"/>
<path d="M80.0736 27.0967C78.754 27.0967 77.7062 26.5145 77.3953 25.641C77.2403 25.2138 77.2211 25.0201 77.2211 24.1078V18.7128H76.2312V16.9275H77.2211C77.2211 15.9571 77.2211 15.3168 77.3179 14.5793L79.957 13.9194C79.8602 14.8314 79.802 15.9184 79.802 16.9275H82.131L81.471 18.7128H79.802V23.7004C79.802 24.9617 80.0349 25.2914 80.9275 25.2914C81.1606 25.2914 81.3931 25.233 81.8589 25.0975L82.189 26.6498C81.4323 26.9604 80.7527 27.0967 80.0736 27.0967Z" fill="#686868"/>
<path d="M90.5724 27.3681C89.9705 27.1157 89.4273 26.6691 89.1754 26.165C88.9811 26.359 88.7677 26.5533 88.5734 26.6891C88.0884 27.0383 87.3896 27.2323 86.5747 27.2323C84.3625 27.2323 83.1592 26.1066 83.1592 24.1274C83.1592 21.7986 84.7697 20.7118 87.9331 20.7118C88.1271 20.7118 88.3018 20.7118 88.515 20.731V20.3236C88.515 19.2174 88.3018 18.8489 87.3506 18.8489C86.516 18.8489 85.5459 19.2563 84.4786 19.9744L83.3724 18.1112C83.8961 17.7814 84.2844 17.5874 84.9831 17.2963C85.9536 16.8886 86.7876 16.7141 87.6999 16.7141C89.3691 16.7141 90.5137 17.335 90.9022 18.4412C91.038 18.8489 91.0962 19.1595 91.0765 20.2268L91.0183 23.5646C90.9986 24.6511 91.0765 25.1172 91.9498 25.7771L90.5724 27.3681ZM88.36 22.5168C86.5555 22.5168 85.9343 22.8466 85.9343 24.0302C85.9343 24.8064 86.4197 25.3304 87.079 25.3304C87.5643 25.3304 88.0494 25.0783 88.4376 24.6514L88.4766 22.5168H88.36Z" fill="#686868"/>
<path d="M101.887 15.6269H98.6652V26.8633H95.9095V15.6269H92.6106V13.376H102.333L101.887 15.6269Z" fill="#686868"/>
<path d="M108.253 19.1976C108.001 19.0618 107.787 19.0036 107.496 19.0036C106.914 19.0036 106.39 19.2753 105.905 19.838V26.8633H103.304V20.2264C103.304 18.8873 103.149 17.8782 102.936 17.3155L105.264 16.6946C105.497 17.1023 105.633 17.5487 105.672 18.1111C106.234 17.3542 107.03 16.6946 108.001 16.6946C108.389 16.6946 108.563 16.7333 108.971 16.908L108.253 19.1976Z" fill="#686868"/>
<path d="M116.771 27.3681C116.17 27.1157 115.627 26.6691 115.375 26.165C115.18 26.359 114.967 26.5533 114.773 26.6891C114.287 27.0383 113.589 27.2323 112.774 27.2323C110.561 27.2323 109.359 26.1066 109.359 24.1274C109.359 21.7986 110.969 20.7118 114.132 20.7118C114.327 20.7118 114.501 20.7118 114.714 20.731V20.3236C114.714 19.2174 114.501 18.8489 113.55 18.8489C112.715 18.8489 111.745 19.2563 110.678 19.9744L109.572 18.1112C110.096 17.7814 110.484 17.5874 111.182 17.2963C112.153 16.8886 112.987 16.7141 113.9 16.7141C115.569 16.7141 116.713 17.335 117.101 18.4412C117.237 18.8489 117.296 19.1595 117.276 20.2268L117.218 23.5646C117.199 24.6511 117.276 25.1172 118.149 25.7771L116.771 27.3681ZM114.559 22.5168C112.754 22.5168 112.134 22.8466 112.134 24.0302C112.134 24.8064 112.619 25.3304 113.278 25.3304C113.764 25.3304 114.249 25.0783 114.637 24.6514L114.676 22.5168H114.559Z" fill="#686868"/>
<path d="M125.951 26.8631C125.874 26.708 125.835 26.5527 125.796 26.2811C125.156 26.8436 124.399 27.1152 123.506 27.1152C120.983 27.1152 119.392 25.1557 119.392 22.0697C119.392 18.9647 121.118 16.8302 123.641 16.8302C124.36 16.8302 124.922 17.0047 125.408 17.3929C125.369 17.1795 125.33 16.5004 125.33 15.9182V12.5027L127.911 12.9101V23.2341C127.911 25.6795 128.105 26.4748 128.28 26.8631H125.951ZM125.369 19.5472C124.884 19.1203 124.418 18.9068 123.953 18.9068C122.788 18.9068 122.284 19.8772 122.284 22.0894C122.284 24.2242 122.73 24.9228 124.088 24.9228C124.574 24.9228 125.117 24.5925 125.369 24.2824V19.5472Z" fill="#686868"/>
<path d="M132.86 22.7103V22.7882C132.86 24.3208 133.617 25.1949 134.956 25.1949C135.848 25.1949 136.683 24.8646 137.479 24.205L138.488 25.7578C137.343 26.6896 136.14 27.1357 134.742 27.1357C131.89 27.1357 130.046 25.1175 130.046 21.993C130.046 20.2078 130.415 19.0242 131.289 18.0537C132.104 17.1415 133.093 16.7146 134.413 16.7146C135.558 16.7146 136.644 17.1028 137.285 17.7627C138.197 18.6941 138.604 20.0333 138.604 22.1096V22.7111H132.86V22.7103H132.86ZM135.907 20.6923C135.907 19.9551 135.829 19.5666 135.596 19.1979C135.344 18.8099 134.975 18.6157 134.451 18.6157C133.461 18.6157 132.899 19.3919 132.899 20.7697V20.8087H135.907V20.6923H135.907Z" fill="#686868"/>
<path d="M145.396 19.1976C145.144 19.0618 144.931 19.0036 144.64 19.0036C144.058 19.0036 143.534 19.2753 143.049 19.838V26.8633H140.449V20.2264C140.449 18.8873 140.293 17.8782 140.08 17.3155L142.409 16.6946C142.641 17.1023 142.777 17.5487 142.816 18.1111C143.379 17.3542 144.175 16.6946 145.145 16.6946C145.533 16.6946 145.708 16.7333 146.116 16.908L145.396 19.1976Z" fill="#686868"/>
<path d="M160.826 26.8499C160.273 26.8499 159.924 26.7912 159.924 26.7912C159.924 26.7912 160.069 27.1697 160.069 27.8393V31.9438L156.372 32.4097V27.49C156.372 27.2284 156.431 26.7623 156.431 26.7623C156.431 26.7623 156.081 26.8499 155.498 26.8499H147.785V24.2008L153.403 11.771H157.421L153.229 21.2024C153.054 21.5809 152.298 23.182 151.919 23.5604C152.21 23.502 152.24 23.502 152.53 23.502H155.82C156.169 23.502 156.519 23.531 156.519 23.531C156.519 23.531 156.49 23.1522 156.49 23.0069C156.49 22.1918 156.549 21.3188 156.694 19.892L157.014 16.4862L160.07 15.7874V20.9398C160.07 21.6091 160.07 22.1329 160.042 22.6569C160.013 23.2975 159.983 23.5302 159.983 23.5302C159.983 23.5302 160.566 23.5012 160.915 23.5012H162.138V26.8499H160.826Z" fill="#F6C415"/>
</g>
<g opacity="0.7">
<path d="M26.5406 15.4992L27.3483 19.653C30.5791 18.6145 34.5021 21.8453 34.5021 21.8453L30.3483 20.9222C30.3483 20.9222 27.5791 23.3453 26.3099 25.6529C25.0406 27.9606 26.5406 31.7682 26.5406 31.7682L30.3483 34.3067C26.7714 34.7682 23.1945 30.6144 23.1945 30.6144L19.8484 32.6913C27.0022 42.1528 33.2329 40.5374 33.2329 40.5374C40.3867 39.7297 43.3866 29.1144 43.3866 29.1144C44.5405 12.3838 26.5406 15.4992 26.5406 15.4992ZM31.233 26.4148C31.233 26.4148 30.8098 27.0375 30.8098 27.1529L30.2329 28.4221L29.8918 29.4324C29.7398 29.7035 29.6054 29.7426 29.3098 29.6913L26.8868 28.8837L26.656 28.4221L27.1175 27.2683L27.6945 25.9991L28.156 24.8452L29.2212 24.906L30.7301 25.6529L31.233 26.4148Z" fill="url(#paint0_linear)"/>
<path d="M31.233 26.4148C31.233 26.4148 30.8098 27.0375 30.8098 27.1529L30.2329 28.4221L29.8918 29.4324C29.7398 29.7035 29.6054 29.7426 29.3098 29.6913L26.8868 28.8837L26.656 28.4221L27.1175 27.2683L27.6945 25.9991L28.156 24.8452L29.2212 24.906L30.7301 25.6529L31.233 26.4148Z" fill="url(#paint1_linear)"/>
<path d="M33.1175 7.99887C29.3099 1.88354 18.5792 3.61429 18.5792 3.61429C3.00244 9.38347 13.387 24.4987 13.387 24.4987L16.8485 21.9603C14.5408 19.4218 15.81 14.4603 15.81 14.4603L16.6177 18.7295C16.6177 18.7295 19.809 20.2638 22.3475 20.3791C24.8859 20.4945 27.9253 17.5757 27.9253 17.5757L28.6176 13.0757C30.5791 16.1911 28.2714 21.1526 28.2714 21.1526L31.5022 23.3449C37.156 13.0757 33.1175 7.99887 33.1175 7.99887ZM24.1176 18.6141H22.9638H21.4638H20.31C20.0792 18.6141 19.8484 18.4988 19.8484 18.1526L19.9638 15.6142C19.9638 15.4988 20.0792 15.268 20.4253 15.268C20.8869 15.268 21.4638 15.268 21.5792 15.268C21.5792 15.268 22.9638 15.268 23.0792 15.268H24.233C24.3484 15.268 24.6945 15.3834 24.6945 15.6142L24.8099 18.1526C24.4638 18.4988 24.3484 18.6141 24.1176 18.6141Z" fill="url(#paint2_linear)"/>
<path d="M24.1176 18.6141H22.9638H21.4638H20.31C20.0792 18.6141 19.8484 18.4988 19.8484 18.1526L19.9638 15.6142C19.9638 15.4988 20.0792 15.268 20.4253 15.268H21.5792H23.0792H24.233C24.3484 15.268 24.6945 15.3834 24.6945 15.6142L24.8099 18.1526C24.4638 18.4988 24.3484 18.6141 24.1176 18.6141Z" fill="url(#paint3_linear)"/>
<path d="M12.9254 25.3067L12.5792 24.8451C9.23308 19.0759 8.4254 14.1145 10.0408 10.076C12.0023 5.22993 16.9638 3.84532 17.1945 3.72994L17.4253 4.65301L17.3099 4.19147L17.4253 4.65301C17.3099 4.65301 12.5792 6.03761 10.8485 10.4222C9.34847 13.9991 10.1562 18.499 13.1561 23.9221L15.6946 22.0759C15.0023 20.9221 13.3869 17.3452 14.8869 13.8837C15.0023 13.7683 15.1176 13.5375 15.3484 13.6529C15.5792 13.6529 15.6946 13.7683 15.8099 14.1145L16.6176 18.6144C17.0792 18.8452 18.4638 19.6529 20.3099 19.999C23.0791 20.5759 25.5022 19.7682 27.2329 17.8067L27.6944 12.9606C27.6944 12.8452 27.8098 12.6145 28.0406 12.4991C28.156 12.3837 28.5021 12.4991 28.5021 12.6145C30.6944 15.7298 29.3098 19.999 28.6175 21.2682L31.156 22.999C31.9636 21.1529 34.9636 14.1145 32.6559 9.15297C31.6175 6.61453 29.1944 4.99916 25.6175 4.30686L25.7329 3.38379C29.5406 4.19147 32.1944 5.92223 33.579 8.80682C36.579 14.9221 31.9636 23.5759 31.7329 23.9221L31.5021 24.3836L27.5791 21.3836L27.6944 21.0375C27.6944 21.0375 29.4252 17.3452 28.5021 14.2298L28.2714 17.9221L28.156 18.0375C26.0791 20.3452 23.3099 21.2682 20.1945 20.5759C17.7715 20.1144 16.1561 18.9606 16.0407 18.9606L15.9253 18.8452L15.4638 15.9606C15.233 18.9606 16.9638 21.7298 16.9638 21.7298L17.1945 22.0759L12.9254 25.3067Z" fill="#31552A"/>
<path d="M24.4637 9.38379L22.2714 14.576L19.5022 9.84532C19.5022 9.84532 22.5022 11.4607 24.4637 9.38379Z" fill="white"/>
<path d="M25.9461 4.79704L25.9462 4.79817C26.2797 7.57716 24.6133 9.96292 22.3577 10.2892C19.9819 10.5013 17.7757 8.55175 17.4427 5.77704C17.1089 2.99545 18.7787 0.607828 21.0375 0.285141C23.2882 -0.0363903 25.6119 1.90128 25.9461 4.79704Z" fill="url(#paint4_linear)" stroke="#31552A" stroke-width="0.5"/>
<path fill-rule="evenodd" clip-rule="evenodd" d="M18.09 5.20047C17.9767 7.71889 19.5384 9.77246 21.5054 9.86097C23.4725 9.94948 25.2123 8.04448 25.3256 5.52606C25.439 3.00764 23.8773 0.954076 21.9102 0.865564C19.9432 0.777051 18.2033 2.68206 18.09 5.20047ZM21.4904 10.1959C19.2763 10.0963 17.6365 7.82 17.7551 5.1854C17.8736 2.5508 19.7112 0.430978 21.9253 0.530605C24.1393 0.630232 25.7791 2.90653 25.6606 5.54113C25.542 8.17573 23.7044 10.2956 21.4904 10.1959Z" fill="white"/>
<path opacity="0.6" d="M18.4637 6.03753C18.4637 6.03753 17.4253 1.76834 22.7329 0.614502L18.4637 6.03753Z" fill="url(#paint5_linear)"/>
<path opacity="0.6" d="M18.4642 6.03753C18.4642 6.03753 17.6565 1.88372 22.3872 0.614502C22.3872 0.729885 18.118 2.46064 18.4642 6.03753Z" fill="url(#paint6_linear)"/>
<path d="M26.1946 4.65283C26.1946 4.65283 32.8868 6.49897 33.1176 12.1528C33.1176 12.1528 32.5407 7.30665 26.31 5.5759L26.1946 4.65283Z" fill="url(#paint7_linear)"/>
<path d="M30.4638 15.3837C30.4638 15.3837 30.3484 11.9222 26.6561 9.96069L26.1946 10.4222C26.1946 10.5376 29.4253 10.9991 30.4638 15.3837Z" fill="url(#paint8_linear)"/>
<path d="M17.0789 9.72974C17.0789 9.72974 13.9636 12.7297 13.6174 15.8451L14.079 15.7297C14.079 15.7297 14.6559 12.2682 17.4251 10.1913L17.0789 9.72974Z" fill="url(#paint9_linear)"/>
<path d="M17.0793 5.22974C17.0793 5.22974 10.1563 8.57586 10.964 15.6143C10.964 15.6143 12.1178 8.46047 16.8485 6.1528L17.0793 5.22974Z" fill="url(#paint10_linear)"/>
<path d="M39.1179 35.5758C36.3487 34.6527 34.7333 31.9989 35.541 29.6912C36.3487 27.2682 39.2333 26.1143 42.0025 27.0374C44.7717 27.9605 46.387 30.6143 45.5793 32.922C44.7717 35.2296 41.7717 36.3835 39.1179 35.5758Z" fill="url(#paint11_linear)"/>
<path opacity="0.6" d="M36.1177 29.5759C36.1177 29.5759 38.31 25.7682 42.9253 28.422L36.1177 29.5759Z" fill="url(#paint12_linear)"/>
<path d="M36.1177 29.5759C36.1177 29.5759 38.31 25.8836 42.6945 28.3067C42.6945 28.3067 38.31 26.6913 36.1177 29.5759Z" fill="url(#paint13_linear)"/>
<path d="M38.0791 25.0759C38.0791 25.0759 36.5791 21.0375 33.9253 19.4221C33.9253 19.4221 36.6945 21.9606 37.5022 25.1913L38.0791 25.0759Z" fill="url(#paint14_linear)"/>
<path d="M42.3484 27.0373C42.3484 27.0373 42.233 19.1912 35.5408 16.8835C35.5408 16.8835 41.1946 20.5758 41.3099 25.9988L42.3484 27.0373Z" fill="url(#paint15_linear)"/>
<path d="M27.1179 15.6146C27.6949 15.4992 28.2718 15.4992 28.8487 15.4992V15.3839C28.8487 15.2685 28.7333 15.2685 28.7333 15.1531C28.7333 15.0377 28.6179 15.0377 28.7333 14.9223C28.7333 14.8069 28.7333 14.8069 28.6179 14.6916C28.6179 14.6916 28.6179 14.6916 28.6179 14.5762C27.9256 14.5762 27.2333 14.5762 26.4256 14.6916L25.9641 14.8069L27.0026 19.9992L27.4641 19.8838C27.4641 19.8838 27.8102 19.8838 28.2718 19.8838C28.2718 19.8838 28.2718 19.7684 28.3872 19.7684C28.3872 19.653 28.5025 19.653 28.5025 19.5377V19.4223C28.5025 19.3069 28.5026 18.9607 28.6179 18.8454C28.2718 18.8454 28.041 18.8454 27.8103 18.8454L27.1179 15.6146Z" fill="#0951B7"/>
<path d="M41.0793 18.4991C39.5793 16.7684 37.2716 15.7299 34.6178 15.0376C34.6178 15.3837 34.5024 15.7299 34.5024 16.0761C37.0409 16.653 39.0024 17.6914 40.387 19.1914C43.5024 22.6529 42.5901 28.1696 42.5901 28.285L43.5132 28.4004C43.5132 28.1696 44.6562 22.3068 41.0793 18.4991Z" fill="#104E67"/>
<path d="M35.5414 21.499C34.9645 20.8067 34.2721 20.3452 33.5798 19.999C33.5798 20.1144 33.4645 20.3452 33.4645 20.4606C33.4645 20.5759 33.3491 20.8067 33.3491 20.9221C33.3491 20.9221 33.4645 20.9221 33.4645 21.0375H33.3491L33.2337 21.1529C33.2337 21.2682 33.1183 21.3836 33.1183 21.499C33.1183 21.499 33.1183 21.499 33.1183 21.6144C33.1183 21.7298 33.0029 21.7298 33.0029 21.8452C33.0029 21.8452 33.0029 21.8452 33.0029 21.9605L35.1952 22.5375C35.426 22.5375 35.6567 22.5375 35.7721 22.3067C35.7721 21.9605 35.6568 21.6144 35.5414 21.499Z" fill="#104E67"/>
<path d="M40.03 34.7897C37.8377 37.6743 35.0793 39.9603 32.3101 39.9603C26.8871 39.9603 21.6948 34.3065 20.3102 32.8065L22.9641 31.1911C23.8871 32.345 27.1179 35.3449 30.8101 34.6526C30.9255 34.6526 31.2717 34.4219 31.1563 34.1911C31.0409 34.0757 31.0409 33.7296 30.9255 33.7296L26.7717 31.3065C25.7333 28.7681 25.964 26.345 27.6948 24.0374C28.1563 23.3451 28.6178 22.8835 29.0794 22.422C29.0794 22.422 29.0794 22.422 28.964 22.422C28.8486 22.3066 28.7332 22.3066 28.6178 22.1912L28.5025 22.0758C28.3871 22.0758 28.3871 21.9604 28.3871 21.9604C28.0409 22.3066 27.5794 22.8835 27.1179 23.4604C25.2717 25.9989 24.9256 28.8835 26.0794 31.768L26.1948 31.8834L29.3101 33.7296C26.1948 33.268 23.541 30.2681 23.541 30.2681L23.3102 29.9219L19.041 32.5757L19.3872 33.0373C19.6179 33.3834 25.6179 41.1141 32.4255 40.9987C35.5409 40.8833 38.53 38.5974 40.8376 35.482L40.03 34.7897Z" fill="#104E67"/>
<path d="M35.5408 31.999L31.7332 27.8452L37.1562 27.2683C37.2716 27.2683 34.5024 29.2298 35.5408 31.999Z" fill="#DBDCDF"/>
<path fill-rule="evenodd" clip-rule="evenodd" d="M36.6208 29.1006C35.644 30.9898 36.6469 33.4999 38.94 34.6856C41.2331 35.8712 43.861 35.2384 44.8378 33.3493C45.8146 31.4601 44.8117 28.9499 42.5187 27.7643C40.2256 26.5786 37.5976 27.2114 36.6208 29.1006ZM38.786 34.9834C36.3764 33.7375 35.2383 31.0445 36.323 28.9466C37.4077 26.8487 40.2631 26.2206 42.6727 27.4664C45.0822 28.7123 46.2204 31.4054 45.1357 33.5033C44.051 35.6011 41.1956 36.2293 38.786 34.9834Z" fill="white"/>
<path d="M29.1951 19.5375C29.3105 18.7298 29.3105 17.9221 29.3105 17.1144C29.3105 16.9991 29.3105 16.9991 29.3105 16.9991C29.1951 16.5375 29.0797 15.8452 28.9643 15.2683C27.4643 15.3837 26.5413 15.3837 26.5413 15.3837L27.3489 19.5375C27.9259 19.5375 28.5028 19.4221 29.1951 19.5375Z" fill="url(#paint16_linear)"/>
<path d="M29.3099 18.73C28.733 18.73 28.1561 18.73 27.81 18.73L27.233 15.6146C27.81 15.4992 28.3869 15.4992 29.0792 15.4992C28.9638 15.1531 28.9638 14.8069 28.8484 14.5762C28.1561 14.5762 27.3484 14.5762 26.6561 14.6916L26.1946 14.8069L27.233 19.9992L27.6946 19.8838C27.6946 19.8838 28.3869 19.7684 29.3099 19.8838C29.1946 19.5377 29.3099 19.0761 29.3099 18.73Z" fill="#104E67"/>
<path d="M42.3486 27.0374C41.5409 26.3451 40.7332 25.7681 39.9255 25.0758L40.2717 24.9605C40.1563 25.422 40.0409 25.7681 39.8101 26.1143L39.6948 26.4604L39.464 26.1143L38.5409 24.9605L38.7717 25.0758L31.8487 27.9604L31.9641 27.7297L34.5025 34.5373L34.2717 34.4219L36.3486 34.3065H36.6948L36.5794 34.6527C36.464 35.1142 36.3486 35.4604 36.1179 35.8065L36.0025 35.5757H39.2332L36.1179 35.9219H35.8871L36.0025 35.5757C36.1179 35.1142 36.3486 34.7681 36.464 34.3065L36.6948 34.5373H34.5025H34.3871L34.2717 34.4219L31.7333 27.6143L31.6179 27.4989L31.7333 27.3835L38.7717 24.4989L38.8871 24.3835L39.1178 24.6143L40.0409 25.7681L39.6948 25.8835C39.8101 25.5374 39.9255 25.0758 40.1563 24.7297L40.2717 24.4989L40.3871 24.6143C40.964 25.5374 41.7717 26.3451 42.3486 27.0374Z" fill="#104E67"/>
<path d="M17.1948 4.76822L16.3871 8.22972L16.2717 7.99895C16.7332 7.88357 17.0794 7.88357 17.4255 7.88357H17.8871L17.7717 8.22972L16.964 9.49894L16.8486 9.26817L22.387 14.4604H22.0409L27.1177 9.26817V9.49894L26.0793 7.6528L25.9639 7.30665H26.3101C26.7716 7.30665 27.1177 7.19127 27.5793 7.19127L27.4639 7.53742L26.1947 4.65283L27.9254 7.42204L28.0408 7.6528L27.5793 7.76819C27.1177 7.88357 26.7716 7.88357 26.3101 7.88357L26.4254 7.53742L27.4639 9.38356L27.5793 9.49894L22.387 14.6912L22.2716 14.8066L22.1562 14.6912L16.6178 9.49894H16.5025L16.6178 9.38356L17.1948 7.99895L17.3101 8.3451C16.8486 8.3451 16.5025 8.46049 16.1563 8.46049H15.9255L16.0409 8.11434L17.1948 4.76822Z" fill="#31552A"/>
<path d="M27.1801 27.182L26.7638 28.3165C26.625 28.4584 26.7638 28.8838 26.9025 28.8838L29.4003 29.8765C29.539 30.0183 29.8166 29.8765 29.9553 29.7347L30.3716 28.742C30.3716 28.6002 30.9266 27.3238 30.9266 27.3238C30.9266 27.3238 31.2042 26.7566 31.3429 26.3311C31.4817 26.1893 31.3429 25.9057 31.2042 25.7638L28.8452 24.6293C28.7064 24.4875 28.2902 24.6293 28.2902 24.7711L27.7351 25.9056L27.1801 27.182Z" fill="white"/>
<path d="M27.4638 27.1528L27.1176 28.0758C27.0022 28.1912 27.1176 28.5374 27.233 28.5374L29.3099 29.3451C29.4253 29.4604 29.6561 29.3451 29.7714 29.2297L30.1176 28.422C30.1176 28.3066 30.5791 27.2682 30.5791 27.2682C30.5791 27.2682 30.8099 26.8066 30.9253 26.4605C31.0407 26.3451 30.9253 26.1143 30.8099 25.9989L28.8484 25.0759C28.733 24.9605 28.3868 25.0759 28.3868 25.1913L27.9253 26.1143L27.4638 27.1528Z" fill="#ED6203"/>
<path d="M15.6945 19.6529C15.5791 19.6529 15.3483 19.5375 15.2329 19.5375C15.1176 19.5375 15.0022 19.4221 14.8868 19.4221C14.7714 19.5375 14.5406 19.5375 14.1945 19.6529C13.733 19.7683 13.0407 19.8837 12.5791 20.1144C12.4637 20.2298 12.3484 20.2298 12.1176 20.3452C12.1176 20.4606 11.8868 20.576 11.4253 20.8067C12.3484 23.1144 13.3868 24.6144 13.3868 24.6144L16.8483 22.0759C16.156 21.6144 15.9253 20.6913 15.6945 19.6529Z" fill="url(#paint17_linear)"/>
<path d="M15.9255 19.6529C15.6947 19.6529 15.464 19.5375 15.1178 19.5375C15.0024 19.5375 14.8871 19.4221 14.7717 19.4221C14.7717 19.4221 14.7717 19.4221 14.6563 19.4221C15.0024 20.6913 15.464 21.7298 15.8101 22.1913L13.2717 24.0375C12.5794 22.8836 12.1179 21.7298 11.7717 20.6913C11.6563 20.8067 11.5409 20.8067 11.3102 20.9221C11.1948 21.0375 11.0794 21.0375 10.8486 21.0375C11.3102 22.1913 12.0025 23.5759 12.6948 24.8451L12.9255 25.3067L17.1947 22.3067L16.964 21.9606C16.964 21.9606 16.387 21.0375 15.9255 19.6529Z" fill="#30780E"/>
<path d="M10.9645 22.0759C10.9645 22.0759 13.0414 20.2298 16.3875 19.8836L16.2721 19.0759C16.2721 19.0759 11.8875 19.1913 10.5029 21.7297L10.9645 22.0759Z" fill="#656E02"/>
<path d="M23.541 30.9605C23.6564 31.0759 23.6564 31.0759 23.7718 31.0759C24.4641 31.3066 24.9256 31.6528 25.3872 32.2297C25.6179 32.3451 25.8487 32.3451 26.1949 32.4605C26.6564 31.6528 27.0025 31.3066 27.0025 31.3066L23.1949 29.2297C23.0795 29.6913 22.7334 30.0374 22.3872 30.3836C22.5026 30.499 22.618 30.499 22.8487 30.499C23.0795 30.7297 23.1949 30.8451 23.541 30.9605Z" fill="url(#paint18_linear)"/>
<path d="M23.0791 28.999L22.9637 29.4606C22.9637 29.4606 22.6175 29.9221 22.156 30.499C22.3868 30.6144 22.6175 30.6144 22.8483 30.7298C22.9637 30.7298 23.0791 30.8452 23.1945 30.8452C23.3098 30.6144 23.5406 30.3836 23.656 30.2682L26.4252 31.7682C26.3098 31.999 26.079 32.2298 25.9637 32.4605C26.3098 32.5759 26.5406 32.6913 26.7713 32.9221C27.0021 32.5759 27.2329 32.2298 27.579 31.8836L27.8098 31.4221L23.0791 28.999Z" fill="#656E02"/>
<path d="M21.2332 31.0759L23.4254 29.8066C23.4254 29.8066 26.6562 33.4989 29.0792 33.3835H29.5408L29.7715 34.0758L27.2331 33.6143L24.1177 31.6528L23.4254 31.3066L22.8485 30.9605L21.2332 31.0759Z" fill="#104E67"/>
<path d="M23.1947 29.1144C21.9255 32.2297 16.964 33.2682 16.964 33.2682L20.4255 30.6143C20.4255 30.6143 20.3101 27.0375 19.2717 24.499C18.2332 21.9606 14.3102 20.8067 14.3102 20.8067L9.92559 22.3067C11.7717 19.1914 17.4255 19.076 17.4255 19.076L17.887 15.2683C6.11793 14.6914 3.34873 20.6914 3.34873 20.6914C-0.458928 26.8067 5.88717 35.6912 5.88717 35.6912C18.0024 47.1142 26.887 31.1913 26.887 31.1913L23.1947 29.1144ZM15.9255 29.4605C15.8101 29.1144 15.464 28.5374 15.464 28.4221C15.464 28.4221 15.0025 27.1528 14.8871 27.1528L14.4255 26.2298C14.3102 26.1144 14.4255 25.7682 14.5409 25.7682L16.7332 24.6144C16.8486 24.499 17.1947 24.6144 17.1947 24.7298L17.6563 25.8836L18.2332 27.1528L18.6947 28.3067C18.8101 28.4221 18.6947 28.7682 18.464 28.7682L16.2717 29.5759C16.2717 29.6913 16.0409 29.5759 15.9255 29.4605Z" fill="url(#paint19_linear)"/>
<path d="M15.9255 29.4605C15.8101 29.1144 15.464 28.5374 15.464 28.4221C15.464 28.4221 15.0025 27.1528 14.8871 27.1528L14.4255 26.2298C14.3102 26.1144 14.4255 25.7682 14.5409 25.7682L16.7332 24.6144C16.8486 24.499 17.1947 24.6144 17.1947 24.7298L17.6563 25.8836L18.2332 27.1528L18.6947 28.3067C18.8101 28.4221 18.6947 28.7682 18.464 28.7682L16.2717 29.5759C16.2717 29.6913 16.0409 29.5759 15.9255 29.4605Z" fill="url(#paint20_linear)"/>
<path d="M27.8103 31.3066L27.5795 31.7681C23.7719 37.3065 19.7335 40.3065 15.4643 40.5373C10.272 40.8834 6.02454 36.4052 6.02454 36.1744L6.71684 35.4821C6.71684 35.5975 10.7336 39.845 15.4643 39.4988C19.2719 39.2681 23.0796 36.4988 26.5411 31.422L23.6565 30.0374C22.8488 31.1912 20.5412 34.1912 16.6181 34.3066C16.5027 34.3066 16.1566 34.1912 16.1566 33.9604C16.0412 33.7296 16.1566 33.4989 16.272 33.3835L19.9642 30.7297C19.9642 30.2681 20.0796 28.5374 19.5027 26.8066C18.8104 24.0374 16.9643 22.3067 14.4258 21.499L9.92587 23.3451C9.81048 23.4605 9.46433 23.3451 9.34895 23.2297C9.23357 23.1144 9.23357 22.7682 9.23357 22.6528C11.0797 19.3067 15.4643 18.7298 16.9643 18.7298L17.4258 15.6144C15.3489 15.6144 7.6182 16.076 4.27207 20.4605C2.54132 22.6528 2.53046 26.208 3.45353 29.6695L2.2997 29.9003C1.37663 26.0926 1.50287 22.3067 3.34901 19.8836C7.50281 14.4606 17.3104 14.6914 17.7719 14.6914H18.2335L17.7719 19.7682H17.3104C17.3104 19.7682 13.1566 19.8836 10.8489 22.0759L14.3104 20.6913H14.4258C17.4258 21.499 19.5027 23.5759 20.195 26.6912C20.7719 28.9989 20.5412 31.0758 20.5412 31.1912V31.3066L18.1181 33.0373C20.8873 31.8835 22.6181 29.2297 22.6181 29.2297L22.7334 28.7682L27.8103 31.3066Z" fill="#766E2D"/>
<path d="M8.30981 27.8452L13.9636 27.499L10.9636 32.1144C10.9636 32.1144 11.1944 28.7682 8.30981 27.8452Z" fill="white"/>
<path d="M3.34919 28.4219C3.34919 28.4219 2.07998 21.6143 6.92608 18.9604C6.92608 18.9604 2.77228 21.7297 4.0415 28.0757L3.34919 28.4219Z" fill="url(#paint21_linear)"/>
<path d="M11.1952 19.6528C11.1952 19.6528 8.07983 21.2682 8.07983 25.422L8.65675 25.5374C8.65675 25.7682 7.6183 22.7682 11.1952 19.6528Z" fill="url(#paint22_linear)"/>
<path d="M12.0024 34.3065C12.0024 34.3065 16.0409 35.6911 18.9255 34.6527C18.9255 34.6527 15.1178 35.2296 12.1178 33.845L12.0024 34.3065Z" fill="url(#paint23_linear)"/>
<path d="M7.84873 36.268C8.88718 36.0373 9.92563 35.8065 10.9641 35.5757L10.8487 35.9219C10.6179 35.5757 10.3872 35.2296 10.2718 34.8834L10.1564 34.5373H10.6179L12.1179 34.6527L11.8871 34.768L14.0794 27.4989L14.1948 27.7297L7.38719 25.422L7.61796 25.3066L6.46412 27.0374L6.34874 27.2681L6.23336 27.0374C6.00259 26.6912 5.77182 26.2297 5.54106 25.8835H5.88721L3.8103 28.422L5.54106 25.6528L5.65644 25.422L5.77182 25.6528C6.00259 25.9989 6.23336 26.4604 6.46412 26.8066H6.11797L7.27181 25.0758L7.38719 24.9604L7.50258 25.0758L14.3102 27.3835L14.4256 27.4989L14.3102 27.6143L12.1179 34.8834L12.0025 34.9988H11.8871L10.2718 34.8834L10.3872 34.5373C10.5025 34.8834 10.8487 35.2296 10.9641 35.6911L11.0795 35.9219H10.8487C9.92563 36.0373 8.88718 36.268 7.84873 36.268Z" fill="#766E2D"/>
<path d="M7.84814 36.2681C7.84814 36.2681 13.9635 41.1142 19.9634 37.3066C19.9634 37.3066 13.5019 39.3835 9.34813 36.0374L7.84814 36.2681Z" fill="url(#paint24_linear)"/>
<path d="M10.0585 29.3601L10.0584 29.3602L10.0639 29.3684C11.349 31.2961 10.5175 34.1501 8.17167 35.714C5.83416 37.2723 2.89232 36.7934 1.71604 34.8686L1.7162 34.8685L1.71073 34.8603C0.4224 32.9278 1.14838 30.079 3.59498 28.5198C6.06414 27.0628 8.88762 27.4441 10.0585 29.3601Z" fill="url(#paint25_linear)" stroke="#766E2D" stroke-width="0.5"/>
<path fill-rule="evenodd" clip-rule="evenodd" d="M4.42825 28.5005C2.20723 29.4737 1.13297 31.8251 1.96806 33.731C2.80315 35.637 5.26005 36.4412 7.48107 35.4681C9.70209 34.4949 10.7764 32.1435 9.94126 30.2376C9.10617 28.3316 6.64927 27.5274 4.42825 28.5005ZM1.66096 33.8656C0.735718 31.7539 1.94164 29.224 4.2937 28.1934C6.64576 27.1629 9.32311 27.9913 10.2484 30.103C11.1736 32.2147 9.96768 34.7446 7.61562 35.7752C5.26356 36.8057 2.58621 35.9773 1.66096 33.8656Z" fill="white"/>
<path opacity="0.6" d="M1.61811 32.9218C1.61811 32.9218 1.50273 28.4219 6.92576 28.4219L1.61811 32.9218Z" fill="url(#paint26_linear)"/>
<path d="M1.61792 32.9218C1.61792 32.9218 1.61792 28.6526 6.57941 28.4219C6.57941 28.5373 2.07945 29.3449 1.61792 32.9218Z" fill="url(#paint27_linear)"/>
<path d="M23.8868 36.9603C24.1175 36.8449 24.3483 36.4988 24.3483 36.4988C24.6945 36.268 25.0406 35.9219 25.3868 35.6911C25.8483 35.2296 26.1944 34.8834 26.656 34.4219C26.7714 34.3065 27.0021 33.9603 27.1175 33.845C27.1175 33.845 27.1175 33.7296 27.2329 33.7296C27.2329 33.7296 27.2329 33.6142 27.3483 33.6142C24.8098 32.6911 22.7329 30.2681 22.7329 30.2681L19.5022 32.345C20.8868 34.3065 22.5022 35.8065 23.8868 36.9603Z" fill="#2D78A1"/>
<path d="M23.6562 37.1911C24.0023 36.9604 24.4639 37.1911 24.4639 37.1911C24.4639 37.1911 24.4639 36.7296 24.5792 36.7296C22.3869 35.1142 20.7716 33.2681 20.0793 32.4604L22.7331 30.8451C23.31 31.5374 24.9254 33.3835 27.0023 34.0758C27.0023 34.0758 27.1177 33.9604 27.1177 33.845C27.1177 33.845 28.0407 33.845 28.1561 33.7296C28.2715 33.6143 27.5792 33.2681 27.6946 33.1527C27.2331 33.0373 26.8869 32.8066 26.5408 32.4604C24.6946 31.422 23.31 29.8066 23.31 29.8066L23.0792 29.4604L18.8101 32.1143L19.1562 32.5758C19.1562 32.6912 21.0023 34.9989 23.6562 37.1911Z" fill="#104E67"/>
<path d="M28.5022 14.3452C28.5022 14.3452 29.3098 16.8837 28.156 19.999C28.156 19.999 28.6175 19.8836 28.8483 19.0759C29.0791 18.2683 29.3098 15.1529 28.5022 14.3452Z" fill="#30780E"/>
<path d="M32.31 23.1143C32.31 23.1143 33.4638 20.5758 33.9253 18.7297C34.3869 16.8836 33.3484 19.422 33.3484 19.422L32.1946 22.3066L32.31 23.1143Z" fill="#31552A"/>
<path d="M34.7333 14.3452C34.7333 14.3452 34.6179 16.4221 34.3872 16.8837C34.1564 17.3452 34.041 16.076 34.041 16.076L34.2718 14.6914L34.7333 14.3452Z" fill="#31552A"/>
<path d="M28.3868 14.576L28.5022 14.3453C28.5022 14.3453 29.656 16.9991 28.156 19.9991L28.9637 20.1144L29.1945 19.9991C29.1945 19.9991 30.2329 15.7299 29.0791 14.2299L28.5022 14.1145L28.3868 14.576Z" fill="#31552A"/>
<path d="M13.5028 20.2299C12.8105 20.4606 12.2336 20.6914 11.5413 21.0375C12.3489 23.2298 13.3874 24.499 13.3874 24.499L16.8489 21.9606C16.1566 21.1529 15.8105 20.1145 15.6951 19.1914C14.8874 19.6529 14.1951 19.9991 13.5028 20.2299Z" fill="#426D38"/>
<path d="M15.8105 19.0759C15.4643 19.1913 15.1182 19.4221 14.8874 19.5375C15.2335 20.5759 15.5797 21.3836 15.9258 21.9605L13.3874 23.8067C12.8105 22.7682 12.349 21.7297 11.8874 20.8067C11.5413 20.9221 11.3105 21.0374 10.9644 21.1528C11.4259 22.3067 12.0028 23.4605 12.8105 24.7297L13.0413 25.1913L17.3104 22.0759L17.0797 21.7297C16.8489 21.7297 16.1566 20.6913 15.8105 19.0759Z" fill="#31552A"/>
<path d="M10.9645 22.0759C10.9645 22.0759 12.3491 20.5759 16.3875 19.8836L16.1567 19.0759C16.1567 19.0759 15.2337 19.1913 14.7721 19.4221C14.3106 19.6528 10.9645 21.1528 10.9645 21.1528L10.5029 21.6144L10.9645 22.0759Z" fill="#656E02"/>
<path d="M18.2276 25.8562L17.633 24.7637C17.4843 24.6271 17.3356 24.4906 17.0383 24.6271L14.5108 25.5831C14.3621 25.7196 14.2134 25.8562 14.3621 26.1293L14.8081 27.0853C14.8081 27.2218 15.4028 28.4509 15.4028 28.4509C15.4028 28.5875 15.7002 28.9971 15.8489 29.4068C15.9975 29.5434 16.1462 29.68 16.4436 29.5434L19.1197 28.5875C19.2684 28.4509 19.417 28.3143 19.2684 28.0412L18.6737 26.9487L18.2276 25.8562Z" fill="white"/>
<path d="M17.8869 25.9988L17.4253 25.0758C17.31 24.9604 17.1946 24.845 16.9638 24.9604L15.0023 25.7681C14.8869 25.8835 14.7715 25.9988 14.8869 26.2296L15.2331 27.0373C15.2331 27.1527 15.6946 28.1911 15.6946 28.1911C15.6946 28.3065 15.9254 28.6527 16.0407 28.9988C16.1561 29.1142 16.2715 29.2296 16.5023 29.1142L18.5792 28.3065C18.6946 28.1911 18.8099 28.0757 18.6946 27.845L18.233 26.9219L17.8869 25.9988Z" fill="#ED6203"/>
<path d="M22.9706 18.8706H24.2638C24.4075 18.8706 24.6949 18.7288 24.6949 18.445L24.5512 15.6079C24.5512 15.4661 24.4075 15.1824 24.1202 15.1824H22.9706C22.8269 15.1824 21.3899 15.1824 21.3899 15.1824C21.3899 15.1824 20.6714 15.1824 20.2403 15.1824C20.0966 15.1824 19.8092 15.3242 19.8092 15.6079L19.6655 18.3032C19.6655 18.445 19.8092 18.7288 20.0966 18.7288H21.3899L22.9706 18.8706Z" fill="white"/>
<path d="M22.8491 18.499H23.8876C24.003 18.499 24.2337 18.3836 24.2337 18.1528L24.1184 15.8452C24.1184 15.7298 24.003 15.499 23.7722 15.499H22.8491C22.7338 15.499 21.5799 15.499 21.5799 15.499C21.5799 15.499 21.003 15.499 20.6568 15.499C20.5415 15.499 20.3107 15.6144 20.3107 15.8452L20.1953 18.0375C20.1953 18.1528 20.3107 18.3836 20.5415 18.3836H21.5799L22.8491 18.499Z" fill="#ED6203"/>
</g>
<defs>
<linearGradient id="paint0_linear" x1="42.8006" y1="30.606" x2="26.0359" y2="24.403" gradientUnits="userSpaceOnUse">
<stop offset="0.203125" stop-color="#6AAAD3"/>
<stop offset="0.385417" stop-color="#5D9FC8"/>
<stop offset="0.604167" stop-color="#3A83AB"/>
<stop offset="1" stop-color="#196890"/>
</linearGradient>
<linearGradient id="paint1_linear" x1="42.8006" y1="30.606" x2="26.0359" y2="24.403" gradientUnits="userSpaceOnUse">
<stop offset="0.203125" stop-color="#6AAAD3"/>
<stop offset="0.385417" stop-color="#5D9FC8"/>
<stop offset="0.604167" stop-color="#3A83AB"/>
<stop offset="1" stop-color="#196890"/>
</linearGradient>
<linearGradient id="paint2_linear" x1="26.7063" y1="4.45276" x2="13.9651" y2="19.7086" gradientUnits="userSpaceOnUse">
<stop offset="0.1875" stop-color="#76AC62"/>
<stop offset="1" stop-color="#37602F"/>
</linearGradient>
<linearGradient id="paint3_linear" x1="26.7063" y1="4.45276" x2="13.9651" y2="19.7086" gradientUnits="userSpaceOnUse">
<stop offset="0.1875" stop-color="#76AC62"/>
<stop offset="1" stop-color="#37602F"/>
</linearGradient>
<linearGradient id="paint4_linear" x1="18.9943" y1="0.0941377" x2="21.7141" y2="12.3072" gradientUnits="userSpaceOnUse">
<stop offset="0.1875" stop-color="#76AC62"/>
<stop offset="1" stop-color="#37602F"/>
</linearGradient>
<linearGradient id="paint5_linear" x1="18.8269" y1="6.12934" x2="22.3475" y2="0.764631" gradientUnits="userSpaceOnUse">
<stop offset="0.0306891" stop-color="white" stop-opacity="0"/>
<stop offset="0.998" stop-color="white" stop-opacity="0.46"/>
</linearGradient>
<linearGradient id="paint6_linear" x1="18.8187" y1="6.12934" x2="22.4554" y2="1.06652" gradientUnits="userSpaceOnUse">
<stop offset="0.0306891" stop-color="white" stop-opacity="0"/>
<stop offset="0.998" stop-color="white" stop-opacity="0.46"/>
</linearGradient>
<linearGradient id="paint7_linear" x1="25.4348" y1="6.17667" x2="33.9386" y2="10.3679" gradientUnits="userSpaceOnUse">
<stop offset="0.0306891" stop-color="white" stop-opacity="0"/>
<stop offset="0.4342" stop-color="white" stop-opacity="0.2"/>
<stop offset="0.998" stop-color="white" stop-opacity="0.6"/>
</linearGradient>
<linearGradient id="paint8_linear" x1="25.8457" y1="11.3749" x2="31.2414" y2="14.0342" gradientUnits="userSpaceOnUse">
<stop offset="0.0306891" stop-color="white" stop-opacity="0"/>
<stop offset="0.4342" stop-color="white" stop-opacity="0.2"/>
<stop offset="0.998" stop-color="white" stop-opacity="0.6"/>
</linearGradient>
<linearGradient id="paint9_linear" x1="14.8697" y1="12.4827" x2="15.9961" y2="13.038" gradientUnits="userSpaceOnUse">
<stop offset="0.0306891" stop-color="white" stop-opacity="0"/>
<stop offset="0.4342" stop-color="white" stop-opacity="0.2"/>
<stop offset="0.998" stop-color="white" stop-opacity="0.6"/>
</linearGradient>
<linearGradient id="paint10_linear" x1="12.2035" y1="9.53252" x2="14.5295" y2="10.6789" gradientUnits="userSpaceOnUse">
<stop offset="0.0306891" stop-color="white" stop-opacity="0"/>
<stop offset="0.4342" stop-color="white" stop-opacity="0.2"/>
<stop offset="0.998" stop-color="white" stop-opacity="0.6"/>
</linearGradient>
<linearGradient id="paint11_linear" x1="35.9271" y1="28.5941" x2="44.6868" y2="33.1543" gradientUnits="userSpaceOnUse">
<stop offset="0.203125" stop-color="#6AAAD3"/>
<stop offset="0.385417" stop-color="#5D9FC8"/>
<stop offset="0.604167" stop-color="#3A83AB"/>
<stop offset="1" stop-color="#196890"/>
</linearGradient>
<linearGradient id="paint12_linear" x1="36.8144" y1="29.6113" x2="37.2821" y2="26.7236" gradientUnits="userSpaceOnUse">
<stop stop-color="white" stop-opacity="0.46"/>
<stop offset="1" stop-color="white" stop-opacity="0"/>
</linearGradient>
<linearGradient id="paint13_linear" x1="38.2666" y1="30.8449" x2="40.6025" y2="27.0128" gradientUnits="userSpaceOnUse">
<stop offset="0.0306891" stop-color="white" stop-opacity="0"/>
<stop offset="0.4342" stop-color="white" stop-opacity="0.2"/>
<stop offset="0.998" stop-color="white" stop-opacity="0.6"/>
</linearGradient>
<linearGradient id="paint14_linear" x1="36.5435" y1="21.8843" x2="35.5676" y2="22.6744" gradientUnits="userSpaceOnUse">
<stop offset="0.0306891" stop-color="white" stop-opacity="0"/>
<stop offset="0.4342" stop-color="white" stop-opacity="0.2"/>
<stop offset="0.998" stop-color="white" stop-opacity="0.6"/>
</linearGradient>
<linearGradient id="paint15_linear" x1="40.56" y1="20.7665" x2="38.4323" y2="22.489" gradientUnits="userSpaceOnUse">
<stop offset="0.0306891" stop-color="white" stop-opacity="0"/>
<stop offset="0.4342" stop-color="white" stop-opacity="0.2"/>
<stop offset="0.998" stop-color="white" stop-opacity="0.6"/>
</linearGradient>
<linearGradient id="paint16_linear" x1="19.7868" y1="17.4308" x2="43.3728" y2="17.4308" gradientUnits="userSpaceOnUse">
<stop stop-color="#74D3FC"/>
<stop offset="0.1037" stop-color="#74D3FC"/>
<stop offset="0.3404" stop-color="#4AA0D5"/>
<stop offset="0.3587" stop-color="#479DD3"/>
<stop offset="0.6247" stop-color="#206EB8"/>
<stop offset="0.8311" stop-color="#155EA8"/>
<stop offset="1" stop-color="#1056A0"/>
</linearGradient>
<linearGradient id="paint17_linear" x1="6.49843" y1="17.2796" x2="27.6501" y2="30.3905" gradientUnits="userSpaceOnUse">
<stop stop-color="#8DFD51"/>
<stop offset="0.1736" stop-color="#68D12E"/>
<stop offset="0.5615" stop-color="#50B617"/>
<stop offset="0.6937" stop-color="#46A30E"/>
<stop offset="0.8785" stop-color="#3A8E05"/>
<stop offset="1" stop-color="#368601"/>
</linearGradient>
<linearGradient id="paint18_linear" x1="2.10913" y1="30.9117" x2="26.8745" y2="30.9117" gradientUnits="userSpaceOnUse">
<stop stop-color="#E4E950"/>
<stop offset="0.1292" stop-color="#C4CC19"/>
<stop offset="0.2065" stop-color="#B4BE15"/>
<stop offset="0.3474" stop-color="#9DA90E"/>
<stop offset="0.4362" stop-color="#95A10C"/>
<stop offset="0.7407" stop-color="#889613"/>
<stop offset="0.8515" stop-color="#7F8E0A"/>
<stop offset="1" stop-color="#788802"/>
</linearGradient>
<linearGradient id="paint19_linear" x1="2.10893" y1="27.474" x2="21.6767" y2="27.5883" gradientUnits="userSpaceOnUse">
<stop stop-color="#F1E442"/>
<stop offset="1" stop-color="#888033"/>
</linearGradient>
<linearGradient id="paint20_linear" x1="2.10893" y1="27.474" x2="21.6767" y2="27.5883" gradientUnits="userSpaceOnUse">
<stop stop-color="#F1E442"/>
<stop offset="1" stop-color="#888033"/>
</linearGradient>
<linearGradient id="paint21_linear" x1="5.09645" y1="28.4121" x2="5.09645" y2="18.9317" gradientUnits="userSpaceOnUse">
<stop offset="0.0306891" stop-color="white" stop-opacity="0"/>
<stop offset="0.4342" stop-color="white" stop-opacity="0.2"/>
<stop offset="0.998" stop-color="white" stop-opacity="0.6"/>
</linearGradient>
<linearGradient id="paint22_linear" x1="9.62355" y1="25.7457" x2="9.62355" y2="19.7304" gradientUnits="userSpaceOnUse">
<stop offset="0.0306891" stop-color="white" stop-opacity="0"/>
<stop offset="0.4342" stop-color="white" stop-opacity="0.2"/>
<stop offset="0.998" stop-color="white" stop-opacity="0.6"/>
</linearGradient>
<linearGradient id="paint23_linear" x1="15.4861" y1="35.1002" x2="15.4861" y2="33.8444" gradientUnits="userSpaceOnUse">
<stop offset="0.0306891" stop-color="white" stop-opacity="0"/>
<stop offset="0.4342" stop-color="white" stop-opacity="0.2"/>
<stop offset="0.998" stop-color="white" stop-opacity="0.6"/>
</linearGradient>
<linearGradient id="paint24_linear" x1="13.8594" y1="38.7719" x2="13.8594" y2="36.0342" gradientUnits="userSpaceOnUse">
<stop offset="0.0306891" stop-color="white" stop-opacity="0"/>
<stop offset="0.4342" stop-color="white" stop-opacity="0.2"/>
<stop offset="0.998" stop-color="white" stop-opacity="0.6"/>
</linearGradient>
<linearGradient id="paint25_linear" x1="0.82211" y1="32.1201" x2="11.7874" y2="29.6068" gradientUnits="userSpaceOnUse">
<stop stop-color="#F1E442"/>
<stop offset="1" stop-color="#888033"/>
</linearGradient>
<linearGradient id="paint26_linear" x1="2.16112" y1="32.998" x2="4.53177" y2="27.6876" gradientUnits="userSpaceOnUse">
<stop offset="0.0306891" stop-color="white" stop-opacity="0"/>
<stop offset="0.998" stop-color="white" stop-opacity="0.46"/>
</linearGradient>
<linearGradient id="paint27_linear" x1="4.14516" y1="32.9858" x2="4.14516" y2="28.4979" gradientUnits="userSpaceOnUse">
<stop offset="0.0306891" stop-color="white" stop-opacity="0"/>
<stop offset="0.4342" stop-color="white" stop-opacity="0.2"/>
<stop offset="0.998" stop-color="white" stop-opacity="0.6"/>
</linearGradient>
</defs>
</svg>
