<svg width="152" height="41" viewBox="0 0 152 41" fill="none" xmlns="http://www.w3.org/2000/svg">
<g opacity="0.7">
<path d="M117.407 12.3542C117.348 12.3836 117.275 12.4425 117.216 12.4425C115.244 12.4278 113.258 12.4866 111.286 12.3395C110.036 12.2512 109.271 11.2507 109.226 9.80875C109.153 7.74886 109.153 5.68896 109.226 3.62907C109.285 1.87817 110.404 0.892359 112.169 0.862932C113.802 0.833505 115.436 0.862932 117.157 0.862932C117.157 1.58389 117.157 2.26072 117.157 3.04053C116.245 3.04053 115.347 3.04053 114.45 3.04053C113.905 3.04053 113.376 3.02582 112.831 3.04053C111.978 3.05525 111.698 3.3348 111.684 4.18819C111.669 4.54131 111.684 4.90915 111.684 5.35055C113.361 5.35055 114.979 5.35055 116.642 5.35055C116.642 6.0568 116.642 6.67477 116.642 7.36631C115.009 7.36631 113.39 7.36631 111.684 7.36631C111.684 8.1167 111.654 8.79352 111.684 9.45562C111.713 10.1177 112.213 10.2796 112.758 10.2796C113.979 10.2943 115.2 10.2796 116.421 10.2943C116.745 10.2943 117.054 10.309 117.378 10.3237C117.407 11.0005 117.407 11.6774 117.407 12.3542Z" fill="#252122"/>
<path d="M70.0739 0.906883C70.9861 0.906883 71.8542 0.906883 72.8106 0.906883C73.2667 3.57003 73.7228 6.20375 74.1789 8.83747C74.2231 8.83747 74.2672 8.83747 74.3113 8.83747C74.7675 6.67458 75.2236 4.51169 75.6797 2.34881C75.7238 2.11339 75.7827 1.87798 75.8416 1.64256C75.974 1.1423 76.3124 0.892169 76.8568 0.862742C78.5194 0.774461 78.593 0.833316 78.9314 2.4518C79.3728 4.55584 79.8289 6.65987 80.3733 8.77861C80.8294 6.15961 81.2708 3.55532 81.727 0.906883C82.6686 0.906883 83.5367 0.906883 84.4931 0.906883C84.1841 2.26053 83.9046 3.55532 83.6103 4.8501C83.1247 7.04242 82.6392 9.24945 82.1389 11.4418C81.9329 12.3834 81.7858 12.4864 80.8 12.4864C79.1374 12.5011 79.108 12.4717 78.7548 10.8091C78.2987 8.64619 77.8279 6.48331 77.2246 4.30571C77.0039 5.2768 76.7685 6.2626 76.5478 7.23369C76.2241 8.64619 75.9151 10.0734 75.5767 11.4859C75.3707 12.3687 75.2089 12.4717 74.3261 12.4864C72.6046 12.5011 72.5899 12.5158 72.222 10.8532C71.5158 7.73395 70.8242 4.61469 70.1327 1.49542C70.1033 1.33358 70.1033 1.1423 70.0739 0.906883Z" fill="#262223"/>
<path d="M99.9423 7.79295C99.9423 8.6169 99.9423 9.35258 99.9423 10.103C99.9423 10.8534 99.9423 11.6037 99.9423 12.413C99.1037 12.413 98.3238 12.413 97.4852 12.413C97.4705 12.1481 97.441 11.9422 97.441 11.7362C97.441 8.52862 97.441 5.33579 97.441 2.12824C97.441 1.06887 97.647 0.86288 98.7358 0.86288C100.06 0.86288 101.384 0.833453 102.708 0.877594C104.518 0.921734 105.813 1.8634 106.093 3.33475C106.372 4.79139 106.034 6.08618 104.783 6.92485C105.063 7.29269 105.43 7.60167 105.548 7.98422C105.99 9.41143 106.357 10.8534 106.784 12.3983C105.813 12.3983 104.989 12.3983 104.121 12.3983C103.856 11.383 103.621 10.412 103.371 9.45557C103.003 8.05779 102.664 7.79295 101.237 7.77823C100.84 7.79295 100.443 7.79295 99.9423 7.79295ZM100.001 3.11405C100.001 4.02629 100.001 4.86496 100.001 5.71834C100.825 5.71834 101.605 5.76248 102.37 5.70363C103.165 5.65949 103.577 5.17394 103.606 4.45298C103.621 3.68788 103.194 3.18762 102.37 3.12876C101.59 3.06991 100.825 3.11405 100.001 3.11405Z" fill="#262223"/>
<path d="M57.6263 9.98519C57.4055 10.4855 57.1996 10.9416 56.7287 11.4124C56.1402 11.9862 55.3751 12.3541 54.4776 12.5012C53.7566 12.6189 53.0062 12.663 52.3 12.6042C50.3136 12.4129 49.0336 11.3094 48.4744 9.42608C47.9448 7.64574 47.9153 5.83598 48.5039 4.07036C49.2543 1.76034 51.0493 0.612682 53.6242 0.730391C54.6983 0.774531 55.6105 1.11294 56.3462 1.68677C57.4938 2.59901 57.8322 3.84966 58.0235 4.57062C58.2736 5.527 58.2442 6.2921 58.2148 7.07192C58.1854 7.83702 58.1412 8.83754 57.6263 9.98519ZM55.4192 4.89432C55.3898 4.71775 55.2574 3.8938 54.5217 3.37882C54.0362 3.04041 53.5359 3.01099 53.3299 2.99627C52.2264 2.93742 51.3877 3.52596 50.9905 4.70304C50.5343 6.0714 50.5638 7.46918 50.9905 8.85225C51.3142 9.86748 52.0057 10.353 53.0651 10.3677C53.3152 10.3677 53.9773 10.3972 54.5511 9.95576C54.7571 9.79391 55.0072 9.52907 55.2279 8.96996C55.8018 7.48389 55.5222 5.51228 55.4192 4.89432Z" fill="#262223"/>
<path d="M88.4657 10.0882C88.2156 10.868 87.9802 11.6331 87.7154 12.4277C86.8767 12.4277 86.0822 12.4277 85.1993 12.4277C85.2435 12.207 85.2582 12.001 85.3171 11.8097C86.4059 8.46972 87.4947 5.14447 88.5982 1.8045C88.8483 1.02468 89.0984 0.862834 89.9371 0.862834C91.7616 0.833407 91.7616 0.833407 92.3207 2.5696C93.3359 5.67415 94.3659 8.77871 95.3811 11.8833C95.4252 12.0157 95.4547 12.1628 95.5282 12.3982C94.6601 12.3982 93.8362 12.3982 92.8945 12.3982C92.6738 11.6773 92.4237 10.8975 92.1736 10.0882C90.967 10.0882 89.7458 10.0882 88.4657 10.0882ZM89.0837 7.98418C89.9077 7.98418 90.7169 7.98418 91.585 7.98418C91.173 6.51282 90.7905 5.08561 90.3932 3.6584C90.3638 3.67312 90.3196 3.67312 90.2902 3.68783C89.893 5.08561 89.4957 6.4834 89.0837 7.98418Z" fill="#262223"/>
<path d="M39.5139 8.27829C39.5139 9.72021 39.5139 11.0444 39.5139 12.4275C38.69 12.4275 37.8954 12.4275 37.0715 12.4275C37.0568 12.1479 37.0273 11.9272 37.0273 11.7212C37.0273 8.54313 37.0273 5.37972 37.0273 2.20161C37.0273 1.08338 37.2333 0.877389 38.3368 0.877389C39.5581 0.877389 40.7793 0.862675 42.0005 0.877389C44.8844 0.921529 46.5176 3.1727 45.6495 5.87998C45.2081 7.26305 43.8691 8.19 42.1329 8.26357C41.309 8.30771 40.4703 8.27829 39.5139 8.27829ZM39.5728 3.09913C39.5728 4.17322 39.5728 5.18845 39.5728 6.24782C40.2937 6.24782 40.9706 6.26254 41.6474 6.24782C42.692 6.21839 43.2953 5.65928 43.31 4.7029C43.3247 3.77595 42.7656 3.18741 41.7651 3.11384C41.0588 3.0697 40.3526 3.09913 39.5728 3.09913Z" fill="#252223"/>
<path d="M25.9774 11.53C26.2717 10.8091 26.5218 10.2058 26.7867 9.54369C27.1251 9.64668 27.4193 9.72025 27.6989 9.82325C28.7141 10.1911 29.7588 10.4559 30.8476 10.3382C31.4361 10.2794 31.9658 10.1175 32.1424 9.45541C32.2748 8.92572 31.9805 8.42546 31.289 8.08705C30.7005 7.79278 30.0825 7.57208 29.4792 7.30723C29.0525 7.11596 28.6406 6.92468 28.2433 6.68927C26.8161 5.83588 26.3453 4.86479 26.5807 3.36401C26.8014 2.0398 27.7136 1.11285 29.2438 0.818575C30.9947 0.480164 32.6721 0.789148 34.3641 1.58368C34.1434 2.2605 33.9374 2.86375 33.7167 3.54058C33.0693 3.39344 32.4808 3.21688 31.8922 3.1286C31.2449 3.04032 30.5827 2.98146 29.9354 3.04032C29.6558 3.06974 29.2438 3.40815 29.185 3.673C29.1261 3.93784 29.3174 4.42339 29.5675 4.58523C30.1413 4.96779 30.8329 5.2032 31.4508 5.54161C32.2307 5.93888 33.0693 6.27729 33.7462 6.80697C35.5412 8.2489 35.1881 11.2505 33.0693 12.148C30.671 13.1632 28.3463 12.663 25.9774 11.53Z" fill="#272324"/>
<path d="M59.8922 0.936279C62.8643 0.936279 65.7776 0.936279 68.7939 0.936279C68.7939 1.62781 68.7939 2.30464 68.7939 3.05503C67.7051 3.05503 66.6604 3.05503 65.5569 3.05503C65.5569 6.20372 65.5569 9.29356 65.5569 12.4275C64.6888 12.4275 63.909 12.4275 63.0703 12.4275C63.0703 9.29356 63.0703 6.23314 63.0703 3.08445C62.011 3.08445 60.9957 3.08445 59.9069 3.08445C59.8922 2.34878 59.8922 1.68667 59.8922 0.936279Z" fill="#262223"/>
<path d="M14.03 12.0009L12.6617 11.0887C11.1462 10.0882 10.7195 8.02829 11.7347 6.5128L15.0747 1.48078C16.0752 -0.0347163 18.1351 -0.461409 19.6506 0.553824L21.019 1.46606C22.5344 2.46658 22.9611 4.52647 21.9459 6.04197L18.6059 11.074C17.6054 12.5895 15.5602 13.0015 14.03 12.0009Z" fill="#25964A"/>
<path d="M2.84791 12.0009L1.47955 11.0887C-0.0359378 10.0882 -0.462629 8.02829 0.552604 6.5128L3.89257 1.48078C4.89309 -0.0347163 6.95298 -0.461409 8.46847 0.553824L9.83683 1.46606C11.3523 2.46658 11.779 4.52647 10.7638 6.04197L7.42381 11.074C6.40858 12.5895 4.3634 13.0015 2.84791 12.0009Z" fill="#E65832"/>
<path d="M151.265 28.8868C150.91 27.666 149.955 27.0667 148.757 26.8004C148.246 26.7116 147.625 26.6228 147.025 26.6228H127.959C127.781 26.6228 127.515 26.534 127.36 26.7116C127.182 27.666 126.916 28.6204 126.76 29.5749C126.072 28.1765 125.118 27.3996 123.719 26.9779C123.209 26.8003 122.587 26.6228 121.988 26.6228H114.353C113.665 30.0854 112.954 33.5702 112.266 37.0328H112.089C111.578 33.5702 111.045 30.0854 110.446 26.6228H103.765C101.679 30.4405 99.5922 34.2583 97.528 38.076C97.3504 37.4767 97.3504 36.8552 97.3504 36.3447C97.4392 35.0351 96.9065 34.1695 95.5303 33.659C96.3072 33.3926 96.9952 33.215 97.528 32.7933C98.66 31.9277 99.2593 30.7069 98.9929 29.2419C98.7265 27.8436 97.6833 27.2443 96.4847 26.9113C96.0408 26.8225 95.6191 26.7338 95.2639 26.7338H86.8516C86.674 27.6882 86.4077 28.8202 86.2523 29.9522H92.4894C92.9999 29.9522 93.6214 30.1298 93.799 30.8179C93.8878 31.4172 93.6214 32.0386 93.0221 32.2828C92.7558 32.3716 92.4228 32.4604 92.1565 32.4604H85.7418C85.2313 34.9685 84.7874 37.5655 84.2769 40.0958H89.1378C89.4929 38.5421 89.7371 37.055 90.0922 35.5012H90.6915C92.2453 35.5012 92.4228 35.6788 92.4228 37.2325C92.4228 38.187 92.2453 39.1414 92.3341 40.0958H101.701C102.145 39.2302 102.478 38.4533 102.833 37.6765H107.072C107.161 38.5421 107.25 39.319 107.25 40.0958C107.427 40.0958 107.427 40.1846 107.516 40.1846H119.214C119.902 40.1846 120.612 40.0071 121.389 39.8295C122.943 39.3856 124.163 38.6087 125.295 37.3213C125.118 38.3645 124.94 39.2302 124.785 40.0958H135.372C135.639 38.9638 135.816 37.8318 136.06 36.722H130.423C130.511 36.1227 130.6 35.59 130.867 34.9907H135.461C135.639 33.9475 135.905 32.9043 136.06 31.7723H131.377C131.555 31.173 131.555 30.5515 131.821 29.9522H145.006C145.183 29.9522 145.449 30.041 145.605 30.041C146.204 30.2186 146.382 30.6403 146.293 31.2618C146.115 32.0386 145.605 32.4826 144.562 32.4826H138.058C137.548 34.9019 137.104 37.5211 136.593 40.0293H141.632C141.987 38.4755 142.231 36.8996 142.586 35.3459H143.097C144.739 35.3459 144.917 35.5234 144.917 37.2547V39.9405H150.022V36.5667C150.111 35.1683 149.667 34.1473 148.113 33.6146C149.156 33.3482 150.022 32.9265 150.71 32.2162C151.265 31.3062 151.62 30.1742 151.265 28.8868ZM104.453 33.9919C105.052 32.5935 105.674 31.3062 106.273 29.9966H106.362C106.451 31.3062 106.54 32.5935 106.717 33.9919H104.453ZM120.834 35.1239C120.235 36.3447 119.191 36.7664 117.549 36.5889C117.993 34.4136 118.415 32.2606 118.858 29.9966C119.458 29.9078 120.079 29.9078 120.679 30.0854C121.278 30.2629 121.544 30.7735 121.633 31.3949C121.7 32.6157 121.433 33.9031 120.834 35.1239Z" fill="black"/>
<path d="M92.3118 24.2921H85.7195C84.6763 29.486 83.7219 34.7909 82.6787 39.9848H76.9521C77.9953 34.7021 78.9497 29.486 79.9929 24.2921H73.3119C73.5782 22.8937 73.8224 21.6064 74.0888 20.208H93.0887C92.8223 21.5842 92.5559 22.8937 92.3118 24.2921Z" fill="black"/>
<path d="M77.2185 26.7114V26.889C77.0409 27.8434 76.8634 28.7979 76.708 29.8411H72.979C71.6695 29.8411 70.8038 30.4404 70.2045 31.4836C69.694 32.5268 69.5164 33.57 69.5164 34.702C69.5164 35.9228 70.1157 36.5221 71.3365 36.5221H75.3318C75.0655 37.6541 74.8879 38.6973 74.6438 39.8072C74.1332 39.9847 73.6005 39.8959 73.09 39.8959C71.6917 39.8959 70.3155 39.9847 68.9171 39.8072C66.409 39.6296 64.9218 38.2534 64.5001 35.7231C63.9896 32.771 65.6321 29.042 68.2291 27.5771C69.4499 27.1332 70.6484 26.8002 71.958 26.7114H77.2185Z" fill="#E7282B"/>
</g>
</svg>
