<svg width="153" height="34" viewBox="0 0 153 34" fill="none" xmlns="http://www.w3.org/2000/svg">
<g opacity="0.7">
<path d="M125.293 9.65308C126.538 9.65308 127.561 9.65308 128.647 9.65308C128.647 14.5408 128.647 19.4286 128.647 24.3483C127.561 24.3483 126.538 24.3483 125.356 24.3483C125.356 22.2718 125.356 20.2592 125.356 18.1507C123.376 18.1507 121.523 18.1507 119.542 18.1507C119.542 20.1633 119.542 22.1759 119.542 24.3163C118.36 24.3163 117.338 24.3163 116.284 24.3163C116.284 23.1663 116.188 11.9213 116.22 9.68503C117.242 9.68503 118.296 9.68503 119.478 9.68503C119.478 11.5379 119.478 13.3588 119.478 15.2117C121.459 15.2117 123.312 15.2117 125.293 15.2117C125.293 13.4227 125.293 11.6018 125.293 9.65308Z" fill="#2A2A28"/>
<path d="M75.0094 16.809C75.0733 19.5883 74.2427 21.9523 71.8148 23.6135C68.3966 25.9456 61.5282 25.0511 60.5379 18.566C60.2184 16.5854 60.474 14.7006 61.4004 12.9116C62.7102 10.4198 64.8825 9.30167 67.6299 9.26973C70.4411 9.23778 72.6774 10.324 74.051 12.8477C74.7219 14.1255 74.8816 14.7645 75.0094 16.809ZM71.5912 17.0007C71.5912 16.1701 71.4954 15.052 71.0801 14.1255C70.4731 12.688 69.2272 12.0491 67.6618 12.081C66.1604 12.1129 65.0103 12.7838 64.4033 14.1575C63.5727 15.9465 63.5088 17.7993 64.2755 19.6522C64.9464 21.2495 66.1604 21.9843 67.8855 21.9523C69.5467 21.9204 70.8245 21.0578 71.3676 19.4925C71.5912 18.7258 71.5912 18.0868 71.5912 17.0007Z" fill="#232321"/>
<path d="M48.3024 14.2214C49.3567 12.6241 50.347 11.1545 51.3054 9.65308C52.4554 9.65308 53.5735 9.65308 54.9153 9.65308C53.286 12.049 51.7846 14.3491 50.2192 16.6812C51.8804 19.173 53.5416 21.6648 55.2986 24.3163C53.9249 24.3163 52.7429 24.3163 51.3373 24.3163C50.3789 22.8468 49.3247 21.2176 48.1747 19.4286C47.0246 21.1537 45.9704 22.751 44.9162 24.3802C43.7022 24.3802 42.5521 24.3802 41.1785 24.3802C42.9355 21.7607 44.5967 19.2688 46.3218 16.6812C44.7884 14.413 43.255 12.1129 41.6257 9.68503C42.9994 9.68503 44.1814 9.68503 45.4592 9.68503C46.3857 11.1226 47.2802 12.5921 48.3024 14.2214Z" fill="#252523"/>
<path d="M79.386 28.118C78.2679 28.118 77.4054 28.118 76.415 28.118C76.415 23.3261 76.415 18.63 76.415 13.8061C77.3095 13.8061 78.236 13.8061 79.1624 13.8061C79.1624 14.0617 79.1624 14.2853 79.1624 14.5729C79.2902 14.477 81.6223 12.688 84.114 13.6464C85.8391 14.2853 86.6378 15.8507 86.8295 16.3299C87.5962 18.2147 87.5962 20.1315 86.7975 21.9844C85.6155 24.6678 82.6765 25.5304 80.1847 23.965C79.9611 23.8372 79.7694 23.6455 79.418 23.39C79.386 25.0192 79.386 26.5207 79.386 28.118ZM79.3541 19.237C79.3541 19.9078 79.5138 20.7704 79.9291 21.4413C80.7917 22.8469 82.932 22.815 83.7626 21.3454C84.6252 19.812 84.5613 18.2147 83.7307 16.6813C83.3154 15.9465 82.5806 15.5312 81.75 15.6271C80.8236 15.691 79.993 16.0743 79.6735 17.0647C79.4499 17.7355 79.3541 18.2786 79.3541 19.237Z" fill="#232321"/>
<path d="M142.192 24.3483C142.192 19.3967 142.192 14.5728 142.192 9.68506C143.118 9.68506 144.013 9.68506 145.067 9.68506C145.099 11.3463 145.131 12.9116 145.131 14.7006C145.514 14.445 145.802 14.2214 146.089 14.0297C148.07 12.8158 150.498 13.295 151.872 15.1478C153.309 17.1285 153.373 20.5467 152.063 22.6232C150.785 24.6039 148.326 25.2747 146.249 24.1886C145.866 23.9969 145.291 23.6774 144.875 23.4219C144.875 23.7413 144.875 24.0288 144.875 24.3483C144.045 24.3483 143.214 24.3483 142.192 24.3483ZM145.035 19.0133C145.035 19.8439 145.163 20.4828 145.482 21.1217C145.866 21.9843 146.664 22.5274 147.655 22.4635C148.581 22.3996 149.252 21.8885 149.603 21.0259C150.146 19.7161 150.146 18.3744 149.603 17.0646C149.252 16.202 148.581 15.6909 147.655 15.659C146.664 15.627 145.898 16.1382 145.514 17.0007C145.195 17.6077 145.035 18.1827 145.035 19.0133Z" fill="#232321"/>
<path d="M98.7453 19.7479C96.1257 19.7479 93.6979 19.7479 91.27 19.7479C91.1102 20.9938 91.3977 21.7925 92.2922 22.1439C93.7937 22.7189 95.1035 22.3675 96.0299 21.0577C96.8605 21.0577 97.5953 21.0577 98.4898 21.0577C98.1384 22.6869 97.18 23.7092 95.7743 24.2842C92.7075 25.5621 88.0434 24.1884 88.0115 19.1729C87.9795 15.7866 90.1838 13.4226 93.3784 13.3587C95.9341 13.2948 97.8508 14.7643 98.5217 17.1922C98.6175 17.6075 98.7134 18.0228 98.7773 18.4381C98.7773 18.8215 98.7453 19.1729 98.7453 19.7479ZM91.0783 17.8311C92.3561 17.8311 93.5062 17.8311 94.6562 17.8311C94.9757 17.8311 95.2632 17.7992 95.5827 17.7992C95.3271 16.3297 94.6882 15.6907 93.5062 15.6269C92.3242 15.563 91.5255 16.2658 91.0783 17.8311Z" fill="#262624"/>
<path d="M140.403 24.3802C139.477 24.3802 138.614 24.3802 137.783 24.3802C137.783 24.0608 137.751 23.8372 137.751 23.5177C137.783 23.8372 135.164 24.7955 133.918 24.6997C131.81 24.5719 130.532 23.4857 130.436 21.3773C130.308 19.3328 130.372 17.2882 130.372 15.2117C130.372 14.7325 130.372 14.2853 130.372 13.7422C131.394 13.7422 132.321 13.7422 133.439 13.7422C133.439 14.3172 133.439 14.8284 133.439 15.3395C133.439 17.0326 133.407 18.7258 133.471 20.387C133.535 21.6968 134.046 22.2079 135.164 22.2399C136.314 22.2718 137.113 21.7287 137.368 20.6106C137.496 20.0356 137.464 19.4605 137.464 18.8855C137.464 17.1924 137.464 15.5312 137.464 13.7422C138.486 13.7422 139.413 13.7422 140.339 13.7422C140.339 14.9242 140.403 21.8885 140.403 24.3802Z" fill="#262624"/>
<path d="M103.058 14.988C104.4 13.4226 105.965 13.1351 107.754 13.5823C108.904 13.8699 109.575 14.5727 109.926 15.6588C110.054 16.0422 110.182 16.4895 110.182 16.8728C110.214 19.3327 110.182 21.7925 110.182 24.3482C109.16 24.3482 108.233 24.3482 107.147 24.3482C107.147 22.8148 107.147 21.3133 107.147 19.7799C107.147 18.9812 107.179 18.1826 107.083 17.4159C106.955 16.3936 106.412 15.8825 105.422 15.8186C104.304 15.7547 103.473 16.2658 103.25 17.2561C103.122 17.7992 103.122 18.4062 103.122 18.9812C103.09 20.7063 103.122 22.4634 103.122 24.3162C102.132 24.3162 101.173 24.3162 100.119 24.3162C100.119 20.8661 100.119 17.2242 100.119 13.6782C101.014 13.6782 102.068 13.6782 103.026 13.6782C103.058 14.0616 103.058 14.4449 103.058 14.988Z" fill="#272725"/>
<path d="M26.2916 10.3878L31.6266 2.88046C31.0516 1.41094 29.6459 0.388672 27.9847 0.388672H20.0302L26.2916 10.3878Z" fill="#E10714"/>
<path d="M18.1454 17.0653L7.699 0.389404H3.89742C1.75703 0.389404 0 2.14644 0 4.28683V29.7159C0 31.8563 1.75703 33.6133 3.89742 33.6133H6.38922L18.1454 17.0653Z" fill="#E10714"/>
<path d="M26.6111 23.1663L19.1996 33.6126H27.9848C29.7098 33.6126 31.2113 32.4626 31.6905 30.8972L26.6111 23.1663Z" fill="#E10714"/>
</g>
</svg>
