<svg width="2560" height="1548" fill="none" xmlns="http://www.w3.org/2000/svg"><mask id="a" maskUnits="userSpaceOnUse" x="0" y="0" width="2560" height="1548"><path fill="#F5F8FF" d="M0 0h2560v1547.2H0z"/></mask><g mask="url(#a)"><path fill="#F5F8FF" d="M0 0h2568v1552H0z"/><path fill-rule="evenodd" clip-rule="evenodd" d="M1304.8 497L727.5-481.4 1703 386.2l720-200.1-543.2 357.4 1141.2 1015-964 208.7-67.4-109.5L1485.3 803-141 1873l48-985L30 851.3l1274.6-354.4z" fill="#fff"/><path fill-rule="evenodd" clip-rule="evenodd" d="M1118.3 539H1010a54.2 54.2 0 01108.3 0z" fill="#fff"/><path fill-rule="evenodd" clip-rule="evenodd" d="M1161.5 539h-54.2a27 27 0 0154.2 0zM1131.7 495h-54.2a27 27 0 0154.2 0z" fill="#fff"/></g></svg>