<svg width="504" height="514" viewBox="0 0 504 514" fill="none" xmlns="http://www.w3.org/2000/svg">
<path fill-rule="evenodd" clip-rule="evenodd" d="M503.799 349.274C503.065 326.251 496.944 305.309 492.415 280.448C483.479 231.706 490.089 181.985 497.556 132.631V131.406C456.548 183.7 391.791 212.234 334.869 248.607C352.619 284 361.922 334.333 358.984 386.259C372.45 361.154 381.876 333.109 400.972 309.84C374.653 381.483 332.42 468.802 324.708 567.265C435.738 546.935 508.329 480.558 503.799 349.274ZM178.424 126.14C137.293 89.7679 107.914 45.9249 79.2691 0C76.6985 67.1116 67.7623 120.629 47.4416 170.841C37.5261 195.334 25.0399 216.276 16.9606 240.891C8.6365 266.12 2.02617 294.164 0.434791 326.251C-6.54278 463.78 71.4347 523.544 164.347 567.142C174.874 485.824 165.693 400.588 154.186 325.026C142.557 248.362 123.828 175.494 109.75 112.179C156.022 248.974 186.014 411.732 212.7 567.265C212.7 567.265 278.803 473.7 301.572 425.816C328.748 368.869 311.365 295.389 283.822 244.81C257.259 196.069 219.31 162.268 178.424 126.14Z" fill="#39393A"/>
</svg>
