<svg width="26" height="26" viewBox="0 0 26 26" fill="none" xmlns="http://www.w3.org/2000/svg">
<path d="M13.0722 1C6.40962 0.994384 1.00561 6.40351 1 13.0816C0.994397 19.7596 6.39096 25.1762 13.0535 25.1818C19.7151 25.1762 25.1154 19.7681 25.1257 13.0909C25.1257 6.41659 19.731 1.00562 13.0722 1ZM13.0535 23.1698C7.50012 23.1698 2.99805 18.6572 2.99805 13.0909C2.99805 7.52461 7.50012 3.01205 13.0535 3.01205C18.605 3.01767 23.1033 7.5265 23.1089 13.0909C23.1089 18.6572 18.6069 23.1698 13.0535 23.1698Z" stroke="#6C67AB"/>
<path d="M16.312 12.5017C17.1187 12.0459 17.5547 11.1336 17.4043 10.2183C17.2176 8.8052 15.5371 8.27174 14.2112 8.15947V6.03516H12.9041V8.14077H12.0265V6.03516H10.7194V8.14077H8.08643V9.49774H9.06677C9.5056 9.49774 9.72033 9.62875 9.72033 9.98435V15.8146C9.72033 16.3012 9.47756 16.451 9.21614 16.451H8.21714V17.836H10.7567V19.9884H12.0731V17.836H12.9508V19.9884H14.2299V17.836H14.51C17.1989 17.836 18.0952 16.5165 18.0952 14.7197C18.0737 13.6603 17.3408 12.7488 16.312 12.5017ZM12.0264 9.58195H12.9601C13.6136 9.58195 14.9021 9.69426 14.9021 10.7611C14.9469 11.4574 14.4437 12.0675 13.7537 12.1555H12.0264V9.58195ZM13.4736 16.3199V16.3105H12.0264V13.503H13.707C14.0992 13.503 15.5743 13.6341 15.5743 14.6822C15.5743 15.7303 14.8741 16.3199 13.4736 16.3199Z" fill="#6C67AB"/>
</svg>
