<svg width="25" height="25" viewBox="0 0 25 25" fill="none" xmlns="http://www.w3.org/2000/svg">
<mask id="path-1-inside-1" fill="white">
<path fill-rule="evenodd" clip-rule="evenodd" d="M14.7799 5.86297C15.4285 5.24359 15.8327 4.36939 15.8327 3.40057C15.8327 1.52249 14.3138 0 12.44 0C10.5663 0 9.04736 1.52249 9.04736 3.40057C9.04736 4.40003 9.47754 5.29878 10.1624 5.92096L7.28798 10.2427C6.80339 9.97534 6.24661 9.82324 5.65439 9.82324C3.78067 9.82324 2.26172 11.3457 2.26172 13.2238C2.26172 14.5186 2.9837 15.6444 4.04617 16.2188L2.63411 19.6785C2.51298 19.6584 2.3886 19.6479 2.26178 19.6479C1.01263 19.6479 0 20.6629 0 21.915C0 23.167 1.01263 24.182 2.26178 24.182C3.51093 24.182 4.52356 23.167 4.52356 21.915C4.52356 21.1469 4.14242 20.4679 3.55936 20.0579L4.98752 16.5587C5.20314 16.6018 5.42613 16.6244 5.65439 16.6244C5.88265 16.6244 6.10564 16.6018 6.32126 16.5587L7.74941 20.0579C7.16632 20.4679 6.78516 21.1468 6.78516 21.915C6.78516 23.167 7.79779 24.182 9.04694 24.182C10.2961 24.182 11.3087 23.167 11.3087 21.915C11.3087 20.6629 10.2961 19.6479 9.04694 19.6479C8.92014 19.6479 8.79578 19.6584 8.67466 19.6785L7.26261 16.2188C8.32508 15.6444 9.04706 14.5186 9.04706 13.2238C9.04706 12.3007 8.68012 11.4636 8.08448 10.8508L10.9934 6.47736C11.4322 6.68502 11.9226 6.80114 12.44 6.80114C12.9878 6.80114 13.5052 6.67104 13.9632 6.44L16.953 10.6985C16.2649 11.3209 15.8325 12.2217 15.8325 13.2238C15.8325 14.5996 16.6477 15.7846 17.8203 16.32L16.29 19.6943C16.1423 19.6639 15.9893 19.6479 15.8326 19.6479C14.5834 19.6479 13.5708 20.6629 13.5708 21.915C13.5708 23.167 14.5834 24.182 15.8326 24.182C17.0817 24.182 18.0944 23.167 18.0944 21.915C18.0944 21.178 17.7435 20.5231 17.2 20.109L18.7927 16.597C18.9343 16.6151 19.0787 16.6244 19.2252 16.6244C19.536 16.6244 19.8371 16.5825 20.1231 16.504L21.3943 20.0079C20.7696 20.4114 20.356 21.1148 20.356 21.915C20.356 23.167 21.3686 24.182 22.6177 24.182C23.8669 24.182 24.8795 23.167 24.8795 21.915C24.8795 20.6629 23.8669 19.6479 22.6177 19.6479C22.5216 19.6479 22.4269 19.654 22.3339 19.6656L21.0395 16.0978C21.9882 15.4949 22.6179 14.433 22.6179 13.2238C22.6179 11.3457 21.0989 9.82324 19.2252 9.82324C18.7104 9.82324 18.2224 9.93816 17.7853 10.1438L14.7799 5.86297Z"/>
</mask>
<path d="M14.7799 5.86297L14.0893 5.13976L13.4673 5.73371L13.9615 6.43757L14.7799 5.86297ZM10.1624 5.92096L10.9951 6.47477L11.4712 5.75889L10.8348 5.18078L10.1624 5.92096ZM7.28798 10.2427L6.80491 11.1183L7.61086 11.5629L8.12062 10.7965L7.28798 10.2427ZM4.04617 16.2188L4.97202 16.5967L5.31111 15.7659L4.52173 15.3391L4.04617 16.2188ZM2.63411 19.6785L2.47034 20.665L3.25818 20.7958L3.55997 20.0564L2.63411 19.6785ZM3.55936 20.0579L2.6335 19.68L2.33247 20.4176L2.9841 20.8759L3.55936 20.0579ZM4.98752 16.5587L5.18343 15.5781L4.37369 15.4163L4.06166 16.1808L4.98752 16.5587ZM6.32126 16.5587L7.24712 16.1808L6.93509 15.4163L6.12535 15.5781L6.32126 16.5587ZM7.74941 20.0579L8.32464 20.8758L8.97631 20.4176L8.67526 19.68L7.74941 20.0579ZM8.67466 19.6785L7.74881 20.0564L8.05058 20.7958L8.83841 20.665L8.67466 19.6785ZM7.26261 16.2188L6.78705 15.3391L5.99767 15.7659L6.33676 16.5967L7.26261 16.2188ZM8.08448 10.8508L7.25183 10.297L6.80482 10.9691L7.36745 11.5479L8.08448 10.8508ZM10.9934 6.47736L11.4211 5.57346L10.6395 5.20363L10.1607 5.92356L10.9934 6.47736ZM13.9632 6.44L14.7816 5.8654L14.2848 5.15774L13.5128 5.54717L13.9632 6.44ZM16.953 10.6985L17.6238 11.4402L18.2792 10.8473L17.7714 10.1239L16.953 10.6985ZM17.8203 16.32L18.731 16.733L19.1429 15.8246L18.2356 15.4104L17.8203 16.32ZM16.29 19.6943L16.0884 20.6738L16.8708 20.8349L17.2008 20.1073L16.29 19.6943ZM17.2 20.109L16.2893 19.696L15.9602 20.4216L16.594 20.9045L17.2 20.109ZM18.7927 16.597L18.9192 15.605L18.1868 15.5116L17.8819 16.184L18.7927 16.597ZM20.1231 16.504L21.0632 16.163L20.7484 15.2955L19.8585 15.5396L20.1231 16.504ZM21.3943 20.0079L21.9368 20.8479L22.606 20.4157L22.3343 19.6669L21.3943 20.0079ZM22.3339 19.6656L21.3939 20.0067L21.6662 20.7573L22.4584 20.6578L22.3339 19.6656ZM21.0395 16.0978L20.5031 15.2538L19.8257 15.6843L20.0995 16.4388L21.0395 16.0978ZM17.7853 10.1438L16.9669 10.7184L17.4501 11.4067L18.211 11.0487L17.7853 10.1438ZM14.8327 3.40057C14.8327 4.0854 14.5482 4.70149 14.0893 5.13976L15.4705 6.58618C16.3088 5.78569 16.8327 4.65338 16.8327 3.40057H14.8327ZM12.44 1C13.7593 1 14.8327 2.07258 14.8327 3.40057H16.8327C16.8327 0.972395 14.8682 -1 12.44 -1V1ZM10.0474 3.40057C10.0474 2.07258 11.1208 1 12.44 1V-1C10.0118 -1 8.04736 0.972395 8.04736 3.40057H10.0474ZM10.8348 5.18078C10.3501 4.74042 10.0474 4.10689 10.0474 3.40057H8.04736C8.04736 4.69316 8.60498 5.85714 9.49002 6.66114L10.8348 5.18078ZM8.12062 10.7965L10.9951 6.47477L9.32979 5.36716L6.45533 9.68888L8.12062 10.7965ZM5.65439 10.8232C6.07334 10.8232 6.46442 10.9304 6.80491 11.1183L7.77104 9.3671C7.14237 9.02026 6.41989 8.82324 5.65439 8.82324V10.8232ZM3.26172 13.2238C3.26172 11.8958 4.33514 10.8232 5.65439 10.8232V8.82324C3.22619 8.82324 1.26172 10.7956 1.26172 13.2238H3.26172ZM4.52173 15.3391C3.77017 14.9328 3.26172 14.1377 3.26172 13.2238H1.26172C1.26172 14.8996 2.19724 16.356 3.5706 17.0985L4.52173 15.3391ZM3.55997 20.0564L4.97202 16.5967L3.12031 15.8409L1.70826 19.3006L3.55997 20.0564ZM2.26178 20.6479C2.33351 20.6479 2.40312 20.6539 2.47034 20.665L2.79788 18.692C2.62284 18.663 2.44369 18.6479 2.26178 18.6479V20.6479ZM1 21.915C1 21.213 1.56711 20.6479 2.26178 20.6479V18.6479C0.458158 18.6479 -1 20.1128 -1 21.915H1ZM2.26178 23.182C1.56711 23.182 1 22.617 1 21.915H-1C-1 23.7171 0.458158 25.182 2.26178 25.182V23.182ZM3.52356 21.915C3.52356 22.617 2.95645 23.182 2.26178 23.182V25.182C4.0654 25.182 5.52356 23.7171 5.52356 21.915H3.52356ZM2.9841 20.8759C3.31179 21.1063 3.52356 21.4855 3.52356 21.915H5.52356C5.52356 20.8082 4.97305 19.8296 4.13461 19.2399L2.9841 20.8759ZM4.06166 16.1808L2.6335 19.68L4.48521 20.4358L5.91337 16.9366L4.06166 16.1808ZM5.65439 15.6244C5.49228 15.6244 5.33491 15.6083 5.18343 15.5781L4.79161 17.5393C5.07138 17.5952 5.35998 17.6244 5.65439 17.6244V15.6244ZM6.12535 15.5781C5.97387 15.6083 5.8165 15.6244 5.65439 15.6244V17.6244C5.94879 17.6244 6.2374 17.5952 6.51717 17.5393L6.12535 15.5781ZM8.67526 19.68L7.24712 16.1808L5.3954 16.9366L6.82355 20.4357L8.67526 19.68ZM7.78516 21.915C7.78516 21.4855 7.99693 21.1063 8.32464 20.8758L7.17417 19.2399C6.3357 19.8295 5.78516 20.8082 5.78516 21.915H7.78516ZM9.04694 23.182C8.35226 23.182 7.78516 22.617 7.78516 21.915H5.78516C5.78516 23.7171 7.24331 25.182 9.04694 25.182V23.182ZM10.3087 21.915C10.3087 22.617 9.74161 23.182 9.04694 23.182V25.182C10.8506 25.182 12.3087 23.7171 12.3087 21.915H10.3087ZM9.04694 20.6479C9.74161 20.6479 10.3087 21.213 10.3087 21.915H12.3087C12.3087 20.1128 10.8506 18.6479 9.04694 18.6479V20.6479ZM8.83841 20.665C8.90562 20.6539 8.97522 20.6479 9.04694 20.6479V18.6479C8.86506 18.6479 8.68593 18.663 8.51091 18.692L8.83841 20.665ZM6.33676 16.5967L7.74881 20.0564L9.60052 19.3006L8.18847 15.8409L6.33676 16.5967ZM8.04706 13.2238C8.04706 14.1377 7.53861 14.9328 6.78705 15.3391L7.73817 17.0985C9.11154 16.356 10.0471 14.8996 10.0471 13.2238H8.04706ZM7.36745 11.5479C7.78874 11.9812 8.04706 12.5711 8.04706 13.2238H10.0471C10.0471 12.0304 9.5715 10.9459 8.80151 10.1538L7.36745 11.5479ZM10.1607 5.92356L7.25183 10.297L8.91712 11.4046L11.826 7.03117L10.1607 5.92356ZM12.44 5.80114C12.0736 5.80114 11.7291 5.7192 11.4211 5.57346L10.5656 7.38127C11.1353 7.65084 11.7715 7.80114 12.44 7.80114V5.80114ZM13.5128 5.54717C13.1912 5.70939 12.8277 5.80114 12.44 5.80114V7.80114C13.1478 7.80114 13.8191 7.6327 14.4136 7.33283L13.5128 5.54717ZM17.7714 10.1239L14.7816 5.8654L13.1447 7.0146L16.1345 11.2731L17.7714 10.1239ZM16.8325 13.2238C16.8325 12.5157 17.1368 11.8806 17.6238 11.4402L16.2821 9.95694C15.3931 10.7612 14.8325 11.9278 14.8325 13.2238H16.8325ZM18.2356 15.4104C17.4069 15.032 16.8325 14.1948 16.8325 13.2238H14.8325C14.8325 15.0044 15.8884 16.5372 17.4049 17.2297L18.2356 15.4104ZM17.2008 20.1073L18.731 16.733L16.9095 15.907L15.3793 19.2813L17.2008 20.1073ZM15.8326 20.6479C15.9212 20.6479 16.0066 20.657 16.0884 20.6738L16.4917 18.7149C16.278 18.6709 16.0574 18.6479 15.8326 18.6479V20.6479ZM14.5708 21.915C14.5708 21.213 15.1379 20.6479 15.8326 20.6479V18.6479C14.029 18.6479 12.5708 20.1128 12.5708 21.915H14.5708ZM15.8326 23.182C15.1379 23.182 14.5708 22.617 14.5708 21.915H12.5708C12.5708 23.7171 14.029 25.182 15.8326 25.182V23.182ZM17.0944 21.915C17.0944 22.617 16.5273 23.182 15.8326 23.182V25.182C17.6362 25.182 19.0944 23.7171 19.0944 21.915H17.0944ZM16.594 20.9045C16.8994 21.1372 17.0944 21.5027 17.0944 21.915H19.0944C19.0944 20.8532 18.5875 19.909 17.806 19.3136L16.594 20.9045ZM17.8819 16.184L16.2893 19.696L18.1107 20.522L19.7034 17.01L17.8819 16.184ZM19.2252 15.6244C19.1211 15.6244 19.019 15.6178 18.9192 15.605L18.6661 17.589C18.8496 17.6124 19.0363 17.6244 19.2252 17.6244V15.6244ZM19.8585 15.5396C19.6579 15.5947 19.4458 15.6244 19.2252 15.6244V17.6244C19.6263 17.6244 20.0163 17.5703 20.3877 17.4684L19.8585 15.5396ZM22.3343 19.6669L21.0632 16.163L19.1831 16.845L20.4543 20.349L22.3343 19.6669ZM21.356 21.915C21.356 21.4677 21.5859 21.0746 21.9368 20.8479L20.8518 19.1679C19.9534 19.7481 19.356 20.7618 19.356 21.915H21.356ZM22.6177 23.182C21.9231 23.182 21.356 22.617 21.356 21.915H19.356C19.356 23.7171 20.8141 25.182 22.6177 25.182V23.182ZM23.8795 21.915C23.8795 22.617 23.3124 23.182 22.6177 23.182V25.182C24.4214 25.182 25.8795 23.7171 25.8795 21.915H23.8795ZM22.6177 20.6479C23.3124 20.6479 23.8795 21.213 23.8795 21.915H25.8795C25.8795 20.1128 24.4214 18.6479 22.6177 18.6479V20.6479ZM22.4584 20.6578C22.5102 20.6513 22.5633 20.6479 22.6177 20.6479V18.6479C22.4799 18.6479 22.3436 18.6566 22.2094 18.6734L22.4584 20.6578ZM20.0995 16.4388L21.3939 20.0067L23.2739 19.3246L21.9796 15.7567L20.0995 16.4388ZM21.6179 13.2238C21.6179 14.0774 21.1746 14.827 20.5031 15.2538L21.5759 16.9417C22.8017 16.1627 23.6179 14.7886 23.6179 13.2238H21.6179ZM19.2252 10.8232C20.5444 10.8232 21.6179 11.8958 21.6179 13.2238H23.6179C23.6179 10.7956 21.6534 8.82324 19.2252 8.82324V10.8232ZM18.211 11.0487C18.5178 10.9043 18.8607 10.8232 19.2252 10.8232V8.82324C18.5601 8.82324 17.927 8.97198 17.3596 9.23894L18.211 11.0487ZM13.9615 6.43757L16.9669 10.7184L18.6038 9.5692L15.5983 5.28837L13.9615 6.43757Z" fill="#6C67AB" mask="url(#path-1-inside-1)"/>
</svg>
