<svg width="25" height="25" viewBox="0 0 25 25" fill="none" xmlns="http://www.w3.org/2000/svg">
<path d="M9.08192 21.0582L9.03097 20.76L8.74316 20.6668C8.08754 20.4544 7.61523 19.8463 7.61523 19.1289V18.9204H16.5105V19.1289C16.5105 19.8463 16.0382 20.4544 15.3826 20.6668L15.0947 20.76L15.0438 21.0582C14.7952 22.5132 13.5379 23.6825 12.0629 23.6825C10.5879 23.6825 9.3305 22.5132 9.08192 21.0582Z" stroke="#6C67AB"/>
<path d="M10.3447 0.680252L10.3439 0.680424C7.3482 1.30734 4.90142 3.75128 4.26585 6.75422L10.3447 0.680252ZM10.3447 0.680252C15.4053 -0.387601 20.0917 3.42945 20.0917 8.50145C20.0917 10.4319 19.3481 12.3035 18.0686 13.7658L18.0685 13.7659C17.3567 14.58 16.8836 15.5232 16.6648 16.5029H7.46609C7.25388 15.5249 6.79348 14.5958 6.09657 13.8097L6.09642 13.8095M10.3447 0.680252L6.09642 13.8095M6.09642 13.8095C4.39279 11.8898 3.723 9.32211 4.26582 6.75432L6.09642 13.8095Z" stroke="#6C67AB"/>
<path d="M2.12041 8.50195H0.706803C0.316129 8.50195 0 8.81882 0 9.2104C0 9.60198 0.316129 9.91885 0.706803 9.91885H2.12041C2.51108 9.91885 2.82721 9.60198 2.82721 9.2104C2.82721 8.81882 2.51108 8.50195 2.12041 8.50195Z" fill="#6C67AB"/>
<path d="M2.41302 4.9601L1.41356 3.95831C1.13743 3.68154 0.690166 3.68154 0.414089 3.95831C0.138012 4.23503 0.138012 4.68338 0.414089 4.9601L1.41356 5.96189C1.68963 6.23861 2.13695 6.23861 2.41302 5.96189C2.6891 5.68517 2.6891 5.23682 2.41302 4.9601Z" fill="#6C67AB"/>
<path d="M2.41302 12.459C2.13695 12.1823 1.68963 12.1823 1.41356 12.459L0.414089 13.4608C0.138012 13.7375 0.138012 14.1859 0.414089 14.4626C0.690166 14.7393 1.13748 14.7393 1.41356 14.4626L2.41302 13.4608C2.6891 13.1841 2.6891 12.7357 2.41302 12.459Z" fill="#6C67AB"/>
<path d="M23.4187 8.50195H22.0051C21.6145 8.50195 21.2983 8.81882 21.2983 9.2104C21.2983 9.60198 21.6145 9.91885 22.0051 9.91885H23.4187C23.8094 9.91885 24.1256 9.60198 24.1256 9.2104C24.1256 8.81882 23.8094 8.50195 23.4187 8.50195Z" fill="#6C67AB"/>
<path d="M23.7109 3.95827C23.4348 3.68155 22.9875 3.68155 22.7114 3.95827L21.7119 4.96007C21.4359 5.23679 21.4359 5.68514 21.7119 5.96186C21.988 6.23858 22.4353 6.23858 22.7114 5.96186L23.7109 4.96007C23.987 4.68335 23.987 4.23499 23.7109 3.95827Z" fill="#6C67AB"/>
<path d="M23.7109 13.4608L22.7114 12.459C22.4353 12.1823 21.988 12.1823 21.7119 12.459C21.4359 12.7357 21.4359 13.1841 21.7119 13.4608L22.7114 14.4626C22.9875 14.7393 23.4348 14.7393 23.7109 14.4626C23.987 14.1859 23.987 13.7375 23.7109 13.4608Z" fill="#6C67AB"/>
</svg>
