<svg width="26" height="22" viewBox="0 0 26 22" fill="none" xmlns="http://www.w3.org/2000/svg">
<path d="M22.3182 7.22756L22.4639 7.46964H22.7465H23.0366C23.9396 7.46964 24.6309 8.16234 24.6309 8.96086V19.9126C24.6309 20.7112 23.9396 21.4038 23.0365 21.4038H5.23573C4.33274 21.4038 3.64137 20.7111 3.64137 19.9126V16.1908V16.0519L3.56968 15.9329L1.39733 12.3262L1.39731 12.3261L0.982959 11.6383L0.982785 11.6379L0.964247 11.6071L0.705183 11.1769L0.705169 11.1769C0.28585 10.4806 0.52706 9.57378 1.27979 9.15722L1.27982 9.1572L16.5489 0.705685C16.549 0.705678 16.549 0.705671 16.549 0.705665C16.6612 0.643548 16.7793 0.595235 16.901 0.56109C16.7944 0.593069 16.6909 0.636566 16.5921 0.691217L16.5921 0.691235L6.03938 6.53218L4.34569 7.46964H6.28151H8.34848H8.47763L8.59063 7.40709L18.4841 1.93063L18.9348 1.68116L18.672 1.23811L18.6709 1.23628L18.6691 1.23329C18.4763 0.913275 18.1754 0.68057 17.8207 0.568816C18.2079 0.682899 18.5235 0.926225 18.7217 1.25473L22.3182 7.22756ZM2.71311 14.4441L3.64147 15.9861V14.1862V13.3007V12.4524L2.89932 12.8632L2.49944 13.0846L2.04578 13.3357L2.31323 13.7799L2.71311 14.4441ZM3.3836 10.2895L3.64147 10.1468V9.85208V8.96088C3.64147 8.92345 3.64631 8.8906 3.65685 8.81909C3.65927 8.80266 3.66199 8.7842 3.66502 8.76318L3.80865 7.76694L2.92801 8.25437L1.32301 9.14272L1.32283 9.14282C0.590586 9.5485 0.32357 10.4659 0.755491 11.1909L1.00339 11.607L1.42717 11.3724L3.3836 10.2895ZM20.2276 3.82159L19.9789 3.40856L19.5571 3.64205L14.3361 6.53219L12.6426 7.46964H14.5783H21.5395H22.4242L21.9678 6.71172L20.2276 3.82159ZM12.0423 16.4302C12.5838 16.4302 13.0659 16.0071 13.0659 15.4324C13.0659 14.8576 12.5838 14.4346 12.0423 14.4346H6.80651C6.26504 14.4346 5.78294 14.8576 5.78294 15.4324C5.78294 16.0071 6.26504 16.4302 6.80651 16.4302H12.0423ZM6.80651 19.417H14.1366C14.6781 19.417 15.1602 18.9939 15.1602 18.4192C15.1602 17.8444 14.6781 17.4213 14.1366 17.4213H6.80651C6.26504 17.4213 5.78294 17.8444 5.78294 18.4192C5.78294 18.9939 6.26504 19.417 6.80651 19.417ZM17.8671 19.417H17.8712H17.8753H17.8794H17.8835H17.8876H17.8917H17.8958H17.8999H17.9039H17.908H17.9121H17.9162H17.9203H17.9243H17.9284H17.9325H17.9365H17.9406H17.9446H17.9487H17.9527H17.9568H17.9608H17.9648H17.9689H17.9729H17.9769H17.981H17.985H17.989H17.993H17.9971H18.0011H18.0051H18.0091H18.0131H18.0171H18.0211H18.0251H18.0291H18.0331H18.0371H18.041H18.045H18.049H18.053H18.057H18.0609H18.0649H18.0689H18.0728H18.0768H18.0807H18.0847H18.0887H18.0926H18.0966H18.1005H18.1045H18.1084H18.1123H18.1163H18.1202H18.1241H18.1281H18.132H18.1359H18.1398H18.1438H18.1477H18.1516H18.1555H18.1594H18.1633H18.1672H18.1711H18.175H18.1789H18.1828H18.1867H18.1906H18.1945H18.1984H18.2023H18.2061H18.21H18.2139H18.2178H18.2217H18.2255H18.2294H18.2333H18.2371H18.241H18.2449H18.2487H18.2526H18.2564H18.2603H18.2641H18.268H18.2718H18.2757H18.2795H18.2834H18.2872H18.291H18.2949H18.2987H18.3025H18.3064H18.3102H18.314H18.3179H18.3217H18.3255H18.3293H18.3331H18.337H18.3408H18.3446H18.3484H18.3522H18.356H18.3598H18.3636H18.3674H18.3712H18.375H18.3788H18.3826H18.3864H18.3902H18.394H18.3978H18.4016H18.4054H18.4091H18.4129H18.4167H18.4205H18.4243H18.4281H18.4318H18.4356H18.4394H18.4431H18.4469H18.4507H18.4545H18.4582H18.462H18.4658H18.4695H18.4733H18.477H18.4808H18.4846H18.4883H18.4921H18.4958H18.4996H18.5033H18.5071H18.5108H18.5146H18.5183H18.5221H18.5258H18.5296H18.5333H18.537H18.5408H18.5445H18.5483H18.552H18.5557H18.5595H18.5632H18.5669H18.5707H18.5744H18.5781H18.5819H18.5856H18.5893H18.593H18.5968H18.6005H18.6042H18.6079H18.6117H18.6154H18.6191H18.6228H18.6266H18.6303H18.634H18.6377H18.6414H18.6451H18.6489H18.6526H18.6563H18.66H18.6637H18.6674H18.6711H18.6748H18.6786H18.6823H18.686H18.6897H18.6934H18.6971H18.7008H18.7045H18.7082H18.7119H18.7156H18.7193H18.723H18.7267H18.7304H18.7341H18.7378H18.7415H18.7452H18.749H18.7527H18.7564H18.7601H18.7638H18.7675H18.7712H18.7749H18.7785H18.7822H18.7859H18.7896H18.7933H18.797H18.8007H18.8044H18.8081H18.8118H18.8155H18.8192H18.8229H18.8266H18.8303H18.834H18.8377H18.8414H18.8451H18.8488H18.8525H18.8562H18.8599H18.8636H18.8673H18.871H18.8747H18.8784H18.8821H18.8858H18.8895H18.8932H18.8969H18.9006H18.9042H18.9079H18.9116H18.9153H18.919H18.9227H18.9264H18.9301H18.9338H18.9375H18.9412H18.9449H18.9486H18.9523H18.956H18.9597H18.9634H18.9671H18.9709H18.9746H18.9783H18.982H18.9857H18.9894H18.9931H18.9968H19.0005H19.0042H19.0079H19.0116H19.0153H19.019H19.0227H19.0265H19.0302H19.0339H19.0376H19.0413H19.045H19.0487H19.0525H19.0562H19.0599H19.0636H19.0673H19.071H19.0748H19.0785H19.0822H19.0859H19.0896H19.0934H19.0971H19.1008H19.1045H19.1083H19.112H19.1157H19.1195H19.1232H19.1269H19.1307H19.1344H19.1381H19.1419H19.1456H19.1493H19.1531H19.1568H19.1605H19.1643H19.168H19.1718H19.1755H19.1793H19.183H19.1868H19.1905H19.1943H19.198H19.2018H19.2055H19.2093H19.213H19.2168H19.2206H19.2243H19.2281H19.2318H19.2356H19.2394H19.2431H19.2469H19.2507H19.2544H19.2582H19.262H19.2658H19.2695H19.2733H19.2771H19.2809H19.2847H19.2884H19.2922H19.296H19.2998H19.3036H19.3074H19.3112H19.315H19.3188H19.3226H19.3264H19.3302H19.334H19.3378H19.3416H19.3454H19.3492H19.353H19.3568H19.3606H19.3645H19.3683H19.3721H19.3759H19.3797H19.3836H19.3874H19.3912H19.395H19.3989H19.4027H19.4065H19.4104H19.4142H19.4181H19.4219H19.4258H19.4296H19.4335H19.4373H19.4412H19.445H19.4489H19.4527H19.4566H19.4605H19.4643H19.4682H19.4721H19.4759H19.4798H19.4837H19.4876H19.4914H19.4953H19.4992H19.5031H19.507H19.5109H19.5148H19.5187H19.5226H19.5265H19.5304H19.5343H19.5382H19.5421H19.546H19.5499H19.5538H19.5578H19.5617H19.5656H19.5695H19.5735H19.5774H19.5813H19.5853H19.5892H19.5931H19.5971H19.601H19.605H19.6089H19.6129H19.6168H19.6208H19.6248H19.6287H19.6327H19.6367H19.6406H19.6446H19.6486H19.6526H19.6565H19.6605H19.6645H19.6685H19.6725H19.6765H19.6805H19.6845H19.6885H19.6925H19.6965H19.7005H19.7046H19.7086H19.7126H19.7166H19.7206H19.7247H19.7287H19.7327H19.7368H19.7408H19.7449H19.7489H19.753H19.757H19.7611H19.7651H19.7692H19.7733H19.7773H19.7814H19.7855H19.7896H19.7936H19.7977H19.8018H19.8059H19.81H19.8141H19.8182H19.8223H19.8264H19.8305C21.2584 19.417 22.4903 18.3376 22.4903 16.9257C22.4903 15.5139 21.2584 14.4345 19.8305 14.4345H19.8264H19.8223H19.8182H19.8141H19.81H19.8059H19.8018H19.7977H19.7936H19.7896H19.7855H19.7814H19.7773H19.7733H19.7692H19.7651H19.7611H19.757H19.753H19.7489H19.7449H19.7408H19.7368H19.7327H19.7287H19.7247H19.7206H19.7166H19.7126H19.7086H19.7046H19.7005H19.6965H19.6925H19.6885H19.6845H19.6805H19.6765H19.6725H19.6685H19.6645H19.6605H19.6565H19.6526H19.6486H19.6446H19.6406H19.6367H19.6327H19.6287H19.6248H19.6208H19.6168H19.6129H19.6089H19.605H19.601H19.5971H19.5931H19.5892H19.5853H19.5813H19.5774H19.5735H19.5695H19.5656H19.5617H19.5578H19.5538H19.5499H19.546H19.5421H19.5382H19.5343H19.5304H19.5265H19.5226H19.5187H19.5148H19.5109H19.507H19.5031H19.4992H19.4953H19.4914H19.4876H19.4837H19.4798H19.4759H19.4721H19.4682H19.4643H19.4605H19.4566H19.4527H19.4489H19.445H19.4412H19.4373H19.4335H19.4296H19.4258H19.4219H19.4181H19.4142H19.4104H19.4065H19.4027H19.3989H19.395H19.3912H19.3874H19.3836H19.3797H19.3759H19.3721H19.3683H19.3645H19.3606H19.3568H19.353H19.3492H19.3454H19.3416H19.3378H19.334H19.3302H19.3264H19.3226H19.3188H19.315H19.3112H19.3074H19.3036H19.2998H19.296H19.2922H19.2884H19.2847H19.2809H19.2771H19.2733H19.2695H19.2658H19.262H19.2582H19.2544H19.2507H19.2469H19.2431H19.2394H19.2356H19.2318H19.2281H19.2243H19.2205H19.2168H19.213H19.2093H19.2055H19.2018H19.198H19.1943H19.1905H19.1868H19.183H19.1793H19.1755H19.1718H19.168H19.1643H19.1605H19.1568H19.1531H19.1493H19.1456H19.1419H19.1381H19.1344H19.1306H19.1269H19.1232H19.1195H19.1157H19.112H19.1083H19.1045H19.1008H19.0971H19.0934H19.0896H19.0859H19.0822H19.0785H19.0748H19.071H19.0673H19.0636H19.0599H19.0562H19.0524H19.0487H19.045H19.0413H19.0376H19.0339H19.0302H19.0265H19.0227H19.019H19.0153H19.0116H19.0079H19.0042H19.0005H18.9968H18.9931H18.9894H18.9857H18.982H18.9783H18.9746H18.9709H18.9671H18.9634H18.9597H18.956H18.9523H18.9486H18.9449H18.9412H18.9375H18.9338H18.9301H18.9264H18.9227H18.919H18.9153H18.9116H18.9079H18.9042H18.9006H18.8969H18.8932H18.8895H18.8858H18.8821H18.8784H18.8747H18.871H18.8673H18.8636H18.8599H18.8562H18.8525H18.8488H18.8451H18.8414H18.8377H18.834H18.8303H18.8266H18.8229H18.8192H18.8155H18.8118H18.8081H18.8044H18.8007H18.797H18.7933H18.7896H18.7859H18.7822H18.7785H18.7748H18.7712H18.7675H18.7638H18.7601H18.7564H18.7527H18.749H18.7452H18.7415H18.7378H18.7341H18.7304H18.7267H18.723H18.7193H18.7156H18.7119H18.7082H18.7045H18.7008H18.6971H18.6934H18.6897H18.686H18.6823H18.6786H18.6748H18.6711H18.6674H18.6637H18.66H18.6563H18.6526H18.6489H18.6451H18.6414H18.6377H18.634H18.6303H18.6266H18.6228H18.6191H18.6154H18.6117H18.6079H18.6042H18.6005H18.5968H18.593H18.5893H18.5856H18.5819H18.5781H18.5744H18.5707H18.5669H18.5632H18.5595H18.5557H18.552H18.5483H18.5445H18.5408H18.537H18.5333H18.5296H18.5258H18.5221H18.5183H18.5146H18.5108H18.5071H18.5033H18.4996H18.4958H18.4921H18.4883H18.4846H18.4808H18.477H18.4733H18.4695H18.4658H18.462H18.4582H18.4545H18.4507H18.4469H18.4431H18.4394H18.4356H18.4318H18.4281H18.4243H18.4205H18.4167H18.4129H18.4091H18.4054H18.4016H18.3978H18.394H18.3902H18.3864H18.3826H18.3788H18.375H18.3712H18.3674H18.3636H18.3598H18.356H18.3522H18.3484H18.3446H18.3408H18.337H18.3331H18.3293H18.3255H18.3217H18.3179H18.314H18.3102H18.3064H18.3025H18.2987H18.2949H18.291H18.2872H18.2834H18.2795H18.2757H18.2718H18.268H18.2641H18.2603H18.2564H18.2526H18.2487H18.2449H18.241H18.2371H18.2333H18.2294H18.2255H18.2217H18.2178H18.2139H18.21H18.2061H18.2023H18.1984H18.1945H18.1906H18.1867H18.1828H18.1789H18.175H18.1711H18.1672H18.1633H18.1594H18.1555H18.1516H18.1477H18.1438H18.1398H18.1359H18.132H18.1281H18.1241H18.1202H18.1163H18.1123H18.1084H18.1045H18.1005H18.0966H18.0926H18.0887H18.0847H18.0807H18.0768H18.0728H18.0689H18.0649H18.0609H18.057H18.053H18.049H18.045H18.041H18.0371H18.0331H18.0291H18.0251H18.0211H18.0171H18.0131H18.0091H18.0051H18.0011H17.9971H17.993H17.989H17.985H17.981H17.9769H17.9729H17.9689H17.9648H17.9608H17.9568H17.9527H17.9487H17.9446H17.9406H17.9365H17.9325H17.9284H17.9243H17.9203H17.9162H17.9121H17.908H17.9039H17.8999H17.8958H17.8917H17.8876H17.8835H17.8794H17.8753H17.8712H17.8671C16.4392 14.4345 15.2073 15.5139 15.2073 16.9257C15.2073 18.3376 16.4392 19.417 17.8671 19.417Z" stroke="#6C67AB"/>
</svg>
