<svg width="24" height="24" viewBox="0 0 24 24" fill="none" xmlns="http://www.w3.org/2000/svg">
<path fill-rule="evenodd" clip-rule="evenodd" d="M19.7992 10.5615L19.6248 9.92066C19.4477 9.26995 19.1896 8.65302 18.8615 8.08032L18.5311 7.50367L20.4936 4.93745L19.0629 3.50683L16.4967 5.46928L15.9201 5.13892C15.3474 4.81083 14.7304 4.55271 14.0797 4.37561L13.4389 4.20121L13.012 1H10.9883L10.5615 4.20082L9.92066 4.37523C9.26995 4.55232 8.65302 4.81044 8.08032 5.13854L7.50367 5.46889L4.93745 3.50644L3.50683 4.93706L5.46928 7.50328L5.13892 8.07993C4.81083 8.65264 4.55271 9.26957 4.37561 9.92028L4.20121 10.5611L1 10.988V13.0117L4.20082 13.4385L4.37523 14.0793C4.55232 14.73 4.81044 15.347 5.13854 15.9197L5.46889 16.4963L3.50644 19.0625L4.93723 20.4933L7.50367 18.5307L8.08032 18.8611C8.65302 19.1892 9.26995 19.4473 9.92066 19.6244L10.5615 19.7988L10.9884 23H13.0117L13.4385 19.7992L14.0793 19.6248C14.73 19.4477 15.347 19.1896 15.9197 18.8615L16.4963 18.5311L19.0628 20.4937L20.4936 19.0629L18.5311 16.4967L18.8615 15.9201C19.1896 15.3474 19.4477 14.7304 19.6248 14.0797L19.7992 13.4389L23 13.0121V10.9883L19.7992 10.5615ZM23.664 13.9324L20.5897 14.3423C20.3899 15.0763 20.0988 15.7719 19.7292 16.4172L21.6139 18.8818C21.732 19.0359 21.7173 19.2534 21.5803 19.3905L19.3905 21.5803C19.3154 21.6554 19.2163 21.6937 19.1164 21.6937C19.0339 21.6937 18.9511 21.6677 18.8814 21.6139L16.4168 19.7292C15.7715 20.0988 15.0759 20.3899 14.3419 20.5897L13.932 23.664C13.9065 23.8564 13.7423 24 13.5484 24H10.4516C10.2577 24 10.0935 23.8564 10.068 23.6636L9.65806 20.5893C8.92413 20.3895 8.22852 20.0985 7.58323 19.7288L5.11858 21.6135C5.0489 21.6674 4.96606 21.6933 4.88361 21.6933C4.78374 21.6933 4.68465 21.655 4.60955 21.5799L2.41974 19.3901C2.28271 19.253 2.26839 19.0355 2.38606 18.8814L4.27084 16.4168C3.90116 15.7715 3.61006 15.0759 3.41032 14.3419L0.336 13.932C0.143613 13.9065 0 13.7423 0 13.5484V10.4516C0 10.2577 0.143613 10.0935 0.336387 10.0676L3.41071 9.65768C3.61045 8.92374 3.90155 8.22813 4.27123 7.58284L2.38645 5.11819C2.26839 4.96413 2.2831 4.74658 2.42013 4.60955L4.60994 2.41974C4.74697 2.28232 4.96452 2.26761 5.11858 2.38606L7.58323 4.27084C8.22852 3.90116 8.92413 3.61006 9.65806 3.41032L10.068 0.336C10.0935 0.143613 10.2577 0 10.4516 0H13.5484C13.7423 0 13.9065 0.143613 13.9324 0.336387L14.3423 3.41071C15.0763 3.61045 15.7719 3.90155 16.4172 4.27123L18.8818 2.38645C19.0359 2.26761 19.253 2.28271 19.3905 2.42013L21.5803 4.60994C21.7173 4.74697 21.7316 4.96452 21.6139 5.11858L19.7292 7.58323C20.0988 8.22852 20.3899 8.92413 20.5897 9.65806L23.664 10.068C23.8564 10.0935 24 10.2577 24 10.4516V13.5484C24 13.7423 23.8564 13.9065 23.664 13.9324ZM19.4926 20.8224L19.4889 20.8196C19.4901 20.8205 19.4914 20.8215 19.4926 20.8224ZM4.50738 20.8221C4.50863 20.8211 4.50987 20.8201 4.51112 20.8192L4.50738 20.8221ZM19.4926 3.17826C19.4915 3.17911 19.4904 3.17996 19.4893 3.1808L19.4926 3.17826ZM12 16.4839C9.52346 16.4839 7.51613 14.4765 7.51613 12C7.51613 9.52346 9.52346 7.51613 12 7.51613C14.4765 7.51613 16.4839 9.52346 16.4839 12C16.4839 14.4765 14.4765 16.4839 12 16.4839ZM8.51613 12C8.51613 13.9243 10.0757 15.4839 12 15.4839C13.9243 15.4839 15.4839 13.9243 15.4839 12C15.4839 10.0757 13.9243 8.51613 12 8.51613C10.0757 8.51613 8.51613 10.0757 8.51613 12Z" fill="#6C67AB"/>
</svg>
