<svg width="35" height="24" viewBox="0 0 35 24" fill="none" xmlns="http://www.w3.org/2000/svg">
<path d="M31.2125 18.1631V18.3437L31.3279 18.4827L34.4366 22.2243C34.353 22.9421 33.7431 23.5 33.0064 23.5H20.7384C20.8297 23.3682 20.8838 23.2096 20.888 23.0418L20.8881 23.0419V23.0294C20.8881 22.8531 20.8331 22.6905 20.7397 22.5571H22.8088H23.8746L23.1933 21.7375L22.2057 20.5494L22.0558 20.369H21.8212H13.1256H12.891L12.7411 20.5494L11.7535 21.7375L11.0722 22.5571H12.138H14.2109C14.1177 22.6909 14.0632 22.8537 14.0632 23.0294C14.0632 23.2044 14.1172 23.3666 14.2097 23.5H1.94001C1.20316 23.5 0.59334 22.9424 0.509764 22.2244L3.61887 18.4827L3.73431 18.3438V18.1631V16.8662V9.08157V1.2969C3.73431 0.858448 4.0944 0.5 4.53106 0.5H30.417C30.8526 0.5 31.2125 0.859881 31.2125 1.2969V9.08157V16.8662V18.1631ZM28.7611 17.5013C29.6577 17.5013 30.3896 16.7705 30.3896 15.8689V2.29707C30.3896 1.39978 29.6586 0.664746 28.7611 0.664746H6.18527C5.2887 0.664746 4.5568 1.39556 4.5568 2.29707V15.8689C4.5568 16.7646 5.2874 17.5013 6.18527 17.5013H28.7611Z" stroke="#6C67AB"/>
<path d="M22.3925 12.321C22.1694 12.1918 21.9632 12.0392 21.7719 11.8655C21.5525 11.6669 21.3678 11.4352 21.22 11.1859C21.1221 11.0227 21.0236 10.8413 20.9467 10.646C20.8817 10.481 20.8372 10.3015 20.8031 10.164C20.7963 10.1367 20.7899 10.111 20.7838 10.0874L20.783 10.0839L20.783 10.0839C20.746 9.93509 20.7199 9.78111 20.7105 9.61934L20.7099 9.60875L20.71 9.60875C20.6992 9.3184 20.7017 8.99325 20.7816 8.65552L20.7824 8.65217C20.8415 8.40996 20.9195 8.1594 21.0405 7.91299L21.0417 7.91053C21.2569 7.47798 21.5483 7.11568 21.9126 6.82348C21.7695 6.69473 21.6128 6.58119 21.444 6.48291C21.2801 6.38764 21.1024 6.30423 20.9148 6.22497L20.9128 6.22413C20.8427 6.19417 20.7564 6.17139 20.6387 6.14628L20.6308 6.14461L20.6308 6.14455C20.5728 6.13121 20.518 6.1248 20.4392 6.11558C20.407 6.11182 20.3708 6.10758 20.3288 6.10222C20.1029 6.07561 19.8627 6.10503 19.5779 6.16008L19.5721 6.16119L19.5721 6.16115C19.488 6.1764 19.4112 6.20138 19.2974 6.23838C19.2715 6.24681 19.2437 6.25586 19.2134 6.26556L19.2003 6.26976L19.2003 6.26958C19.1397 6.28718 19.0927 6.30495 19.0316 6.32806C18.992 6.34302 18.9466 6.36021 18.8877 6.38104L18.883 6.38272L18.883 6.3827C18.8568 6.39167 18.8329 6.40106 18.7988 6.41447C18.7856 6.41966 18.7708 6.42545 18.7538 6.43206C18.7023 6.45209 18.632 6.4786 18.5547 6.49921C18.3961 6.54359 18.2291 6.58564 18.0609 6.61957C17.6645 6.70444 17.2942 6.62797 17.0165 6.55985C16.9083 6.53341 16.784 6.49086 16.6942 6.46013C16.6624 6.44922 16.6349 6.4398 16.614 6.43312L16.6114 6.4323L16.6114 6.4323C16.5341 6.40712 16.4587 6.38111 16.3872 6.35641L16.3742 6.35191C16.3067 6.32857 16.2428 6.30646 16.178 6.28503C16.1777 6.28492 16.1773 6.28481 16.177 6.2847L16.3338 5.80994C16.3006 5.79912 16.2673 5.78767 16.234 5.77619C16.1409 5.74415 16.0473 5.7119 15.9514 5.69256C15.8531 5.67165 15.7523 5.65517 15.6511 5.63862C15.5953 5.62951 15.5395 5.62038 15.4838 5.61048L22.3925 12.321ZM22.3925 12.321C22.2888 12.534 22.1893 12.7361 22.0764 12.9377C21.9342 13.1908 21.7689 13.4363 21.5881 13.6873L21.5872 13.6885C21.411 13.9346 21.2285 14.1715 21.0356 14.3954C20.8578 14.5996 20.6631 14.7639 20.4446 14.883L20.4426 14.8841C20.2047 15.0152 19.9918 15.0627 19.7619 15.0265C19.6053 15.0012 19.4688 14.944 19.271 14.8612C19.2277 14.8431 19.1815 14.8237 19.1314 14.8032C18.9513 14.7267 18.7588 14.6534 18.558 14.5952C18.1556 14.4757 17.7624 14.4712 17.3949 14.5053L17.3933 14.5054C17.0714 14.5363 16.7548 14.6142 16.4529 14.744C16.3877 14.7713 16.3294 14.7964 16.274 14.8202C16.1871 14.8577 16.1071 14.8921 16.0176 14.9276C15.759 15.0254 15.5496 15.0632 15.3428 15.0278C15.0742 14.9792 14.8381 14.8477 14.5966 14.6377L14.5966 14.6377L14.5918 14.6336C14.3837 14.4572 14.2031 14.2443 14.0143 13.9959L14.0139 13.9953C13.7369 13.6321 13.4901 13.2484 13.2792 12.8497C13.1598 12.6213 13.0536 12.3823 12.9468 12.1307L12.9465 12.1299C12.872 11.9551 12.8034 11.7711 12.7411 11.5838L12.7409 11.5831C12.6968 11.4511 12.6617 11.3145 12.6216 11.1583C12.6159 11.1362 12.6101 11.1138 12.6042 11.0909L12.6042 11.0909L12.6034 11.0876L12.6013 11.0797C12.569 10.9581 12.5428 10.8593 12.5239 10.7601C12.4954 10.5986 12.4721 10.4386 12.4528 10.2776C12.4344 10.1004 12.4185 9.93179 12.4118 9.76709C12.4062 9.59321 12.4092 9.41197 12.4173 9.22612C12.4245 9.06986 12.4339 8.9275 12.4535 8.79449L12.4535 8.7945L12.4543 8.7882C12.469 8.67898 12.4964 8.56748 12.533 8.42556C12.5774 8.2626 12.6288 8.10116 12.686 7.94111L12.6861 7.94115L12.6894 7.93122C12.7454 7.76328 12.8363 7.60279 12.9625 7.42526L12.9625 7.42528L12.9653 7.42117C13.153 7.15148 13.3638 6.91576 13.6062 6.7245L13.6062 6.72456L13.613 6.719C13.8086 6.55902 13.9966 6.43167 14.1925 6.34905L14.1926 6.34912L14.2004 6.34564C14.2085 6.34208 14.2164 6.33856 14.2243 6.3351C14.385 6.264 14.5013 6.21256 14.6164 6.18259L14.6164 6.18261L14.6208 6.18143C14.9167 6.10153 15.1675 6.06769 15.4016 6.1037L22.3925 12.321ZM13.6163 14.2985C13.8128 14.557 14.0192 14.8037 14.2685 15.015L13.6163 14.2985Z" stroke="#6C67AB"/>
<path d="M18.9615 4.27522L18.9615 4.27519L18.9577 4.28045C18.7934 4.50746 18.5953 4.69541 18.3615 4.84938C18.1907 4.95936 18.018 5.04441 17.8404 5.10239C17.8181 5.1095 17.7959 5.11617 17.7737 5.12239C17.7744 5.11681 17.7751 5.11123 17.7758 5.10566L17.7758 5.10566L17.7762 5.10298C17.7863 5.02435 17.8063 4.93814 17.833 4.84454C17.8898 4.6589 17.9678 4.482 18.0695 4.30522C18.2861 3.93147 18.5685 3.63762 18.9302 3.42316L18.9302 3.42317L18.9329 3.42154C19.0906 3.32675 19.2567 3.24426 19.4307 3.17449C19.4164 3.27966 19.3911 3.38499 19.3567 3.49646C19.2694 3.77843 19.1372 4.03891 18.9615 4.27522ZM19.4401 2.66021C19.4401 2.66016 19.4402 2.66116 19.4403 2.66335L19.4401 2.66021Z" stroke="#6C67AB"/>
</svg>
