<svg width="19" height="24" viewBox="0 0 19 24" fill="none" xmlns="http://www.w3.org/2000/svg">
<mask id="path-1-inside-1" fill="white">
<path fill-rule="evenodd" clip-rule="evenodd" d="M0 4V2.88569C0 1.32905 0.971919 0 2.16667 0H10.8333C12.0281 0 13 1.32905 13 2.88569V4C12.773 3.89455 12.5322 3.82667 12.2778 3.82667H0.722222C0.467807 3.82667 0.227019 3.89455 0 4ZM2.16667 24C0.971919 24 0 22.671 0 21.1143V20C0.227019 20.1055 0.467807 20.1733 0.722222 20.1733H12.2778C12.5322 20.1733 12.773 20.1055 13 20V21.1143C13 22.671 12.0281 24 10.8333 24H2.16667ZM17.9999 9.64948L17.2726 8.35044C17.0718 7.99173 16.627 7.86888 16.2791 8.07593L15.4153 8.59019C15.0151 8.23808 14.5577 7.96093 14.052 7.77553V6.74998C14.052 6.33568 13.7264 5.99998 13.3247 5.99998H11.8702C11.4685 5.99998 11.1429 6.33568 11.1429 6.74998V7.77553C10.6372 7.96093 10.1798 8.23804 9.77954 8.59019L8.91582 8.07593C8.56789 7.86883 8.12313 7.99168 7.9223 8.35044L7.19501 9.64948C6.99418 10.0082 7.11331 10.4669 7.46125 10.674L8.31372 11.1816C8.26616 11.4477 8.23372 11.7196 8.23372 12C8.23372 12.2803 8.26611 12.5522 8.31372 12.8184L7.46125 13.3259C7.11331 13.533 6.99418 13.9917 7.19501 14.3504L7.9223 15.6495C8.12313 16.0082 8.56789 16.1311 8.91582 15.924L9.77954 15.4098C10.1797 15.7619 10.6372 16.039 11.1429 16.2244V17.25C11.1429 17.6642 11.4685 18 11.8702 18H13.3247C13.7264 18 14.052 17.6642 14.052 17.25V16.2244C14.5577 16.039 15.0151 15.7619 15.4153 15.4098L16.2791 15.924C16.627 16.1311 17.0718 16.0082 17.2726 15.6495L17.9999 14.3504C18.2007 13.9917 18.0816 13.533 17.7336 13.3259L16.8812 12.8184C16.9287 12.5522 16.9612 12.2803 16.9612 12C16.9612 11.7196 16.9288 11.4477 16.8812 11.1816L17.7336 10.674C18.0816 10.4669 18.2007 10.0082 17.9999 9.64948ZM12.5974 13.25C11.5974 13.25 11.4156 13 11.4156 12C11.4156 11 11.6951 10.75 12.5974 10.75C13.4998 10.75 13.7793 11 13.7793 12C13.7793 13 13.5974 13.25 12.5974 13.25ZM0.706901 19.8838C0.316932 19.8838 9.41891e-05 19.5662 9.41891e-05 19.1753H0V5.0063C0 4.61543 0.316838 4.29785 0.706806 4.29785H12.0157C12.4057 4.29785 12.7225 4.61543 12.7225 5.0063H12.0157C10.8465 5.0063 9.89529 5.95969 9.89529 7.13166V7.1822L9.84972 7.15589C9.52808 6.97046 9.16224 6.87222 8.79159 6.87222C8.03512 6.87222 7.33104 7.27973 6.95488 7.9349L6.24878 9.16086C5.96512 9.6521 5.88987 10.2249 6.03552 10.7736C6.18187 11.3229 6.5332 11.7816 7.02396 12.0659L7.06745 12.0908L7.02396 12.1164C6.5332 12.4001 6.18187 12.8588 6.03622 13.4074C5.88987 13.9554 5.96512 14.5282 6.24812 15.0194L6.95493 16.2461C7.3325 16.902 8.03582 17.3095 8.79234 17.3095C9.16233 17.3095 9.52818 17.2112 9.85119 17.0251L9.89539 16.9995V17.05C9.89539 18.222 10.8466 19.1753 12.0158 19.1753H12.7226C12.7226 19.5662 12.4058 19.8838 12.0158 19.8838H0.706901Z"/>
</mask>
<path d="M0 4H-1V5.56713L0.421281 4.90693L0 4ZM13 4L12.5787 4.90693L14 5.56713V4H13ZM0 20L0.421282 19.0931L-1 18.4329V20H0ZM13 20H14V18.4329L12.5787 19.0931L13 20ZM17.2726 8.35044L18.1452 7.86193L18.1452 7.86191L17.2726 8.35044ZM17.9999 9.64948L18.8725 9.16105L18.8725 9.16097L17.9999 9.64948ZM16.2791 8.07593L15.7677 7.21658L15.7675 7.21668L16.2791 8.07593ZM15.4153 8.59019L14.7548 9.34097L15.3014 9.82185L15.9269 9.44943L15.4153 8.59019ZM14.052 7.77553H13.052V8.474L13.7078 8.71443L14.052 7.77553ZM11.1429 7.77553L11.4871 8.71443L12.1429 8.474V7.77553H11.1429ZM9.77954 8.59019L9.26797 9.44942L9.89351 9.82186L10.4401 9.34096L9.77954 8.59019ZM8.91582 8.07593L9.4274 7.2167L9.4273 7.21664L8.91582 8.07593ZM7.9223 8.35044L8.79486 8.83895L8.79488 8.8389L7.9223 8.35044ZM7.19501 9.64948L8.06756 10.138L8.06757 10.138L7.19501 9.64948ZM7.46125 10.674L7.97282 9.8148L7.97272 9.81474L7.46125 10.674ZM8.31372 11.1816L9.29813 11.3575L9.41986 10.6763L8.8253 10.3223L8.31372 11.1816ZM8.31372 12.8184L8.8253 13.6776L9.41997 13.3236L9.2981 12.6423L8.31372 12.8184ZM7.46125 13.3259L7.97272 14.1852L7.97282 14.1852L7.46125 13.3259ZM7.19501 14.3504L6.32243 14.8389L6.32245 14.8389L7.19501 14.3504ZM7.9223 15.6495L7.04974 16.138L7.04975 16.138L7.9223 15.6495ZM8.91582 15.924L9.4273 16.7833L9.4274 16.7833L8.91582 15.924ZM9.77954 15.4098L10.4401 14.659L9.89351 14.1781L9.26797 14.5505L9.77954 15.4098ZM11.1429 16.2244H12.1429V15.526L11.4871 15.2855L11.1429 16.2244ZM14.052 16.2244L13.7078 15.2855L13.052 15.526V16.2244H14.052ZM15.4153 15.4098L15.9269 14.5505L15.3014 14.1781L14.7548 14.659L15.4153 15.4098ZM16.2791 15.924L15.7675 16.7833L15.7676 16.7833L16.2791 15.924ZM17.2726 15.6495L18.1451 16.138L18.1451 16.138L17.2726 15.6495ZM17.9999 14.3504L17.1273 13.8619L17.1273 13.8619L17.9999 14.3504ZM17.7336 13.3259L17.2221 14.1852L17.2222 14.1852L17.7336 13.3259ZM16.8812 12.8184L15.8968 12.6425L15.775 13.3236L16.3696 13.6776L16.8812 12.8184ZM16.8812 11.1816L16.3696 10.3223L15.7749 10.6764L15.8968 11.3577L16.8812 11.1816ZM17.7336 10.674L17.2222 9.81474L17.2221 9.8148L17.7336 10.674ZM9.41891e-05 19.1753H1.00009V18.1753H9.41891e-05V19.1753ZM0 19.1753H-1V20.1753H0V19.1753ZM12.7225 5.0063V6.0063H13.7225V5.0063H12.7225ZM9.89529 7.1822L9.3953 8.04822L10.8953 8.91424V7.1822H9.89529ZM9.84972 7.15589L10.3497 6.28986L10.3492 6.28954L9.84972 7.15589ZM6.95488 7.9349L7.82143 8.434L7.82211 8.43281L6.95488 7.9349ZM6.24878 9.16086L7.11477 9.66092L7.11533 9.65995L6.24878 9.16086ZM6.03552 10.7736L5.069 11.0302L5.06922 11.031L6.03552 10.7736ZM7.02396 12.0659L6.52259 12.9312L6.52726 12.9339L7.02396 12.0659ZM7.06745 12.0908L7.57469 12.9526L9.05954 12.0787L7.56415 11.2229L7.06745 12.0908ZM7.02396 12.1164L7.5244 12.9822L7.5312 12.9782L7.02396 12.1164ZM6.03622 13.4074L7.00236 13.6655L7.00274 13.664L6.03622 13.4074ZM6.24812 15.0194L5.38165 15.5186L5.38167 15.5187L6.24812 15.0194ZM6.95493 16.2461L7.82158 15.7472L7.82138 15.7468L6.95493 16.2461ZM9.85119 17.0251L10.3504 17.8916L10.3524 17.8904L9.85119 17.0251ZM9.89539 16.9995H10.8954V15.2647L9.39422 16.1341L9.89539 16.9995ZM12.7226 19.1753H13.7226V18.1753H12.7226V19.1753ZM-1 2.88569V4H1V2.88569H-1ZM2.16667 -1C1.17415 -1 0.361386 -0.447371 -0.166744 0.261843C-0.696425 0.973138 -1 1.90743 -1 2.88569H1C1 2.3073 1.18238 1.79875 1.43735 1.45636C1.69387 1.11189 1.96443 1 2.16667 1V-1ZM10.8333 -1H2.16667V1H10.8333V-1ZM14 2.88569C14 1.90743 13.6964 0.973138 13.1667 0.261843C12.6386 -0.447371 11.8258 -1 10.8333 -1V1C11.0356 1 11.3061 1.11189 11.5627 1.45636C11.8176 1.79875 12 2.3073 12 2.88569H14ZM14 4V2.88569H12V4H14ZM12.2778 4.82667C12.3509 4.82667 12.4468 4.84566 12.5787 4.90693L13.4213 3.09307C13.0991 2.94343 12.7135 2.82667 12.2778 2.82667V4.82667ZM0.722222 4.82667H12.2778V2.82667H0.722222V4.82667ZM0.421281 4.90693C0.553175 4.84566 0.649131 4.82667 0.722222 4.82667V2.82667C0.286484 2.82667 -0.0991379 2.94343 -0.421281 3.09307L0.421281 4.90693ZM-1 21.1143C-1 22.0926 -0.696425 23.0269 -0.166744 23.7382C0.361386 24.4474 1.17415 25 2.16667 25V23C1.96443 23 1.69387 22.8881 1.43735 22.5436C1.18238 22.2012 1 21.6927 1 21.1143H-1ZM-1 20V21.1143H1V20H-1ZM0.722222 19.1733C0.649132 19.1733 0.553177 19.1543 0.421282 19.0931L-0.421282 20.9069C-0.0991398 21.0566 0.286483 21.1733 0.722222 21.1733V19.1733ZM12.2778 19.1733H0.722222V21.1733H12.2778V19.1733ZM12.5787 19.0931C12.4468 19.1543 12.3509 19.1733 12.2778 19.1733V21.1733C12.7135 21.1733 13.0991 21.0566 13.4213 20.9069L12.5787 19.0931ZM14 21.1143V20H12V21.1143H14ZM10.8333 25C11.8258 25 12.6386 24.4474 13.1667 23.7382C13.6964 23.0269 14 22.0926 14 21.1143H12C12 21.6927 11.8176 22.2012 11.5627 22.5436C11.3061 22.8881 11.0356 23 10.8333 23V25ZM2.16667 25H10.8333V23H2.16667V25ZM16.4001 8.83895L17.1274 10.138L18.8725 9.16097L18.1452 7.86193L16.4001 8.83895ZM16.7905 8.93528C16.6423 9.02349 16.4668 8.95821 16.4001 8.83896L18.1452 7.86191C17.6768 7.02526 16.6118 6.71428 15.7677 7.21658L16.7905 8.93528ZM15.9269 9.44943L16.7907 8.93518L15.7675 7.21668L14.9038 7.73094L15.9269 9.44943ZM13.7078 8.71443C14.0927 8.85553 14.4437 9.06727 14.7548 9.34097L16.0759 7.8394C15.5866 7.4089 15.0228 7.06634 14.3962 6.83664L13.7078 8.71443ZM13.052 6.74998V7.77553H15.052V6.74998H13.052ZM13.3247 6.99998C13.1454 6.99998 13.052 6.85885 13.052 6.74998H15.052C15.052 5.81252 14.3073 4.99998 13.3247 4.99998V6.99998ZM11.8702 6.99998H13.3247V4.99998H11.8702V6.99998ZM12.1429 6.74998C12.1429 6.85885 12.0495 6.99998 11.8702 6.99998V4.99998C10.8875 4.99998 10.1429 5.81252 10.1429 6.74998H12.1429ZM12.1429 7.77553V6.74998H10.1429V7.77553H12.1429ZM10.4401 9.34096C10.7512 9.06723 11.1022 8.85554 11.4871 8.71443L10.7987 6.83664C10.1721 7.06633 9.60836 7.40884 9.11899 7.83941L10.4401 9.34096ZM8.40424 8.93517L9.26797 9.44942L10.2911 7.73095L9.4274 7.2167L8.40424 8.93517ZM8.79488 8.8389C8.72813 8.95815 8.55263 9.0235 8.40434 8.93523L9.4273 7.21664C8.58314 6.71417 7.51812 7.02522 7.04972 7.86197L8.79488 8.8389ZM8.06757 10.138L8.79486 8.83895L7.04974 7.86192L6.32245 9.16097L8.06757 10.138ZM7.97272 9.81474C8.10255 9.89201 8.12459 10.0362 8.06756 10.138L6.32246 9.16096C5.86378 9.98022 6.12408 11.0419 6.94977 11.5333L7.97272 9.81474ZM8.8253 10.3223L7.97282 9.8148L6.94967 11.5333L7.80215 12.0408L8.8253 10.3223ZM9.23372 12C9.23372 11.7963 9.25729 11.586 9.29813 11.3575L7.32932 11.0057C7.27503 11.3095 7.23372 11.643 7.23372 12H9.23372ZM9.2981 12.6423C9.25726 12.414 9.23372 12.2038 9.23372 12H7.23372C7.23372 12.3569 7.27496 12.6904 7.32935 12.9945L9.2981 12.6423ZM7.97282 14.1852L8.8253 13.6776L7.80215 11.9591L6.94967 12.4667L7.97282 14.1852ZM8.06759 13.862C8.12458 13.9638 8.10254 14.108 7.97272 14.1852L6.94977 12.4666C6.12409 12.9581 5.86379 14.0196 6.32243 14.8389L8.06759 13.862ZM8.79486 15.161L8.06757 13.8619L6.32245 14.8389L7.04974 16.138L8.79486 15.161ZM8.40434 15.0647C8.55281 14.9764 8.7282 15.0419 8.79485 15.161L7.04975 16.138C7.51805 16.9745 8.58296 17.2859 9.4273 16.7833L8.40434 15.0647ZM9.26797 14.5505L8.40424 15.0648L9.4274 16.7833L10.2911 16.269L9.26797 14.5505ZM11.4871 15.2855C11.1022 15.1444 10.7512 14.9327 10.4401 14.659L9.119 16.1606C9.60831 16.5911 10.1721 16.9336 10.7987 17.1633L11.4871 15.2855ZM12.1429 17.25V16.2244H10.1429V17.25H12.1429ZM11.8702 17C12.0495 17 12.1429 17.1411 12.1429 17.25H10.1429C10.1429 18.1873 10.8874 19 11.8702 19V17ZM13.3247 17H11.8702V19H13.3247V17ZM13.052 17.25C13.052 17.1411 13.1453 17 13.3247 17V19C14.3074 19 15.052 18.1873 15.052 17.25H13.052ZM13.052 16.2244V17.25H15.052V16.2244H13.052ZM14.7548 14.659C14.4436 14.9327 14.0927 15.1444 13.7078 15.2855L14.3962 17.1633C15.0227 16.9336 15.5865 16.5911 16.0759 16.1606L14.7548 14.659ZM16.7906 15.0648L15.9269 14.5505L14.9038 16.269L15.7675 16.7833L16.7906 15.0648ZM16.4 15.161C16.4667 15.0419 16.6421 14.9764 16.7905 15.0647L15.7676 16.7833C16.6119 17.2859 17.6768 16.9745 18.1451 16.138L16.4 15.161ZM17.1273 13.8619L16.4 15.161L18.1451 16.138L18.8724 14.8389L17.1273 13.8619ZM17.2222 14.1852C17.0924 14.108 17.0703 13.9638 17.1273 13.8619L18.8724 14.839C19.3311 14.0197 19.0708 12.9581 18.2451 12.4666L17.2222 14.1852ZM16.3696 13.6776L17.2221 14.1852L18.2452 12.4667L17.3927 11.9591L16.3696 13.6776ZM15.9612 12C15.9612 12.2037 15.9376 12.414 15.8968 12.6425L17.8656 12.9943C17.9198 12.6905 17.9612 12.357 17.9612 12H15.9612ZM15.8968 11.3577C15.9376 11.5859 15.9612 11.7962 15.9612 12H17.9612C17.9612 11.6431 17.9199 11.3095 17.8655 11.0055L15.8968 11.3577ZM17.2221 9.8148L16.3696 10.3223L17.3927 12.0408L18.2452 11.5333L17.2221 9.8148ZM17.1273 10.1379C17.0703 10.0361 17.0923 9.89201 17.2222 9.81474L18.2451 11.5333C19.0708 11.0419 19.3311 9.98027 18.8725 9.16105L17.1273 10.1379ZM10.4156 12C10.4156 12.2678 10.4266 12.5499 10.4789 12.8125C10.5327 13.0827 10.6429 13.3991 10.8916 13.6727C11.3877 14.2183 12.1171 14.25 12.5974 14.25V12.25C12.4919 12.25 12.4101 12.2466 12.3465 12.2411C12.2825 12.2355 12.2469 12.2285 12.2314 12.2246C12.2062 12.2184 12.2872 12.2347 12.3714 12.3273C12.4496 12.4133 12.4519 12.4797 12.4404 12.4219C12.4348 12.3937 12.428 12.3468 12.4231 12.2734C12.4182 12.2005 12.4156 12.1112 12.4156 12H10.4156ZM12.5974 9.74998C12.1301 9.74998 11.4464 9.79454 10.9519 10.3022C10.4679 10.7989 10.4156 11.485 10.4156 12H12.4156C12.4156 11.7868 12.4315 11.6741 12.4445 11.6214C12.4552 11.5778 12.4504 11.6301 12.3844 11.6978C12.3162 11.7678 12.2558 11.7796 12.2793 11.7736C12.3156 11.7644 12.4073 11.75 12.5974 11.75V9.74998ZM14.7793 12C14.7793 11.485 14.727 10.7989 14.243 10.3022C13.7485 9.79454 13.0647 9.74998 12.5974 9.74998V11.75C12.7876 11.75 12.8793 11.7644 12.9156 11.7736C12.9391 11.7796 12.8787 11.7678 12.8105 11.6978C12.7445 11.6301 12.7397 11.5778 12.7504 11.6214C12.7634 11.6741 12.7793 11.7868 12.7793 12H14.7793ZM12.5974 14.25C13.0778 14.25 13.8072 14.2183 14.3033 13.6727C14.552 13.3991 14.6622 13.0827 14.716 12.8125C14.7683 12.5499 14.7793 12.2678 14.7793 12H12.7793C12.7793 12.1112 12.7767 12.2005 12.7718 12.2734C12.7668 12.3468 12.7601 12.3937 12.7545 12.4219C12.743 12.4797 12.7452 12.4133 12.8234 12.3273C12.9077 12.2347 12.9887 12.2184 12.9635 12.2246C12.948 12.2285 12.9124 12.2355 12.8484 12.2411C12.7848 12.2466 12.703 12.25 12.5974 12.25V14.25ZM-0.999906 19.1753C-0.999906 20.1163 -0.237544 20.8838 0.706901 20.8838V18.8838C0.871408 18.8838 1.00009 19.0161 1.00009 19.1753H-0.999906ZM0 20.1753H9.41891e-05V18.1753H0V20.1753ZM-1 5.0063V19.1753H1V5.0063H-1ZM0.706806 3.29785C-0.237638 3.29785 -1 4.06534 -1 5.0063H1C1 5.16552 0.871313 5.29785 0.706806 5.29785V3.29785ZM12.0157 3.29785H0.706806V5.29785H12.0157V3.29785ZM13.7225 5.0063C13.7225 4.06534 12.9602 3.29785 12.0157 3.29785V5.29785C11.8512 5.29785 11.7225 5.16552 11.7225 5.0063H13.7225ZM12.0157 6.0063H12.7225V4.0063H12.0157V6.0063ZM10.8953 7.13166C10.8953 6.50978 11.4009 6.0063 12.0157 6.0063V4.0063C10.292 4.0063 8.89529 5.4096 8.89529 7.13166H10.8953ZM10.8953 7.1822V7.13166H8.89529V7.1822H10.8953ZM9.34973 8.02192L9.3953 8.04822L10.3953 6.31617L10.3497 6.28986L9.34973 8.02192ZM8.79159 7.87222C8.98616 7.87222 9.17987 7.92399 9.35028 8.02224L10.3492 6.28954C9.8763 6.01693 9.33832 5.87222 8.79159 5.87222V7.87222ZM7.82211 8.43281C8.01977 8.08854 8.39287 7.87222 8.79159 7.87222V5.87222C7.67737 5.87222 6.64232 6.47091 6.08765 7.43699L7.82211 8.43281ZM7.11533 9.65995L7.82143 8.434L6.08834 7.43581L5.38224 8.66176L7.11533 9.65995ZM7.00203 10.517C6.92393 10.2228 6.96395 9.92211 7.11477 9.66092L5.38279 8.66079C4.96629 9.38208 4.8558 10.2271 5.069 11.0302L7.00203 10.517ZM7.52532 11.2007C7.26384 11.0492 7.07985 10.8091 7.00181 10.5161L5.06922 11.031C5.28389 11.8368 5.80256 12.5139 6.5226 12.9312L7.52532 11.2007ZM7.56415 11.2229L7.52066 11.198L6.52726 12.9339L6.57075 12.9587L7.56415 11.2229ZM7.5312 12.9782L7.57469 12.9526L6.56021 11.229L6.51672 11.2546L7.5312 12.9782ZM7.00274 13.664C7.08013 13.3725 7.26362 13.1329 7.52439 12.9822L6.52353 11.2506C5.80278 11.6672 5.28361 12.3451 5.0697 13.1508L7.00274 13.664ZM7.11459 14.5202C6.96382 14.2585 6.92422 13.958 7.00235 13.6655L5.07009 13.1494C4.85551 13.9528 4.96641 14.7979 5.38165 15.5186L7.11459 14.5202ZM7.82138 15.7468L7.11458 14.5202L5.38167 15.5187L6.08847 16.7453L7.82138 15.7468ZM8.79234 16.3095C8.39438 16.3095 8.02111 16.0938 7.82158 15.7472L6.08828 16.745C6.6439 17.7102 7.67726 18.3095 8.79234 18.3095V16.3095ZM9.352 16.1586C9.17953 16.258 8.98564 16.3095 8.79234 16.3095V18.3095C9.33902 18.3095 9.87682 18.1644 10.3504 17.8916L9.352 16.1586ZM9.39422 16.1341L9.35002 16.1597L10.3524 17.8904L10.3966 17.8648L9.39422 16.1341ZM10.8954 17.05V16.9995H8.89539V17.05H10.8954ZM12.0158 18.1753C11.401 18.1753 10.8954 17.6719 10.8954 17.05H8.89539C8.89539 18.772 10.2921 20.1753 12.0158 20.1753V18.1753ZM12.7226 18.1753H12.0158V20.1753H12.7226V18.1753ZM12.0158 20.8838C12.9603 20.8838 13.7226 20.1163 13.7226 19.1753H11.7226C11.7226 19.0161 11.8513 18.8838 12.0158 18.8838V20.8838ZM0.706901 20.8838H12.0158V18.8838H0.706901V20.8838Z" fill="#6C67AB" mask="url(#path-1-inside-1)"/>
</svg>
