<svg width="25" height="25" viewBox="0 0 25 25" fill="none" xmlns="http://www.w3.org/2000/svg">
<mask id="path-1-inside-1" fill="white">
<path d="M23.2718 2.39639H14.6223L14.3705 0.609712C14.3159 0.222181 13.9581 -0.0476396 13.5716 0.00708067C13.185 0.0618009 12.9158 0.420318 12.9704 0.807896L13.1942 2.39634H10.9436L11.1674 0.807896C11.2221 0.420365 10.9529 0.0618009 10.5662 0.00708067C10.1798 -0.0477814 9.82182 0.222134 9.76723 0.609712L9.51548 2.39639H0.866089C0.388517 2.39639 0 2.78581 0 3.2645V17.1753C0 17.654 0.388517 18.0434 0.866089 18.0434H7.31106L6.56 23.374C6.50536 23.7615 6.77455 24.1201 7.16123 24.1748C7.19475 24.1795 7.22808 24.1818 7.26104 24.1818C7.60769 24.1818 7.91036 23.9261 7.96019 23.5721L8.36332 20.7107H15.7746L16.1777 23.5721C16.2276 23.9261 16.5303 24.1818 16.8769 24.1818C16.9098 24.1818 16.9432 24.1795 16.9767 24.1748C17.3633 24.1201 17.6325 23.7615 17.5779 23.374L16.8269 18.0434H23.2718C23.7494 18.0434 24.1379 17.654 24.1379 17.1753V3.2645C24.1379 2.78581 23.7494 2.39639 23.2718 2.39639ZM8.56307 19.2933L8.73915 18.0434H15.3988L15.5749 19.2933H8.56307ZM17.8106 11.0047C17.7954 11.0277 17.779 11.0497 17.7615 11.0704C17.7593 11.0729 17.7572 11.0753 17.755 11.0778C17.7371 11.0984 17.7183 11.118 17.6984 11.1361C17.6964 11.138 17.6943 11.1396 17.6923 11.1415C17.6721 11.1595 17.6511 11.1765 17.6291 11.1919L17.6268 11.1936C17.6053 11.2086 17.5829 11.222 17.5601 11.2344C17.5567 11.2363 17.5534 11.2383 17.55 11.24C17.5278 11.2516 17.505 11.2618 17.4818 11.271C17.4775 11.2727 17.4733 11.2744 17.4689 11.276C17.4456 11.2847 17.4219 11.2921 17.3978 11.2983C17.3939 11.2993 17.3899 11.3002 17.386 11.3012C17.361 11.3071 17.3358 11.312 17.3102 11.3152C17.3079 11.3155 17.3055 11.3157 17.3032 11.3159C17.2762 11.319 17.2491 11.3209 17.2218 11.3209L17.2179 11.3207C17.1955 11.3206 17.173 11.3191 17.1507 11.3168C17.145 11.3163 17.1395 11.3157 17.1339 11.315C17.1106 11.3121 17.0874 11.3081 17.0643 11.3028C17.0603 11.3019 17.0564 11.3008 17.0524 11.2997C17.0292 11.294 17.0061 11.2872 16.9833 11.2789L16.979 11.2775C16.9552 11.2687 16.9319 11.2583 16.9088 11.2468C16.9065 11.2457 16.9042 11.245 16.9019 11.2438L15.1826 10.3676C15.0994 10.3253 14.9994 10.3345 14.9253 10.3915L12.964 11.9005C12.9532 11.9088 12.9421 11.9163 12.931 11.9238C12.9275 11.9262 12.9243 11.929 12.9207 11.9314L12.918 11.933C12.9113 11.9374 12.9044 11.9412 12.8976 11.9453C12.8884 11.9508 12.8793 11.9564 12.87 11.9614C12.8623 11.9656 12.8545 11.9694 12.8466 11.9733C12.8378 11.9777 12.829 11.982 12.8201 11.986C12.8122 11.9895 12.8043 11.9927 12.7964 11.9959C12.7872 11.9997 12.7779 12.0032 12.7686 12.0065C12.7609 12.0093 12.7532 12.0118 12.7454 12.0143C12.7355 12.0174 12.7254 12.0203 12.7154 12.023C12.7081 12.0249 12.7009 12.0268 12.6936 12.0285C12.6826 12.0311 12.6716 12.0332 12.6606 12.0352C12.654 12.0364 12.6475 12.0377 12.6409 12.0388C12.6282 12.0407 12.6155 12.0421 12.6028 12.0434C12.5978 12.0438 12.5928 12.0446 12.5878 12.045C12.5699 12.0463 12.552 12.0471 12.5341 12.0471L12.5313 12.047C12.5044 12.0469 12.4777 12.0452 12.4511 12.042C12.4424 12.041 12.4339 12.039 12.4252 12.0376C12.4064 12.0347 12.3877 12.0317 12.3692 12.0273C12.3592 12.0249 12.3496 12.0216 12.3398 12.0188C12.3229 12.014 12.306 12.0092 12.2895 12.0031C12.2792 11.9993 12.2691 11.9947 12.259 11.9904C12.2435 11.9839 12.2282 11.9773 12.2132 11.9697C12.2027 11.9643 12.1925 11.9584 12.1823 11.9525C12.1684 11.9445 12.1546 11.9363 12.1412 11.9273C12.1307 11.9203 12.1205 11.9128 12.1104 11.9051C12.098 11.8959 12.0859 11.8863 12.0741 11.8761C12.064 11.8674 12.0542 11.8584 12.0444 11.8491C12.0335 11.8385 12.0229 11.8275 12.0124 11.816C12.0032 11.8059 11.9942 11.7956 11.9855 11.7849C11.9813 11.7797 11.9766 11.7752 11.9725 11.7698C11.9651 11.7602 11.959 11.7501 11.9522 11.7403C11.9488 11.7354 11.9449 11.7313 11.9417 11.7263L10.8166 10.0027C10.7302 9.87029 10.5424 9.85479 10.4356 9.97132L6.75579 13.9836L6.75301 13.9863C6.74094 13.9993 6.72797 14.0115 6.71477 14.0237C6.7094 14.0287 6.70426 14.0342 6.69874 14.039C6.6896 14.0469 6.67965 14.0542 6.67003 14.0617C6.6599 14.0696 6.65 14.078 6.63953 14.0853C6.62232 14.0973 6.60427 14.1086 6.58645 14.1188C6.5797 14.1227 6.57287 14.1261 6.56603 14.1298C6.55269 14.1369 6.53926 14.1435 6.52568 14.1497C6.51927 14.1526 6.5129 14.1555 6.50644 14.1582C6.48758 14.1661 6.46859 14.1732 6.44935 14.1793L6.44647 14.1803C6.42493 14.1871 6.4031 14.1926 6.38123 14.1972C6.37745 14.198 6.37368 14.1986 6.36986 14.1993C6.35143 14.2029 6.3329 14.2057 6.31433 14.2078C6.30999 14.2083 6.3057 14.2088 6.30136 14.2093C6.27954 14.2113 6.25771 14.2127 6.23588 14.2127L6.23352 14.2125C6.20887 14.2125 6.18426 14.2108 6.15974 14.2081C6.15248 14.2073 6.14536 14.2061 6.13815 14.2051C6.11925 14.2025 6.10044 14.1992 6.08186 14.195C6.07507 14.1935 6.06833 14.1921 6.06164 14.1904C6.04009 14.1849 6.01878 14.1785 5.99775 14.1709C5.99455 14.1698 5.9913 14.169 5.98814 14.1678C5.96395 14.1587 5.94024 14.1483 5.91695 14.1365C5.91139 14.1337 5.90611 14.1304 5.90064 14.1275C5.88395 14.1184 5.86749 14.1088 5.85142 14.0984C5.84331 14.0932 5.83539 14.0876 5.82747 14.082C5.81531 14.0733 5.79612 14.0583 5.78457 14.0488C5.77783 14.0434 5.77113 14.0379 5.76463 14.0321C5.76208 14.0298 5.75935 14.0279 5.7568 14.0255C5.74501 14.0146 5.73436 14.003 5.72352 13.9915C5.71852 13.9862 5.71314 13.9814 5.70829 13.976C5.68976 13.9553 5.67288 13.9337 5.65718 13.9114L5.65492 13.9085L4.16417 11.7614C3.94674 11.4482 3.99987 11.0112 4.30178 10.7788C4.6242 10.5307 5.08405 10.605 5.31355 10.9355L6.13895 12.1246C6.22754 12.2522 6.41121 12.2647 6.51615 12.1503L10.2201 8.11206C10.223 8.1089 10.2262 8.1062 10.2292 8.10308C10.2388 8.09306 10.2487 8.08333 10.2589 8.07379C10.267 8.06623 10.2751 8.0588 10.2835 8.05172C10.292 8.04439 10.3009 8.0374 10.31 8.03045C10.3208 8.02209 10.3317 8.01406 10.3429 8.0064C10.3465 8.0039 10.3498 8.00106 10.3535 7.99865C10.3578 7.99582 10.3623 7.99364 10.3667 7.9909C10.379 7.98325 10.3913 7.97597 10.4039 7.96912C10.4125 7.96444 10.4212 7.96 10.4299 7.9557C10.4416 7.94998 10.4533 7.94459 10.4653 7.93954C10.4756 7.93514 10.4859 7.93103 10.4964 7.92716C10.5068 7.92333 10.5173 7.91978 10.5279 7.91643C10.5399 7.9126 10.5519 7.90906 10.5641 7.90594C10.5735 7.90353 10.5829 7.90135 10.5924 7.89932C10.6056 7.89649 10.6187 7.89394 10.632 7.8919C10.6411 7.89049 10.6501 7.88935 10.6592 7.88831C10.6726 7.88675 10.6859 7.88548 10.6993 7.88472C10.7089 7.88415 10.7185 7.88392 10.7281 7.88373C10.7408 7.88354 10.7533 7.88349 10.7659 7.88397C10.7766 7.88434 10.7873 7.88515 10.7981 7.886C10.8095 7.88694 10.8207 7.88798 10.832 7.88945C10.8439 7.89101 10.8557 7.89299 10.8674 7.89512C10.8776 7.89696 10.8876 7.8989 10.8977 7.90117C10.9101 7.904 10.9225 7.90731 10.9348 7.91081C10.9442 7.9135 10.9536 7.91624 10.9629 7.91936C10.975 7.92338 10.9871 7.92786 10.9991 7.93259C11.0086 7.93632 11.018 7.9402 11.0274 7.94436C11.0384 7.94927 11.0493 7.95451 11.0601 7.96004C11.0704 7.96524 11.0806 7.97068 11.0907 7.97644C11.1 7.98178 11.1091 7.98731 11.1182 7.99312C11.1295 8.00026 11.1405 8.00772 11.1514 8.01552C11.1591 8.021 11.1666 8.02658 11.1741 8.03244C11.1856 8.04142 11.1968 8.05082 11.2079 8.06055C11.2116 8.06386 11.2156 8.06665 11.2193 8.07005C11.2225 8.07298 11.2252 8.07624 11.2283 8.07922C11.2383 8.08876 11.2479 8.09864 11.2574 8.1088C11.265 8.11698 11.2725 8.1252 11.2796 8.13366C11.2868 8.14216 11.2937 8.15095 11.3006 8.15988C11.309 8.17084 11.3171 8.1819 11.3248 8.19324C11.3273 8.19684 11.3301 8.20005 11.3325 8.20373L12.5567 10.0792C12.6384 10.2041 12.8088 10.2332 12.927 10.1422L14.5391 8.90182C14.543 8.8988 14.5472 8.89639 14.5513 8.89346C14.5625 8.88519 14.574 8.87725 14.5857 8.86969C14.5944 8.86397 14.6033 8.85849 14.6122 8.85319C14.6224 8.84719 14.6328 8.84152 14.6433 8.83604C14.6541 8.83037 14.665 8.82494 14.676 8.81993C14.685 8.81577 14.6942 8.81194 14.7035 8.80816C14.7159 8.80311 14.7283 8.79829 14.7408 8.79399C14.7495 8.79101 14.7584 8.78836 14.7672 8.78567C14.7801 8.78179 14.7931 8.77811 14.8061 8.77499C14.8156 8.77272 14.8252 8.77083 14.8349 8.76899C14.8471 8.76663 14.8592 8.76431 14.8716 8.76261C14.8828 8.761 14.8941 8.75996 14.9054 8.75892C14.9162 8.75793 14.9268 8.75698 14.9375 8.75646C14.9505 8.75585 14.9635 8.75585 14.9765 8.75599C14.9858 8.75609 14.995 8.75613 15.0042 8.75656C15.0181 8.75722 15.032 8.75854 15.0459 8.76006C15.0546 8.761 15.0632 8.76195 15.0719 8.76318C15.0854 8.76516 15.0989 8.76771 15.1123 8.7705C15.1218 8.77244 15.1312 8.77447 15.1406 8.77678C15.1525 8.77976 15.1644 8.78316 15.1762 8.78685C15.1874 8.79025 15.1985 8.79389 15.2095 8.79786C15.2193 8.8014 15.229 8.80518 15.2387 8.8092C15.2517 8.81454 15.2645 8.82026 15.2771 8.8264C15.2815 8.82853 15.286 8.83009 15.2903 8.83231L16.7847 9.5939C16.8948 9.65004 17.0294 9.61408 17.0971 9.51045L19.0419 6.53311C19.2558 6.20569 19.694 6.11401 20.0208 6.32841C20.3475 6.5428 20.4389 6.98203 20.225 7.3095L17.8142 11.0003L17.8106 11.0047Z"/>
</mask>
<path d="M21.4188 15.4618H18.7708V16.4618H21.4188V15.4618ZM14.6223 2.39639L13.6321 2.53592L13.7533 3.39639H14.6223V2.39639ZM14.3705 0.609712L15.3608 0.470186L15.3608 0.470097L14.3705 0.609712ZM13.5716 0.00708067L13.7117 0.997213L13.7118 0.997208L13.5716 0.00708067ZM12.9704 0.807896L11.9801 0.947377L11.9801 0.947407L12.9704 0.807896ZM13.1942 2.39634V3.39634H14.3449L14.1844 2.25683L13.1942 2.39634ZM10.9436 2.39634L9.9534 2.25683L9.79286 3.39634H10.9436V2.39634ZM11.1674 0.807896L10.1772 0.668281L10.1772 0.668386L11.1674 0.807896ZM10.5662 0.00708067L10.4256 0.997151L10.4261 0.997216L10.5662 0.00708067ZM9.76723 0.609712L10.7574 0.749238L10.7575 0.749193L9.76723 0.609712ZM9.51548 2.39639V3.39639H10.3845L10.5057 2.53592L9.51548 2.39639ZM7.31106 18.0434L8.30128 18.1829L8.46183 17.0434H7.31106V18.0434ZM6.56 23.374L7.5502 23.5136L7.55022 23.5135L6.56 23.374ZM7.16123 24.1748L7.30219 23.1848L7.30135 23.1846L7.16123 24.1748ZM7.96019 23.5721L6.96996 23.4326L6.96995 23.4327L7.96019 23.5721ZM8.36332 20.7107V19.7107H7.49432L7.3731 20.5712L8.36332 20.7107ZM15.7746 20.7107L16.7648 20.5712L16.6436 19.7107H15.7746V20.7107ZM16.1777 23.5721L15.1875 23.7117L15.1875 23.7117L16.1777 23.5721ZM16.9767 24.1748L17.1163 25.165L17.1168 25.1649L16.9767 24.1748ZM17.5779 23.374L18.5681 23.2345L18.5681 23.2344L17.5779 23.374ZM16.8269 18.0434V17.0434H15.6761L15.8366 18.1829L16.8269 18.0434ZM24.1379 3.2645H23.1379H24.1379ZM8.56307 19.2933L7.57285 19.1538L7.41232 20.2933H8.56307V19.2933ZM8.73915 18.0434V17.0434H7.87016L7.74893 17.9039L8.73915 18.0434ZM15.3988 18.0434L16.389 17.9039L16.2678 17.0434H15.3988V18.0434ZM15.5749 19.2933V20.2933H16.7256L16.5651 19.1538L15.5749 19.2933ZM17.8106 11.0047L17.0315 10.3778L17.0028 10.4135L16.9775 10.4517L17.8106 11.0047ZM17.7615 11.0704L16.9985 10.4239L16.9984 10.424L17.7615 11.0704ZM17.755 11.0778L18.5097 11.7339L18.512 11.7313L17.755 11.0778ZM17.6984 11.1361L18.3711 11.8761L18.3723 11.875L17.6984 11.1361ZM17.6923 11.1415L18.3572 11.8884L18.365 11.8814L17.6923 11.1415ZM17.6291 11.1919L17.0538 10.374L17.0467 10.3791L17.6291 11.1919ZM17.6268 11.1936L18.1986 12.0141L18.2093 12.0065L17.6268 11.1936ZM17.5601 11.2344L18.0372 12.1133L18.0376 12.113L17.5601 11.2344ZM17.55 11.24L18.0131 12.1264L18.0176 12.124L17.55 11.24ZM17.4818 11.271L17.847 12.2019L17.8494 12.201L17.4818 11.271ZM17.4689 11.276L17.1216 10.3383L17.1192 10.3392L17.4689 11.276ZM17.3978 11.2983L17.6436 12.2676L17.6467 12.2668L17.3978 11.2983ZM17.386 11.3012L17.6178 12.274L17.6208 12.2732L17.386 11.3012ZM17.3102 11.3152L17.4297 12.308L17.435 12.3074L17.3102 11.3152ZM17.3032 11.3159L17.2034 10.3209L17.1957 10.3216L17.1881 10.3225L17.3032 11.3159ZM17.2218 11.3209L17.1622 12.3192L17.192 12.3209H17.2218V11.3209ZM17.2179 11.3207L17.2775 10.3225L17.2509 10.3209L17.2242 10.3207L17.2179 11.3207ZM17.1507 11.3168L17.2514 10.3219L17.2512 10.3219L17.1507 11.3168ZM17.1339 11.315L17.2592 10.3229L17.2587 10.3229L17.1339 11.315ZM17.0643 11.3028L16.8348 12.2761L16.8406 12.2774L17.0643 11.3028ZM17.0524 11.2997L17.3035 10.3317L17.2936 10.3293L17.0524 11.2997ZM16.9833 11.2789L17.323 10.3384L17.3131 10.3348L17.3031 10.3314L16.9833 11.2789ZM16.979 11.2775L16.6337 12.216L16.6464 12.2206L16.6592 12.225L16.979 11.2775ZM16.9088 11.2468L16.4607 12.1408L16.4636 12.1423L16.9088 11.2468ZM16.9019 11.2438L16.4479 12.1348L16.4539 12.1378L16.9019 11.2438ZM15.1826 10.3676L15.6367 9.47667L15.6365 9.47659L15.1826 10.3676ZM14.9253 10.3915L15.5351 11.1841L15.5351 11.184L14.9253 10.3915ZM12.964 11.9005L12.3542 11.108L12.3538 11.1083L12.964 11.9005ZM12.931 11.9238L13.4942 12.7501L13.4947 12.7498L12.931 11.9238ZM12.9207 11.9314L13.4404 12.7857L13.456 12.7762L13.4712 12.7662L12.9207 11.9314ZM12.918 11.933L12.3983 11.0787L12.385 11.0868L12.3719 11.0953L12.918 11.933ZM12.8976 11.9453L13.4116 12.8031L13.4129 12.8023L12.8976 11.9453ZM12.87 11.9614L13.3479 12.8399L13.3482 12.8397L12.87 11.9614ZM12.8466 11.9733L12.405 11.0761L12.4005 11.0783L12.8466 11.9733ZM12.8201 11.986L13.226 12.8999L13.2311 12.8977L12.8201 11.986ZM12.7964 11.9959L13.171 12.9231L13.1723 12.9226L12.7964 11.9959ZM12.7686 12.0065L12.4346 11.0639L12.4327 11.0646L12.7686 12.0065ZM12.7454 12.0143L13.0446 12.9685L13.0483 12.9673L12.7454 12.0143ZM12.7154 12.023L12.9732 12.9891L12.9745 12.9888L12.7154 12.023ZM12.6936 12.0285L12.9199 13.0026L12.9203 13.0025L12.6936 12.0285ZM12.6606 12.0352L12.838 13.0194L12.8417 13.0187L12.6606 12.0352ZM12.6409 12.0388L12.7919 13.0273L12.7965 13.0266L12.6409 12.0388ZM12.6028 12.0434L12.6969 13.0389L12.6988 13.0387L12.6028 12.0434ZM12.5878 12.045L12.5124 11.0478L12.5113 11.0479L12.5878 12.045ZM12.5341 12.0471L12.4686 13.045L12.5013 13.0471H12.5341V12.0471ZM12.5313 12.047L12.5968 11.0491L12.5658 11.0471L12.5348 11.047L12.5313 12.047ZM12.4511 12.042L12.3328 13.035L12.3329 13.035L12.4511 12.042ZM12.4252 12.0376L12.5812 11.0499L12.5795 11.0496L12.4252 12.0376ZM12.3692 12.0273L12.6029 11.055L12.6003 11.0544L12.3692 12.0273ZM12.3398 12.0188L12.0652 12.9804L12.0675 12.9811L12.3398 12.0188ZM12.2895 12.0031L11.9457 12.9421L11.9462 12.9423L12.2895 12.0031ZM12.259 11.9904L12.6495 11.0699L12.6476 11.069L12.259 11.9904ZM12.2132 11.9697L12.6668 11.0785L12.666 11.0781L12.2132 11.9697ZM12.1823 11.9525L12.6823 11.0864L12.6803 11.0853L12.1823 11.9525ZM12.1412 11.9273L12.6988 11.0972L12.6968 11.0958L12.1412 11.9273ZM12.1104 11.9051L12.7107 11.1054L12.7103 11.1051L12.1104 11.9051ZM12.0741 11.8761L12.7255 11.1174L12.7252 11.1171L12.0741 11.8761ZM12.0444 11.8491L11.3506 12.5691L11.3506 12.5692L12.0444 11.8491ZM12.0124 11.816L11.2725 12.4887L11.2732 12.4895L12.0124 11.816ZM11.9855 11.7849L11.2074 12.413L11.2096 12.4158L11.9855 11.7849ZM11.9725 11.7698L12.7689 11.1651L12.7661 11.1614L11.9725 11.7698ZM11.9522 11.7403L11.1282 12.3069L11.1294 12.3086L11.9522 11.7403ZM11.9417 11.7263L12.7817 11.1836L12.7791 11.1797L11.9417 11.7263ZM10.8166 10.0027L11.654 9.45608L11.6539 9.45594L10.8166 10.0027ZM10.4356 9.97132L11.1726 10.6472L11.1727 10.6471L10.4356 9.97132ZM6.75579 13.9836L7.45148 14.7019L7.47275 14.6813L7.49277 14.6595L6.75579 13.9836ZM6.75301 13.9863L6.05732 13.2679L6.0383 13.2863L6.02028 13.3057L6.75301 13.9863ZM6.71477 14.0237L6.03629 13.2891L6.03298 13.2922L6.71477 14.0237ZM6.69874 14.039L7.35425 14.7942L7.35675 14.792L6.69874 14.039ZM6.67003 14.0617L6.0544 13.2737L6.05343 13.2744L6.67003 14.0617ZM6.63953 14.0853L7.21162 14.9055L7.2129 14.9046L6.63953 14.0853ZM6.58645 14.1188L7.08476 14.9858L7.08518 14.9856L6.58645 14.1188ZM6.56603 14.1298L7.0352 15.0129L7.03589 15.0125L6.56603 14.1298ZM6.52568 14.1497L6.93572 15.0618L6.94052 15.0596L6.52568 14.1497ZM6.50644 14.1582L6.12154 13.2352L6.12041 13.2357L6.50644 14.1582ZM6.44935 14.1793L6.14512 13.2268L6.1342 13.2302L6.12336 13.234L6.44935 14.1793ZM6.44647 14.1803L6.74574 15.1345L6.75916 15.1303L6.77247 15.1257L6.44647 14.1803ZM6.38123 14.1972L6.17412 13.2189L6.1729 13.2191L6.38123 14.1972ZM6.36986 14.1993L6.18736 13.2161L6.17863 13.2178L6.36986 14.1993ZM6.31433 14.2078L6.42264 15.2019L6.42557 15.2016L6.31433 14.2078ZM6.30136 14.2093L6.39405 15.205L6.39895 15.2045L6.30136 14.2093ZM6.23588 14.2127L6.1757 15.2109L6.20576 15.2127H6.23588V14.2127ZM6.23352 14.2125L6.2937 13.2143L6.2646 13.2126L6.23544 13.2125L6.23352 14.2125ZM6.15974 14.2081L6.04977 15.2021L6.05242 15.2023L6.15974 14.2081ZM6.13815 14.2051L6.27444 13.2145L6.27435 13.2145L6.13815 14.2051ZM6.08186 14.195L6.30032 13.2192L6.29927 13.219L6.08186 14.195ZM6.06164 14.1904L6.30792 13.2212L6.3062 13.2207L6.06164 14.1904ZM5.99775 14.1709L6.33425 13.2292L6.33126 13.2282L5.99775 14.1709ZM5.98814 14.1678L6.33844 13.2311L6.33777 13.2309L5.98814 14.1678ZM5.91695 14.1365L6.36789 13.244L6.365 13.2425L5.91695 14.1365ZM5.90064 14.1275L6.37876 13.2492L6.37633 13.2479L5.90064 14.1275ZM5.85142 14.0984L6.39617 13.2598L6.39455 13.2588L5.85142 14.0984ZM5.82747 14.082L5.24803 14.897L5.24856 14.8973L5.82747 14.082ZM5.78457 14.0488L6.41783 13.2749L6.41543 13.2729L5.78457 14.0488ZM5.76463 14.0321L6.43386 13.289L6.42985 13.2854L5.76463 14.0321ZM5.7568 14.0255L6.43706 13.2925L6.43471 13.2903L5.7568 14.0255ZM5.72352 13.9915L4.99643 14.6781L4.99645 14.6781L5.72352 13.9915ZM5.70829 13.976L6.45396 13.3097L6.45337 13.309L5.70829 13.976ZM5.65718 13.9114L6.47493 13.3358L6.45981 13.3143L6.44358 13.2937L5.65718 13.9114ZM5.65492 13.9085L4.8335 14.4788L4.85031 14.503L4.86852 14.5262L5.65492 13.9085ZM4.16417 11.7614L3.34267 12.3316L3.34275 12.3317L4.16417 11.7614ZM4.30178 10.7788L3.69189 9.98631L3.69182 9.98637L4.30178 10.7788ZM5.31355 10.9355L6.13504 10.3653L6.13497 10.3652L5.31355 10.9355ZM6.13895 12.1246L5.31747 12.6949L5.31763 12.6951L6.13895 12.1246ZM6.51615 12.1503L7.25307 12.8263L7.25311 12.8262L6.51615 12.1503ZM10.2201 8.11206L9.48535 7.43372L9.48315 7.43612L10.2201 8.11206ZM10.2292 8.10308L9.50612 7.41231L9.50504 7.41345L10.2292 8.10308ZM10.2589 8.07379L10.9411 8.80495L10.943 8.80319L10.2589 8.07379ZM10.2835 8.05172L10.9309 8.81387L10.9327 8.81229L10.2835 8.05172ZM10.31 8.03045L10.9188 8.82378L10.9224 8.82097L10.31 8.03045ZM10.3429 8.0064L10.9081 8.83136L10.9107 8.82951L10.3429 8.0064ZM10.3535 7.99865L10.8968 8.83825L10.9049 8.83292L10.3535 7.99865ZM10.3667 7.9909L9.83701 7.14272L9.83665 7.14294L10.3667 7.9909ZM10.4039 7.96912L10.882 8.84743L10.8826 8.8471L10.4039 7.96912ZM10.4299 7.9557L9.99057 7.05736L9.98768 7.05879L10.4299 7.9557ZM10.4653 7.93954L10.8555 8.86023L10.8569 8.85965L10.4653 7.93954ZM10.4964 7.92716L10.1515 6.98849L10.1492 6.98936L10.4964 7.92716ZM10.5279 7.91643L10.8294 8.86988L10.8312 8.8693L10.5279 7.91643ZM10.5641 7.90594L10.8125 8.8746L10.8129 8.87449L10.5641 7.90594ZM10.5924 7.89932L10.8021 8.8771L10.8031 8.87687L10.5924 7.89932ZM10.632 7.8919L10.7836 8.88035L10.7859 8.87998L10.632 7.8919ZM10.6592 7.88831L10.7722 8.88192L10.7753 8.88155L10.6592 7.88831ZM10.6993 7.88472L10.7559 8.88312L10.7581 8.88299L10.6993 7.88472ZM10.7281 7.88373L10.7132 6.88383L10.7085 6.88392L10.7281 7.88373ZM10.7659 7.88397L10.7284 8.88326L10.7307 8.88335L10.7659 7.88397ZM10.7981 7.886L10.881 6.88943L10.877 6.88911L10.7981 7.886ZM10.832 7.88945L10.9622 6.89795L10.9604 6.89772L10.832 7.88945ZM10.8674 7.89512L11.0463 6.91125L11.045 6.91101L10.8674 7.89512ZM10.8977 7.90117L11.1198 6.92614L11.118 6.92574L10.8977 7.90117ZM10.9348 7.91081L11.2094 6.94927L11.2081 6.94889L10.9348 7.91081ZM10.9629 7.91936L10.6445 8.86735L10.6493 8.86892L10.9629 7.91936ZM10.9991 7.93259L10.632 8.86279L10.6341 8.86361L10.9991 7.93259ZM11.0274 7.94436L11.4343 7.03089L11.4326 7.03014L11.0274 7.94436ZM11.0601 7.96004L10.6043 8.85014L10.6104 8.85323L11.0601 7.96004ZM11.0907 7.97644L11.5891 7.10951L11.5868 7.1082L11.0907 7.97644ZM11.1182 7.99312L10.5799 8.83586L10.5832 8.83797L11.1182 7.99312ZM11.1514 8.01552L11.7345 7.20311L11.7336 7.20243L11.1514 8.01552ZM11.1741 8.03244L10.5558 8.81842L10.5604 8.82197L11.1741 8.03244ZM11.2079 8.06055L11.8719 7.31286L11.8695 7.31073L11.2079 8.06055ZM11.2193 8.07005L11.8939 7.33188L11.8938 7.33174L11.2193 8.07005ZM11.2283 8.07922L11.9207 7.35768L11.9196 7.35667L11.2283 8.07922ZM11.2574 8.1088L11.9902 7.42839L11.9887 7.42673L11.2574 8.1088ZM11.2796 8.13366L10.5145 8.77758L10.5169 8.78043L11.2796 8.13366ZM11.3006 8.15988L10.5065 8.76769L10.5081 8.76986L11.3006 8.15988ZM11.3248 8.19324L10.4986 8.75654L10.4989 8.75703L11.3248 8.19324ZM11.3325 8.20373L10.4949 8.75009L10.4951 8.75036L11.3325 8.20373ZM12.5567 10.0792L11.7193 10.6258L11.7195 10.6261L12.5567 10.0792ZM12.927 10.1422L13.5368 10.9348L13.5369 10.9348L12.927 10.1422ZM14.5391 8.90182L15.149 9.69436L15.1507 9.69305L14.5391 8.90182ZM14.5513 8.89346L15.1414 9.70072L15.1429 9.69963L14.5513 8.89346ZM14.5857 8.86969L15.1287 9.70941L15.1319 9.70734L14.5857 8.86969ZM14.6122 8.85319L14.1062 7.99065L14.1035 7.99224L14.6122 8.85319ZM14.6433 8.83604L15.1057 9.72276L15.1083 9.72135L14.6433 8.83604ZM14.676 8.81993L15.0908 9.7298L15.0916 9.72944L14.676 8.81993ZM14.7035 8.80816L15.0805 9.73438L15.0824 9.73363L14.7035 8.80816ZM14.7408 8.79399L14.4178 7.8476L14.4165 7.84805L14.7408 8.79399ZM14.7672 8.78567L14.4799 7.82783L14.4765 7.82887L14.7672 8.78567ZM14.8061 8.77499L14.5744 7.8022L14.573 7.80253L14.8061 8.77499ZM14.8349 8.76899L15.0222 9.75129L15.0248 9.75078L14.8349 8.76899ZM14.8716 8.76261L15.0085 9.7532L15.0127 9.75259L14.8716 8.76261ZM14.9054 8.75892L14.9969 9.75473L14.9978 9.75465L14.9054 8.75892ZM14.9375 8.75646L14.8902 7.75759L14.889 7.75764L14.9375 8.75646ZM14.9765 8.75599L14.9657 9.75593L14.9663 9.75594L14.9765 8.75599ZM15.0042 8.75656L15.0517 7.75769L15.0502 7.75762L15.0042 8.75656ZM15.0459 8.76006L15.1542 7.76594L15.154 7.76592L15.0459 8.76006ZM15.0719 8.76318L15.2175 7.77382L15.2121 7.77306L15.0719 8.76318ZM15.1123 8.7705L14.9091 9.74965L14.912 9.75023L15.1123 8.7705ZM15.1406 8.77678L15.3827 7.80655L15.3802 7.80592L15.1406 8.77678ZM15.1762 8.78685L14.8788 9.74163L14.8849 9.74348L15.1762 8.78685ZM15.2095 8.79786L15.5494 7.8574L15.5481 7.85692L15.2095 8.79786ZM15.2387 8.8092L14.8549 9.73263L14.8579 9.73385L15.2387 8.8092ZM15.2771 8.8264L15.7173 7.9285L15.7131 7.92643L15.2771 8.8264ZM15.2903 8.83231L14.8345 9.7224L14.8362 9.72327L15.2903 8.83231ZM16.7847 9.5939L16.3306 10.4849L16.3307 10.4849L16.7847 9.5939ZM17.0971 9.51045L17.9343 10.0574L17.9344 10.0573L17.0971 9.51045ZM19.0419 6.53311L19.8792 7.07998L19.8792 7.07993L19.0419 6.53311ZM20.225 7.3095L21.0622 7.85636L21.0622 7.85635L20.225 7.3095ZM17.8142 11.0003L18.5932 11.6272L18.6243 11.5887L18.6514 11.5472L17.8142 11.0003ZM23.2718 1.39639H14.6223V3.39639H23.2718V1.39639ZM15.6125 2.25686L15.3608 0.470186L13.3803 0.749239L13.6321 2.53592L15.6125 2.25686ZM15.3608 0.470097C15.2293 -0.462356 14.3672 -1.11552 13.4314 -0.983047L13.7118 0.997208C13.5491 1.02024 13.4025 0.906719 13.3803 0.749328L15.3608 0.470097ZM13.4315 -0.983052C12.4962 -0.850678 11.8488 0.015258 11.9801 0.947377L13.9606 0.668416C13.9827 0.825378 13.8738 0.97428 13.7117 0.997213L13.4315 -0.983052ZM11.9801 0.947407L12.2039 2.53585L14.1844 2.25683L13.9606 0.668386L11.9801 0.947407ZM13.1942 1.39634H10.9436V3.39634H13.1942V1.39634ZM11.9338 2.53585L12.1576 0.947407L10.1772 0.668386L9.9534 2.25683L11.9338 2.53585ZM12.1576 0.947511C12.2891 0.0153146 11.6416 -0.850692 10.7063 -0.983054L10.4261 0.997216C10.2641 0.974294 10.1551 0.825416 10.1772 0.668281L12.1576 0.947511ZM10.7068 -0.982989C9.77076 -1.11589 8.90836 -0.462281 8.77701 0.470232L10.7575 0.749193C10.7353 0.90655 10.5888 1.02032 10.4256 0.997151L10.7068 -0.982989ZM8.77701 0.470187L8.52526 2.25687L10.5057 2.53592L10.7574 0.749238L8.77701 0.470187ZM9.51548 1.39639H0.866089V3.39639H9.51548V1.39639ZM0.866089 1.39639C-0.165959 1.39639 -1 2.23572 -1 3.2645H1C1 3.3359 0.942992 3.39639 0.866089 3.39639V1.39639ZM-1 3.2645V17.1753H1V3.2645H-1ZM-1 17.1753C-1 18.2041 -0.165958 19.0434 0.866089 19.0434V17.0434C0.942992 17.0434 1 17.1039 1 17.1753H-1ZM0.866089 19.0434H7.31106V17.0434H0.866089V19.0434ZM6.32084 17.9039L5.56978 23.2344L7.55022 23.5135L8.30128 18.1829L6.32084 17.9039ZM5.56979 23.2343C5.43836 24.1665 6.08579 25.0325 7.02111 25.1649L7.30135 23.1846C7.46332 23.2076 7.57236 23.3564 7.5502 23.5136L5.56979 23.2343ZM7.02027 25.1648C7.10166 25.1764 7.18212 25.1818 7.26104 25.1818V23.1818C7.27404 23.1818 7.28785 23.1827 7.30219 23.1848L7.02027 25.1648ZM7.26104 25.1818C8.10082 25.1818 8.83037 24.5643 8.95042 23.7116L6.96995 23.4327C6.99034 23.2879 7.11455 23.1818 7.26104 23.1818V25.1818ZM8.95041 23.7117L9.35354 20.8502L7.3731 20.5712L6.96996 23.4326L8.95041 23.7117ZM8.36332 21.7107H15.7746V19.7107H8.36332V21.7107ZM14.7844 20.8502L15.1875 23.7117L17.168 23.4326L16.7648 20.5712L14.7844 20.8502ZM15.1875 23.7117C15.3077 24.5643 16.0371 25.1818 16.8769 25.1818V23.1818C17.0234 23.1818 17.1476 23.2879 17.168 23.4326L15.1875 23.7117ZM16.8769 25.1818C16.9567 25.1818 17.0367 25.1762 17.1163 25.165L16.8371 23.1846C16.8497 23.1828 16.8629 23.1818 16.8769 23.1818V25.1818ZM17.1168 25.1649C18.0521 25.0325 18.6994 24.1666 18.5681 23.2345L16.5877 23.5134C16.5656 23.3565 16.6745 23.2076 16.8366 23.1846L17.1168 25.1649ZM18.5681 23.2344L17.8171 17.9039L15.8366 18.1829L16.5877 23.5135L18.5681 23.2344ZM16.8269 19.0434H23.2718V17.0434H16.8269V19.0434ZM23.2718 19.0434C24.3039 19.0434 25.1379 18.2041 25.1379 17.1753H23.1379C23.1379 17.1039 23.1949 17.0434 23.2718 17.0434V19.0434ZM25.1379 17.1753V3.2645H23.1379V17.1753H25.1379ZM25.1379 3.2645C25.1379 2.23572 24.3039 1.39639 23.2718 1.39639V3.39639C23.1949 3.39639 23.1379 3.3359 23.1379 3.2645H25.1379ZM9.55329 19.4328L9.72937 18.1829L7.74893 17.9039L7.57285 19.1538L9.55329 19.4328ZM8.73915 19.0434H15.3988V17.0434H8.73915V19.0434ZM14.4086 18.1829L14.5847 19.4328L16.5651 19.1538L16.389 17.9039L14.4086 18.1829ZM15.5749 18.2933H8.56307V20.2933H15.5749V18.2933ZM16.9775 10.4517C16.9819 10.4451 16.9887 10.4355 16.9985 10.4239L18.5244 11.7169C18.5693 11.6639 18.6089 11.6104 18.6438 11.5577L16.9775 10.4517ZM16.9984 10.424C17.0033 10.4183 17.007 10.4141 17.0065 10.4146C17.0064 10.4147 17.0064 10.4147 17.006 10.4152C17.0057 10.4156 17.0051 10.4163 17.0044 10.417C17.0031 10.4186 17.0008 10.4211 16.9981 10.4243L18.512 11.7313C18.5103 11.7332 18.5091 11.7345 18.5089 11.7348C18.5087 11.735 18.5087 11.7351 18.5089 11.7348C18.509 11.7347 18.5095 11.7341 18.51 11.7336C18.5116 11.7317 18.5175 11.725 18.5245 11.7168L16.9984 10.424ZM17.0004 10.4216C17.0035 10.4181 17.0115 10.4092 17.0245 10.3973L18.3723 11.875C18.4251 11.8268 18.4707 11.7787 18.5097 11.7339L17.0004 10.4216ZM17.0258 10.3962C17.0329 10.3897 17.0387 10.3846 17.0421 10.3817C17.0452 10.379 17.0477 10.3768 17.0467 10.3777C17.0467 10.3777 17.0431 10.3808 17.039 10.3843C17.0346 10.3882 17.0278 10.3941 17.0196 10.4015L18.365 11.8814C18.3578 11.8879 18.352 11.893 18.3486 11.8959C18.3455 11.8986 18.343 11.9008 18.344 11.8999C18.344 11.8999 18.3476 11.8968 18.3517 11.8933C18.3561 11.8895 18.3629 11.8835 18.3711 11.8761L17.0258 10.3962ZM17.0274 10.3945C17.0297 10.3925 17.0387 10.3847 17.0538 10.374L18.2044 12.0099C18.2635 11.9683 18.3145 11.9264 18.3572 11.8884L17.0274 10.3945ZM17.0467 10.3791L17.0444 10.3807L18.2093 12.0065L18.2116 12.0048L17.0467 10.3791ZM17.0551 10.3731C17.0707 10.3623 17.0811 10.3566 17.0825 10.3558L18.0376 12.113C18.0847 12.0874 18.1399 12.0549 18.1985 12.0141L17.0551 10.3731ZM17.0829 10.3556C17.0758 10.3595 17.07 10.3627 17.0665 10.3647C17.0648 10.3657 17.0633 10.3665 17.0624 10.367C17.062 10.3672 17.0616 10.3675 17.0614 10.3676C17.0611 10.3678 17.061 10.3678 17.061 10.3678C17.0606 10.368 17.063 10.3667 17.0662 10.3649C17.0696 10.363 17.0752 10.3599 17.0824 10.3561L18.0176 12.124C18.0264 12.1193 18.0337 12.1153 18.0388 12.1125C18.0437 12.1097 18.0478 12.1074 18.049 12.1067C18.0494 12.1065 18.0498 12.1063 18.0499 12.1062C18.0501 12.1061 18.0501 12.1061 18.0501 12.1061C18.0501 12.1061 18.0494 12.1065 18.0485 12.107C18.0467 12.108 18.0426 12.1103 18.0372 12.1133L17.0829 10.3556ZM17.0869 10.3537C17.101 10.3464 17.1108 10.3423 17.1143 10.341L17.8494 12.201C17.8992 12.1813 17.9547 12.1569 18.0131 12.1264L17.0869 10.3537ZM17.1167 10.34C17.1132 10.3414 17.1102 10.3426 17.1087 10.3431C17.1083 10.3433 17.108 10.3435 17.1077 10.3436C17.1074 10.3437 17.1072 10.3438 17.107 10.3438C17.1067 10.344 17.1067 10.344 17.1069 10.3439C17.1071 10.3438 17.1132 10.3414 17.1216 10.3383L17.8163 12.2137C17.829 12.209 17.8394 12.2049 17.8439 12.2031C17.8451 12.2027 17.8462 12.2022 17.8469 12.2019C17.8483 12.2014 17.8476 12.2016 17.8485 12.2013C17.8491 12.2011 17.8483 12.2014 17.847 12.2019L17.1167 10.34ZM17.1192 10.3392C17.13 10.3351 17.14 10.3321 17.1489 10.3298L17.6467 12.2668C17.7038 12.2522 17.7613 12.2343 17.8187 12.2128L17.1192 10.3392ZM17.152 10.329L17.1512 10.3291L17.6208 12.2732C17.6208 12.2732 17.6326 12.2704 17.6436 12.2676L17.152 10.329ZM17.1542 10.3284C17.1583 10.3275 17.1692 10.325 17.1855 10.323L17.435 12.3074C17.5024 12.2989 17.5638 12.2868 17.6178 12.274L17.1542 10.3284ZM17.1908 10.3223C17.202 10.321 17.2106 10.3202 17.212 10.3201C17.2125 10.32 17.2128 10.32 17.2126 10.32C17.2125 10.32 17.2125 10.32 17.2123 10.32C17.2121 10.32 17.2118 10.3201 17.2114 10.3201C17.2102 10.3202 17.2071 10.3205 17.2034 10.3209L17.4029 12.3109C17.4004 12.3112 17.3985 12.3113 17.3984 12.3113C17.3972 12.3115 17.4001 12.3112 17.4014 12.3111C17.4052 12.3107 17.4161 12.3097 17.4297 12.308L17.1908 10.3223ZM17.1881 10.3225C17.1899 10.3223 17.2022 10.3209 17.2218 10.3209V12.3209C17.296 12.3209 17.3626 12.3157 17.4182 12.3092L17.1881 10.3225ZM17.2815 10.3227L17.2775 10.3225L17.1583 12.3189L17.1622 12.3192L17.2815 10.3227ZM17.2242 10.3207C17.2407 10.3208 17.2507 10.3218 17.2514 10.3219L17.0499 12.3117C17.0954 12.3164 17.1503 12.3203 17.2115 12.3207L17.2242 10.3207ZM17.2512 10.3219C17.249 10.3217 17.2463 10.3214 17.2458 10.3214C17.2447 10.3212 17.2448 10.3213 17.2453 10.3213C17.2464 10.3214 17.2517 10.322 17.2592 10.3229L17.0085 12.3072C17.0216 12.3088 17.0326 12.31 17.0392 12.3107C17.0425 12.311 17.0454 12.3113 17.0471 12.3115C17.0494 12.3117 17.0495 12.3117 17.0501 12.3118L17.2512 10.3219ZM17.2587 10.3229C17.2661 10.3238 17.2761 10.3254 17.2881 10.3282L16.8406 12.2774C16.8987 12.2908 16.955 12.3004 17.0091 12.3072L17.2587 10.3229ZM17.2939 10.3295C17.3031 10.3317 17.3098 10.3334 17.3109 10.3337C17.3113 10.3338 17.3118 10.334 17.3102 10.3335C17.3092 10.3333 17.3065 10.3326 17.3035 10.3318L16.8012 12.2677C16.8002 12.2674 16.7995 12.2672 16.8005 12.2675C16.8009 12.2676 16.8033 12.2682 16.8058 12.2689C16.8108 12.2702 16.8216 12.273 16.8348 12.2761L17.2939 10.3295ZM17.2936 10.3293C17.2985 10.3305 17.3088 10.3333 17.323 10.3384L16.6437 12.2195C16.7034 12.2411 16.7598 12.2575 16.8112 12.2702L17.2936 10.3293ZM17.3031 10.3314L17.2988 10.33L16.6592 12.225L16.6635 12.2264L17.3031 10.3314ZM17.3243 10.339C17.3426 10.3457 17.3532 10.351 17.3539 10.3513L16.4636 12.1423C16.5105 12.1656 16.5679 12.1918 16.6337 12.216L17.3243 10.339ZM17.3568 10.3528C17.3329 10.3408 17.3129 10.332 17.3001 10.3265C17.2936 10.3237 17.2882 10.3215 17.2849 10.3201C17.2832 10.3194 17.2817 10.3189 17.2808 10.3185C17.28 10.3181 17.2792 10.3178 17.2792 10.3178C17.2785 10.3176 17.2806 10.3184 17.2832 10.3194C17.286 10.3206 17.2907 10.3226 17.2966 10.3251C17.3084 10.3301 17.3272 10.3384 17.35 10.3498L16.4539 12.1378C16.4777 12.1498 16.4977 12.1586 16.5106 12.1641C16.5171 12.1669 16.5224 12.1691 16.5258 12.1705C16.5275 12.1712 16.5289 12.1718 16.5298 12.1721C16.5307 12.1725 16.5314 12.1728 16.5315 12.1728C16.5322 12.1731 16.53 12.1722 16.5275 12.1712C16.5247 12.17 16.52 12.1681 16.514 12.1656C16.5023 12.1605 16.4835 12.1522 16.4607 12.1408L17.3568 10.3528ZM17.356 10.3529L15.6367 9.47667L14.7286 11.2586L16.4479 12.1348L17.356 10.3529ZM15.6365 9.47659C15.2093 9.25898 14.6953 9.30671 14.3155 9.59897L15.5351 11.184C15.3034 11.3623 14.9895 11.3915 14.7287 11.2587L15.6365 9.47659ZM14.3155 9.59895L12.3542 11.108L13.5738 12.6931L15.5351 11.1841L14.3155 9.59895ZM12.3538 11.1083C12.3662 11.0988 12.3752 11.0925 12.3771 11.0911C12.3782 11.0904 12.3784 11.0903 12.3765 11.0915C12.3756 11.0922 12.3747 11.0928 12.373 11.0939C12.3715 11.095 12.3695 11.0963 12.3673 11.0978L13.4947 12.7498C13.4974 12.7479 13.4965 12.7486 13.5021 12.7448C13.5058 12.7422 13.5116 12.7383 13.5181 12.7338C13.5311 12.7247 13.5511 12.7106 13.5743 12.6927L12.3538 11.1083ZM12.3678 11.0975C12.3512 11.1088 12.3381 11.1184 12.3303 11.1243C12.3263 11.1273 12.323 11.1297 12.3212 11.1311C12.3197 11.1323 12.3177 11.1338 12.3183 11.1333C12.3183 11.1333 12.3187 11.133 12.3192 11.1326C12.3198 11.1322 12.3206 11.1315 12.3217 11.1307C12.3238 11.1292 12.3272 11.1266 12.3314 11.1235C12.3397 11.1174 12.3531 11.1078 12.3702 11.0965L13.4712 12.7662C13.49 12.7538 13.5052 12.7429 13.5152 12.7355C13.5247 12.7286 13.5323 12.7227 13.5334 12.7219C13.5348 12.7208 13.5337 12.7217 13.5331 12.7221C13.532 12.7229 13.5297 12.7247 13.5265 12.7271C13.5204 12.7316 13.509 12.74 13.4942 12.7501L12.3678 11.0975ZM12.4009 11.0771L12.3983 11.0787L13.4378 12.7873L13.4404 12.7857L12.4009 11.0771ZM12.3719 11.0953C12.3798 11.0902 12.3862 11.0861 12.3907 11.0834C12.3951 11.0807 12.3983 11.0788 12.399 11.0784C12.3994 11.0781 12.3995 11.0781 12.399 11.0784C12.3987 11.0785 12.3985 11.0787 12.398 11.079C12.3975 11.0793 12.3969 11.0796 12.3962 11.08C12.3937 11.0815 12.3884 11.0846 12.3822 11.0884L13.4129 12.8023C13.4102 12.804 13.4083 12.805 13.4092 12.8045C13.4102 12.8039 13.4096 12.8043 13.4115 12.8031C13.4127 12.8025 13.4145 12.8014 13.4167 12.8001C13.4244 12.7955 13.4425 12.7848 13.4641 12.7707L12.3719 11.0953ZM12.3835 11.0876C12.3817 11.0887 12.38 11.0897 12.3788 11.0904C12.3773 11.0913 12.3766 11.0917 12.3756 11.0923C12.3739 11.0933 12.3738 11.0934 12.3743 11.0931C12.3751 11.0926 12.3819 11.0886 12.3919 11.0831L13.3482 12.8397C13.3675 12.8292 13.3834 12.8199 13.3934 12.814C13.3985 12.811 13.4029 12.8083 13.4058 12.8066C13.4097 12.8042 13.4099 12.8041 13.4116 12.8031L12.3835 11.0876ZM12.3922 11.083C12.402 11.0777 12.4091 11.0741 12.4109 11.0732C12.4119 11.0727 12.4122 11.0725 12.4111 11.0731C12.4106 11.0733 12.41 11.0736 12.4089 11.0742C12.4079 11.0747 12.4065 11.0753 12.405 11.0761L13.2882 12.8705C13.293 12.8681 13.287 12.8711 13.2939 12.8677C13.2967 12.8663 13.3009 12.8642 13.3058 12.8618C13.3155 12.857 13.3304 12.8494 13.3479 12.8399L12.3922 11.083ZM12.4005 11.0783C12.3977 11.0797 12.3977 11.0797 12.3989 11.0791C12.4002 11.0785 12.4039 11.0767 12.4092 11.0743L13.2311 12.8977C13.2584 12.8853 13.2814 12.8739 13.2927 12.8683L12.4005 11.0783ZM12.4142 11.0721C12.42 11.0695 12.4239 11.0679 12.4248 11.0675C12.4252 11.0673 12.4251 11.0674 12.4205 11.0693L13.1723 12.9226C13.1777 12.9204 13.2008 12.9111 13.226 12.8999L12.4142 11.0721ZM12.4218 11.0687C12.4233 11.0681 12.4278 11.0663 12.4346 11.0639L13.1026 12.9491C13.128 12.9401 13.151 12.9312 13.171 12.9231L12.4218 11.0687ZM12.4327 11.0646C12.4395 11.0622 12.4436 11.0609 12.4426 11.0612L13.0483 12.9673C13.0627 12.9627 13.0823 12.9563 13.1045 12.9484L12.4327 11.0646ZM12.4463 11.0601C12.4517 11.0584 12.4552 11.0574 12.4563 11.0571L12.9745 12.9888C12.9957 12.9831 13.0193 12.9764 13.0446 12.9685L12.4463 11.0601ZM12.4576 11.0568C12.4533 11.0579 12.4535 11.0578 12.4544 11.0576C12.4557 11.0573 12.4603 11.0561 12.4668 11.0546L12.9203 13.0025C12.9458 12.9965 12.9686 12.9904 12.9732 12.9891L12.4576 11.0568ZM12.4673 11.0545C12.4736 11.053 12.4782 11.0521 12.4801 11.0517C12.4819 11.0513 12.4822 11.0513 12.4794 11.0518L12.8417 13.0187C12.8574 13.0158 12.8862 13.0104 12.9199 13.0026L12.4673 11.0545ZM12.4832 11.0511C12.4781 11.052 12.4738 11.0528 12.4714 11.0533C12.4704 11.0534 12.469 11.0537 12.4687 11.0538C12.468 11.0539 12.4679 11.0539 12.4679 11.0539C12.468 11.0539 12.4698 11.0536 12.4726 11.0531C12.4754 11.0526 12.4798 11.0518 12.4853 11.051L12.7965 13.0266C12.8135 13.0239 12.8275 13.0213 12.8336 13.0202C12.8353 13.0199 12.8368 13.0196 12.8378 13.0194C12.8391 13.0192 12.8393 13.0191 12.8399 13.019C12.8408 13.0189 12.8398 13.0191 12.838 13.0194L12.4832 11.0511ZM12.4899 11.0503C12.4968 11.0492 12.502 11.0485 12.5047 11.0482C12.5074 11.0479 12.5084 11.0478 12.5067 11.048L12.6988 13.0387C12.7203 13.0367 12.7535 13.0332 12.7919 13.0273L12.4899 11.0503ZM12.5086 11.0478C12.4983 11.0488 12.4899 11.0497 12.4851 11.0503C12.4826 11.0506 12.4806 11.0508 12.4795 11.0509C12.4789 11.051 12.4784 11.0511 12.4782 11.0511C12.4779 11.0511 12.4778 11.0511 12.4779 11.0511C12.4779 11.0511 12.4789 11.051 12.4803 11.0508C12.4818 11.0507 12.4841 11.0504 12.4869 11.0501C12.4924 11.0495 12.5013 11.0487 12.5124 11.0478L12.6632 13.0421C12.6768 13.0411 12.6881 13.04 12.6962 13.0391C12.704 13.0383 12.7103 13.0376 12.7127 13.0373C12.7134 13.0372 12.714 13.0371 12.7143 13.0371C12.7147 13.0371 12.7148 13.037 12.7149 13.037C12.715 13.037 12.7142 13.0371 12.713 13.0373C12.7106 13.0375 12.7047 13.0382 12.6969 13.0389L12.5086 11.0478ZM12.5113 11.0479C12.5143 11.0477 12.5223 11.0471 12.5341 11.0471V13.0471C12.5817 13.0471 12.6255 13.045 12.6643 13.042L12.5113 11.0479ZM12.5996 11.0493L12.5968 11.0491L12.4657 13.0448L12.4686 13.045L12.5996 11.0493ZM12.5348 11.047C12.5468 11.047 12.5583 11.0477 12.5693 11.0491L12.3329 13.035C12.3971 13.0427 12.4621 13.0467 12.5277 13.047L12.5348 11.047ZM12.5695 11.0491C12.5852 11.0509 12.5979 11.0529 12.6061 11.0542C12.614 11.0555 12.6197 11.0566 12.6202 11.0567C12.6203 11.0567 12.6206 11.0568 12.6189 11.0564C12.6177 11.0562 12.615 11.0557 12.6119 11.0551C12.6058 11.054 12.5948 11.052 12.5812 11.0499L12.2691 13.0254C12.2599 13.0239 12.2532 13.0227 12.2514 13.0224C12.2505 13.0222 12.25 13.0221 12.2509 13.0223C12.2514 13.0224 12.2538 13.0228 12.2561 13.0233C12.2608 13.0241 12.2709 13.026 12.2831 13.028C12.2957 13.03 12.3127 13.0326 12.3328 13.035L12.5695 11.0491ZM12.5795 11.0496C12.5749 11.0489 12.5728 11.0486 12.5713 11.0483C12.57 11.0481 12.5707 11.0482 12.5725 11.0486C12.576 11.0492 12.5872 11.0512 12.6029 11.055L12.1355 12.9996C12.1991 13.0149 12.2564 13.0234 12.2709 13.0257L12.5795 11.0496ZM12.6003 11.0544C12.6134 11.0575 12.6239 11.0603 12.6309 11.0623C12.6377 11.0642 12.6424 11.0656 12.643 11.0658C12.6433 11.0659 12.6434 11.0659 12.6421 11.0655C12.6413 11.0653 12.639 11.0646 12.6367 11.0639C12.6319 11.0624 12.6229 11.0597 12.612 11.0566L12.0675 12.9811C12.0643 12.9802 12.0618 12.9794 12.0602 12.979C12.0586 12.9785 12.0576 12.9782 12.0575 12.9782C12.0575 12.9781 12.0576 12.9782 12.0579 12.9783C12.0583 12.9784 12.0586 12.9785 12.0594 12.9787C12.0606 12.9791 12.0631 12.9799 12.0659 12.9807C12.0756 12.9836 12.1034 12.992 12.1381 13.0002L12.6003 11.0544ZM12.6144 11.0573C12.6104 11.0562 12.6085 11.0556 12.6073 11.0552C12.6061 11.0549 12.6066 11.055 12.6081 11.0555C12.6109 11.0564 12.62 11.0592 12.6328 11.0639L11.9462 12.9423C12.0012 12.9624 12.0508 12.9763 12.0652 12.9804L12.6144 11.0573ZM12.6333 11.0641C12.6428 11.0675 12.6504 11.0705 12.6556 11.0726C12.6608 11.0747 12.6645 11.0763 12.6656 11.0768C12.6664 11.0771 12.6668 11.0773 12.6636 11.0759C12.6614 11.0749 12.6558 11.0725 12.6495 11.0699L11.8685 12.911C11.8673 12.9105 11.8668 12.9103 11.8696 12.9115C11.8714 12.9123 11.8769 12.9147 11.8827 12.9172C11.8944 12.9222 11.9173 12.9318 11.9457 12.9421L12.6333 11.0641ZM12.6476 11.069C12.6418 11.0666 12.6423 11.0667 12.6449 11.0679C12.648 11.0693 12.656 11.0729 12.6668 11.0785L11.7595 12.8608C11.809 12.886 11.8528 12.9044 11.8704 12.9119L12.6476 11.069ZM12.666 11.0781C12.6784 11.0844 12.687 11.0892 12.6892 11.0904C12.6904 11.0911 12.6908 11.0913 12.6895 11.0906C12.6889 11.0902 12.6881 11.0898 12.6868 11.089C12.6857 11.0884 12.684 11.0874 12.6823 11.0864L11.6823 12.8185C11.683 12.8189 11.6953 12.826 11.706 12.8321C11.7185 12.8391 11.7374 12.8496 11.7603 12.8612L12.666 11.0781ZM12.6803 11.0853C12.6772 11.0835 12.6781 11.084 12.6811 11.0858C12.6841 11.0876 12.6904 11.0915 12.6988 11.0972L11.5836 12.7574C11.626 12.7859 11.6635 12.8077 11.6843 12.8197L12.6803 11.0853ZM12.6968 11.0958C12.7043 11.1009 12.7096 11.1046 12.7117 11.1061C12.7136 11.1075 12.7139 11.1078 12.7107 11.1054L11.5101 12.7049C11.5228 12.7144 11.5511 12.7357 11.5856 12.7587L12.6968 11.0958ZM12.7103 11.1051C12.7119 11.1063 12.7175 11.1105 12.7255 11.1174L11.4227 12.6349C11.4544 12.6621 11.4842 12.6855 11.5105 12.7052L12.7103 11.1051ZM12.7252 11.1171C12.7326 11.1235 12.7372 11.1279 12.7383 11.1289L11.3506 12.5692C11.3711 12.5889 11.3953 12.6114 11.423 12.6351L12.7252 11.1171ZM12.7383 11.129C12.7452 11.1356 12.7497 11.1404 12.7516 11.1425L11.2732 12.4895C11.296 12.5145 11.3217 12.5414 11.3506 12.5691L12.7383 11.129ZM12.7524 11.1434C12.7518 11.1427 12.7555 11.1467 12.7614 11.154L11.2096 12.4158C11.233 12.4445 11.2547 12.4691 11.2725 12.4887L12.7524 11.1434ZM12.7636 11.1568C12.7495 11.1392 12.7374 11.1255 12.7303 11.1174C12.7267 11.1134 12.7237 11.1101 12.7221 11.1083C12.7213 11.1073 12.7205 11.1066 12.7202 11.1062C12.7198 11.1057 12.7199 11.1058 12.7199 11.1058C12.7201 11.106 12.7216 11.1078 12.7238 11.1102C12.726 11.1127 12.7295 11.1166 12.7336 11.1214C12.7418 11.1309 12.7544 11.1459 12.7689 11.1651L11.1761 12.3745C11.1927 12.3964 11.2073 12.414 11.2177 12.426C11.2276 12.4375 11.2359 12.4467 11.238 12.449C11.2386 12.4496 11.2393 12.4503 11.2393 12.4504C11.2396 12.4507 11.2394 12.4505 11.2392 12.4502C11.2386 12.4497 11.2368 12.4476 11.2342 12.4447C11.2293 12.4392 11.2194 12.4279 11.2074 12.413L12.7636 11.1568ZM12.7661 11.1614C12.7747 11.1726 12.7814 11.1819 12.7858 11.1882C12.7901 11.1944 12.7931 11.1988 12.7936 11.1995C12.7938 11.1999 12.7939 11.2 12.7932 11.1989C12.7928 11.1984 12.7913 11.1961 12.79 11.1941C12.7872 11.1899 12.7817 11.1817 12.775 11.172L11.1294 12.3086C11.1261 12.3038 11.1239 12.3005 11.1244 12.3013C11.1247 12.3018 11.1249 12.302 11.1261 12.3039C11.1271 12.3054 11.1288 12.3079 11.1307 12.3108C11.1377 12.3212 11.1553 12.3474 11.1789 12.3783L12.7661 11.1614ZM12.7761 11.1736C12.7617 11.1526 12.7492 11.1361 12.7416 11.1263C12.7378 11.1213 12.7347 11.1173 12.7329 11.1151C12.732 11.114 12.7313 11.1131 12.731 11.1126C12.7309 11.1125 12.7308 11.1124 12.7307 11.1123C12.7306 11.1122 12.7306 11.1122 12.7306 11.1122C12.7305 11.1121 12.7305 11.1121 12.7306 11.1122C12.7308 11.1124 12.7325 11.1145 12.7348 11.1175C12.7371 11.1205 12.7407 11.1252 12.7451 11.1311C12.7538 11.1426 12.7668 11.1607 12.7816 11.1836L11.1018 12.269C11.1182 12.2944 11.133 12.3148 11.1434 12.3287C11.1532 12.3419 11.1615 12.3524 11.1632 12.3544C11.1653 12.3571 11.1636 12.355 11.1636 12.3549C11.1627 12.3539 11.1605 12.351 11.1575 12.3472C11.1518 12.3397 11.141 12.3255 11.1282 12.3069L12.7761 11.1736ZM12.7791 11.1797L11.654 9.45608L9.97923 10.5493L11.1043 12.2729L12.7791 11.1797ZM11.6539 9.45594C11.2111 8.77785 10.2471 8.69709 9.69848 9.29556L11.1727 10.6471C10.8377 11.0125 10.2492 10.9627 9.97933 10.5495L11.6539 9.45594ZM9.69862 9.29541L6.01881 13.3077L7.49277 14.6595L11.1726 10.6472L9.69862 9.29541ZM6.0601 13.2652L6.05732 13.2679L7.4487 14.7046L7.45148 14.7019L6.0601 13.2652ZM6.02028 13.3057C6.02863 13.2968 6.03485 13.2906 6.03738 13.2882C6.03972 13.2859 6.04018 13.2855 6.0363 13.2891L7.39325 14.7584C7.41046 14.7425 7.44655 14.709 7.48574 14.6668L6.02028 13.3057ZM6.03298 13.2922C6.0241 13.3005 6.01695 13.3074 6.01307 13.3112C6.01109 13.3131 6.00939 13.3148 6.0086 13.3155C6.00746 13.3167 6.00764 13.3165 6.00767 13.3165C6.00789 13.3162 6.01149 13.3127 6.01657 13.3079C6.02181 13.303 6.03013 13.2953 6.04074 13.286L7.35675 14.792C7.37012 14.7803 7.38115 14.7701 7.38907 14.7627C7.39683 14.7553 7.40308 14.7492 7.40595 14.7464C7.40731 14.7451 7.40881 14.7436 7.40899 14.7435C7.40952 14.7429 7.40914 14.7433 7.40848 14.7439C7.40725 14.7451 7.40276 14.7495 7.39657 14.7553L6.03298 13.2922ZM6.04324 13.2838C6.05187 13.2763 6.05899 13.2705 6.0638 13.2666C6.06852 13.2628 6.07187 13.2602 6.07263 13.2596C6.07305 13.2593 6.07314 13.2592 6.07256 13.2596C6.07171 13.2603 6.07134 13.2606 6.06949 13.262C6.06683 13.264 6.06102 13.2685 6.0544 13.2737L7.28567 14.8497C7.28386 14.8511 7.28289 14.8519 7.28509 14.8502C7.28618 14.8493 7.29144 14.8453 7.2965 14.8414C7.30689 14.8334 7.32876 14.8163 7.35425 14.7942L6.04324 13.2838ZM6.05343 13.2744C6.04641 13.2799 6.04034 13.2848 6.03754 13.287C6.03555 13.2886 6.03523 13.2889 6.03429 13.2896C6.03367 13.2901 6.03373 13.2901 6.03415 13.2897C6.0349 13.2891 6.03837 13.2864 6.04343 13.2826C6.04858 13.2787 6.05635 13.2729 6.06617 13.266L7.2129 14.9046C7.24196 14.8843 7.26489 14.8663 7.27566 14.8577C7.28088 14.8536 7.28634 14.8492 7.28739 14.8484C7.28962 14.8466 7.28859 14.8474 7.28664 14.849L6.05343 13.2744ZM6.06744 13.2651C6.07826 13.2576 6.08536 13.2534 6.08771 13.2521L7.08518 14.9856C7.12317 14.9637 7.16639 14.9371 7.21162 14.9055L6.06744 13.2651ZM6.08813 13.2518C6.09959 13.2452 6.10801 13.2408 6.10877 13.2404C6.10899 13.2403 6.10928 13.2401 6.10669 13.2415C6.10485 13.2425 6.1008 13.2446 6.09617 13.247L7.03589 15.0125C7.03468 15.0132 7.03405 15.0135 7.03563 15.0127C7.03645 15.0122 7.04015 15.0103 7.04378 15.0084C7.05135 15.0044 7.06656 14.9963 7.08476 14.9858L6.08813 13.2518ZM6.09686 13.2467C6.09985 13.2451 6.10455 13.2427 6.11084 13.2398L6.94052 15.0596C6.97396 15.0444 7.00553 15.0286 7.0352 15.0129L6.09686 13.2467ZM6.11564 13.2377C6.11311 13.2388 6.1127 13.239 6.11143 13.2395C6.11059 13.2399 6.11058 13.2399 6.111 13.2397C6.11175 13.2394 6.11572 13.2377 6.12154 13.2352L6.89134 15.0811C6.91333 15.072 6.93406 15.0625 6.93572 15.0618L6.11564 13.2377ZM6.12041 13.2357C6.12402 13.2342 6.13251 13.2308 6.14512 13.2268L6.75358 15.1319C6.80466 15.1156 6.85115 15.098 6.89248 15.0807L6.12041 13.2357ZM6.12336 13.234L6.12048 13.235L6.77247 15.1257L6.77534 15.1247L6.12336 13.234ZM6.14721 13.2262C6.16203 13.2215 6.1718 13.2194 6.17412 13.2189L6.58834 15.1755C6.6344 15.1658 6.68783 15.1527 6.74574 15.1345L6.14721 13.2262ZM6.1729 13.2191C6.1858 13.2164 6.19553 13.2146 6.1972 13.2143C6.19771 13.2143 6.1989 13.214 6.19655 13.2145C6.19513 13.2147 6.1916 13.2153 6.18737 13.2161L6.55236 15.1825C6.55004 15.183 6.54841 15.1833 6.54889 15.1832C6.54898 15.1832 6.54908 15.1831 6.54935 15.1831C6.54957 15.1831 6.54994 15.183 6.55034 15.1829C6.55113 15.1828 6.55242 15.1825 6.55393 15.1823C6.55938 15.1813 6.57288 15.1788 6.58955 15.1753L6.1729 13.2191ZM6.17863 13.2178C6.18834 13.2159 6.19657 13.2147 6.20309 13.214L6.42557 15.2016C6.46924 15.1967 6.51453 15.19 6.5611 15.1809L6.17863 13.2178ZM6.20602 13.2137C6.20127 13.2142 6.1973 13.2147 6.19488 13.2149C6.19366 13.2151 6.19258 13.2152 6.19195 13.2153C6.19113 13.2154 6.19103 13.2154 6.19079 13.2154C6.19044 13.2155 6.19177 13.2153 6.19377 13.2151C6.19587 13.2148 6.19936 13.2145 6.20378 13.214L6.39895 15.2045C6.41146 15.2033 6.42179 15.202 6.4249 15.2017C6.42575 15.2016 6.42672 15.2015 6.42698 15.2014C6.42742 15.2014 6.42743 15.2014 6.42729 15.2014C6.42703 15.2014 6.42522 15.2016 6.42264 15.2019L6.20602 13.2137ZM6.20868 13.2136C6.20582 13.2138 6.2168 13.2127 6.23588 13.2127V15.2127C6.29862 15.2127 6.35325 15.2088 6.39405 15.205L6.20868 13.2136ZM6.29606 13.2145L6.2937 13.2143L6.17335 15.2107L6.1757 15.2109L6.29606 13.2145ZM6.23544 13.2125C6.25492 13.2126 6.26673 13.2139 6.26706 13.2139L6.05242 15.2023C6.10178 15.2077 6.16281 15.2124 6.23161 15.2125L6.23544 13.2125ZM6.26972 13.2142C6.27668 13.215 6.28228 13.2157 6.28596 13.2162C6.28955 13.2166 6.292 13.217 6.29223 13.217C6.29237 13.217 6.29229 13.217 6.29158 13.2169C6.29121 13.2169 6.28961 13.2166 6.2884 13.2165C6.28567 13.2161 6.28053 13.2153 6.27444 13.2145L6.00186 15.1958C5.99938 15.1955 5.99783 15.1952 5.9987 15.1954C5.99928 15.1955 5.99947 15.1955 6.00089 15.1957C6.00198 15.1959 6.00369 15.1961 6.00562 15.1964C6.01268 15.1974 6.02934 15.1998 6.04977 15.2021L6.26972 13.2142ZM6.27435 13.2145C6.28171 13.2155 6.2904 13.217 6.30032 13.2192L5.8634 15.1709C5.91047 15.1814 5.95678 15.1896 6.00196 15.1958L6.27435 13.2145ZM6.29927 13.219C6.29805 13.2187 6.29688 13.2184 6.29606 13.2182C6.29514 13.218 6.29459 13.2179 6.29408 13.2178C6.29306 13.2176 6.29318 13.2176 6.2938 13.2177C6.29493 13.218 6.30031 13.2192 6.30792 13.2212L5.81535 15.1596C5.82966 15.1632 5.84176 15.166 5.84963 15.1678C5.85362 15.1687 5.85711 15.1695 5.85948 15.17C5.86639 15.1716 5.85915 15.1699 5.86445 15.1711L6.29927 13.219ZM6.3062 13.2207C6.31568 13.2231 6.32505 13.226 6.33425 13.2293L5.66126 15.1126C5.71251 15.1309 5.7645 15.1467 5.81707 15.16L6.3062 13.2207ZM6.33126 13.2282C6.31767 13.2234 6.30656 13.2198 6.30009 13.2177C6.29679 13.2166 6.2941 13.2158 6.29264 13.2153C6.2919 13.2151 6.29127 13.2149 6.29099 13.2148C6.29056 13.2147 6.29071 13.2147 6.29074 13.2147C6.2909 13.2148 6.29239 13.2153 6.29441 13.2159C6.29651 13.2166 6.29971 13.2176 6.30365 13.2189C6.31139 13.2214 6.32358 13.2256 6.33844 13.2311L5.63783 15.1044C5.65428 15.1106 5.66805 15.1152 5.67739 15.1183C5.68632 15.1213 5.6936 15.1235 5.69512 15.124C5.69539 15.1241 5.69562 15.1242 5.69577 15.1242C5.69585 15.1242 5.69592 15.1242 5.69596 15.1243C5.69602 15.1243 5.69605 15.1243 5.69607 15.1243C5.6962 15.1243 5.69597 15.1243 5.69563 15.1242C5.69498 15.124 5.6931 15.1234 5.6906 15.1226C5.68574 15.121 5.67624 15.1179 5.66425 15.1137L6.33126 13.2282ZM6.33777 13.2309C6.34979 13.2354 6.35985 13.2399 6.36789 13.244L5.46601 15.0291C5.52062 15.0567 5.57812 15.0821 5.6385 15.1047L6.33777 13.2309ZM6.365 13.2425C6.37761 13.2488 6.38773 13.2543 6.39439 13.258C6.40084 13.2615 6.40554 13.2642 6.40626 13.2646C6.40656 13.2648 6.40689 13.265 6.40578 13.2643C6.40506 13.2639 6.40321 13.2628 6.40106 13.2616C6.39683 13.2592 6.38876 13.2546 6.37875 13.2492L5.42252 15.0058C5.41525 15.0018 5.40989 14.9987 5.40836 14.9979C5.40757 14.9974 5.40706 14.9971 5.40769 14.9975C5.40793 14.9976 5.4096 14.9986 5.41126 14.9995C5.41468 15.0015 5.42208 15.0057 5.43126 15.0108C5.44064 15.0159 5.4535 15.0228 5.4689 15.0305L6.365 13.2425ZM6.37633 13.2479C6.37833 13.2489 6.38558 13.2529 6.39617 13.2598L5.30666 14.937C5.34941 14.9648 5.38957 14.9879 5.42494 15.0071L6.37633 13.2479ZM6.39455 13.2588C6.40133 13.2631 6.40607 13.2664 6.40783 13.2676C6.40934 13.2687 6.40968 13.2689 6.40638 13.2666L5.24856 14.8973C5.25664 14.9031 5.2802 14.9199 5.30829 14.9381L6.39455 13.2588ZM6.40691 13.2669C6.41038 13.2694 6.413 13.2713 6.41458 13.2725C6.41622 13.2737 6.41737 13.2745 6.41797 13.275C6.41908 13.2758 6.41928 13.276 6.41862 13.2755C6.41803 13.275 6.41734 13.2745 6.41679 13.274C6.41614 13.2735 6.41647 13.2738 6.41783 13.2749L5.15131 14.8228C5.17143 14.8392 5.21002 14.8699 5.24803 14.897L6.40691 13.2669ZM6.41543 13.2729C6.41339 13.2713 6.41294 13.2709 6.41262 13.2706C6.41246 13.2705 6.41337 13.2713 6.41489 13.2725C6.41785 13.275 6.4248 13.2808 6.43385 13.289L5.0954 14.7751C5.12394 14.8008 5.15069 14.8223 5.15371 14.8247L6.41543 13.2729ZM6.42985 13.2854C6.41594 13.273 6.40437 13.2634 6.39761 13.2578C6.39417 13.255 6.39138 13.2527 6.38988 13.2515C6.38912 13.2509 6.38849 13.2504 6.38823 13.2502C6.38778 13.2498 6.38801 13.25 6.38805 13.2501C6.38828 13.2502 6.38992 13.2516 6.3921 13.2533C6.39436 13.2552 6.39776 13.258 6.40188 13.2614C6.41004 13.2683 6.42241 13.2789 6.43706 13.2925L5.07654 14.7585C5.09246 14.7732 5.10613 14.785 5.1156 14.7929C5.1246 14.8005 5.132 14.8064 5.13338 14.8076C5.13527 14.8091 5.1336 14.8077 5.13352 14.8077C5.13269 14.807 5.13055 14.8053 5.12776 14.803C5.12231 14.7985 5.11203 14.79 5.0994 14.7787L6.42985 13.2854ZM6.43471 13.2903C6.44854 13.3031 6.45782 13.3127 6.45991 13.3149C6.46101 13.316 6.46126 13.3163 6.45951 13.3144C6.45859 13.3135 6.45775 13.3126 6.45612 13.3108C6.45469 13.3093 6.45272 13.3072 6.45058 13.3049L4.99645 14.6781C4.99934 14.6811 4.99802 14.6798 5.00376 14.6858C5.00743 14.6897 5.01311 14.6958 5.0197 14.7026C5.03277 14.7162 5.05327 14.737 5.07889 14.7606L6.43471 13.2903ZM6.45061 13.305C6.4397 13.2934 6.43055 13.2842 6.42518 13.2789C6.42246 13.2762 6.42018 13.2739 6.41894 13.2727C6.41833 13.2721 6.41774 13.2715 6.41751 13.2713C6.41718 13.271 6.41716 13.271 6.41721 13.271C6.4173 13.2711 6.41841 13.2722 6.42 13.2738C6.42163 13.2754 6.42414 13.2779 6.42722 13.2811C6.43329 13.2873 6.44272 13.2971 6.45396 13.3097L4.96262 14.6423C4.97628 14.6576 4.9882 14.6701 4.99681 14.6789C5.00512 14.6874 5.01204 14.6942 5.01449 14.6966C5.01518 14.6973 5.01581 14.6979 5.01612 14.6982C5.01632 14.6984 5.01641 14.6985 5.01652 14.6986C5.0166 14.6987 5.01663 14.6987 5.01662 14.6987C5.01662 14.6987 5.01638 14.6985 5.01599 14.6981C5.0156 14.6977 5.015 14.6971 5.01424 14.6964C5.01144 14.6936 5.00483 14.687 4.99643 14.6781L6.45061 13.305ZM6.45337 13.309C6.46463 13.3216 6.47175 13.3313 6.47493 13.3358L4.83944 14.487C4.87402 14.5361 4.91489 14.589 4.96321 14.643L6.45337 13.309ZM6.44358 13.2937L6.44132 13.2908L4.86852 14.5262L4.87078 14.5291L6.44358 13.2937ZM6.47634 13.3382L4.98559 11.1911L3.34275 12.3317L4.8335 14.4788L6.47634 13.3382ZM4.98567 11.1912C5.05056 11.2847 5.06181 11.4557 4.91175 11.5712L3.69182 9.98637C2.93794 10.5667 2.84291 11.6116 3.34267 12.3316L4.98567 11.1912ZM4.91167 11.5713C4.77847 11.6738 4.58664 11.642 4.49213 11.5059L6.13497 10.3652C5.58146 9.56801 4.46994 9.38754 3.69189 9.98631L4.91167 11.5713ZM4.49206 11.5058L5.31747 12.6949L6.96044 11.5544L6.13504 10.3653L4.49206 11.5058ZM5.31763 12.6951C5.77138 13.3484 6.71439 13.4135 7.25307 12.8263L5.77924 11.4743C6.10803 11.1159 6.68369 11.156 6.96028 11.5542L5.31763 12.6951ZM7.25311 12.8262L10.9571 8.78801L9.48315 7.43612L5.7792 11.4744L7.25311 12.8262ZM10.9548 8.7904C10.9419 8.8044 10.931 8.81535 10.9241 8.8222C10.9205 8.82567 10.9177 8.82844 10.9159 8.83018C10.9149 8.83106 10.9142 8.83177 10.9137 8.83223C10.9133 8.83267 10.9129 8.83298 10.9129 8.833C10.9123 8.83353 10.9141 8.83187 10.9153 8.8307C10.9169 8.82917 10.9197 8.82653 10.9231 8.82328C10.9297 8.81686 10.9405 8.80622 10.9534 8.79272L9.50504 7.41345C9.51641 7.40151 9.52572 7.39237 9.53081 7.38743C9.5334 7.38492 9.5354 7.38302 9.53624 7.38222C9.53669 7.38178 9.53768 7.38084 9.53635 7.38211C9.53532 7.38309 9.52861 7.38943 9.52061 7.39732C9.51213 7.40567 9.49974 7.41814 9.48535 7.43372L10.9548 8.7904ZM10.9523 8.79385C10.9474 8.79898 10.9435 8.8027 10.9411 8.80495L9.57669 7.34262C9.55383 7.36396 9.53016 7.38715 9.50612 7.41231L10.9523 8.79385ZM10.943 8.80319C10.9442 8.80208 10.9394 8.80663 10.9309 8.81387L9.63607 7.28956C9.61085 7.31098 9.58975 7.33037 9.57482 7.34438L10.943 8.80319ZM10.9327 8.81229C10.9273 8.81692 10.9231 8.82029 10.9208 8.82212C10.9186 8.82391 10.9176 8.82465 10.9188 8.82378L9.70115 7.23713C9.68585 7.24887 9.66163 7.26774 9.63421 7.29114L10.9327 8.81229ZM10.9224 8.82097C10.9198 8.82298 10.915 8.82663 10.9081 8.83135L9.77766 7.18145C9.74843 7.20148 9.7217 7.2212 9.69752 7.23993L10.9224 8.82097ZM10.9107 8.82951C10.9256 8.81929 10.9373 8.81065 10.9438 8.80577C10.9471 8.80328 10.9498 8.80125 10.9511 8.80025C10.9518 8.79975 10.9524 8.7993 10.9525 8.79918C10.9528 8.79897 10.9527 8.79909 10.9524 8.79926C10.952 8.79959 10.9502 8.80097 10.9477 8.8028C10.9452 8.80468 10.9415 8.80743 10.9369 8.81073C10.9279 8.81724 10.9141 8.82698 10.8968 8.83822L9.81026 7.15909C9.79104 7.17152 9.77542 7.18252 9.76464 7.19032C9.75428 7.19782 9.7461 7.20403 9.74387 7.20572C9.74321 7.20622 9.74262 7.20667 9.74247 7.20679C9.74218 7.207 9.74234 7.20688 9.74256 7.20672C9.743 7.20638 9.74482 7.20501 9.74727 7.20318C9.75205 7.1996 9.76198 7.19226 9.77499 7.18329L10.9107 8.82951ZM10.9049 8.83292C10.8877 8.84425 10.8734 8.85289 10.8641 8.85837C10.8594 8.86114 10.8556 8.86335 10.853 8.86479C10.8506 8.86618 10.8488 8.86719 10.8486 8.86731C10.8485 8.86735 10.8484 8.86742 10.8489 8.86714C10.8492 8.86696 10.85 8.86653 10.8509 8.86603C10.8526 8.86505 10.8559 8.86323 10.8598 8.86096C10.8676 8.8565 10.8808 8.84883 10.8968 8.83886L9.83665 7.14294C9.85041 7.13434 9.86141 7.12797 9.86701 7.12477C9.86986 7.12315 9.87199 7.12195 9.87264 7.12158C9.87298 7.1214 9.87318 7.12128 9.87296 7.12141C9.87289 7.12144 9.87222 7.12182 9.87159 7.12217C9.86942 7.12339 9.8604 7.12843 9.84942 7.13489C9.83793 7.14166 9.82145 7.15163 9.80217 7.16438L10.9049 8.83292ZM10.8964 8.83908C10.8942 8.84047 10.8893 8.84348 10.882 8.84743L9.92582 7.09081C9.8934 7.10846 9.86375 7.12602 9.83701 7.14272L10.8964 8.83908ZM10.8826 8.8471C10.8763 8.85056 10.8723 8.85251 10.8721 8.85261L9.98768 7.05879C9.97005 7.06748 9.94874 7.07831 9.92522 7.09114L10.8826 8.8471ZM10.8692 8.85403C10.8662 8.85549 10.8616 8.85766 10.8555 8.86023L10.075 7.01884C10.0451 7.03152 10.0169 7.04447 9.99057 7.05737L10.8692 8.85403ZM10.8569 8.85965C10.8529 8.86137 10.8484 8.86317 10.8436 8.86495L10.1492 6.98936C10.1234 6.99889 10.0983 7.00891 10.0736 7.01942L10.8569 8.85965ZM10.8412 8.86582C10.8357 8.86786 10.8316 8.8692 10.8294 8.86987L10.2263 6.96298C10.2029 6.97037 10.1779 6.9788 10.1515 6.98849L10.8412 8.86582ZM10.8312 8.8693C10.8291 8.86997 10.8225 8.87203 10.8125 8.8746L10.3157 6.93727C10.2814 6.94608 10.2506 6.95524 10.2245 6.96356L10.8312 8.8693ZM10.8129 8.87449C10.8064 8.87616 10.8024 8.87702 10.8021 8.8771L10.3827 6.92155C10.3634 6.92569 10.3406 6.9309 10.3153 6.93738L10.8129 8.87449ZM10.8031 8.87687C10.803 8.87689 10.8012 8.87728 10.798 8.87789C10.7948 8.8785 10.7899 8.87938 10.7836 8.88035L10.4803 6.90346C10.4416 6.90941 10.4078 6.91614 10.3817 6.92178L10.8031 8.87687ZM10.7859 8.87998C10.776 8.88153 10.77 8.88216 10.7722 8.88192L10.5463 6.89471C10.5302 6.89654 10.5061 6.89945 10.478 6.90382L10.7859 8.87998ZM10.7753 8.88155C10.7753 8.88156 10.7679 8.88244 10.7559 8.88312L10.6427 6.88632C10.604 6.88852 10.5699 6.89195 10.5432 6.89507L10.7753 8.88155ZM10.7581 8.88299C10.7517 8.88337 10.7472 8.88352 10.7456 8.88357C10.7443 8.88362 10.7442 8.88361 10.7478 8.88354L10.7085 6.88392C10.6974 6.88414 10.671 6.88465 10.6404 6.88646L10.7581 8.88299ZM10.7431 8.88362C10.746 8.88357 10.7455 8.8836 10.7433 8.88359C10.7409 8.88358 10.7357 8.88353 10.7284 8.88326L10.8034 6.88467C10.7647 6.88322 10.7318 6.88356 10.7132 6.88384L10.7431 8.88362ZM10.7307 8.88335C10.7231 8.88308 10.7177 8.88274 10.716 8.88262C10.7146 8.88253 10.7146 8.88252 10.7192 8.88288L10.877 6.88911C10.866 6.88825 10.8359 6.88581 10.801 6.88458L10.7307 8.88335ZM10.7152 8.88256C10.7182 8.8828 10.718 8.88281 10.7163 8.88264C10.7144 8.88245 10.7099 8.88198 10.7036 8.88117L10.9604 6.89772C10.9262 6.8933 10.897 6.89077 10.881 6.88944L10.7152 8.88256ZM10.7019 8.88094C10.6958 8.88014 10.6915 8.87946 10.6895 8.87914C10.6877 8.87885 10.6874 8.87878 10.6899 8.87923L11.045 6.91101C11.0271 6.90777 10.9973 6.90256 10.9622 6.89795L10.7019 8.88094ZM10.6886 8.87899C10.6924 8.87969 10.687 8.87877 10.6773 8.87659L11.118 6.92574C11.0883 6.91903 11.0627 6.91423 11.0463 6.91125L10.6886 8.87899ZM10.6755 8.87619C10.6696 8.87483 10.6653 8.87373 10.663 8.87313C10.6608 8.87255 10.66 8.87232 10.6614 8.87272L11.2081 6.94889C11.1868 6.94285 11.1559 6.93439 11.1198 6.92614L10.6755 8.87619ZM10.6601 8.87234C10.6633 8.87325 10.6626 8.87306 10.6603 8.87239C10.6579 8.87166 10.6522 8.86993 10.6445 8.86734L11.2812 6.97138C11.2488 6.96049 11.2207 6.95249 11.2094 6.94927L10.6601 8.87234ZM10.6493 8.86892C10.6436 8.86705 10.6393 8.8655 10.6365 8.86447C10.6337 8.86345 10.6321 8.86282 10.632 8.86278L11.3661 7.0024C11.3424 6.99301 11.3117 6.98145 11.2764 6.96979L10.6493 8.86892ZM10.6341 8.86361C10.6337 8.86345 10.6292 8.86169 10.6222 8.85857L11.4326 7.03014C11.4068 7.0187 11.3835 7.00919 11.364 7.00157L10.6341 8.86361ZM10.6205 8.85782C10.6134 8.85466 10.6079 8.85198 10.6043 8.85012L11.5159 7.06997C11.4907 7.05705 11.4635 7.04388 11.4343 7.0309L10.6205 8.85782ZM10.6104 8.85323C10.6054 8.85069 10.6 8.84782 10.5945 8.84469L11.5868 7.1082C11.5611 7.09354 11.5355 7.0798 11.5098 7.06685L10.6104 8.85323ZM10.5922 8.84337C10.5902 8.84219 10.5859 8.83965 10.5799 8.83586L11.6566 7.15039C11.6324 7.13497 11.6097 7.12137 11.5891 7.10951L10.5922 8.84337ZM10.5832 8.83797C10.5773 8.83422 10.5726 8.831 10.5693 8.82861L11.7336 7.20243C11.7085 7.18445 11.6817 7.1663 11.6533 7.14828L10.5832 8.83797ZM10.5684 8.82793C10.5687 8.82819 10.5636 8.82457 10.5558 8.8184L11.7923 7.24647C11.7696 7.22859 11.7494 7.21382 11.7345 7.20311L10.5684 8.82793ZM10.5604 8.82197C10.5527 8.816 10.5478 8.81176 10.5462 8.81038L11.8695 7.31073C11.8459 7.28988 11.8186 7.26684 11.7878 7.24291L10.5604 8.82197ZM10.5438 8.80824C10.5589 8.8216 10.5715 8.83206 10.5793 8.83839C10.5832 8.8416 10.5865 8.8442 10.5884 8.84575C10.59 8.84698 10.592 8.84857 10.5915 8.84818C10.5915 8.84817 10.5915 8.84817 10.5914 8.84816C10.5914 8.84816 10.5914 8.84815 10.5914 8.84813C10.5914 8.84811 10.5913 8.84807 10.5913 8.84802C10.5911 8.84792 10.5909 8.84776 10.5907 8.84756C10.5902 8.84716 10.5894 8.84653 10.5884 8.84572C10.5864 8.84414 10.5833 8.84159 10.5794 8.83835C10.5716 8.83197 10.5594 8.82167 10.5449 8.80836L11.8938 7.33174C11.8774 7.31673 11.8633 7.30481 11.8536 7.29684C11.8445 7.28932 11.8369 7.28328 11.8357 7.28236C11.8343 7.2812 11.8353 7.28202 11.8359 7.28248C11.8369 7.28326 11.8392 7.28509 11.8421 7.28752C11.848 7.29229 11.8587 7.30116 11.8719 7.31287L10.5438 8.80824ZM10.5447 8.80823C10.5289 8.79378 10.5165 8.78148 10.5086 8.77343C10.5046 8.76935 10.5014 8.766 10.4993 8.76378C10.4972 8.76165 10.4957 8.76005 10.4955 8.75986C10.4955 8.75983 10.4953 8.75964 10.4958 8.76011C10.496 8.76039 10.4967 8.76105 10.4974 8.76182C10.4988 8.76335 10.5015 8.76618 10.5048 8.76964C10.5114 8.77645 10.5226 8.78801 10.537 8.80177L11.9196 7.35667C11.9325 7.36894 11.9422 7.37898 11.9473 7.38424C11.9499 7.38693 11.9518 7.38899 11.9525 7.38974C11.9529 7.39013 11.9531 7.3904 11.953 7.3903C11.9528 7.39007 11.9531 7.39037 11.9528 7.39002C11.9526 7.38987 11.9524 7.38964 11.9522 7.38937C11.9507 7.38785 11.9437 7.3803 11.9347 7.37118C11.9253 7.36159 11.9113 7.34779 11.8939 7.33188L10.5447 8.80823ZM10.536 8.80076C10.5297 8.79477 10.5262 8.79098 10.5261 8.79088L11.9887 7.42673C11.9696 7.4063 11.9468 7.38276 11.9207 7.35768L10.536 8.80076ZM10.5245 8.78921C10.5265 8.79129 10.5261 8.79089 10.5246 8.78921C10.523 8.78744 10.5194 8.78337 10.5145 8.77757L12.0447 7.48974C12.0215 7.46226 12.0008 7.43978 11.9902 7.42839L10.5245 8.78921ZM10.5169 8.78043C10.5092 8.77137 10.505 8.76577 10.5065 8.76769L12.0946 7.55208C12.0824 7.53613 12.0644 7.51295 12.0423 7.48688L10.5169 8.78043ZM10.5081 8.76986C10.5072 8.76871 10.5037 8.76403 10.4986 8.75654L12.1511 7.62995C12.1305 7.59978 12.1107 7.57298 12.093 7.54991L10.5081 8.76986ZM10.4989 8.75703C10.5098 8.77297 10.5191 8.78559 10.5246 8.79299C10.5274 8.79675 10.5297 8.79979 10.5309 8.80145C10.5316 8.8023 10.5321 8.80301 10.5324 8.80334C10.5324 8.80342 10.5325 8.80351 10.5325 8.80356C10.5326 8.80363 10.5326 8.80366 10.5326 8.80369C10.5327 8.80376 10.5327 8.80373 10.5326 8.80366C10.5325 8.80351 10.5312 8.80187 10.5296 8.79964C10.5278 8.79733 10.5252 8.79379 10.522 8.7894C10.5157 8.78069 10.5061 8.76716 10.4949 8.75009L12.17 7.65738C12.1577 7.63846 12.1468 7.62315 12.1392 7.6127C12.132 7.60276 12.1259 7.59483 12.1247 7.59325C12.1232 7.59121 12.1244 7.59284 12.1245 7.59289C12.1251 7.59369 12.1267 7.59587 12.1289 7.59877C12.1331 7.60445 12.1411 7.61532 12.1508 7.62945L10.4989 8.75703ZM10.4951 8.75036L11.7193 10.6258L13.3941 9.53253L12.1698 7.65711L10.4951 8.75036ZM11.7195 10.6261C12.1192 11.2378 12.9558 11.3818 13.5368 10.9348L12.3173 9.34965C12.6618 9.08462 13.1575 9.17045 13.3939 9.53223L11.7195 10.6261ZM13.5369 10.9348L15.149 9.69436L13.9293 8.10928L12.3172 9.3497L13.5369 10.9348ZM15.1507 9.69305C15.1343 9.70572 15.1205 9.71548 15.1115 9.72172C15.107 9.72487 15.1032 9.7274 15.1007 9.72907C15.0983 9.73068 15.0965 9.73186 15.0963 9.73204C15.0961 9.73212 15.096 9.73221 15.0964 9.73193C15.0967 9.73175 15.0974 9.73129 15.0982 9.73075C15.0998 9.72969 15.1028 9.72768 15.1066 9.72519C15.1139 9.72027 15.1264 9.71174 15.1414 9.70072L13.9611 8.08619C13.9741 8.07664 13.9846 8.06951 13.9899 8.06596C13.9926 8.06415 13.9946 8.06282 13.9952 8.06243C13.9955 8.06223 13.9957 8.06211 13.9954 8.06227C13.9953 8.06233 13.9947 8.06274 13.9941 8.06316C13.9919 8.06458 13.9833 8.07028 13.9727 8.07758C13.9617 8.08521 13.946 8.09641 13.9276 8.11059L15.1507 9.69305ZM15.1429 9.69963C15.1397 9.70201 15.1349 9.70538 15.1287 9.70941L14.0427 8.02996C14.013 8.04911 13.9854 8.06836 13.9596 8.08728L15.1429 9.69963ZM15.1319 9.70734C15.1286 9.70945 15.125 9.71175 15.1209 9.71414L14.1035 7.99224C14.0816 8.00522 14.0602 8.01849 14.0395 8.03203L15.1319 9.70734ZM15.1182 9.71574C15.1112 9.71983 15.1066 9.72224 15.1056 9.72275L14.181 7.94933C14.159 7.9608 14.1337 7.97456 14.1062 7.99065L15.1182 9.71574ZM15.1083 9.72135C15.1082 9.72142 15.1066 9.72228 15.1037 9.72368C15.1009 9.72509 15.0965 9.72721 15.0908 9.7298L14.2611 7.91006C14.2281 7.92508 14.1998 7.93943 14.1783 7.95073L15.1083 9.72135ZM15.0916 9.72944C15.0859 9.73204 15.0818 9.7338 15.08 9.73456C15.0784 9.73526 15.0781 9.73537 15.0805 9.73437L14.3265 7.88195C14.3136 7.8872 14.2889 7.89734 14.2603 7.91041L15.0916 9.72944ZM15.0824 9.73363C15.0845 9.73275 15.0775 9.7357 15.0652 9.73992L14.4165 7.84805C14.3791 7.86087 14.3473 7.87346 14.3247 7.8827L15.0824 9.73363ZM15.0639 9.74037C15.0568 9.7428 15.0519 9.7443 15.0512 9.74452C15.0508 9.74465 15.0509 9.7446 15.0522 9.74423C15.0539 9.7437 15.0546 9.74348 15.058 9.74246L14.4765 7.82887C14.4736 7.82973 14.4462 7.8379 14.4178 7.8476L15.0639 9.74037ZM15.0545 9.7435C15.0569 9.74279 15.0563 9.74299 15.054 9.74363C15.0516 9.7443 15.0464 9.74571 15.0392 9.74745L14.573 7.80253C14.5335 7.812 14.5001 7.82176 14.4799 7.82783L15.0545 9.7435ZM15.0378 9.74778C15.0298 9.74967 15.024 9.75088 15.0216 9.75138C15.0194 9.75183 15.0188 9.75194 15.0222 9.75129L14.6476 7.78669C14.6363 7.78883 14.6076 7.79428 14.5744 7.8022L15.0378 9.74778ZM15.0248 9.75078C15.0276 9.75025 15.0288 9.75001 15.0296 9.74987C15.0303 9.74974 15.0297 9.74984 15.0284 9.75007C15.026 9.75051 15.0188 9.75177 15.0085 9.75319L14.7346 7.77203C14.6923 7.77788 14.6556 7.78512 14.6449 7.7872L15.0248 9.75078ZM15.0127 9.75259C15.0022 9.75409 14.9948 9.75489 14.9924 9.75513C14.9912 9.75526 14.9907 9.7553 14.9916 9.75523C14.9926 9.75513 14.9939 9.75501 14.9969 9.75473L14.814 7.76312C14.8068 7.76378 14.7705 7.7669 14.7304 7.77262L15.0127 9.75259ZM14.9978 9.75465C15.0023 9.75423 15.0023 9.75424 15.0009 9.75436C14.9991 9.7545 14.9937 9.75491 14.986 9.75529L14.889 7.75764C14.8541 7.75934 14.824 7.76219 14.8131 7.76319L14.9978 9.75465ZM14.9848 9.75534C14.9757 9.75578 14.9691 9.75588 14.9661 9.7559C14.9632 9.75593 14.9624 9.7559 14.9657 9.75593L14.9874 7.75605C14.9691 7.75585 14.9328 7.75556 14.8902 7.75759L14.9848 9.75534ZM14.9663 9.75594C14.9678 9.75596 14.9693 9.75597 14.9703 9.75598C14.9715 9.75599 14.9723 9.756 14.9729 9.75601C14.9743 9.75602 14.9743 9.75602 14.9737 9.75601C14.9727 9.756 14.9668 9.7559 14.9582 9.7555L15.0502 7.75762C15.0187 7.75617 14.9877 7.75605 14.9868 7.75605L14.9663 9.75594ZM14.9567 9.75543C14.9479 9.75501 14.9416 9.7545 14.9386 9.75424C14.9357 9.75399 14.9349 9.75388 14.9378 9.7542L15.154 7.76592C15.1331 7.76364 15.0958 7.75978 15.0517 7.75769L14.9567 9.75543ZM14.9376 9.75417C14.9426 9.75472 14.9429 9.75476 14.9426 9.75472C14.9418 9.75463 14.9377 9.75415 14.9317 9.75329L15.2121 7.77306C15.1849 7.7692 15.1602 7.7666 15.1542 7.76594L14.9376 9.75417ZM14.9263 9.75251C14.9196 9.75152 14.9146 9.75065 14.9119 9.75015C14.9092 9.74966 14.908 9.74941 14.9091 9.74964L15.3155 7.79136C15.2914 7.78637 15.2573 7.77969 15.2175 7.77384L14.9263 9.75251ZM14.912 9.75023C14.9144 9.75073 14.9095 9.74977 14.9009 9.74765L15.3802 7.80592C15.3528 7.79917 15.3292 7.79415 15.3126 7.79077L14.912 9.75023ZM14.8984 9.74702C14.8882 9.74448 14.8814 9.74241 14.8788 9.74161L15.4736 7.83209C15.4474 7.82392 15.4167 7.81504 15.3827 7.80655L14.8984 9.74702ZM14.8849 9.74348C14.8831 9.74294 14.8782 9.7414 14.871 9.7388L15.5481 7.85692C15.5188 7.84638 15.4916 7.83757 15.4675 7.83022L14.8849 9.74348ZM14.8696 9.73832C14.8641 9.73634 14.8592 9.73441 14.8549 9.73263L15.6225 7.88577C15.5989 7.87596 15.5745 7.86647 15.5494 7.8574L14.8696 9.73832ZM14.8579 9.73385C14.8522 9.73152 14.8466 9.72901 14.8412 9.72637L15.7131 7.92643C15.6823 7.9115 15.6511 7.89756 15.6195 7.88455L14.8579 9.73385ZM14.8369 9.7243C14.8554 9.73333 14.8706 9.74014 14.8798 9.74416C14.8845 9.7462 14.8883 9.74784 14.8905 9.74878C14.8922 9.74948 14.8947 9.75054 14.8938 9.75018C14.8938 9.75016 14.8933 9.74997 14.8927 9.74969C14.892 9.7494 14.891 9.74896 14.8897 9.7484C14.8871 9.74731 14.8831 9.74557 14.8782 9.74336C14.8684 9.73898 14.8531 9.7319 14.8345 9.7224L15.7461 7.94222C15.7253 7.9316 15.7078 7.92349 15.6958 7.91814C15.6845 7.91307 15.6752 7.90912 15.6736 7.90846C15.6716 7.90763 15.6731 7.90823 15.6736 7.90845C15.6747 7.90893 15.6774 7.91009 15.681 7.91166C15.688 7.91472 15.7011 7.92053 15.7173 7.92851L14.8369 9.7243ZM14.8362 9.72327L16.3306 10.4849L17.2387 8.70294L15.7444 7.94134L14.8362 9.72327ZM16.3307 10.4849C16.8969 10.7734 17.5878 10.5878 17.9343 10.0574L16.26 8.96353C16.4711 8.6404 16.8928 8.52668 17.2387 8.7029L16.3307 10.4849ZM17.9344 10.0573L19.8792 7.07998L18.2047 5.98624L16.2599 8.96358L17.9344 10.0573ZM19.8792 7.07993C19.791 7.21494 19.6085 7.25399 19.4721 7.16447L20.5694 5.49234C19.7796 4.97404 18.7206 5.19643 18.2047 5.98629L19.8792 7.07993ZM19.4721 7.16447C19.337 7.07579 19.3006 6.89606 19.3878 6.76264L21.0622 7.85635C21.5771 7.06799 21.358 6.00981 20.5694 5.49234L19.4721 7.16447ZM19.3878 6.76263L16.9769 10.4535L18.6514 11.5472L21.0622 7.85636L19.3878 6.76263ZM17.0351 10.3734L17.0315 10.3778L18.5897 11.6316L18.5932 11.6272L17.0351 10.3734Z" fill="#6C67AB" mask="url(#path-1-inside-1)"/>
</svg>
