<svg width="26" height="25" viewBox="0 0 26 25" fill="none" xmlns="http://www.w3.org/2000/svg">
<path fill-rule="evenodd" clip-rule="evenodd" d="M12.7589 6.02686L13.2555 5.92584C14.3856 5.69592 15.2386 4.6919 15.2386 3.48776C15.2386 2.11162 14.1262 1 12.759 1C11.3917 1 10.2793 2.11162 10.2793 3.48776C10.2793 4.69189 11.1323 5.69589 12.2624 5.92583L12.7589 6.02686ZM13.4227 16.255C13.4436 16.1888 13.4549 16.1183 13.4549 16.0453V6.90576C14.5896 6.67489 15.5239 5.89051 15.9649 4.84601C16.0849 4.56183 16.1684 4.25838 16.2094 3.94159C16.2287 3.79304 16.2386 3.64157 16.2386 3.48776C16.2386 3.245 16.2139 3.00804 16.1668 2.77926C15.8402 1.19274 14.4385 0 12.759 0C11.0791 0 9.67733 1.1931 9.351 2.77998C9.30399 3.00853 9.2793 3.24526 9.2793 3.48776C9.2793 3.64157 9.28923 3.79304 9.30849 3.94159C9.34952 4.25809 9.43288 4.56127 9.55269 4.84523C9.99356 5.8901 10.928 6.6748 12.063 6.90575V16.0453C12.063 16.1183 12.0743 16.1888 12.0951 16.255C12.1841 16.5368 12.4476 16.7412 12.7589 16.7412C12.7589 16.7412 12.7589 16.7412 12.759 16.7412C13.0702 16.7412 13.3337 16.5368 13.4227 16.255ZM13.8175 17.3704C13.4837 17.2637 13.128 17.2061 12.759 17.2061C12.7589 17.2061 12.7589 17.2061 12.7589 17.2061C12.3898 17.2061 12.0342 17.2637 11.7004 17.3704C10.2962 17.8193 9.2793 19.1375 9.2793 20.6938C9.2793 22.6201 10.8372 24.1816 12.759 24.1816C14.6807 24.1816 16.2386 22.6201 16.2386 20.6938C16.2386 19.1375 15.2217 17.8193 13.8175 17.3704ZM4.18911 16.262C4.21638 16.1858 4.23123 16.1037 4.23123 16.0181V5.62732C4.23123 5.07503 4.67895 4.62732 5.23123 4.62732H8.12938C8.22928 4.62732 8.32419 4.60595 8.40979 4.56754C8.6487 4.46035 8.8151 4.2204 8.8151 3.94159C8.8151 3.76756 8.75028 3.60868 8.64345 3.48776C8.55052 3.38257 8.42579 3.30611 8.28432 3.27344C8.23453 3.26194 8.18266 3.25586 8.12938 3.25586H3.78369C3.23141 3.25586 2.78369 3.70357 2.78369 4.25586V16.0181C2.78369 16.1007 2.79752 16.18 2.82298 16.2539C2.91791 16.5295 3.17462 16.7298 3.47966 16.7413C3.48888 16.7417 3.49815 16.7419 3.50746 16.7419C3.82161 16.7419 4.08901 16.5417 4.18911 16.262ZM4.56535 17.3792C4.23209 17.2696 3.87662 17.2091 3.50746 17.2062C3.4982 17.2061 3.48894 17.2061 3.47966 17.2061C3.11511 17.2061 2.76365 17.2622 2.43343 17.3665C1.0229 17.8116 0 19.133 0 20.6938C0 22.6201 1.5579 24.1816 3.47966 24.1816C5.40143 24.1816 6.95932 22.6201 6.95932 20.6938C6.95932 19.1476 5.95546 17.8363 4.56535 17.3792ZM17.2336 3.27325C17.0918 3.30582 16.9668 3.38236 16.8736 3.48776C16.7668 3.60868 16.702 3.76756 16.702 3.94159C16.702 4.22069 16.8687 4.46085 17.108 4.56788C17.1934 4.60608 17.2881 4.62732 17.3877 4.62732H20.2859C20.8381 4.62732 21.2859 5.07503 21.2859 5.62732V16.0181C21.2859 16.1037 21.3007 16.1858 21.328 16.262C21.4281 16.5417 21.6955 16.7419 22.0096 16.7419C22.0191 16.7419 22.0284 16.7417 22.0378 16.7413C22.3427 16.7297 22.5992 16.5294 22.6941 16.2539C22.7196 16.18 22.7334 16.1006 22.7334 16.0181V4.25586C22.7334 3.70357 22.2857 3.25586 21.7334 3.25586H17.3877C17.3347 3.25586 17.2831 3.26187 17.2336 3.27325ZM23.0838 17.3664C22.7536 17.2622 22.4022 17.2061 22.0378 17.2061C22.0284 17.2061 22.019 17.2061 22.0096 17.2062C21.6405 17.2091 21.2851 17.2696 20.9518 17.3793C19.5619 17.8365 18.5581 19.1477 18.5581 20.6938C18.5581 22.6201 20.116 24.1816 22.0378 24.1816C23.9595 24.1816 25.5174 22.6201 25.5174 20.6938C25.5174 19.1329 24.4944 17.8115 23.0838 17.3664ZM12.759 23.1816C14.1262 23.1816 15.2386 22.07 15.2386 20.6938C15.2386 19.3177 14.1262 18.2061 12.759 18.2061C11.3917 18.2061 10.2793 19.3177 10.2793 20.6938C10.2793 22.07 11.3917 23.1816 12.759 23.1816ZM22.0378 23.1816C23.4051 23.1816 24.5174 22.07 24.5174 20.6938C24.5174 19.3177 23.4051 18.2061 22.0378 18.2061C20.6705 18.2061 19.5581 19.3177 19.5581 20.6938C19.5581 22.07 20.6705 23.1816 22.0378 23.1816ZM3.47966 23.1816C4.84695 23.1816 5.95932 22.07 5.95932 20.6938C5.95932 19.3177 4.84695 18.2061 3.47966 18.2061C2.11237 18.2061 1 19.3177 1 20.6938C1 22.07 2.11237 23.1816 3.47966 23.1816Z" fill="#6C67AB"/>
</svg>
