<svg width="23" height="25" viewBox="0 0 23 25" fill="none" xmlns="http://www.w3.org/2000/svg">
<path d="M16.2832 6.83399C16.2832 9.74727 13.9177 12.1166 11.0141 12.1166C8.11037 12.1166 5.74487 9.74727 5.74487 6.83399V5.78261C5.74487 2.86933 8.11037 0.5 11.0141 0.5C13.9177 0.5 16.2832 2.86933 16.2832 5.78261V6.83399Z" stroke="#6C67AB"/>
<path d="M18.8839 16.3478C17.1603 15.8339 14.3919 15.22 11.0139 15.22C7.63593 15.22 4.86748 15.8339 3.1439 16.3478L18.8839 16.3478ZM18.8839 16.3478C20.4662 16.8196 21.5278 18.245 21.5278 19.9012V23.6567C21.5278 23.6719 21.5156 23.6824 21.5033 23.6824H0.524471C0.5122 23.6824 0.5 23.6719 0.5 23.6567V19.9012C0.5 18.245 1.56161 16.8196 3.14387 16.3478H18.8839Z" stroke="#6C67AB"/>
</svg>
