<svg width="24" height="24" viewBox="0 0 24 24" fill="none" xmlns="http://www.w3.org/2000/svg">
<path d="M14.1585 2.23853L14.464 1.8427L14.1585 2.23853C14.4774 2.48463 14.8818 2.59214 15.2808 2.53687L17.4323 2.23881C17.6607 2.20718 17.8811 2.33577 17.9659 2.55014L18.7691 4.58034C18.9213 4.96496 19.2255 5.26967 19.6099 5.42244L21.6351 6.22743C21.849 6.31242 21.9772 6.5324 21.9457 6.76036L21.6474 8.92389C21.5927 9.32068 21.6989 9.72286 21.9425 10.0409L23.2817 11.7894C23.4211 11.9714 23.4189 12.2248 23.2763 12.4044L21.9057 14.1305C21.6509 14.4513 21.5385 14.8623 21.5944 15.2682L21.8922 17.4274C21.9234 17.654 21.7969 17.8729 21.585 17.9589L19.5467 18.7867C19.1671 18.9409 18.8671 19.2436 18.7163 19.6246L17.9115 21.6589C17.8267 21.8733 17.6063 22.0019 17.378 21.9703L15.2256 21.6721C14.8273 21.6169 14.4236 21.7239 14.105 21.9691L12.3541 23.3163C12.1744 23.4546 11.9241 23.4546 11.7443 23.3163L9.99347 21.9691C9.67484 21.7239 9.27113 21.6169 8.8729 21.6721L6.72051 21.9703C6.49216 22.0019 6.27177 21.8733 6.18696 21.6589L5.38375 19.6287C5.23159 19.2441 4.92736 18.9394 4.54299 18.7866L2.51775 17.9817C2.30391 17.8967 2.17569 17.6767 2.20712 17.4487L2.50545 15.2852C2.56016 14.8884 2.45391 14.4862 2.21036 14.1682L0.863354 12.4095C0.725791 12.2299 0.725972 11.9803 0.863798 11.8009L2.23611 10.0145C2.48059 9.69624 2.58735 9.29332 2.53253 8.89578L2.23432 6.7331C2.20289 6.50514 2.3311 6.28516 2.54495 6.20016L4.57019 5.39518C4.95456 5.2424 5.25879 4.93769 5.41095 4.55308L6.21416 2.52288C6.29897 2.30851 6.51935 2.17992 6.74771 2.21155L8.9001 2.50973C9.29833 2.5649 9.70204 2.45789 10.0207 2.21272L11.7706 0.866217C11.9506 0.72774 12.2012 0.727924 12.381 0.866662L14.1585 2.23853ZM10.0233 15.7915C10.6528 16.3117 11.5828 16.2327 12.1156 15.6137L17.0151 9.92152C17.4407 9.42709 17.387 8.68177 16.8949 8.25347C16.3997 7.82242 15.6485 7.87576 15.2192 8.37246L11.193 13.0305C11.0157 13.2356 10.7073 13.2621 10.4977 13.0902L8.79189 11.6913C8.28412 11.2749 7.53485 11.3493 7.11889 11.8574C6.70452 12.3636 6.7772 13.1095 7.2815 13.5262L10.0233 15.7915Z" stroke="#6C67AB"/>
</svg>
