<svg width="25" height="25" viewBox="0 0 25 25" fill="none" xmlns="http://www.w3.org/2000/svg">
<path d="M12.902 17.4601C13.0512 17.4766 13.2012 17.4777 13.3497 17.4639V18.6535C13.3497 18.9782 13.221 19.2893 12.9923 19.5185C12.7637 19.7477 12.4538 19.8763 12.1309 19.8763C11.808 19.8763 11.4982 19.7477 11.2695 19.5185C11.0408 19.2893 10.9121 18.9782 10.9121 18.6535C10.9121 18.6535 10.9121 18.6535 10.9121 18.6535L10.9121 17.117L11.5378 17.0292C11.5378 17.0292 11.5379 17.0291 11.5379 17.0291C11.6789 17.0094 11.8224 17.0412 11.9421 17.1188L11.9429 17.1193C12.2319 17.3058 12.5602 17.4225 12.902 17.4601Z" stroke="#6C67AB"/>
<path d="M12.8482 15.7351C12.8865 15.7631 12.923 15.7932 12.9575 15.8252C12.9095 15.8094 12.8635 15.7875 12.8207 15.76C12.6572 15.6541 12.4818 15.571 12.2992 15.512C12.4968 15.5399 12.6855 15.6161 12.8482 15.7351Z" stroke="#6C67AB"/>
<mask id="path-3-inside-1" fill="white">
<path d="M4.5519 15.209C4.34757 15.2088 4.1444 15.1783 3.94896 15.1185C3.70162 15.0433 3.49336 15 3.3775 15C2.9218 15.0005 2.48491 15.1822 2.16268 15.5052C1.84045 15.8281 1.6592 16.266 1.65869 16.7228V17.1774H1.96677C2.1328 17.1772 2.29199 17.1111 2.4094 16.9934C2.52681 16.8757 2.59285 16.7162 2.59304 16.5497C2.59326 16.354 2.67093 16.1664 2.80899 16.028C2.94706 15.8896 3.13426 15.8118 3.32952 15.8115H5.40762C5.34396 15.6352 5.22768 15.4828 5.07459 15.375C4.92149 15.2672 4.73899 15.2092 4.5519 15.209Z"/>
</mask>
<path d="M3.94896 15.1185L4.24139 14.1623L4.24003 14.1618L3.94896 15.1185ZM3.3775 15V14L3.37639 14L3.3775 15ZM1.65869 16.7228L0.658691 16.7217V16.7228H1.65869ZM1.65869 17.1774H0.658691V18.1774H1.65869V17.1774ZM1.96677 17.1774V18.1774L1.96783 18.1774L1.96677 17.1774ZM2.59304 16.5497L3.59304 16.5509V16.5508L2.59304 16.5497ZM3.32952 15.8115V14.8115L3.3284 14.8115L3.32952 15.8115ZM5.40762 15.8115V16.8115H6.8318L6.34821 15.472L5.40762 15.8115ZM4.55294 14.209C4.44739 14.2089 4.3424 14.1931 4.24138 14.1623L3.65654 16.0748C3.94639 16.1635 4.24775 16.2087 4.55085 16.209L4.55294 14.209ZM4.24003 14.1618C3.98585 14.0845 3.65405 14 3.3775 14V16C3.34888 16 3.33745 15.9977 3.3501 15.9994C3.36029 16.0007 3.3802 16.0039 3.41069 16.0102C3.47213 16.0229 3.55611 16.0443 3.65789 16.0752L4.24003 14.1618ZM3.37639 14C2.65511 14.0008 1.96406 14.2884 1.45475 14.7989L2.8706 16.2114C3.00575 16.076 3.18849 16.0002 3.37861 16L3.37639 14ZM1.45475 14.7989C0.945509 15.3093 0.659487 16.0009 0.658692 16.7217L2.65869 16.7239C2.6589 16.5312 2.73538 16.347 2.8706 16.2114L1.45475 14.7989ZM0.658691 16.7228V17.1774H2.65869V16.7228H0.658691ZM1.65869 18.1774H1.96677V16.1774H1.65869V18.1774ZM1.96783 18.1774C2.39945 18.177 2.81279 18.0049 3.1173 17.6997L1.7015 16.2871C1.77118 16.2172 1.86615 16.1775 1.9657 16.1774L1.96783 18.1774ZM3.1173 17.6997C3.42172 17.3946 3.59255 16.9814 3.59304 16.5509L1.59305 16.5486C1.59316 16.4509 1.63189 16.3568 1.7015 16.2871L3.1173 17.6997ZM3.59304 16.5508C3.59297 16.6192 3.56586 16.6852 3.51692 16.7343L2.10107 15.3217C1.77599 15.6475 1.59356 16.0888 1.59305 16.5486L3.59304 16.5508ZM3.51692 16.7343C3.46791 16.7834 3.40096 16.8115 3.33064 16.8115L3.3284 14.8115C2.86757 14.8121 2.42622 14.9958 2.10107 15.3217L3.51692 16.7343ZM3.32952 16.8115H5.40762V14.8115H3.32952V16.8115ZM6.34821 15.472C6.21496 15.1029 5.97143 14.7834 5.65031 14.5573L4.49887 16.1926C4.48393 16.1821 4.47296 16.1675 4.46704 16.1511L6.34821 15.472ZM5.65031 14.5573C5.32915 14.3312 4.94605 14.2095 4.55307 14.209L4.55072 16.209C4.53194 16.209 4.51383 16.2032 4.49887 16.1926L5.65031 14.5573Z" fill="#6C67AB" mask="url(#path-3-inside-1)"/>
<path d="M19.3467 18.2266C20.0009 18.1687 20.6325 17.9611 21.1928 17.6209C21.3504 17.8115 21.5468 17.9919 21.7843 18.1141V18.3995C21.7843 18.7242 21.6556 19.0353 21.4269 19.2646C21.1982 19.4938 20.8884 19.6223 20.5655 19.6223C20.2426 19.6223 19.9327 19.4938 19.7041 19.2646C19.4754 19.0353 19.3467 18.7242 19.3467 18.3995V18.2266Z" stroke="#6C67AB"/>
<path d="M4.1828 17.3397L4.54512 17.0068L4.18281 17.3397C4.303 17.4705 4.44273 17.5806 4.59631 17.6665V18.6526C4.59631 18.9773 4.46762 19.2884 4.23892 19.5177C4.01026 19.7469 3.70037 19.8754 3.3775 19.8754C3.05463 19.8754 2.74474 19.7469 2.51608 19.5177C2.28738 19.2884 2.15869 18.9773 2.15869 18.6526V18.2843C2.55063 18.2406 2.91824 18.0647 3.1995 17.7828C3.43517 17.5466 3.59634 17.2499 3.668 16.9292H3.90561C3.97674 17.0784 4.06995 17.2168 4.1828 17.3397ZM3.71012 16.5494C3.71012 16.5498 3.71012 16.5502 3.71012 16.5506L3.71012 16.5494Z" stroke="#6C67AB"/>
<mask id="path-7-inside-2" fill="white">
<path d="M5.09464 16.6607V16.4292H4.9043C4.94486 16.5227 5.0108 16.6029 5.09464 16.6607Z"/>
</mask>
<path d="M5.09464 16.4292H6.09464V15.4292H5.09464V16.4292ZM4.9043 16.4292V15.4292H3.38017L3.98697 16.8273L4.9043 16.4292ZM6.09464 16.6607V16.4292H4.09464V16.6607H6.09464ZM5.09464 15.4292H4.9043V17.4292H5.09464V15.4292ZM3.98697 16.8273C4.10196 17.0923 4.28892 17.3197 4.52664 17.4838L5.66265 15.8377C5.73268 15.886 5.78775 15.953 5.82163 16.0311L3.98697 16.8273Z" fill="#6C67AB" mask="url(#path-7-inside-2)"/>
<mask id="path-9-inside-3" fill="white">
<path fill-rule="evenodd" clip-rule="evenodd" d="M0.944432 0H23.6357C23.8861 0.000272837 24.1261 0.100087 24.3032 0.277545C24.4802 0.455002 24.5798 0.69561 24.5801 0.946579V15.4154C24.5801 15.5685 24.543 15.7194 24.4719 15.8549C24.4008 15.9904 24.2979 16.1066 24.172 16.1934C24.0549 15.9273 23.8632 15.7011 23.6202 15.5421C23.3772 15.3832 23.0934 15.2984 22.8032 15.2981H22.3227C22.0369 14.9699 21.6654 14.7282 21.25 14.6002C20.8346 14.4722 20.3918 14.463 19.9715 14.5736C19.5511 14.6842 19.1699 14.9102 18.8708 15.2262C18.5717 15.5421 18.3665 15.9355 18.2784 16.3621H14.4557C14.3998 15.7826 14.1308 15.2446 13.7011 14.853C13.2713 14.4613 12.7115 14.244 12.1307 14.2432H10.1034C10.0216 14.2432 9.9431 14.2758 9.88524 14.3338C9.82738 14.3918 9.79487 14.4705 9.79487 14.5525V16.3621H5.71308V16.2916H5.76964C5.85147 16.2916 5.92995 16.259 5.98781 16.201C6.04568 16.1431 6.07818 16.0644 6.07818 15.9824C6.07776 15.5766 5.91679 15.1877 5.63059 14.9008C5.34438 14.6138 4.95632 14.4524 4.55154 14.452C4.40795 14.4517 4.26519 14.4303 4.12787 14.3882C3.81146 14.2919 3.55887 14.2431 3.37709 14.2431C2.79624 14.2439 2.23645 14.4612 1.80668 14.8529C1.37691 15.2445 1.10792 15.7825 1.05206 16.362H0.944432C0.694046 16.3617 0.453992 16.2619 0.276937 16.0844C0.0998817 15.907 0.000285837 15.6664 0 15.4154V0.946579C0.000285837 0.69561 0.0998817 0.455002 0.276937 0.277545C0.453992 0.100087 0.694046 0.000272837 0.944432 0ZM10.4734 3.98317C10.4353 4.04932 10.4153 4.12435 10.4153 4.20072L10.4154 9.20334C10.4154 9.27967 10.4355 9.35466 10.4736 9.42077C10.5116 9.48688 10.5664 9.54178 10.6324 9.57994C10.6983 9.61811 10.7731 9.6382 10.8493 9.63819C10.9254 9.63819 11.0003 9.61808 11.0662 9.57991L12.3312 8.848C12.3311 8.84809 12.3313 8.84792 12.3312 8.848L13.3462 8.2606C13.3495 8.25885 13.3528 8.25704 13.3561 8.25516L13.7861 8.00626C13.7886 8.00481 13.791 8.00333 13.7934 8.00182L14.6901 7.48294C14.6913 7.48226 14.6924 7.48158 14.6936 7.48089L15.3889 7.0786C15.4548 7.04043 15.5096 6.98553 15.5476 6.91943C15.5857 6.85332 15.6058 6.77833 15.6058 6.702C15.6058 6.62567 15.5857 6.55068 15.5476 6.48458C15.5096 6.41847 15.4548 6.36358 15.3889 6.32541L11.0662 3.82389C11.0002 3.7857 10.9254 3.76559 10.8492 3.76559C10.773 3.76559 10.6982 3.7857 10.6322 3.82389C10.5662 3.86209 10.5114 3.91702 10.4734 3.98317ZM14.3815 6.9473C14.3827 6.94661 14.3839 6.94593 14.3851 6.94526L14.8054 6.70198L11.0325 4.51863V8.88537L12.0227 8.31232L14.3815 6.9473ZM4.34384 12.7894H22.6085C22.6903 12.7894 22.7688 12.7568 22.8266 12.6988C22.8845 12.6408 22.917 12.5622 22.917 12.4802C22.917 12.3981 22.8845 12.3195 22.8266 12.2615C22.7688 12.2035 22.6903 12.1709 22.6085 12.1709H4.34384V11.372C4.34384 11.29 4.31134 11.2113 4.25347 11.1533C4.19561 11.0953 4.11714 11.0627 4.03531 11.0627C3.95348 11.0627 3.875 11.0953 3.81714 11.1533C3.75928 11.2113 3.72677 11.29 3.72677 11.372V12.1709H1.97166C1.88983 12.1709 1.81135 12.2035 1.75349 12.2615C1.69562 12.3195 1.66312 12.3981 1.66312 12.4802C1.66312 12.5622 1.69562 12.6408 1.75349 12.6988C1.81135 12.7568 1.88983 12.7894 1.97166 12.7894H3.72677V13.5883C3.72677 13.6703 3.75928 13.749 3.81714 13.807C3.875 13.865 3.95348 13.8976 4.03531 13.8976C4.11714 13.8976 4.19561 13.865 4.25347 13.807C4.31134 13.749 4.34384 13.6703 4.34384 13.5883V12.7894Z"/>
</mask>
<path d="M14.5794 7.5205L14.6473 8.01587L14.5794 7.5205ZM14.2937 7.02462L14.6892 7.33052L14.2937 7.02462ZM13.1219 8.28605L12.9922 8.76893L13.1219 8.28605ZM13.0475 7.71948L12.7971 7.28671L12.7971 7.28671L13.0475 7.71948ZM13.4776 7.47063L13.23 7.03621L13.2271 7.03786L13.4776 7.47063ZM13.9284 7.81852L14.4118 7.94604L13.9284 7.81852ZM13.3462 8.2606L13.5808 8.70219L13.5888 8.69792L13.5967 8.69336L13.3462 8.2606ZM13.7934 8.00182L14.0439 8.43458L14.0513 8.43027L14.0586 8.42571L13.7934 8.00182ZM14.6901 7.48294L14.9376 7.91737L14.9405 7.9157L14.6901 7.48294ZM14.3815 6.9473L14.1311 6.51453L14.1283 6.51621L14.3815 6.9473ZM14.5115 7.02513C14.5367 7.02168 14.5623 7.02326 14.5868 7.02976L14.3306 7.9964C14.4339 8.02375 14.5415 8.03037 14.6473 8.01587L14.5115 7.02513ZM14.5868 7.02976C14.6113 7.03627 14.6343 7.04755 14.6543 7.06292L14.046 7.85661C14.1307 7.92152 14.2274 7.96905 14.3306 7.9964L14.5868 7.02976ZM14.6543 7.06292C14.6744 7.07828 14.6911 7.09741 14.7036 7.11916L13.8371 7.6183C13.8903 7.71069 13.9613 7.79169 14.046 7.85661L14.6543 7.06292ZM14.7036 7.11916C14.7162 7.14092 14.7243 7.16488 14.7275 7.18966L13.7358 7.31826C13.7495 7.42393 13.7839 7.5259 13.8371 7.6183L14.7036 7.11916ZM14.7275 7.18966C14.7307 7.21444 14.729 7.23963 14.7224 7.26379L13.7572 7.00235C13.7293 7.10523 13.7221 7.21259 13.7358 7.31826L14.7275 7.18966ZM14.7224 7.26379C14.7159 7.28795 14.7046 7.31063 14.6892 7.33052L13.8982 6.71872C13.833 6.80308 13.7851 6.89948 13.7572 7.00235L14.7224 7.26379ZM12.2731 8.74509C12.229 8.7706 12.1764 8.77757 12.1271 8.76432L12.3865 7.79855C12.1791 7.74283 11.9581 7.77202 11.7722 7.87955L12.2731 8.74509ZM12.1271 8.76432C12.0778 8.75107 12.0361 8.71882 12.0109 8.67509L12.8774 8.17598C12.7704 7.99018 12.5939 7.85426 12.3865 7.79855L12.1271 8.76432ZM12.0109 8.67509C11.9857 8.6314 11.979 8.57963 11.9919 8.53107L12.958 8.78936C13.0134 8.58235 12.9844 8.36175 12.8774 8.17598L12.0109 8.67509ZM11.9919 8.53107C12.0049 8.48249 12.0367 8.44072 12.0808 8.41523L12.5816 9.28077C12.7674 9.17326 12.9027 8.9964 12.958 8.78936L11.9919 8.53107ZM13.2516 7.80317C13.301 7.81641 13.3427 7.84866 13.3678 7.8924L12.5013 8.3915C12.6083 8.57731 12.7848 8.71322 12.9922 8.76893L13.2516 7.80317ZM13.3678 7.8924C13.393 7.93609 13.3998 7.98785 13.3868 8.03641L12.4207 7.77812C12.3654 7.98513 12.3943 8.20574 12.5013 8.3915L13.3678 7.8924ZM13.3868 8.03641C13.3738 8.08499 13.342 8.12676 13.2979 8.15225L12.7971 7.28671C12.6113 7.39422 12.4761 7.57109 12.4207 7.77812L13.3868 8.03641ZM13.2979 8.15225L13.728 7.9034L13.2271 7.03786L12.7971 7.28671L13.2979 8.15225ZM13.7251 7.90504C13.6811 7.93016 13.6287 7.93684 13.5796 7.92348L13.8422 6.95856C13.6358 6.90241 13.4157 6.93038 13.23 7.03622L13.7251 7.90504ZM13.5796 7.92348C13.5305 7.91012 13.4891 7.87796 13.464 7.83441L14.3305 7.33527C14.224 7.15028 14.0485 7.01471 13.8422 6.95856L13.5796 7.92348ZM13.464 7.83441C13.4389 7.79091 13.4321 7.73939 13.4449 7.69099L14.4118 7.94604C14.4662 7.73975 14.4371 7.52022 14.3305 7.33527L13.464 7.83441ZM14.4425 7.04853C14.4638 7.03642 14.4872 7.02847 14.5115 7.02513L14.6473 8.01587C14.7495 8.00186 14.8481 7.9684 14.9376 7.91736L14.4425 7.04853ZM13.4449 7.69099C13.4572 7.64427 13.4869 7.60378 13.5283 7.57793L14.0586 8.42571C14.233 8.31664 14.3593 8.14513 14.4118 7.94604L13.4449 7.69099ZM14.6892 7.33052C14.6744 7.34975 14.6559 7.36602 14.6348 7.3784L14.1283 6.51621C14.0394 6.56843 13.9613 6.63718 13.8982 6.71872L14.6892 7.33052ZM14.4432 7.04813L14.4396 7.05019L14.9405 7.9157L14.9441 7.91364L14.4432 7.04813ZM13.543 7.56906L13.0958 7.82784L13.5967 8.69336L14.0439 8.43458L13.543 7.56906ZM14.632 7.38007L14.6355 7.37802L14.1347 6.51249L14.1311 6.51454L14.632 7.38007ZM13.1117 7.81902C13.1545 7.79628 13.2045 7.79052 13.2516 7.80317L12.9922 8.76893C13.1902 8.8221 13.4004 8.79796 13.5808 8.70219L13.1117 7.81902ZM23.6357 0L23.6368 -1H23.6357V0ZM0.944432 0V-1L0.943343 -0.999999L0.944432 0ZM0 0.946579L-1 0.94544V0.946579H0ZM0 15.4154H-1L-0.999999 15.4165L0 15.4154ZM0.944432 16.362L0.943343 17.362H0.944432V16.362ZM1.05206 16.362V17.362H1.9603L2.04745 16.4579L1.05206 16.362ZM3.37709 14.2431V13.2431L3.37581 13.2431L3.37709 14.2431ZM4.12787 14.3882L4.42063 13.432L4.41899 13.4315L4.12787 14.3882ZM4.55154 14.452L4.54995 15.452H4.55036L4.55154 14.452ZM6.07818 15.9824H7.07818L7.07818 15.9813L6.07818 15.9824ZM5.71308 16.2916V15.2916H4.71308V16.2916H5.71308ZM5.71308 16.3621H4.71308V17.3621H5.71308V16.3621ZM9.79487 16.3621V17.3621H10.7949V16.3621H9.79487ZM12.1307 14.2432L12.1319 13.2432H12.1307V14.2432ZM14.4557 16.3621L13.4603 16.458L13.5474 17.3621H14.4557V16.3621ZM18.2784 16.3621V17.3621H19.0928L19.2577 16.5645L18.2784 16.3621ZM22.3227 15.2981L21.5685 15.9548L21.8675 16.2981H22.3227V15.2981ZM22.8032 15.2981L22.8044 14.2981H22.8032V15.2981ZM24.172 16.1934L23.2568 16.5964L23.7442 17.7032L24.7397 17.0166L24.172 16.1934ZM24.5801 15.4154H23.5801V15.4155L24.5801 15.4154ZM24.5801 0.946579H25.5801V0.94544L24.5801 0.946579ZM10.4153 4.20072L11.4153 4.2007V4.2001L10.4153 4.20072ZM11.0662 3.82389L10.5651 4.68931L10.5653 4.68941L11.0662 3.82389ZM15.3889 6.32541L15.8898 5.4599L15.8897 5.45989L15.3889 6.32541ZM15.3889 7.0786L15.8897 7.94414L15.8898 7.9441L15.3889 7.0786ZM14.6936 7.48089L14.1928 6.61533L14.187 6.61873L14.6936 7.48089ZM14.3851 6.94526L14.8804 7.81399L14.886 7.81075L14.3851 6.94526ZM14.8054 6.70198L15.3063 7.56746L16.8018 6.7019L15.3063 5.83645L14.8054 6.70198ZM11.0325 4.51863L11.5333 3.65311L10.0325 2.78458V4.51863H11.0325ZM11.0325 8.88537H10.0325V10.6195L11.5334 9.75088L11.0325 8.88537ZM12.0227 8.31232L11.5218 7.44679L11.5218 7.44681L12.0227 8.31232ZM11.0662 9.57991L10.5654 8.71434L10.5652 8.71446L11.0662 9.57991ZM10.4154 9.20334L11.4154 9.20343V9.20332L10.4154 9.20334ZM13.7861 8.00626L14.287 8.87177L14.2928 8.86837L13.7861 8.00626ZM13.3561 8.25516L13.8569 9.12071L13.857 9.12065L13.3561 8.25516ZM4.34384 12.7894V11.7894H3.34384V12.7894H4.34384ZM3.72677 12.7894H4.72677V11.7894H3.72677V12.7894ZM1.66312 12.4802H0.663118H1.66312ZM3.72677 12.1709V13.1709H4.72677V12.1709H3.72677ZM4.34384 12.1709H3.34384V13.1709H4.34384V12.1709ZM13.3462 8.2606L12.8771 7.37747L12.8611 7.38599L12.8454 7.39508L13.3462 8.2606ZM13.7934 8.00182L13.2926 7.1363L13.2776 7.14495L13.263 7.15412L13.7934 8.00182ZM14.6901 7.48294L14.195 6.61406L14.1892 6.61742L14.6901 7.48294ZM14.3815 6.9473L14.8824 7.81285L14.888 7.80955L14.3815 6.9473ZM23.6357 -1H0.944432V1H23.6357V-1ZM0.943343 -0.999999C0.427376 -0.999437 -0.0668288 -0.79373 -0.430973 -0.428759L0.984846 0.983848C0.974812 0.993905 0.960715 0.999983 0.945522 0.999999L0.943343 -0.999999ZM-0.430973 -0.428759C-0.795038 -0.0638651 -0.999413 0.430388 -0.999999 0.94544L0.999999 0.947718C0.999984 0.960831 0.994802 0.97387 0.984846 0.983848L-0.430973 -0.428759ZM-1 0.946579V15.4154H1V0.946579H-1ZM-0.999999 15.4165C-0.999413 15.9316 -0.795038 16.4258 -0.430973 16.7907L0.984846 15.3781C0.994801 15.3881 0.999984 15.4011 0.999999 15.4143L-0.999999 15.4165ZM-0.430973 16.7907C-0.0668308 17.1557 0.427373 17.3614 0.943343 17.362L0.945522 15.362C0.960718 15.362 0.974814 15.3681 0.984846 15.3781L-0.430973 16.7907ZM0.944432 17.362H1.05206V15.362H0.944432V17.362ZM2.04745 16.4579C2.07954 16.125 2.23406 15.8164 2.48026 15.592L1.13311 14.1138C0.519762 14.6727 0.136296 15.44 0.0566737 16.266L2.04745 16.4579ZM2.48026 15.592C2.72639 15.3677 3.04656 15.2435 3.37838 15.2431L3.37581 13.2431C2.54593 13.2442 1.74651 13.5547 1.13311 14.1138L2.48026 15.592ZM3.37709 15.2431C3.41046 15.2431 3.55093 15.2579 3.83675 15.3449L4.41899 13.4315C4.07199 13.3259 3.70728 13.2431 3.37709 13.2431V15.2431ZM3.8351 15.3444C4.06677 15.4153 4.30765 15.4516 4.54995 15.452L4.55313 13.452C4.50826 13.4519 4.46361 13.4452 4.42063 13.432L3.8351 15.3444ZM4.55036 15.452C4.68956 15.4521 4.82348 15.5076 4.92261 15.607L6.33856 14.1945C5.86528 13.7201 5.22308 13.4528 4.55272 13.452L4.55036 15.452ZM4.92261 15.607C5.02182 15.7064 5.07803 15.8418 5.07818 15.9834L7.07818 15.9813C7.07748 15.3115 6.81176 14.6689 6.33856 14.1945L4.92261 15.607ZM5.07818 15.9824C5.07818 15.7999 5.15047 15.6245 5.27989 15.4948L6.69574 16.9073C6.94089 16.6616 7.07818 16.3289 7.07818 15.9824H5.07818ZM5.27989 15.4948C5.40939 15.365 5.58551 15.2916 5.76964 15.2916V17.2916C6.11743 17.2916 6.45052 17.1531 6.69574 16.9073L5.27989 15.4948ZM5.76964 15.2916H5.71308V17.2916H5.76964V15.2916ZM4.71308 16.2916V16.3621H6.71308V16.2916H4.71308ZM5.71308 17.3621H9.79487V15.3621H5.71308V17.3621ZM10.7949 16.3621V14.5525H8.79487V16.3621H10.7949ZM10.7949 14.5525C10.7949 14.7349 10.7226 14.9104 10.5932 15.0401L9.17731 13.6275C8.93217 13.8732 8.79487 14.206 8.79487 14.5525H10.7949ZM10.5932 15.0401C10.4637 15.1699 10.2875 15.2432 10.1034 15.2432V13.2432C9.75561 13.2432 9.42253 13.3817 9.17731 13.6275L10.5932 15.0401ZM10.1034 15.2432H12.1307V13.2432H10.1034V15.2432ZM12.1294 15.2432C12.4612 15.2436 12.7814 15.3678 13.0275 15.5921L14.3746 14.1139C13.7612 13.5549 12.9618 13.2443 12.1319 13.2432L12.1294 15.2432ZM13.0275 15.5921C13.2737 15.8165 13.4282 16.1251 13.4603 16.458L15.4511 16.2661C15.3715 15.4401 14.988 14.6728 14.3746 14.1139L13.0275 15.5921ZM14.4557 17.3621H18.2784V15.3621H14.4557V17.3621ZM19.2577 16.5645C19.3082 16.3198 19.4259 16.0944 19.597 15.9136L18.1446 14.5387C17.7175 14.9898 17.4248 15.5513 17.299 16.1597L19.2577 16.5645ZM19.597 15.9136C19.7682 15.7329 19.986 15.6038 20.2259 15.5407L19.7171 13.6065C19.1163 13.7646 18.5717 14.0875 18.1446 14.5387L19.597 15.9136ZM20.2259 15.5407C20.4658 15.4776 20.7184 15.4828 20.9555 15.5559L21.5445 13.6446C20.9508 13.4616 20.3179 13.4484 19.7171 13.6065L20.2259 15.5407ZM20.9555 15.5559C21.1926 15.629 21.405 15.767 21.5685 15.9548L23.0768 14.6414C22.6688 14.1728 22.1382 13.8275 21.5445 13.6446L20.9555 15.5559ZM22.3227 16.2981H22.8032V14.2981H22.3227V16.2981ZM22.8021 16.2981C22.898 16.2982 22.9921 16.3262 23.0728 16.379L24.1675 14.7053C23.7623 14.4402 23.2887 14.2987 22.8044 14.2981L22.8021 16.2981ZM23.0728 16.379C23.1535 16.4318 23.2176 16.5073 23.2568 16.5964L25.0872 15.7904C24.8922 15.3474 24.5728 14.9703 24.1675 14.7053L23.0728 16.379ZM24.7397 17.0166C24.9992 16.8377 25.2111 16.5984 25.3575 16.3194L23.5863 15.3904C23.5905 15.3825 23.5966 15.3755 23.6043 15.3702L24.7397 17.0166ZM25.3575 16.3194C25.5038 16.0405 25.5801 15.7302 25.5801 15.4153L23.5801 15.4155C23.5801 15.4068 23.5822 15.3982 23.5863 15.3904L25.3575 16.3194ZM25.5801 15.4154V0.946579H23.5801V15.4154H25.5801ZM25.5801 0.94544C25.5795 0.430386 25.3752 -0.0638667 25.0111 -0.428759L23.5953 0.983848C23.5853 0.973871 23.5801 0.960833 23.5801 0.947718L25.5801 0.94544ZM25.0111 -0.428759C24.647 -0.79373 24.1528 -0.999437 23.6368 -0.999999L23.6346 0.999999C23.6194 0.999983 23.6053 0.993905 23.5953 0.983848L25.0111 -0.428759ZM11.4153 4.2001C11.4154 4.29889 11.3895 4.39609 11.3401 4.48195L9.60664 3.4844C9.4811 3.70255 9.41519 3.94982 9.41534 4.20134L11.4153 4.2001ZM11.3401 4.48195C11.2907 4.56782 11.2194 4.63941 11.1332 4.68931L10.1311 2.95847C9.91301 3.08476 9.73219 3.26623 9.60664 3.4844L11.3401 4.48195ZM11.1332 4.68931C11.047 4.73922 10.9491 4.76559 10.8492 4.76559V2.76559C10.5969 2.76559 10.3493 2.83217 10.1311 2.95847L11.1332 4.68931ZM10.8492 4.76559C10.7493 4.76559 10.6514 4.73922 10.5651 4.68931L11.5672 2.95847C11.3491 2.83217 11.1014 2.76559 10.8492 2.76559V4.76559ZM10.5653 4.68941L14.888 7.19093L15.8897 5.45989L11.5671 2.95837L10.5653 4.68941ZM14.888 7.19091C14.8018 7.14105 14.7305 7.0695 14.6811 6.98369L16.4142 5.98547C16.2886 5.76744 16.1078 5.5861 15.8898 5.4599L14.888 7.19091ZM14.6811 6.98369C14.6317 6.89789 14.6058 6.80075 14.6058 6.702H16.6058C16.6058 6.45059 16.5398 6.20348 16.4142 5.98547L14.6811 6.98369ZM14.6058 6.702C14.6058 6.60326 14.6317 6.50612 14.6811 6.42032L16.4142 7.41854C16.5398 7.20053 16.6058 6.95341 16.6058 6.702H14.6058ZM14.6811 6.42032C14.7305 6.3345 14.8018 6.26296 14.888 6.2131L15.8898 7.9441C16.1078 7.8179 16.2886 7.63657 16.4142 7.41854L14.6811 6.42032ZM14.888 6.21306L14.1928 6.61535L15.1945 8.34643L15.8897 7.94414L14.888 6.21306ZM14.886 7.81075L15.3063 7.56746L14.3045 5.83649L13.8842 6.07977L14.886 7.81075ZM15.3063 5.83645L11.5333 3.65311L10.5316 5.38416L14.3045 7.5675L15.3063 5.83645ZM10.0325 4.51863V8.88537H12.0325V4.51863H10.0325ZM11.5334 9.75088L12.5236 9.17783L11.5218 7.44681L10.5316 8.01986L11.5334 9.75088ZM11.8304 7.98244L10.5654 8.71434L11.567 10.4455L12.832 9.71357L11.8304 7.98244ZM10.5652 8.71446C10.6514 8.66456 10.7494 8.6382 10.8492 8.63819L10.8494 10.6382C11.1015 10.6382 11.3491 10.5716 11.5672 10.4454L10.5652 8.71446ZM10.8492 8.63819C10.949 8.63818 11.047 8.66453 11.1332 8.71441L10.1315 10.4455C10.3496 10.5717 10.5972 10.6382 10.8494 10.6382L10.8492 8.63819ZM11.1332 8.71441C11.2194 8.76428 11.2907 8.83585 11.3401 8.92167L9.60701 9.91987C9.73259 10.1379 9.9134 10.3193 10.1315 10.4455L11.1332 8.71441ZM11.3401 8.92167C11.3895 9.00749 11.4155 9.10465 11.4154 9.20343L9.41544 9.20324C9.41542 9.45469 9.48143 9.70184 9.60701 9.91987L11.3401 8.92167ZM11.4154 9.20332L11.4153 4.2007L9.41534 4.20074L9.41544 9.20336L11.4154 9.20332ZM13.2852 7.14077L12.8551 7.38967L13.857 9.12065L14.287 8.87175L13.2852 7.14077ZM22.6085 11.7894H4.34384V13.7894H22.6085V11.7894ZM3.34384 12.7894V13.5883H5.34384V12.7894H3.34384ZM3.34384 13.5883C3.34384 13.4059 3.41613 13.2304 3.54555 13.1007L4.9614 14.5133C5.20654 14.2676 5.34384 13.9348 5.34384 13.5883H3.34384ZM3.54555 13.1007C3.67504 12.9709 3.85117 12.8976 4.03531 12.8976V14.8976C4.3831 14.8976 4.71619 14.7591 4.9614 14.5133L3.54555 13.1007ZM4.03531 12.8976C4.21945 12.8976 4.39557 12.9709 4.52507 13.1007L3.10921 14.5133C3.35443 14.7591 3.68751 14.8976 4.03531 14.8976V12.8976ZM4.52507 13.1007C4.65448 13.2304 4.72677 13.4059 4.72677 13.5883H2.72677C2.72677 13.9348 2.86407 14.2676 3.10921 14.5133L4.52507 13.1007ZM4.72677 13.5883V12.7894H2.72677V13.5883H4.72677ZM3.72677 11.7894H1.97166V13.7894H3.72677V11.7894ZM1.97166 11.7894C2.1558 11.7894 2.33192 11.8628 2.46141 11.9925L1.04556 13.4051C1.29078 13.6509 1.62386 13.7894 1.97166 13.7894V11.7894ZM2.46141 11.9925C2.59083 12.1223 2.66312 12.2977 2.66312 12.4802H0.663118C0.663118 12.8266 0.800418 13.1594 1.04556 13.4051L2.46141 11.9925ZM2.66312 12.4802C2.66312 12.6626 2.59083 12.838 2.46141 12.9678L1.04556 11.5552C0.800415 11.8009 0.663118 12.1337 0.663118 12.4802H2.66312ZM2.46141 12.9678C2.33192 13.0976 2.15579 13.1709 1.97166 13.1709V11.1709C1.62386 11.1709 1.29078 11.3094 1.04556 11.5552L2.46141 12.9678ZM1.97166 13.1709H3.72677V11.1709H1.97166V13.1709ZM4.72677 12.1709V11.372H2.72677V12.1709H4.72677ZM4.72677 11.372C4.72677 11.5544 4.65448 11.7299 4.52507 11.8596L3.10921 10.447C2.86407 10.6927 2.72677 11.0255 2.72677 11.372H4.72677ZM4.52507 11.8596C4.39557 11.9894 4.21945 12.0627 4.03531 12.0627V10.0627C3.68751 10.0627 3.35443 10.2012 3.10921 10.447L4.52507 11.8596ZM4.03531 12.0627C3.85117 12.0627 3.67504 11.9894 3.54555 11.8596L4.9614 10.447C4.71619 10.2012 4.3831 10.0627 4.03531 10.0627V12.0627ZM3.54555 11.8596C3.41613 11.7299 3.34384 11.5544 3.34384 11.372H5.34384C5.34384 11.0255 5.20654 10.6927 4.9614 10.447L3.54555 11.8596ZM3.34384 11.372V12.1709H5.34384V11.372H3.34384ZM4.34384 13.1709H22.6085V11.1709H4.34384V13.1709ZM22.6085 13.1709C22.4243 13.1709 22.2482 13.0976 22.1187 12.9678L23.5346 11.5552C23.2893 11.3094 22.9563 11.1709 22.6085 11.1709V13.1709ZM22.1187 12.9678C21.9893 12.838 21.917 12.6626 21.917 12.4802H23.917C23.917 12.1337 23.7797 11.8009 23.5346 11.5552L22.1187 12.9678ZM21.917 12.4802C21.917 12.2977 21.9893 12.1223 22.1187 11.9925L23.5346 13.4051C23.7797 13.1594 23.917 12.8266 23.917 12.4802H21.917ZM22.1187 11.9925C22.2482 11.8628 22.4243 11.7894 22.6085 11.7894V13.7894C22.9563 13.7894 23.2893 13.6509 23.5346 13.4051L22.1187 11.9925ZM12.8347 9.71199H12.8347C12.8347 9.71199 12.8347 9.71199 12.8347 9.71199C12.8347 9.71199 12.8347 9.71199 12.8347 9.71199C12.8347 9.71199 12.8347 9.71199 12.8347 9.71199C12.8347 9.71199 12.8347 9.71199 12.8347 9.71199C12.8347 9.71199 12.8347 9.71199 12.8347 9.71199H12.8347C12.8347 9.71199 12.8347 9.71199 12.8347 9.71198C12.8347 9.71198 12.8347 9.71198 12.8347 9.71198C12.8347 9.71198 12.8347 9.71198 12.8347 9.71198C12.8347 9.71198 12.8347 9.71198 12.8347 9.71198H12.8347C12.8347 9.71198 12.8347 9.71198 12.8347 9.71198C12.8347 9.71198 12.8347 9.71198 12.8347 9.71198H12.8347C12.8347 9.71198 12.8347 9.71198 12.8347 9.71198C12.8347 9.71198 12.8347 9.71198 12.8347 9.71198C12.8347 9.71198 12.8347 9.71198 12.8347 9.71198C12.8347 9.71198 12.8347 9.71198 12.8347 9.71198C12.8347 9.71198 12.8347 9.71198 12.8347 9.71198C12.8347 9.71198 12.8347 9.71198 12.8347 9.71198C12.8347 9.71198 12.8347 9.71198 12.8347 9.71198C12.8347 9.71198 12.8347 9.71198 12.8347 9.71198C12.8347 9.71198 12.8347 9.71198 12.8347 9.71198C12.8347 9.71198 12.8347 9.71198 12.8347 9.71198C12.8347 9.71198 12.8347 9.71198 12.8347 9.71198C12.8347 9.71198 12.8347 9.71198 12.8347 9.71198C12.8347 9.71197 12.8347 9.71197 12.8347 9.71197C12.8347 9.71197 12.8347 9.71197 12.8347 9.71197C12.8347 9.71197 12.8347 9.71197 12.8347 9.71197C12.8347 9.71197 12.8347 9.71197 12.8347 9.71197C12.8347 9.71197 12.8347 9.71197 12.8347 9.71197C12.8347 9.71197 12.8347 9.71197 12.8347 9.71197H12.8347C12.8347 9.71197 12.8347 9.71197 12.8347 9.71197H12.8347C12.8347 9.71197 12.8347 9.71197 12.8347 9.71197C12.8348 9.71197 12.8348 9.71197 12.8348 9.71197C12.8348 9.71197 12.8348 9.71197 12.8348 9.71197C12.8348 9.71197 12.8348 9.71197 12.8348 9.71197C12.8348 9.71197 12.8348 9.71197 12.8348 9.71197C12.8348 9.71197 12.8348 9.71197 12.8348 9.71197C12.8348 9.71197 12.8348 9.71197 12.8348 9.71197V9.71197C12.8348 9.71197 12.8348 9.71197 12.8348 9.71197C12.8348 9.71197 12.8348 9.71197 12.8348 9.71197C12.8348 9.71197 12.8348 9.71197 12.8348 9.71197H12.8348H12.8348C12.8348 9.71197 12.8348 9.71197 12.8348 9.71196H12.8348C12.3312 8.84798 11.8277 7.98399 11.8277 7.98399C11.8277 7.98399 11.8277 7.98399 11.8277 7.98399C11.8277 7.98399 11.8277 7.98399 11.8277 7.98399V7.98399C11.8277 7.98399 11.8277 7.98399 11.8277 7.98399C11.8277 7.98399 11.8277 7.98399 11.8277 7.98399H11.8277V7.98399C11.8277 7.98399 11.8277 7.98399 11.8277 7.98399V7.98399C11.8277 7.98399 11.8277 7.98399 11.8277 7.98399C11.8277 7.98399 11.8277 7.98399 11.8277 7.98399C11.8277 7.98399 11.8277 7.98399 11.8277 7.98399V7.984C11.8277 7.984 11.8277 7.984 11.8277 7.984C11.8277 7.984 11.8277 7.984 11.8277 7.984C11.8277 7.984 11.8277 7.984 11.8277 7.984V7.984C11.8277 7.984 11.8277 7.984 11.8277 7.984V7.984H11.8277V7.984C11.8277 7.984 11.8277 7.984 11.8277 7.984V7.984C11.8277 7.984 11.8277 7.984 11.8277 7.984C11.8277 7.984 11.8277 7.984 11.8277 7.984C11.8277 7.984 11.8277 7.984 11.8277 7.984H11.8277V7.984H11.8277C11.8277 7.984 11.8277 7.984 11.8277 7.984H11.8277V7.984C11.8277 7.984 11.8277 7.984 11.8277 7.984C11.8277 7.984 11.8277 7.984 11.8277 7.984C11.8277 7.984 11.8277 7.984 11.8277 7.984C11.8277 7.984 11.8277 7.984 11.8277 7.984C11.8277 7.984 11.8277 7.984 11.8277 7.984C11.8277 7.984 11.8277 7.984 11.8277 7.984V7.984C11.8277 7.984 11.8277 7.984 11.8277 7.984C11.8277 7.984 11.8277 7.984 11.8277 7.984H11.8277C11.8277 7.984 11.8277 7.984 11.8277 7.984C11.8277 7.984 11.8277 7.984 11.8277 7.984L11.8277 7.98401V7.98401C11.8277 7.98401 11.8277 7.98401 11.8277 7.98401V7.98401H11.8277C11.8277 7.98401 11.8277 7.98401 11.8277 7.98401C11.8277 7.98401 11.8277 7.98401 11.8277 7.98401C11.8277 7.98401 11.8277 7.98401 11.8277 7.98401C11.8277 7.98401 11.8277 7.98401 11.8277 7.98401C11.8277 7.98401 11.8277 7.98401 11.8277 7.98401C11.8277 7.98401 11.8277 7.98401 11.8277 7.98401C11.8277 7.98401 11.8277 7.98401 11.8277 7.98401C11.8277 7.98401 11.8277 7.98401 11.8277 7.98401H11.8277C11.8277 7.98401 11.8277 7.98401 11.8277 7.98401C11.8277 7.98401 11.8277 7.98401 11.8277 7.98401C11.8277 7.98401 11.8277 7.98401 11.8277 7.98401C11.8277 7.98401 11.8277 7.98401 11.8277 7.98401C11.8277 7.98401 11.8277 7.98401 11.8277 7.98401C11.8277 7.98401 11.8277 7.98401 11.8277 7.98401C11.8277 7.98401 11.8277 7.98401 11.8277 7.98401C11.8277 7.98401 11.8277 7.98401 11.8277 7.98401C11.8277 7.98401 11.8277 7.98401 11.8277 7.98401C11.8277 7.98401 11.8277 7.98401 11.8277 7.98401C11.8277 7.98401 11.8277 7.98401 11.8277 7.98401H11.8277C11.8277 7.98401 11.8277 7.98401 11.8277 7.98401C11.8277 7.98401 11.8277 7.98401 11.8277 7.98401C11.8277 7.98401 11.8277 7.98401 11.8277 7.98401C11.8277 7.98401 11.8277 7.98401 11.8277 7.98401L11.8277 7.98401L11.8277 7.98402C11.8277 7.98402 11.8277 7.98402 11.8277 7.98402V7.98402C11.8277 7.98402 11.8277 7.98402 11.8277 7.98402V7.98402H11.8277C11.8277 7.98402 11.8277 7.98402 11.8277 7.98402C11.8277 7.98402 11.8277 7.98402 11.8277 7.98402C11.8277 7.98402 11.8277 7.98402 11.8277 7.98402C11.8277 7.98402 11.8277 7.98402 11.8277 7.98402C11.8277 7.98402 11.8277 7.98402 11.8277 7.98402C11.8277 7.98402 11.8277 7.98402 11.8277 7.98402C11.8277 7.98402 11.8277 7.98402 11.8277 7.98402C11.8277 7.98402 11.8277 7.98402 11.8277 7.98402C11.8277 7.98402 11.8277 7.98402 11.8277 7.98402C11.8277 7.98402 11.8277 7.98402 11.8277 7.98402C11.8277 7.98402 11.8277 7.98402 11.8277 7.98402C11.8277 7.98402 11.8277 7.98402 11.8277 7.98402C11.8277 7.98402 11.8277 7.98402 11.8277 7.98402C11.8277 7.98402 11.8277 7.98402 11.8277 7.98402C11.8277 7.98402 11.8277 7.98402 11.8277 7.98402C11.8277 7.98402 11.8277 7.98402 11.8277 7.98402H11.8277C11.8277 7.98402 11.8277 7.98402 11.8277 7.98402C11.8277 7.98402 11.8277 7.98402 11.8277 7.98402C11.8277 7.98402 11.8277 7.98402 11.8277 7.98402C11.8277 7.98402 11.8277 7.98402 11.8277 7.98402C11.8277 7.98403 11.8277 7.98403 11.8277 7.98403C11.8277 7.98403 11.8277 7.98403 11.8277 7.98403C11.8277 7.98403 11.8277 7.98403 11.8277 7.98403C11.8277 7.98403 11.8277 7.98403 11.8277 7.98403C11.8277 7.98403 11.8277 7.98403 11.8277 7.98403V7.98403H11.8277V7.98403C11.8277 7.98403 11.8277 7.98403 11.8277 7.98403C11.8277 7.98403 11.8277 7.98403 11.8277 7.98403C11.8277 7.98403 11.8277 7.98403 11.8277 7.98403C11.8277 7.98403 11.8277 7.98403 11.8277 7.98403V7.98403H11.8277C11.8277 7.98403 11.8277 7.98403 11.8277 7.98403C11.8277 7.98403 11.8277 7.98403 11.8277 7.98403C11.8277 7.98403 11.8277 7.98403 11.8277 7.98403C11.8277 7.98403 11.8277 7.98403 11.8277 7.98403V7.98403C11.8277 7.98403 11.8277 7.98403 11.8277 7.98403C11.8277 7.98403 11.8277 7.98403 11.8277 7.98403L11.8277 7.98403C11.8277 7.98403 11.8277 7.98403 11.8277 7.98403V7.98403H11.8277C11.8277 7.98403 11.8277 7.98403 11.8277 7.98403C11.8277 7.98403 11.8277 7.98403 11.8277 7.98403C11.8277 7.98403 11.8277 7.98403 11.8277 7.98403C11.8277 7.98403 11.8277 7.98403 11.8277 7.98403C11.8277 7.98403 11.8277 7.98403 11.8277 7.98403C11.8277 7.98403 11.8277 7.98404 11.8277 7.98404L11.8277 7.98404C11.8277 7.98404 11.8277 7.98404 11.8277 7.98404C11.8277 7.98404 11.8277 7.98404 11.8277 7.98404C11.8277 7.98404 11.8277 7.98404 11.8277 7.98404C11.8277 7.98404 11.8277 7.98404 11.8277 7.98404C11.8277 7.98404 11.8277 7.98404 11.8277 7.98404C11.8277 7.98404 11.8277 7.98404 11.8277 7.98404C11.8277 7.98404 11.8277 7.98404 11.8277 7.98404H11.8276C11.8276 7.98404 11.8276 7.98404 11.8276 7.98404C11.8276 7.98404 11.8276 7.98404 11.8276 7.98404L11.8276 7.98404V7.98404H11.8276C11.8276 7.98404 11.8276 7.98404 11.8276 7.98404H11.8276V7.98404C11.8276 7.98404 11.8276 7.98404 11.8276 7.98404C11.8276 7.98404 12.3312 8.84803 12.8347 9.71201C12.8347 9.71201 12.8347 9.71201 12.8347 9.71201C12.8347 9.71201 12.8347 9.71201 12.8347 9.71201H12.8347C12.8347 9.71201 12.8347 9.71201 12.8347 9.71201C12.8347 9.71201 12.8347 9.71201 12.8347 9.71201V9.71201H12.8347H12.8347C12.8347 9.71201 12.8347 9.71201 12.8347 9.71201C12.8347 9.71201 12.8347 9.71201 12.8347 9.71201C12.8347 9.71201 12.8347 9.71201 12.8347 9.71201C12.8347 9.71201 12.8347 9.71201 12.8347 9.71201C12.8347 9.71201 12.8347 9.71201 12.8347 9.71201H12.8347C12.8347 9.71201 12.8347 9.71201 12.8347 9.71201C12.8347 9.71201 12.8347 9.71201 12.8347 9.71201H12.8347C12.8347 9.71201 12.8347 9.71201 12.8347 9.71201C12.8347 9.71201 12.8347 9.71201 12.8347 9.71201C12.8347 9.71201 12.8347 9.71201 12.8347 9.71201C12.8347 9.712 12.8347 9.712 12.8347 9.712C12.8347 9.712 12.8347 9.712 12.8347 9.712V9.712C12.8347 9.712 12.8347 9.712 12.8347 9.712C12.8347 9.712 12.8347 9.712 12.8347 9.712C12.8347 9.712 12.8347 9.712 12.8347 9.712C12.8347 9.712 12.8347 9.712 12.8347 9.712C12.8347 9.712 12.8347 9.712 12.8347 9.712H12.8347C12.8347 9.712 12.8347 9.712 12.8347 9.712C12.8347 9.712 12.8347 9.712 12.8347 9.712C12.8347 9.712 12.8347 9.712 12.8347 9.712C12.8347 9.712 12.8347 9.712 12.8347 9.712C12.8347 9.712 12.8347 9.712 12.8347 9.712C12.8347 9.712 12.8347 9.712 12.8347 9.712C12.8347 9.712 12.8347 9.712 12.8347 9.712C12.8347 9.712 12.8347 9.712 12.8347 9.712C12.8347 9.712 12.8347 9.712 12.8347 9.712C12.8347 9.712 12.8347 9.712 12.8347 9.712V9.712C12.8347 9.712 12.8347 9.712 12.8347 9.712C12.8347 9.712 12.8347 9.712 12.8347 9.712C12.8347 9.712 12.8347 9.712 12.8347 9.712C12.8347 9.71199 12.8347 9.71199 12.8347 9.71199H12.8347C12.8347 9.71199 12.8347 9.71199 12.8347 9.71199C12.8347 9.71199 12.8347 9.71199 12.8347 9.71199H12.8347L12.8347 9.71199C12.8347 9.71199 12.8347 9.71199 12.8347 9.71199C12.8347 9.71199 12.8347 9.71199 12.8347 9.71199C12.8347 9.71199 12.8347 9.71199 12.8347 9.71199C12.8347 9.71199 12.8347 9.71199 12.8347 9.71199C12.8347 9.71199 12.8347 9.71199 12.8347 9.71199L11.8277 7.98402C11.8277 7.98402 11.8277 7.98402 11.8277 7.98402C11.8277 7.98402 11.8277 7.98402 11.8277 7.98402C11.8277 7.98402 11.8277 7.98402 11.8277 7.98402C11.8277 7.98402 11.8277 7.98402 11.8277 7.98402C11.8277 7.98402 11.8277 7.98402 11.8277 7.98402C11.8277 7.98402 11.8277 7.98402 11.8277 7.98402C11.8277 7.98402 11.8277 7.98402 11.8277 7.98402C11.8277 7.98402 11.8277 7.98402 11.8277 7.98402C11.8277 7.98402 11.8277 7.98402 11.8277 7.98402V7.98402C11.8277 7.98402 11.8277 7.98402 11.8277 7.98402L11.8277 7.98402C11.8277 7.98402 11.8277 7.98402 11.8277 7.98402C11.8277 7.98402 11.8277 7.98402 11.8277 7.98402C11.8277 7.98402 11.8277 7.98402 11.8277 7.98402C11.8277 7.98402 11.8277 7.98402 11.8277 7.98402C11.8277 7.98402 11.8277 7.98402 11.8277 7.98402V7.98402C11.8277 7.98402 11.8277 7.98402 11.8277 7.98402C11.8277 7.98402 11.8277 7.98402 11.8277 7.98403C11.8277 7.98403 11.8277 7.98403 11.8277 7.98403C11.8277 7.98403 11.8277 7.98403 11.8277 7.98403C11.8277 7.98403 11.8277 7.98403 11.8277 7.98403C11.8277 7.98403 11.8277 7.98403 11.8277 7.98403C11.8277 7.98403 11.8277 7.98403 11.8277 7.98403V7.98403C11.8277 7.98403 11.8277 7.98403 11.8277 7.98403C11.8277 7.98403 11.8277 7.98403 11.8277 7.98403C11.8277 7.98403 11.8277 7.98403 11.8277 7.98403C11.8277 7.98403 11.8277 7.98403 11.8277 7.98403C11.8277 7.98403 11.8277 7.98403 11.8277 7.98403C11.8277 7.98403 11.8277 7.98403 11.8277 7.98403C11.8277 7.98403 11.8277 7.98403 11.8277 7.98403C11.8277 7.98403 11.8277 7.98403 11.8277 7.98403C11.8277 7.98403 11.8277 7.98403 11.8277 7.98403C11.8277 7.98403 11.8277 7.98403 11.8277 7.98403C11.8277 7.98403 11.8277 7.98403 11.8277 7.98403C11.8277 7.98403 11.8277 7.98403 11.8277 7.98403C11.8277 7.98403 11.8277 7.98403 11.8277 7.98403C11.8277 7.98403 11.8277 7.98403 11.8277 7.98403C11.8277 7.98403 11.8277 7.98403 11.8277 7.98403V7.98403C11.8277 7.98403 11.8277 7.98403 11.8277 7.98403V7.98403H11.8277V7.98403C11.8277 7.98403 11.8277 7.98403 11.8277 7.98403V7.98403C11.8277 7.98403 11.8277 7.98403 11.8277 7.98404C11.8277 7.98404 11.8277 7.98404 11.8277 7.98404C11.8277 7.98404 11.8277 7.98404 11.8277 7.98404C11.8277 7.98404 11.8277 7.98404 11.8277 7.98404C11.8277 7.98404 11.8277 7.98404 11.8277 7.98404C11.8277 7.98404 11.8277 7.98404 11.8277 7.98404C11.8277 7.98404 11.8277 7.98404 11.8277 7.98404V7.98404C11.8277 7.98404 11.8277 7.98404 11.8276 7.98404C11.8276 7.98404 11.8276 7.98404 11.8276 7.98404C11.8276 7.98404 11.8276 7.98404 11.8276 7.98404C11.8276 7.98404 11.8276 7.98404 11.8276 7.98404C11.8276 7.98404 11.8276 7.98404 11.8276 7.98404C11.8276 7.98404 11.8276 7.98404 11.8276 7.98404H11.8276C11.8276 7.98404 11.8276 7.98404 11.8276 7.98404H11.8276C11.8276 7.98404 11.8276 7.98404 11.8276 7.98404H11.8276C12.3312 8.84803 12.8347 9.71201 12.8347 9.71201C12.8347 9.71201 12.8347 9.71201 12.8347 9.71201V9.71201C12.8347 9.71201 12.8347 9.71201 12.8347 9.71201C12.8347 9.71201 12.8347 9.71201 12.8347 9.71201C12.8347 9.71201 12.8347 9.71201 12.8347 9.71201C12.8347 9.71201 12.8347 9.71201 12.8347 9.71201C12.8347 9.71201 12.8347 9.71201 12.8347 9.71201C12.8347 9.71201 12.8347 9.71201 12.8347 9.71201C12.8347 9.71201 12.8347 9.71201 12.8347 9.71201C12.8347 9.71201 12.8347 9.71201 12.8347 9.71201C12.8347 9.71201 12.8347 9.71201 12.8347 9.71201C12.8347 9.71201 12.8347 9.71201 12.8347 9.71201C12.8347 9.71201 12.8347 9.71201 12.8347 9.71201C12.8347 9.71201 12.8347 9.71201 12.8347 9.71201C12.8347 9.71201 12.8347 9.71201 12.8347 9.71201C12.8347 9.71201 12.8347 9.71201 12.8347 9.71201H12.8347V9.71201H12.8347C12.8347 9.71201 12.8347 9.71201 12.8347 9.712H12.8347C12.8347 9.712 12.8347 9.712 12.8347 9.712H12.8347C12.8347 9.712 12.8347 9.712 12.8347 9.712V9.712C12.8347 9.712 12.8347 9.712 12.8347 9.712H12.8347C12.8347 9.712 12.8347 9.712 12.8347 9.712C12.8347 9.712 12.8347 9.712 12.8347 9.712C12.8347 9.712 12.8347 9.712 12.8347 9.712H12.8347C12.8347 9.712 12.8347 9.712 12.8347 9.712C12.8347 9.712 12.8347 9.712 12.8347 9.712H12.8347V9.712C12.8347 9.712 12.8347 9.712 12.8347 9.712L12.8347 9.712C12.8347 9.712 12.8347 9.712 12.8347 9.712C12.8347 9.712 12.8347 9.712 12.8347 9.712C12.8347 9.712 12.8347 9.712 12.8347 9.712C12.8347 9.712 12.8347 9.712 12.8347 9.712C12.8347 9.712 12.8347 9.712 12.8347 9.712C12.8347 9.712 12.8347 9.712 12.8347 9.712C12.8347 9.712 12.8347 9.712 12.8347 9.712C12.8347 9.712 12.8347 9.712 12.8347 9.712C12.8347 9.712 12.8347 9.712 12.8347 9.71199C12.8347 9.71199 12.8347 9.71199 12.8347 9.71199H12.8347C12.8347 9.71199 12.8347 9.71199 12.8347 9.71199C12.8347 9.71199 12.8347 9.71199 12.8347 9.71199C12.8347 9.71199 12.8347 9.71199 12.8347 9.71199C12.8347 9.71199 12.8347 9.71199 12.8347 9.71199C12.8347 9.71199 12.8347 9.71199 12.8347 9.71199C12.8347 9.71199 12.8347 9.71199 12.8347 9.71199V9.71199C12.8347 9.71199 12.8347 9.71199 12.8347 9.71199H12.8347V9.71199H12.8347C12.8347 9.71199 12.8347 9.71199 12.8347 9.71199V9.71199C12.8347 9.71199 12.8347 9.71199 12.8347 9.71199C12.8347 9.71199 12.8347 9.71199 12.8347 9.71199C12.8347 9.71199 12.8347 9.71199 12.8347 9.71199C12.8347 9.71199 12.8347 9.71199 12.8347 9.71199C12.8347 9.71199 12.8347 9.71199 12.8347 9.71199C12.8347 9.71199 12.8347 9.71199 12.8347 9.71199H12.8347C12.8347 9.71199 12.8347 9.71199 12.8347 9.71198C12.8347 9.71198 12.8347 9.71198 12.8347 9.71198C12.8347 9.71198 12.8347 9.71198 12.8347 9.71198H12.8347C12.8347 9.71198 12.8347 9.71198 12.8347 9.71198C12.8347 9.71198 12.8347 9.71198 12.8347 9.71198C12.8347 9.71198 12.8347 9.71198 12.8347 9.71198C12.8347 9.71198 12.8347 9.71198 12.8347 9.71198H12.8347C12.8347 9.71198 12.8347 9.71198 12.8347 9.71198C12.8347 9.71198 12.8347 9.71198 12.8347 9.71198H12.8347C12.8347 9.71198 12.8347 9.71198 12.8347 9.71198C12.8347 9.71198 12.8347 9.71198 12.8347 9.71198C12.8347 9.71198 12.8347 9.71198 12.8347 9.71198C12.8347 9.71198 12.8347 9.71198 12.8347 9.71198H12.8347C12.8347 9.71198 12.8347 9.71198 12.8347 9.71198H12.8347V9.71198C12.8347 9.71198 12.8347 9.71198 12.8347 9.71198H12.8347C12.8347 9.71198 12.8347 9.71198 12.8347 9.71198C12.8347 9.71198 12.8347 9.71198 12.8347 9.71198C12.8347 9.71198 12.8347 9.71198 12.8347 9.71198V9.71198H12.8347C12.8347 9.71197 12.8347 9.71197 12.8347 9.71197C12.8347 9.71197 12.8347 9.71197 12.8347 9.71197C12.8347 9.71197 12.8347 9.71197 12.8347 9.71197C12.8347 9.71197 12.8347 9.71197 12.8347 9.71197H12.8347C12.8347 9.71197 12.8347 9.71197 12.8347 9.71197H12.8347C12.8347 9.71197 12.8347 9.71197 12.8347 9.71197C12.8347 9.71197 12.8347 9.71197 12.8347 9.71197C12.8347 9.71197 12.8347 9.71197 12.8347 9.71197C12.8347 9.71197 12.8347 9.71197 12.8347 9.71197C12.8347 9.71197 12.8347 9.71197 12.8347 9.71197H12.8348C12.8348 9.71197 12.8348 9.71197 12.8348 9.71197C12.8348 9.71197 12.8348 9.71197 12.8348 9.71197C12.8348 9.71197 12.8348 9.71197 12.8348 9.71197C12.8348 9.71197 12.8348 9.71197 12.8348 9.71197H12.8348C12.8348 9.71197 12.8348 9.71197 12.8348 9.71197C12.8348 9.71197 12.8348 9.71197 12.8348 9.71197H12.8348C12.8348 9.71197 12.8348 9.71197 12.8348 9.71197H12.8348H12.8348C12.8348 9.71197 12.8348 9.71197 12.8348 9.71196C12.8348 9.71196 12.8348 9.71196 12.8348 9.71196C12.8348 9.71196 12.3312 8.84798 11.8277 7.98399C11.8277 7.98399 11.8277 7.98399 11.8277 7.98399C11.8277 7.98399 11.8277 7.98399 11.8277 7.98399V7.98399H11.8277C11.8277 7.98399 11.8277 7.98399 11.8277 7.98399H11.8277C11.8277 7.98399 11.8277 7.98399 11.8277 7.98399C11.8277 7.98399 11.8277 7.98399 11.8277 7.98399V7.98399H11.8277C11.8277 7.98399 11.8277 7.98399 11.8277 7.98399L11.8277 7.98399C11.8277 7.98399 11.8277 7.984 11.8277 7.984V7.984C11.8277 7.984 11.8277 7.984 11.8277 7.984C11.8277 7.984 11.8277 7.984 11.8277 7.984C11.8277 7.984 11.8277 7.984 11.8277 7.984V7.984C11.8277 7.984 11.8277 7.984 11.8277 7.984C11.8277 7.984 11.8277 7.984 11.8277 7.984H11.8277C11.8277 7.984 11.8277 7.984 11.8277 7.984C11.8277 7.984 11.8277 7.984 11.8277 7.984C11.8277 7.984 11.8277 7.984 11.8277 7.984C11.8277 7.984 11.8277 7.984 11.8277 7.984C11.8277 7.984 11.8277 7.984 11.8277 7.984C11.8277 7.984 11.8277 7.984 11.8277 7.984C11.8277 7.984 11.8277 7.984 11.8277 7.984C11.8277 7.984 11.8277 7.984 11.8277 7.984C11.8277 7.984 11.8277 7.984 11.8277 7.984C11.8277 7.984 11.8277 7.984 11.8277 7.984C11.8277 7.984 11.8277 7.984 11.8277 7.984C11.8277 7.984 11.8277 7.984 11.8277 7.984H11.8277V7.984C11.8277 7.984 11.8277 7.984 11.8277 7.984C11.8277 7.984 11.8277 7.984 11.8277 7.984C11.8277 7.984 11.8277 7.984 11.8277 7.984C11.8277 7.984 11.8277 7.984 11.8277 7.984C11.8277 7.98401 11.8277 7.98401 11.8277 7.98401C11.8277 7.98401 11.8277 7.98401 11.8277 7.98401C11.8277 7.98401 11.8277 7.98401 11.8277 7.98401C11.8277 7.98401 11.8277 7.98401 11.8277 7.98401C11.8277 7.98401 11.8277 7.98401 11.8277 7.98401V7.98401C11.8277 7.98401 11.8277 7.98401 11.8277 7.98401C11.8277 7.98401 11.8277 7.98401 11.8277 7.98401C11.8277 7.98401 11.8277 7.98401 11.8277 7.98401C11.8277 7.98401 11.8277 7.98401 11.8277 7.98401C11.8277 7.98401 11.8277 7.98401 11.8277 7.98401V7.98401C11.8277 7.98401 11.8277 7.98401 11.8277 7.98401C11.8277 7.98401 11.8277 7.98401 11.8277 7.98401C11.8277 7.98401 11.8277 7.98401 11.8277 7.98401C11.8277 7.98401 11.8277 7.98401 11.8277 7.98401C11.8277 7.98401 11.8277 7.98401 11.8277 7.98401C11.8277 7.98401 11.8277 7.98401 11.8277 7.98401C11.8277 7.98401 11.8277 7.98401 11.8277 7.98401C11.8277 7.98401 11.8277 7.98401 11.8277 7.98401C11.8277 7.98401 11.8277 7.98401 11.8277 7.98401C11.8277 7.98401 11.8277 7.98401 11.8277 7.98401C11.8277 7.98402 11.8277 7.98402 11.8277 7.98402C11.8277 7.98402 11.8277 7.98402 11.8277 7.98402L12.8347 9.71199ZM12.8321 9.71352L13.8471 9.12612L12.8454 7.39508L11.8303 7.98248L12.8321 9.71352ZM13.8154 9.14373C13.8292 9.13636 13.8431 9.12869 13.8569 9.12071L12.8552 7.38961C12.8625 7.38538 12.8698 7.38134 12.8771 7.37747L13.8154 9.14373ZM14.2928 8.86837C14.3031 8.86234 14.3134 8.85606 14.3239 8.84952L13.263 7.15412C13.2686 7.1506 13.2741 7.14728 13.2794 7.14416L14.2928 8.86837ZM14.2943 8.86734L15.1909 8.34846L14.1892 6.61742L13.2926 7.1363L14.2943 8.86734ZM15.1851 8.35181C15.1903 8.34888 15.1953 8.34596 15.2003 8.34305L14.187 6.61873C14.1896 6.6172 14.1923 6.61565 14.195 6.61408L15.1851 8.35181ZM14.888 7.80955C14.8854 7.8111 14.8829 7.81257 14.8804 7.81398L13.8898 6.07654C13.8849 6.0793 13.88 6.08213 13.8751 6.08505L14.888 7.80955ZM12.5235 9.17785L14.8824 7.81283L13.8807 6.08177L11.5218 7.44679L12.5235 9.17785Z" fill="#6C67AB" mask="url(#path-9-inside-3)"/>
<path d="M19.4098 16.5878C19.4692 16.4098 19.5693 16.2463 19.7041 16.1112C19.9327 15.882 20.2426 15.7534 20.5655 15.7534C20.6796 15.7534 20.7921 15.7695 20.9 15.8004C20.8854 15.8131 20.8713 15.8263 20.8577 15.84C20.462 16.2372 19.9548 16.4966 19.4098 16.5878Z" stroke="#6C67AB"/>
<mask id="path-12-inside-4" fill="white">
<path d="M22.803 16.0543H22.7124C22.8374 16.3455 22.9017 16.6592 22.9014 16.9762V17.8107C23.1246 17.7854 23.3296 17.6755 23.4744 17.5035C23.6193 17.3315 23.693 17.1105 23.6804 16.8858C23.6678 16.6611 23.5698 16.4497 23.4067 16.2951C23.2435 16.1404 23.0275 16.0542 22.803 16.0542V16.0543Z"/>
</mask>
<path d="M22.803 16.0543V17.0543H23.803V16.0543H22.803ZM22.7124 16.0543V15.0543H21.1949L21.7935 16.4487L22.7124 16.0543ZM22.9014 16.9762L21.9014 16.9753V16.9762H22.9014ZM22.9014 17.8107H21.9014V18.9303L23.0139 18.8043L22.9014 17.8107ZM22.803 16.0542L22.8032 15.0542L21.803 15.054V16.0542H22.803ZM22.803 15.0543H22.7124V17.0543H22.803V15.0543ZM21.7935 16.4487C21.8648 16.615 21.9016 16.7942 21.9014 16.9753L23.9014 16.9772C23.9018 16.5243 23.81 16.076 23.6313 15.6599L21.7935 16.4487ZM21.9014 16.9762V17.8107H23.9014V16.9762H21.9014ZM23.0139 18.8043C23.4916 18.7502 23.9299 18.515 24.2393 18.1477L22.7096 16.8593C22.7292 16.836 22.7575 16.8206 22.7889 16.817L23.0139 18.8043ZM24.2393 18.1477C24.5486 17.7804 24.7057 17.3089 24.6788 16.8298L22.6819 16.9418C22.6803 16.9121 22.6899 16.8826 22.7096 16.8593L24.2393 18.1477ZM24.6788 16.8298C24.6519 16.3507 24.4432 15.8996 24.0946 15.5693L22.7188 17.0209C22.6965 16.9998 22.6836 16.9714 22.6819 16.9418L24.6788 16.8298ZM24.0946 15.5693C23.7459 15.2388 23.2839 15.0543 22.8032 15.0542L22.8028 17.0542C22.7711 17.0542 22.7411 17.042 22.7188 17.0209L24.0946 15.5693ZM21.803 16.0542V16.0543H23.803V16.0542H21.803Z" fill="#6C67AB" mask="url(#path-12-inside-4)"/>
<path d="M12.5725 22.1793L12.9123 22.5183L12.5725 22.1793C12.421 22.3311 12.3361 22.5368 12.3361 22.7511C12.3361 22.9653 12.421 23.171 12.5725 23.3229L12.9265 22.9698L12.5725 23.3229C12.7241 23.4748 12.9298 23.5603 13.1447 23.5603H13.7008C13.846 23.5603 13.987 23.5213 14.11 23.4491V23.8165H10.1519V22.6309C10.1521 22.4351 10.2299 22.2476 10.3677 22.1094C10.5055 21.9713 10.692 21.8938 10.8863 21.8936H13.3755C13.4654 21.8937 13.5536 21.9103 13.636 21.9418H13.1447C12.9298 21.9418 12.7241 22.0274 12.5725 22.1793Z" stroke="#6C67AB"/>
<path d="M3.81905 22.1793L4.15884 22.5183L3.81905 22.1793C3.66755 22.3311 3.58264 22.5368 3.58264 22.7511C3.58264 22.9653 3.66755 23.171 3.81905 23.3229L4.17301 22.9698L3.81905 23.3229C3.97059 23.4748 4.17637 23.5603 4.39118 23.5603H4.94727C4.94732 23.5603 4.94737 23.5603 4.94742 23.5603C5.09259 23.5603 5.23362 23.5212 5.35658 23.449V23.8165H1.39844V22.6309C1.39872 22.435 1.47647 22.2475 1.61428 22.1094C1.75205 21.9713 1.93857 21.8938 2.1329 21.8936H4.62209C4.71194 21.8937 4.80012 21.9103 4.88258 21.9418H4.39118C4.17637 21.9418 3.97059 22.0274 3.81905 22.1793Z" stroke="#6C67AB"/>
<path d="M22.5446 23.1942V23.8192H18.5864V22.376C18.5867 22.1802 18.6645 21.9927 18.8023 21.8545C18.94 21.7164 19.1266 21.639 19.3209 21.6387H21.8101C21.9 21.6388 21.9881 21.6554 22.0706 21.6869H21.5792C21.3644 21.6869 21.1586 21.7725 21.007 21.9244C20.8555 22.0762 20.7706 22.2819 20.7706 22.4962C20.7706 22.7105 20.8555 22.9162 21.007 23.068C21.1586 23.2199 21.3644 23.3055 21.5792 23.3055H22.1354C22.2806 23.3055 22.4216 23.2664 22.5446 23.1942Z" stroke="#6C67AB"/>
</svg>
