<svg width="928" height="489" viewBox="0 0 928 489" fill="none" xmlns="http://www.w3.org/2000/svg">
<rect x="61.9407" y="8.64966" width="561.119" height="107.688" rx="5.33051" fill="white" stroke="#7E97C9" stroke-width="1.88136"/>
<path opacity="0.8" d="M75.4829 34.4824C75.4829 29.8009 81.284 26.0059 88.4401 26.0059H582.505C589.661 26.0059 595.462 29.801 595.462 34.4824V51.321C595.462 56.0025 589.661 59.7976 582.505 59.7976H88.4401C81.2841 59.7976 75.4829 56.0025 75.4829 51.321V34.4824Z" fill="#E5EAF4"/>
<path d="M134.101 34.9717H117.55V51.5227H134.101V34.9717Z" fill="white"/>
<path d="M125.826 44.9877L134.101 51.5226V38.6211L125.826 44.9877Z" fill="#EEEEEE"/>
<path d="M134.791 34.9727H134.102L125.826 41.5076L117.551 34.9727H116.861C115.719 34.9727 114.792 35.8995 114.792 37.0415V49.4548C114.792 50.5968 115.719 51.5237 116.861 51.5237H117.551V38.6222L125.826 44.9874L134.102 38.6208V51.5237H134.791C135.933 51.5237 136.86 50.5968 136.86 49.4548V37.0415C136.86 35.8995 135.933 34.9727 134.791 34.9727Z" fill="#F44336"/>
<path opacity="0.8" d="M75.4829 75.8613C75.4829 71.1799 81.284 67.3848 88.4401 67.3848H582.505C589.661 67.3848 595.462 71.1799 595.462 75.8613V92.6999C595.462 97.3814 589.661 101.176 582.505 101.176H88.4401C81.2841 101.176 75.4829 97.3814 75.4829 92.6999V75.8613Z" fill="#E5EAF4"/>
<rect opacity="0.3" x="84.4482" y="34.9717" width="16.5511" height="16.5511" rx="8.27553" fill="#7E97C9"/>
<rect opacity="0.7" x="150.652" y="34.9717" width="282.058" height="16.5511" rx="8.27553" fill="#7E97C9"/>
<rect opacity="0.7" x="150.652" y="76.3506" width="239.301" height="16.5511" rx="8.27553" fill="#7E97C9"/>
<rect opacity="0.8" x="546.498" y="76.3506" width="35.8606" height="16.5511" rx="8.27553" fill="#7E97C9"/>
<rect opacity="0.8" x="546.498" y="34.9717" width="35.8606" height="16.5511" rx="8.27553" fill="#7E97C9"/>
<rect opacity="0.3" x="84.4482" y="76.3506" width="16.5511" height="16.5511" rx="8.27553" fill="#7E97C9"/>
<path d="M134.101 76.3496H117.55V92.9007H134.101V76.3496Z" fill="white"/>
<path d="M125.826 86.3657L134.101 92.9006V79.999L125.826 86.3657Z" fill="#EEEEEE"/>
<path d="M134.791 76.3506H134.102L125.826 82.8855L117.551 76.3506H116.861C115.719 76.3506 114.792 77.2774 114.792 78.4195V90.8328C114.792 91.9748 115.719 92.9016 116.861 92.9016H117.551V80.0001L125.826 86.3654L134.102 79.9987V92.9016H134.791C135.933 92.9016 136.86 91.9748 136.86 90.8328V78.4195C136.86 77.2774 135.933 76.3506 134.791 76.3506Z" fill="#F44336"/>
<path d="M8.3725 488.546H919.079C923.67 488.546 927.451 484.765 927.451 480.173C927.451 475.582 923.67 471.801 919.079 471.801H8.3725C3.78119 471.801 0 475.582 0 480.173C0 484.765 3.69116 488.546 8.3725 488.546Z" fill="#2A2B2D"/>
<path d="M703.196 470.271C703.196 470.271 737.496 470.722 737.946 473.783C738.396 476.843 736.686 478.104 724.442 480.264C712.289 482.425 575.359 483.325 574.099 482.425C572.838 481.525 532.776 471.982 532.776 471.982L628.834 470.271H703.196Z" fill="#DBE5EB"/>
<path d="M684.47 447.405C684.47 447.405 659.892 436.601 652.69 441.373C645.488 446.144 624.692 468.201 624.692 468.201L684.47 447.405Z" fill="#876F5D"/>
<path d="M626.043 470.181C626.493 470.811 627.213 470.991 627.573 470.721L678.258 433C680.959 430.93 682.309 427.869 680.959 426.248C679.609 424.628 676.368 425.168 673.757 427.419L625.863 468.561C625.503 468.921 625.593 469.641 626.043 470.181Z" fill="#EDC8AD"/>
<path d="M758.922 442.813C758.922 442.813 718.14 459.018 713.279 459.018C708.507 459.018 681.679 441.013 672.677 443.444C663.674 445.874 619.651 468.021 620.822 469.821C621.992 471.622 634.596 475.853 671.866 474.593C709.047 473.422 769.725 468.021 769.725 468.021L758.922 442.813Z" fill="#876F5D"/>
<path d="M248.113 472.612H414.482C416.912 472.612 418.983 470.631 418.983 468.11V441.823C418.983 439.392 417.002 437.321 414.482 437.321H248.113C241.901 437.321 236.86 442.363 236.86 448.575V461.268C236.86 467.57 241.901 472.612 248.113 472.612Z" fill="#FA6C06"/>
<path d="M260.986 443.353H418.983C420.063 445.153 420.783 447.314 420.783 449.654V460.367C420.783 462.618 420.153 464.779 418.983 466.669H260.986C255.405 466.669 250.813 462.078 250.813 456.496V453.615C250.813 447.944 255.405 443.353 260.986 443.353Z" fill="#F2E5DE"/>
<path d="M253.694 437.411H380.181C381.802 437.411 383.242 436.061 383.242 434.351V419.136C383.242 417.516 381.892 416.075 380.181 416.075H253.694C249.553 416.075 246.132 419.496 246.132 423.637V429.759C246.132 433.99 249.553 437.411 253.694 437.411Z" fill="#7E97C9"/>
<path d="M264.227 419.676H383.152C383.962 420.756 384.502 422.106 384.502 423.457V429.939C384.502 431.289 384.052 432.64 383.152 433.72H264.227C259.996 433.72 256.575 430.929 256.575 427.508V425.798C256.575 422.467 259.996 419.676 264.227 419.676Z" fill="#F2E5DE"/>
<path d="M434.987 289.447C431.779 278.78 436.752 265.225 436.752 265.225L422.475 266.989L434.987 289.447Z" fill="#876F5D"/>
<path d="M402.339 268.459H451.038C453.983 268.459 456.143 265.611 455.26 262.764L424.528 159.672C423.939 157.807 422.27 156.53 420.306 156.53H371.608C368.662 156.53 366.502 159.378 367.386 162.225L398.117 265.317C398.608 267.182 400.375 268.459 402.339 268.459Z" fill="#949599"/>
<path d="M396.153 268.459H444.852C447.797 268.459 449.957 265.611 449.073 262.764L418.342 159.672C417.753 157.807 416.084 156.53 414.12 156.53H365.422C362.476 156.53 360.316 159.378 361.2 162.225L391.931 265.317C392.52 267.182 394.189 268.459 396.153 268.459Z" fill="#2A2B2D"/>
<path d="M431.401 193.742C436.605 212.495 440.041 227.811 439.256 228.106C438.47 228.401 433.463 213.379 428.259 194.626C423.055 175.873 419.619 160.556 420.404 160.262C421.288 160.065 426.295 174.989 431.401 193.742Z" fill="#F5F8FF"/>
<path d="M409.445 303.535C407.117 284.803 383.837 267.154 374.991 261.631C372.353 259.899 370.801 257.517 370.801 254.918C370.956 245.607 371.577 223.518 374.37 220.919C377.94 217.671 386.786 175.443 390.821 177.067C395.012 178.691 389.58 215.614 389.58 215.614C389.58 215.614 399.513 212.365 404.789 210.741C410.066 209.117 431.794 225.9 431.794 225.9C431.794 225.9 442.037 243.874 414.101 236.186C381.044 227.091 405.876 252.536 427.914 268.886C446.072 282.421 430.552 285.344 430.552 285.344L415.808 284.911L409.445 303.535Z" fill="#876F5D"/>
<path d="M563.688 208.649L590.862 199.294L569.479 281.26C569.479 281.26 552.679 428.265 535.752 444.747C518.824 461.23 478.596 446.469 463.012 428.71C476.852 419.556 474.149 425.071 474.149 408.478C474.149 387.624 483.504 355.654 483.504 355.654C483.504 355.654 490.767 330.758 497.313 312.443C503.86 294.128 526.127 234.427 535.752 223.198C545.376 211.969 563.688 208.649 563.688 208.649Z" fill="#7E97C9"/>
<path d="M483.504 355.654L474.149 408.478C474.149 425.071 476.852 419.556 463.012 428.71C448.648 412.269 401.092 319.571 400.647 297.743C400.201 275.915 435.839 273.687 441.184 281.26C446.53 288.833 468.519 324.136 483.504 355.654Z" fill="#7E97C9"/>
<path d="M565.295 210.783C539.368 263.527 561.906 374.363 561.906 390.846C561.907 407.328 567.698 428.176 558.788 442.966C549.879 457.755 529.031 480.559 532.951 481.539C536.871 482.519 654.745 481.539 654.745 481.539C654.745 481.539 629.086 328.654 626.146 327.674C623.205 326.605 565.295 210.783 565.295 210.783Z" fill="#7E97C9"/>
<path d="M528.41 480.827C569.393 481.094 612.603 481.361 636.391 481.451L603.783 286.692C586.41 253.014 565.47 208.649 565.47 208.649C562.173 215.331 561.728 227.983 558.342 237.159C554.957 383.451 572.957 421.936 557.098 448.04C544.714 468.354 533.488 477.441 528.41 480.827Z" fill="black" fill-opacity="0.1"/>
<path d="M638.455 470.14C638.455 470.14 669.014 470.541 669.415 473.268C669.816 475.995 668.292 477.118 657.384 479.043C646.556 480.968 524.56 481.77 523.437 480.968C522.314 480.166 486.621 471.664 486.621 471.664L572.203 470.14H638.455Z" fill="#DBE5EB"/>
<path d="M702.053 147.17C739.116 181.382 821.528 213.812 821.528 213.812C821.528 213.812 834.09 329.545 825.537 395.029C816.984 460.513 821.706 473.877 821.706 473.877H651.715C651.715 473.877 628.907 442.248 587.122 343.8C560.572 281.167 565.294 210.872 565.294 210.872L668.821 164.365L702.053 147.17Z" fill="#7E97C9"/>
<path d="M512.772 393.045C519.75 395.211 531.46 419.755 531.46 419.755C531.46 419.755 539.494 387.194 544.087 366.205C549.624 340.908 559.233 320.462 559.233 320.462C559.233 320.462 560.523 338.796 558.342 361C557.065 374.005 553.716 388.338 550.769 401.092C547.268 416.246 541.415 437.62 536.96 442.966C528.051 452.159 516.462 451.597 513.975 452.159C514.617 451.918 516.141 451.036 517.344 447.507C518.066 446.865 522.076 445.02 522.798 444.298C529.215 438.443 526.568 424.487 522.237 409.007C518.146 393.607 505.794 390.96 512.772 393.045Z" fill="black" fill-opacity="0.1"/>
<path d="M651.715 473.788H821.706C821.706 473.788 816.984 460.513 825.537 394.94C832.575 340.949 825.359 253.013 822.508 223.612L807.005 217.02C768.16 228.245 745.798 286.067 739.294 342.642C734.928 380.507 672.207 417.748 631.134 438.239C644.587 463.987 651.715 473.788 651.715 473.788Z" fill="black" fill-opacity="0.1"/>
<path d="M609.725 30.0166C589.233 75.6326 613.823 117.952 613.11 116.17C612.397 114.388 644.115 39.1042 644.115 39.1042L609.725 30.0166Z" fill="#48413C"/>
<path d="M687.709 62.1748L713.725 157.149C714.437 159.822 713.814 162.673 712.121 164.811C706.062 172.295 697.331 187.797 679.869 192.697C676.483 193.677 672.296 193.944 668.91 193.944C665.347 193.944 662.228 191.45 661.605 187.975L644.053 97.8123L687.709 62.1748Z" fill="#876F5D"/>
<path d="M682.72 70.1045L673.187 74.0246L643.964 97.9018L659.645 177.73C686.284 161.158 690.115 149.933 682.72 70.1045Z" fill="black" fill-opacity="0.1"/>
<path d="M686.365 101.253C684.995 133.027 651.833 159.202 638.527 159.202C625.22 159.202 603.925 134.915 601.003 94.3882C598.681 62.5946 609.384 26.1763 632.955 28.073C656.525 29.9697 687.648 69.4911 686.365 101.253Z" fill="#876F5D"/>
<path d="M633.784 104.075C634.185 104.075 634.667 104.075 635.068 103.995C641.805 102.952 645.896 94.2896 644.372 84.1834C643.65 79.5313 641.805 75.2803 639.158 72.2324C636.351 69.0241 632.902 67.5002 629.614 68.0616C622.876 69.1043 618.786 77.7667 620.31 87.8729C621.753 97.2572 627.528 104.075 633.784 104.075ZM630.897 71.1095C632.902 71.1095 634.988 72.2324 636.832 74.3178C639.078 76.8844 640.682 80.574 641.324 84.6646C642.527 92.7656 639.479 100.145 634.667 100.947C629.854 101.669 624.641 95.4927 623.438 87.3917C622.235 79.2907 625.282 71.9116 630.095 71.1095C630.335 71.1095 630.576 71.1095 630.897 71.1095Z" fill="#A39286"/>
<path d="M611.568 104.155C611.808 104.155 611.969 104.155 612.209 104.075C616.621 103.433 619.027 95.894 617.663 87.0711C616.3 78.1681 611.728 71.7515 607.397 72.4733C605.151 72.7942 603.306 74.8795 602.344 78.3284C601.461 81.4566 601.301 85.3868 601.943 89.4774C603.146 97.8992 607.317 104.155 611.568 104.155ZM607.958 74.7191C610.525 74.7191 614.134 79.692 615.257 87.392C616.46 95.3325 614.375 101.348 611.808 101.749C609.161 102.15 605.392 97.0169 604.189 89.0763C603.627 85.3065 603.707 81.6972 604.509 78.89C605.231 76.4035 606.354 74.8795 607.637 74.7191C607.798 74.7191 607.878 74.7191 607.958 74.7191Z" fill="#A39286"/>
<path d="M641.164 77.5259C641.324 77.5259 641.485 77.5259 641.565 77.4457L693.941 62.4469C694.743 62.2063 695.224 61.324 694.983 60.5219C694.743 59.7198 693.86 59.2385 693.058 59.4791L640.683 74.4781C639.881 74.7187 639.399 75.6009 639.64 76.403C639.88 77.0446 640.522 77.5259 641.164 77.5259Z" fill="#A39286"/>
<path d="M821.528 213.723C855.918 221.474 862.333 291.324 873.47 365.004C874.717 373.468 881.399 445.278 881.399 445.278C881.399 445.278 882.023 458.464 868.926 464.967C857.7 470.58 853.156 474.857 788.029 475.48C725.485 476.104 644.855 473.52 644.855 473.52C644.855 473.52 644.142 450.267 650.557 438.863C660.179 421.757 759.073 397.167 768.339 395.92C769.676 377.477 759.251 310.835 773.596 265.665C783.485 234.571 794.087 218.267 807.362 214.079C811.639 212.654 816.361 212.654 821.528 213.723Z" fill="#7E97C9"/>
<path d="M635.563 448.319C626.252 444.262 619.365 437.762 612.618 435.405C605.834 433.13 575.718 445.373 578.273 448.43C578.483 448.618 578.657 448.888 578.866 449.077C583.065 453.044 589.474 453.504 594.208 450.222C599.213 446.766 606.416 443.393 611.116 447.774C619.004 455.098 628.947 459.042 628.947 459.042L635.563 448.319Z" fill="#806754"/>
<path d="M573.759 468.634C574.319 469.037 574.978 468.982 575.205 468.651L607.163 422.313C608.849 419.793 609.112 416.824 607.508 415.843C605.905 414.863 603.325 416.247 601.767 418.893L573.143 467.319C572.942 467.725 573.224 468.307 573.759 468.634Z" fill="#EDC8AD"/>
<path d="M680.136 475.036C710.963 475.481 753.282 475.927 787.94 475.57C853.067 474.947 857.611 470.67 868.837 465.057C882.023 458.464 882.646 447.327 882.646 447.327C882.646 447.327 875.964 370.974 874.717 362.51C867.5 313.152 859.66 256.756 841.485 229.493C858.591 279.653 861.353 321.883 861.62 339.969C861.798 349.146 860.907 361.619 858.235 370.44C855.294 380.151 847.722 386.209 835.872 382.913C812.173 376.32 782.594 390.129 782.594 390.129C782.594 390.129 804.957 382.2 825.983 389.506C847.009 396.722 890.487 444.744 843.089 462.473C828.745 467.819 741.878 472.274 680.136 475.036Z" fill="black" fill-opacity="0.1"/>
<path d="M655.726 441.091C655.726 441.091 664.457 426.212 682.454 426.212C700.451 426.212 699.114 455.613 696.53 465.235C693.858 474.857 683.345 475.303 683.345 475.303L644.767 473.521L655.726 441.091Z" fill="#7288B5"/>
<path d="M650.913 442.872C650.913 442.872 627.136 434.111 611.798 436.284C603.681 437.433 591.753 442.52 591.753 442.52C591.753 442.52 564.579 452.766 565.47 462.121C566.361 471.476 590.861 474.149 590.861 474.149H609.572L644.766 474.946C644.766 474.946 694.748 474.946 694.302 457.84C693.857 441.625 695.639 433.517 680.225 430.666C668.465 428.439 650.913 442.872 650.913 442.872Z" fill="#876F5D"/>
<path d="M651.449 442.872C676.662 440.021 669.267 471.472 666.595 474.055C663.922 476.639 680.672 474.946 680.672 474.946C680.672 474.946 688.512 462.384 681.919 447.862C675.326 433.428 668.726 433.615 662.137 434.056C655.547 434.497 651.449 442.872 651.449 442.872Z" fill="#5A321B"/>
<path d="M681.972 465.787C678.434 467.513 672.809 463.211 669.281 456.182C665.754 449.152 665.816 442.032 669.232 440.276C672.77 438.55 678.395 442.851 681.922 449.881C685.45 456.91 685.434 464.107 681.972 465.787Z" fill="#3E3E3E"/>
<path d="M682.557 463.14C679.446 464.711 674.373 460.805 671.23 454.584C668.118 448.24 668.122 441.884 671.279 440.389C674.39 438.818 679.463 442.724 682.606 448.945C685.672 455.213 685.667 461.569 682.557 463.14Z" fill="#7889A2"/>
<path d="M681.667 458.575C679.441 459.715 675.777 456.934 673.528 452.359C671.278 447.785 671.275 443.308 673.502 442.168C675.728 441.028 679.391 443.809 681.64 448.384C683.92 452.836 683.893 457.436 681.667 458.575Z" fill="#E9E9E9"/>
<path d="M682.176 91.9461L699.967 111.572L704.01 119.11C704.01 119.11 708.532 67.7647 705.792 46.4986C703.053 25.2326 688.593 20.3641 679.955 15.3158C671.318 10.2675 655.828 7.68251 638.526 8.63355C621.225 9.58459 608.68 31.7976 608.68 31.7976C608.756 32.64 609 40.5 613.5 37C618 33.5 646.313 40.5304 656.345 46.4986C669.315 54.2143 666.591 59.4168 668.373 68.3262C669.652 74.7249 670.357 77.7942 672.487 86.5904C673.322 90.0417 675.772 100.136 675.772 100.136L682.176 91.9461Z" fill="#48413C"/>
<path d="M701.766 86.6654C700.374 96.5788 694.451 103.712 688.62 102.554C682.788 101.396 681.518 93.6578 680.581 82.543C679.794 72.4869 687.896 65.4967 693.728 66.6543C699.647 67.7995 703.158 76.752 701.766 86.6654Z" fill="#876F5D"/>
</svg>
