<svg width="718" height="404" viewBox="0 0 718 404" fill="none" xmlns="http://www.w3.org/2000/svg">
<mask id="mask0" mask-type="alpha" maskUnits="userSpaceOnUse" x="0" y="0" width="699" height="404">
<rect x="0.520498" y="0.520498" width="697.347" height="402.017" rx="2.94949" fill="white" stroke="#7E97C9" stroke-width="1.041"/>
</mask>
<g mask="url(#mask0)">
<path d="M0 5.25499C0 2.35274 2.35274 0 5.25499 0H693.133C696.036 0 698.388 2.35274 698.388 5.25499V397.803C698.388 400.705 696.036 403.058 693.133 403.058H5.25497C2.35272 403.058 0 400.705 0 397.803V5.25499Z" fill="white"/>
<rect opacity="0.4" x="29" y="54" width="151" height="51" rx="10" fill="#7E97C9"/>
<path d="M3 2.15048C3 0.962803 4.41182 0 6.15338 0H694.642C696.674 0 698.321 1.12327 698.321 2.50889V34.766H3V2.15048Z" fill="#F5F8FF"/>
<path d="M23.4521 17.2913C23.4521 13.9537 26.1578 11.248 29.4954 11.248C32.833 11.248 35.5386 13.9537 35.5386 17.2913C35.5386 20.6289 32.833 23.3345 29.4954 23.3345C26.1578 23.3345 23.4521 20.6289 23.4521 17.2913Z" fill="#BAC7E4"/>
<path d="M44.4707 17.2913C44.4707 13.9537 47.1764 11.248 50.5139 11.248C53.8515 11.248 56.5572 13.9537 56.5572 17.2913C56.5572 20.6289 53.8515 23.3345 50.5139 23.3345C47.1764 23.3345 44.4707 20.6289 44.4707 17.2913Z" fill="#BAC7E4"/>
<path d="M65.4893 17.2913C65.4893 13.9537 68.1949 11.248 71.5325 11.248C74.8701 11.248 77.5757 13.9537 77.5757 17.2913C77.5757 20.6289 74.8701 23.3345 71.5325 23.3345C68.1949 23.3345 65.4893 20.6289 65.4893 17.2913Z" fill="#BAC7E4"/>
<rect opacity="0.5" x="23" y="179" width="166" height="38" fill="#7E97C9"/>
<rect opacity="0.7" x="23" y="139" width="166" height="38" fill="#7E97C9"/>
<rect opacity="0.5" x="200" y="179" width="138" height="38" fill="#7E97C9"/>
<rect opacity="0.7" x="200" y="139" width="138" height="38" fill="#7E97C9"/>
<rect opacity="0.5" x="349" y="179" width="138" height="38" fill="#7E97C9"/>
<rect opacity="0.7" x="349" y="139" width="138" height="38" fill="#7E97C9"/>
<rect opacity="0.7" x="498" y="139" width="200" height="38" fill="#7E97C9"/>
<rect opacity="0.5" x="498" y="179" width="200" height="38" fill="#7E97C9"/>
<rect opacity="0.7" x="23" y="218" width="166" height="38" fill="#7E97C9"/>
<rect opacity="0.7" x="200" y="218" width="138" height="38" fill="#7E97C9"/>
<rect opacity="0.7" x="349" y="218" width="138" height="38" fill="#7E97C9"/>
<rect opacity="0.7" x="498" y="218" width="200" height="38" fill="#7E97C9"/>
<rect opacity="0.5" x="23" y="257" width="166" height="37" fill="#7E97C9"/>
<rect opacity="0.5" x="200" y="257" width="138" height="37" fill="#7E97C9"/>
<rect opacity="0.5" x="349" y="257" width="138" height="37" fill="#7E97C9"/>
<rect opacity="0.5" x="498" y="257" width="200" height="37" fill="#7E97C9"/>
<rect opacity="0.7" x="23" y="296" width="166" height="37" fill="#7E97C9"/>
<rect opacity="0.7" x="200" y="296" width="138" height="37" fill="#7E97C9"/>
<rect opacity="0.7" x="349" y="296" width="138" height="37" fill="#7E97C9"/>
<rect opacity="0.7" x="498" y="296" width="200" height="37" fill="#7E97C9"/>
<g opacity="0.8">
<rect x="516" y="187" width="115" height="24" rx="8" fill="#F5F8FF"/>
<rect x="516" y="187" width="115" height="24" rx="8" fill="#FA6C06" fill-opacity="0.3"/>
</g>
<rect opacity="0.8" x="516" y="225" width="115" height="24" rx="8" fill="#F5F8FF"/>
<rect opacity="0.8" x="516" y="264" width="115" height="24" rx="8" fill="#F5F8FF"/>
<rect opacity="0.8" x="516" y="303" width="115" height="24" rx="8" fill="#F5F8FF"/>
<path opacity="0.3" d="M0 5.25499C0 2.35274 2.35274 0 5.25499 0H693.133C696.036 0 698.388 2.35274 698.388 5.25499V397.803C698.388 400.705 696.036 403.058 693.133 403.058H5.25497C2.35272 403.058 0 400.705 0 397.803V5.25499Z" fill="white"/>
<rect x="92.5338" y="66.5338" width="123.932" height="47.9324" rx="5.62392" fill="#F5F8FF"/>
<path d="M105.078 84.625L108 92.875L110.906 84.625H113.984V96H111.633V92.8906L111.867 87.5234L108.797 96H107.188L104.125 87.5312L104.359 92.8906V96H102.016V84.625H105.078ZM119.039 92.8047L120.602 87.5469H123.023L119.625 97.3125L119.438 97.7578C118.932 98.862 118.099 99.4141 116.938 99.4141C116.609 99.4141 116.276 99.3646 115.938 99.2656V97.5547L116.281 97.5625C116.708 97.5625 117.026 97.4974 117.234 97.3672C117.448 97.237 117.615 97.0208 117.734 96.7188L118 96.0234L115.039 87.5469H117.469L119.039 92.8047ZM130.281 96H128.016V87.5469H130.281V96ZM127.883 85.3594C127.883 85.0208 127.995 84.7422 128.219 84.5234C128.448 84.3047 128.758 84.1953 129.148 84.1953C129.534 84.1953 129.841 84.3047 130.07 84.5234C130.299 84.7422 130.414 85.0208 130.414 85.3594C130.414 85.7031 130.297 85.9844 130.062 86.2031C129.833 86.4219 129.529 86.5312 129.148 86.5312C128.768 86.5312 128.461 86.4219 128.227 86.2031C127.997 85.9844 127.883 85.7031 127.883 85.3594ZM134.227 87.5469L134.297 88.5234C134.901 87.7682 135.711 87.3906 136.727 87.3906C137.622 87.3906 138.289 87.6536 138.727 88.1797C139.164 88.7057 139.388 89.4922 139.398 90.5391V96H137.141V90.5938C137.141 90.1146 137.036 89.7682 136.828 89.5547C136.62 89.3359 136.273 89.2266 135.789 89.2266C135.154 89.2266 134.677 89.4974 134.359 90.0391V96H132.102V87.5469H134.227ZM144.281 93.2422L145.852 87.5469H148.211L145.359 96H143.203L140.352 87.5469H142.711L144.281 93.2422ZM152.992 96.1562C151.753 96.1562 150.742 95.776 149.961 95.0156C149.185 94.2552 148.797 93.2422 148.797 91.9766V91.7578C148.797 90.9089 148.961 90.151 149.289 89.4844C149.617 88.8125 150.081 88.2969 150.68 87.9375C151.284 87.5729 151.971 87.3906 152.742 87.3906C153.898 87.3906 154.807 87.7552 155.469 88.4844C156.135 89.2135 156.469 90.2474 156.469 91.5859V92.5078H151.086C151.159 93.0599 151.378 93.5026 151.742 93.8359C152.112 94.1693 152.578 94.3359 153.141 94.3359C154.01 94.3359 154.69 94.0208 155.18 93.3906L156.289 94.6328C155.951 95.112 155.492 95.487 154.914 95.7578C154.336 96.0234 153.695 96.1562 152.992 96.1562ZM152.734 89.2188C152.286 89.2188 151.922 89.3698 151.641 89.6719C151.365 89.974 151.188 90.4062 151.109 90.9688H154.25V90.7891C154.24 90.2891 154.104 89.9036 153.844 89.6328C153.583 89.3568 153.214 89.2188 152.734 89.2188ZM162.336 93.6641C162.336 93.388 162.198 93.1719 161.922 93.0156C161.651 92.8542 161.214 92.7109 160.609 92.5859C158.599 92.1641 157.594 91.3099 157.594 90.0234C157.594 89.2734 157.904 88.6484 158.523 88.1484C159.148 87.6432 159.964 87.3906 160.969 87.3906C162.042 87.3906 162.898 87.6432 163.539 88.1484C164.185 88.6536 164.508 89.3099 164.508 90.1172H162.25C162.25 89.7943 162.146 89.5286 161.938 89.3203C161.729 89.1068 161.404 89 160.961 89C160.581 89 160.286 89.0859 160.078 89.2578C159.87 89.4297 159.766 89.6484 159.766 89.9141C159.766 90.1641 159.883 90.3672 160.117 90.5234C160.357 90.6745 160.758 90.8073 161.32 90.9219C161.883 91.0312 162.357 91.1562 162.742 91.2969C163.935 91.7344 164.531 92.4922 164.531 93.5703C164.531 94.3411 164.201 94.9661 163.539 95.4453C162.878 95.9193 162.023 96.1562 160.977 96.1562C160.268 96.1562 159.638 96.0312 159.086 95.7812C158.539 95.526 158.109 95.1797 157.797 94.7422C157.484 94.2995 157.328 93.8229 157.328 93.3125H159.469C159.49 93.7135 159.638 94.0208 159.914 94.2344C160.19 94.4479 160.56 94.5547 161.023 94.5547C161.456 94.5547 161.781 94.474 162 94.3125C162.224 94.1458 162.336 93.9297 162.336 93.6641ZM168.695 85.4688V87.5469H170.141V89.2031H168.695V93.4219C168.695 93.7344 168.755 93.9583 168.875 94.0938C168.995 94.2292 169.224 94.2969 169.562 94.2969C169.812 94.2969 170.034 94.2786 170.227 94.2422V95.9531C169.784 96.0885 169.328 96.1562 168.859 96.1562C167.276 96.1562 166.469 95.3568 166.438 93.7578V89.2031H165.203V87.5469H166.438V85.4688H168.695ZM173.516 87.5469L173.586 88.4922C174.185 87.7578 174.995 87.3906 176.016 87.3906C177.104 87.3906 177.852 87.8203 178.258 88.6797C178.852 87.8203 179.698 87.3906 180.797 87.3906C181.714 87.3906 182.396 87.6589 182.844 88.1953C183.292 88.7266 183.516 89.5286 183.516 90.6016V96H181.25V90.6094C181.25 90.1302 181.156 89.7812 180.969 89.5625C180.781 89.3385 180.451 89.2266 179.977 89.2266C179.299 89.2266 178.831 89.5495 178.57 90.1953L178.578 96H176.32V90.6172C176.32 90.1276 176.224 89.7734 176.031 89.5547C175.839 89.3359 175.51 89.2266 175.047 89.2266C174.406 89.2266 173.943 89.4922 173.656 90.0234V96H171.398V87.5469H173.516ZM189.148 96.1562C187.909 96.1562 186.898 95.776 186.117 95.0156C185.341 94.2552 184.953 93.2422 184.953 91.9766V91.7578C184.953 90.9089 185.117 90.151 185.445 89.4844C185.773 88.8125 186.237 88.2969 186.836 87.9375C187.44 87.5729 188.128 87.3906 188.898 87.3906C190.055 87.3906 190.964 87.7552 191.625 88.4844C192.292 89.2135 192.625 90.2474 192.625 91.5859V92.5078H187.242C187.315 93.0599 187.534 93.5026 187.898 93.8359C188.268 94.1693 188.734 94.3359 189.297 94.3359C190.167 94.3359 190.846 94.0208 191.336 93.3906L192.445 94.6328C192.107 95.112 191.648 95.487 191.07 95.7578C190.492 96.0234 189.852 96.1562 189.148 96.1562ZM188.891 89.2188C188.443 89.2188 188.078 89.3698 187.797 89.6719C187.521 89.974 187.344 90.4062 187.266 90.9688H190.406V90.7891C190.396 90.2891 190.26 89.9036 190 89.6328C189.74 89.3568 189.37 89.2188 188.891 89.2188ZM195.992 87.5469L196.062 88.5234C196.667 87.7682 197.477 87.3906 198.492 87.3906C199.388 87.3906 200.055 87.6536 200.492 88.1797C200.93 88.7057 201.154 89.4922 201.164 90.5391V96H198.906V90.5938C198.906 90.1146 198.802 89.7682 198.594 89.5547C198.385 89.3359 198.039 89.2266 197.555 89.2266C196.919 89.2266 196.443 89.4974 196.125 90.0391V96H193.867V87.5469H195.992ZM205.586 85.4688V87.5469H207.031V89.2031H205.586V93.4219C205.586 93.7344 205.646 93.9583 205.766 94.0938C205.885 94.2292 206.115 94.2969 206.453 94.2969C206.703 94.2969 206.924 94.2786 207.117 94.2422V95.9531C206.674 96.0885 206.219 96.1562 205.75 96.1562C204.167 96.1562 203.359 95.3568 203.328 93.7578V89.2031H202.094V87.5469H203.328V85.4688H205.586Z" fill="#7E97C9"/>
<rect x="92.5338" y="66.5338" width="123.932" height="47.9324" rx="5.62392" stroke="#7E97C9" stroke-width="3.06759"/>
<rect x="56.4244" y="144.424" width="115.788" height="26.1512" rx="5.22279" fill="white"/>
<path d="M69.4111 152.821L71.8389 159.676L74.2537 152.821H76.8113V162.273H74.8574V159.689L75.0522 155.23L72.501 162.273H71.1638L68.6192 155.236L68.8139 159.689V162.273H66.8665V152.821H69.4111ZM83.9648 160.326H80.5504L79.9012 162.273H77.8305L81.3488 152.821H83.1534L86.6912 162.273H84.6205L83.9648 160.326ZM81.0762 158.748H83.439L82.2511 155.21L81.0762 158.748ZM90.1187 152.821L92.5465 159.676L94.9613 152.821H97.5189V162.273H95.565V159.689L95.7597 155.23L93.2086 162.273H91.8714L89.3267 155.236L89.5215 159.689V162.273H87.5741V152.821H90.1187ZM109.684 152.821V159.047C109.684 160.081 109.359 160.899 108.71 161.5C108.065 162.102 107.182 162.403 106.062 162.403C104.958 162.403 104.082 162.111 103.433 161.526C102.783 160.942 102.452 160.139 102.439 159.118V152.821H104.387V159.06C104.387 159.679 104.534 160.131 104.828 160.416C105.127 160.698 105.538 160.838 106.062 160.838C107.156 160.838 107.713 160.263 107.73 159.112V152.821H109.684ZM114.961 160.332C114.961 160.103 114.847 159.923 114.617 159.793C114.392 159.659 114.029 159.54 113.527 159.436C111.856 159.086 111.021 158.376 111.021 157.307C111.021 156.684 111.278 156.165 111.793 155.749C112.313 155.329 112.99 155.119 113.825 155.119C114.717 155.119 115.429 155.329 115.961 155.749C116.498 156.169 116.766 156.714 116.766 157.385H114.89C114.89 157.117 114.803 156.896 114.63 156.723C114.457 156.545 114.187 156.457 113.819 156.457C113.503 156.457 113.258 156.528 113.085 156.671C112.912 156.814 112.826 156.995 112.826 157.216C112.826 157.424 112.923 157.593 113.118 157.722C113.317 157.848 113.65 157.958 114.117 158.054C114.585 158.144 114.979 158.248 115.299 158.365C116.29 158.729 116.785 159.358 116.785 160.254C116.785 160.895 116.511 161.414 115.961 161.812C115.411 162.206 114.702 162.403 113.832 162.403C113.243 162.403 112.72 162.299 112.261 162.091C111.806 161.879 111.449 161.591 111.19 161.228C110.93 160.86 110.8 160.464 110.8 160.04H112.579C112.596 160.373 112.72 160.628 112.949 160.806C113.178 160.983 113.486 161.072 113.871 161.072C114.23 161.072 114.5 161.005 114.682 160.871C114.868 160.732 114.961 160.553 114.961 160.332ZM121.232 162.403C120.202 162.403 119.362 162.087 118.713 161.455C118.068 160.823 117.746 159.981 117.746 158.93V158.748C117.746 158.043 117.882 157.413 118.155 156.859C118.428 156.301 118.813 155.872 119.311 155.574C119.813 155.271 120.384 155.119 121.024 155.119C121.985 155.119 122.74 155.422 123.29 156.028C123.844 156.634 124.121 157.493 124.121 158.605V159.371H119.648C119.709 159.83 119.89 160.198 120.193 160.475C120.501 160.752 120.888 160.89 121.355 160.89C122.078 160.89 122.643 160.628 123.05 160.105L123.971 161.137C123.69 161.535 123.309 161.847 122.829 162.072C122.348 162.292 121.816 162.403 121.232 162.403ZM121.018 156.638C120.646 156.638 120.343 156.764 120.109 157.015C119.88 157.266 119.732 157.625 119.668 158.092H122.277V157.943C122.268 157.528 122.156 157.207 121.94 156.982C121.723 156.753 121.416 156.638 121.018 156.638ZM129.138 157.008C128.883 156.974 128.658 156.956 128.463 156.956C127.754 156.956 127.288 157.197 127.068 157.677V162.273H125.192V155.249H126.964L127.016 156.087C127.392 155.442 127.914 155.119 128.58 155.119C128.788 155.119 128.983 155.148 129.164 155.204L129.138 157.008ZM131.774 155.249L131.832 156.061C132.334 155.433 133.007 155.119 133.851 155.119C134.596 155.119 135.15 155.338 135.513 155.775C135.877 156.212 136.063 156.866 136.071 157.735V162.273H134.195V157.781C134.195 157.383 134.109 157.095 133.936 156.918C133.763 156.736 133.475 156.645 133.072 156.645C132.544 156.645 132.148 156.87 131.884 157.32V162.273H130.008V155.249H131.774ZM141.57 162.273C141.483 162.104 141.42 161.894 141.381 161.643C140.927 162.15 140.336 162.403 139.609 162.403C138.921 162.403 138.35 162.204 137.895 161.806C137.445 161.407 137.22 160.905 137.22 160.3C137.22 159.555 137.495 158.984 138.045 158.586C138.599 158.188 139.397 157.986 140.44 157.982H141.303V157.58C141.303 157.255 141.219 156.995 141.05 156.801C140.886 156.606 140.624 156.509 140.265 156.509C139.949 156.509 139.7 156.584 139.518 156.736C139.341 156.887 139.252 157.095 139.252 157.359H137.376C137.376 156.952 137.502 156.576 137.753 156.229C138.004 155.883 138.358 155.613 138.817 155.418C139.276 155.219 139.791 155.119 140.362 155.119C141.228 155.119 141.914 155.338 142.42 155.775C142.931 156.208 143.186 156.818 143.186 157.606V160.65C143.19 161.317 143.283 161.821 143.465 162.163V162.273H141.57ZM140.018 160.968C140.295 160.968 140.55 160.908 140.784 160.786C141.018 160.661 141.191 160.494 141.303 160.287V159.079H140.602C139.663 159.079 139.163 159.404 139.103 160.053L139.096 160.163C139.096 160.397 139.179 160.59 139.343 160.741C139.507 160.892 139.732 160.968 140.018 160.968ZM146.386 155.249L146.445 156.035C146.942 155.425 147.615 155.119 148.463 155.119C149.368 155.119 149.989 155.476 150.326 156.191C150.82 155.476 151.523 155.119 152.436 155.119C153.198 155.119 153.765 155.342 154.137 155.788C154.509 156.229 154.695 156.896 154.695 157.787V162.273H152.813V157.794C152.813 157.396 152.735 157.106 152.579 156.924C152.423 156.738 152.148 156.645 151.755 156.645C151.192 156.645 150.802 156.913 150.586 157.45L150.593 162.273H148.717V157.8C148.717 157.394 148.636 157.099 148.476 156.918C148.316 156.736 148.044 156.645 147.658 156.645C147.126 156.645 146.741 156.866 146.503 157.307V162.273H144.627V155.249H146.386ZM159.375 162.403C158.345 162.403 157.506 162.087 156.857 161.455C156.212 160.823 155.89 159.981 155.89 158.93V158.748C155.89 158.043 156.026 157.413 156.299 156.859C156.571 156.301 156.956 155.872 157.454 155.574C157.956 155.271 158.527 155.119 159.168 155.119C160.128 155.119 160.884 155.422 161.433 156.028C161.987 156.634 162.264 157.493 162.264 158.605V159.371H157.792C157.852 159.83 158.034 160.198 158.337 160.475C158.644 160.752 159.031 160.89 159.499 160.89C160.221 160.89 160.786 160.628 161.193 160.105L162.115 161.137C161.834 161.535 161.453 161.847 160.972 162.072C160.492 162.292 159.96 162.403 159.375 162.403ZM159.161 156.638C158.789 156.638 158.486 156.764 158.252 157.015C158.023 157.266 157.876 157.625 157.811 158.092H160.421V157.943C160.412 157.528 160.299 157.207 160.083 156.982C159.867 156.753 159.559 156.638 159.161 156.638Z" fill="#7E97C9"/>
<rect x="56.4244" y="144.424" width="115.788" height="26.1512" rx="5.22279" stroke="#7E97C9" stroke-width="2.8488"/>
<rect x="236.424" y="144.424" width="60.4239" height="26.1512" rx="5.22279" fill="white"/>
<path d="M249.026 152.821L251.453 159.676L253.868 152.821H256.426V162.273H254.472V159.689L254.667 155.23L252.116 162.273H250.778L248.234 155.236L248.428 159.689V162.273H246.481V152.821H249.026ZM265.046 154.399H262.151V162.273H260.204V154.399H257.348V152.821H265.046V154.399ZM271.512 158.716H272.583V160.228H271.512V162.273H269.636V160.228H265.76L265.676 159.047L269.616 152.821H271.512V158.716ZM267.546 158.716H269.636V155.379L269.512 155.593L267.546 158.716ZM279.178 162.273H277.231V152.821H279.178V162.273ZM280.574 158.709C280.574 157.614 280.818 156.742 281.307 156.093C281.801 155.444 282.474 155.119 283.326 155.119C284.01 155.119 284.575 155.375 285.02 155.885V152.302H286.903V162.273H285.209L285.118 161.526C284.65 162.111 284.049 162.403 283.313 162.403C282.487 162.403 281.822 162.078 281.32 161.429C280.823 160.776 280.574 159.869 280.574 158.709ZM282.45 158.845C282.45 159.503 282.565 160.007 282.794 160.358C283.023 160.709 283.356 160.884 283.794 160.884C284.373 160.884 284.782 160.639 285.02 160.15V157.378C284.787 156.889 284.382 156.645 283.807 156.645C282.902 156.645 282.45 157.378 282.45 158.845Z" fill="#7E97C9"/>
<rect x="236.424" y="144.424" width="60.4239" height="26.1512" rx="5.22279" stroke="#7E97C9" stroke-width="2.8488"/>
<rect x="382.424" y="144.424" width="67.0148" height="26.1512" rx="5.22279" fill="white"/>
<path d="M392.848 162.273V152.821H396.158C397.305 152.821 398.175 153.042 398.768 153.484C399.361 153.921 399.657 154.563 399.657 155.412C399.657 155.875 399.538 156.284 399.3 156.638C399.062 156.989 398.731 157.246 398.307 157.411C398.792 157.532 399.173 157.777 399.45 158.144C399.731 158.512 399.872 158.962 399.872 159.495C399.872 160.403 399.582 161.092 399.002 161.559C398.422 162.026 397.595 162.264 396.522 162.273H392.848ZM394.795 158.157V160.709H396.464C396.922 160.709 397.279 160.6 397.535 160.384C397.794 160.163 397.924 159.86 397.924 159.475C397.924 158.61 397.476 158.17 396.58 158.157H394.795ZM394.795 156.781H396.236C397.219 156.764 397.71 156.372 397.71 155.606C397.71 155.178 397.584 154.871 397.333 154.685C397.087 154.494 396.695 154.399 396.158 154.399H394.795V156.781ZM405.285 162.273C405.199 162.104 405.136 161.894 405.097 161.643C404.643 162.15 404.052 162.403 403.325 162.403C402.637 162.403 402.066 162.204 401.611 161.806C401.161 161.407 400.936 160.905 400.936 160.3C400.936 159.555 401.211 158.984 401.761 158.586C402.314 158.188 403.113 157.986 404.156 157.982H405.019V157.58C405.019 157.255 404.935 156.995 404.766 156.801C404.602 156.606 404.34 156.509 403.981 156.509C403.665 156.509 403.416 156.584 403.234 156.736C403.057 156.887 402.968 157.095 402.968 157.359H401.092C401.092 156.952 401.217 156.576 401.468 156.229C401.719 155.883 402.074 155.613 402.533 155.418C402.992 155.219 403.507 155.119 404.078 155.119C404.944 155.119 405.629 155.338 406.136 155.775C406.646 156.208 406.902 156.818 406.902 157.606V160.65C406.906 161.317 406.999 161.821 407.181 162.163V162.273H405.285ZM403.734 160.968C404.011 160.968 404.266 160.908 404.5 160.786C404.734 160.661 404.907 160.494 405.019 160.287V159.079H404.318C403.379 159.079 402.879 159.404 402.819 160.053L402.812 160.163C402.812 160.397 402.894 160.59 403.059 160.741C403.223 160.892 403.448 160.968 403.734 160.968ZM410.323 162.273H408.44V152.302H410.323V162.273ZM415.944 162.273C415.858 162.104 415.795 161.894 415.756 161.643C415.302 162.15 414.711 162.403 413.984 162.403C413.296 162.403 412.725 162.204 412.27 161.806C411.82 161.407 411.595 160.905 411.595 160.3C411.595 159.555 411.87 158.984 412.419 158.586C412.973 158.188 413.772 157.986 414.815 157.982H415.678V157.58C415.678 157.255 415.594 156.995 415.425 156.801C415.261 156.606 414.999 156.509 414.639 156.509C414.324 156.509 414.075 156.584 413.893 156.736C413.716 156.887 413.627 157.095 413.627 157.359H411.751C411.751 156.952 411.876 156.576 412.127 156.229C412.378 155.883 412.733 155.613 413.192 155.418C413.651 155.219 414.166 155.119 414.737 155.119C415.602 155.119 416.288 155.338 416.795 155.775C417.305 156.208 417.561 156.818 417.561 157.606V160.65C417.565 161.317 417.658 161.821 417.84 162.163V162.273H415.944ZM414.393 160.968C414.67 160.968 414.925 160.908 415.159 160.786C415.392 160.661 415.566 160.494 415.678 160.287V159.079H414.977C414.038 159.079 413.538 159.404 413.478 160.053L413.471 160.163C413.471 160.397 413.553 160.59 413.718 160.741C413.882 160.892 414.107 160.968 414.393 160.968ZM420.728 155.249L420.787 156.061C421.289 155.433 421.962 155.119 422.806 155.119C423.55 155.119 424.104 155.338 424.467 155.775C424.831 156.212 425.017 156.866 425.026 157.735V162.273H423.15V157.781C423.15 157.383 423.063 157.095 422.89 156.918C422.717 156.736 422.429 156.645 422.027 156.645C421.499 156.645 421.103 156.87 420.839 157.32V162.273H418.963V155.249H420.728ZM429.375 160.89C429.721 160.89 430.002 160.795 430.219 160.605C430.435 160.414 430.548 160.161 430.556 159.845H432.316C432.311 160.321 432.181 160.758 431.926 161.156C431.671 161.55 431.32 161.857 430.874 162.078C430.433 162.295 429.944 162.403 429.407 162.403C428.403 162.403 427.611 162.085 427.032 161.449C426.452 160.808 426.162 159.925 426.162 158.8V158.677C426.162 157.595 426.45 156.731 427.025 156.087C427.601 155.442 428.39 155.119 429.394 155.119C430.273 155.119 430.976 155.37 431.504 155.872C432.036 156.37 432.307 157.034 432.316 157.865H430.556C430.548 157.502 430.435 157.207 430.219 156.982C430.002 156.753 429.717 156.638 429.362 156.638C428.925 156.638 428.594 156.799 428.369 157.119C428.148 157.435 428.038 157.95 428.038 158.664V158.858C428.038 159.581 428.148 160.1 428.369 160.416C428.59 160.732 428.925 160.89 429.375 160.89ZM436.619 162.403C435.589 162.403 434.75 162.087 434.101 161.455C433.456 160.823 433.133 159.981 433.133 158.93V158.748C433.133 158.043 433.27 157.413 433.542 156.859C433.815 156.301 434.2 155.872 434.698 155.574C435.2 155.271 435.771 155.119 436.412 155.119C437.372 155.119 438.128 155.422 438.677 156.028C439.231 156.634 439.508 157.493 439.508 158.605V159.371H435.035C435.096 159.83 435.278 160.198 435.581 160.475C435.888 160.752 436.275 160.89 436.743 160.89C437.465 160.89 438.03 160.628 438.437 160.105L439.359 161.137C439.077 161.535 438.697 161.847 438.216 162.072C437.736 162.292 437.204 162.403 436.619 162.403ZM436.405 156.638C436.033 156.638 435.73 156.764 435.496 157.015C435.267 157.266 435.12 157.625 435.055 158.092H437.664V157.943C437.656 157.528 437.543 157.207 437.327 156.982C437.111 156.753 436.803 156.638 436.405 156.638Z" fill="#7E97C9"/>
<rect x="382.424" y="144.424" width="67.0148" height="26.1512" rx="5.22279" stroke="#7E97C9" stroke-width="2.8488"/>
<path fill-rule="evenodd" clip-rule="evenodd" d="M693.133 1.5765H5.25499C3.22341 1.5765 1.5765 3.22341 1.5765 5.25499V397.803C1.5765 399.834 3.22341 401.481 5.25497 401.481H693.133C695.165 401.481 696.812 399.834 696.812 397.803V5.25499C696.812 3.22341 695.165 1.5765 693.133 1.5765ZM5.25499 0C2.35274 0 0 2.35274 0 5.25499V397.803C0 400.705 2.35272 403.058 5.25497 403.058H693.133C696.036 403.058 698.388 400.705 698.388 397.803V5.25499C698.388 2.35274 696.036 0 693.133 0H5.25499Z" fill="#7E97C9"/>
</g>
<path d="M623.959 395.442L571.322 395.526C570.57 395.526 569.943 394.774 569.902 393.813C569.86 392.894 570.403 392.058 571.155 391.975L623.583 387.254C627.844 386.878 631.729 388.507 631.813 390.93C631.938 393.437 628.22 395.442 623.959 395.442Z" fill="#67686B"/>
<path d="M555.781 388.007C557.578 387.547 560.92 377.604 560.92 377.604C560.92 377.604 522.904 364.779 506.779 356.424L484.304 382.409C513.171 389.636 554.445 388.341 555.781 388.007Z" fill="#E9C4AA"/>
<path d="M549.932 373.677C559.29 376.1 574.162 370.043 576.961 370.669C579.76 371.254 591.373 377.312 594.172 380.361C596.971 383.369 606.83 392.769 605.034 393.353C603.279 393.938 590.872 384.873 589.368 384.581C587.864 384.288 587.112 386.377 574.705 388.8C562.297 391.223 547.342 384.956 547.342 384.956L549.932 373.677Z" fill="#E9C4AA"/>
<path d="M564.846 383.077C564.846 383.077 579.258 379.442 581.013 380.069C582.767 380.654 593.545 383.077 600.981 391.557C593.921 389.426 583.77 388.842 581.013 388.842C578.214 388.8 564.846 383.077 564.846 383.077Z" fill="#DEB799"/>
<path d="M568.272 377.019C574.413 384.872 590.037 387.295 592.418 390.011C594.799 392.726 586.736 391.598 582.475 391.222C571.655 390.303 564.094 394.69 555.321 391.974C546.548 389.259 544.585 382.742 544.585 382.742L568.272 377.019Z" fill="#E9C4AA"/>
<path d="M452.93 237.406C425.15 251.067 412.45 261.051 403.844 298.231C395.238 335.453 394.779 370.837 399.291 397.155C430.121 398.033 518.434 401.375 518.434 401.375C518.434 401.375 516.763 347.359 507.74 304.581C499.134 263.766 486.852 247.85 476.45 240.623C465.964 233.354 452.93 237.406 452.93 237.406Z" fill="#7E97C9"/>
<path opacity="0.1" d="M459.614 364.027C449.672 354.043 452.345 286.45 436.011 256.038C415.16 261.375 406.115 274.006 398.402 327.253L396.408 359.975C396.324 373.594 397.369 386.168 399.249 397.197C399.374 397.823 399.917 398.241 400.544 398.199C425.651 395.985 427.029 385.082 507.196 373.009C509.118 372.633 466.382 370.795 459.614 364.027Z" fill="#010101"/>
<path d="M450.257 237.406C446.748 245.594 453.891 256.372 465.171 264.852C476.45 273.333 483.301 268.696 482.716 262.012C482.132 255.328 481.505 248.309 478.873 244.048C476.241 239.829 455.27 236.194 455.27 236.194C455.27 236.194 450.884 235.986 450.257 237.406Z" fill="white"/>
<path d="M463.667 196.257L452.888 237.406C451.844 240.163 452.137 243.254 453.682 245.761C458.069 252.863 467.51 266.44 474.236 264.643C483.301 262.22 477.244 245.301 477.244 245.301L489.358 202.648L463.667 196.257Z" fill="#F4CEB1"/>
<path opacity="0.1" d="M480.168 198.805L469.432 194.46L466.215 202.857C467.677 238.617 472.231 253.196 479.249 257.248C479.625 251.734 477.327 245.259 477.327 245.259L486.1 213.51L480.168 198.805Z" fill="#010101"/>
<path d="M510.038 214.93C507.949 229.134 502.352 241.291 492.2 239.787C482.049 238.283 464.628 226.419 466.759 212.215C468.889 198.011 491.615 181.009 501.767 182.513C511.876 184.016 512.127 200.727 510.038 214.93Z" fill="#F4CEB1"/>
<path d="M454.382 281.718C455.176 278.502 420.764 263.14 418.717 265.73C401.52 295.359 398.821 355.038 432.879 371.536C466.937 388.033 540.523 390.794 542.319 390.335C544.115 389.875 549.003 375.922 549.003 375.922C549.003 375.922 466.246 346.22 457.933 340.622C448.951 308.246 448.241 306.157 454.382 281.718Z" fill="#F4CEB1"/>
<path d="M427.866 253.781C406.518 263.348 403.833 335.19 403.833 335.19C403.833 335.19 428.898 337.279 438.298 335.19C447.697 333.102 454.799 329.76 454.799 329.76C457.134 329.788 451.633 313.41 454.799 296.13C461.65 273.947 441.025 247.849 427.866 253.781Z" fill="#7E97C9"/>
<path d="M404.459 326.627C423.954 321.589 446.984 322.167 454.38 324.329C454.766 322.823 453.926 319.424 454.38 317.306C449.002 315.234 430.973 314.1 417.945 317.306C412.664 318.616 408.102 318.837 405.085 319.733C405.08 321.626 404.488 325.129 404.459 326.627Z" fill="white"/>
<path d="M406.015 311.764C406.001 312.625 405.971 313.448 405.926 314.231C421.943 307.034 445.603 308.607 451.488 311.826C452.187 312.221 453.753 313.049 453.753 313.049C453.753 313.049 453.636 311.234 453.798 310.404C450.064 308.842 440.842 306.213 435.194 306.05C423.689 305.763 407.31 311.289 406.015 311.764Z" fill="white"/>
<path opacity="0.1" d="M441.225 361.867C441.225 361.867 444.757 350.832 453.203 345.097C458.008 341.815 459.118 342.106 458.702 342.144C458.06 339.569 457.412 337.112 456.759 334.773C452.995 338.521 443.979 348.605 441.225 361.867Z" fill="#010101"/>
<path d="M701.578 281.896V384.873C701.578 388.298 698.362 391.056 694.351 391.056H672.711C669.035 391.056 666.027 393.646 666.027 396.821H697.15C703.834 396.821 709.265 392.142 709.265 386.377V281.854H701.578V281.896Z" fill="#2A2B2D"/>
<path d="M685.745 370.085L682.319 369.417C680.063 368.999 678.601 367.035 679.102 365.072L706.006 260.508C706.507 258.545 708.763 257.333 711.019 257.751L714.445 258.419C716.7 258.837 718.163 260.8 717.661 262.764L690.758 367.328C690.298 369.291 688.001 370.503 685.745 370.085Z" fill="#67686B"/>
<path d="M686.707 370.251L686.289 370.168C684.535 369.834 683.407 368.33 683.824 366.826L711.146 260.674C711.522 259.171 713.276 258.21 715.031 258.544L715.448 258.628C717.203 258.962 718.331 260.466 717.913 261.97L690.592 368.121C690.174 369.625 688.42 370.586 686.707 370.251Z" fill="#2A2B2D"/>
<path d="M714.617 402.903H309.484C307.617 402.903 306.079 401.154 306.079 398.934C306.079 396.758 307.617 394.966 309.484 394.966H714.581C716.448 394.966 717.985 396.758 717.985 398.934C717.985 401.111 716.484 402.903 714.617 402.903Z" fill="#2E5B9A"/>
<path d="M468.345 178.544C447.416 191.537 460.659 205.573 455.103 229.719C458.528 230.889 462.246 224.163 464.627 218.858C467.009 213.552 469.139 205.866 469.933 206.116C470.727 206.367 472.063 218.315 472.063 218.315L475.238 219.902C475.238 219.902 479.75 211.965 479.499 210.085C479.249 208.247 475.531 199.223 480.042 194.962C482.925 192.247 494.873 198.137 494.873 198.137L483.217 181.427L468.345 178.544Z" fill="#F09959"/>
<path opacity="0.1" d="M468.345 178.544C447.416 191.537 460.659 205.573 455.103 229.719C458.528 230.889 462.246 224.163 464.627 218.858C467.009 213.552 469.139 205.866 469.933 206.116C470.727 206.367 472.063 218.315 472.063 218.315L475.238 219.902C475.238 219.902 479.75 211.965 479.499 210.085C479.249 208.247 475.531 199.223 480.042 194.962C482.925 192.247 494.873 198.137 494.873 198.137L483.217 181.427L468.345 178.544Z" fill="#CA8A50"/>
<path d="M514.215 192.581C513.171 205.322 493.411 201.312 484.262 189.949C475.531 179.087 468.304 186.565 459.615 190.199C445.035 196.299 461.453 161.04 490.904 166.596C512.962 170.774 514.925 184.1 514.215 192.581Z" fill="#CA8A50"/>
<path d="M470.351 206.116C471.27 210.878 469.474 215.181 466.383 215.766C463.291 216.351 460.033 212.967 459.155 208.246C458.278 203.526 460.033 199.181 463.124 198.596C466.215 198.011 469.474 201.353 470.351 206.116Z" fill="#F4CEB1"/>
<path d="M357.306 245.134C346.862 254.659 351.416 264.183 359.103 281.896C366.831 299.609 368.168 364.946 368.168 364.946L361.818 364.027C361.818 364.027 362.737 296.894 354.09 278.721C345.484 260.591 341.849 251.484 334.121 257.416C326.434 263.264 357.306 245.134 357.306 245.134Z" fill="#79B46F"/>
<path d="M363.03 232.81C361.777 227.17 354.215 221.071 344.189 215.891C345.693 224.204 350.497 237.823 345.526 240.622C338.842 244.382 344.857 225.374 342.309 214.93C332.868 210.335 321.505 206.533 311.019 204.653C311.019 204.695 311.061 204.737 311.061 204.779C316.951 219.734 324.68 225.666 321.505 227.922C319.124 229.635 311.354 212.34 301.035 203.484C293.307 203.066 286.79 204.11 282.946 207.16C276.972 211.88 272.962 216.058 278.978 230.47C282.403 232.935 286.831 234.69 292.012 235.191C305.63 236.57 311.98 236.987 302.455 241.541C297.777 243.755 289.965 241.416 283.615 239.995C285.662 243.797 288.21 248.058 291.26 252.946C293.223 256.037 295.354 258.752 297.651 261.05C302.038 261.886 305.881 261.886 307.886 261.05C314.236 258.335 330.57 249.687 334.664 253.322C338.675 256.872 304.419 259.128 306.8 268.152C323.385 277.718 342.393 273.165 345.735 264.392C350.205 252.57 366.831 249.812 363.03 232.81Z" fill="#89C97E"/>
<path d="M328.691 297.311C346.822 283.693 365.454 296.392 374.979 310.93C384.503 325.468 377.694 358.136 377.694 358.136C377.694 358.136 374.06 358.136 374.06 356.758C374.06 355.379 384.044 318.199 360.441 301.405C345.694 290.92 335.041 295.975 333.663 300.946C332.284 305.917 339.553 315.024 339.553 315.024L328.691 297.311Z" fill="#79B46F"/>
<path d="M370.423 269.322C352.292 269.322 346.36 297.437 351.373 313.771C356.345 330.105 363.154 360.518 363.154 360.518L367.707 355.964C367.707 355.964 350.454 313.311 354.548 294.262C358.642 275.212 368.627 272.037 370.423 272.037C372.261 272.037 370.423 269.322 370.423 269.322Z" fill="#89C97E"/>
<path d="M355.218 313.938C353.923 312.267 352.378 310.847 350.456 309.928C350.707 311.265 351.041 312.601 351.417 313.813C353.673 321.249 356.346 331.609 358.56 340.674C358.769 339.505 359.062 337.708 359.563 334.951C359.688 334.283 359.772 333.573 359.814 332.821C358.017 326.805 356.305 320.204 355.218 313.938Z" fill="#79B46F"/>
<path d="M350.247 314.063C315.782 299.525 333.913 279.64 303.542 292.757C301.411 293.676 298.78 296.016 296.19 299.232C298.905 299.984 302.163 300.569 305.84 300.026C314.905 298.648 311.73 305.917 296.774 307.755C293.934 308.089 291.678 308.548 289.756 309.217C282.613 322.919 279.396 340.924 294.519 347.191C297.485 348.444 301.161 349.112 305.255 349.405C309.934 345.687 304.127 324.298 311.312 327.222C318.205 330.063 309.14 345.603 310.393 349.488C317.203 349.363 324.722 348.235 331.949 346.48C334.79 344.893 336.962 342.762 337.631 339.922C339.887 330.397 324.931 324.507 324.472 316.319C324.054 308.799 329.944 332.82 345.61 336.371C359.688 329.812 366.372 320.83 350.247 314.063Z" fill="#89C97E"/>
<path d="M374.81 288.37C371.175 280.642 380.7 278.846 380.241 284.736C379.823 289.958 379.781 302.658 385.17 306.125C394.403 305.122 406.977 301.404 416.502 295.723C416.627 294.971 416.502 294.177 416.084 293.342C411.99 285.195 385.672 278.386 393.86 275.629C400.377 273.457 411.781 286.24 420.93 292.715C426.444 288.538 430.162 283.524 430.162 277.968C430.162 270.449 421.014 261.885 409.149 257.833C403.802 258.376 398.873 261.3 391.144 265.686C379.739 272.162 382.371 261.676 393.149 255.493C383.833 255.994 374.518 259.963 367.666 269.488C367.666 269.488 368.335 273.54 363.99 279.848C352.251 297.018 365.786 307.044 381.995 306.376C381.16 301.864 377.358 293.718 374.81 288.37Z" fill="#89C97E"/>
<path d="M329.777 296.559C320.92 303.411 311.061 311.431 298.946 316.862C286.831 322.293 289.254 340.048 289.254 340.048C289.254 340.048 287.458 324.716 297.526 319.494C307.594 314.23 314.278 308.006 321.923 306.794C329.568 305.583 333.829 304.371 333.829 304.371C333.829 304.371 331.406 299.525 332.826 297.729C334.247 295.891 329.777 296.559 329.777 296.559Z" fill="#79B46F"/>
<path d="M286.037 216.016C318.497 224.705 342.309 245.468 346.737 250.481C351.165 255.536 351.165 256.914 351.165 256.914L347.739 263.348L346.11 262.554C346.11 262.554 348.742 257.123 341.891 250.063C330.068 237.906 315.656 228.298 305.797 224.037C295.938 219.859 286.037 216.016 286.037 216.016Z" fill="#79B46F"/>
<path d="M375.688 395.734H363.28C354.466 395.734 347.322 388.59 347.322 379.776V351.285H391.688V379.776C391.646 388.59 384.502 395.734 375.688 395.734Z" fill="#FA6C06"/>
<path d="M551.342 390.167C553.138 389.707 556.48 379.765 556.48 379.765C556.48 379.765 518.465 366.94 502.339 358.584L479.864 384.569C508.731 391.796 550.005 390.501 551.342 390.167Z" fill="#F4CEB1"/>
<path d="M538.265 372.867C555.618 366.62 560.171 368.988 564.11 367.845C573.791 365.028 576.211 367.437 582.488 384.544C583.719 387.933 580.068 388.178 576.416 388.178C572.765 388.178 568.335 381.155 566.94 380.339C565.545 379.522 561.689 379.114 561.689 379.114C561.689 379.114 562.92 379.114 564.725 382.748C566.53 386.381 568.745 387.77 565.956 387.77C563.166 387.77 562.715 383.156 557.464 384.136C552.213 385.156 554.223 387.77 541.096 387.565C527.968 387.361 479.831 389.429 480.036 381.59C480.241 374.159 487.883 359.22 494.98 357.914C500.395 356.893 538.265 372.867 538.265 372.867Z" fill="#F4CEB1"/>
</svg>
