<svg width="573" height="466" viewBox="0 0 573 466" fill="none" xmlns="http://www.w3.org/2000/svg">
<rect x="0.940678" y="0.940678" width="571.119" height="463.552" rx="5.33051" fill="white" stroke="#7E97C9" stroke-width="1.88136"/>
<path fill-rule="evenodd" clip-rule="evenodd" d="M63.0923 235.82C63.0923 207.247 86.2347 184.105 114.807 184.105C143.38 184.105 166.522 207.247 166.522 235.82C166.522 264.392 143.38 287.535 114.807 287.535C86.2347 287.535 63.0923 264.392 63.0923 235.82ZM126.288 220.512C126.288 214.179 121.14 209.031 114.807 209.031C108.473 209.031 103.326 214.179 103.326 220.512C103.326 226.865 108.473 231.993 114.807 231.993C121.14 231.993 126.288 226.865 126.288 220.512ZM91.8455 251.051C96.8013 258.475 105.22 263.373 114.807 263.373C124.393 263.373 132.812 258.475 137.768 251.051C137.653 243.454 122.442 239.264 114.807 239.264C107.172 239.264 91.9412 243.454 91.8455 251.051Z" fill="#FA6C06"/>
<path fill-rule="evenodd" clip-rule="evenodd" d="M286.5 287.535C315.062 287.535 338.215 264.381 338.215 235.82C338.215 207.258 315.062 184.105 286.5 184.105C257.939 184.105 234.786 207.258 234.786 235.82C234.786 264.381 257.939 287.535 286.5 287.535ZM287.459 209.069L313.9 224.178C314.183 224.367 314.372 224.65 314.372 225.028C314.372 225.406 314.183 225.689 313.9 225.878L287.459 240.987C287.27 241.082 287.176 241.082 286.987 241.082C286.798 241.082 286.703 241.082 286.515 240.987L260.074 225.878C259.79 225.689 259.601 225.406 259.601 225.028C259.601 224.65 259.79 224.367 260.074 224.178L286.515 209.069C286.798 208.88 287.176 208.88 287.459 209.069ZM313.9 246.842L312.764 246.193C309.373 244.256 305.209 244.261 301.823 246.208L288.403 253.925C287.931 254.208 287.459 254.302 286.987 254.302C286.514 254.302 286.042 254.208 285.57 253.925L272.15 246.208C268.764 244.261 264.6 244.256 261.209 246.193L260.074 246.842C259.79 247.031 259.601 247.314 259.601 247.692C259.601 248.07 259.79 248.353 260.074 248.542L286.514 263.651C286.703 263.746 286.798 263.746 286.987 263.746C287.175 263.746 287.27 263.746 287.459 263.651L313.9 248.542C314.183 248.353 314.372 248.07 314.372 247.692C314.372 247.314 314.183 247.031 313.9 246.842ZM312.764 234.861L313.9 235.51C314.183 235.699 314.372 235.982 314.372 236.36C314.372 236.738 314.183 237.021 313.9 237.21L287.459 252.319C287.27 252.413 287.175 252.413 286.987 252.413C286.798 252.413 286.703 252.413 286.514 252.319L260.074 237.21C259.79 237.021 259.601 236.738 259.601 236.36C259.601 235.982 259.79 235.699 260.074 235.51L261.209 234.861C264.6 232.923 268.764 232.929 272.15 234.876L285.57 242.592C286.042 242.876 286.514 242.97 286.987 242.97C287.459 242.97 287.931 242.876 288.403 242.592L301.823 234.876C305.209 232.929 309.373 232.923 312.764 234.861Z" fill="#6C67AB"/>
<circle cx="428.199" cy="71.3667" r="51.7148" fill="#7E97C9"/>
<path opacity="0.1" d="M428.184 43.4404C412.755 43.4404 400.272 55.9373 400.272 71.3664C400.272 86.7955 412.755 99.2924 428.184 99.2924C443.614 99.2924 456.124 86.7955 456.124 71.3664C456.124 55.9373 443.614 43.4404 428.184 43.4404ZM447.523 60.196H439.285C438.377 56.7053 437.107 53.3542 435.431 50.2544C440.57 52.0137 444.842 55.5743 447.523 60.196ZM428.198 49.1234C430.53 52.4745 432.345 56.2026 433.532 60.196H422.865C424.051 56.2026 425.867 52.4745 428.198 49.1234ZM406.584 76.9516C406.123 75.1644 405.858 73.2933 405.858 71.3664C405.858 69.4395 406.123 67.5685 406.584 65.7812H416.009C415.785 67.6104 415.632 69.4675 415.632 71.3664C415.632 73.2654 415.785 75.1225 416.023 76.9516H406.584ZM408.86 82.5368H417.098C418.005 86.0276 419.276 89.3787 420.952 92.4924C415.813 90.7331 411.541 87.1586 408.86 82.5368ZM417.098 60.196H408.86C411.541 55.5743 415.813 51.9997 420.952 50.2404C419.276 53.3542 418.005 56.7053 417.098 60.196ZM428.198 93.6095C425.881 90.2584 424.065 86.5302 422.865 82.5368H433.532C432.332 86.5302 430.516 90.2584 428.198 93.6095ZM434.733 76.9516H421.664C421.398 75.1225 421.217 73.2654 421.217 71.3664C421.217 69.4675 421.398 67.6104 421.664 65.7812H434.733C434.998 67.6104 435.18 69.4675 435.18 71.3664C435.18 73.2654 434.998 75.1225 434.733 76.9516ZM435.445 92.4785C437.121 89.3647 438.391 86.0276 439.299 82.5368H447.537C444.842 87.1586 440.57 90.7191 435.445 92.4785ZM440.374 76.9516C440.598 75.1225 440.765 73.2654 440.765 71.3664C440.765 69.4675 440.612 67.6104 440.374 65.7812H449.799C450.26 67.5685 450.539 69.4395 450.539 71.3664C450.539 73.2933 450.274 75.1644 449.799 76.9516H440.374Z" fill="white"/>
<path d="M416.704 71.9929H409.723V76.72H417.916V79.6411H406.086V61.9934H417.892V64.9387H409.723V69.1446H416.704V71.9929Z" fill="#F5F8FF"/>
<path d="M434.4 79.6411H430.764L423.686 68.0295V79.6411H420.049V61.9934H423.686L430.776 73.6292V61.9934H434.4V79.6411Z" fill="#F5F8FF"/>
<path d="M451.539 77.4109C450.884 78.1947 449.959 78.8047 448.763 79.2411C447.567 79.6693 446.242 79.8835 444.788 79.8835C443.26 79.8835 441.919 79.5522 440.764 78.8896C439.616 78.2189 438.727 77.2493 438.097 75.9806C437.475 74.712 437.156 73.2212 437.14 71.5081V70.3082C437.14 68.5466 437.434 67.0235 438.024 65.7387C438.622 64.4458 439.479 63.46 440.594 62.7812C441.717 62.0944 443.03 61.751 444.533 61.751C446.626 61.751 448.262 62.252 449.442 63.2539C450.622 64.2478 451.321 65.6983 451.539 67.6053H448C447.838 66.5952 447.478 65.8558 446.921 65.3872C446.371 64.9185 445.612 64.6842 444.642 64.6842C443.406 64.6842 442.465 65.1488 441.818 66.0781C441.172 67.0073 440.844 68.3891 440.836 70.2233V71.3505C440.836 73.201 441.188 74.5989 441.891 75.5443C442.594 76.4897 443.624 76.9624 444.982 76.9624C446.347 76.9624 447.321 76.6715 447.903 76.0897V73.0474H444.594V70.3688H451.539V77.4109Z" fill="#F5F8FF"/>
<circle cx="458.193" cy="235.82" r="51.7148" fill="#7E97C9"/>
<path opacity="0.1" d="M458.179 207.894C442.75 207.894 430.267 220.39 430.267 235.82C430.267 251.249 442.75 263.746 458.179 263.746C473.608 263.746 486.119 251.249 486.119 235.82C486.119 220.39 473.608 207.894 458.179 207.894ZM477.518 224.649H469.28C468.372 221.158 467.101 217.807 465.426 214.707C470.564 216.467 474.837 220.027 477.518 224.649ZM458.193 213.576C460.525 216.928 462.34 220.656 463.527 224.649H452.859C454.046 220.656 455.861 216.928 458.193 213.576ZM436.578 241.405C436.118 239.617 435.852 237.746 435.852 235.82C435.852 233.893 436.118 232.022 436.578 230.234H446.003C445.78 232.064 445.626 233.921 445.626 235.82C445.626 237.719 445.78 239.576 446.017 241.405H436.578ZM438.854 246.99H447.092C448 250.481 449.271 253.832 450.946 256.946C445.808 255.186 441.535 251.612 438.854 246.99ZM447.092 224.649H438.854C441.535 220.027 445.808 216.453 450.946 214.694C449.271 217.807 448 221.158 447.092 224.649ZM458.193 258.063C455.875 254.711 454.06 250.983 452.859 246.99H463.527C462.326 250.983 460.511 254.711 458.193 258.063ZM464.728 241.405H451.658C451.393 239.576 451.212 237.719 451.212 235.82C451.212 233.921 451.393 232.064 451.658 230.234H464.728C464.993 232.064 465.175 233.921 465.175 235.82C465.175 237.719 464.993 239.576 464.728 241.405ZM465.44 256.932C467.115 253.818 468.386 250.481 469.294 246.99H477.532C474.837 251.612 470.564 255.172 465.44 256.932ZM470.369 241.405C470.592 239.576 470.76 237.719 470.76 235.82C470.76 233.921 470.606 232.064 470.369 230.234H479.794C480.255 232.022 480.534 233.893 480.534 235.82C480.534 237.746 480.269 239.617 479.794 241.405H470.369Z" fill="white"/>
<path d="M443.196 237.878V243.06H440.166V228.353H445.903C447.007 228.353 447.977 228.555 448.812 228.959C449.653 229.363 450.3 229.939 450.751 230.687C451.202 231.427 451.428 232.272 451.428 233.222C451.428 234.663 450.933 235.801 449.943 236.636C448.96 237.464 447.596 237.878 445.852 237.878H443.196ZM443.196 235.424H445.903C446.704 235.424 447.313 235.235 447.731 234.858C448.155 234.481 448.367 233.942 448.367 233.242C448.367 232.522 448.155 231.939 447.731 231.495C447.307 231.05 446.721 230.821 445.973 230.808H443.196V235.424Z" fill="#F5F8FF"/>
<path d="M459.033 235.303L461.71 228.353H464.983L459.841 240.484L459.427 241.282C458.666 242.609 457.501 243.272 455.932 243.272L454.872 243.231L454.842 240.797C455.003 240.824 455.266 240.838 455.629 240.838C456.054 240.838 456.394 240.764 456.65 240.615C456.912 240.467 457.131 240.195 457.306 239.797L457.68 238.838L452.518 228.353H455.781L459.033 235.303Z" fill="#F5F8FF"/>
<path d="M477.891 238.161C477.777 239.743 477.191 240.989 476.134 241.898C475.083 242.807 473.696 243.262 471.972 243.262C470.087 243.262 468.602 242.629 467.518 241.363C466.44 240.09 465.902 238.346 465.902 236.131V235.232C465.902 233.818 466.151 232.572 466.649 231.495C467.147 230.417 467.858 229.592 468.78 229.02C469.71 228.441 470.787 228.151 472.013 228.151C473.709 228.151 475.076 228.606 476.113 229.515C477.15 230.424 477.75 231.7 477.911 233.343H474.881C474.807 232.394 474.541 231.707 474.083 231.283C473.632 230.852 472.942 230.636 472.013 230.636C471.002 230.636 470.245 231 469.74 231.727C469.242 232.447 468.986 233.569 468.972 235.09V236.202C468.972 237.791 469.211 238.952 469.689 239.686C470.174 240.42 470.935 240.787 471.972 240.787C472.908 240.787 473.605 240.575 474.063 240.151C474.528 239.72 474.794 239.057 474.861 238.161H477.891Z" fill="#F5F8FF"/>
<circle cx="428.199" cy="400.273" r="51.7148" fill="#7E97C9"/>
<path opacity="0.1" d="M428.184 372.347C412.755 372.347 400.272 384.844 400.272 400.273C400.272 415.702 412.755 428.199 428.184 428.199C443.614 428.199 456.124 415.702 456.124 400.273C456.124 384.844 443.614 372.347 428.184 372.347ZM447.523 389.102H439.285C438.377 385.612 437.107 382.26 435.431 379.161C440.57 380.92 444.842 384.481 447.523 389.102ZM428.198 378.03C430.53 381.381 432.345 385.109 433.532 389.102H422.865C424.051 385.109 425.867 381.381 428.198 378.03ZM406.584 405.858C406.123 404.071 405.858 402.2 405.858 400.273C405.858 398.346 406.123 396.475 406.584 394.687H416.009C415.785 396.517 415.632 398.374 415.632 400.273C415.632 402.172 415.785 404.029 416.023 405.858H406.584ZM408.86 411.443H417.098C418.005 414.934 419.276 418.285 420.952 421.399C415.813 419.639 411.541 416.065 408.86 411.443ZM417.098 389.102H408.86C411.541 384.481 415.813 380.906 420.952 379.147C419.276 382.26 418.005 385.612 417.098 389.102ZM428.198 422.516C425.881 419.165 424.065 415.436 422.865 411.443H433.532C432.332 415.436 430.516 419.165 428.198 422.516ZM434.733 405.858H421.664C421.398 404.029 421.217 402.172 421.217 400.273C421.217 398.374 421.398 396.517 421.664 394.687H434.733C434.998 396.517 435.18 398.374 435.18 400.273C435.18 402.172 434.998 404.029 434.733 405.858ZM435.445 421.385C437.121 418.271 438.391 414.934 439.299 411.443H447.537C444.842 416.065 440.57 419.625 435.445 421.385ZM440.374 405.858C440.598 404.029 440.765 402.172 440.765 400.273C440.765 398.374 440.612 396.517 440.374 394.687H449.799C450.26 396.475 450.539 398.346 450.539 400.273C450.539 402.2 450.274 404.071 449.799 405.858H440.374Z" fill="white"/>
<path d="M419.117 400.438V395.991H423.792V400.438H419.117ZM411.856 400.438V395.991H416.511V400.438H411.856ZM419.117 393.57V389.992H416.511V393.57H409.374V403.996H411.856V402.858H416.511V409.312H419.117V402.858H423.792V403.893H426.378V393.57H419.117Z" fill="#F5F8FF"/>
<path d="M442.12 395.66C441.23 397.997 440.051 399.942 438.562 401.555C436.969 399.88 435.749 397.894 434.859 395.66H442.12ZM447.995 395.66V393.26H439.782V389.992H437.279V393.26H429.17V395.66H432.129C433.246 398.68 434.673 401.266 436.535 403.396C434.445 404.989 431.86 406.168 428.798 406.975C429.295 407.575 430.06 408.733 430.35 409.374C433.494 408.381 436.162 407.037 438.417 405.237C440.589 407.078 443.278 408.464 446.609 409.312C446.981 408.609 447.767 407.451 448.367 406.851C445.223 406.147 442.616 404.927 440.486 403.293C442.389 401.224 443.899 398.721 445.016 395.66H447.995Z" fill="#F5F8FF"/>
<path d="M169.625 235.82C169.625 239.248 172.402 242.025 175.831 242.025C179.259 242.025 182.037 239.248 182.037 235.82C182.037 232.391 179.259 229.614 175.831 229.614C172.402 229.614 169.625 232.391 169.625 235.82ZM177.072 235.82L174.59 238.302L174.59 233.337L177.072 235.82Z" fill="#FA6C06"/>
<path d="M341.318 235.82C341.318 239.248 344.095 242.025 347.524 242.025C350.952 242.025 353.729 239.248 353.729 235.82C353.729 232.391 350.952 229.614 347.524 229.614C344.095 229.614 341.318 232.391 341.318 235.82ZM348.765 235.82L346.282 238.302L346.282 233.337L348.765 235.82Z" fill="#6C67AB"/>
<path d="M323.253 194.533C325.844 196.778 329.762 196.499 332.007 193.908C334.253 191.316 333.973 187.399 331.382 185.154C328.791 182.908 324.873 183.188 322.628 185.779C320.382 188.37 320.662 192.287 323.253 194.533ZM328.13 188.905L328.381 192.407L324.629 189.155L328.13 188.905Z" fill="#6C67AB"/>
<path d="M219.271 235.82C219.271 239.248 222.048 242.025 225.477 242.025C228.905 242.025 231.683 239.248 231.683 235.82C231.683 232.391 228.905 229.614 225.477 229.614C222.048 229.614 219.271 232.391 219.271 235.82ZM226.718 235.82L224.236 238.302L224.236 233.337L226.718 235.82Z" fill="#6C67AB"/>
<path d="M390.964 235.82C390.964 239.248 393.741 242.025 397.17 242.025C400.598 242.025 403.375 239.248 403.375 235.82C403.375 232.391 400.598 229.614 397.17 229.614C393.741 229.614 390.964 232.391 390.964 235.82ZM398.411 235.82L395.928 238.302L395.928 233.337L398.411 235.82Z" fill="#7E97C9"/>
<path d="M384.988 123.16C387.633 125.341 391.543 124.965 393.724 122.319C395.904 119.673 395.528 115.764 392.882 113.583C390.237 111.402 386.327 111.779 384.146 114.424C381.966 117.07 382.342 120.979 384.988 123.16ZM389.724 117.414L390.061 120.908L386.23 117.75L389.724 117.414Z" fill="#7E97C9"/>
<circle cx="187.208" cy="235.82" r="3.10289" fill="#FA6C06"/>
<circle cx="358.901" cy="235.82" r="3.10289" fill="#6C67AB"/>
<circle cx="334.77" cy="181.245" r="3.10289" transform="rotate(-49.0858 334.77 181.245)" fill="#6C67AB"/>
<circle cx="351.9" cy="161.59" r="3.10289" transform="rotate(-49.0858 351.9 161.59)" fill="#6C67AB"/>
<circle cx="195.482" cy="235.82" r="2.06859" fill="#FA6C06"/>
<circle cx="367.176" cy="235.82" r="2.06859" fill="#6C67AB"/>
<circle cx="340.188" cy="174.992" r="2.06859" transform="rotate(-49.0858 340.188 174.992)" fill="#6C67AB"/>
<circle cx="347.339" cy="167.371" r="2.06859" transform="rotate(-49.0858 347.339 167.371)" fill="#6C67AB"/>
<circle cx="356.647" cy="155.994" r="2.06859" transform="rotate(-49.0858 356.647 155.994)" fill="#6C67AB"/>
<circle cx="200.653" cy="235.82" r="1.0343" fill="#FA6C06"/>
<circle cx="166.522" cy="235.82" r="1.0343" fill="#FA6C06"/>
<circle cx="372.347" cy="235.82" r="1.0343" fill="#6C67AB"/>
<circle cx="343.576" cy="171.084" r="1.0343" transform="rotate(-49.0858 343.576 171.084)" fill="#6C67AB"/>
<circle cx="338.215" cy="235.82" r="1.0343" fill="#6C67AB"/>
<circle cx="321.221" cy="196.878" r="1.0343" transform="rotate(-49.0858 321.221 196.878)" fill="#6C67AB"/>
<circle cx="201.688" cy="235.82" r="1.0343" fill="#6C67AB"/>
<circle cx="234.785" cy="235.82" r="1.0343" fill="#6C67AB"/>
<circle cx="373.381" cy="235.82" r="1.0343" fill="#7E97C9"/>
<circle cx="373.803" cy="136.728" r="1.0343" transform="rotate(-50.5014 373.803 136.728)" fill="#7E97C9"/>
<circle cx="406.479" cy="235.82" r="1.0343" fill="#7E97C9"/>
<circle cx="394.854" cy="111.188" r="1.0343" transform="rotate(-50.5014 394.854 111.188)" fill="#7E97C9"/>
<circle cx="206.86" cy="235.82" r="2.06859" fill="#6C67AB"/>
<circle cx="378.552" cy="235.82" r="2.06859" fill="#7E97C9"/>
<circle cx="377.093" cy="132.739" r="2.06859" transform="rotate(-50.5014 377.093 132.739)" fill="#7E97C9"/>
<circle cx="370.087" cy="140.474" r="2.06859" transform="rotate(-50.5014 370.087 140.474)" fill="#7E97C9"/>
<circle cx="360.779" cy="150.817" r="2.06859" transform="rotate(-50.5014 360.779 150.817)" fill="#7E97C9"/>
<circle cx="214.099" cy="235.82" r="3.10289" fill="#6C67AB"/>
<circle cx="385.793" cy="235.82" r="3.10289" fill="#7E97C9"/>
<circle cx="381.698" cy="127.152" r="3.10289" transform="rotate(-50.5014 381.698 127.152)" fill="#7E97C9"/>
<circle cx="365.338" cy="146.067" r="3.10289" transform="rotate(-50.5014 365.338 146.067)" fill="#7E97C9"/>
<path d="M322.219 277.119C324.81 274.873 328.727 275.153 330.973 277.744C333.219 280.335 332.939 284.252 330.348 286.498C327.757 288.743 323.839 288.464 321.594 285.873C319.348 283.281 319.628 279.364 322.219 277.119ZM327.096 282.746L327.346 279.245L323.595 282.496L327.096 282.746Z" fill="#6C67AB"/>
<path d="M383.954 348.491C386.599 346.31 390.509 346.687 392.689 349.333C394.87 351.978 394.494 355.888 391.848 358.068C389.202 360.249 385.293 359.873 383.112 357.227C380.931 354.581 381.308 350.672 383.954 348.491ZM388.69 354.238L389.027 350.743L385.196 353.901L388.69 354.238Z" fill="#7E97C9"/>
<circle r="3.10289" transform="matrix(0.654928 0.755692 0.755692 -0.654928 333.736 290.406)" fill="#6C67AB"/>
<circle r="3.10289" transform="matrix(0.654928 0.755692 0.755692 -0.654928 350.867 310.061)" fill="#6C67AB"/>
<circle r="2.06859" transform="matrix(0.654928 0.755692 0.755692 -0.654928 339.153 296.66)" fill="#6C67AB"/>
<circle r="2.06859" transform="matrix(0.654928 0.755692 0.755692 -0.654928 346.305 304.28)" fill="#6C67AB"/>
<circle r="2.06859" transform="matrix(0.654928 0.755692 0.755692 -0.654928 355.613 315.658)" fill="#6C67AB"/>
<circle r="1.0343" transform="matrix(0.654928 0.755692 0.755692 -0.654928 342.542 300.567)" fill="#6C67AB"/>
<circle r="1.0343" transform="matrix(0.654928 0.755692 0.755692 -0.654928 320.187 274.774)" fill="#6C67AB"/>
<circle r="1.0343" transform="matrix(0.63606 0.77164 0.77164 -0.63606 372.768 334.923)" fill="#7E97C9"/>
<circle r="1.0343" transform="matrix(0.63606 0.77164 0.77164 -0.63606 393.82 360.463)" fill="#7E97C9"/>
<circle r="2.06859" transform="matrix(0.63606 0.77164 0.77164 -0.63606 376.059 338.912)" fill="#7E97C9"/>
<circle r="2.06859" transform="matrix(0.63606 0.77164 0.77164 -0.63606 369.053 331.177)" fill="#7E97C9"/>
<circle r="2.06859" transform="matrix(0.63606 0.77164 0.77164 -0.63606 359.744 320.835)" fill="#7E97C9"/>
<circle r="3.10289" transform="matrix(0.63606 0.77164 0.77164 -0.63606 380.664 344.5)" fill="#7E97C9"/>
<circle r="3.10289" transform="matrix(0.63606 0.77164 0.77164 -0.63606 364.303 325.585)" fill="#7E97C9"/>
<rect x="0.940678" y="0.940678" width="571.119" height="463.552" rx="5.33051" fill="white" fill-opacity="0.3" stroke="#7E97C9" stroke-width="1.88136"/>
</svg>
