<svg width="583" height="450" viewBox="0 0 583 450" fill="none" xmlns="http://www.w3.org/2000/svg">
<rect x="0.940678" y="0.940678" width="581.119" height="448.119" rx="5.33051" fill="white" stroke="#7E97C9" stroke-width="1.88136"/>
<path fill-rule="evenodd" clip-rule="evenodd" d="M61 228C61 200.375 83.375 178 111 178C138.625 178 161 200.375 161 228C161 255.625 138.625 278 111 278C83.375 278 61 255.625 61 228ZM122.1 213.2C122.1 207.076 117.124 202.1 111 202.1C104.876 202.1 99.9 207.076 99.9 213.2C99.9 219.342 104.876 224.3 111 224.3C117.124 224.3 122.1 219.342 122.1 213.2ZM88.8 242.726C93.5915 249.904 101.731 254.64 111 254.64C120.269 254.64 128.409 249.904 133.2 242.726C133.089 235.381 118.382 231.33 111 231.33C103.618 231.33 88.8925 235.381 88.8 242.726Z" fill="#FA6C06"/>
<path fill-rule="evenodd" clip-rule="evenodd" d="M277 278C304.614 278 327 255.614 327 228C327 200.386 304.614 178 277 178C249.386 178 227 200.386 227 228C227 255.614 249.386 278 277 278ZM277.927 202.137L303.491 216.745C303.765 216.927 303.947 217.201 303.947 217.566C303.947 217.932 303.765 218.206 303.491 218.388L277.927 232.996C277.744 233.088 277.653 233.088 277.47 233.088C277.287 233.088 277.196 233.088 277.013 232.996L251.449 218.388C251.175 218.206 250.993 217.932 250.993 217.566C250.993 217.201 251.175 216.927 251.449 216.745L277.013 202.137C277.287 201.954 277.653 201.954 277.927 202.137ZM303.491 238.657L302.574 238.133C299.183 236.196 295.019 236.201 291.634 238.148L278.84 245.505C278.383 245.778 277.927 245.87 277.47 245.87C277.013 245.87 276.557 245.778 276.1 245.505L263.306 238.148C259.921 236.201 255.757 236.196 252.366 238.133L251.449 238.657C251.175 238.84 250.993 239.114 250.993 239.479C250.993 239.844 251.175 240.118 251.449 240.3L277.013 254.909C277.196 255 277.287 255 277.47 255C277.653 255 277.744 255 277.927 254.909L303.491 240.3C303.765 240.118 303.947 239.844 303.947 239.479C303.947 239.114 303.765 238.84 303.491 238.657ZM302.574 227.177L303.491 227.701C303.765 227.883 303.947 228.157 303.947 228.522C303.947 228.888 303.765 229.162 303.491 229.344L277.927 243.952C277.744 244.044 277.653 244.044 277.47 244.044C277.287 244.044 277.196 244.044 277.013 243.952L251.449 229.344C251.175 229.162 250.993 228.888 250.993 228.522C250.993 228.157 251.175 227.883 251.449 227.701L252.366 227.177C255.757 225.239 259.921 225.245 263.306 227.192L276.1 234.548C276.557 234.822 277.013 234.914 277.47 234.914C277.927 234.914 278.383 234.822 278.84 234.548L291.634 227.192C295.019 225.245 299.183 225.239 302.574 227.177Z" fill="#6C67AB"/>
<circle cx="414" cy="69" r="50" fill="#7E97C9"/>
<path d="M381.039 70.9883V77H377.523V59.9375H384.18C385.461 59.9375 386.586 60.1719 387.555 60.6406C388.531 61.1094 389.281 61.7773 389.805 62.6445C390.328 63.5039 390.59 64.4844 390.59 65.5859C390.59 67.2578 390.016 68.5781 388.867 69.5469C387.727 70.5078 386.145 70.9883 384.121 70.9883H381.039ZM381.039 68.1406H384.18C385.109 68.1406 385.816 67.9219 386.301 67.4844C386.793 67.0469 387.039 66.4219 387.039 65.6094C387.039 64.7734 386.793 64.0977 386.301 63.582C385.809 63.0664 385.129 62.8008 384.262 62.7852H381.039V68.1406ZM398.465 77.2344C396.605 77.2344 395.09 76.6641 393.918 75.5234C392.754 74.3828 392.172 72.8633 392.172 70.9648V70.6367C392.172 69.3633 392.418 68.2266 392.91 67.2266C393.402 66.2188 394.098 65.4453 394.996 64.9062C395.902 64.3594 396.934 64.0859 398.09 64.0859C399.824 64.0859 401.188 64.6328 402.18 65.7266C403.18 66.8203 403.68 68.3711 403.68 70.3789V71.7617H395.605C395.715 72.5898 396.043 73.2539 396.59 73.7539C397.145 74.2539 397.844 74.5039 398.688 74.5039C399.992 74.5039 401.012 74.0312 401.746 73.0859L403.41 74.9492C402.902 75.668 402.215 76.2305 401.348 76.6367C400.48 77.0352 399.52 77.2344 398.465 77.2344ZM398.078 66.8281C397.406 66.8281 396.859 67.0547 396.438 67.5078C396.023 67.9609 395.758 68.6094 395.641 69.4531H400.352V69.1836C400.336 68.4336 400.133 67.8555 399.742 67.4492C399.352 67.0352 398.797 66.8281 398.078 66.8281ZM412.738 67.4961C412.277 67.4336 411.871 67.4023 411.52 67.4023C410.238 67.4023 409.398 67.8359 409 68.7031V77H405.613V64.3203H408.812L408.906 65.832C409.586 64.668 410.527 64.0859 411.73 64.0859C412.105 64.0859 412.457 64.1367 412.785 64.2383L412.738 67.4961ZM421.246 73.4961C421.246 73.082 421.039 72.7578 420.625 72.5234C420.219 72.2812 419.562 72.0664 418.656 71.8789C415.641 71.2461 414.133 69.9648 414.133 68.0352C414.133 66.9102 414.598 65.9727 415.527 65.2227C416.465 64.4648 417.688 64.0859 419.195 64.0859C420.805 64.0859 422.09 64.4648 423.051 65.2227C424.02 65.9805 424.504 66.9648 424.504 68.1758H421.117C421.117 67.6914 420.961 67.293 420.648 66.9805C420.336 66.6602 419.848 66.5 419.184 66.5C418.613 66.5 418.172 66.6289 417.859 66.8867C417.547 67.1445 417.391 67.4727 417.391 67.8711C417.391 68.2461 417.566 68.5508 417.918 68.7852C418.277 69.0117 418.879 69.2109 419.723 69.3828C420.566 69.5469 421.277 69.7344 421.855 69.9453C423.645 70.6016 424.539 71.7383 424.539 73.3555C424.539 74.5117 424.043 75.4492 423.051 76.168C422.059 76.8789 420.777 77.2344 419.207 77.2344C418.145 77.2344 417.199 77.0469 416.371 76.6719C415.551 76.2891 414.906 75.7695 414.438 75.1133C413.969 74.4492 413.734 73.7344 413.734 72.9688H416.945C416.977 73.5703 417.199 74.0312 417.613 74.3516C418.027 74.6719 418.582 74.832 419.277 74.832C419.926 74.832 420.414 74.7109 420.742 74.4688C421.078 74.2188 421.246 73.8945 421.246 73.4961ZM426.203 70.543C426.203 69.2852 426.445 68.1641 426.93 67.1797C427.414 66.1953 428.109 65.4336 429.016 64.8945C429.93 64.3555 430.988 64.0859 432.191 64.0859C433.902 64.0859 435.297 64.6094 436.375 65.6562C437.461 66.7031 438.066 68.125 438.191 69.9219L438.215 70.7891C438.215 72.7344 437.672 74.2969 436.586 75.4766C435.5 76.6484 434.043 77.2344 432.215 77.2344C430.387 77.2344 428.926 76.6484 427.832 75.4766C426.746 74.3047 426.203 72.7109 426.203 70.6953V70.543ZM429.59 70.7891C429.59 71.9922 429.816 72.9141 430.27 73.5547C430.723 74.1875 431.371 74.5039 432.215 74.5039C433.035 74.5039 433.676 74.1914 434.137 73.5664C434.598 72.9336 434.828 71.9258 434.828 70.543C434.828 69.3633 434.598 68.4492 434.137 67.8008C433.676 67.1523 433.027 66.8281 432.191 66.8281C431.363 66.8281 430.723 67.1523 430.27 67.8008C429.816 68.4414 429.59 69.4375 429.59 70.7891ZM443.418 64.3203L443.523 65.7852C444.43 64.6523 445.645 64.0859 447.168 64.0859C448.512 64.0859 449.512 64.4805 450.168 65.2695C450.824 66.0586 451.16 67.2383 451.176 68.8086V77H447.789V68.8906C447.789 68.1719 447.633 67.6523 447.32 67.332C447.008 67.0039 446.488 66.8398 445.762 66.8398C444.809 66.8398 444.094 67.2461 443.617 68.0586V77H440.23V64.3203H443.418Z" fill="#F5F8FF"/>
<circle cx="473.5" cy="228.5" r="80.5" fill="#7E97C9"/>
<path d="M403.523 236V218.938H408.773C410.273 218.938 411.613 219.277 412.793 219.957C413.98 220.629 414.906 221.59 415.57 222.84C416.234 224.082 416.566 225.496 416.566 227.082V227.867C416.566 229.453 416.238 230.863 415.582 232.098C414.934 233.332 414.016 234.289 412.828 234.969C411.641 235.648 410.301 235.992 408.809 236H403.523ZM407.039 221.785V233.176H408.738C410.113 233.176 411.164 232.727 411.891 231.828C412.617 230.93 412.988 229.645 413.004 227.973V227.07C413.004 225.336 412.645 224.023 411.926 223.133C411.207 222.234 410.156 221.785 408.773 221.785H407.039ZM424.746 236.234C422.887 236.234 421.371 235.664 420.199 234.523C419.035 233.383 418.453 231.863 418.453 229.965V229.637C418.453 228.363 418.699 227.227 419.191 226.227C419.684 225.219 420.379 224.445 421.277 223.906C422.184 223.359 423.215 223.086 424.371 223.086C426.105 223.086 427.469 223.633 428.461 224.727C429.461 225.82 429.961 227.371 429.961 229.379V230.762H421.887C421.996 231.59 422.324 232.254 422.871 232.754C423.426 233.254 424.125 233.504 424.969 233.504C426.273 233.504 427.293 233.031 428.027 232.086L429.691 233.949C429.184 234.668 428.496 235.23 427.629 235.637C426.762 236.035 425.801 236.234 424.746 236.234ZM424.359 225.828C423.688 225.828 423.141 226.055 422.719 226.508C422.305 226.961 422.039 227.609 421.922 228.453H426.633V228.184C426.617 227.434 426.414 226.855 426.023 226.449C425.633 226.035 425.078 225.828 424.359 225.828ZM443.309 229.777C443.309 231.73 442.863 233.297 441.973 234.477C441.09 235.648 439.895 236.234 438.387 236.234C437.105 236.234 436.07 235.789 435.281 234.898V240.875H431.895V223.32H435.035L435.152 224.562C435.973 223.578 437.043 223.086 438.363 223.086C439.926 223.086 441.141 223.664 442.008 224.82C442.875 225.977 443.309 227.57 443.309 229.602V229.777ZM439.922 229.531C439.922 228.352 439.711 227.441 439.289 226.801C438.875 226.16 438.27 225.84 437.473 225.84C436.41 225.84 435.68 226.246 435.281 227.059V232.25C435.695 233.086 436.434 233.504 437.496 233.504C439.113 233.504 439.922 232.18 439.922 229.531ZM452.766 236C452.609 235.695 452.496 235.316 452.426 234.863C451.605 235.777 450.539 236.234 449.227 236.234C447.984 236.234 446.953 235.875 446.133 235.156C445.32 234.438 444.914 233.531 444.914 232.438C444.914 231.094 445.41 230.062 446.402 229.344C447.402 228.625 448.844 228.262 450.727 228.254H452.285V227.527C452.285 226.941 452.133 226.473 451.828 226.121C451.531 225.77 451.059 225.594 450.41 225.594C449.84 225.594 449.391 225.73 449.062 226.004C448.742 226.277 448.582 226.652 448.582 227.129H445.195C445.195 226.395 445.422 225.715 445.875 225.09C446.328 224.465 446.969 223.977 447.797 223.625C448.625 223.266 449.555 223.086 450.586 223.086C452.148 223.086 453.387 223.48 454.301 224.27C455.223 225.051 455.684 226.152 455.684 227.574V233.07C455.691 234.273 455.859 235.184 456.188 235.801V236H452.766ZM449.965 233.645C450.465 233.645 450.926 233.535 451.348 233.316C451.77 233.09 452.082 232.789 452.285 232.414V230.234H451.02C449.324 230.234 448.422 230.82 448.312 231.992L448.301 232.191C448.301 232.613 448.449 232.961 448.746 233.234C449.043 233.508 449.449 233.645 449.965 233.645ZM465.41 226.496C464.949 226.434 464.543 226.402 464.191 226.402C462.91 226.402 462.07 226.836 461.672 227.703V236H458.285V223.32H461.484L461.578 224.832C462.258 223.668 463.199 223.086 464.402 223.086C464.777 223.086 465.129 223.137 465.457 223.238L465.41 226.496ZM471.691 220.203V223.32H473.859V225.805H471.691V232.133C471.691 232.602 471.781 232.938 471.961 233.141C472.141 233.344 472.484 233.445 472.992 233.445C473.367 233.445 473.699 233.418 473.988 233.363V235.93C473.324 236.133 472.641 236.234 471.938 236.234C469.562 236.234 468.352 235.035 468.305 232.637V225.805H466.453V223.32H468.305V220.203H471.691ZM483.094 236C482.938 235.695 482.824 235.316 482.754 234.863C481.934 235.777 480.867 236.234 479.555 236.234C478.312 236.234 477.281 235.875 476.461 235.156C475.648 234.438 475.242 233.531 475.242 232.438C475.242 231.094 475.738 230.062 476.73 229.344C477.73 228.625 479.172 228.262 481.055 228.254H482.613V227.527C482.613 226.941 482.461 226.473 482.156 226.121C481.859 225.77 481.387 225.594 480.738 225.594C480.168 225.594 479.719 225.73 479.391 226.004C479.07 226.277 478.91 226.652 478.91 227.129H475.523C475.523 226.395 475.75 225.715 476.203 225.09C476.656 224.465 477.297 223.977 478.125 223.625C478.953 223.266 479.883 223.086 480.914 223.086C482.477 223.086 483.715 223.48 484.629 224.27C485.551 225.051 486.012 226.152 486.012 227.574V233.07C486.02 234.273 486.188 235.184 486.516 235.801V236H483.094ZM480.293 233.645C480.793 233.645 481.254 233.535 481.676 233.316C482.098 233.09 482.41 232.789 482.613 232.414V230.234H481.348C479.652 230.234 478.75 230.82 478.641 231.992L478.629 232.191C478.629 232.613 478.777 232.961 479.074 233.234C479.371 233.508 479.777 233.645 480.293 233.645ZM491.789 223.32L491.895 224.738C492.793 223.637 494.008 223.086 495.539 223.086C497.172 223.086 498.293 223.73 498.902 225.02C499.793 223.73 501.062 223.086 502.711 223.086C504.086 223.086 505.109 223.488 505.781 224.293C506.453 225.09 506.789 226.293 506.789 227.902V236H503.391V227.914C503.391 227.195 503.25 226.672 502.969 226.344C502.688 226.008 502.191 225.84 501.48 225.84C500.465 225.84 499.762 226.324 499.371 227.293L499.383 236H495.996V227.926C495.996 227.191 495.852 226.66 495.562 226.332C495.273 226.004 494.781 225.84 494.086 225.84C493.125 225.84 492.43 226.238 492 227.035V236H488.613V223.32H491.789ZM515.238 236.234C513.379 236.234 511.863 235.664 510.691 234.523C509.527 233.383 508.945 231.863 508.945 229.965V229.637C508.945 228.363 509.191 227.227 509.684 226.227C510.176 225.219 510.871 224.445 511.77 223.906C512.676 223.359 513.707 223.086 514.863 223.086C516.598 223.086 517.961 223.633 518.953 224.727C519.953 225.82 520.453 227.371 520.453 229.379V230.762H512.379C512.488 231.59 512.816 232.254 513.363 232.754C513.918 233.254 514.617 233.504 515.461 233.504C516.766 233.504 517.785 233.031 518.52 232.086L520.184 233.949C519.676 234.668 518.988 235.23 518.121 235.637C517.254 236.035 516.293 236.234 515.238 236.234ZM514.852 225.828C514.18 225.828 513.633 226.055 513.211 226.508C512.797 226.961 512.531 227.609 512.414 228.453H517.125V228.184C517.109 227.434 516.906 226.855 516.516 226.449C516.125 226.035 515.57 225.828 514.852 225.828ZM525.504 223.32L525.609 224.785C526.516 223.652 527.73 223.086 529.254 223.086C530.598 223.086 531.598 223.48 532.254 224.27C532.91 225.059 533.246 226.238 533.262 227.809V236H529.875V227.891C529.875 227.172 529.719 226.652 529.406 226.332C529.094 226.004 528.574 225.84 527.848 225.84C526.895 225.84 526.18 226.246 525.703 227.059V236H522.316V223.32H525.504ZM539.895 220.203V223.32H542.062V225.805H539.895V232.133C539.895 232.602 539.984 232.938 540.164 233.141C540.344 233.344 540.688 233.445 541.195 233.445C541.57 233.445 541.902 233.418 542.191 233.363V235.93C541.527 236.133 540.844 236.234 540.141 236.234C537.766 236.234 536.555 235.035 536.508 232.637V225.805H534.656V223.32H536.508V220.203H539.895Z" fill="#F5F8FF"/>
<circle cx="414" cy="387" r="50" fill="#7E97C9"/>
<path d="M383.84 388.754H381.039V395H377.523V377.938H383.863C385.879 377.938 387.434 378.387 388.527 379.285C389.621 380.184 390.168 381.453 390.168 383.094C390.168 384.258 389.914 385.23 389.406 386.012C388.906 386.785 388.145 387.402 387.121 387.863L390.812 394.836V395H387.039L383.84 388.754ZM381.039 385.906H383.875C384.758 385.906 385.441 385.684 385.926 385.238C386.41 384.785 386.652 384.164 386.652 383.375C386.652 382.57 386.422 381.938 385.961 381.477C385.508 381.016 384.809 380.785 383.863 380.785H381.039V385.906ZM398.465 395.234C396.605 395.234 395.09 394.664 393.918 393.523C392.754 392.383 392.172 390.863 392.172 388.965V388.637C392.172 387.363 392.418 386.227 392.91 385.227C393.402 384.219 394.098 383.445 394.996 382.906C395.902 382.359 396.934 382.086 398.09 382.086C399.824 382.086 401.188 382.633 402.18 383.727C403.18 384.82 403.68 386.371 403.68 388.379V389.762H395.605C395.715 390.59 396.043 391.254 396.59 391.754C397.145 392.254 397.844 392.504 398.688 392.504C399.992 392.504 401.012 392.031 401.746 391.086L403.41 392.949C402.902 393.668 402.215 394.23 401.348 394.637C400.48 395.035 399.52 395.234 398.465 395.234ZM398.078 384.828C397.406 384.828 396.859 385.055 396.438 385.508C396.023 385.961 395.758 386.609 395.641 387.453H400.352V387.184C400.336 386.434 400.133 385.855 399.742 385.449C399.352 385.035 398.797 384.828 398.078 384.828ZM405.121 388.566C405.121 386.621 405.582 385.055 406.504 383.867C407.434 382.68 408.684 382.086 410.254 382.086C411.645 382.086 412.727 382.562 413.5 383.516L413.641 382.32H416.711V394.578C416.711 395.688 416.457 396.652 415.949 397.473C415.449 398.293 414.742 398.918 413.828 399.348C412.914 399.777 411.844 399.992 410.617 399.992C409.688 399.992 408.781 399.805 407.898 399.43C407.016 399.062 406.348 398.586 405.895 398L407.395 395.938C408.238 396.883 409.262 397.355 410.465 397.355C411.363 397.355 412.062 397.113 412.562 396.629C413.062 396.152 413.312 395.473 413.312 394.59V393.91C412.531 394.793 411.504 395.234 410.23 395.234C408.707 395.234 407.473 394.641 406.527 393.453C405.59 392.258 405.121 390.676 405.121 388.707V388.566ZM408.508 388.812C408.508 389.961 408.738 390.863 409.199 391.52C409.66 392.168 410.293 392.492 411.098 392.492C412.129 392.492 412.867 392.105 413.312 391.332V386C412.859 385.227 412.129 384.84 411.121 384.84C410.309 384.84 409.668 385.172 409.199 385.836C408.738 386.5 408.508 387.492 408.508 388.812ZM422.898 395H419.5V382.32H422.898V395ZM419.301 379.039C419.301 378.531 419.469 378.113 419.805 377.785C420.148 377.457 420.613 377.293 421.199 377.293C421.777 377.293 422.238 377.457 422.582 377.785C422.926 378.113 423.098 378.531 423.098 379.039C423.098 379.555 422.922 379.977 422.57 380.305C422.227 380.633 421.77 380.797 421.199 380.797C420.629 380.797 420.168 380.633 419.816 380.305C419.473 379.977 419.301 379.555 419.301 379.039ZM425.172 388.543C425.172 387.285 425.414 386.164 425.898 385.18C426.383 384.195 427.078 383.434 427.984 382.895C428.898 382.355 429.957 382.086 431.16 382.086C432.871 382.086 434.266 382.609 435.344 383.656C436.43 384.703 437.035 386.125 437.16 387.922L437.184 388.789C437.184 390.734 436.641 392.297 435.555 393.477C434.469 394.648 433.012 395.234 431.184 395.234C429.355 395.234 427.895 394.648 426.801 393.477C425.715 392.305 425.172 390.711 425.172 388.695V388.543ZM428.559 388.789C428.559 389.992 428.785 390.914 429.238 391.555C429.691 392.188 430.34 392.504 431.184 392.504C432.004 392.504 432.645 392.191 433.105 391.566C433.566 390.934 433.797 389.926 433.797 388.543C433.797 387.363 433.566 386.449 433.105 385.801C432.645 385.152 431.996 384.828 431.16 384.828C430.332 384.828 429.691 385.152 429.238 385.801C428.785 386.441 428.559 387.438 428.559 388.789ZM442.387 382.32L442.492 383.785C443.398 382.652 444.613 382.086 446.137 382.086C447.48 382.086 448.48 382.48 449.137 383.27C449.793 384.059 450.129 385.238 450.145 386.809V395H446.758V386.891C446.758 386.172 446.602 385.652 446.289 385.332C445.977 385.004 445.457 384.84 444.73 384.84C443.777 384.84 443.062 385.246 442.586 386.059V395H439.199V382.32H442.387Z" fill="#F5F8FF"/>
<path d="M164 228C164 231.315 166.685 234 170 234C173.315 234 176 231.315 176 228C176 224.685 173.315 222 170 222C166.685 222 164 224.685 164 228ZM171.2 228L168.8 230.4L168.8 225.6L171.2 228Z" fill="#FA6C06"/>
<path d="M330 228C330 231.315 332.685 234 336 234C339.315 234 342 231.315 342 228C342 224.685 339.315 222 336 222C332.685 222 330 224.685 330 228ZM337.2 228L334.8 230.4L334.8 225.6L337.2 228Z" fill="#6C67AB"/>
<path d="M312.534 188.082C315.039 190.253 318.827 189.983 320.998 187.478C323.169 184.972 322.898 181.185 320.393 179.014C317.888 176.843 314.101 177.113 311.93 179.618C309.759 182.124 310.029 185.911 312.534 188.082ZM317.25 182.641L317.492 186.027L313.864 182.883L317.25 182.641Z" fill="#6C67AB"/>
<path d="M212 228C212 231.315 214.685 234 218 234C221.315 234 224 231.315 224 228C224 224.685 221.315 222 218 222C214.685 222 212 224.685 212 228ZM219.2 228L216.8 230.4L216.8 225.6L219.2 228Z" fill="#6C67AB"/>
<path d="M378 228C378 231.315 380.685 234 384 234C387.315 234 390 231.315 390 228C390 224.685 387.315 222 384 222C380.685 222 378 224.685 378 228ZM385.2 228L382.8 230.4L382.8 225.6L385.2 228Z" fill="#7E97C9"/>
<path d="M372.222 119.076C374.78 121.185 378.559 120.821 380.668 118.263C382.776 115.705 382.412 111.925 379.854 109.817C377.296 107.708 373.517 108.072 371.408 110.63C369.3 113.188 369.664 116.968 372.222 119.076ZM376.801 113.52L377.127 116.899L373.423 113.846L376.801 113.52Z" fill="#7E97C9"/>
<circle cx="181" cy="228" r="3" fill="#FA6C06"/>
<circle cx="347" cy="228" r="3" fill="#6C67AB"/>
<circle cx="323.669" cy="175.235" r="3" transform="rotate(-49.0858 323.669 175.235)" fill="#6C67AB"/>
<circle cx="340.232" cy="156.232" r="3" transform="rotate(-49.0858 340.232 156.232)" fill="#6C67AB"/>
<circle cx="189" cy="228" r="2" fill="#FA6C06"/>
<circle cx="355" cy="228" r="2" fill="#6C67AB"/>
<circle cx="328.907" cy="169.189" r="2" transform="rotate(-49.0858 328.907 169.189)" fill="#6C67AB"/>
<circle cx="335.821" cy="161.821" r="2" transform="rotate(-49.0858 335.821 161.821)" fill="#6C67AB"/>
<circle cx="344.821" cy="150.821" r="2" transform="rotate(-49.0858 344.821 150.821)" fill="#6C67AB"/>
<circle cx="194" cy="228" r="1" fill="#FA6C06"/>
<circle cx="161" cy="228" r="1" fill="#FA6C06"/>
<circle cx="360" cy="228" r="1" fill="#6C67AB"/>
<circle cx="332.183" cy="165.411" r="1" transform="rotate(-49.0858 332.183 165.411)" fill="#6C67AB"/>
<circle cx="327" cy="228" r="1" fill="#6C67AB"/>
<circle cx="310.57" cy="190.349" r="1" transform="rotate(-49.0858 310.57 190.349)" fill="#6C67AB"/>
<circle cx="195" cy="228" r="1" fill="#6C67AB"/>
<circle cx="227" cy="228" r="1" fill="#6C67AB"/>
<circle cx="361" cy="228" r="1" fill="#7E97C9"/>
<circle cx="361.408" cy="132.195" r="1" transform="rotate(-50.5014 361.408 132.195)" fill="#7E97C9"/>
<circle cx="393" cy="228" r="1" fill="#7E97C9"/>
<circle cx="381.761" cy="107.501" r="1" transform="rotate(-50.5014 381.761 107.501)" fill="#7E97C9"/>
<circle cx="200" cy="228" r="2" fill="#6C67AB"/>
<circle cx="366" cy="228" r="2" fill="#7E97C9"/>
<circle cx="364.589" cy="128.337" r="2" transform="rotate(-50.5014 364.589 128.337)" fill="#7E97C9"/>
<circle cx="357.815" cy="135.816" r="2" transform="rotate(-50.5014 357.815 135.816)" fill="#7E97C9"/>
<circle cx="348.815" cy="145.816" r="2" transform="rotate(-50.5014 348.815 145.816)" fill="#7E97C9"/>
<circle cx="207" cy="228" r="3" fill="#6C67AB"/>
<circle cx="373" cy="228" r="3" fill="#7E97C9"/>
<circle cx="369.041" cy="122.935" r="3" transform="rotate(-50.5014 369.041 122.935)" fill="#7E97C9"/>
<circle cx="353.223" cy="141.223" r="3" transform="rotate(-50.5014 353.223 141.223)" fill="#7E97C9"/>
<path d="M311.534 267.93C314.039 265.758 317.827 266.029 319.998 268.534C322.169 271.039 321.898 274.827 319.393 276.998C316.888 279.169 313.101 278.898 310.93 276.393C308.759 273.888 309.029 270.101 311.534 267.93ZM316.25 273.371L316.492 269.985L312.864 273.129L316.25 273.371Z" fill="#6C67AB"/>
<path d="M371.222 336.936C373.78 334.827 377.559 335.191 379.668 337.749C381.776 340.307 381.412 344.087 378.854 346.195C376.296 348.304 372.517 347.94 370.408 345.382C368.3 342.824 368.664 339.044 371.222 336.936ZM375.801 342.491L376.127 339.113L372.423 342.166L375.801 342.491Z" fill="#7E97C9"/>
<circle r="3" transform="matrix(0.654928 0.755692 0.755692 -0.654928 322.669 280.777)" fill="#6C67AB"/>
<circle r="3" transform="matrix(0.654928 0.755692 0.755692 -0.654928 339.232 299.78)" fill="#6C67AB"/>
<circle r="2" transform="matrix(0.654928 0.755692 0.755692 -0.654928 327.907 286.823)" fill="#6C67AB"/>
<circle r="2" transform="matrix(0.654928 0.755692 0.755692 -0.654928 334.821 294.191)" fill="#6C67AB"/>
<circle r="2" transform="matrix(0.654928 0.755692 0.755692 -0.654928 343.821 305.191)" fill="#6C67AB"/>
<circle r="1" transform="matrix(0.654928 0.755692 0.755692 -0.654928 331.183 290.601)" fill="#6C67AB"/>
<circle r="1" transform="matrix(0.654928 0.755692 0.755692 -0.654928 309.57 265.662)" fill="#6C67AB"/>
<circle r="1" transform="matrix(0.63606 0.77164 0.77164 -0.63606 360.408 323.817)" fill="#7E97C9"/>
<circle r="1" transform="matrix(0.63606 0.77164 0.77164 -0.63606 380.761 348.511)" fill="#7E97C9"/>
<circle r="2" transform="matrix(0.63606 0.77164 0.77164 -0.63606 363.589 327.674)" fill="#7E97C9"/>
<circle r="2" transform="matrix(0.63606 0.77164 0.77164 -0.63606 356.815 320.196)" fill="#7E97C9"/>
<circle r="2" transform="matrix(0.63606 0.77164 0.77164 -0.63606 347.815 310.196)" fill="#7E97C9"/>
<circle r="3" transform="matrix(0.63606 0.77164 0.77164 -0.63606 368.041 333.077)" fill="#7E97C9"/>
<circle r="3" transform="matrix(0.63606 0.77164 0.77164 -0.63606 352.223 314.789)" fill="#7E97C9"/>
<rect x="0.940678" y="0.940678" width="581.119" height="448.119" rx="5.33051" fill="white" fill-opacity="0.3" stroke="#7E97C9" stroke-width="1.88136"/>
</svg>
