<svg width="977" height="581" viewBox="0 0 977 581" fill="none" xmlns="http://www.w3.org/2000/svg">
<mask id="mask0" mask-type="alpha" maskUnits="userSpaceOnUse" x="93" y="0" width="497" height="287">
<rect x="94.3805" y="0.537246" width="495.031" height="285.241" rx="3.04439" fill="white" stroke="#7E97C9" stroke-width="1.07449"/>
</mask>
<g mask="url(#mask0)">
<rect x="94.3805" y="0.537246" width="495.031" height="285.241" rx="3.04439" fill="white" stroke="#7E97C9" stroke-width="1.07449"/>
<path d="M94.9634 3.27008C94.9634 2.08322 95.9255 1.12109 97.1124 1.12109H586.322C587.707 1.12109 588.829 2.24358 588.829 3.62824V37.3304H94.9634V3.27008Z" fill="#F5F8FF"/>
<rect opacity="0.6" x="229.347" y="10.4521" width="225.469" height="17.5447" rx="6.80512" fill="#BAC7E4"/>
<rect x="285.34" y="14.9307" width="113.481" height="8.58572" rx="4.29286" fill="#BAC7E4"/>
<rect x="120.719" y="14.9307" width="8.58572" height="8.58572" rx="4.29286" fill="#BAC7E4"/>
<rect x="524.804" y="14.9307" width="8.58572" height="8.58572" rx="4.29286" fill="#BAC7E4"/>
<rect x="135.652" y="14.9307" width="8.58572" height="8.58572" rx="4.29286" fill="#BAC7E4"/>
<rect x="539.735" y="14.9307" width="8.58572" height="8.58572" rx="4.29286" fill="#BAC7E4"/>
<rect x="150.582" y="14.9307" width="8.58572" height="8.58572" rx="4.29286" fill="#BAC7E4"/>
<rect x="554.667" y="14.9307" width="8.58572" height="8.58572" rx="4.29286" fill="#BAC7E4"/>
<rect x="312.299" y="75" width="53.5725" height="24.4052" rx="6.80512" fill="#BAC7E4"/>
<path d="M335.541 88.2969H333.204V92.6198H335.541V88.2969Z" fill="#7E97C9"/>
<path fill-rule="evenodd" clip-rule="evenodd" d="M346.436 82.8541C347.079 83.9777 347.459 85.4804 347.459 87.4807C347.459 89.4763 347.109 90.9554 346.517 92.0459C345.92 93.1427 345.09 93.8248 344.172 94.2407C343.261 94.6532 342.273 94.7998 341.36 94.8465C340.745 94.878 340.137 94.8642 339.609 94.8523C339.363 94.8467 339.134 94.8415 338.93 94.8415H331.102C331.102 94.8415 331.102 94.8415 331.102 94.491V94.8415H330.751V79.7695H331.102V80.12C331.102 79.7695 331.102 79.7695 331.102 79.7695H338.229C338.376 79.7695 338.531 79.7682 338.695 79.7668C340.127 79.7547 342.169 79.7375 343.912 80.5469C344.897 81.0045 345.792 81.7266 346.436 82.8541ZM331.452 80.4705H338.229C338.38 80.4705 338.538 80.4694 338.702 80.4683C340.151 80.458 342.028 80.4447 343.617 81.1827C344.486 81.5868 345.264 82.2156 345.828 83.202C346.394 84.1925 346.758 85.5669 346.758 87.4807C346.758 89.3991 346.421 90.7533 345.901 91.7111C345.383 92.6627 344.673 93.2439 343.882 93.6021C343.084 93.9636 342.195 94.1018 341.324 94.1464C340.733 94.1766 340.177 94.1638 339.663 94.152C339.408 94.1461 339.163 94.1405 338.93 94.1405H331.452V80.4705Z" fill="#7E97C9"/>
<circle cx="334.491" cy="85.724" r="1.16837" fill="#7E97C9"/>
<path opacity="0.78" fill-rule="evenodd" clip-rule="evenodd" d="M336.827 82.2207H341.033V82.2248C343.786 82.2849 346.018 84.4612 346.166 87.1919H344.59V84.7179H344.019V87.4774V87.763H344.305H346.167C346.02 90.5357 343.725 92.7388 340.916 92.7388C340.859 92.7388 340.802 92.7379 340.748 92.736H336.827V87.763H337.178C337.633 87.763 337.984 87.5926 338.208 87.3063C338.424 87.0288 338.496 86.6752 338.47 86.345C338.42 85.7132 337.973 84.972 337.178 84.972H336.827V82.2207ZM336.827 87.1919V85.5431H337.178C337.55 85.5431 337.863 85.9117 337.901 86.3899C337.918 86.6147 337.866 86.8161 337.758 86.9548C337.656 87.0848 337.481 87.1919 337.178 87.1919H336.827ZM342.318 84.7383H342.12L342.051 84.9245L341.394 86.6958L340.912 87.67L341.424 87.923L341.834 87.0946H342.905L343.291 87.9177L343.808 87.6753L343.35 86.6993L342.704 84.926L342.635 84.7383H342.435H342.318ZM342.375 85.6923L342.067 86.5235H342.678L342.375 85.6923ZM339.164 84.972H338.878V85.2575V86.3675V87.4774V87.763H339.164H340.8V87.1919H339.449V86.653H340.8V86.0819H339.449V85.5431H340.8V84.972H339.164Z" fill="#7E97C9"/>
<rect x="184.916" y="75" width="53.5725" height="24.4052" rx="6.80512" fill="#BAC7E4"/>
<rect x="200.393" y="83.6699" width="15.4524" height="11.2155" rx="2.85563" transform="rotate(-14.6399 200.393 83.6699)" fill="#6C67AB"/>
<rect x="207.123" y="83.2549" width="15.4524" height="11.2155" rx="2.85563" fill="#7E97C9"/>
<rect x="207.123" y="85" width="15.4524" height="1.99386" fill="#F5F8FF"/>
<rect x="214.849" y="92.4727" width="3.98772" height="0.996929" rx="0.498465" fill="#F5F8FF"/>
<rect x="219.334" y="92.4727" width="1.99386" height="0.996929" rx="0.498465" fill="#F5F8FF"/>
<rect x="375.99" y="75" width="54.1677" height="24.4052" rx="6.80512" fill="#BAC7E4"/>
<path fill-rule="evenodd" clip-rule="evenodd" d="M396.156 89.7878L398.598 83.8098H399.249L401.29 88.4953L401.853 89.7878H400.551L400.225 89.1415H397.295L397.133 89.7878H396.156ZM400.063 88.6568H397.621L398.598 85.9102H398.923L400.063 88.6568Z" fill="#7E97C9"/>
<path d="M402.83 83.8098H404.132V89.7878H402.83V83.8098Z" fill="#7E97C9"/>
<path d="M405.597 89.7878H406.9V85.587H405.597V89.7878Z" fill="#7E97C9"/>
<path d="M406.9 84.1329C406.9 84.6176 406.574 84.7792 406.248 84.7792C405.923 84.7792 405.597 84.6176 405.597 84.1329C405.597 83.6482 405.76 83.3251 406.248 83.3251C406.737 83.3251 406.9 83.6482 406.9 84.1329Z" fill="#7E97C9"/>
<path fill-rule="evenodd" clip-rule="evenodd" d="M407.876 85.587H409.341V85.9102C409.341 85.9102 409.83 85.4255 410.806 85.4255C411.132 85.4255 412.76 85.1023 412.76 87.6874C412.76 90.2725 410.806 90.2725 410.806 90.2725H409.504V91.8882H407.876V85.587ZM409.504 89.3031V86.718C409.504 86.718 409.83 86.0717 410.318 86.0717C410.806 86.0717 411.457 86.5565 411.457 88.1721C411.457 89.7878 410.806 89.9494 410.318 89.9494C409.83 89.9494 409.504 89.3031 409.504 89.3031Z" fill="#7E97C9"/>
<path fill-rule="evenodd" clip-rule="evenodd" d="M413.411 85.4255H416.341C416.992 85.4255 417.318 86.0718 417.318 86.718V90.2725H415.201C415.201 90.2725 413.085 90.2725 413.085 88.6568C413.085 87.0412 415.201 87.0412 415.201 87.0412H416.015C416.015 86.3949 416.015 86.0717 414.876 86.0717H413.411V85.4255ZM416.015 89.6262V87.6874C416.015 87.6874 414.388 87.3643 414.388 88.6568C414.388 89.9494 416.015 89.6262 416.015 89.6262Z" fill="#7E97C9"/>
<path d="M417.643 85.4255H419.434L420.573 88.3337H420.899L422.201 85.4255H423.015C421.21 90.386 420.229 92.2569 418.62 91.8882V91.2419C419.47 91.2963 420.248 90.4341 420.248 89.7878C420.248 89.1415 417.643 85.4255 417.643 85.4255Z" fill="#7E97C9"/>
<path d="M387.854 83.002H389.319V84.2945H391.924V85.1023H389.319V85.4255H391.435C391.411 86.6536 391.297 87.2456 390.621 87.849L394.203 89.1286V82.8404C394.203 82.0326 393.714 81.5479 392.9 81.5479H384.436C383.459 81.5479 383.133 81.871 383.133 82.8404V91.5651C383.133 92.2113 383.947 92.8576 384.436 92.8576H392.9C393.877 92.8576 394.203 92.2113 394.203 91.5651V91.1342L390.296 88.98H389.645C389.645 88.98 389.319 90.9188 386.552 90.9188C384.761 90.9188 383.784 90.1109 383.784 88.98C383.784 87.849 384.761 86.718 386.226 86.718C387.691 86.718 389.482 87.5259 389.482 87.5259C389.888 87.2001 390.022 86.9668 389.97 86.3949L385.738 86.2333V85.4255H387.854V85.1023H385.087V84.2945H387.854V83.002Z" fill="#7E97C9"/>
<path d="M388.505 88.98C388.701 88.5175 388.582 88.6141 388.505 88.3337C388.429 88.0533 385.129 87.5842 384.761 88.2957C384.598 88.6568 384.45 88.9393 384.761 89.5882C385.072 90.2371 388.309 89.4424 388.505 88.98Z" fill="#7E97C9"/>
<rect x="248.012" y="75" width="54.1677" height="24.4052" rx="6.80512" fill="#BAC7E4"/>
<path fill-rule="evenodd" clip-rule="evenodd" d="M284.821 83.0244H288.508L291.344 91.9592H288.508L288.082 90.3991H284.962L284.537 91.9592H282.126L284.821 83.0244ZM285.53 88.6973L286.664 84.7263L287.941 88.6973H285.53Z" fill="#7E97C9"/>
<path fill-rule="evenodd" clip-rule="evenodd" d="M275.603 83.0244V91.9592H278.014V89.5482H280.709C280.709 89.5482 282.978 89.5482 282.978 86.4281C282.978 83.3081 280.709 83.0244 280.709 83.0244H275.603ZM278.014 87.5627V84.8681H279.29C279.29 84.8681 280.709 84.7263 280.709 86.2863C280.709 87.8464 279.29 87.5627 279.29 87.5627H278.014Z" fill="#7E97C9"/>
<path d="M265.959 85.5801H263.69C263.69 85.1547 263.69 84.5874 263.265 84.5874H261.563C260.712 84.5874 260.854 86.5729 261.563 86.5729H263.69C264.825 86.5729 266.028 87.1444 265.959 87.8493V89.8348C265.959 90.8275 265.25 91.5367 264.399 91.5367H260.428C259.861 91.5367 258.727 90.9694 258.727 90.2603V88.9839H260.57C260.57 89.693 261.138 89.9766 261.563 89.9766H263.265C264.424 89.9866 263.975 87.8534 263.265 87.8493H260.57C259.719 87.8493 258.727 86.9984 258.727 86.0056V84.7292C258.727 83.8783 259.577 83.0273 260.428 83.0273H264.399C265.25 83.0273 265.959 83.8783 265.959 84.5874V85.5801Z" fill="#7E97C9"/>
<path d="M274.754 85.4355L275.179 84.1591C275.179 84.1591 274.305 82.6682 272.343 82.7408C270.381 82.8135 269.102 83.8793 268.23 85.7191H267.095L266.386 86.9955H267.804V87.7046H267.095L266.67 88.981H268.23C268.23 88.981 269.223 91.9593 272.343 91.9593C274.045 91.9593 274.754 91.1083 274.754 91.1083V89.4065C274.754 89.4065 273.903 90.541 272.343 90.541C270.783 90.541 269.79 88.981 269.79 88.981H272.91L273.619 87.7046H269.364V86.9955H273.903L274.47 85.7191H269.79C269.79 85.7191 270.783 84.1591 272.343 84.1591C273.903 84.1591 274.754 85.4355 274.754 85.4355Z" fill="#7E97C9"/>
<rect x="439.682" y="75" width="53.5725" height="24.4052" rx="6.80512" fill="#BAC7E4"/>
<circle cx="457.54" cy="87.5055" r="1.78575" fill="#7E97C9"/>
<circle cx="466.466" cy="87.5016" r="1.78575" fill="#7E97C9"/>
<circle cx="475.398" cy="87.5016" r="1.78575" fill="#7E97C9"/>
<rect x="180.625" y="105.447" width="314.327" height="234.069" rx="3.40256" fill="white" stroke="#7E97C9" stroke-width="0.358164"/>
<rect opacity="0.5" x="207.488" y="286.851" width="269.936" height="16.8435" rx="3.76072" stroke="#E5EAF4" stroke-width="1.07449"/>
<rect opacity="0.5" x="233.131" y="196.434" width="208.933" height="7.143" rx="3.5715" fill="#7E97C9"/>
<rect opacity="0.5" x="263.488" y="212.504" width="148.217" height="7.143" rx="3.5715" fill="#7E97C9"/>
<path d="M309.969 60.1016C309.868 61.4997 309.35 62.6003 308.416 63.4034C307.488 64.2066 306.263 64.6082 304.74 64.6082C303.074 64.6082 301.762 64.0489 300.804 62.9305C299.852 61.8061 299.376 60.2652 299.376 58.3079V57.5137C299.376 56.2644 299.596 55.1638 300.037 54.2119C300.477 53.26 301.105 52.5312 301.92 52.0255C302.741 51.5139 303.693 51.2581 304.775 51.2581C306.274 51.2581 307.482 51.6597 308.398 52.4628C309.315 53.2659 309.844 54.3933 309.987 55.8449H307.31C307.244 55.0061 307.009 54.3993 306.605 54.0245C306.206 53.6437 305.596 53.4534 304.775 53.4534C303.883 53.4534 303.214 53.7746 302.767 54.4171C302.327 55.0537 302.101 56.0442 302.089 57.3888V58.3704C302.089 59.7744 302.3 60.8007 302.723 61.4491C303.151 62.0976 303.823 62.4218 304.74 62.4218C305.567 62.4218 306.182 62.2344 306.587 61.8596C306.997 61.4789 307.232 60.8929 307.292 60.1016H309.969ZM322.302 64.4297H319.625V58.8612H314.404V64.4297H311.727V51.4366H314.404V56.7016H319.625V51.4366H322.302V64.4297ZM332.466 58.7987H327.326V62.279H333.358V64.4297H324.649V51.4366H333.341V53.6051H327.326V56.7016H332.466V58.7987ZM338.998 59.2182L337.606 60.7174V64.4297H334.929V51.4366H337.606V57.3263L338.784 55.7111L342.095 51.4366H345.388L340.774 57.2103L345.522 64.4297H342.336L338.998 59.2182ZM356.917 58.2276C356.917 59.5067 356.691 60.6281 356.239 61.5919C355.787 62.5557 355.139 63.2993 354.294 63.8229C353.455 64.3464 352.491 64.6082 351.402 64.6082C350.326 64.6082 349.365 64.3494 348.52 63.8318C347.675 63.3142 347.021 62.5765 346.557 61.6187C346.093 60.6549 345.858 59.5483 345.852 58.299V57.6565C345.852 56.3774 346.081 55.253 346.539 54.2833C347.003 53.3076 347.654 52.561 348.493 52.0434C349.338 51.5198 350.302 51.2581 351.385 51.2581C352.467 51.2581 353.428 51.5198 354.267 52.0434C355.112 52.561 355.763 53.3076 356.221 54.2833C356.685 55.253 356.917 56.3744 356.917 57.6476V58.2276ZM354.204 57.6386C354.204 56.2763 353.961 55.2411 353.473 54.5331C352.985 53.8252 352.289 53.4712 351.385 53.4712C350.486 53.4712 349.793 53.8222 349.305 54.5242C348.817 55.2203 348.571 56.2435 348.565 57.594V58.2276C348.565 59.5543 348.809 60.5835 349.296 61.3153C349.784 62.047 350.486 62.4129 351.402 62.4129C352.301 62.4129 352.991 62.0619 353.473 61.3599C353.955 60.6519 354.199 59.6227 354.204 58.2722V57.6386ZM368.697 51.4366V59.9945C368.697 61.4164 368.251 62.5408 367.358 63.3677C366.472 64.1947 365.258 64.6082 363.717 64.6082C362.2 64.6082 360.996 64.2066 360.103 63.4034C359.211 62.6003 358.756 61.4967 358.738 60.0927V51.4366H361.415V60.0124C361.415 60.8631 361.617 61.4848 362.022 61.8775C362.432 62.2642 362.997 62.4575 363.717 62.4575C365.222 62.4575 365.987 61.6663 366.011 60.0838V51.4366H368.697ZM380.673 53.6051H376.693V64.4297H374.015V53.6051H370.089V51.4366H380.673V53.6051Z" fill="#7E97C9"/>
<path d="M319.487 140.831H361.034C363.319 140.831 365.189 142.701 365.189 144.986V149.971C365.189 152.257 363.319 154.126 361.034 154.126H319.487C317.202 154.126 315.333 152.256 315.333 149.971V144.986C315.333 142.701 317.202 140.831 319.487 140.831Z" fill="#5A76B0"/>
<path d="M328.586 145.277L354.594 138.38C355.467 138.131 356.381 138.671 356.63 139.544L360.951 155.498C361.2 156.37 360.66 157.284 359.787 157.533L325.927 166.549C325.054 166.798 324.14 166.258 323.891 165.386L320.733 153.67L328.586 145.277Z" fill="#3DB39E"/>
<path d="M356.421 154.995L350.813 156.491C350.356 156.616 349.899 156.366 349.816 155.909C349.691 155.452 349.94 154.995 350.397 154.912L355.217 153.624L352.641 143.985L347.821 145.273C347.364 145.398 346.907 145.149 346.824 144.692C346.7 144.235 346.949 143.778 347.406 143.695L353.015 142.199C353.472 142.074 353.929 142.324 354.012 142.781L357.003 153.998C357.128 154.455 356.878 154.912 356.421 154.995ZM333.155 161.269L327.546 162.765C327.089 162.889 326.632 162.64 326.549 162.183L323.558 150.965C323.433 150.508 323.683 150.051 324.14 149.968L329.748 148.473C330.205 148.348 330.662 148.597 330.745 149.054C330.87 149.511 330.621 149.968 330.164 150.051L325.344 151.339L327.92 160.978L332.74 159.69C333.197 159.566 333.654 159.815 333.737 160.272C333.861 160.687 333.612 161.144 333.155 161.269Z" fill="#78CABB"/>
<path d="M315.664 151.091C323.06 146.854 343.002 135.179 343.002 135.179C343.791 134.722 344.83 134.971 345.287 135.761L353.597 150.053C354.054 150.842 353.763 151.839 352.973 152.296L322.561 169.746C321.772 170.203 320.733 169.954 320.276 169.164C320.276 169.164 317.949 164.428 315.623 160.439C315.623 151.091 315.664 154.166 315.664 151.091Z" fill="#5ABEAC"/>
<path d="M349.358 149.597L343.542 139.543C343.293 139.127 342.794 139.003 342.42 139.252L337.393 142.16C336.978 142.409 336.853 142.908 337.102 143.282C337.351 143.697 337.85 143.822 338.224 143.573L342.545 141.08L347.531 149.722L343.21 152.215C342.794 152.464 342.67 152.962 342.919 153.336C343.168 153.752 343.667 153.876 344.041 153.627L349.068 150.719C349.442 150.511 349.608 150.013 349.358 149.597ZM327.339 161.355L323.018 163.848L318.032 155.206L322.353 152.713C322.768 152.464 322.893 151.965 322.644 151.591C322.395 151.176 321.896 151.051 321.522 151.3L316.495 154.209C316.079 154.458 315.955 154.957 316.204 155.331L322.021 165.385C322.27 165.8 322.768 165.925 323.142 165.676L328.169 162.767C328.585 162.518 328.71 162.02 328.46 161.646C328.253 161.272 327.754 161.106 327.339 161.355ZM329.458 146.689C326.258 148.517 325.178 152.589 327.006 155.788C328.876 158.987 332.906 160.067 336.105 158.239C339.304 156.411 340.384 152.339 338.556 149.14C336.687 145.982 332.657 144.861 329.458 146.689ZM349.358 149.597L343.542 139.543C343.293 139.127 342.794 139.003 342.42 139.252L337.393 142.16C336.978 142.409 336.853 142.908 337.102 143.282C337.351 143.697 337.85 143.822 338.224 143.573L342.545 141.08L347.531 149.722L343.21 152.215C342.794 152.464 342.67 152.962 342.919 153.336C343.168 153.752 343.667 153.876 344.041 153.627L349.068 150.719C349.442 150.511 349.608 150.013 349.358 149.597ZM327.339 161.355L323.018 163.848L318.032 155.206L322.353 152.713C322.768 152.464 322.893 151.965 322.644 151.591C322.395 151.176 321.896 151.051 321.522 151.3L316.495 154.209C316.079 154.458 315.955 154.957 316.204 155.331L322.021 165.385C322.27 165.8 322.768 165.925 323.142 165.676L328.169 162.767C328.585 162.518 328.71 162.02 328.46 161.646C328.253 161.272 327.754 161.106 327.339 161.355ZM329.458 146.689C326.258 148.517 325.178 152.589 327.006 155.788C328.876 158.987 332.906 160.067 336.105 158.239C339.304 156.411 340.384 152.339 338.556 149.14C336.687 145.982 332.657 144.861 329.458 146.689Z" fill="#8CD2C5"/>
<path d="M362.696 182.377H319.487C317.202 182.377 315.333 180.507 315.333 178.222V148.308H362.696C364.981 148.308 366.851 150.178 366.851 152.463V178.222C366.851 180.507 364.981 182.377 362.696 182.377ZM318.656 148.308H315.333V144.984C315.333 146.812 316.828 148.308 318.656 148.308Z" fill="#7E97C9"/>
<path d="M366.851 171.989H360.204C357.005 171.989 354.387 169.372 354.387 166.173C354.387 162.974 357.005 160.356 360.204 160.356H366.851C367.765 160.356 368.513 161.104 368.513 162.018V170.328C368.513 171.242 367.765 171.989 366.851 171.989Z" fill="#5A76B0"/>
<path d="M360.202 162.85C362.03 162.85 363.525 164.345 363.525 166.173C363.525 168.002 362.03 169.497 360.202 169.497C358.374 169.497 356.878 168.002 356.878 166.173C356.878 164.345 358.374 162.85 360.202 162.85Z" fill="#FA6C06"/>
<path d="M361.033 168.665C359.205 168.665 357.709 167.169 357.709 165.341C357.709 164.635 357.917 163.97 358.291 163.43C357.418 164.011 356.878 165.008 356.878 166.172C356.878 168 358.374 169.496 360.202 169.496C361.323 169.496 362.321 168.914 362.944 168.083C362.404 168.457 361.739 168.665 361.033 168.665Z" fill="#F9A364"/>
<path d="M362.696 180.716H319.487C317.202 180.716 315.333 178.847 315.333 176.562V178.223C315.333 180.509 317.202 182.378 319.487 182.378H362.696C364.981 182.378 366.851 180.509 366.851 178.223V176.562C366.851 178.847 364.981 180.716 362.696 180.716Z" fill="#5A76B0"/>
<path d="M362.696 148.308H318.656C316.828 148.308 315.333 146.812 315.333 144.984V146.646C315.333 148.474 316.828 149.97 318.656 149.97H362.696C364.981 149.97 366.851 151.84 366.851 154.125V152.463C366.851 150.178 364.981 148.308 362.696 148.308Z" fill="#8EA4D3"/>
<rect x="94.3805" y="0.537246" width="495.031" height="285.241" rx="3.04439" fill="white" fill-opacity="0.3" stroke="#7E97C9" stroke-width="1.07449"/>
</g>
<path opacity="0.2" d="M957.112 266.048L583.629 1.93555H92.124V282.677L895.706 501.979L957.112 266.048Z" fill="#F5F8FF"/>
<path d="M769.132 564.058L652.782 564.243C651.12 564.243 649.735 562.58 649.643 560.457C649.55 558.425 650.751 556.578 652.413 556.394L768.301 545.959C777.719 545.128 786.307 548.729 786.492 554.085C786.769 559.626 778.55 564.058 769.132 564.058Z" fill="#67686B"/>
<path d="M618.431 547.622C622.402 546.606 629.789 524.629 629.789 524.629C629.789 524.629 545.759 496.281 510.115 477.812L460.436 535.248C524.244 551.223 615.476 548.361 618.431 547.622Z" fill="#E9C4AA"/>
<path d="M605.503 515.949C626.188 521.305 659.061 507.915 665.248 509.3C671.435 510.593 697.106 523.983 703.292 530.723C709.479 537.372 731.272 558.149 727.301 559.441C723.423 560.734 695.997 540.696 692.673 540.05C689.349 539.404 687.687 544.021 660.262 549.376C632.836 554.732 599.778 540.881 599.778 540.881L605.503 515.949Z" fill="#E9C4AA"/>
<path d="M638.468 536.724C638.468 536.724 670.326 528.69 674.204 530.076C678.082 531.368 701.906 536.724 718.343 555.469C702.738 550.76 680.299 549.467 674.204 549.467C668.017 549.375 638.468 536.724 638.468 536.724Z" fill="#DEB799"/>
<path d="M646.04 523.335C659.614 540.695 694.15 546.051 699.413 552.053C704.677 558.055 686.855 555.562 677.436 554.731C653.52 552.699 636.806 562.395 617.415 556.393C598.023 550.391 593.683 535.986 593.683 535.986L646.04 523.335Z" fill="#E9C4AA"/>
<path d="M391.089 214.732C329.682 244.928 301.611 266.997 282.588 349.181C263.566 431.456 262.55 509.669 272.523 567.844C340.671 569.783 535.879 577.17 535.879 577.17C535.879 577.17 532.186 457.774 512.24 363.217C493.218 273 466.07 237.818 443.077 221.843C419.899 205.775 391.089 214.732 391.089 214.732Z" fill="#7E97C9"/>
<path opacity="0.1" d="M405.863 494.618C383.886 472.549 389.796 323.141 353.691 255.917C307.601 267.715 287.608 295.634 270.558 413.333L266.151 485.661C265.967 515.764 268.275 543.559 272.431 567.937C272.708 569.322 273.908 570.245 275.293 570.153C330.79 565.259 333.837 541.158 511.039 514.471C515.287 513.64 420.822 509.577 405.863 494.618Z" fill="#010101"/>
<path d="M385.179 214.733C377.422 232.832 393.212 256.656 418.144 275.401C443.076 294.146 458.22 283.896 456.927 269.122C455.635 254.347 454.249 238.834 448.432 229.415C442.614 220.089 396.259 212.055 396.259 212.055C396.259 212.055 386.564 211.593 385.179 214.733Z" fill="white"/>
<path d="M414.82 123.776L390.996 214.732C388.688 220.827 389.334 227.66 392.751 233.2C402.446 248.898 423.315 278.909 438.182 274.938C458.22 269.582 444.831 232.185 444.831 232.185L471.61 137.905L414.82 123.776Z" fill="#F4CEB1"/>
<path opacity="0.1" d="M451.295 129.408L427.563 119.805L420.453 138.365C423.685 217.409 433.75 249.636 449.263 258.593C450.095 246.404 445.016 232.091 445.016 232.091L464.407 161.912L451.295 129.408Z" fill="#010101"/>
<path d="M517.318 165.053C512.701 196.449 500.328 223.32 477.889 219.996C455.45 216.671 416.944 190.446 421.653 159.051C426.363 127.655 476.596 90.072 499.035 93.3963C521.381 96.7206 521.935 133.657 517.318 165.053Z" fill="#F4CEB1"/>
<path d="M394.296 312.681C396.051 305.571 319.987 271.614 315.462 277.339C277.449 342.831 271.484 474.747 346.766 511.214C422.048 547.681 584.702 553.783 588.673 552.767C592.644 551.751 603.448 520.91 603.448 520.91C603.448 520.91 420.52 455.255 402.145 442.882C382.292 371.317 380.722 366.7 394.296 312.681Z" fill="#F4CEB1"/>
<path d="M335.685 250.929C288.499 272.075 282.563 430.877 282.563 430.877C282.563 430.877 337.967 435.494 358.744 430.877C379.521 426.259 395.219 418.872 395.219 418.872C400.379 418.935 388.221 382.732 395.219 344.537C410.363 295.504 364.772 237.817 335.685 250.929Z" fill="#7E97C9"/>
<path d="M283.948 411.947C327.041 400.811 377.947 402.088 394.295 406.867C395.148 403.54 393.289 396.026 394.295 391.344C382.405 386.764 342.555 384.257 313.757 391.344C302.084 394.24 292 394.729 285.332 396.71C285.321 400.894 284.012 408.637 283.948 411.947Z" fill="white"/>
<path d="M287.39 379.094C287.358 380.997 287.292 382.815 287.191 384.547C322.596 368.638 374.895 372.116 387.903 379.232C389.447 380.104 392.91 381.934 392.91 381.934C392.91 381.934 392.651 377.922 393.008 376.087C384.756 372.635 364.37 366.824 351.886 366.463C326.456 365.829 290.252 378.044 287.39 379.094Z" fill="white"/>
<path opacity="0.1" d="M365.216 489.841C365.216 489.841 373.022 465.45 391.691 452.773C402.313 445.518 404.766 446.162 403.846 446.248C402.427 440.555 400.996 435.124 399.551 429.954C391.232 438.238 371.304 460.527 365.216 489.841Z" fill="#010101"/>
<path d="M940.701 313.075V540.695C940.701 548.267 933.59 554.361 924.726 554.361H876.893C868.767 554.361 862.119 560.086 862.119 567.104H930.913C945.687 567.104 957.691 556.762 957.691 544.019V312.982H940.701V313.075Z" fill="#2A2B2D"/>
<path d="M905.703 508.008L898.131 506.53C893.145 505.607 889.913 501.267 891.021 496.927L950.489 265.798C951.597 261.458 956.583 258.78 961.569 259.703L969.141 261.181C974.128 262.104 977.36 266.444 976.252 270.784L916.784 501.913C915.768 506.253 910.69 508.931 905.703 508.008Z" fill="#67686B"/>
<path d="M907.829 508.377L906.906 508.192C903.027 507.453 900.534 504.129 901.458 500.805L961.849 266.167C962.68 262.842 966.558 260.719 970.436 261.457L971.36 261.642C975.238 262.381 977.731 265.705 976.808 269.029L916.417 503.667C915.494 506.992 911.615 509.115 907.829 508.377Z" fill="#2A2B2D"/>
<path d="M969.522 580.55H74.0111C69.8844 580.55 66.4858 576.682 66.4858 571.777C66.4858 566.967 69.8844 563.005 74.0111 563.005H969.441C973.568 563.005 976.966 566.967 976.966 571.777C976.966 576.588 973.649 580.55 969.522 580.55Z" fill="#2E5B9A"/>
<path d="M425.163 84.624C378.9 113.342 408.172 144.369 395.891 197.742C403.463 200.327 411.681 185.46 416.944 173.733C422.208 162.006 426.917 145.015 428.672 145.569C430.426 146.123 433.381 172.533 433.381 172.533L440.399 176.041C440.399 176.041 450.372 158.497 449.818 154.341C449.264 150.278 441.045 130.333 451.018 120.914C457.39 114.912 483.799 127.932 483.799 127.932L458.036 90.9956L425.163 84.624Z" fill="#F09959"/>
<path opacity="0.1" d="M425.163 84.624C378.9 113.342 408.172 144.369 395.891 197.742C403.463 200.327 411.681 185.46 416.944 173.733C422.208 162.006 426.917 145.015 428.672 145.569C430.426 146.123 433.381 172.533 433.381 172.533L440.399 176.041C440.399 176.041 450.372 158.497 449.818 154.341C449.264 150.278 441.045 130.333 451.018 120.914C457.39 114.912 483.799 127.932 483.799 127.932L458.036 90.9956L425.163 84.624Z" fill="#CA8A50"/>
<path d="M526.553 115.65C524.244 143.814 480.567 134.95 460.344 109.833C441.045 85.8244 425.07 102.353 405.863 110.387C373.636 123.869 409.926 45.9332 475.027 58.2145C523.782 67.4486 528.122 96.9053 526.553 115.65Z" fill="#CA8A50"/>
<path d="M429.595 145.569C431.627 156.096 427.656 165.607 420.823 166.9C413.99 168.192 406.787 160.713 404.848 150.278C402.909 139.844 406.787 130.24 413.62 128.948C420.454 127.655 427.656 135.042 429.595 145.569Z" fill="#F4CEB1"/>
<path d="M179.721 231.814C156.636 252.868 166.701 273.922 183.692 313.074C200.775 352.227 203.73 496.648 203.73 496.648L189.694 494.616C189.694 494.616 191.725 346.225 172.611 306.056C153.589 265.981 145.555 245.85 128.472 258.963C111.481 271.89 179.721 231.814 179.721 231.814Z" fill="#79B46F"/>
<path d="M192.371 204.574C189.601 192.108 172.887 178.627 150.726 167.176C154.05 185.552 164.669 215.655 153.681 221.842C138.906 230.153 152.203 188.138 146.57 165.052C125.701 154.895 100.585 146.492 77.407 142.337C77.407 142.429 77.4994 142.521 77.4994 142.614C90.5194 175.672 107.602 188.784 100.585 193.771C95.3211 197.556 78.1458 159.327 55.3376 139.751C38.2545 138.828 23.8494 141.136 15.354 147.877C2.14927 158.312 -6.71545 167.546 6.58163 199.403C14.1536 204.851 23.9417 208.73 35.392 209.838C65.4951 212.885 79.5309 213.808 58.4772 223.874C48.135 228.768 30.8673 223.597 16.8315 220.457C21.3562 228.86 26.9889 238.279 33.7298 249.083C38.0698 255.916 42.7792 261.918 47.858 266.997C57.5538 268.844 66.0491 268.844 70.4815 266.997C84.5173 260.995 120.623 241.88 129.672 249.914C138.537 257.763 62.8172 262.749 68.0806 282.695C104.74 303.841 146.755 293.776 154.142 274.384C164.023 248.252 200.774 242.157 192.371 204.574Z" fill="#89C97E"/>
<path d="M116.468 347.148C156.544 317.044 197.728 345.116 218.781 377.251C239.835 409.385 224.784 481.596 224.784 481.596C224.784 481.596 216.75 481.596 216.75 478.548C216.75 475.501 238.819 393.318 186.647 356.197C154.05 333.019 130.504 344.193 127.456 355.181C124.409 366.17 140.476 386.3 140.476 386.3L116.468 347.148Z" fill="#79B46F"/>
<path d="M208.716 285.279C168.64 285.279 155.527 347.425 166.608 383.53C177.597 419.635 192.648 486.859 192.648 486.859L202.714 476.794C202.714 476.794 164.577 382.514 173.626 340.407C182.676 298.299 204.745 291.281 208.716 291.281C212.779 291.281 208.716 285.279 208.716 285.279Z" fill="#89C97E"/>
<path d="M175.104 383.9C172.241 380.206 168.824 377.067 164.577 375.035C165.131 377.99 165.869 380.945 166.7 383.623C171.687 400.06 177.597 422.96 182.491 442.998C182.952 440.412 183.599 436.442 184.707 430.347C184.984 428.87 185.169 427.3 185.261 425.638C181.29 412.341 177.504 397.751 175.104 383.9Z" fill="#79B46F"/>
<path d="M164.116 384.176C87.9348 352.041 128.011 308.087 60.879 337.082C56.1696 339.114 50.3521 344.285 44.627 351.395C50.6292 353.057 57.8317 354.35 65.9577 353.149C85.9957 350.102 78.9778 366.169 45.9198 370.232C39.6406 370.971 34.6542 371.987 30.4065 373.464C14.6162 403.752 7.506 443.551 40.9334 457.402C47.4896 460.172 55.6156 461.65 64.665 462.296C75.0071 454.078 62.1717 406.799 78.0544 413.263C93.2906 419.542 73.2527 453.893 76.0229 462.481C91.0744 462.204 107.696 459.711 123.671 455.832C129.95 452.323 134.752 447.614 136.229 441.335C141.215 420.281 108.157 407.261 107.142 389.162C106.218 372.541 119.238 425.637 153.866 433.486C184.985 418.988 199.76 399.135 164.116 384.176Z" fill="#89C97E"/>
<path d="M218.411 327.386C210.378 310.303 231.431 306.332 230.416 319.352C229.492 330.895 229.4 358.967 241.312 366.631C261.719 364.415 289.514 356.196 310.567 343.638C310.844 341.976 310.567 340.221 309.644 338.375C300.595 320.368 242.42 305.317 260.519 299.222C274.924 294.42 300.133 322.677 320.356 336.99C332.545 327.755 340.763 316.674 340.763 304.393C340.763 287.772 320.54 268.842 294.315 259.885C282.496 261.085 271.6 267.549 254.517 277.245C229.307 291.558 235.125 268.38 258.949 254.714C238.357 255.822 217.765 264.594 202.621 285.648C202.621 285.648 204.098 294.605 194.495 308.548C168.547 346.501 198.466 368.662 234.294 367.185C232.447 357.212 224.044 339.206 218.411 327.386Z" fill="#89C97E"/>
<path d="M118.868 345.487C99.2919 360.63 77.4994 378.36 50.7206 390.364C23.9418 402.368 29.2976 441.613 29.2976 441.613C29.2976 441.613 25.3269 407.724 47.581 396.182C69.8352 384.547 84.6097 370.788 101.508 368.11C118.406 365.432 127.825 362.754 127.825 362.754C127.825 362.754 122.469 352.043 125.609 348.072C128.749 344.009 118.868 345.487 118.868 345.487Z" fill="#79B46F"/>
<path d="M22.1865 167.453C93.9353 186.66 146.57 232.553 156.358 243.634C166.146 254.808 166.146 257.855 166.146 257.855L158.574 272.075L154.973 270.321C154.973 270.321 160.79 258.316 145.646 242.711C119.514 215.84 87.6562 194.601 65.8637 185.183C44.0713 175.948 22.1865 167.453 22.1865 167.453Z" fill="#79B46F"/>
<path d="M220.35 564.703H192.925C173.441 564.703 157.651 548.913 157.651 529.429V466.452H255.717V529.429C255.624 548.913 239.834 564.703 220.35 564.703Z" fill="#FA6C06"/>
<path d="M608.619 552.397C612.589 551.381 619.977 529.404 619.977 529.404C619.977 529.404 535.946 501.055 500.303 482.587L450.624 540.023C514.431 555.998 605.664 553.135 608.619 552.397Z" fill="#F4CEB1"/>
<path d="M595.691 520.724C616.375 526.08 649.249 512.691 655.435 514.076C661.622 515.369 687.293 528.758 693.48 535.499C699.667 542.147 721.459 562.924 717.488 564.217C713.61 565.51 686.185 545.472 682.861 544.825C679.536 544.179 677.874 548.796 650.449 554.152C623.024 559.507 589.966 545.656 589.966 545.656L595.691 520.724Z" fill="#F4CEB1"/>
<path d="M628.657 541.501C628.657 541.501 660.514 533.468 664.393 534.853C668.271 536.146 692.095 541.501 708.532 560.247C692.926 555.537 670.487 554.244 664.393 554.244C658.206 554.152 628.657 541.501 628.657 541.501Z" fill="#F4CEB1"/>
<path d="M636.228 528.111C649.802 545.471 684.337 550.827 689.601 556.829C694.864 562.832 677.042 560.338 667.624 559.507C643.707 557.476 626.994 567.172 607.602 561.169C588.211 555.167 583.871 540.762 583.871 540.762L636.228 528.111Z" fill="#F4CEB1"/>
<path d="M575.744 563.848H526.342L518.955 471.507H583.778L575.744 563.848Z" fill="#FA6C06"/>
</svg>
