<svg width="582" height="367" viewBox="0 0 582 367" fill="none" xmlns="http://www.w3.org/2000/svg">
<rect x="0.758315" y="1.5005" width="580.483" height="363.755" rx="4.29712" fill="white" stroke="#7E97C9" stroke-width="1.51663"/>
<path fill-rule="evenodd" clip-rule="evenodd" d="M45.4551 185.812C45.4551 163.388 63.6172 145.226 86.0409 145.226C108.464 145.226 126.627 163.388 126.627 185.812C126.627 208.235 108.464 226.398 86.0409 226.398C63.6172 226.398 45.4551 208.235 45.4551 185.812ZM95.0505 173.798C95.0505 168.827 91.011 164.788 86.0405 164.788C81.0699 164.788 77.0304 168.827 77.0304 173.798C77.0304 178.783 81.0699 182.808 86.0405 182.808C91.011 182.808 95.0505 178.783 95.0505 173.798ZM68.0204 197.765C71.9097 203.591 78.5171 207.435 86.0405 207.435C93.5639 207.435 100.171 203.591 104.061 197.765C103.97 191.803 92.0322 188.514 86.0405 188.514C80.0488 188.514 68.0955 191.803 68.0204 197.765Z" fill="#FA6C06"/>
<path d="M220.786 145.226C198.362 145.226 180.2 163.388 180.2 185.812C180.2 208.235 198.362 226.398 220.786 226.398C243.21 226.398 261.372 208.235 261.372 185.812C261.372 163.388 243.21 145.226 220.786 145.226Z" fill="#EDAC7D"/>
<path d="M198.45 204.899H204.784V207.534H194.811V193.324H198.45V204.899Z" fill="white"/>
<path d="M218.439 200.722C218.439 202.108 218.166 203.334 217.62 204.401C217.074 205.468 216.296 206.292 215.287 206.871C214.285 207.443 213.141 207.73 211.855 207.73C210.57 207.73 209.429 207.453 208.434 206.9C207.438 206.34 206.661 205.543 206.101 204.509C205.548 203.474 205.258 202.287 205.23 200.946V200.146C205.23 198.753 205.5 197.527 206.039 196.466C206.585 195.399 207.362 194.576 208.372 193.997C209.388 193.418 210.542 193.128 211.834 193.128C213.113 193.128 214.254 193.415 215.256 193.987C216.258 194.56 217.036 195.376 217.589 196.437C218.148 197.491 218.432 198.701 218.439 200.068V200.722ZM214.737 200.126C214.737 198.714 214.485 197.644 213.981 196.915C213.483 196.18 212.767 195.812 211.834 195.812C210.01 195.812 209.045 197.101 208.942 199.677L208.931 200.722C208.931 202.114 209.177 203.185 209.668 203.933C210.158 204.681 210.887 205.055 211.855 205.055C212.774 205.055 213.483 204.688 213.981 203.952C214.478 203.217 214.73 202.16 214.737 200.78V200.126Z" fill="white"/>
<path d="M232.674 205.778C232.114 206.363 231.295 206.835 230.216 207.193C229.138 207.551 227.956 207.73 226.671 207.73C224.694 207.73 223.115 207.16 221.933 206.022C220.751 204.883 220.118 203.298 220.035 201.268L220.025 200.039C220.025 198.64 220.288 197.42 220.813 196.379C221.338 195.331 222.088 194.527 223.063 193.968C224.044 193.402 225.178 193.119 226.463 193.119C228.343 193.119 229.802 193.525 230.838 194.339C231.882 195.146 232.49 196.353 232.663 197.96H229.159C229.035 197.166 228.765 196.6 228.35 196.261C227.936 195.923 227.348 195.754 226.588 195.754C225.675 195.754 224.97 196.118 224.473 196.847C223.975 197.576 223.723 198.617 223.716 199.97V200.829C223.716 202.248 223.972 203.315 224.483 204.03C225.001 204.74 225.814 205.094 226.919 205.094C227.866 205.094 228.571 204.896 229.035 204.499V202.293H226.505V199.941H232.674V205.778Z" fill="white"/>
<path d="M247.572 200.722C247.572 202.108 247.299 203.334 246.753 204.401C246.207 205.468 245.429 206.292 244.42 206.871C243.418 207.443 242.274 207.73 240.989 207.73C239.703 207.73 238.562 207.453 237.567 206.9C236.572 206.34 235.794 205.543 235.234 204.509C234.681 203.474 234.391 202.287 234.364 200.946V200.146C234.364 198.753 234.633 197.527 235.172 196.466C235.718 195.399 236.496 194.576 237.505 193.997C238.521 193.418 239.675 193.128 240.968 193.128C242.246 193.128 243.387 193.415 244.389 193.987C245.391 194.56 246.169 195.376 246.722 196.437C247.282 197.491 247.565 198.701 247.572 200.068V200.722ZM243.871 200.126C243.871 198.714 243.618 197.644 243.114 196.915C242.616 196.18 241.901 195.812 240.968 195.812C239.143 195.812 238.179 197.101 238.075 199.677L238.065 200.722C238.065 202.114 238.31 203.185 238.801 203.933C239.292 204.681 240.021 205.055 240.989 205.055C241.908 205.055 242.616 204.688 243.114 203.952C243.612 203.217 243.864 202.16 243.871 200.78V200.126Z" fill="white"/>
<path fill-rule="evenodd" clip-rule="evenodd" d="M232.421 193.427H194.411C194.559 183.057 203.011 174.696 213.416 174.696C223.821 174.696 232.273 183.057 232.421 193.427Z" fill="white"/>
<path fill-rule="evenodd" clip-rule="evenodd" d="M247.573 193.428H228.567C228.641 188.242 232.867 184.062 238.07 184.062C243.273 184.062 247.499 188.242 247.573 193.428Z" fill="white"/>
<path fill-rule="evenodd" clip-rule="evenodd" d="M237.105 178.003H218.1C218.173 172.817 222.399 168.636 227.602 168.636C232.805 168.636 237.031 172.817 237.105 178.003Z" fill="white"/>
<path fill-rule="evenodd" clip-rule="evenodd" d="M355.53 226.398C377.945 226.398 396.115 208.227 396.115 185.812C396.115 163.397 377.945 145.226 355.53 145.226C333.115 145.226 314.944 163.397 314.944 185.812C314.944 208.227 333.115 226.398 355.53 226.398ZM356.283 164.818L377.034 176.676C377.256 176.824 377.404 177.047 377.404 177.343C377.404 177.639 377.256 177.862 377.034 178.01L356.283 189.868C356.135 189.942 356.061 189.942 355.912 189.942C355.764 189.942 355.69 189.942 355.542 189.868L334.791 178.01C334.569 177.862 334.42 177.639 334.42 177.343C334.42 177.047 334.569 176.824 334.791 176.676L355.542 164.818C355.764 164.67 356.061 164.67 356.283 164.818ZM377.034 194.462L376.259 194.019C373.526 192.457 370.169 192.462 367.44 194.031L357.024 200.02C356.654 200.243 356.283 200.317 355.913 200.317C355.542 200.317 355.171 200.243 354.801 200.02L344.385 194.031C341.656 192.462 338.299 192.457 335.566 194.019L334.791 194.462C334.569 194.61 334.421 194.833 334.421 195.129C334.421 195.425 334.569 195.648 334.791 195.796L355.542 207.654C355.69 207.728 355.764 207.728 355.913 207.728C356.061 207.728 356.135 207.728 356.283 207.654L377.034 195.796C377.256 195.648 377.404 195.425 377.404 195.129C377.404 194.833 377.256 194.61 377.034 194.462ZM376.259 185.126L377.034 185.569C377.256 185.717 377.404 185.939 377.404 186.236C377.404 186.532 377.256 186.755 377.034 186.903L356.283 198.76C356.135 198.835 356.061 198.835 355.913 198.835C355.764 198.835 355.69 198.835 355.542 198.76L334.791 186.903C334.569 186.755 334.421 186.532 334.421 186.236C334.421 185.939 334.569 185.717 334.791 185.569L335.566 185.126C338.299 183.564 341.656 183.569 344.385 185.138L354.801 191.127C355.171 191.349 355.542 191.424 355.913 191.424C356.283 191.424 356.654 191.349 357.024 191.127L367.44 185.138C370.169 183.569 373.526 183.564 376.259 185.126Z" fill="#6C67AB"/>
<circle cx="466.735" cy="56.7508" r="40.5858" fill="#7E97C9"/>
<path d="M444.4 73.5334H450.735V76.1686H440.761V61.9579H444.4V73.5334Z" fill="white"/>
<path d="M464.389 69.3561C464.389 70.742 464.116 71.9685 463.57 73.0356C463.024 74.1027 462.247 74.9258 461.238 75.5049C460.235 76.0775 459.091 76.3638 457.806 76.3638C456.52 76.3638 455.38 76.0873 454.384 75.5342C453.389 74.9746 452.612 74.1775 452.052 73.143C451.499 72.1084 451.208 70.9209 451.181 69.5805V68.7802C451.181 67.3878 451.45 66.1612 451.99 65.1006C452.536 64.0335 453.313 63.2104 454.322 62.6313C455.338 62.0522 456.493 61.7627 457.785 61.7627C459.064 61.7627 460.204 62.049 461.206 62.6216C462.209 63.1942 462.986 64.0108 463.539 65.0714C464.099 66.1255 464.382 67.3357 464.389 68.7021V69.3561ZM460.688 68.7607C460.688 67.3487 460.436 66.2784 459.931 65.5496C459.434 64.8143 458.718 64.4467 457.785 64.4467C455.96 64.4467 454.996 65.7351 454.892 68.3117L454.882 69.3561C454.882 70.7485 455.127 71.8189 455.618 72.5671C456.109 73.3154 456.838 73.6895 457.806 73.6895C458.725 73.6895 459.434 73.3219 459.931 72.5866C460.429 71.8514 460.681 70.794 460.688 69.4146V68.7607Z" fill="white"/>
<path d="M478.624 74.4118C478.064 74.9974 477.245 75.4691 476.167 75.827C475.089 76.1849 473.907 76.3638 472.621 76.3638C470.645 76.3638 469.065 75.7945 467.883 74.6558C466.701 73.5171 466.069 71.9327 465.986 69.9026L465.976 68.6728C465.976 67.2739 466.238 66.0539 466.764 65.0128C467.289 63.9652 468.039 63.1616 469.013 62.6021C469.995 62.036 471.128 61.7529 472.414 61.7529C474.294 61.7529 475.752 62.1596 476.789 62.9729C477.833 63.7798 478.441 64.9868 478.614 66.5939H475.11C474.985 65.8001 474.716 65.234 474.301 64.8957C473.886 64.5573 473.299 64.3882 472.538 64.3882C471.626 64.3882 470.921 64.7525 470.423 65.4813C469.926 66.21 469.673 67.2511 469.667 68.6045V69.4634C469.667 70.8819 469.922 71.949 470.434 72.6647C470.952 73.374 471.764 73.7286 472.87 73.7286C473.817 73.7286 474.522 73.5301 474.985 73.1332V70.9274H472.455V68.5752H478.624V74.4118Z" fill="white"/>
<path d="M493.523 69.3561C493.523 70.742 493.25 71.9685 492.704 73.0356C492.158 74.1027 491.38 74.9258 490.371 75.5049C489.369 76.0775 488.225 76.3638 486.939 76.3638C485.654 76.3638 484.513 76.0873 483.518 75.5342C482.523 74.9746 481.745 74.1775 481.185 73.143C480.632 72.1084 480.342 70.9209 480.314 69.5805V68.7802C480.314 67.3878 480.584 66.1612 481.123 65.1006C481.669 64.0335 482.447 63.2104 483.456 62.6313C484.472 62.0522 485.626 61.7627 486.918 61.7627C488.197 61.7627 489.338 62.049 490.34 62.6216C491.342 63.1942 492.12 64.0108 492.673 65.0714C493.232 66.1255 493.516 67.3357 493.523 68.7021V69.3561ZM489.821 68.7607C489.821 67.3487 489.569 66.2784 489.065 65.5496C488.567 64.8143 487.852 64.4467 486.918 64.4467C485.094 64.4467 484.13 65.7351 484.026 68.3117L484.016 69.3561C484.016 70.7485 484.261 71.8189 484.752 72.5671C485.242 73.3154 485.972 73.6895 486.939 73.6895C487.858 73.6895 488.567 73.3219 489.065 72.5866C489.562 71.8514 489.815 70.794 489.821 69.4146V68.7607Z" fill="white"/>
<path fill-rule="evenodd" clip-rule="evenodd" d="M493.167 61.6224L460.137 33.7314L438.874 61.6224H493.167Z" fill="white"/>
<path fill-rule="evenodd" clip-rule="evenodd" d="M473.216 41.1349L465.505 28.5669L458.477 41.5285L473.216 41.1349Z" fill="white"/>
<path fill-rule="evenodd" clip-rule="evenodd" d="M484.847 49.1121L476.603 34.833L468.359 49.1121H484.847Z" fill="white"/>
<path fill-rule="evenodd" clip-rule="evenodd" d="M496.21 58.0423L487.966 43.7632L479.722 58.0423H496.21Z" fill="white"/>
<circle cx="466.735" cy="314.877" r="40.5858" fill="#7E97C9"/>
<g opacity="0.1">
<path d="M466.735 336.501C459.212 336.501 452.604 332.657 448.715 326.83C448.79 320.868 460.743 317.58 466.735 317.58C472.727 317.58 484.665 320.868 484.755 326.83C480.866 332.657 474.259 336.501 466.735 336.501Z" fill="#F5F8FF"/>
<path d="M466.735 293.853C471.706 293.853 475.745 297.893 475.745 302.863C475.745 307.849 471.706 311.873 466.735 311.873C461.765 311.873 457.725 307.849 457.725 302.863C457.725 297.893 461.765 293.853 466.735 293.853Z" fill="#F5F8FF"/>
</g>
<path d="M263.807 185.813C263.807 188.504 265.986 190.684 268.677 190.684C271.368 190.684 273.547 188.504 273.547 185.813C273.547 183.122 271.368 180.943 268.677 180.943C265.986 180.943 263.807 183.122 263.807 185.813ZM269.651 185.813L267.703 187.761L267.703 183.865L269.651 185.813Z" fill="#EDAC7D"/>
<path d="M129.062 185.813C129.062 188.504 131.241 190.683 133.932 190.683C136.623 190.683 138.803 188.504 138.803 185.813C138.803 183.122 136.623 180.943 133.932 180.943C131.241 180.943 129.062 183.122 129.062 185.813ZM134.906 185.813L132.958 187.761L132.958 183.865L134.906 185.813Z" fill="#FA6C06"/>
<path d="M384.374 153.412C386.408 155.175 389.482 154.955 391.244 152.922C393.007 150.888 392.787 147.814 390.754 146.051C388.72 144.289 385.646 144.509 383.883 146.542C382.121 148.576 382.341 151.65 384.374 153.412ZM388.202 148.996L388.398 151.744L385.454 149.192L388.202 148.996Z" fill="#6C67AB"/>
<path d="M302.768 185.813C302.768 188.504 304.948 190.684 307.638 190.684C310.329 190.684 312.509 188.504 312.509 185.813C312.509 183.122 310.329 180.943 307.638 180.943C304.948 180.943 302.768 183.122 302.768 185.813ZM308.612 185.813L306.664 187.761L306.664 183.865L308.612 185.813Z" fill="#6C67AB"/>
<path d="M168.024 185.813C168.024 188.504 170.204 190.683 172.895 190.683C175.586 190.683 177.765 188.504 177.765 185.813C177.765 183.122 175.586 180.943 172.895 180.943C170.204 180.943 168.024 183.122 168.024 185.813ZM173.869 185.813L171.921 187.761L171.921 183.865L173.869 185.813Z" fill="#EDAC7D"/>
<path d="M432.824 97.3978C434.9 99.1093 437.968 98.8138 439.68 96.7375C441.391 94.6611 441.096 91.5931 439.02 89.8816C436.943 88.17 433.875 88.4655 432.164 90.5419C430.452 92.6182 430.748 95.6863 432.824 97.3978ZM436.541 92.8881L436.805 95.6304L433.799 93.1522L436.541 92.8881Z" fill="#7E97C9"/>
<circle cx="277.605" cy="185.814" r="2.43515" fill="#EDAC7D"/>
<circle cx="142.861" cy="185.814" r="2.43515" fill="#FA6C06"/>
<circle cx="393.413" cy="142.982" r="2.43515" transform="rotate(-49.0858 393.413 142.982)" fill="#6C67AB"/>
<circle cx="406.857" cy="127.559" r="2.43515" transform="rotate(-49.0858 406.857 127.559)" fill="#6C67AB"/>
<circle cx="284.1" cy="185.814" r="1.62343" fill="#EDAC7D"/>
<circle cx="149.354" cy="185.814" r="1.62343" fill="#FA6C06"/>
<circle cx="397.665" cy="138.076" r="1.62343" transform="rotate(-49.0858 397.665 138.076)" fill="#6C67AB"/>
<circle cx="403.277" cy="132.095" r="1.62343" transform="rotate(-49.0858 403.277 132.095)" fill="#6C67AB"/>
<circle cx="410.582" cy="123.166" r="1.62343" transform="rotate(-49.0858 410.582 123.166)" fill="#6C67AB"/>
<circle cx="288.158" cy="185.814" r="0.811715" fill="#EDAC7D"/>
<circle cx="153.414" cy="185.814" r="0.811715" fill="#FA6C06"/>
<circle cx="261.372" cy="185.814" r="0.811715" fill="#EDAC7D"/>
<circle cx="126.627" cy="185.814" r="0.811715" fill="#FA6C06"/>
<circle cx="400.324" cy="135.01" r="0.811715" transform="rotate(-49.0858 400.324 135.01)" fill="#6C67AB"/>
<circle cx="382.78" cy="155.253" r="0.811715" transform="rotate(-49.0858 382.78 155.253)" fill="#6C67AB"/>
<circle cx="288.969" cy="185.814" r="0.811715" fill="#6C67AB"/>
<circle cx="154.226" cy="185.814" r="0.811715" fill="#EDAC7D"/>
<circle cx="314.945" cy="185.814" r="0.811715" fill="#6C67AB"/>
<circle cx="180.199" cy="185.814" r="0.811715" fill="#EDAC7D"/>
<circle cx="424.046" cy="108.047" r="0.811715" transform="rotate(-50.5014 424.046 108.047)" fill="#7E97C9"/>
<circle cx="440.567" cy="88.0027" r="0.811715" transform="rotate(-50.5014 440.567 88.0027)" fill="#7E97C9"/>
<circle cx="293.028" cy="185.814" r="1.62343" fill="#6C67AB"/>
<circle cx="158.284" cy="185.814" r="1.62343" fill="#EDAC7D"/>
<circle cx="426.628" cy="104.917" r="1.62343" transform="rotate(-50.5014 426.628 104.917)" fill="#7E97C9"/>
<circle cx="421.131" cy="110.987" r="1.62343" transform="rotate(-50.5014 421.131 110.987)" fill="#7E97C9"/>
<circle cx="413.824" cy="119.103" r="1.62343" transform="rotate(-50.5014 413.824 119.103)" fill="#7E97C9"/>
<circle cx="298.71" cy="185.814" r="2.43515" fill="#6C67AB"/>
<circle cx="163.965" cy="185.814" r="2.43515" fill="#EDAC7D"/>
<circle cx="430.242" cy="100.529" r="2.43515" transform="rotate(-50.5014 430.242 100.529)" fill="#7E97C9"/>
<circle cx="417.402" cy="115.375" r="2.43515" transform="rotate(-50.5014 417.402 115.375)" fill="#7E97C9"/>
<path d="M444.39 316.435V320.324H441.627V308.862H446.201C447.077 308.862 447.851 309.025 448.523 309.35C449.2 309.67 449.722 310.129 450.09 310.728C450.462 311.321 450.649 311.995 450.649 312.751C450.649 313.869 450.247 314.764 449.444 315.435C448.646 316.102 447.549 316.435 446.153 316.435H444.39ZM444.39 314.302H446.201C446.736 314.302 447.143 314.168 447.421 313.9C447.704 313.633 447.846 313.255 447.846 312.767C447.846 312.231 447.702 311.804 447.413 311.483C447.124 311.163 446.731 311.001 446.232 310.995H444.39V314.302ZM456.018 320.482C454.711 320.482 453.653 320.093 452.845 319.317C452.037 318.535 451.633 317.519 451.633 316.27V316.049C451.633 315.178 451.793 314.409 452.113 313.743C452.438 313.076 452.911 312.562 453.53 312.2C454.149 311.832 454.884 311.649 455.734 311.649C456.931 311.649 457.875 312.021 458.568 312.767C459.261 313.507 459.607 314.541 459.607 315.868V316.9H454.333C454.427 317.377 454.635 317.753 454.955 318.025C455.275 318.298 455.689 318.435 456.199 318.435C457.038 318.435 457.694 318.141 458.167 317.553L459.379 318.986C459.048 319.443 458.579 319.807 457.97 320.08C457.366 320.348 456.716 320.482 456.018 320.482ZM455.718 313.696C454.942 313.696 454.48 314.21 454.333 315.239H457.009V315.034C457.02 314.609 456.912 314.281 456.687 314.05C456.461 313.814 456.138 313.696 455.718 313.696ZM465.834 314.207L464.961 314.144C464.126 314.144 463.591 314.407 463.355 314.932V320.324H460.702V311.806H463.189L463.276 312.901C463.722 312.066 464.344 311.649 465.142 311.649C465.425 311.649 465.672 311.68 465.882 311.743L465.834 314.207ZM471.251 317.931C471.251 317.705 471.133 317.524 470.896 317.388C470.66 317.251 470.211 317.11 469.55 316.963C468.889 316.816 468.343 316.624 467.913 316.388C467.482 316.147 467.154 315.855 466.929 315.514C466.703 315.173 466.59 314.782 466.59 314.341C466.59 313.559 466.913 312.916 467.558 312.412C468.204 311.903 469.049 311.649 470.093 311.649C471.217 311.649 472.119 311.903 472.802 312.412C473.484 312.922 473.825 313.591 473.825 314.42H471.164C471.164 313.738 470.805 313.396 470.086 313.396C469.807 313.396 469.574 313.475 469.385 313.633C469.196 313.785 469.101 313.976 469.101 314.207C469.101 314.444 469.217 314.635 469.448 314.782C469.679 314.929 470.046 315.05 470.55 315.144C471.059 315.239 471.505 315.351 471.888 315.483C473.169 315.924 473.809 316.713 473.809 317.852C473.809 318.629 473.463 319.261 472.77 319.75C472.083 320.238 471.19 320.482 470.093 320.482C469.364 320.482 468.713 320.35 468.141 320.088C467.569 319.826 467.123 319.469 466.803 319.017C466.483 318.566 466.323 318.091 466.323 317.592H468.802C468.813 317.986 468.944 318.275 469.196 318.458C469.448 318.637 469.771 318.726 470.164 318.726C470.526 318.726 470.797 318.653 470.975 318.506C471.159 318.359 471.251 318.167 471.251 317.931ZM474.722 315.987C474.722 315.136 474.888 314.381 475.218 313.719C475.549 313.053 476.024 312.541 476.643 312.184C477.263 311.827 477.989 311.649 478.824 311.649C480.099 311.649 481.104 312.045 481.839 312.838C482.574 313.625 482.941 314.698 482.941 316.057V316.152C482.941 317.48 482.571 318.535 481.831 319.317C481.096 320.093 480.099 320.482 478.84 320.482C477.627 320.482 476.654 320.12 475.919 319.395C475.184 318.666 474.788 317.679 474.73 316.435L474.722 315.987ZM477.375 316.152C477.375 316.939 477.499 317.516 477.745 317.884C477.992 318.251 478.357 318.435 478.84 318.435C479.784 318.435 480.267 317.708 480.288 316.254V315.987C480.288 314.459 479.8 313.696 478.824 313.696C477.937 313.696 477.457 314.354 477.383 315.672L477.375 316.152ZM486.547 311.806L486.633 312.806C487.221 312.035 488.032 311.649 489.066 311.649C489.953 311.649 490.614 311.914 491.05 312.444C491.491 312.974 491.719 313.772 491.735 314.837V320.324H489.074V314.947C489.074 314.517 488.987 314.202 488.814 314.003C488.641 313.798 488.326 313.696 487.869 313.696C487.35 313.696 486.964 313.9 486.712 314.31V320.324H484.059V311.806H486.547Z" fill="white"/>
<path d="M383.563 218.224C385.596 216.462 388.671 216.682 390.433 218.715C392.195 220.749 391.976 223.823 389.942 225.585C387.909 227.348 384.834 227.128 383.072 225.094C381.31 223.061 381.529 219.987 383.563 218.224ZM387.39 222.641L387.587 219.893L384.642 222.445L387.39 222.641Z" fill="#6C67AB"/>
<path d="M432.012 274.238C434.088 272.526 437.156 272.822 438.868 274.898C440.579 276.975 440.284 280.043 438.208 281.754C436.131 283.466 433.063 283.17 431.352 281.094C429.64 279.017 429.936 275.949 432.012 274.238ZM435.729 278.748L435.993 276.005L432.987 278.484L435.729 278.748Z" fill="#7E97C9"/>
<circle r="2.43515" transform="matrix(0.654928 0.755692 0.755692 -0.654928 392.603 228.653)" fill="#6C67AB"/>
<circle r="2.43515" transform="matrix(0.654928 0.755692 0.755692 -0.654928 406.047 244.079)" fill="#6C67AB"/>
<circle r="1.62343" transform="matrix(0.654928 0.755692 0.755692 -0.654928 396.854 233.56)" fill="#6C67AB"/>
<circle r="1.62343" transform="matrix(0.654928 0.755692 0.755692 -0.654928 402.466 239.542)" fill="#6C67AB"/>
<circle r="1.62343" transform="matrix(0.654928 0.755692 0.755692 -0.654928 409.772 248.47)" fill="#6C67AB"/>
<circle r="0.811715" transform="matrix(0.654928 0.755692 0.755692 -0.654928 399.513 236.627)" fill="#6C67AB"/>
<circle r="0.811715" transform="matrix(0.654928 0.755692 0.755692 -0.654928 381.969 216.384)" fill="#6C67AB"/>
<circle r="0.811715" transform="matrix(0.63606 0.77164 0.77164 -0.63606 423.235 263.589)" fill="#7E97C9"/>
<circle r="0.811715" transform="matrix(0.63606 0.77164 0.77164 -0.63606 439.756 283.633)" fill="#7E97C9"/>
<circle r="1.62343" transform="matrix(0.63606 0.77164 0.77164 -0.63606 425.818 266.72)" fill="#7E97C9"/>
<circle r="1.62343" transform="matrix(0.63606 0.77164 0.77164 -0.63606 420.319 260.65)" fill="#7E97C9"/>
<circle r="1.62343" transform="matrix(0.63606 0.77164 0.77164 -0.63606 413.015 252.534)" fill="#7E97C9"/>
<circle r="2.43515" transform="matrix(0.63606 0.77164 0.77164 -0.63606 429.432 271.105)" fill="#7E97C9"/>
<circle r="2.43515" transform="matrix(0.63606 0.77164 0.77164 -0.63606 416.591 256.259)" fill="#7E97C9"/>
<rect x="0.758315" y="1.5005" width="580.483" height="364.567" rx="4.29712" fill="white" fill-opacity="0.3" stroke="#7E97C9" stroke-width="1.51663"/>
</svg>
