<svg width="718" height="430" viewBox="0 0 718 430" fill="none" xmlns="http://www.w3.org/2000/svg">
<mask id="mask0" mask-type="alpha" maskUnits="userSpaceOnUse" x="0" y="0" width="718" height="430">
<rect x="0.940678" y="0.940678" width="716.119" height="428.059" rx="5.33051" fill="white" stroke="#7E97C9" stroke-width="1.88136"/>
</mask>
<g mask="url(#mask0)">
<rect x="-3.39526" y="0.902104" width="722.795" height="427.932" rx="5.33051" fill="white" stroke="#7E97C9" stroke-width="1.88136"/>
<rect x="44.1211" y="95.0986" width="630.879" height="26.8936" rx="3.3617" fill="#F5F8FF"/>
<rect x="44.1211" y="209.397" width="333.929" height="26.8936" rx="3.3617" fill="#F5F8FF"/>
<rect x="44.1211" y="243.014" width="333.929" height="26.8936" rx="3.3617" fill="#F5F8FF"/>
<rect x="43" y="133.199" width="630.879" height="69.4752" rx="3.3617" fill="#F5F8FF"/>
<rect opacity="0.5" x="55.3262" y="101.823" width="210.293" height="13.4468" rx="3.3617" fill="#7E97C9"/>
<rect opacity="0.5" x="210.524" y="155.049" width="106.454" height="25.7731" rx="2.80142" stroke="#7E97C9" stroke-width="1.12057"/>
<rect opacity="0.5" x="378.611" y="155.049" width="106.454" height="25.7731" rx="2.80142" stroke="#7E97C9" stroke-width="1.12057"/>
<rect opacity="0.5" x="509.155" y="154.489" width="56.0284" height="26.8936" rx="3.3617" fill="#FA6C06"/>
<path d="M55.1079 83.0399C54.9503 84.3881 54.4513 85.4299 53.6109 86.1653C52.7763 86.8948 51.6645 87.2596 50.2755 87.2596C48.7697 87.2596 47.5616 86.7197 46.6511 85.64C45.7465 84.5603 45.2942 83.1158 45.2942 81.3065V80.0809C45.2942 78.8962 45.5043 77.8544 45.9245 76.9556C46.3506 76.0568 46.9517 75.3681 47.7279 74.8895C48.5041 74.4051 49.4029 74.1629 50.4243 74.1629C51.7783 74.1629 52.8639 74.5423 53.6809 75.301C54.498 76.0539 54.9737 77.0986 55.1079 78.4351H53.4183C53.2724 77.4196 52.9543 76.6842 52.4641 76.229C51.9797 75.7737 51.2997 75.5461 50.4243 75.5461C49.3504 75.5461 48.5071 75.943 47.8943 76.7367C47.2873 77.5305 46.9838 78.6598 46.9838 80.1247V81.3591C46.9838 82.7423 47.2727 83.8424 47.8505 84.6595C48.4283 85.4766 49.2366 85.8851 50.2755 85.8851C51.2093 85.8851 51.9242 85.675 52.4203 85.2548C52.9222 84.8287 53.2549 84.0905 53.4183 83.0399H55.1079ZM58.776 78.759C59.4939 77.8777 60.4277 77.4371 61.5774 77.4371C63.5793 77.4371 64.589 78.5664 64.6065 80.8251V87.0845H62.9869V80.8163C62.9811 80.1335 62.8235 79.6286 62.5142 79.3018C62.2107 78.9749 61.735 78.8115 61.0872 78.8115C60.5619 78.8115 60.1009 78.9516 59.704 79.2317C59.3071 79.5119 58.9978 79.8796 58.776 80.3348V87.0845H57.1564V73.6377H58.776V78.759ZM66.6025 82.2608C66.6025 81.3328 66.7834 80.4982 67.1453 79.757C67.5129 79.0158 68.0207 78.4438 68.6685 78.0411C69.3222 77.6384 70.0663 77.4371 70.9009 77.4371C72.1907 77.4371 73.2325 77.8836 74.0262 78.7765C74.8258 79.6695 75.2256 80.8572 75.2256 82.3396V82.4534C75.2256 83.3755 75.0476 84.2043 74.6916 84.9396C74.3414 85.6692 73.8366 86.2382 73.1771 86.6468C72.5234 87.0553 71.7705 87.2596 70.9184 87.2596C69.6344 87.2596 68.5927 86.8131 67.7931 85.9201C66.9993 85.0272 66.6025 83.8453 66.6025 82.3746V82.2608ZM68.2308 82.4534C68.2308 83.5039 68.473 84.3473 68.9574 84.9834C69.4477 85.6196 70.1013 85.9376 70.9184 85.9376C71.7413 85.9376 72.395 85.6166 72.8794 84.9747C73.3638 84.3268 73.606 83.4222 73.606 82.2608C73.606 81.2219 73.358 80.3815 72.8619 79.7395C72.3716 79.0917 71.718 78.7678 70.9009 78.7678C70.1013 78.7678 69.4564 79.0858 68.9662 79.722C68.4759 80.3581 68.2308 81.2686 68.2308 82.4534ZM76.8277 82.2608C76.8277 81.3328 77.0086 80.4982 77.3704 79.757C77.7381 79.0158 78.2459 78.4438 78.8937 78.0411C79.5474 77.6384 80.2915 77.4371 81.1261 77.4371C82.4159 77.4371 83.4577 77.8836 84.2514 78.7765C85.051 79.6695 85.4508 80.8572 85.4508 82.3396V82.4534C85.4508 83.3755 85.2728 84.2043 84.9168 84.9396C84.5666 85.6692 84.0617 86.2382 83.4022 86.6468C82.7486 87.0553 81.9957 87.2596 81.1436 87.2596C79.8596 87.2596 78.8178 86.8131 78.0183 85.9201C77.2245 85.0272 76.8277 83.8453 76.8277 82.3746V82.2608ZM78.456 82.4534C78.456 83.5039 78.6982 84.3473 79.1826 84.9834C79.6728 85.6196 80.3265 85.9376 81.1436 85.9376C81.9665 85.9376 82.6202 85.6166 83.1046 84.9747C83.589 84.3268 83.8312 83.4222 83.8312 82.2608C83.8312 81.2219 83.5832 80.3815 83.0871 79.7395C82.5968 79.0917 81.9432 78.7678 81.1261 78.7678C80.3265 78.7678 79.6816 79.0858 79.1914 79.722C78.7011 80.3581 78.456 81.2686 78.456 82.4534ZM92.9971 84.572C92.9971 84.1342 92.8308 83.7957 92.4981 83.5564C92.1713 83.3113 91.5964 83.1012 90.7735 82.9261C89.9564 82.751 89.3056 82.5409 88.8212 82.2958C88.3427 82.0507 87.9866 81.7589 87.7532 81.4204C87.5256 81.0818 87.4118 80.6791 87.4118 80.2122C87.4118 79.436 87.7386 78.7794 88.3923 78.2425C89.0518 77.7056 89.8922 77.4371 90.9135 77.4371C91.9874 77.4371 92.857 77.7143 93.5224 78.2688C94.1935 78.8232 94.5291 79.5323 94.5291 80.3961H92.9008C92.9008 79.9525 92.7111 79.5703 92.3318 79.2493C91.9582 78.9283 91.4855 78.7678 90.9135 78.7678C90.3241 78.7678 89.863 78.8962 89.5303 79.153C89.1977 79.4098 89.0313 79.7453 89.0313 80.1597C89.0313 80.5507 89.186 80.8455 89.4953 81.0439C89.8046 81.2423 90.362 81.432 91.1674 81.613C91.9787 81.7939 92.6352 82.0098 93.1372 82.2608C93.6391 82.5117 94.0097 82.8152 94.249 83.1712C94.4941 83.5214 94.6167 83.9504 94.6167 84.4581C94.6167 85.3044 94.2782 85.9843 93.6011 86.4979C92.9241 87.0057 92.0458 87.2596 90.9661 87.2596C90.2073 87.2596 89.5362 87.1253 88.9525 86.8569C88.3689 86.5884 87.9108 86.2149 87.5781 85.7363C87.2513 85.2519 87.0879 84.7295 87.0879 84.1692H88.7074C88.7366 84.712 88.9525 85.1439 89.3552 85.4649C89.7638 85.7801 90.3007 85.9376 90.9661 85.9376C91.5789 85.9376 92.0691 85.8151 92.4368 85.57C92.8103 85.319 92.9971 84.9863 92.9971 84.572ZM100.657 87.2596C99.3732 87.2596 98.3285 86.8393 97.5231 85.9989C96.7177 85.1527 96.315 84.0233 96.315 82.611V82.3133C96.315 81.3737 96.493 80.5362 96.849 79.8008C97.2109 79.0596 97.7128 78.4818 98.3548 78.0674C99.0026 77.6472 99.703 77.4371 100.456 77.4371C101.687 77.4371 102.644 77.8427 103.327 78.654C104.01 79.4652 104.352 80.6266 104.352 82.1382V82.8123H97.9346C97.9579 83.7461 98.2293 84.5019 98.7488 85.0797C99.274 85.6517 99.9394 85.9376 100.745 85.9376C101.317 85.9376 101.801 85.8209 102.198 85.5875C102.595 85.354 102.942 85.0447 103.24 84.6595L104.229 85.4299C103.435 86.6497 102.245 87.2596 100.657 87.2596ZM100.456 78.7678C99.8022 78.7678 99.2536 79.007 98.81 79.4856C98.3665 79.9584 98.0922 80.6237 97.9871 81.4816H102.732V81.3591C102.685 80.5362 102.464 79.9 102.067 79.4506C101.67 78.9954 101.133 78.7678 100.456 78.7678ZM112.878 75.3185V77.6122H114.647V78.8641H112.878V84.7383C112.878 85.1176 112.957 85.4036 113.115 85.5962C113.272 85.783 113.541 85.8764 113.92 85.8764C114.107 85.8764 114.364 85.8413 114.691 85.7713V87.0845C114.265 87.2012 113.85 87.2596 113.447 87.2596C112.724 87.2596 112.178 87.0407 111.81 86.603C111.443 86.1653 111.259 85.5437 111.259 84.7383V78.8641H109.534V77.6122H111.259V75.3185H112.878ZM118.166 78.759C118.884 77.8777 119.818 77.4371 120.968 77.4371C122.969 77.4371 123.979 78.5664 123.997 80.8251V87.0845H122.377V80.8163C122.371 80.1335 122.214 79.6286 121.904 79.3018C121.601 78.9749 121.125 78.8115 120.477 78.8115C119.952 78.8115 119.491 78.9516 119.094 79.2317C118.697 79.5119 118.388 79.8796 118.166 80.3348V87.0845H116.547V73.6377H118.166V78.759ZM130.352 87.2596C129.068 87.2596 128.024 86.8393 127.218 85.9989C126.413 85.1527 126.01 84.0233 126.01 82.611V82.3133C126.01 81.3737 126.188 80.5362 126.544 79.8008C126.906 79.0596 127.408 78.4818 128.05 78.0674C128.698 77.6472 129.398 77.4371 130.151 77.4371C131.382 77.4371 132.34 77.8427 133.022 78.654C133.705 79.4652 134.047 80.6266 134.047 82.1382V82.8123H127.63C127.653 83.7461 127.924 84.5019 128.444 85.0797C128.969 85.6517 129.634 85.9376 130.44 85.9376C131.012 85.9376 131.496 85.8209 131.893 85.5875C132.29 85.354 132.637 85.0447 132.935 84.6595L133.924 85.4299C133.13 86.6497 131.94 87.2596 130.352 87.2596ZM130.151 78.7678C129.497 78.7678 128.949 79.007 128.505 79.4856C128.062 79.9584 127.787 80.6237 127.682 81.4816H132.427V81.3591C132.38 80.5362 132.159 79.9 131.762 79.4506C131.365 78.9954 130.828 78.7678 130.151 78.7678ZM147.669 83.7578H142.328L141.129 87.0845H139.396L144.263 74.338H145.734L150.61 87.0845H148.885L147.669 83.7578ZM142.836 82.3746H147.17L144.998 76.4128L142.836 82.3746ZM155.871 85.9376C156.449 85.9376 156.954 85.7626 157.386 85.4124C157.818 85.0622 158.057 84.6245 158.104 84.0992H159.636C159.607 84.642 159.42 85.1585 159.076 85.6487C158.731 86.139 158.27 86.53 157.692 86.8218C157.12 87.1137 156.513 87.2596 155.871 87.2596C154.582 87.2596 153.554 86.8306 152.79 85.9727C152.031 85.1089 151.652 83.93 151.652 82.4359V82.1645C151.652 81.2423 151.821 80.4223 152.16 79.7045C152.498 78.9866 152.982 78.4293 153.613 78.0324C154.249 77.6355 154.999 77.4371 155.863 77.4371C156.925 77.4371 157.806 77.7552 158.507 78.3913C159.213 79.0275 159.589 79.8533 159.636 80.8688H158.104C158.057 80.256 157.824 79.7541 157.403 79.3631C156.989 78.9662 156.475 78.7678 155.863 78.7678C155.04 78.7678 154.401 79.0654 153.945 79.6607C153.496 80.2502 153.271 81.1052 153.271 82.2258V82.5322C153.271 83.6236 153.496 84.464 153.945 85.0534C154.395 85.6429 155.037 85.9376 155.871 85.9376ZM165.256 85.9376C165.834 85.9376 166.339 85.7626 166.771 85.4124C167.203 85.0622 167.442 84.6245 167.489 84.0992H169.021C168.991 84.642 168.805 85.1585 168.46 85.6487C168.116 86.139 167.655 86.53 167.077 86.8218C166.505 87.1137 165.898 87.2596 165.256 87.2596C163.966 87.2596 162.939 86.8306 162.175 85.9727C161.416 85.1089 161.037 83.93 161.037 82.4359V82.1645C161.037 81.2423 161.206 80.4223 161.544 79.7045C161.883 78.9866 162.367 78.4293 162.998 78.0324C163.634 77.6355 164.384 77.4371 165.247 77.4371C166.31 77.4371 167.191 77.7552 167.891 78.3913C168.597 79.0275 168.974 79.8533 169.021 80.8688H167.489C167.442 80.256 167.208 79.7541 166.788 79.3631C166.374 78.9662 165.86 78.7678 165.247 78.7678C164.425 78.7678 163.785 79.0654 163.33 79.6607C162.881 80.2502 162.656 81.1052 162.656 82.2258V82.5322C162.656 83.6236 162.881 84.464 163.33 85.0534C163.78 85.6429 164.422 85.9376 165.256 85.9376ZM170.413 82.2608C170.413 81.3328 170.593 80.4982 170.955 79.757C171.323 79.0158 171.831 78.4438 172.479 78.0411C173.132 77.6384 173.876 77.4371 174.711 77.4371C176.001 77.4371 177.043 77.8836 177.836 78.7765C178.636 79.6695 179.036 80.8572 179.036 82.3396V82.4534C179.036 83.3755 178.858 84.2043 178.502 84.9396C178.151 85.6692 177.647 86.2382 176.987 86.6468C176.333 87.0553 175.581 87.2596 174.728 87.2596C173.444 87.2596 172.403 86.8131 171.603 85.9201C170.809 85.0272 170.413 83.8453 170.413 82.3746V82.2608ZM172.041 82.4534C172.041 83.5039 172.283 84.3473 172.767 84.9834C173.258 85.6196 173.911 85.9376 174.728 85.9376C175.551 85.9376 176.205 85.6166 176.689 84.9747C177.174 84.3268 177.416 83.4222 177.416 82.2608C177.416 81.2219 177.168 80.3815 176.672 79.7395C176.182 79.0917 175.528 78.7678 174.711 78.7678C173.911 78.7678 173.266 79.0858 172.776 79.722C172.286 80.3581 172.041 81.2686 172.041 82.4534ZM186.915 86.1477C186.284 86.889 185.359 87.2596 184.139 87.2596C183.13 87.2596 182.359 86.9677 181.828 86.3841C181.303 85.7947 181.038 84.925 181.032 83.7753V77.6122H182.651V83.7315C182.651 85.1673 183.235 85.8851 184.402 85.8851C185.639 85.8851 186.462 85.424 186.871 84.5019V77.6122H188.49V87.0845H186.95L186.915 86.1477ZM192.491 77.6122L192.544 78.8028C193.267 77.8923 194.213 77.4371 195.38 77.4371C197.382 77.4371 198.392 78.5664 198.409 80.8251V87.0845H196.79V80.8163C196.784 80.1335 196.626 79.6286 196.317 79.3018C196.013 78.9749 195.538 78.8115 194.89 78.8115C194.365 78.8115 193.904 78.9516 193.507 79.2317C193.11 79.5119 192.801 79.8796 192.579 80.3348V87.0845H190.959V77.6122H192.491ZM203.049 75.3185V77.6122H204.817V78.8641H203.049V84.7383C203.049 85.1176 203.128 85.4036 203.285 85.5962C203.443 85.783 203.711 85.8764 204.091 85.8764C204.278 85.8764 204.534 85.8413 204.861 85.7713V87.0845C204.435 87.2012 204.021 87.2596 203.618 87.2596C202.894 87.2596 202.349 87.0407 201.981 86.603C201.613 86.1653 201.429 85.5437 201.429 84.7383V78.8641H199.705V77.6122H201.429V75.3185H203.049ZM206.665 86.2353C206.665 85.9552 206.746 85.7217 206.91 85.5349C207.079 85.3482 207.33 85.2548 207.663 85.2548C207.995 85.2548 208.246 85.3482 208.416 85.5349C208.591 85.7217 208.678 85.9552 208.678 86.2353C208.678 86.5038 208.591 86.7285 208.416 86.9094C208.246 87.0903 207.995 87.1808 207.663 87.1808C207.33 87.1808 207.079 87.0903 206.91 86.9094C206.746 86.7285 206.665 86.5038 206.665 86.2353ZM206.673 78.5051C206.673 78.225 206.755 77.9915 206.919 77.8048C207.088 77.618 207.339 77.5246 207.671 77.5246C208.004 77.5246 208.255 77.618 208.424 77.8048C208.599 77.9915 208.687 78.225 208.687 78.5051C208.687 78.7736 208.599 78.9983 208.424 79.1792C208.255 79.3601 208.004 79.4506 207.671 79.4506C207.339 79.4506 207.088 79.3601 206.919 79.1792C206.755 78.9983 206.673 78.7736 206.673 78.5051Z" fill="#7E97C9"/>
<path d="M168.206 167.444H163.525V172.369H162.054V161.216H168.964V162.426H163.525V166.241H168.206V167.444ZM174.311 165.352C174.096 165.317 173.864 165.299 173.614 165.299C172.684 165.299 172.053 165.695 171.722 166.486V172.369H170.304V164.081H171.683L171.706 165.038C172.171 164.298 172.83 163.928 173.682 163.928C173.958 163.928 174.168 163.963 174.311 164.035V165.352ZM175.092 168.148C175.092 167.336 175.25 166.606 175.567 165.958C175.889 165.309 176.333 164.809 176.9 164.456C177.472 164.104 178.123 163.928 178.853 163.928C179.982 163.928 180.893 164.318 181.588 165.1C182.287 165.881 182.637 166.92 182.637 168.217V168.317C182.637 169.124 182.481 169.849 182.17 170.492C181.864 171.131 181.422 171.629 180.845 171.986C180.273 172.344 179.614 172.522 178.868 172.522C177.745 172.522 176.833 172.132 176.134 171.35C175.439 170.569 175.092 169.535 175.092 168.248V168.148ZM176.517 168.317C176.517 169.236 176.729 169.974 177.153 170.531C177.581 171.087 178.153 171.366 178.868 171.366C179.588 171.366 180.16 171.085 180.584 170.523C181.008 169.956 181.22 169.165 181.22 168.148C181.22 167.239 181.003 166.504 180.569 165.942C180.14 165.375 179.568 165.092 178.853 165.092C178.153 165.092 177.589 165.37 177.16 165.927C176.731 166.484 176.517 167.28 176.517 168.317ZM185.747 164.081L185.785 165C186.393 164.285 187.213 163.928 188.244 163.928C189.404 163.928 190.193 164.372 190.611 165.261C190.887 164.862 191.245 164.54 191.684 164.295C192.128 164.05 192.652 163.928 193.254 163.928C195.072 163.928 195.996 164.89 196.027 166.816V172.369H194.61V166.9C194.61 166.307 194.475 165.866 194.204 165.575C193.933 165.278 193.479 165.13 192.84 165.13C192.314 165.13 191.878 165.289 191.531 165.605C191.183 165.917 190.982 166.338 190.925 166.869V172.369H189.501V166.938C189.501 165.733 188.911 165.13 187.731 165.13C186.802 165.13 186.166 165.526 185.824 166.318V172.369H184.407V164.081H185.747ZM198.126 171.626C198.126 171.381 198.197 171.177 198.34 171.013C198.489 170.85 198.708 170.768 198.999 170.768C199.29 170.768 199.51 170.85 199.658 171.013C199.811 171.177 199.888 171.381 199.888 171.626C199.888 171.861 199.811 172.058 199.658 172.216C199.51 172.374 199.29 172.453 198.999 172.453C198.708 172.453 198.489 172.374 198.34 172.216C198.197 172.058 198.126 171.861 198.126 171.626ZM198.134 164.862C198.134 164.617 198.205 164.413 198.348 164.249C198.496 164.086 198.716 164.004 199.007 164.004C199.298 164.004 199.518 164.086 199.666 164.249C199.819 164.413 199.895 164.617 199.895 164.862C199.895 165.097 199.819 165.294 199.666 165.452C199.518 165.61 199.298 165.69 199.007 165.69C198.716 165.69 198.496 165.61 198.348 165.452C198.205 165.294 198.134 165.097 198.134 164.862Z" fill="#7E97C9"/>
<path opacity="0.3" d="M60.4267 222.305C59.1654 221.942 58.2461 221.498 57.6691 220.972C57.0971 220.441 56.8111 219.787 56.8111 219.011C56.8111 218.133 57.161 217.408 57.8606 216.836C58.5653 216.259 59.4794 215.97 60.6029 215.97C61.3689 215.97 62.0507 216.118 62.6482 216.414C63.2508 216.71 63.7155 217.119 64.0423 217.64C64.3742 218.161 64.5402 218.73 64.5402 219.348H63.0618C63.0618 218.674 62.8473 218.145 62.4184 217.762C61.9894 217.374 61.3842 217.18 60.6029 217.18C59.8777 217.18 59.3109 217.341 58.9024 217.663C58.4989 217.98 58.2972 218.421 58.2972 218.988C58.2972 219.443 58.4887 219.828 58.8717 220.145C59.2598 220.456 59.916 220.742 60.8404 221.003C61.7698 221.263 62.495 221.552 63.0158 221.868C63.5418 222.18 63.93 222.545 64.1802 222.964C64.4355 223.382 64.5632 223.875 64.5632 224.442C64.5632 225.346 64.2108 226.071 63.5061 226.618C62.8014 227.159 61.8592 227.43 60.6795 227.43C59.9135 227.43 59.1985 227.284 58.5347 226.993C57.8708 226.697 57.3576 226.293 56.995 225.783C56.6375 225.272 56.4588 224.692 56.4588 224.044H57.9372C57.9372 224.718 58.1849 225.252 58.6802 225.645C59.1807 226.033 59.8471 226.227 60.6795 226.227C61.4557 226.227 62.0507 226.069 62.4643 225.752C62.878 225.435 63.0848 225.004 63.0848 224.457C63.0848 223.911 62.8933 223.49 62.5103 223.194C62.1273 222.892 61.4328 222.596 60.4267 222.305ZM69.6725 227.43C68.549 227.43 67.6349 227.062 66.9302 226.327C66.2254 225.586 65.8731 224.598 65.8731 223.362V223.102C65.8731 222.279 66.0288 221.547 66.3403 220.903C66.657 220.255 67.0961 219.749 67.6579 219.386C68.2247 219.019 68.8375 218.835 69.4963 218.835C70.5738 218.835 71.4113 219.19 72.0088 219.9C72.6063 220.61 72.9051 221.626 72.9051 222.948V223.538H67.2902C67.3106 224.355 67.5481 225.017 68.0026 225.522C68.4622 226.023 69.0444 226.273 69.7491 226.273C70.2496 226.273 70.6734 226.171 71.0207 225.966C71.3679 225.762 71.6718 225.492 71.9322 225.155L72.7978 225.829C72.1033 226.896 71.0615 227.43 69.6725 227.43ZM69.4963 219.999C68.9244 219.999 68.4443 220.209 68.0562 220.627C67.6681 221.041 67.4281 221.623 67.3362 222.374H71.488V222.267C71.4471 221.547 71.253 220.99 70.9058 220.597C70.5585 220.198 70.0887 219.999 69.4963 219.999ZM79.669 227.276C79.5873 227.113 79.5209 226.822 79.4698 226.403C78.811 227.087 78.0246 227.43 77.1105 227.43C76.2934 227.43 75.6219 227.2 75.0959 226.74C74.575 226.275 74.3145 225.688 74.3145 224.978C74.3145 224.115 74.6414 223.446 75.295 222.971C75.9538 222.491 76.8781 222.251 78.068 222.251H79.4468V221.6C79.4468 221.105 79.2987 220.712 79.0025 220.421C78.7063 220.124 78.2697 219.976 77.6927 219.976C77.1871 219.976 76.7632 220.104 76.4211 220.359C76.0789 220.615 75.9078 220.924 75.9078 221.286H74.4831C74.4831 220.872 74.6286 220.474 74.9197 220.091C75.2159 219.703 75.6142 219.397 76.1147 219.172C76.6202 218.947 77.1743 218.835 77.7769 218.835C78.7319 218.835 79.48 219.075 80.0213 219.555C80.5626 220.03 80.8435 220.686 80.8639 221.524V225.338C80.8639 226.099 80.961 226.704 81.155 227.154V227.276H79.669ZM77.3173 226.196C77.7616 226.196 78.1829 226.081 78.5812 225.852C78.9796 225.622 79.2681 225.323 79.4468 224.955V223.255H78.3361C76.5998 223.255 75.7317 223.763 75.7317 224.779C75.7317 225.223 75.8798 225.571 76.1759 225.821C76.4721 226.071 76.8526 226.196 77.3173 226.196ZM87.0916 220.26C86.8771 220.224 86.6448 220.206 86.3946 220.206C85.4651 220.206 84.8344 220.602 84.5025 221.393V227.276H83.0854V218.988H84.4642L84.4872 219.946C84.9519 219.205 85.6107 218.835 86.4635 218.835C86.7393 218.835 86.9486 218.871 87.0916 218.942V220.26ZM91.5728 226.273C92.0784 226.273 92.5201 226.12 92.898 225.813C93.2759 225.507 93.4853 225.124 93.5261 224.664H94.8667C94.8411 225.139 94.6777 225.591 94.3764 226.02C94.0751 226.449 93.6717 226.791 93.1661 227.047C92.6657 227.302 92.1346 227.43 91.5728 227.43C90.4442 227.43 89.5454 227.054 88.8764 226.304C88.2126 225.548 87.8806 224.516 87.8806 223.209V222.971C87.8806 222.165 88.0287 221.447 88.3249 220.819C88.6211 220.191 89.045 219.703 89.5965 219.356C90.1531 219.009 90.8093 218.835 91.5651 218.835C92.4946 218.835 93.2657 219.113 93.8785 219.67C94.4964 220.226 94.8258 220.949 94.8667 221.838H93.5261C93.4853 221.301 93.281 220.862 92.9133 220.52C92.5508 220.173 92.1014 219.999 91.5651 219.999C90.8451 219.999 90.2859 220.26 89.8876 220.781C89.4944 221.296 89.2977 222.044 89.2977 223.025V223.293C89.2977 224.248 89.4944 224.983 89.8876 225.499C90.2808 226.015 90.8425 226.273 91.5728 226.273ZM97.8771 219.992C98.5052 219.22 99.3223 218.835 100.328 218.835C102.08 218.835 102.963 219.823 102.979 221.799V227.276H101.562V221.792C101.557 221.194 101.419 220.752 101.148 220.467C100.882 220.181 100.466 220.038 99.8994 220.038C99.4398 220.038 99.0363 220.16 98.6891 220.405C98.3418 220.65 98.0712 220.972 97.8771 221.37V227.276H96.46V215.51H97.8771V219.992ZM105.131 226.533C105.131 226.288 105.203 226.084 105.346 225.921C105.494 225.757 105.713 225.675 106.004 225.675C106.296 225.675 106.515 225.757 106.663 225.921C106.816 226.084 106.893 226.288 106.893 226.533C106.893 226.768 106.816 226.965 106.663 227.123C106.515 227.281 106.296 227.361 106.004 227.361C105.713 227.361 105.494 227.281 105.346 227.123C105.203 226.965 105.131 226.768 105.131 226.533ZM109.268 226.533C109.268 226.288 109.339 226.084 109.482 225.921C109.63 225.757 109.85 225.675 110.141 225.675C110.432 225.675 110.652 225.757 110.8 225.921C110.953 226.084 111.03 226.288 111.03 226.533C111.03 226.768 110.953 226.965 110.8 227.123C110.652 227.281 110.432 227.361 110.141 227.361C109.85 227.361 109.63 227.281 109.482 227.123C109.339 226.965 109.268 226.768 109.268 226.533ZM113.404 226.533C113.404 226.288 113.476 226.084 113.619 225.921C113.767 225.757 113.986 225.675 114.277 225.675C114.569 225.675 114.788 225.757 114.936 225.921C115.089 226.084 115.166 226.288 115.166 226.533C115.166 226.768 115.089 226.965 114.936 227.123C114.788 227.281 114.569 227.361 114.277 227.361C113.986 227.361 113.767 227.281 113.619 227.123C113.476 226.965 113.404 226.768 113.404 226.533Z" fill="#7E97C9"/>
<path d="M44.1211 301.283H124.802V359.553C124.802 361.409 123.297 362.914 121.44 362.914H47.4828C45.6262 362.914 44.1211 361.409 44.1211 359.553V301.283Z" fill="#F5F8FF"/>
<path opacity="0.6" d="M44.1211 279.993C44.1211 278.136 45.6262 276.631 47.4828 276.631H121.494C123.351 276.631 124.856 278.136 124.856 279.993V302.404H44.1211V279.993Z" fill="#7E97C9"/>
<path d="M74.0776 294.51H72.5992L66.9843 285.916V294.51H65.5059V283.357H66.9843L72.6145 291.99V283.357H74.0776V294.51ZM81.5846 294.51C81.5028 294.347 81.4365 294.056 81.3854 293.637C80.7266 294.321 79.9402 294.663 79.0261 294.663C78.209 294.663 77.5375 294.434 77.0115 293.974C76.4906 293.509 76.2301 292.922 76.2301 292.212C76.2301 291.349 76.557 290.68 77.2106 290.205C77.8694 289.725 78.7937 289.485 79.9836 289.485H81.3624V288.834C81.3624 288.339 81.2143 287.946 80.9181 287.654C80.6219 287.358 80.1853 287.21 79.6082 287.21C79.1027 287.21 78.6788 287.338 78.3367 287.593C77.9945 287.848 77.8234 288.157 77.8234 288.52H76.3986C76.3986 288.106 76.5442 287.708 76.8353 287.325C77.1315 286.937 77.5298 286.631 78.0303 286.406C78.5358 286.181 79.0899 286.069 79.6925 286.069C80.6475 286.069 81.3956 286.309 81.9369 286.789C82.4782 287.264 82.7591 287.92 82.7795 288.757V292.572C82.7795 293.333 82.8766 293.938 83.0706 294.388V294.51H81.5846ZM79.2329 293.43C79.6772 293.43 80.0985 293.315 80.4968 293.085C80.8951 292.856 81.1837 292.557 81.3624 292.189V290.489H80.2517C78.5154 290.489 77.6472 290.997 77.6472 292.013C77.6472 292.457 77.7953 292.805 78.0915 293.055C78.3877 293.305 78.7682 293.43 79.2329 293.43ZM86.3338 286.222L86.3721 287.141C86.9798 286.426 87.7995 286.069 88.831 286.069C89.9903 286.069 90.7793 286.513 91.198 287.402C91.4738 287.003 91.8313 286.682 92.2704 286.436C92.7147 286.191 93.2382 286.069 93.8408 286.069C95.6588 286.069 96.5831 287.031 96.6137 288.957V294.51H95.1966V289.041C95.1966 288.449 95.0613 288.007 94.7906 287.716C94.52 287.42 94.0655 287.271 93.4271 287.271C92.9011 287.271 92.4645 287.43 92.1172 287.746C91.77 288.058 91.5683 288.479 91.5121 289.01V294.51H90.0873V289.079C90.0873 287.874 89.4975 287.271 88.3178 287.271C87.3884 287.271 86.7526 287.667 86.4104 288.459V294.51H84.9933V286.222H86.3338ZM102.198 294.663C101.074 294.663 100.16 294.296 99.4556 293.56C98.7509 292.82 98.3985 291.832 98.3985 290.596V290.335C98.3985 289.513 98.5543 288.78 98.8658 288.137C99.1824 287.488 99.6216 286.983 100.183 286.62C100.75 286.253 101.363 286.069 102.022 286.069C103.099 286.069 103.937 286.424 104.534 287.134C105.132 287.843 105.431 288.86 105.431 290.182V290.772H99.8157C99.8361 291.589 100.074 292.251 100.528 292.756C100.988 293.257 101.57 293.507 102.275 293.507C102.775 293.507 103.199 293.405 103.546 293.2C103.893 292.996 104.197 292.725 104.458 292.388L105.323 293.062C104.629 294.13 103.587 294.663 102.198 294.663ZM102.022 287.233C101.45 287.233 100.97 287.443 100.582 287.861C100.194 288.275 99.9535 288.857 99.8616 289.608H104.013V289.501C103.973 288.78 103.778 288.224 103.431 287.831C103.084 287.432 102.614 287.233 102.022 287.233Z" fill="#F5F8FF"/>
<path d="M127.043 301.283H207.724V359.553C207.724 361.409 206.219 362.914 204.362 362.914H130.405C128.548 362.914 127.043 361.409 127.043 359.553V301.283Z" fill="#F5F8FF"/>
<path opacity="0.6" d="M127.097 279.993C127.097 278.136 128.602 276.631 130.458 276.631H204.47C206.326 276.631 207.832 278.136 207.832 279.993V302.404H127.097V279.993Z" fill="#7E97C9"/>
<path d="M150.008 283.357L153.654 292.457L157.301 283.357H159.208V294.51H157.737V290.167L157.875 285.479L154.214 294.51H153.088L149.434 285.502L149.579 290.167V294.51H148.109V283.357H150.008ZM169.281 284.567H165.696V294.51H164.233V284.567H160.656V283.357H169.281V284.567ZM176.551 290.764H178.098V291.921H176.551V294.51H175.126V291.921H170.047V291.086L175.042 283.357H176.551V290.764ZM171.656 290.764H175.126V285.295L174.957 285.602L171.656 290.764ZM184.31 291.37H182.288L181.675 294.51H180.58L181.193 291.37H179.362V290.32H181.392L181.92 287.608H179.944V286.544H182.127L182.755 283.357H183.851L183.223 286.544H185.245L185.873 283.357H186.976L186.348 286.544H187.911V287.608H186.141L185.613 290.32H187.336V291.37H185.413L184.801 294.51H183.698L184.31 291.37ZM182.487 290.32H184.509L185.038 287.608H183.016L182.487 290.32Z" fill="#F5F8FF"/>
<path d="M209.965 301.283H290.646V359.552C290.646 361.409 289.141 362.914 287.284 362.914H213.327C211.47 362.914 209.965 361.409 209.965 359.552V301.283Z" fill="#F5F8FF"/>
<path opacity="0.6" d="M210.071 279.993C210.071 278.136 211.576 276.631 213.433 276.631H287.444C289.301 276.631 290.806 278.136 290.806 279.993V302.404H210.071V279.993Z" fill="#7E97C9"/>
<path d="M224.433 294.51V283.357H228.079C229.29 283.357 230.199 283.607 230.806 284.107C231.419 284.608 231.726 285.348 231.726 286.329C231.726 286.85 231.577 287.312 231.281 287.715C230.985 288.114 230.582 288.423 230.071 288.642C230.674 288.811 231.148 289.132 231.496 289.607C231.848 290.077 232.024 290.639 232.024 291.293C232.024 292.293 231.7 293.08 231.051 293.652C230.403 294.224 229.486 294.51 228.301 294.51H224.433ZM225.904 289.293V293.307H228.332C229.016 293.307 229.555 293.131 229.948 292.779C230.347 292.421 230.546 291.931 230.546 291.308C230.546 289.965 229.816 289.293 228.355 289.293H225.904ZM225.904 288.114H228.125C228.769 288.114 229.282 287.953 229.665 287.631C230.053 287.309 230.247 286.873 230.247 286.321C230.247 285.708 230.068 285.264 229.711 284.988C229.353 284.707 228.81 284.567 228.079 284.567H225.904V288.114ZM239.102 294.51C239.021 294.346 238.954 294.055 238.903 293.637C238.244 294.321 237.458 294.663 236.544 294.663C235.727 294.663 235.055 294.433 234.529 293.974C234.008 293.509 233.748 292.922 233.748 292.212C233.748 291.349 234.075 290.68 234.728 290.205C235.387 289.725 236.311 289.485 237.501 289.485H238.88V288.834C238.88 288.338 238.732 287.945 238.436 287.654C238.14 287.358 237.703 287.21 237.126 287.21C236.62 287.21 236.196 287.337 235.854 287.593C235.512 287.848 235.341 288.157 235.341 288.52H233.916C233.916 288.106 234.062 287.708 234.353 287.325C234.649 286.936 235.047 286.63 235.548 286.405C236.053 286.181 236.608 286.068 237.21 286.068C238.165 286.068 238.913 286.308 239.455 286.788C239.996 287.263 240.277 287.92 240.297 288.757V292.572C240.297 293.333 240.394 293.938 240.588 294.387V294.51H239.102ZM236.751 293.43C237.195 293.43 237.616 293.315 238.014 293.085C238.413 292.855 238.701 292.556 238.88 292.189V290.488H237.769C236.033 290.488 235.165 290.996 235.165 292.013C235.165 292.457 235.313 292.804 235.609 293.054C235.905 293.305 236.286 293.43 236.751 293.43ZM244.058 294.51H242.641V282.744H244.058V294.51ZM251.45 294.51C251.369 294.346 251.302 294.055 251.251 293.637C250.592 294.321 249.806 294.663 248.892 294.663C248.075 294.663 247.403 294.433 246.877 293.974C246.356 293.509 246.096 292.922 246.096 292.212C246.096 291.349 246.423 290.68 247.076 290.205C247.735 289.725 248.66 289.485 249.849 289.485H251.228V288.834C251.228 288.338 251.08 287.945 250.784 287.654C250.488 287.358 250.051 287.21 249.474 287.21C248.968 287.21 248.545 287.337 248.202 287.593C247.86 287.848 247.689 288.157 247.689 288.52H246.264C246.264 288.106 246.41 287.708 246.701 287.325C246.997 286.936 247.396 286.63 247.896 286.405C248.402 286.181 248.956 286.068 249.558 286.068C250.513 286.068 251.261 286.308 251.803 286.788C252.344 287.263 252.625 287.92 252.645 288.757V292.572C252.645 293.333 252.742 293.938 252.936 294.387V294.51H251.45ZM249.099 293.43C249.543 293.43 249.964 293.315 250.363 293.085C250.761 292.855 251.049 292.556 251.228 292.189V290.488H250.117C248.381 290.488 247.513 290.996 247.513 292.013C247.513 292.457 247.661 292.804 247.957 293.054C248.254 293.305 248.634 293.43 249.099 293.43ZM256.207 286.222L256.253 287.263C256.886 286.467 257.714 286.068 258.735 286.068C260.487 286.068 261.37 287.056 261.386 289.033V294.51H259.968V289.025C259.963 288.428 259.825 287.986 259.555 287.7C259.289 287.414 258.873 287.271 258.306 287.271C257.847 287.271 257.443 287.394 257.096 287.639C256.749 287.884 256.478 288.205 256.284 288.604V294.51H254.867V286.222H256.207ZM266.847 293.506C267.353 293.506 267.795 293.353 268.172 293.047C268.55 292.74 268.76 292.357 268.801 291.898H270.141C270.116 292.373 269.952 292.825 269.651 293.254C269.35 293.682 268.946 294.025 268.441 294.28C267.94 294.535 267.409 294.663 266.847 294.663C265.719 294.663 264.82 294.288 264.151 293.537C263.487 292.781 263.155 291.75 263.155 290.442V290.205C263.155 289.398 263.303 288.68 263.599 288.052C263.896 287.424 264.319 286.936 264.871 286.589C265.428 286.242 266.084 286.068 266.84 286.068C267.769 286.068 268.54 286.347 269.153 286.903C269.771 287.46 270.1 288.182 270.141 289.071H268.801C268.76 288.535 268.555 288.096 268.188 287.754C267.825 287.406 267.376 287.233 266.84 287.233C266.12 287.233 265.56 287.493 265.162 288.014C264.769 288.53 264.572 289.278 264.572 290.258V290.526C264.572 291.481 264.769 292.217 265.162 292.733C265.555 293.248 266.117 293.506 266.847 293.506ZM275.174 294.663C274.05 294.663 273.136 294.295 272.431 293.56C271.727 292.819 271.374 291.831 271.374 290.595V290.335C271.374 289.513 271.53 288.78 271.842 288.137C272.158 287.488 272.597 286.982 273.159 286.62C273.726 286.252 274.339 286.068 274.998 286.068C276.075 286.068 276.913 286.423 277.51 287.133C278.108 287.843 278.406 288.859 278.406 290.182V290.772H272.791C272.812 291.589 273.049 292.25 273.504 292.756C273.963 293.256 274.546 293.506 275.25 293.506C275.751 293.506 276.175 293.404 276.522 293.2C276.869 292.996 277.173 292.725 277.434 292.388L278.299 293.062C277.605 294.129 276.563 294.663 275.174 294.663ZM274.998 287.233C274.426 287.233 273.946 287.442 273.557 287.861C273.169 288.274 272.929 288.857 272.837 289.607H276.989V289.5C276.948 288.78 276.754 288.223 276.407 287.83C276.06 287.432 275.59 287.233 274.998 287.233Z" fill="#F5F8FF"/>
<path d="M292.885 301.283H373.566V359.553C373.566 361.409 372.061 362.914 370.204 362.914H296.246C294.39 362.914 292.885 361.409 292.885 359.553V301.283Z" fill="#F5F8FF"/>
<path opacity="0.6" d="M293.046 279.993C293.046 278.136 294.551 276.631 296.408 276.631H370.419C372.276 276.631 373.781 278.136 373.781 279.993V302.404H293.046V279.993Z" fill="#7E97C9"/>
<path d="M327.982 290.971C327.845 292.15 327.408 293.062 326.673 293.705C325.942 294.344 324.97 294.663 323.754 294.663C322.437 294.663 321.379 294.191 320.583 293.246C319.791 292.301 319.395 291.037 319.395 289.454V288.382C319.395 287.345 319.579 286.433 319.947 285.647C320.32 284.861 320.846 284.258 321.525 283.839C322.204 283.415 322.991 283.203 323.884 283.203C325.069 283.203 326.019 283.535 326.734 284.199C327.449 284.858 327.865 285.772 327.982 286.942H326.504C326.376 286.053 326.098 285.41 325.669 285.011C325.245 284.613 324.65 284.414 323.884 284.414C322.945 284.414 322.207 284.761 321.671 285.455C321.139 286.15 320.874 287.138 320.874 288.42V289.5C320.874 290.71 321.127 291.673 321.632 292.388C322.138 293.103 322.845 293.46 323.754 293.46C324.571 293.46 325.197 293.276 325.631 292.909C326.07 292.536 326.361 291.89 326.504 290.971H327.982ZM338.201 290.971C338.063 292.15 337.627 293.062 336.891 293.705C336.161 294.344 335.188 294.663 333.973 294.663C332.655 294.663 331.598 294.191 330.801 293.246C330.01 292.301 329.614 291.037 329.614 289.454V288.382C329.614 287.345 329.798 286.433 330.166 285.647C330.538 284.861 331.064 284.258 331.744 283.839C332.423 283.415 333.209 283.203 334.103 283.203C335.288 283.203 336.238 283.535 336.953 284.199C337.667 284.858 338.084 285.772 338.201 286.942H336.723C336.595 286.053 336.317 285.41 335.888 285.011C335.464 284.613 334.869 284.414 334.103 284.414C333.163 284.414 332.425 284.761 331.889 285.455C331.358 286.15 331.093 287.138 331.093 288.42V289.5C331.093 290.71 331.345 291.673 331.851 292.388C332.356 293.103 333.064 293.46 333.973 293.46C334.79 293.46 335.415 293.276 335.849 292.909C336.289 292.536 336.58 291.89 336.723 290.971H338.201ZM343.617 288.956L346.528 283.357H348.198L344.352 290.35V294.51H342.881V290.35L339.036 283.357H340.721L343.617 288.956Z" fill="#F5F8FF"/>
<path d="M375.809 301.283H553.979V359.552C553.979 361.409 552.474 362.914 550.617 362.914H379.17C377.314 362.914 375.809 361.409 375.809 359.552V301.283Z" fill="#F5F8FF"/>
<path opacity="0.6" d="M376.023 279.993C376.023 278.136 377.529 276.631 379.385 276.631H550.278C552.135 276.631 553.64 278.136 553.64 279.993V302.404H376.023V279.993Z" fill="#7E97C9"/>
<path d="M404.455 290.971C404.317 292.15 403.881 293.062 403.145 293.705C402.415 294.344 401.442 294.663 400.227 294.663C398.909 294.663 397.852 294.191 397.056 293.246C396.264 292.301 395.868 291.037 395.868 289.454V288.382C395.868 287.345 396.052 286.433 396.42 285.647C396.793 284.861 397.319 284.258 397.998 283.839C398.677 283.415 399.463 283.203 400.357 283.203C401.542 283.203 402.492 283.535 403.207 284.199C403.922 284.858 404.338 285.772 404.455 286.942H402.977C402.849 286.053 402.571 285.41 402.142 285.011C401.718 284.613 401.123 284.414 400.357 284.414C399.417 284.414 398.68 284.761 398.143 285.455C397.612 286.15 397.347 287.138 397.347 288.42V289.5C397.347 290.71 397.599 291.673 398.105 292.388C398.611 293.103 399.318 293.46 400.227 293.46C401.044 293.46 401.67 293.276 402.104 292.909C402.543 292.536 402.834 291.89 402.977 290.971H404.455ZM405.872 290.289C405.872 289.477 406.031 288.747 406.347 288.098C406.669 287.45 407.113 286.949 407.68 286.597C408.252 286.244 408.903 286.068 409.634 286.068C410.762 286.068 411.674 286.459 412.368 287.24C413.068 288.022 413.418 289.061 413.418 290.358V290.458C413.418 291.264 413.262 291.99 412.95 292.633C412.644 293.271 412.202 293.769 411.625 294.127C411.053 294.484 410.394 294.663 409.649 294.663C408.525 294.663 407.614 294.272 406.914 293.491C406.22 292.71 405.872 291.676 405.872 290.389V290.289ZM407.297 290.458C407.297 291.377 407.509 292.115 407.933 292.671C408.362 293.228 408.934 293.506 409.649 293.506C410.369 293.506 410.941 293.225 411.365 292.664C411.789 292.097 412 291.305 412 290.289C412 289.38 411.783 288.645 411.349 288.083C410.92 287.516 410.348 287.233 409.634 287.233C408.934 287.233 408.37 287.511 407.941 288.068C407.512 288.624 407.297 289.421 407.297 290.458ZM416.528 286.222L416.566 287.141C417.174 286.426 417.993 286.068 419.025 286.068C420.184 286.068 420.973 286.513 421.392 287.401C421.668 287.003 422.025 286.681 422.464 286.436C422.909 286.191 423.432 286.068 424.035 286.068C425.853 286.068 426.777 287.031 426.808 288.956V294.51H425.39V289.04C425.39 288.448 425.255 288.006 424.984 287.715C424.714 287.419 424.259 287.271 423.621 287.271C423.095 287.271 422.658 287.429 422.311 287.746C421.964 288.057 421.762 288.479 421.706 289.01V294.51H420.281V289.079C420.281 287.874 419.691 287.271 418.512 287.271C417.582 287.271 416.946 287.667 416.604 288.458V294.51H415.187V286.222H416.528ZM430.285 286.222L430.324 287.141C430.931 286.426 431.751 286.068 432.782 286.068C433.942 286.068 434.731 286.513 435.149 287.401C435.425 287.003 435.783 286.681 436.222 286.436C436.666 286.191 437.19 286.068 437.792 286.068C439.61 286.068 440.534 287.031 440.565 288.956V294.51H439.148V289.04C439.148 288.448 439.013 288.006 438.742 287.715C438.471 287.419 438.017 287.271 437.379 287.271C436.853 287.271 436.416 287.429 436.069 287.746C435.721 288.057 435.52 288.479 435.463 289.01V294.51H434.039V289.079C434.039 287.874 433.449 287.271 432.269 287.271C431.34 287.271 430.704 287.667 430.362 288.458V294.51H428.945V286.222H430.285ZM448.141 294.51H446.724V286.222H448.141V294.51ZM446.609 284.023C446.609 283.793 446.678 283.599 446.816 283.441C446.959 283.283 447.168 283.203 447.444 283.203C447.72 283.203 447.929 283.283 448.072 283.441C448.215 283.599 448.287 283.793 448.287 284.023C448.287 284.253 448.215 284.444 448.072 284.598C447.929 284.751 447.72 284.827 447.444 284.827C447.168 284.827 446.959 284.751 446.816 284.598C446.678 284.444 446.609 284.253 446.609 284.023ZM451.757 286.222L451.803 287.263C452.436 286.467 453.263 286.068 454.284 286.068C456.036 286.068 456.919 287.056 456.935 289.033V294.51H455.518V289.025C455.513 288.428 455.375 287.986 455.104 287.7C454.838 287.414 454.422 287.271 453.855 287.271C453.396 287.271 452.992 287.394 452.645 287.639C452.298 287.884 452.027 288.205 451.833 288.604V294.51H450.416V286.222H451.757ZM462.619 290.297C462.619 289.025 462.92 288.004 463.523 287.233C464.125 286.456 464.914 286.068 465.89 286.068C466.86 286.068 467.628 286.4 468.195 287.064V282.744H469.612V294.51H468.31L468.241 293.621C467.674 294.316 466.885 294.663 465.874 294.663C464.914 294.663 464.13 294.27 463.523 293.483C462.92 292.697 462.619 291.67 462.619 290.404V290.297ZM464.036 290.458C464.036 291.397 464.23 292.133 464.618 292.664C465.006 293.195 465.542 293.46 466.227 293.46C467.125 293.46 467.782 293.057 468.195 292.25V288.443C467.771 287.662 467.12 287.271 466.242 287.271C465.547 287.271 465.006 287.539 464.618 288.075C464.23 288.611 464.036 289.406 464.036 290.458ZM476.935 294.51C476.854 294.346 476.787 294.055 476.736 293.637C476.077 294.321 475.291 294.663 474.377 294.663C473.56 294.663 472.888 294.433 472.362 293.974C471.841 293.509 471.581 292.922 471.581 292.212C471.581 291.349 471.908 290.68 472.561 290.205C473.22 289.725 474.145 289.485 475.334 289.485H476.713V288.834C476.713 288.338 476.565 287.945 476.269 287.654C475.973 287.358 475.536 287.21 474.959 287.21C474.454 287.21 474.03 287.337 473.688 287.593C473.345 287.848 473.174 288.157 473.174 288.52H471.75C471.75 288.106 471.895 287.708 472.186 287.325C472.482 286.936 472.881 286.63 473.381 286.405C473.887 286.181 474.441 286.068 475.043 286.068C475.998 286.068 476.746 286.308 477.288 286.788C477.829 287.263 478.11 287.92 478.13 288.757V292.572C478.13 293.333 478.227 293.938 478.421 294.387V294.51H476.935ZM474.584 293.43C475.028 293.43 475.449 293.315 475.848 293.085C476.246 292.855 476.535 292.556 476.713 292.189V290.488H475.603C473.866 290.488 472.998 290.996 472.998 292.013C472.998 292.457 473.146 292.804 473.442 293.054C473.739 293.305 474.119 293.43 474.584 293.43ZM482.275 284.215V286.222H483.822V287.317H482.275V292.457C482.275 292.789 482.343 293.039 482.481 293.208C482.619 293.371 482.854 293.453 483.186 293.453C483.349 293.453 483.574 293.422 483.86 293.361V294.51C483.487 294.612 483.125 294.663 482.772 294.663C482.139 294.663 481.662 294.471 481.34 294.088C481.018 293.705 480.857 293.162 480.857 292.457V287.317H479.348V286.222H480.857V284.215H482.275ZM488.924 294.663C487.8 294.663 486.886 294.295 486.181 293.56C485.476 292.819 485.124 291.831 485.124 290.595V290.335C485.124 289.513 485.28 288.78 485.591 288.137C485.908 287.488 486.347 286.982 486.909 286.62C487.476 286.252 488.089 286.068 488.747 286.068C489.825 286.068 490.662 286.423 491.26 287.133C491.857 287.843 492.156 288.859 492.156 290.182V290.772H486.541C486.562 291.589 486.799 292.25 487.254 292.756C487.713 293.256 488.295 293.506 489 293.506C489.501 293.506 489.924 293.404 490.272 293.2C490.619 292.996 490.923 292.725 491.183 292.388L492.049 293.062C491.354 294.129 490.313 294.663 488.924 294.663ZM488.747 287.233C488.175 287.233 487.695 287.442 487.307 287.861C486.919 288.274 486.679 288.857 486.587 289.607H490.739V289.5C490.698 288.78 490.504 288.223 490.157 287.83C489.81 287.432 489.34 287.233 488.747 287.233ZM501.701 287.493C501.486 287.457 501.254 287.439 501.004 287.439C500.074 287.439 499.443 287.835 499.111 288.627V294.51H497.694V286.222H499.073L499.096 287.179C499.561 286.439 500.22 286.068 501.072 286.068C501.348 286.068 501.558 286.104 501.701 286.176V287.493ZM507.821 294.51C507.739 294.346 507.673 294.055 507.622 293.637C506.963 294.321 506.177 294.663 505.263 294.663C504.445 294.663 503.774 294.433 503.248 293.974C502.727 293.509 502.467 292.922 502.467 292.212C502.467 291.349 502.793 290.68 503.447 290.205C504.106 289.725 505.03 289.485 506.22 289.485H507.599V288.834C507.599 288.338 507.451 287.945 507.155 287.654C506.858 287.358 506.422 287.21 505.845 287.21C505.339 287.21 504.915 287.337 504.573 287.593C504.231 287.848 504.06 288.157 504.06 288.52H502.635C502.635 288.106 502.781 287.708 503.072 287.325C503.368 286.936 503.766 286.63 504.267 286.405C504.772 286.181 505.326 286.068 505.929 286.068C506.884 286.068 507.632 286.308 508.173 286.788C508.715 287.263 508.996 287.92 509.016 288.757V292.572C509.016 293.333 509.113 293.938 509.307 294.387V294.51H507.821ZM505.469 293.43C505.914 293.43 506.335 293.315 506.733 293.085C507.132 292.855 507.42 292.556 507.599 292.189V290.488H506.488C504.752 290.488 503.884 290.996 503.884 292.013C503.884 292.457 504.032 292.804 504.328 293.054C504.624 293.305 505.005 293.43 505.469 293.43ZM512.578 286.222L512.624 287.263C513.257 286.467 514.084 286.068 515.106 286.068C516.857 286.068 517.741 287.056 517.756 289.033V294.51H516.339V289.025C516.334 288.428 516.196 287.986 515.925 287.7C515.66 287.414 515.244 287.271 514.677 287.271C514.217 287.271 513.814 287.394 513.467 287.639C513.119 287.884 512.849 288.205 512.655 288.604V294.51H511.237V286.222H512.578ZM519.556 290.297C519.556 289.005 519.855 287.978 520.453 287.217C521.05 286.451 521.842 286.068 522.827 286.068C523.838 286.068 524.627 286.426 525.194 287.141L525.263 286.222H526.558V294.311C526.558 295.383 526.239 296.228 525.6 296.846C524.967 297.464 524.114 297.773 523.042 297.773C522.444 297.773 521.86 297.645 521.288 297.39C520.716 297.135 520.279 296.785 519.978 296.341L520.713 295.49C521.321 296.241 522.064 296.616 522.942 296.616C523.632 296.616 524.168 296.422 524.551 296.034C524.939 295.646 525.133 295.1 525.133 294.395V293.682C524.566 294.336 523.792 294.663 522.812 294.663C521.842 294.663 521.055 294.272 520.453 293.491C519.855 292.71 519.556 291.645 519.556 290.297ZM520.981 290.458C520.981 291.392 521.173 292.127 521.556 292.664C521.939 293.195 522.475 293.46 523.164 293.46C524.058 293.46 524.714 293.054 525.133 292.242V288.458C524.699 287.667 524.048 287.271 523.18 287.271C522.49 287.271 521.951 287.539 521.563 288.075C521.175 288.611 520.981 289.406 520.981 290.458ZM532.142 294.663C531.018 294.663 530.104 294.295 529.4 293.56C528.695 292.819 528.343 291.831 528.343 290.595V290.335C528.343 289.513 528.498 288.78 528.81 288.137C529.126 287.488 529.566 286.982 530.127 286.62C530.694 286.252 531.307 286.068 531.966 286.068C533.043 286.068 533.881 286.423 534.478 287.133C535.076 287.843 535.375 288.859 535.375 290.182V290.772H529.76C529.78 291.589 530.018 292.25 530.472 292.756C530.932 293.256 531.514 293.506 532.219 293.506C532.719 293.506 533.143 293.404 533.49 293.2C533.837 292.996 534.141 292.725 534.402 292.388L535.267 293.062C534.573 294.129 533.531 294.663 532.142 294.663ZM531.966 287.233C531.394 287.233 530.914 287.442 530.526 287.861C530.138 288.274 529.898 288.857 529.806 289.607H533.957V289.5C533.917 288.78 533.722 288.223 533.375 287.83C533.028 287.432 532.558 287.233 531.966 287.233Z" fill="#F5F8FF"/>
<path d="M556.219 301.283H673.878V359.553C673.878 361.409 672.373 362.914 670.517 362.914H559.58C557.724 362.914 556.219 361.409 556.219 359.553V301.283Z" fill="#F5F8FF"/>
<path opacity="0.6" d="M555.88 279.993C555.88 278.136 557.385 276.631 559.242 276.631H670.515C672.372 276.631 673.877 278.136 673.877 279.993V302.404H555.88V279.993Z" fill="#7E97C9"/>
<path d="M584.009 290.971C583.871 292.151 583.434 293.062 582.699 293.706C581.969 294.344 580.996 294.663 579.781 294.663C578.463 294.663 577.406 294.191 576.609 293.246C575.818 292.302 575.422 291.038 575.422 289.455V288.382C575.422 287.345 575.606 286.434 575.973 285.647C576.346 284.861 576.872 284.258 577.551 283.84C578.231 283.416 579.017 283.204 579.911 283.204C581.096 283.204 582.045 283.536 582.76 284.2C583.475 284.858 583.891 285.773 584.009 286.942H582.531C582.403 286.053 582.125 285.41 581.696 285.012C581.272 284.613 580.677 284.414 579.911 284.414C578.971 284.414 578.233 284.761 577.697 285.456C577.166 286.15 576.9 287.139 576.9 288.42V289.501C576.9 290.711 577.153 291.673 577.659 292.388C578.164 293.103 578.872 293.461 579.781 293.461C580.598 293.461 581.223 293.277 581.657 292.909C582.096 292.536 582.388 291.89 582.531 290.971H584.009ZM585.426 290.29C585.426 289.478 585.584 288.747 585.901 288.099C586.223 287.45 586.667 286.95 587.234 286.597C587.806 286.245 588.457 286.069 589.187 286.069C590.316 286.069 591.227 286.459 591.922 287.241C592.621 288.022 592.971 289.061 592.971 290.358V290.458C592.971 291.265 592.816 291.99 592.504 292.634C592.198 293.272 591.756 293.77 591.179 294.127C590.607 294.485 589.948 294.663 589.203 294.663C588.079 294.663 587.167 294.273 586.468 293.491C585.773 292.71 585.426 291.676 585.426 290.389V290.29ZM586.851 290.458C586.851 291.377 587.063 292.115 587.487 292.672C587.916 293.228 588.488 293.507 589.203 293.507C589.923 293.507 590.495 293.226 590.918 292.664C591.342 292.097 591.554 291.306 591.554 290.29C591.554 289.381 591.337 288.645 590.903 288.083C590.474 287.517 589.902 287.233 589.187 287.233C588.488 287.233 587.923 287.511 587.494 288.068C587.065 288.625 586.851 289.421 586.851 290.458ZM596.081 286.222L596.12 287.141C596.727 286.426 597.547 286.069 598.579 286.069C599.738 286.069 600.527 286.513 600.945 287.402C601.221 287.003 601.579 286.682 602.018 286.436C602.462 286.191 602.986 286.069 603.588 286.069C605.406 286.069 606.331 287.031 606.361 288.957V294.51H604.944V289.041C604.944 288.449 604.809 288.007 604.538 287.716C604.267 287.42 603.813 287.271 603.175 287.271C602.649 287.271 602.212 287.43 601.865 287.746C601.517 288.058 601.316 288.479 601.26 289.01V294.51H599.835V289.079C599.835 287.874 599.245 287.271 598.065 287.271C597.136 287.271 596.5 287.667 596.158 288.459V294.51H594.741V286.222H596.081ZM609.839 286.222L609.877 287.141C610.485 286.426 611.305 286.069 612.336 286.069C613.495 286.069 614.284 286.513 614.703 287.402C614.979 287.003 615.336 286.682 615.776 286.436C616.22 286.191 616.743 286.069 617.346 286.069C619.164 286.069 620.088 287.031 620.119 288.957V294.51H618.702V289.041C618.702 288.449 618.566 288.007 618.296 287.716C618.025 287.42 617.571 287.271 616.932 287.271C616.406 287.271 615.97 287.43 615.622 287.746C615.275 288.058 615.073 288.479 615.017 289.01V294.51H613.592V289.079C613.592 287.874 613.003 287.271 611.823 287.271C610.893 287.271 610.258 287.667 609.916 288.459V294.51H608.498V286.222H609.839ZM628.078 284.215V286.222H629.625V287.317H628.078V292.457C628.078 292.789 628.147 293.04 628.284 293.208C628.422 293.371 628.657 293.453 628.989 293.453C629.153 293.453 629.377 293.423 629.663 293.361V294.51C629.291 294.612 628.928 294.663 628.576 294.663C627.942 294.663 627.465 294.472 627.143 294.089C626.821 293.706 626.661 293.162 626.661 292.457V287.317H625.152V286.222H626.661V284.215H628.078ZM630.759 290.29C630.759 289.478 630.917 288.747 631.234 288.099C631.555 287.45 632 286.95 632.567 286.597C633.138 286.245 633.79 286.069 634.52 286.069C635.648 286.069 636.56 286.459 637.255 287.241C637.954 288.022 638.304 289.061 638.304 290.358V290.458C638.304 291.265 638.148 291.99 637.837 292.634C637.53 293.272 637.089 293.77 636.511 294.127C635.94 294.485 635.281 294.663 634.535 294.663C633.412 294.663 632.5 294.273 631.8 293.491C631.106 292.71 630.759 291.676 630.759 290.389V290.29ZM632.184 290.458C632.184 291.377 632.395 292.115 632.819 292.672C633.248 293.228 633.82 293.507 634.535 293.507C635.255 293.507 635.827 293.226 636.251 292.664C636.675 292.097 636.887 291.306 636.887 290.29C636.887 289.381 636.67 288.645 636.236 288.083C635.807 287.517 635.235 287.233 634.52 287.233C633.82 287.233 633.256 287.511 632.827 288.068C632.398 288.625 632.184 289.421 632.184 290.458ZM642.004 284.215V286.222H643.551V287.317H642.004V292.457C642.004 292.789 642.073 293.04 642.211 293.208C642.348 293.371 642.583 293.453 642.915 293.453C643.079 293.453 643.303 293.423 643.589 293.361V294.51C643.217 294.612 642.854 294.663 642.502 294.663C641.868 294.663 641.391 294.472 641.069 294.089C640.748 293.706 640.587 293.162 640.587 292.457V287.317H639.078V286.222H640.587V284.215H642.004ZM650.33 294.51C650.249 294.347 650.182 294.056 650.131 293.637C649.472 294.321 648.686 294.663 647.772 294.663C646.955 294.663 646.283 294.434 645.757 293.974C645.236 293.509 644.976 292.922 644.976 292.212C644.976 291.349 645.303 290.68 645.956 290.205C646.615 289.725 647.54 289.485 648.729 289.485H650.108V288.834C650.108 288.339 649.96 287.946 649.664 287.654C649.368 287.358 648.931 287.21 648.354 287.21C647.848 287.21 647.425 287.338 647.082 287.593C646.74 287.848 646.569 288.157 646.569 288.52H645.144C645.144 288.106 645.29 287.708 645.581 287.325C645.877 286.937 646.276 286.631 646.776 286.406C647.282 286.181 647.836 286.069 648.438 286.069C649.393 286.069 650.141 286.309 650.683 286.789C651.224 287.264 651.505 287.92 651.525 288.757V292.572C651.525 293.333 651.622 293.938 651.816 294.388V294.51H650.33ZM647.979 293.43C648.423 293.43 648.844 293.315 649.243 293.085C649.641 292.856 649.929 292.557 650.108 292.189V290.489H648.997C647.261 290.489 646.393 290.997 646.393 292.013C646.393 292.457 646.541 292.805 646.837 293.055C647.134 293.305 647.514 293.43 647.979 293.43ZM655.286 294.51H653.869V282.744H655.286V294.51Z" fill="#F5F8FF"/>
<path d="M360.35 162.426H356.765V172.369H355.302V162.426H351.724V161.216H360.35V162.426ZM360.641 168.148C360.641 167.336 360.799 166.606 361.116 165.958C361.437 165.309 361.882 164.809 362.448 164.456C363.02 164.104 363.672 163.928 364.402 163.928C365.53 163.928 366.442 164.318 367.136 165.1C367.836 165.881 368.186 166.92 368.186 168.217V168.317C368.186 169.124 368.03 169.849 367.719 170.492C367.412 171.131 366.971 171.629 366.393 171.986C365.822 172.344 365.163 172.522 364.417 172.522C363.294 172.522 362.382 172.132 361.682 171.35C360.988 170.569 360.641 169.535 360.641 168.248V168.148ZM362.065 168.317C362.065 169.236 362.277 169.974 362.701 170.531C363.13 171.087 363.702 171.366 364.417 171.366C365.137 171.366 365.709 171.085 366.133 170.523C366.557 169.956 366.769 169.165 366.769 168.148C366.769 167.239 366.552 166.504 366.118 165.942C365.689 165.375 365.117 165.092 364.402 165.092C363.702 165.092 363.138 165.37 362.709 165.927C362.28 166.484 362.065 167.28 362.065 168.317Z" fill="#7E97C9"/>
<path d="M536.879 170.906C536.501 171.447 535.973 171.853 535.293 172.124C534.619 172.39 533.833 172.522 532.934 172.522C532.025 172.522 531.218 172.31 530.513 171.887C529.809 171.458 529.262 170.85 528.874 170.063C528.491 169.277 528.295 168.365 528.284 167.329V166.356C528.284 164.676 528.675 163.374 529.456 162.449C530.243 161.525 531.346 161.063 532.765 161.063C533.93 161.063 534.867 161.362 535.577 161.959C536.287 162.551 536.721 163.394 536.879 164.487H535.408C535.132 163.011 534.254 162.273 532.773 162.273C531.788 162.273 531.039 162.62 530.529 163.315C530.023 164.004 529.768 165.005 529.763 166.318V167.229C529.763 168.48 530.049 169.476 530.621 170.217C531.193 170.952 531.966 171.32 532.942 171.32C533.493 171.32 533.976 171.258 534.389 171.136C534.803 171.013 535.145 170.806 535.416 170.515V168.011H532.834V166.816H536.879V170.906ZM538.74 168.148C538.74 167.336 538.899 166.606 539.215 165.958C539.537 165.309 539.981 164.809 540.548 164.456C541.12 164.104 541.771 163.928 542.502 163.928C543.63 163.928 544.542 164.318 545.236 165.1C545.936 165.881 546.286 166.92 546.286 168.217V168.317C546.286 169.124 546.13 169.849 545.818 170.492C545.512 171.131 545.07 171.629 544.493 171.986C543.921 172.344 543.262 172.522 542.517 172.522C541.393 172.522 540.482 172.132 539.782 171.35C539.088 170.569 538.74 169.535 538.74 168.248V168.148ZM540.165 168.317C540.165 169.236 540.377 169.974 540.801 170.531C541.23 171.087 541.802 171.366 542.517 171.366C543.237 171.366 543.809 171.085 544.233 170.523C544.657 169.956 544.868 169.165 544.868 168.148C544.868 167.239 544.651 166.504 544.217 165.942C543.788 165.375 543.216 165.092 542.502 165.092C541.802 165.092 541.238 165.37 540.809 165.927C540.38 166.484 540.165 167.28 540.165 168.317Z" fill="#F5F8FF"/>
<path d="M662.674 112.468L665.475 115.269L668.277 112.468" stroke="#7E97C9" stroke-width="1.12057"/>
<path d="M662.674 104.624L665.475 101.823L668.277 104.624" stroke="#7E97C9" stroke-width="1.12057"/>
<rect opacity="0.5" x="53.085" y="310.248" width="63.8723" height="13.4468" rx="3.3617" fill="#7E97C9"/>
<rect opacity="0.5" x="134.887" y="310.248" width="63.8723" height="13.4468" rx="3.3617" fill="#7E97C9"/>
<rect opacity="0.5" x="217.809" y="310.248" width="63.8723" height="13.4468" rx="3.3617" fill="#7E97C9"/>
<rect opacity="0.5" x="300.729" y="310.248" width="63.8723" height="13.4468" rx="3.3617" fill="#7E97C9"/>
<rect opacity="0.5" x="391.496" y="310.248" width="144.553" height="13.4468" rx="3.3617" fill="#7E97C9"/>
<rect opacity="0.5" x="569.667" y="310.248" width="91.8865" height="13.4468" rx="3.3617" fill="#7E97C9"/>
<rect opacity="0.5" x="53.085" y="337.142" width="63.8723" height="13.4468" rx="3.3617" fill="#7E97C9"/>
<rect opacity="0.5" x="134.887" y="337.142" width="63.8723" height="13.4468" rx="3.3617" fill="#7E97C9"/>
<rect opacity="0.5" x="217.809" y="337.142" width="63.8723" height="13.4468" rx="3.3617" fill="#7E97C9"/>
<rect opacity="0.5" x="300.729" y="337.142" width="63.8723" height="13.4468" rx="3.3617" fill="#7E97C9"/>
<rect opacity="0.5" x="391.496" y="337.142" width="144.553" height="13.4468" rx="3.3617" fill="#7E97C9"/>
<rect opacity="0.5" x="569.667" y="337.142" width="91.8865" height="13.4468" rx="3.3617" fill="#7E97C9"/>
<rect x="0.940678" y="0.928471" width="716.119" height="428.084" rx="5.33051" fill="white" fill-opacity="0.3" stroke="#7E97C9" stroke-width="1.88136"/>
<path d="M44.6814 283.483C44.6814 281.936 45.9356 280.682 47.4828 280.682H121.494C123.041 280.682 124.296 281.936 124.296 283.483V302.535C124.296 304.081 123.042 305.334 121.496 305.334H47.4811C45.9349 305.334 44.6814 304.081 44.6814 302.535V283.483Z" fill="#F5F8FF" stroke="#7E97C9" stroke-width="1.12057"/>
<path d="M74.0776 298H72.5992L66.9843 289.406V298H65.5059V286.847H66.9843L72.6145 295.48V286.847H74.0776V298ZM81.5846 298C81.5028 297.837 81.4365 297.546 81.3854 297.127C80.7266 297.812 79.9402 298.154 79.0261 298.154C78.209 298.154 77.5375 297.924 77.0115 297.464C76.4906 297 76.2301 296.412 76.2301 295.702C76.2301 294.839 76.557 294.17 77.2106 293.695C77.8694 293.215 78.7937 292.975 79.9836 292.975H81.3624V292.324C81.3624 291.829 81.2143 291.436 80.9181 291.145C80.6219 290.848 80.1853 290.7 79.6082 290.7C79.1027 290.7 78.6788 290.828 78.3367 291.083C77.9945 291.339 77.8234 291.648 77.8234 292.01H76.3986C76.3986 291.597 76.5442 291.198 76.8353 290.815C77.1315 290.427 77.5298 290.121 78.0303 289.896C78.5358 289.671 79.0899 289.559 79.6925 289.559C80.6475 289.559 81.3956 289.799 81.9369 290.279C82.4782 290.754 82.7591 291.41 82.7795 292.248V296.062C82.7795 296.823 82.8766 297.429 83.0706 297.878V298H81.5846ZM79.2329 296.92C79.6772 296.92 80.0985 296.806 80.4968 296.576C80.8951 296.346 81.1837 296.047 81.3624 295.679V293.979H80.2517C78.5154 293.979 77.6472 294.487 77.6472 295.503C77.6472 295.948 77.7953 296.295 78.0915 296.545C78.3877 296.795 78.7682 296.92 79.2329 296.92ZM86.3338 289.712L86.3721 290.631C86.9798 289.916 87.7995 289.559 88.831 289.559C89.9903 289.559 90.7793 290.003 91.198 290.892C91.4738 290.494 91.8313 290.172 92.2704 289.927C92.7147 289.682 93.2382 289.559 93.8408 289.559C95.6588 289.559 96.5831 290.522 96.6137 292.447V298H95.1966V292.531C95.1966 291.939 95.0613 291.497 94.7906 291.206C94.52 290.91 94.0655 290.762 93.4271 290.762C92.9011 290.762 92.4645 290.92 92.1172 291.237C91.77 291.548 91.5683 291.969 91.5121 292.501V298H90.0873V292.569C90.0873 291.364 89.4975 290.762 88.3178 290.762C87.3884 290.762 86.7526 291.157 86.4104 291.949V298H84.9933V289.712H86.3338ZM102.198 298.154C101.074 298.154 100.16 297.786 99.4556 297.051C98.7509 296.31 98.3985 295.322 98.3985 294.086V293.826C98.3985 293.004 98.5543 292.271 98.8658 291.627C99.1824 290.979 99.6216 290.473 100.183 290.111C100.75 289.743 101.363 289.559 102.022 289.559C103.099 289.559 103.937 289.914 104.534 290.624C105.132 291.334 105.431 292.35 105.431 293.673V294.262H99.8157C99.8361 295.079 100.074 295.741 100.528 296.246C100.988 296.747 101.57 296.997 102.275 296.997C102.775 296.997 103.199 296.895 103.546 296.691C103.893 296.486 104.197 296.216 104.458 295.879L105.323 296.553C104.629 297.62 103.587 298.154 102.198 298.154ZM102.022 290.723C101.45 290.723 100.97 290.933 100.582 291.351C100.194 291.765 99.9535 292.347 99.8616 293.098H104.013V292.991C103.973 292.271 103.778 291.714 103.431 291.321C103.084 290.923 102.614 290.723 102.022 290.723Z" fill="#7E97C9"/>
<path d="M127.657 283.483C127.657 281.936 128.911 280.682 130.458 280.682H204.47C206.017 280.682 207.271 281.936 207.271 283.483V302.535C207.271 304.081 206.018 305.334 204.472 305.334H130.457C128.91 305.334 127.657 304.081 127.657 302.535V283.483Z" fill="#F5F8FF" stroke="#7E97C9" stroke-width="1.12057"/>
<path d="M150.008 286.847L153.654 295.948L157.301 286.847H159.208V298H157.737V293.657L157.875 288.969L154.214 298H153.088L149.434 288.992L149.579 293.657V298H148.109V286.847H150.008ZM169.281 288.058H165.696V298H164.233V288.058H160.656V286.847H169.281V288.058ZM176.551 294.255H178.098V295.411H176.551V298H175.126V295.411H170.047V294.576L175.042 286.847H176.551V294.255ZM171.656 294.255H175.126V288.785L174.957 289.092L171.656 294.255ZM184.31 294.86H182.288L181.675 298H180.58L181.193 294.86H179.362V293.81H181.392L181.92 291.099H179.944V290.034H182.127L182.755 286.847H183.851L183.223 290.034H185.245L185.873 286.847H186.976L186.348 290.034H187.911V291.099H186.141L185.613 293.81H187.336V294.86H185.413L184.801 298H183.698L184.31 294.86ZM182.487 293.81H184.509L185.038 291.099H183.016L182.487 293.81Z" fill="#7E97C9"/>
<path d="M210.632 283.483C210.632 281.936 211.886 280.681 213.433 280.681H287.444C288.992 280.681 290.246 281.936 290.246 283.483V302.534C290.246 304.08 288.992 305.334 287.446 305.334H213.431C211.885 305.334 210.632 304.08 210.632 302.534V283.483Z" fill="#F5F8FF" stroke="#7E97C9" stroke-width="1.12057"/>
<path d="M224.433 298V286.847H228.079C229.29 286.847 230.199 287.097 230.806 287.598C231.419 288.098 231.726 288.838 231.726 289.819C231.726 290.34 231.577 290.802 231.281 291.205C230.985 291.604 230.582 291.913 230.071 292.132C230.674 292.301 231.148 292.623 231.496 293.098C231.848 293.567 232.024 294.129 232.024 294.783C232.024 295.784 231.7 296.57 231.051 297.142C230.403 297.714 229.486 298 228.301 298H224.433ZM225.904 292.783V296.797H228.332C229.016 296.797 229.555 296.621 229.948 296.269C230.347 295.911 230.546 295.421 230.546 294.798C230.546 293.455 229.816 292.783 228.355 292.783H225.904ZM225.904 291.604H228.125C228.769 291.604 229.282 291.443 229.665 291.121C230.053 290.799 230.247 290.363 230.247 289.811C230.247 289.199 230.068 288.754 229.711 288.478C229.353 288.198 228.81 288.057 228.079 288.057H225.904V291.604ZM239.102 298C239.021 297.837 238.954 297.545 238.903 297.127C238.244 297.811 237.458 298.153 236.544 298.153C235.727 298.153 235.055 297.923 234.529 297.464C234.008 296.999 233.748 296.412 233.748 295.702C233.748 294.839 234.075 294.17 234.728 293.695C235.387 293.215 236.311 292.975 237.501 292.975H238.88V292.324C238.88 291.828 238.732 291.435 238.436 291.144C238.14 290.848 237.703 290.7 237.126 290.7C236.62 290.7 236.196 290.828 235.854 291.083C235.512 291.338 235.341 291.647 235.341 292.01H233.916C233.916 291.596 234.062 291.198 234.353 290.815C234.649 290.427 235.047 290.12 235.548 289.896C236.053 289.671 236.608 289.559 237.21 289.559C238.165 289.559 238.913 289.799 239.455 290.279C239.996 290.754 240.277 291.41 240.297 292.247V296.062C240.297 296.823 240.394 297.428 240.588 297.877V298H239.102ZM236.751 296.92C237.195 296.92 237.616 296.805 238.014 296.575C238.413 296.345 238.701 296.047 238.88 295.679V293.978H237.769C236.033 293.978 235.165 294.487 235.165 295.503C235.165 295.947 235.313 296.294 235.609 296.545C235.905 296.795 236.286 296.92 236.751 296.92ZM244.058 298H242.641V286.234H244.058V298ZM251.45 298C251.369 297.837 251.302 297.545 251.251 297.127C250.592 297.811 249.806 298.153 248.892 298.153C248.075 298.153 247.403 297.923 246.877 297.464C246.356 296.999 246.096 296.412 246.096 295.702C246.096 294.839 246.423 294.17 247.076 293.695C247.735 293.215 248.66 292.975 249.849 292.975H251.228V292.324C251.228 291.828 251.08 291.435 250.784 291.144C250.488 290.848 250.051 290.7 249.474 290.7C248.968 290.7 248.545 290.828 248.202 291.083C247.86 291.338 247.689 291.647 247.689 292.01H246.264C246.264 291.596 246.41 291.198 246.701 290.815C246.997 290.427 247.396 290.12 247.896 289.896C248.402 289.671 248.956 289.559 249.558 289.559C250.513 289.559 251.261 289.799 251.803 290.279C252.344 290.754 252.625 291.41 252.645 292.247V296.062C252.645 296.823 252.742 297.428 252.936 297.877V298H251.45ZM249.099 296.92C249.543 296.92 249.964 296.805 250.363 296.575C250.761 296.345 251.049 296.047 251.228 295.679V293.978H250.117C248.381 293.978 247.513 294.487 247.513 295.503C247.513 295.947 247.661 296.294 247.957 296.545C248.254 296.795 248.634 296.92 249.099 296.92ZM256.207 289.712L256.253 290.754C256.886 289.957 257.714 289.559 258.735 289.559C260.487 289.559 261.37 290.547 261.386 292.523V298H259.968V292.515C259.963 291.918 259.825 291.476 259.555 291.19C259.289 290.904 258.873 290.761 258.306 290.761C257.847 290.761 257.443 290.884 257.096 291.129C256.749 291.374 256.478 291.696 256.284 292.094V298H254.867V289.712H256.207ZM266.847 296.997C267.353 296.997 267.795 296.843 268.172 296.537C268.55 296.231 268.76 295.848 268.801 295.388H270.141C270.116 295.863 269.952 296.315 269.651 296.744C269.35 297.173 268.946 297.515 268.441 297.77C267.94 298.026 267.409 298.153 266.847 298.153C265.719 298.153 264.82 297.778 264.151 297.027C263.487 296.271 263.155 295.24 263.155 293.932V293.695C263.155 292.888 263.303 292.171 263.599 291.543C263.896 290.914 264.319 290.427 264.871 290.079C265.428 289.732 266.084 289.559 266.84 289.559C267.769 289.559 268.54 289.837 269.153 290.393C269.771 290.95 270.1 291.673 270.141 292.561H268.801C268.76 292.025 268.555 291.586 268.188 291.244C267.825 290.897 267.376 290.723 266.84 290.723C266.12 290.723 265.56 290.983 265.162 291.504C264.769 292.02 264.572 292.768 264.572 293.749V294.017C264.572 294.972 264.769 295.707 265.162 296.223C265.555 296.739 266.117 296.997 266.847 296.997ZM275.174 298.153C274.05 298.153 273.136 297.786 272.431 297.05C271.727 296.31 271.374 295.322 271.374 294.086V293.825C271.374 293.003 271.53 292.27 271.842 291.627C272.158 290.978 272.597 290.473 273.159 290.11C273.726 289.742 274.339 289.559 274.998 289.559C276.075 289.559 276.913 289.913 277.51 290.623C278.108 291.333 278.406 292.349 278.406 293.672V294.262H272.791C272.812 295.079 273.049 295.74 273.504 296.246C273.963 296.746 274.546 296.997 275.25 296.997C275.751 296.997 276.175 296.894 276.522 296.69C276.869 296.486 277.173 296.215 277.434 295.878L278.299 296.552C277.605 297.62 276.563 298.153 275.174 298.153ZM274.998 290.723C274.426 290.723 273.946 290.932 273.557 291.351C273.169 291.765 272.929 292.347 272.837 293.098H276.989V292.99C276.948 292.27 276.754 291.714 276.407 291.32C276.06 290.922 275.59 290.723 274.998 290.723Z" fill="#7E97C9"/>
<path d="M293.606 283.483C293.606 281.936 294.86 280.681 296.408 280.681H370.419C371.966 280.681 373.22 281.936 373.22 283.483V302.534C373.22 304.08 371.967 305.334 370.421 305.334H296.406C294.86 305.334 293.606 304.08 293.606 302.534V283.483Z" fill="#F5F8FF" stroke="#7E97C9" stroke-width="1.12057"/>
<path d="M327.982 294.461C327.845 295.641 327.408 296.552 326.673 297.196C325.942 297.834 324.97 298.153 323.754 298.153C322.437 298.153 321.379 297.681 320.583 296.736C319.791 295.791 319.395 294.527 319.395 292.944V291.872C319.395 290.835 319.579 289.924 319.947 289.137C320.32 288.351 320.846 287.748 321.525 287.329C322.204 286.906 322.991 286.694 323.884 286.694C325.069 286.694 326.019 287.026 326.734 287.689C327.449 288.348 327.865 289.262 327.982 290.432H326.504C326.376 289.543 326.098 288.9 325.669 288.501C325.245 288.103 324.65 287.904 323.884 287.904C322.945 287.904 322.207 288.251 321.671 288.946C321.139 289.64 320.874 290.628 320.874 291.91V292.99C320.874 294.201 321.127 295.163 321.632 295.878C322.138 296.593 322.845 296.951 323.754 296.951C324.571 296.951 325.197 296.767 325.631 296.399C326.07 296.026 326.361 295.38 326.504 294.461H327.982ZM338.201 294.461C338.063 295.641 337.627 296.552 336.891 297.196C336.161 297.834 335.188 298.153 333.973 298.153C332.655 298.153 331.598 297.681 330.801 296.736C330.01 295.791 329.614 294.527 329.614 292.944V291.872C329.614 290.835 329.798 289.924 330.166 289.137C330.538 288.351 331.064 287.748 331.744 287.329C332.423 286.906 333.209 286.694 334.103 286.694C335.288 286.694 336.238 287.026 336.953 287.689C337.667 288.348 338.084 289.262 338.201 290.432H336.723C336.595 289.543 336.317 288.9 335.888 288.501C335.464 288.103 334.869 287.904 334.103 287.904C333.163 287.904 332.425 288.251 331.889 288.946C331.358 289.64 331.093 290.628 331.093 291.91V292.99C331.093 294.201 331.345 295.163 331.851 295.878C332.356 296.593 333.064 296.951 333.973 296.951C334.79 296.951 335.415 296.767 335.849 296.399C336.289 296.026 336.58 295.38 336.723 294.461H338.201ZM343.617 292.446L346.528 286.847H348.198L344.352 293.841V298H342.881V293.841L339.036 286.847H340.721L343.617 292.446Z" fill="#7E97C9"/>
<path d="M376.584 283.483C376.584 281.936 377.838 280.681 379.385 280.681H550.278C551.826 280.681 553.08 281.936 553.08 283.483V302.534C553.08 304.08 551.826 305.334 550.28 305.334H379.383C377.837 305.334 376.584 304.08 376.584 302.534V283.483Z" fill="#F5F8FF" stroke="#7E97C9" stroke-width="1.12057"/>
<path d="M404.455 294.461C404.317 295.641 403.881 296.552 403.145 297.196C402.415 297.834 401.442 298.153 400.227 298.153C398.909 298.153 397.852 297.681 397.056 296.736C396.264 295.791 395.868 294.527 395.868 292.944V291.872C395.868 290.835 396.052 289.924 396.42 289.137C396.793 288.351 397.319 287.748 397.998 287.329C398.677 286.906 399.463 286.694 400.357 286.694C401.542 286.694 402.492 287.026 403.207 287.689C403.922 288.348 404.338 289.262 404.455 290.432H402.977C402.849 289.543 402.571 288.9 402.142 288.501C401.718 288.103 401.123 287.904 400.357 287.904C399.417 287.904 398.68 288.251 398.143 288.946C397.612 289.64 397.347 290.628 397.347 291.91V292.99C397.347 294.201 397.599 295.163 398.105 295.878C398.611 296.593 399.318 296.951 400.227 296.951C401.044 296.951 401.67 296.767 402.104 296.399C402.543 296.026 402.834 295.38 402.977 294.461H404.455ZM405.872 293.779C405.872 292.967 406.031 292.237 406.347 291.588C406.669 290.94 407.113 290.439 407.68 290.087C408.252 289.735 408.903 289.559 409.634 289.559C410.762 289.559 411.674 289.949 412.368 290.731C413.068 291.512 413.418 292.551 413.418 293.848V293.948C413.418 294.755 413.262 295.48 412.95 296.123C412.644 296.762 412.202 297.26 411.625 297.617C411.053 297.974 410.394 298.153 409.649 298.153C408.525 298.153 407.614 297.763 406.914 296.981C406.22 296.2 405.872 295.166 405.872 293.879V293.779ZM407.297 293.948C407.297 294.867 407.509 295.605 407.933 296.162C408.362 296.718 408.934 296.997 409.649 296.997C410.369 296.997 410.941 296.716 411.365 296.154C411.789 295.587 412 294.796 412 293.779C412 292.87 411.783 292.135 411.349 291.573C410.92 291.006 410.348 290.723 409.634 290.723C408.934 290.723 408.37 291.001 407.941 291.558C407.512 292.114 407.297 292.911 407.297 293.948ZM416.528 289.712L416.566 290.631C417.174 289.916 417.993 289.559 419.025 289.559C420.184 289.559 420.973 290.003 421.392 290.891C421.668 290.493 422.025 290.171 422.464 289.926C422.909 289.681 423.432 289.559 424.035 289.559C425.853 289.559 426.777 290.521 426.808 292.446V298H425.39V292.531C425.39 291.938 425.255 291.497 424.984 291.205C424.714 290.909 424.259 290.761 423.621 290.761C423.095 290.761 422.658 290.919 422.311 291.236C421.964 291.548 421.762 291.969 421.706 292.5V298H420.281V292.569C420.281 291.364 419.691 290.761 418.512 290.761C417.582 290.761 416.946 291.157 416.604 291.948V298H415.187V289.712H416.528ZM430.285 289.712L430.324 290.631C430.931 289.916 431.751 289.559 432.782 289.559C433.942 289.559 434.731 290.003 435.149 290.891C435.425 290.493 435.783 290.171 436.222 289.926C436.666 289.681 437.19 289.559 437.792 289.559C439.61 289.559 440.534 290.521 440.565 292.446V298H439.148V292.531C439.148 291.938 439.013 291.497 438.742 291.205C438.471 290.909 438.017 290.761 437.379 290.761C436.853 290.761 436.416 290.919 436.069 291.236C435.721 291.548 435.52 291.969 435.463 292.5V298H434.039V292.569C434.039 291.364 433.449 290.761 432.269 290.761C431.34 290.761 430.704 291.157 430.362 291.948V298H428.945V289.712H430.285ZM448.141 298H446.724V289.712H448.141V298ZM446.609 287.513C446.609 287.283 446.678 287.089 446.816 286.931C446.959 286.773 447.168 286.694 447.444 286.694C447.72 286.694 447.929 286.773 448.072 286.931C448.215 287.089 448.287 287.283 448.287 287.513C448.287 287.743 448.215 287.935 448.072 288.088C447.929 288.241 447.72 288.318 447.444 288.318C447.168 288.318 446.959 288.241 446.816 288.088C446.678 287.935 446.609 287.743 446.609 287.513ZM451.757 289.712L451.803 290.754C452.436 289.957 453.263 289.559 454.284 289.559C456.036 289.559 456.919 290.547 456.935 292.523V298H455.518V292.515C455.513 291.918 455.375 291.476 455.104 291.19C454.838 290.904 454.422 290.761 453.855 290.761C453.396 290.761 452.992 290.884 452.645 291.129C452.298 291.374 452.027 291.696 451.833 292.094V298H450.416V289.712H451.757ZM462.619 293.787C462.619 292.515 462.92 291.494 463.523 290.723C464.125 289.947 464.914 289.559 465.89 289.559C466.86 289.559 467.628 289.89 468.195 290.554V286.234H469.612V298H468.31L468.241 297.111C467.674 297.806 466.885 298.153 465.874 298.153C464.914 298.153 464.13 297.76 463.523 296.974C462.92 296.187 462.619 295.161 462.619 293.894V293.787ZM464.036 293.948C464.036 294.887 464.23 295.623 464.618 296.154C465.006 296.685 465.542 296.951 466.227 296.951C467.125 296.951 467.782 296.547 468.195 295.74V291.933C467.771 291.152 467.12 290.761 466.242 290.761C465.547 290.761 465.006 291.029 464.618 291.565C464.23 292.102 464.036 292.896 464.036 293.948ZM476.935 298C476.854 297.837 476.787 297.545 476.736 297.127C476.077 297.811 475.291 298.153 474.377 298.153C473.56 298.153 472.888 297.923 472.362 297.464C471.841 296.999 471.581 296.412 471.581 295.702C471.581 294.839 471.908 294.17 472.561 293.695C473.22 293.215 474.145 292.975 475.334 292.975H476.713V292.324C476.713 291.828 476.565 291.435 476.269 291.144C475.973 290.848 475.536 290.7 474.959 290.7C474.454 290.7 474.03 290.828 473.688 291.083C473.345 291.338 473.174 291.647 473.174 292.01H471.75C471.75 291.596 471.895 291.198 472.186 290.815C472.482 290.427 472.881 290.12 473.381 289.896C473.887 289.671 474.441 289.559 475.043 289.559C475.998 289.559 476.746 289.799 477.288 290.279C477.829 290.754 478.11 291.41 478.13 292.247V296.062C478.13 296.823 478.227 297.428 478.421 297.877V298H476.935ZM474.584 296.92C475.028 296.92 475.449 296.805 475.848 296.575C476.246 296.345 476.535 296.047 476.713 295.679V293.978H475.603C473.866 293.978 472.998 294.487 472.998 295.503C472.998 295.947 473.146 296.294 473.442 296.545C473.739 296.795 474.119 296.92 474.584 296.92ZM482.275 287.705V289.712H483.822V290.807H482.275V295.947C482.275 296.279 482.343 296.529 482.481 296.698C482.619 296.861 482.854 296.943 483.186 296.943C483.349 296.943 483.574 296.912 483.86 296.851V298C483.487 298.102 483.125 298.153 482.772 298.153C482.139 298.153 481.662 297.962 481.34 297.579C481.018 297.196 480.857 296.652 480.857 295.947V290.807H479.348V289.712H480.857V287.705H482.275ZM488.924 298.153C487.8 298.153 486.886 297.786 486.181 297.05C485.476 296.31 485.124 295.322 485.124 294.086V293.825C485.124 293.003 485.28 292.27 485.591 291.627C485.908 290.978 486.347 290.473 486.909 290.11C487.476 289.742 488.089 289.559 488.747 289.559C489.825 289.559 490.662 289.913 491.26 290.623C491.857 291.333 492.156 292.349 492.156 293.672V294.262H486.541C486.562 295.079 486.799 295.74 487.254 296.246C487.713 296.746 488.295 296.997 489 296.997C489.501 296.997 489.924 296.894 490.272 296.69C490.619 296.486 490.923 296.215 491.183 295.878L492.049 296.552C491.354 297.62 490.313 298.153 488.924 298.153ZM488.747 290.723C488.175 290.723 487.695 290.932 487.307 291.351C486.919 291.765 486.679 292.347 486.587 293.098H490.739V292.99C490.698 292.27 490.504 291.714 490.157 291.32C489.81 290.922 489.34 290.723 488.747 290.723ZM501.701 290.983C501.486 290.948 501.254 290.93 501.004 290.93C500.074 290.93 499.443 291.325 499.111 292.117V298H497.694V289.712H499.073L499.096 290.669C499.561 289.929 500.22 289.559 501.072 289.559C501.348 289.559 501.558 289.594 501.701 289.666V290.983ZM507.821 298C507.739 297.837 507.673 297.545 507.622 297.127C506.963 297.811 506.177 298.153 505.263 298.153C504.445 298.153 503.774 297.923 503.248 297.464C502.727 296.999 502.467 296.412 502.467 295.702C502.467 294.839 502.793 294.17 503.447 293.695C504.106 293.215 505.03 292.975 506.22 292.975H507.599V292.324C507.599 291.828 507.451 291.435 507.155 291.144C506.858 290.848 506.422 290.7 505.845 290.7C505.339 290.7 504.915 290.828 504.573 291.083C504.231 291.338 504.06 291.647 504.06 292.01H502.635C502.635 291.596 502.781 291.198 503.072 290.815C503.368 290.427 503.766 290.12 504.267 289.896C504.772 289.671 505.326 289.559 505.929 289.559C506.884 289.559 507.632 289.799 508.173 290.279C508.715 290.754 508.996 291.41 509.016 292.247V296.062C509.016 296.823 509.113 297.428 509.307 297.877V298H507.821ZM505.469 296.92C505.914 296.92 506.335 296.805 506.733 296.575C507.132 296.345 507.42 296.047 507.599 295.679V293.978H506.488C504.752 293.978 503.884 294.487 503.884 295.503C503.884 295.947 504.032 296.294 504.328 296.545C504.624 296.795 505.005 296.92 505.469 296.92ZM512.578 289.712L512.624 290.754C513.257 289.957 514.084 289.559 515.106 289.559C516.857 289.559 517.741 290.547 517.756 292.523V298H516.339V292.515C516.334 291.918 516.196 291.476 515.925 291.19C515.66 290.904 515.244 290.761 514.677 290.761C514.217 290.761 513.814 290.884 513.467 291.129C513.119 291.374 512.849 291.696 512.655 292.094V298H511.237V289.712H512.578ZM519.556 293.787C519.556 292.495 519.855 291.468 520.453 290.708C521.05 289.942 521.842 289.559 522.827 289.559C523.838 289.559 524.627 289.916 525.194 290.631L525.263 289.712H526.558V297.801C526.558 298.873 526.239 299.718 525.6 300.336C524.967 300.954 524.114 301.263 523.042 301.263C522.444 301.263 521.86 301.136 521.288 300.88C520.716 300.625 520.279 300.275 519.978 299.831L520.713 298.98C521.321 299.731 522.064 300.107 522.942 300.107C523.632 300.107 524.168 299.912 524.551 299.524C524.939 299.136 525.133 298.59 525.133 297.885V297.173C524.566 297.826 523.792 298.153 522.812 298.153C521.842 298.153 521.055 297.763 520.453 296.981C519.855 296.2 519.556 295.135 519.556 293.787ZM520.981 293.948C520.981 294.882 521.173 295.618 521.556 296.154C521.939 296.685 522.475 296.951 523.164 296.951C524.058 296.951 524.714 296.545 525.133 295.733V291.948C524.699 291.157 524.048 290.761 523.18 290.761C522.49 290.761 521.951 291.029 521.563 291.565C521.175 292.102 520.981 292.896 520.981 293.948ZM532.142 298.153C531.018 298.153 530.104 297.786 529.4 297.05C528.695 296.31 528.343 295.322 528.343 294.086V293.825C528.343 293.003 528.498 292.27 528.81 291.627C529.126 290.978 529.566 290.473 530.127 290.11C530.694 289.742 531.307 289.559 531.966 289.559C533.043 289.559 533.881 289.913 534.478 290.623C535.076 291.333 535.375 292.349 535.375 293.672V294.262H529.76C529.78 295.079 530.018 295.74 530.472 296.246C530.932 296.746 531.514 296.997 532.219 296.997C532.719 296.997 533.143 296.894 533.49 296.69C533.837 296.486 534.141 296.215 534.402 295.878L535.267 296.552C534.573 297.62 533.531 298.153 532.142 298.153ZM531.966 290.723C531.394 290.723 530.914 290.932 530.526 291.351C530.138 291.765 529.898 292.347 529.806 293.098H533.957V292.99C533.917 292.27 533.722 291.714 533.375 291.32C533.028 290.922 532.558 290.723 531.966 290.723Z" fill="#7E97C9"/>
<path d="M556.44 283.483C556.44 281.936 557.694 280.682 559.242 280.682H670.515C672.062 280.682 673.317 281.936 673.317 283.483V302.535C673.317 304.081 672.063 305.334 670.517 305.334H559.24C557.694 305.334 556.44 304.081 556.44 302.535V283.483Z" fill="#F5F8FF" stroke="#7E97C9" stroke-width="1.12057"/>
<path d="M584.009 294.462C583.871 295.641 583.434 296.553 582.699 297.196C581.969 297.835 580.996 298.154 579.781 298.154C578.463 298.154 577.406 297.681 576.609 296.737C575.818 295.792 575.422 294.528 575.422 292.945V291.872C575.422 290.836 575.606 289.924 575.973 289.138C576.346 288.351 576.872 287.749 577.551 287.33C578.231 286.906 579.017 286.694 579.911 286.694C581.096 286.694 582.045 287.026 582.76 287.69C583.475 288.349 583.891 289.263 584.009 290.432H582.531C582.403 289.544 582.125 288.9 581.696 288.502C581.272 288.104 580.677 287.904 579.911 287.904C578.971 287.904 578.233 288.252 577.697 288.946C577.166 289.641 576.9 290.629 576.9 291.911V292.991C576.9 294.201 577.153 295.164 577.659 295.879C578.164 296.594 578.872 296.951 579.781 296.951C580.598 296.951 581.223 296.767 581.657 296.4C582.096 296.027 582.388 295.381 582.531 294.462H584.009ZM585.426 293.78C585.426 292.968 585.584 292.238 585.901 291.589C586.223 290.94 586.667 290.44 587.234 290.088C587.806 289.735 588.457 289.559 589.187 289.559C590.316 289.559 591.227 289.95 591.922 290.731C592.621 291.512 592.971 292.552 592.971 293.849V293.948C592.971 294.755 592.816 295.48 592.504 296.124C592.198 296.762 591.756 297.26 591.179 297.617C590.607 297.975 589.948 298.154 589.203 298.154C588.079 298.154 587.167 297.763 586.468 296.982C585.773 296.2 585.426 295.166 585.426 293.879V293.78ZM586.851 293.948C586.851 294.867 587.063 295.605 587.487 296.162C587.916 296.719 588.488 296.997 589.203 296.997C589.923 296.997 590.495 296.716 590.918 296.154C591.342 295.588 591.554 294.796 591.554 293.78C591.554 292.871 591.337 292.135 590.903 291.574C590.474 291.007 589.902 290.723 589.187 290.723C588.488 290.723 587.923 291.002 587.494 291.558C587.065 292.115 586.851 292.912 586.851 293.948ZM596.081 289.712L596.12 290.631C596.727 289.916 597.547 289.559 598.579 289.559C599.738 289.559 600.527 290.003 600.945 290.892C601.221 290.494 601.579 290.172 602.018 289.927C602.462 289.682 602.986 289.559 603.588 289.559C605.406 289.559 606.331 290.522 606.361 292.447V298H604.944V292.531C604.944 291.939 604.809 291.497 604.538 291.206C604.267 290.91 603.813 290.762 603.175 290.762C602.649 290.762 602.212 290.92 601.865 291.237C601.517 291.548 601.316 291.969 601.26 292.501V298H599.835V292.569C599.835 291.364 599.245 290.762 598.065 290.762C597.136 290.762 596.5 291.157 596.158 291.949V298H594.741V289.712H596.081ZM609.839 289.712L609.877 290.631C610.485 289.916 611.305 289.559 612.336 289.559C613.495 289.559 614.284 290.003 614.703 290.892C614.979 290.494 615.336 290.172 615.776 289.927C616.22 289.682 616.743 289.559 617.346 289.559C619.164 289.559 620.088 290.522 620.119 292.447V298H618.702V292.531C618.702 291.939 618.566 291.497 618.296 291.206C618.025 290.91 617.571 290.762 616.932 290.762C616.406 290.762 615.97 290.92 615.622 291.237C615.275 291.548 615.073 291.969 615.017 292.501V298H613.592V292.569C613.592 291.364 613.003 290.762 611.823 290.762C610.893 290.762 610.258 291.157 609.916 291.949V298H608.498V289.712H609.839ZM628.078 287.705V289.712H629.625V290.808H628.078V295.948C628.078 296.28 628.147 296.53 628.284 296.698C628.422 296.862 628.657 296.943 628.989 296.943C629.153 296.943 629.377 296.913 629.663 296.851V298C629.291 298.103 628.928 298.154 628.576 298.154C627.942 298.154 627.465 297.962 627.143 297.579C626.821 297.196 626.661 296.652 626.661 295.948V290.808H625.152V289.712H626.661V287.705H628.078ZM630.759 293.78C630.759 292.968 630.917 292.238 631.234 291.589C631.555 290.94 632 290.44 632.567 290.088C633.138 289.735 633.79 289.559 634.52 289.559C635.648 289.559 636.56 289.95 637.255 290.731C637.954 291.512 638.304 292.552 638.304 293.849V293.948C638.304 294.755 638.148 295.48 637.837 296.124C637.53 296.762 637.089 297.26 636.511 297.617C635.94 297.975 635.281 298.154 634.535 298.154C633.412 298.154 632.5 297.763 631.8 296.982C631.106 296.2 630.759 295.166 630.759 293.879V293.78ZM632.184 293.948C632.184 294.867 632.395 295.605 632.819 296.162C633.248 296.719 633.82 296.997 634.535 296.997C635.255 296.997 635.827 296.716 636.251 296.154C636.675 295.588 636.887 294.796 636.887 293.78C636.887 292.871 636.67 292.135 636.236 291.574C635.807 291.007 635.235 290.723 634.52 290.723C633.82 290.723 633.256 291.002 632.827 291.558C632.398 292.115 632.184 292.912 632.184 293.948ZM642.004 287.705V289.712H643.551V290.808H642.004V295.948C642.004 296.28 642.073 296.53 642.211 296.698C642.348 296.862 642.583 296.943 642.915 296.943C643.079 296.943 643.303 296.913 643.589 296.851V298C643.217 298.103 642.854 298.154 642.502 298.154C641.868 298.154 641.391 297.962 641.069 297.579C640.748 297.196 640.587 296.652 640.587 295.948V290.808H639.078V289.712H640.587V287.705H642.004ZM650.33 298C650.249 297.837 650.182 297.546 650.131 297.127C649.472 297.812 648.686 298.154 647.772 298.154C646.955 298.154 646.283 297.924 645.757 297.464C645.236 297 644.976 296.412 644.976 295.702C644.976 294.839 645.303 294.17 645.956 293.695C646.615 293.215 647.54 292.975 648.729 292.975H650.108V292.324C650.108 291.829 649.96 291.436 649.664 291.145C649.368 290.848 648.931 290.7 648.354 290.7C647.848 290.7 647.425 290.828 647.082 291.083C646.74 291.339 646.569 291.648 646.569 292.01H645.144C645.144 291.597 645.29 291.198 645.581 290.815C645.877 290.427 646.276 290.121 646.776 289.896C647.282 289.671 647.836 289.559 648.438 289.559C649.393 289.559 650.141 289.799 650.683 290.279C651.224 290.754 651.505 291.41 651.525 292.248V296.062C651.525 296.823 651.622 297.429 651.816 297.878V298H650.33ZM647.979 296.92C648.423 296.92 648.844 296.806 649.243 296.576C649.641 296.346 649.929 296.047 650.108 295.679V293.979H648.997C647.261 293.979 646.393 294.487 646.393 295.503C646.393 295.948 646.541 296.295 646.837 296.545C647.134 296.795 647.514 296.92 647.979 296.92ZM655.286 298H653.869V286.235H655.286V298Z" fill="#7E97C9"/>
</g>
</svg>
