<svg width="1166" height="802" viewBox="0 0 1166 802" fill="none" xmlns="http://www.w3.org/2000/svg">
<path opacity="0.5" d="M1093.79 2.33594C1093.78 20.8511 1097.75 62.6542 1093.7 94.9118C1083.78 173.971 1009.43 277.976 933.434 297.892C834.581 323.798 640.144 350.187 525.803 356.668C396.917 363.974 269.199 313.277 135.164 321.569C95.1469 324.045 33.7163 342.294 11.5752 380.161C-8.26825 414.098 4.48369 443.704 34.1389 465.215C58.7515 483.069 78.8388 485.971 102.665 485.365C291.403 480.56 371.93 468.14 527.753 576.455C562.351 600.504 553.047 596.771 577.337 607.375C651.455 639.731 734.569 640.417 808.359 676.273C838.704 691.019 856.495 707.714 879.114 719.172C901.734 730.63 899.394 727.492 921.456 733.565C943.518 739.637 950.946 744.02 989.425 749.536C1038.97 756.638 1126.91 734.669 1157.31 784.542C1161.13 790.819 1162.65 796.576 1163.99 799.584" stroke="#7E97C9" stroke-width="3" stroke-linecap="round" stroke-linejoin="round" stroke-dasharray="5 10"/>
</svg>
