<svg width="694" height="642" viewBox="0 0 694 642" fill="none" xmlns="http://www.w3.org/2000/svg">
<path opacity="0.5" d="M642.5 1.5C644 19.5 652.664 75.2271 650.26 99.9489C644.368 160.538 600.216 240.247 555.091 255.51C496.391 275.364 380.931 295.588 313.034 300.556C236.499 306.155 160.658 267.301 81.0662 273.656C57.3031 275.554 20.8247 289.539 7.67693 318.56C-4.10644 344.569 3.46587 367.258 21.0756 383.744C35.691 397.427 47.6191 399.651 61.7677 399.187C173.843 395.505 221.661 385.986 314.191 468.997C334.736 487.428 329.211 484.567 343.635 492.694C387.648 517.491 437.002 518.017 480.82 545.496C498.839 556.797 509.403 569.592 522.835 578.373C536.267 587.155 534.877 584.75 547.978 589.404C561.079 594.058 565.49 597.416 588.34 601.643C617.762 607.086 669.981 590.25 688.03 628.472C690.302 633.282 691.206 637.694 692 640" stroke="#7E97C9" stroke-width="3" stroke-linecap="round" stroke-linejoin="round" stroke-dasharray="5 10"/>
</svg>
