<svg width="718" height="404" viewBox="0 0 718 404" fill="none" xmlns="http://www.w3.org/2000/svg">
<mask id="mask0" mask-type="alpha" maskUnits="userSpaceOnUse" x="19" y="0" width="699" height="404">
<rect x="20.0439" y="0.520498" width="697.347" height="402.017" rx="2.94949" fill="white" stroke="#7E97C9" stroke-width="1.041"/>
</mask>
<g mask="url(#mask0)">
<path d="M19.5234 5.25499C19.5234 2.35274 21.8762 0 24.7784 0H712.657C715.559 0 717.912 2.35274 717.912 5.25499V397.803C717.912 400.705 715.559 403.058 712.657 403.058H24.7784C21.8762 403.058 19.5234 400.705 19.5234 397.803V5.25499Z" fill="white"/>
<path d="M55.8242 289.376H125.868L143.251 293.977H160.634L176.994 328.743L195.911 336.924H213.805L248.571 299.09L266.977 336.924C273.112 336.924 285.996 336.924 288.45 336.924C290.904 336.924 308.219 340.332 316.57 342.036L337.02 360.442L356.448 342.036L372.809 293.977L389.68 281.196L424.958 336.924L443.875 318.007L459.724 289.376L470.46 256.655L478.129 236.204L495.512 225.468L513.407 204.506" stroke="#7E97C9" stroke-width="3.06759"/>
<path opacity="0.1" d="M57.3584 234.67H515.452M57.3584 282.218H515.452M515.452 328.743H57.3584M57.3584 368.622H493.979M515.452 368.622H493.979M493.979 368.622V191.724" stroke="#7E97C9" stroke-width="1.02253"/>
<path opacity="0.7" d="M65.5381 402.366C65.5381 402.366 156.032 396.231 169.836 402.366C183.64 408.501 224.03 418.727 239.368 408.501C254.706 398.276 258.796 406.456 273.112 412.591C287.427 418.727 312.479 406.456 324.75 412.591C330.885 415.659 335.87 418.215 340.727 418.727H344.158C347.866 418.314 351.64 416.497 355.937 412.591C367.185 402.366 388.146 398.276 406.041 408.501C423.935 418.727 452.566 408.501 454.1 402.366C455.633 396.231 502.159 390.096 502.159 390.096V418.727H344.158C343.013 418.854 341.873 418.847 340.727 418.727H65.5381V402.366Z" fill="#7E97C9"/>
<rect opacity="0.4" x="42.0205" y="58.2842" width="314.939" height="30.6759" rx="15.338" fill="#7E97C9"/>
<path d="M21.5684 2.15048C21.5684 0.962803 22.9802 0 24.7217 0H713.21C715.242 0 716.889 1.12327 716.889 2.50889V34.766H21.5684V2.15048Z" fill="#F5F8FF"/>
<path d="M42.0205 17.2913C42.0205 13.9537 44.7262 11.248 48.0637 11.248C51.4013 11.248 54.107 13.9537 54.107 17.2913C54.107 20.6289 51.4013 23.3345 48.0637 23.3345C44.7262 23.3345 42.0205 20.6289 42.0205 17.2913Z" fill="#BAC7E4"/>
<path d="M63.0391 17.2913C63.0391 13.9537 65.7447 11.248 69.0823 11.248C72.4199 11.248 75.1255 13.9537 75.1255 17.2913C75.1255 20.6289 72.4199 23.3345 69.0823 23.3345C65.7447 23.3345 63.0391 20.6289 63.0391 17.2913Z" fill="#BAC7E4"/>
<path d="M84.0576 17.2913C84.0576 13.9537 86.7633 11.248 90.1009 11.248C93.4384 11.248 96.1441 13.9537 96.1441 17.2913C96.1441 20.6289 93.4384 23.3345 90.1009 23.3345C86.7633 23.3345 84.0576 20.6289 84.0576 17.2913Z" fill="#BAC7E4"/>
<rect opacity="0.6" x="42.0205" y="98.1631" width="486.724" height="32.721" fill="#7E97C9"/>
<rect opacity="0.1" x="42.0205" y="131.906" width="486.724" height="32.721" fill="#7E97C9"/>
<rect opacity="0.1" x="42.0205" y="165.65" width="486.724" height="26.5858" fill="#7E97C9"/>
<rect opacity="0.1" x="42.0205" y="193.259" width="486.724" height="238.25" fill="#7E97C9"/>
<rect opacity="0.8" x="537.946" y="178.943" width="81.8024" height="37.8336" fill="#7E97C9"/>
<rect opacity="0.8" x="562.488" y="119.636" width="114.523" height="21.4731" rx="10.7366" fill="#FA6C06"/>
<rect opacity="0.3" x="620.771" y="178.943" width="81.8024" height="37.8336" fill="#7E97C9"/>
<rect opacity="0.8" x="537.946" y="217.799" width="81.8024" height="37.8336" fill="#7E97C9"/>
<rect opacity="0.3" x="620.771" y="217.799" width="81.8024" height="37.8336" fill="#7E97C9"/>
<rect opacity="0.8" x="537.946" y="256.655" width="81.8024" height="37.8336" fill="#7E97C9"/>
<rect opacity="0.3" x="620.771" y="256.655" width="81.8024" height="37.8336" fill="#7E97C9"/>
<rect opacity="0.8" x="537.946" y="295.512" width="81.8024" height="37.8336" fill="#7E97C9"/>
<rect opacity="0.3" x="620.771" y="295.512" width="81.8024" height="37.8336" fill="#7E97C9"/>
<path opacity="0.3" d="M19.5234 5.25499C19.5234 2.35274 21.8762 0 24.7784 0H712.657C715.559 0 717.912 2.35274 717.912 5.25499V397.803C717.912 400.705 715.559 403.058 712.657 403.058H24.7784C21.8762 403.058 19.5234 400.705 19.5234 397.803V5.25499Z" fill="white"/>
<path fill-rule="evenodd" clip-rule="evenodd" d="M712.657 1.5765H24.7784C22.7469 1.5765 21.0999 3.22341 21.0999 5.25499V397.803C21.0999 399.834 22.7468 401.481 24.7784 401.481H712.657C714.688 401.481 716.335 399.834 716.335 397.803V5.25499C716.335 3.22341 714.688 1.5765 712.657 1.5765ZM24.7784 0C21.8762 0 19.5234 2.35274 19.5234 5.25499V397.803C19.5234 400.705 21.8762 403.058 24.7784 403.058H712.657C715.559 403.058 717.912 400.705 717.912 397.803V5.25499C717.912 2.35274 715.559 0 712.657 0H24.7784Z" fill="#7E97C9"/>
<rect x="81.3863" y="67.9982" width="281.752" height="33.7435" rx="5.62392" fill="#F5F8FF" stroke="#7E97C9" stroke-width="3.06759"/>
<path d="M94.6884 90.5322H92.2919V78.9009H94.6884V90.5322ZM98.8904 81.8886L98.9623 82.8872C99.58 82.115 100.408 81.7289 101.447 81.7289C102.363 81.7289 103.044 81.9978 103.492 82.5357C103.939 83.0736 104.168 83.8778 104.179 84.9483V90.5322H101.87V85.0042C101.87 84.5142 101.764 84.1601 101.551 83.9417C101.338 83.718 100.983 83.6062 100.488 83.6062C99.8383 83.6062 99.351 83.8831 99.0262 84.437V90.5322H96.7175V81.8886H98.8904ZM109.172 87.7123L110.777 81.8886H113.19L110.274 90.5322H108.069L105.153 81.8886H107.566L109.172 87.7123ZM118.079 90.692C116.811 90.692 115.778 90.3032 114.979 89.5257C114.186 88.7481 113.789 87.7123 113.789 86.4181V86.1945C113.789 85.3264 113.957 84.5515 114.292 83.8698C114.628 83.1828 115.102 82.6555 115.714 82.2881C116.332 81.9153 117.035 81.7289 117.823 81.7289C119.005 81.7289 119.935 82.1017 120.611 82.8473C121.293 83.5929 121.634 84.65 121.634 86.0187V86.9614H116.13C116.204 87.5259 116.428 87.9786 116.801 88.3194C117.179 88.6603 117.655 88.8307 118.231 88.8307C119.12 88.8307 119.815 88.5085 120.316 87.8641L121.45 89.1342C121.104 89.6242 120.635 90.0076 120.044 90.2846C119.453 90.5562 118.798 90.692 118.079 90.692ZM117.815 83.5982C117.357 83.5982 116.984 83.7526 116.697 84.0615C116.415 84.3704 116.233 84.8124 116.154 85.3876H119.365V85.2039C119.354 84.6926 119.216 84.2985 118.95 84.0216C118.683 83.7393 118.305 83.5982 117.815 83.5982ZM127.633 88.1437C127.633 87.8614 127.492 87.6404 127.21 87.4806C126.933 87.3155 126.485 87.1691 125.868 87.0412C123.812 86.6099 122.784 85.7365 122.784 84.421C122.784 83.6541 123.101 83.015 123.735 82.5038C124.374 81.9872 125.207 81.7289 126.235 81.7289C127.332 81.7289 128.208 81.9872 128.863 82.5038C129.524 83.0204 129.854 83.6914 129.854 84.5169H127.545C127.545 84.1867 127.439 83.9151 127.226 83.702C127.013 83.4837 126.68 83.3745 126.227 83.3745C125.838 83.3745 125.537 83.4624 125.324 83.6381C125.111 83.8139 125.005 84.0376 125.005 84.3092C125.005 84.5648 125.125 84.7725 125.364 84.9323C125.609 85.0867 126.019 85.2225 126.595 85.3397C127.17 85.4515 127.654 85.5793 128.048 85.7231C129.268 86.1705 129.878 86.9454 129.878 88.0478C129.878 88.836 129.54 89.4751 128.863 89.965C128.187 90.4497 127.314 90.692 126.243 90.692C125.519 90.692 124.874 90.5642 124.31 90.3085C123.751 90.0476 123.311 89.6934 122.992 89.2461C122.672 88.7934 122.512 88.3061 122.512 87.7842H124.701C124.723 88.1943 124.874 88.5085 125.157 88.7268C125.439 88.9452 125.817 89.0544 126.291 89.0544C126.733 89.0544 127.066 88.9718 127.29 88.8067C127.519 88.6363 127.633 88.4153 127.633 88.1437ZM134.136 79.7637V81.8886H135.614V83.5822H134.136V87.896C134.136 88.2156 134.197 88.4446 134.319 88.583C134.442 88.7215 134.676 88.7907 135.022 88.7907C135.278 88.7907 135.504 88.7721 135.701 88.7348V90.4843C135.249 90.6228 134.783 90.692 134.303 90.692C132.684 90.692 131.859 89.8745 131.827 88.2395V83.5822H130.565V81.8886H131.827V79.7637H134.136ZM150.185 87.177L151.75 78.9009H154.139L151.559 90.5322H149.146L147.253 82.7514L145.36 90.5322H142.947L140.367 78.9009H142.755L144.329 87.1611L146.246 78.9009H148.275L150.185 87.177ZM157.726 90.5322H155.409V81.8886H157.726V90.5322ZM155.273 79.6519C155.273 79.3057 155.388 79.0208 155.617 78.7971C155.851 78.5734 156.168 78.4616 156.567 78.4616C156.962 78.4616 157.276 78.5734 157.51 78.7971C157.744 79.0208 157.862 79.3057 157.862 79.6519C157.862 80.0034 157.742 80.2909 157.502 80.5146C157.268 80.7383 156.956 80.8501 156.567 80.8501C156.179 80.8501 155.864 80.7383 155.625 80.5146C155.391 80.2909 155.273 80.0034 155.273 79.6519ZM162.399 79.7637V81.8886H163.877V83.5822H162.399V87.896C162.399 88.2156 162.46 88.4446 162.583 88.583C162.705 88.7215 162.94 88.7907 163.286 88.7907C163.541 88.7907 163.768 88.7721 163.965 88.7348V90.4843C163.512 90.6228 163.046 90.692 162.567 90.692C160.948 90.692 160.122 89.8745 160.09 88.2395V83.5822H158.828V81.8886H160.09V79.7637H162.399ZM167.416 82.8313C168.028 82.0963 168.798 81.7289 169.725 81.7289C171.599 81.7289 172.55 82.818 172.576 84.9962V90.5322H170.268V85.0601C170.268 84.5648 170.161 84.2 169.948 83.9657C169.735 83.726 169.381 83.6062 168.886 83.6062C168.209 83.6062 167.719 83.8671 167.416 84.3891V90.5322H165.107V78.2619H167.416V82.8313ZM185.11 88.1357H180.909L180.11 90.5322H177.561L181.891 78.9009H184.112L188.466 90.5322H185.917L185.11 88.1357ZM181.556 86.1945H184.463L183.001 81.8407L181.556 86.1945ZM196.758 78.9009L199.745 87.3368L202.717 78.9009H205.865V90.5322H203.46V87.3528L203.7 81.8647L200.56 90.5322H198.915L195.783 81.8727L196.023 87.3528V90.5322H193.626V78.9009H196.758ZM207.446 86.1306C207.446 85.2731 207.611 84.5089 207.942 83.8378C208.272 83.1668 208.746 82.6476 209.364 82.2801C209.987 81.9126 210.708 81.7289 211.529 81.7289C212.695 81.7289 213.645 82.0857 214.38 82.7993C215.121 83.513 215.533 84.4823 215.619 85.7072L215.635 86.2983C215.635 87.6244 215.264 88.6895 214.524 89.4937C213.784 90.2926 212.791 90.692 211.544 90.692C210.298 90.692 209.302 90.2926 208.557 89.4937C207.817 88.6949 207.446 87.6084 207.446 86.2344V86.1306ZM209.755 86.2983C209.755 87.1185 209.909 87.7469 210.218 88.1836C210.527 88.615 210.969 88.8307 211.544 88.8307C212.104 88.8307 212.54 88.6176 212.855 88.1916C213.169 87.7602 213.326 87.0732 213.326 86.1306C213.326 85.3264 213.169 84.7033 212.855 84.2612C212.54 83.8192 212.098 83.5982 211.529 83.5982C210.964 83.5982 210.527 83.8192 210.218 84.2612C209.909 84.6979 209.755 85.377 209.755 86.2983ZM219.182 81.8886L219.253 82.8872C219.871 82.115 220.699 81.7289 221.738 81.7289C222.654 81.7289 223.336 81.9978 223.783 82.5357C224.23 83.0736 224.459 83.8778 224.47 84.9483V90.5322H222.161V85.0042C222.161 84.5142 222.055 84.1601 221.842 83.9417C221.629 83.718 221.274 83.6062 220.779 83.6062C220.129 83.6062 219.642 83.8831 219.317 84.437V90.5322H217.009V81.8886H219.182ZM230.206 90.692C228.938 90.692 227.905 90.3032 227.106 89.5257C226.313 88.7481 225.916 87.7123 225.916 86.4181V86.1945C225.916 85.3264 226.084 84.5515 226.419 83.8698C226.755 83.1828 227.229 82.6555 227.841 82.2881C228.459 81.9153 229.162 81.7289 229.95 81.7289C231.132 81.7289 232.062 82.1017 232.738 82.8473C233.42 83.5929 233.761 84.65 233.761 86.0187V86.9614H228.256C228.331 87.5259 228.555 87.9786 228.927 88.3194C229.306 88.6603 229.782 88.8307 230.357 88.8307C231.247 88.8307 231.942 88.5085 232.442 87.8641L233.577 89.1342C233.231 89.6242 232.762 90.0076 232.171 90.2846C231.58 90.5562 230.925 90.692 230.206 90.692ZM229.942 83.5982C229.484 83.5982 229.111 83.7526 228.824 84.0615C228.541 84.3704 228.36 84.8124 228.28 85.3876H231.492V85.2039C231.481 84.6926 231.343 84.2985 231.076 84.0216C230.81 83.7393 230.432 83.5982 229.942 83.5982ZM238.194 87.2649L239.792 81.8886H242.268L238.793 91.8743L238.602 92.3296C238.085 93.4587 237.233 94.0232 236.045 94.0232C235.71 94.0232 235.369 93.9726 235.023 93.8714V92.1219L235.374 92.1299C235.811 92.1299 236.136 92.0634 236.349 91.9302C236.567 91.7971 236.738 91.5761 236.86 91.2672L237.132 90.5562L234.104 81.8886H236.588L238.194 87.2649ZM250.536 78.9009L253.524 87.3368L256.496 78.9009H259.643V90.5322H257.239V87.3528L257.478 81.8647L254.339 90.5322H252.693L249.562 81.8727L249.802 87.3528V90.5322H247.405V78.9009H250.536ZM266.593 90.5322C266.487 90.3245 266.41 90.0662 266.362 89.7573C265.803 90.3804 265.076 90.692 264.181 90.692C263.334 90.692 262.631 90.447 262.072 89.9571C261.518 89.4671 261.241 88.8493 261.241 88.1037C261.241 87.1877 261.579 86.4847 262.256 85.9947C262.937 85.5048 263.92 85.2571 265.203 85.2518H266.266V84.7565C266.266 84.3571 266.162 84.0376 265.954 83.7979C265.752 83.5582 265.43 83.4384 264.988 83.4384C264.599 83.4384 264.293 83.5316 264.069 83.718C263.851 83.9044 263.741 84.1601 263.741 84.4849H261.433C261.433 83.9843 261.587 83.521 261.896 83.0949C262.205 82.6689 262.642 82.336 263.206 82.0963C263.771 81.8514 264.405 81.7289 265.108 81.7289C266.173 81.7289 267.017 81.9978 267.64 82.5357C268.268 83.0683 268.583 83.8192 268.583 84.7885V88.5351C268.588 89.3553 268.702 89.9757 268.926 90.3964V90.5322H266.593ZM264.684 88.9265C265.025 88.9265 265.339 88.852 265.627 88.7029C265.914 88.5484 266.127 88.3434 266.266 88.0877V86.6019H265.403C264.247 86.6019 263.632 87.0013 263.558 87.8002L263.55 87.936C263.55 88.2235 263.651 88.4605 263.853 88.6469C264.056 88.8333 264.333 88.9265 264.684 88.9265ZM272.481 81.8886L272.553 82.8872C273.171 82.115 273.999 81.7289 275.037 81.7289C275.953 81.7289 276.635 81.9978 277.082 82.5357C277.53 83.0736 277.759 83.8778 277.769 84.9483V90.5322H275.461V85.0042C275.461 84.5142 275.354 84.1601 275.141 83.9417C274.928 83.718 274.574 83.6062 274.079 83.6062C273.429 83.6062 272.942 83.8831 272.617 84.437V90.5322H270.308V81.8886H272.481ZM284.536 90.5322C284.429 90.3245 284.352 90.0662 284.304 89.7573C283.745 90.3804 283.018 90.692 282.123 90.692C281.276 90.692 280.573 90.447 280.014 89.9571C279.46 89.4671 279.183 88.8493 279.183 88.1037C279.183 87.1877 279.521 86.4847 280.198 85.9947C280.88 85.5048 281.862 85.2571 283.146 85.2518H284.208V84.7565C284.208 84.3571 284.104 84.0376 283.897 83.7979C283.694 83.5582 283.372 83.4384 282.93 83.4384C282.541 83.4384 282.235 83.5316 282.011 83.718C281.793 83.9044 281.684 84.1601 281.684 84.4849H279.375C279.375 83.9843 279.529 83.521 279.838 83.0949C280.147 82.6689 280.584 82.336 281.148 82.0963C281.713 81.8514 282.347 81.7289 283.05 81.7289C284.115 81.7289 284.959 81.9978 285.582 82.5357C286.211 83.0683 286.525 83.8192 286.525 84.7885V88.5351C286.53 89.3553 286.645 89.9757 286.868 90.3964V90.5322H284.536ZM282.626 88.9265C282.967 88.9265 283.281 88.852 283.569 88.7029C283.857 88.5484 284.07 88.3434 284.208 88.0877V86.6019H283.345C282.19 86.6019 281.575 87.0013 281.5 87.8002L281.492 87.936C281.492 88.2235 281.593 88.4605 281.796 88.6469C281.998 88.8333 282.275 88.9265 282.626 88.9265ZM287.963 86.1465C287.963 84.8204 288.277 83.7526 288.905 82.9431C289.539 82.1336 290.391 81.7289 291.462 81.7289C292.41 81.7289 293.147 82.0537 293.674 82.7035L293.77 81.8886H295.863V90.2446C295.863 91.0009 295.69 91.6586 295.344 92.2178C295.003 92.777 294.521 93.2031 293.898 93.496C293.275 93.7889 292.545 93.9353 291.709 93.9353C291.076 93.9353 290.458 93.8075 289.856 93.5519C289.254 93.3016 288.799 92.9767 288.49 92.5773L289.512 91.1713C290.088 91.8157 290.785 92.1379 291.605 92.1379C292.218 92.1379 292.695 91.9728 293.035 91.6426C293.376 91.3178 293.547 90.8544 293.547 90.2526V89.7893C293.014 90.3911 292.314 90.692 291.446 90.692C290.407 90.692 289.566 90.2872 288.921 89.4777C288.282 88.6629 287.963 87.5845 287.963 86.2424V86.1465ZM290.271 86.3143C290.271 87.0972 290.428 87.7123 290.743 88.1596C291.057 88.6017 291.488 88.8227 292.037 88.8227C292.74 88.8227 293.243 88.5591 293.547 88.0318V84.397C293.238 83.8698 292.74 83.6062 292.053 83.6062C291.499 83.6062 291.062 83.8325 290.743 84.2852C290.428 84.7379 290.271 85.4142 290.271 86.3143ZM301.623 90.692C300.356 90.692 299.322 90.3032 298.523 89.5257C297.73 88.7481 297.333 87.7123 297.333 86.4181V86.1945C297.333 85.3264 297.501 84.5515 297.836 83.8698C298.172 83.1828 298.646 82.6555 299.258 82.2881C299.876 81.9153 300.579 81.7289 301.367 81.7289C302.55 81.7289 303.479 82.1017 304.155 82.8473C304.837 83.5929 305.178 84.65 305.178 86.0187V86.9614H299.674C299.748 87.5259 299.972 87.9786 300.345 88.3194C300.723 88.6603 301.2 88.8307 301.775 88.8307C302.664 88.8307 303.359 88.5085 303.86 87.8641L304.994 89.1342C304.648 89.6242 304.179 90.0076 303.588 90.2846C302.997 90.5562 302.342 90.692 301.623 90.692ZM301.359 83.5982C300.901 83.5982 300.529 83.7526 300.241 84.0615C299.959 84.3704 299.778 84.8124 299.698 85.3876H302.909V85.2039C302.899 84.6926 302.76 84.2985 302.494 84.0216C302.227 83.7393 301.849 83.5982 301.359 83.5982ZM311.353 84.0535C311.039 84.0109 310.762 83.9896 310.522 83.9896C309.649 83.9896 309.076 84.2852 308.805 84.8764V90.5322H306.496V81.8886H308.677L308.741 82.9192C309.204 82.1256 309.846 81.7289 310.666 81.7289C310.922 81.7289 311.161 81.7635 311.385 81.8327L311.353 84.0535ZM323.695 85.7791H319.094V90.5322H316.697V78.9009H324.27V80.8422H319.094V83.8458H323.695V85.7791ZM330.51 89.6535C329.94 90.3458 329.151 90.692 328.145 90.692C327.218 90.692 326.51 90.4257 326.02 89.8931C325.535 89.3606 325.288 88.5804 325.277 87.5525V81.8886H327.586V87.4726C327.586 88.3727 327.996 88.8227 328.816 88.8227C329.599 88.8227 330.137 88.5511 330.43 88.0079V81.8886H332.746V90.5322H330.573L330.51 89.6535ZM336.613 81.8886L336.685 82.8872C337.302 82.115 338.131 81.7289 339.169 81.7289C340.085 81.7289 340.767 81.9978 341.214 82.5357C341.661 83.0736 341.89 83.8778 341.901 84.9483V90.5322H339.592V85.0042C339.592 84.5142 339.486 84.1601 339.273 83.9417C339.06 83.718 338.706 83.6062 338.21 83.6062C337.561 83.6062 337.073 83.8831 336.749 84.437V90.5322H334.44V81.8886H336.613ZM343.299 86.1465C343.299 84.7991 343.6 83.726 344.202 82.9272C344.809 82.1283 345.637 81.7289 346.686 81.7289C347.528 81.7289 348.223 82.0431 348.771 82.6715V78.2619H351.088V90.5322H349.003L348.891 89.6135C348.316 90.3325 347.576 90.692 346.67 90.692C345.653 90.692 344.836 90.2926 344.218 89.4937C343.605 88.6895 343.299 87.5738 343.299 86.1465ZM345.608 86.3143C345.608 87.1238 345.749 87.7442 346.031 88.1756C346.313 88.607 346.724 88.8227 347.261 88.8227C347.975 88.8227 348.478 88.5218 348.771 87.92V84.5089C348.484 83.9071 347.986 83.6062 347.277 83.6062C346.164 83.6062 345.608 84.5089 345.608 86.3143Z" fill="#7E97C9"/>
<rect x="60.4819" y="122.081" width="34.5785" height="22.3319" rx="3.96212" fill="white"/>
<path d="M67.7347 129.271L69.5764 134.471L71.4083 129.271H73.3486V136.441H71.8663V134.481L72.0141 131.098L70.0787 136.441H69.0643L67.1339 131.103L67.2816 134.481V136.441H65.8042V129.271H67.7347ZM78.7754 134.964H76.1851L75.6927 136.441H74.1217L76.7908 129.271H78.1598L80.8437 136.441H79.2728L78.7754 134.964ZM76.584 133.767H78.3765L77.4753 131.083L76.584 133.767ZM83.4438 129.271L85.2856 134.471L87.1175 129.271H89.0578V136.441H87.5755V134.481L87.7232 131.098L85.7879 136.441H84.7735L82.8431 131.103L82.9908 134.481V136.441H81.5134V129.271H83.4438Z" fill="#7E97C9"/>
<rect x="60.4819" y="122.081" width="34.5785" height="22.3319" rx="3.96212" stroke="#7E97C9" stroke-width="2.16116"/>
<rect x="106.221" y="122.081" width="29.365" height="21.7204" rx="3.96212" fill="white"/>
<path d="M115.979 134.964H113.389L112.896 136.441H111.325L113.994 129.271H115.363L118.047 136.441H116.476L115.979 134.964ZM113.787 133.767H115.58L114.679 131.083L113.787 133.767ZM124.282 135.535C124.016 135.853 123.64 136.101 123.154 136.278C122.668 136.452 122.13 136.539 121.539 136.539C120.918 136.539 120.373 136.405 119.904 136.136C119.437 135.863 119.076 135.469 118.82 134.954C118.567 134.438 118.438 133.833 118.431 133.137V132.649C118.431 131.933 118.551 131.315 118.791 130.793C119.034 130.267 119.382 129.867 119.835 129.591C120.291 129.312 120.825 129.172 121.435 129.172C122.285 129.172 122.95 129.376 123.43 129.783C123.909 130.187 124.193 130.776 124.282 131.551H122.844C122.778 131.141 122.632 130.84 122.405 130.65C122.182 130.459 121.873 130.364 121.479 130.364C120.977 130.364 120.595 130.553 120.332 130.93C120.069 131.308 119.936 131.869 119.933 132.615V133.073C119.933 133.824 120.076 134.392 120.362 134.776C120.647 135.161 121.066 135.353 121.617 135.353C122.172 135.353 122.568 135.234 122.804 134.998V133.762H121.46V132.674H124.282V135.535ZM129.797 133.334H126.96V135.254H130.289V136.441H125.483V129.271H130.28V130.467H126.96V132.176H129.797V133.334Z" fill="#7E97C9"/>
<rect x="106.221" y="122.081" width="29.365" height="21.7204" rx="3.96212" stroke="#7E97C9" stroke-width="2.16116"/>
<rect x="146.748" y="122.081" width="54.7493" height="22.3319" rx="3.96212" fill="white"/>
<path d="M152.07 136.441V129.271H154.581C155.451 129.271 156.111 129.438 156.561 129.773C157.011 130.105 157.236 130.592 157.236 131.236C157.236 131.587 157.145 131.897 156.965 132.166C156.784 132.432 156.533 132.628 156.211 132.752C156.579 132.844 156.868 133.03 157.078 133.309C157.291 133.588 157.398 133.929 157.398 134.333C157.398 135.023 157.178 135.545 156.738 135.899C156.298 136.254 155.671 136.434 154.857 136.441H152.07ZM153.547 133.319V135.254H154.813C155.161 135.254 155.432 135.172 155.625 135.008C155.822 134.84 155.921 134.611 155.921 134.318C155.921 133.662 155.581 133.329 154.901 133.319H153.547ZM153.547 132.275H154.64C155.386 132.262 155.758 131.965 155.758 131.383C155.758 131.058 155.663 130.825 155.473 130.684C155.286 130.54 154.988 130.467 154.581 130.467H153.547V132.275ZM162.559 134.964H159.969L159.476 136.441H157.905L160.575 129.271H161.944L164.627 136.441H163.056L162.559 134.964ZM160.368 133.767H162.16L161.259 131.083L160.368 133.767ZM166.774 135.254H169.911V136.441H165.297V129.271H166.774V135.254ZM174.91 134.964H172.319L171.827 136.441H170.256L172.925 129.271H174.294L176.978 136.441H175.407L174.91 134.964ZM172.718 133.767H174.511L173.61 131.083L172.718 133.767ZM183.478 136.441H182.001L179.125 131.723V136.441H177.648V129.271H179.125L182.006 133.998V129.271H183.478V136.441ZM190.397 134.053C190.342 134.824 190.056 135.431 189.54 135.875C189.028 136.318 188.352 136.539 187.512 136.539C186.592 136.539 185.868 136.231 185.34 135.614C184.815 134.993 184.552 134.143 184.552 133.063V132.624C184.552 131.935 184.673 131.328 184.916 130.802C185.159 130.277 185.506 129.875 185.955 129.596C186.408 129.314 186.934 129.172 187.531 129.172C188.359 129.172 189.025 129.394 189.531 129.837C190.036 130.28 190.328 130.902 190.407 131.704H188.93C188.894 131.241 188.764 130.906 188.541 130.699C188.321 130.489 187.984 130.384 187.531 130.384C187.039 130.384 186.669 130.561 186.423 130.916C186.18 131.267 186.056 131.814 186.049 132.555V133.097C186.049 133.872 186.166 134.438 186.399 134.796C186.635 135.154 187.006 135.333 187.512 135.333C187.968 135.333 188.308 135.229 188.531 135.023C188.757 134.813 188.887 134.489 188.92 134.053H190.397ZM195.681 133.334H192.845V135.254H196.174V136.441H191.367V129.271H196.164V130.467H192.845V132.176H195.681V133.334Z" fill="#7E97C9"/>
<rect x="146.748" y="122.081" width="54.7493" height="22.3319" rx="3.96212" stroke="#7E97C9" stroke-width="2.16116"/>
<rect x="212.658" y="122.081" width="67.7162" height="22.3319" rx="3.96212" fill="white"/>
<path d="M217.98 136.441V129.271H220.186C220.817 129.271 221.38 129.414 221.875 129.699C222.374 129.982 222.763 130.385 223.042 130.911C223.321 131.433 223.461 132.027 223.461 132.693V133.023C223.461 133.69 223.323 134.282 223.047 134.801C222.775 135.32 222.389 135.722 221.89 136.008C221.391 136.293 220.828 136.438 220.201 136.441H217.98ZM219.457 130.467V135.254H220.171C220.749 135.254 221.191 135.065 221.496 134.688C221.801 134.31 221.957 133.77 221.964 133.068V132.688C221.964 131.96 221.813 131.408 221.511 131.034C221.209 130.656 220.767 130.467 220.186 130.467H219.457ZM227.194 133.816H226.017V136.441H224.539V129.271H227.204C228.051 129.271 228.704 129.46 229.164 129.837C229.623 130.215 229.853 130.748 229.853 131.438C229.853 131.927 229.746 132.336 229.533 132.664C229.323 132.989 229.003 133.248 228.573 133.442L230.124 136.372V136.441H228.538L227.194 133.816ZM226.017 132.619H227.209C227.58 132.619 227.867 132.526 228.07 132.339C228.274 132.148 228.376 131.887 228.376 131.556C228.376 131.218 228.279 130.952 228.085 130.758C227.895 130.564 227.601 130.467 227.204 130.467H226.017V132.619ZM235.029 134.964H232.438L231.946 136.441H230.375L233.044 129.271H234.413L237.097 136.441H235.526L235.029 134.964ZM232.837 133.767H234.63L233.729 131.083L232.837 133.767ZM243.154 134.373L244.119 129.271H245.592L244.001 136.441H242.514L241.347 131.644L240.18 136.441H238.693L237.102 129.271H238.574L239.544 134.363L240.726 129.271H241.977L243.154 134.373ZM246.394 136.441V129.271H248.601C249.231 129.271 249.794 129.414 250.29 129.699C250.789 129.982 251.178 130.385 251.457 130.911C251.736 131.433 251.875 132.027 251.875 132.693V133.023C251.875 133.69 251.738 134.282 251.462 134.801C251.189 135.32 250.804 135.722 250.305 136.008C249.805 136.293 249.242 136.438 248.615 136.441H246.394ZM247.872 130.467V135.254H248.586C249.164 135.254 249.605 135.065 249.911 134.688C250.216 134.31 250.372 133.77 250.378 133.068V132.688C250.378 131.96 250.227 131.408 249.925 131.034C249.623 130.656 249.182 130.467 248.601 130.467H247.872ZM258.844 133.018C258.844 133.724 258.719 134.343 258.469 134.875C258.22 135.407 257.862 135.817 257.396 136.106C256.933 136.395 256.401 136.539 255.8 136.539C255.206 136.539 254.676 136.397 254.21 136.111C253.743 135.825 253.382 135.418 253.126 134.89C252.87 134.358 252.741 133.747 252.737 133.058V132.703C252.737 131.997 252.864 131.377 253.116 130.842C253.372 130.303 253.732 129.891 254.195 129.606C254.661 129.317 255.193 129.172 255.79 129.172C256.388 129.172 256.918 129.317 257.381 129.606C257.847 129.891 258.207 130.303 258.459 130.842C258.716 131.377 258.844 131.996 258.844 132.698V133.018ZM257.347 132.693C257.347 131.942 257.212 131.37 256.943 130.98C256.674 130.589 256.289 130.394 255.79 130.394C255.295 130.394 254.912 130.587 254.643 130.975C254.374 131.359 254.238 131.924 254.234 132.669V133.018C254.234 133.75 254.369 134.318 254.638 134.722C254.907 135.126 255.295 135.328 255.8 135.328C256.296 135.328 256.677 135.134 256.943 134.747C257.209 134.356 257.343 133.788 257.347 133.043V132.693ZM265.502 134.373L266.467 129.271H267.939L266.349 136.441H264.861L263.694 131.644L262.527 136.441H261.04L259.449 129.271H260.922L261.892 134.363L263.074 129.271H264.325L265.502 134.373ZM274.572 136.441H273.095L270.219 131.723V136.441H268.742V129.271H270.219L273.1 133.998V129.271H274.572V136.441Z" fill="#7E97C9"/>
<rect x="212.658" y="122.081" width="67.7162" height="22.3319" rx="3.96212" stroke="#7E97C9" stroke-width="2.16116"/>
<rect x="291.535" y="122.081" width="73.4793" height="22.3319" rx="3.96212" fill="white"/>
<path d="M296.857 136.441V129.271H299.063C299.694 129.271 300.257 129.414 300.752 129.699C301.251 129.982 301.64 130.385 301.919 130.911C302.198 131.433 302.338 132.027 302.338 132.693V133.023C302.338 133.69 302.2 134.282 301.924 134.801C301.652 135.32 301.266 135.722 300.767 136.008C300.268 136.293 299.705 136.438 299.078 136.441H296.857ZM298.334 130.467V135.254H299.048C299.626 135.254 300.068 135.065 300.373 134.688C300.678 134.31 300.834 133.77 300.841 133.068V132.688C300.841 131.96 300.69 131.408 300.388 131.034C300.086 130.656 299.644 130.467 299.063 130.467H298.334ZM307.356 134.964H304.766L304.273 136.441H302.702L305.371 129.271H306.74L309.424 136.441H307.853L307.356 134.964ZM305.165 133.767H306.957L306.056 131.083L305.165 133.767ZM311.665 136.441H310.188V129.271H311.665V136.441ZM314.516 135.254H317.653V136.441H313.039V129.271H314.516V135.254ZM319.598 132.501L321.09 129.271H322.706L320.352 133.841V136.441H318.85V133.841L316.496 129.271H318.116L319.598 132.501ZM327.35 133.915V136.441H325.872V129.271H328.669C329.208 129.271 329.68 129.369 330.088 129.566C330.498 129.763 330.813 130.044 331.033 130.408C331.253 130.77 331.363 131.182 331.363 131.644C331.363 132.347 331.122 132.902 330.639 133.309C330.16 133.713 329.495 133.915 328.645 133.915H327.35ZM327.35 132.718H328.669C329.06 132.718 329.357 132.626 329.561 132.442C329.767 132.258 329.871 131.996 329.871 131.654C329.871 131.303 329.767 131.019 329.561 130.802C329.354 130.586 329.068 130.474 328.704 130.467H327.35V132.718ZM335.037 133.816H333.86V136.441H332.382V129.271H335.047C335.894 129.271 336.547 129.46 337.007 129.837C337.466 130.215 337.696 130.748 337.696 131.438C337.696 131.927 337.589 132.336 337.376 132.664C337.166 132.989 336.846 133.248 336.416 133.442L337.967 136.372V136.441H336.381L335.037 133.816ZM333.86 132.619H335.051C335.422 132.619 335.71 132.526 335.913 132.339C336.117 132.148 336.219 131.887 336.219 131.556C336.219 131.218 336.122 130.952 335.928 130.758C335.738 130.564 335.444 130.467 335.047 130.467H333.86V132.619ZM344.713 133.018C344.713 133.724 344.589 134.343 344.339 134.875C344.09 135.407 343.732 135.817 343.266 136.106C342.803 136.395 342.271 136.539 341.67 136.539C341.076 136.539 340.546 136.397 340.079 136.111C339.613 135.825 339.252 135.418 338.996 134.89C338.74 134.358 338.61 133.747 338.607 133.058V132.703C338.607 131.997 338.733 131.377 338.986 130.842C339.242 130.303 339.602 129.891 340.065 129.606C340.531 129.317 341.063 129.172 341.66 129.172C342.258 129.172 342.788 129.317 343.251 129.606C343.717 129.891 344.076 130.303 344.329 130.842C344.585 131.377 344.713 131.996 344.713 132.698V133.018ZM343.216 132.693C343.216 131.942 343.082 131.37 342.813 130.98C342.543 130.589 342.159 130.394 341.66 130.394C341.164 130.394 340.782 130.587 340.513 130.975C340.244 131.359 340.107 131.924 340.104 132.669V133.018C340.104 133.75 340.239 134.318 340.508 134.722C340.777 135.126 341.164 135.328 341.67 135.328C342.166 135.328 342.547 135.134 342.813 134.747C343.078 134.356 343.213 133.788 343.216 133.043V132.693ZM350.101 133.511H347.264V136.441H345.787V129.271H350.455V130.467H347.264V132.319H350.101V133.511ZM352.883 136.441H351.406V129.271H352.883V136.441ZM359.507 130.467H357.31V136.441H355.833V130.467H353.666V129.271H359.507V130.467Z" fill="#7E97C9"/>
<rect x="291.535" y="122.081" width="73.4793" height="22.3319" rx="3.96212" stroke="#7E97C9" stroke-width="2.16116"/>
<rect x="376.175" y="122.081" width="72.0385" height="21.7204" rx="3.96212" fill="white"/>
<path d="M387.202 129.271L389.044 134.471L390.876 129.271H392.816V136.441H391.334V134.481L391.482 131.098L389.546 136.441H388.532L386.602 131.103L386.749 134.481V136.441H385.272V129.271H387.202ZM399.996 133.018C399.996 133.724 399.871 134.343 399.622 134.875C399.372 135.407 399.015 135.817 398.548 136.106C398.085 136.395 397.554 136.539 396.953 136.539C396.359 136.539 395.828 136.397 395.362 136.111C394.896 135.825 394.535 135.418 394.279 134.89C394.023 134.358 393.893 133.747 393.89 133.058V132.703C393.89 131.997 394.016 131.377 394.269 130.842C394.525 130.303 394.885 129.891 395.347 129.606C395.814 129.317 396.345 129.172 396.943 129.172C397.54 129.172 398.071 129.317 398.534 129.606C399 129.891 399.359 130.303 399.612 130.842C399.868 131.377 399.996 131.996 399.996 132.698V133.018ZM398.499 132.693C398.499 131.942 398.365 131.37 398.095 130.98C397.826 130.589 397.442 130.394 396.943 130.394C396.447 130.394 396.065 130.587 395.796 130.975C395.526 131.359 395.39 131.924 395.387 132.669V133.018C395.387 133.75 395.521 134.318 395.791 134.722C396.06 135.126 396.447 135.328 396.953 135.328C397.449 135.328 397.829 135.134 398.095 134.747C398.361 134.356 398.496 133.788 398.499 133.043V132.693ZM400.449 135.742C400.449 135.515 400.525 135.331 400.676 135.19C400.83 135.049 401.022 134.978 401.252 134.978C401.485 134.978 401.677 135.049 401.828 135.19C401.982 135.331 402.06 135.515 402.06 135.742C402.06 135.965 401.984 136.147 401.833 136.288C401.682 136.426 401.488 136.495 401.252 136.495C401.019 136.495 400.827 136.426 400.676 136.288C400.525 136.147 400.449 135.965 400.449 135.742ZM407.393 133.915V136.441H405.915V129.271H408.713C409.251 129.271 409.724 129.369 410.131 129.566C410.541 129.763 410.856 130.044 411.076 130.408C411.296 130.77 411.406 131.182 411.406 131.644C411.406 132.347 411.165 132.902 410.682 133.309C410.203 133.713 409.538 133.915 408.688 133.915H407.393ZM407.393 132.718H408.713C409.103 132.718 409.4 132.626 409.604 132.442C409.811 132.258 409.914 131.996 409.914 131.654C409.914 131.303 409.811 131.019 409.604 130.802C409.397 130.586 409.111 130.474 408.747 130.467H407.393V132.718ZM415.08 133.816H413.903V136.441H412.426V129.271H415.09C415.937 129.271 416.59 129.46 417.05 129.837C417.509 130.215 417.739 130.748 417.739 131.438C417.739 131.927 417.632 132.336 417.419 132.664C417.209 132.989 416.889 133.248 416.459 133.442L418.01 136.372V136.441H416.424L415.08 133.816ZM413.903 132.619H415.095C415.466 132.619 415.753 132.526 415.957 132.339C416.16 132.148 416.262 131.887 416.262 131.556C416.262 131.218 416.165 130.952 415.971 130.758C415.781 130.564 415.487 130.467 415.09 130.467H413.903V132.619ZM424.757 133.018C424.757 133.724 424.632 134.343 424.382 134.875C424.133 135.407 423.775 135.817 423.309 136.106C422.846 136.395 422.314 136.539 421.713 136.539C421.119 136.539 420.589 136.397 420.123 136.111C419.656 135.825 419.295 135.418 419.039 134.89C418.783 134.358 418.653 133.747 418.65 133.058V132.703C418.65 131.997 418.777 131.377 419.029 130.842C419.285 130.303 419.645 129.891 420.108 129.606C420.574 129.317 421.106 129.172 421.703 129.172C422.301 129.172 422.831 129.317 423.294 129.606C423.76 129.891 424.12 130.303 424.372 130.842C424.629 131.377 424.757 131.996 424.757 132.698V133.018ZM423.26 132.693C423.26 131.942 423.125 131.37 422.856 130.98C422.587 130.589 422.202 130.394 421.703 130.394C421.208 130.394 420.825 130.587 420.556 130.975C420.287 131.359 420.151 131.924 420.147 132.669V133.018C420.147 133.75 420.282 134.318 420.551 134.722C420.82 135.126 421.208 135.328 421.713 135.328C422.209 135.328 422.59 135.134 422.856 134.747C423.122 134.356 423.256 133.788 423.26 133.043V132.693ZM430.144 133.511H427.308V136.441H425.83V129.271H430.499V130.467H427.308V132.319H430.144V133.511ZM432.926 136.441H431.449V129.271H432.926V136.441ZM439.55 130.467H437.354V136.441H435.876V130.467H433.709V129.271H439.55V130.467Z" fill="#7E97C9"/>
<rect x="376.175" y="122.081" width="72.0385" height="21.7204" rx="3.96212" stroke="#7E97C9" stroke-width="2.16116"/>
<rect x="459.375" y="122.081" width="77.0812" height="22.3319" rx="3.96212" fill="white"/>
<path d="M470.094 130.467H467.898V136.441H466.42V130.467H464.254V129.271H470.094V130.467ZM476.693 133.018C476.693 133.724 476.568 134.343 476.319 134.875C476.069 135.407 475.711 135.817 475.245 136.106C474.782 136.395 474.25 136.539 473.65 136.539C473.055 136.539 472.525 136.397 472.059 136.111C471.593 135.825 471.232 135.418 470.976 134.89C470.72 134.358 470.59 133.747 470.587 133.058V132.703C470.587 131.997 470.713 131.377 470.966 130.842C471.222 130.303 471.581 129.891 472.044 129.606C472.51 129.317 473.042 129.172 473.64 129.172C474.237 129.172 474.767 129.317 475.23 129.606C475.697 129.891 476.056 130.303 476.309 130.842C476.565 131.377 476.693 131.996 476.693 132.698V133.018ZM475.196 132.693C475.196 131.942 475.061 131.37 474.792 130.98C474.523 130.589 474.139 130.394 473.64 130.394C473.144 130.394 472.762 130.587 472.492 130.975C472.223 131.359 472.087 131.924 472.084 132.669V133.018C472.084 133.75 472.218 134.318 472.487 134.722C472.757 135.126 473.144 135.328 473.65 135.328C474.145 135.328 474.526 135.134 474.792 134.747C475.058 134.356 475.193 133.788 475.196 133.043V132.693ZM482.74 130.467H480.544V136.441H479.067V130.467H476.9V129.271H482.74V130.467ZM487.044 134.964H484.454L483.962 136.441H482.391L485.06 129.271H486.429L489.113 136.441H487.542L487.044 134.964ZM484.853 133.767H486.645L485.744 131.083L484.853 133.767ZM491.26 135.254H494.397V136.441H489.782V129.271H491.26V135.254ZM499.237 133.915V136.441H497.76V129.271H500.557C501.096 129.271 501.568 129.369 501.975 129.566C502.386 129.763 502.701 130.044 502.921 130.408C503.141 130.77 503.251 131.182 503.251 131.644C503.251 132.347 503.01 132.902 502.527 133.309C502.048 133.713 501.383 133.915 500.532 133.915H499.237ZM499.237 132.718H500.557C500.948 132.718 501.245 132.626 501.448 132.442C501.655 132.258 501.759 131.996 501.759 131.654C501.759 131.303 501.655 131.019 501.448 130.802C501.242 130.586 500.956 130.474 500.592 130.467H499.237V132.718ZM506.924 133.816H505.748V136.441H504.27V129.271H506.934C507.781 129.271 508.435 129.46 508.894 129.837C509.354 130.215 509.584 130.748 509.584 131.438C509.584 131.927 509.477 132.336 509.264 132.664C509.054 132.989 508.733 133.248 508.303 133.442L509.855 136.372V136.441H508.269L506.924 133.816ZM505.748 132.619H506.939C507.31 132.619 507.598 132.526 507.801 132.339C508.005 132.148 508.106 131.887 508.106 131.556C508.106 131.218 508.01 130.952 507.816 130.758C507.625 130.564 507.332 130.467 506.934 130.467H505.748V132.619ZM516.601 133.018C516.601 133.724 516.476 134.343 516.227 134.875C515.977 135.407 515.62 135.817 515.153 136.106C514.69 136.395 514.159 136.539 513.558 136.539C512.964 136.539 512.433 136.397 511.967 136.111C511.501 135.825 511.14 135.418 510.884 134.89C510.628 134.358 510.498 133.747 510.495 133.058V132.703C510.495 131.997 510.621 131.377 510.874 130.842C511.13 130.303 511.49 129.891 511.952 129.606C512.419 129.317 512.95 129.172 513.548 129.172C514.145 129.172 514.676 129.317 515.139 129.606C515.605 129.891 515.964 130.303 516.217 130.842C516.473 131.377 516.601 131.996 516.601 132.698V133.018ZM515.104 132.693C515.104 131.942 514.969 131.37 514.7 130.98C514.431 130.589 514.047 130.394 513.548 130.394C513.052 130.394 512.67 130.587 512.401 130.975C512.131 131.359 511.995 131.924 511.992 132.669V133.018C511.992 133.75 512.126 134.318 512.396 134.722C512.665 135.126 513.052 135.328 513.558 135.328C514.054 135.328 514.434 135.134 514.7 134.747C514.966 134.356 515.101 133.788 515.104 133.043V132.693ZM521.989 133.511H519.152V136.441H517.675V129.271H522.343V130.467H519.152V132.319H521.989V133.511ZM524.771 136.441H523.294V129.271H524.771V136.441ZM531.394 130.467H529.198V136.441H527.721V130.467H525.554V129.271H531.394V130.467Z" fill="#7E97C9"/>
<rect x="459.375" y="122.081" width="77.0812" height="22.3319" rx="3.96212" stroke="#7E97C9" stroke-width="2.16116"/>
<rect x="582.995" y="187.181" width="67.6492" height="29.3512" rx="3.96212" fill="white"/>
<path d="M607.118 191.371L608.959 196.572L610.791 191.371H612.732V198.542H611.249V196.582L611.397 193.198L609.462 198.542H608.447L606.517 193.203L606.665 196.582V198.542H605.187V191.371H607.118ZM618.158 197.064H615.568L615.076 198.542H613.505L616.174 191.371H617.543L620.227 198.542H618.656L618.158 197.064ZM615.967 195.867H617.759L616.858 193.184L615.967 195.867ZM622.827 191.371L624.669 196.572L626.5 191.371H628.441V198.542H626.958V196.582L627.106 193.198L625.171 198.542H624.156L622.226 193.203L622.374 196.582V198.542H620.896V191.371H622.827ZM591.33 209.917H590.153V212.542H588.675V205.371H591.339C592.186 205.371 592.84 205.56 593.299 205.938C593.759 206.315 593.989 206.849 593.989 207.538C593.989 208.027 593.882 208.436 593.669 208.764C593.459 209.089 593.139 209.349 592.708 209.542L594.26 212.473V212.542H592.674L591.33 209.917ZM590.153 208.72H591.344C591.715 208.72 592.003 208.627 592.206 208.439C592.41 208.249 592.511 207.988 592.511 207.656C592.511 207.318 592.415 207.052 592.221 206.859C592.031 206.665 591.737 206.568 591.339 206.568H590.153V208.72ZM599.43 209.434H596.594V211.355H599.923V212.542H595.117V205.371H599.913V206.568H596.594V208.277H599.43V209.434ZM606.374 210.473L607.339 205.371H608.812L607.221 212.542H605.734L604.567 207.745L603.4 212.542H601.912L600.322 205.371H601.794L602.764 210.463L603.946 205.371H605.197L606.374 210.473ZM613.446 211.064H610.855L610.363 212.542H608.792L611.461 205.371H612.83L615.514 212.542H613.943L613.446 211.064ZM611.254 209.867H613.047L612.146 207.184L611.254 209.867ZM618.838 209.917H617.661V212.542H616.184V205.371H618.848C619.695 205.371 620.348 205.56 620.808 205.938C621.267 206.315 621.497 206.849 621.497 207.538C621.497 208.027 621.39 208.436 621.177 208.764C620.967 209.089 620.647 209.349 620.217 209.542L621.768 212.473V212.542H620.182L618.838 209.917ZM617.661 208.72H618.853C619.224 208.72 619.511 208.627 619.714 208.439C619.918 208.249 620.02 207.988 620.02 207.656C620.02 207.318 619.923 207.052 619.729 206.859C619.539 206.665 619.245 206.568 618.848 206.568H617.661V208.72ZM622.625 212.542V205.371H624.831C625.461 205.371 626.024 205.514 626.52 205.8C627.019 206.082 627.408 206.486 627.687 207.011C627.966 207.533 628.106 208.128 628.106 208.794V209.124C628.106 209.79 627.968 210.383 627.692 210.902C627.42 211.42 627.034 211.823 626.535 212.108C626.036 212.394 625.473 212.538 624.846 212.542H622.625ZM624.102 206.568V211.355H624.816C625.394 211.355 625.836 211.166 626.141 210.788C626.446 210.411 626.602 209.871 626.609 209.168V208.789C626.609 208.06 626.458 207.509 626.156 207.134C625.854 206.757 625.412 206.568 624.831 206.568H624.102ZM631.666 209.626C631.666 208.874 631.766 208.159 631.967 207.479C632.167 206.8 632.462 206.199 632.853 205.677C633.244 205.151 633.667 204.787 634.124 204.583L634.399 205.352C633.92 205.706 633.546 206.255 633.277 206.997C633.007 207.738 632.873 208.605 632.873 209.597V209.749C632.873 210.744 633.006 211.614 633.272 212.359C633.538 213.105 633.913 213.661 634.399 214.029L634.124 214.782C633.677 214.582 633.26 214.227 632.873 213.718C632.489 213.213 632.195 212.629 631.991 211.965C631.788 211.302 631.679 210.609 631.666 209.887V209.626ZM635.069 206.75C635.069 206.31 635.212 205.954 635.498 205.682C635.783 205.406 636.157 205.268 636.62 205.268C637.09 205.268 637.467 205.404 637.753 205.677C638.039 205.946 638.181 206.312 638.181 206.775V207.129C638.181 207.573 638.039 207.929 637.753 208.198C637.467 208.467 637.093 208.602 636.63 208.602C636.164 208.602 635.786 208.467 635.498 208.198C635.212 207.926 635.069 207.56 635.069 207.1V206.75ZM636.015 207.129C636.015 207.326 636.07 207.486 636.182 207.607C636.297 207.725 636.446 207.784 636.63 207.784C636.814 207.784 636.96 207.724 637.068 207.602C637.177 207.481 637.231 207.318 637.231 207.115V206.75C637.231 206.553 637.177 206.394 637.068 206.273C636.96 206.151 636.811 206.09 636.62 206.09C636.44 206.09 636.294 206.151 636.182 206.273C636.07 206.391 636.015 206.557 636.015 206.77V207.129ZM638.497 210.783C638.497 210.34 638.641 209.984 638.93 209.715C639.219 209.442 639.593 209.306 640.053 209.306C640.519 209.306 640.895 209.441 641.18 209.71C641.469 209.976 641.614 210.344 641.614 210.813V211.168C641.614 211.607 641.473 211.964 641.19 212.236C640.908 212.505 640.532 212.64 640.063 212.64C639.59 212.64 639.211 212.504 638.925 212.231C638.639 211.959 638.497 211.598 638.497 211.148V210.783ZM639.442 211.168C639.442 211.348 639.501 211.502 639.619 211.63C639.738 211.759 639.885 211.823 640.063 211.823C640.463 211.823 640.663 211.601 640.663 211.158V210.783C640.663 210.586 640.608 210.429 640.496 210.311C640.384 210.189 640.237 210.128 640.053 210.128C639.869 210.128 639.721 210.189 639.61 210.311C639.498 210.429 639.442 210.591 639.442 210.798V211.168ZM636.911 212.005L636.217 211.63L639.718 206.026L640.412 206.401L636.911 212.005ZM645.046 209.739C645.046 210.481 644.939 211.195 644.726 211.882C644.513 212.568 644.206 213.173 643.805 213.699C643.405 214.224 642.976 214.585 642.52 214.782L642.244 214.029C642.71 213.677 643.078 213.136 643.347 212.404C643.616 211.672 643.756 210.829 643.766 209.877V209.616C643.766 208.635 643.631 207.77 643.362 207.021C643.096 206.273 642.723 205.711 642.244 205.337L642.52 204.583C642.966 204.777 643.387 205.128 643.781 205.637C644.178 206.146 644.485 206.739 644.701 207.415C644.921 208.091 645.036 208.792 645.046 209.518V209.739Z" fill="#7E97C9"/>
<rect x="582.995" y="187.181" width="67.6492" height="29.3512" rx="3.96212" stroke="#7E97C9" stroke-width="2.16116"/>
<rect x="597.311" y="226.874" width="53.3338" height="29.3512" rx="3.96212" fill="white"/>
<path d="M605.038 231.064L606.88 236.264L608.712 231.064H610.652V238.234H609.17V236.274L609.317 232.891L607.382 238.234H606.368L604.437 232.896L604.585 236.274V238.234H603.107V231.064H605.038ZM613.513 238.234H612.036V231.064H613.513V238.234ZM620.718 238.234H619.24L616.364 233.516V238.234H614.887V231.064H616.364L619.245 235.791V231.064H620.718V238.234ZM623.579 238.234H622.101V231.064H623.579V238.234ZM626.883 231.064L628.725 236.264L630.557 231.064H632.497V238.234H631.015V236.274L631.162 232.891L629.227 238.234H628.213L626.282 232.896L626.43 236.274V238.234H624.953V231.064H626.883ZM637.924 236.757H635.333L634.841 238.234H633.27L635.939 231.064H637.308L639.992 238.234H638.421L637.924 236.757ZM635.732 235.56H637.525L636.624 232.876L635.732 235.56ZM642.139 237.047H645.276V238.234H640.662V231.064H642.139V237.047ZM604.142 252.234V245.064H606.348C606.978 245.064 607.541 245.207 608.037 245.492C608.536 245.775 608.925 246.178 609.204 246.704C609.483 247.226 609.623 247.82 609.623 248.486V248.816C609.623 249.483 609.485 250.075 609.209 250.594C608.936 251.113 608.551 251.515 608.052 251.801C607.553 252.086 606.99 252.231 606.363 252.234H604.142ZM605.619 246.26V251.047H606.333C606.911 251.047 607.352 250.858 607.658 250.481C607.963 250.103 608.119 249.563 608.126 248.861V248.481C608.126 247.753 607.975 247.201 607.673 246.827C607.37 246.449 606.929 246.26 606.348 246.26H605.619ZM615.015 249.127H612.178V251.047H615.507V252.234H610.701V245.064H615.498V246.26H612.178V247.969H615.015V249.127ZM617.851 249.708V252.234H616.374V245.064H619.171C619.71 245.064 620.182 245.162 620.59 245.359C621 245.556 621.315 245.837 621.535 246.201C621.755 246.562 621.865 246.975 621.865 247.437C621.865 248.14 621.624 248.695 621.141 249.102C620.662 249.506 619.997 249.708 619.147 249.708H617.851ZM617.851 248.511H619.171C619.562 248.511 619.859 248.419 620.063 248.235C620.269 248.051 620.373 247.789 620.373 247.447C620.373 247.096 620.269 246.812 620.063 246.595C619.856 246.379 619.57 246.267 619.206 246.26H617.851V248.511ZM628.774 248.811C628.774 249.517 628.649 250.136 628.4 250.668C628.15 251.2 627.792 251.61 627.326 251.899C626.863 252.188 626.331 252.332 625.731 252.332C625.136 252.332 624.606 252.19 624.14 251.904C623.674 251.618 623.313 251.211 623.057 250.683C622.801 250.151 622.671 249.54 622.668 248.851V248.496C622.668 247.79 622.794 247.17 623.047 246.635C623.303 246.096 623.662 245.684 624.125 245.399C624.591 245.11 625.123 244.965 625.721 244.965C626.318 244.965 626.849 245.11 627.311 245.399C627.778 245.684 628.137 246.096 628.39 246.635C628.646 247.17 628.774 247.789 628.774 248.491V248.811ZM627.277 248.486C627.277 247.735 627.142 247.163 626.873 246.773C626.604 246.382 626.22 246.187 625.721 246.187C625.225 246.187 624.843 246.38 624.573 246.768C624.304 247.152 624.168 247.716 624.165 248.462V248.811C624.165 249.543 624.299 250.111 624.569 250.515C624.838 250.919 625.225 251.121 625.731 251.121C626.226 251.121 626.607 250.927 626.873 250.54C627.139 250.149 627.274 249.581 627.277 248.836V248.486ZM633.566 250.353C633.566 250.074 633.467 249.86 633.27 249.713C633.073 249.562 632.719 249.404 632.206 249.24C631.694 249.072 631.289 248.908 630.99 248.747C630.176 248.307 629.769 247.715 629.769 246.97C629.769 246.582 629.877 246.237 630.094 245.935C630.314 245.63 630.627 245.392 631.034 245.221C631.445 245.051 631.904 244.965 632.413 244.965C632.925 244.965 633.382 245.059 633.782 245.246C634.183 245.43 634.493 245.691 634.713 246.029C634.936 246.367 635.048 246.751 635.048 247.181H633.571C633.571 246.853 633.467 246.599 633.26 246.418C633.053 246.234 632.763 246.142 632.389 246.142C632.027 246.142 631.747 246.219 631.547 246.374C631.346 246.525 631.246 246.725 631.246 246.975C631.246 247.208 631.363 247.403 631.596 247.561C631.832 247.718 632.179 247.866 632.635 248.004C633.475 248.257 634.088 248.57 634.472 248.944C634.856 249.319 635.048 249.785 635.048 250.343C635.048 250.963 634.813 251.451 634.344 251.805C633.874 252.157 633.242 252.332 632.448 252.332C631.896 252.332 631.394 252.232 630.941 252.032C630.488 251.828 630.141 251.551 629.902 251.2C629.665 250.848 629.547 250.441 629.547 249.978H631.029C631.029 250.77 631.502 251.165 632.448 251.165C632.799 251.165 633.073 251.095 633.27 250.954C633.467 250.809 633.566 250.609 633.566 250.353ZM637.623 252.234H636.146V245.064H637.623V252.234ZM644.247 246.26H642.051V252.234H640.573V246.26H638.406V245.064H644.247V246.26Z" fill="#7E97C9"/>
<rect x="597.311" y="226.874" width="53.3338" height="29.3512" rx="3.96212" stroke="#7E97C9" stroke-width="2.16116"/>
<rect x="574.815" y="266.566" width="75.8295" height="29.3512" rx="3.96212" fill="white"/>
<path d="M593.79 270.756L595.631 275.956L597.463 270.756H599.404V277.926H597.921V275.966L598.069 272.583L596.134 277.926H595.119L593.189 272.588L593.337 275.966V277.926H591.859V270.756H593.79ZM602.265 277.926H600.787V270.756H602.265V277.926ZM609.469 277.926H607.992L605.116 273.209V277.926H603.639V270.756H605.116L607.997 275.484V270.756H609.469V277.926ZM612.33 277.926H610.853V270.756H612.33V277.926ZM615.635 270.756L617.477 275.956L619.308 270.756H621.249V277.926H619.766V275.966L619.914 272.583L617.979 277.926H616.964L615.034 272.588L615.182 275.966V277.926H613.704V270.756H615.635ZM626.676 276.449H624.085L623.593 277.926H622.022L624.691 270.756H626.06L628.744 277.926H627.173L626.676 276.449ZM624.484 275.252H626.277L625.375 272.568L624.484 275.252ZM630.891 276.739H634.028V277.926H629.414V270.756H630.891V276.739ZM586.231 289.858L587.196 284.756H588.668L587.078 291.926H585.59L584.423 287.13L583.256 291.926H581.769L580.178 284.756H581.651L582.621 289.848L583.803 284.756H585.054L586.231 289.858ZM591.042 291.926H589.564V284.756H591.042V291.926ZM597.665 285.953H595.469V291.926H593.992V285.953H591.825V284.756H597.665V285.953ZM604.348 291.926H602.87V288.853H599.99V291.926H598.512V284.756H599.99V287.662H602.87V284.756H604.348V291.926ZM605.643 291.926V284.756H607.849C608.479 284.756 609.042 284.899 609.538 285.185C610.037 285.467 610.426 285.871 610.705 286.396C610.984 286.918 611.124 287.512 611.124 288.179V288.509C611.124 289.175 610.986 289.768 610.71 290.286C610.438 290.805 610.052 291.207 609.553 291.493C609.054 291.779 608.491 291.923 607.864 291.926H605.643ZM607.12 285.953V290.739H607.834C608.412 290.739 608.854 290.551 609.159 290.173C609.464 289.796 609.62 289.256 609.627 288.553V288.174C609.627 287.445 609.476 286.893 609.174 286.519C608.872 286.142 608.43 285.953 607.849 285.953H607.12ZM614.857 289.302H613.68V291.926H612.202V284.756H614.867C615.714 284.756 616.367 284.945 616.827 285.323C617.286 285.7 617.516 286.234 617.516 286.923C617.516 287.412 617.409 287.821 617.196 288.149C616.986 288.474 616.666 288.734 616.236 288.927L617.787 291.857V291.926H616.201L614.857 289.302ZM613.68 288.105H614.871C615.242 288.105 615.53 288.011 615.733 287.824C615.937 287.634 616.039 287.373 616.039 287.041C616.039 286.703 615.942 286.437 615.748 286.243C615.558 286.05 615.264 285.953 614.867 285.953H613.68V288.105ZM622.692 290.449H620.101L619.609 291.926H618.038L620.707 284.756H622.076L624.76 291.926H623.189L622.692 290.449ZM620.5 289.252H622.293L621.392 286.568L620.5 289.252ZM630.817 289.858L631.782 284.756H633.255L631.664 291.926H630.177L629.01 287.13L627.843 291.926H626.355L624.765 284.756H626.237L627.207 289.848L628.389 284.756H629.64L630.817 289.858ZM637.889 290.449H635.298L634.806 291.926H633.235L635.904 284.756H637.273L639.957 291.926H638.386L637.889 290.449ZM635.697 289.252H637.49L636.589 286.568L635.697 289.252ZM642.104 290.739H645.241V291.926H640.627V284.756H642.104V290.739Z" fill="#7E97C9"/>
<rect x="574.815" y="266.566" width="75.8295" height="29.3512" rx="3.96212" stroke="#7E97C9" stroke-width="2.16116"/>
<rect x="577.882" y="306.258" width="72.7619" height="29.3512" rx="3.96212" fill="white"/>
<path d="M595.323 310.449L597.165 315.649L598.997 310.449H600.937V317.619H599.455V315.659L599.603 312.276L597.667 317.619H596.653L594.722 312.28L594.87 315.659V317.619H593.393V310.449H595.323ZM603.798 317.619H602.321V310.449H603.798V317.619ZM611.003 317.619H609.526L606.65 312.901V317.619H605.172V310.449H606.65L609.53 315.176V310.449H611.003V317.619ZM613.864 317.619H612.387V310.449H613.864V317.619ZM617.168 310.449L619.01 315.649L620.842 310.449H622.782V317.619H621.3V315.659L621.448 312.276L619.512 317.619H618.498L616.568 312.28L616.715 315.659V317.619H615.238V310.449H617.168ZM628.209 316.141H625.619L625.126 317.619H623.555L626.225 310.449H627.594L630.277 317.619H628.706L628.209 316.141ZM626.018 314.945H627.81L626.909 312.261L626.018 314.945ZM632.424 316.432H635.561V317.619H630.947V310.449H632.424V316.432ZM585.218 331.619H583.741V324.449H585.218V331.619ZM592.423 331.619H590.945L588.069 326.901V331.619H586.592V324.449H588.069L590.95 329.176V324.449H592.423V331.619ZM596.362 329.841L597.987 324.449H599.632L597.135 331.619H595.594L593.107 324.449H594.747L596.362 329.841ZM604.626 328.511H601.789V330.432H605.118V331.619H600.312V324.449H605.108V325.645H601.789V327.354H604.626V328.511ZM609.703 329.737C609.703 329.458 609.604 329.245 609.407 329.097C609.21 328.946 608.856 328.789 608.344 328.625C607.831 328.457 607.426 328.293 607.127 328.132C606.313 327.692 605.906 327.1 605.906 326.354C605.906 325.967 606.014 325.622 606.231 325.32C606.451 325.015 606.765 324.777 607.172 324.606C607.582 324.435 608.042 324.35 608.55 324.35C609.063 324.35 609.519 324.444 609.919 324.631C610.32 324.815 610.63 325.076 610.85 325.414C611.073 325.752 611.185 326.136 611.185 326.566H609.708C609.708 326.238 609.604 325.983 609.397 325.803C609.191 325.619 608.9 325.527 608.526 325.527C608.165 325.527 607.884 325.604 607.684 325.758C607.483 325.91 607.383 326.11 607.383 326.359C607.383 326.592 607.5 326.788 607.733 326.945C607.969 327.103 608.316 327.251 608.772 327.388C609.613 327.641 610.225 327.955 610.609 328.329C610.993 328.703 611.185 329.17 611.185 329.728C611.185 330.348 610.95 330.836 610.481 331.19C610.011 331.542 609.379 331.717 608.585 331.717C608.033 331.717 607.531 331.617 607.078 331.417C606.625 331.213 606.279 330.936 606.039 330.585C605.803 330.233 605.684 329.826 605.684 329.363H607.167C607.167 330.154 607.639 330.55 608.585 330.55C608.936 330.55 609.21 330.479 609.407 330.338C609.604 330.194 609.703 329.994 609.703 329.737ZM617.587 325.645H615.391V331.619H613.913V325.645H611.746V324.449H617.587V325.645ZM620.364 324.449L622.206 329.649L624.038 324.449H625.978V331.619H624.496V329.659L624.644 326.276L622.708 331.619H621.694L619.764 326.28L619.911 329.659V331.619H618.434V324.449H620.364ZM631.582 328.511H628.746V330.432H632.075V331.619H627.269V324.449H632.065V325.645H628.746V327.354H631.582V328.511ZM638.772 331.619H637.295L634.419 326.901V331.619H632.942V324.449H634.419L637.3 329.176V324.449H638.772V331.619ZM645.312 325.645H643.116V331.619H641.638V325.645H639.471V324.449H645.312V325.645Z" fill="#7E97C9"/>
<rect x="577.882" y="306.258" width="72.7619" height="29.3512" rx="3.96212" stroke="#7E97C9" stroke-width="2.16116"/>
</g>
<path d="M207.416 269.181C219.8 294.373 235.375 363.143 239.631 366.93C243.886 370.718 268.355 385.314 272.611 392.378C276.866 399.442 274.951 397.102 273.079 397.57C271.207 398.038 164.691 398.506 164.691 398.506C164.691 398.506 176.947 325.481 178.351 325.013C179.755 324.503 207.416 269.181 207.416 269.181Z" fill="#7E97C9"/>
<path opacity="0.1" d="M225.034 398.166C205.459 398.293 184.819 398.421 173.457 398.464L189.032 305.438C197.331 289.352 207.416 269.181 207.416 269.181C208.991 272.372 210.608 276.202 212.225 280.585C213.842 350.461 203.757 370.037 211.331 382.505C217.247 392.208 222.609 396.549 225.034 398.166Z" fill="black"/>
<path d="M3.91559 403.188H515.345C517.515 403.188 519.303 401.401 519.303 399.231C519.303 397.06 517.515 395.273 515.345 395.273H3.95819C1.7879 395.273 0.000549316 397.06 0.000549316 399.231C-0.0419922 401.401 1.7453 403.188 3.91559 403.188Z" fill="#2E5B9A"/>
<path d="M142.093 238.796C124.39 255.138 85.0261 270.628 85.0261 270.628C85.0261 270.628 79.0258 325.907 83.1111 357.185C87.1964 388.463 84.941 394.847 84.941 394.847H166.136C166.136 394.847 177.031 379.74 196.989 332.716C209.67 302.8 207.415 269.223 207.415 269.223L157.966 247.01L142.093 238.796Z" fill="#7E97C9"/>
<path fill-rule="evenodd" clip-rule="evenodd" d="M136.965 244.341C137.187 245.276 137.449 246.13 137.757 246.924L132.957 249.71C132.841 249.572 132.725 249.434 132.61 249.294L136.965 244.341ZM133.62 250.481L138.152 247.851C138.362 248.306 138.591 248.741 138.839 249.161L136.031 253.087C135.217 252.258 134.412 251.389 133.62 250.481ZM136.747 253.805C137.023 254.077 137.3 254.345 137.578 254.608L141.429 252.452C140.663 251.682 139.998 250.9 139.42 250.067L136.747 253.805ZM142.181 253.177L138.347 255.324C139.819 256.67 141.307 257.892 142.786 258.988L144.051 254.778C143.376 254.235 142.754 253.706 142.181 253.177ZM144.895 255.444C145.559 255.957 146.269 256.485 147.028 257.041L143.691 259.643C143.675 259.632 143.659 259.621 143.643 259.61L144.895 255.444ZM144.552 260.24L147.87 257.652C148.007 257.751 148.146 257.851 148.286 257.952L147.785 262.248C146.724 261.649 145.643 260.979 144.552 260.24ZM148.732 262.766C149.031 262.925 149.328 263.078 149.624 263.225L151.562 260.303C150.989 259.89 150.436 259.494 149.902 259.112C149.669 258.945 149.44 258.781 149.215 258.62L148.732 262.766ZM152.422 260.815L150.533 263.664C152.766 264.703 154.86 265.399 156.709 265.745L155.059 261.455C154.251 261.321 153.372 261.105 152.422 260.815ZM156.183 261.592C156.834 261.64 157.431 261.622 157.975 261.535V265.931C157.933 265.926 157.89 265.922 157.847 265.917L156.183 261.592ZM158.975 265.997V261.274C159.442 261.097 159.86 260.851 160.231 260.531L164.548 264.091C163.386 265.129 161.829 265.885 159.739 265.988C159.493 266 159.238 266.003 158.975 265.997ZM165.761 262.734L161.803 257.588L161.826 257.473L167.227 259.88C166.897 260.798 166.43 261.806 165.761 262.734ZM167.615 258.625L162.299 255.093L162.537 253.899L167.863 254.822C167.991 255.745 168.05 256.599 167.949 257.121C167.946 257.137 167.943 257.152 167.94 257.168C167.877 257.497 167.779 258.009 167.615 258.625ZM167.698 253.779C167.688 253.725 167.678 253.671 167.669 253.617L163.11 251.018L162.732 252.918L167.698 253.779ZM162.088 256.154L163.65 257.191L162.026 256.467L162.088 256.154ZM161.477 258.805L164.544 262.792L160.906 259.792C161.119 259.5 161.309 259.172 161.477 258.805ZM163.316 249.984L167.412 252.319C167.196 251.305 167.003 250.553 167.003 250.553L165.282 249.74H163.364L163.316 249.984ZM131.969 248.509L136.707 243.12C136.7 243.08 136.692 243.04 136.685 243L131 247.269C131.32 247.689 131.643 248.102 131.969 248.509Z" fill="#707E9A"/>
<path opacity="0.1" d="M166.137 394.805H84.9421C84.9421 394.805 87.1975 388.464 83.1122 357.144C79.7503 331.355 83.1972 289.353 84.559 275.31L91.9637 272.161C110.518 277.523 121.199 305.141 124.306 332.164C126.391 350.25 156.35 368.038 175.968 377.825C169.542 390.124 166.137 394.805 166.137 394.805Z" fill="black"/>
<path d="M186.052 182.071C195.839 203.859 184.094 224.073 184.434 223.222C184.775 222.371 169.625 186.411 169.625 186.411L186.052 182.071Z" fill="#733636"/>
<path d="M148.944 198.199L136.518 243.563C136.177 244.84 136.475 246.202 137.284 247.223C140.177 250.798 144.348 258.202 152.689 260.543C154.306 261.011 156.306 261.138 157.923 261.138C159.625 261.138 161.115 259.947 161.413 258.287L169.796 215.221L148.944 198.199Z" fill="#E9BB99"/>
<path opacity="0.1" d="M151.326 201.986L155.88 203.859L169.838 215.264L162.348 253.393C149.624 245.478 147.794 240.116 151.326 201.986Z" fill="black"/>
<path d="M149.414 218.242C152.18 233.179 166.861 241.698 173.189 241.698C179.517 241.698 190.65 228.668 189.331 209.306C188.31 194.114 180.82 177.602 169.798 180.07C158.776 182.539 146.691 203.306 149.414 218.242Z" fill="#E9BB99"/>
<path d="M174.324 217.997C174.129 217.998 173.896 217.998 173.701 217.958C170.427 217.442 168.434 213.129 169.169 208.093C169.517 205.774 170.411 203.655 171.695 202.135C173.057 200.535 174.732 199.774 176.33 200.052C179.604 200.568 181.596 204.881 180.862 209.917C180.166 214.594 177.364 217.994 174.324 217.997ZM175.708 201.571C174.734 201.572 173.721 202.133 172.826 203.173C171.737 204.453 170.959 206.292 170.65 208.331C170.07 212.368 171.555 216.042 173.894 216.439C176.232 216.796 178.762 213.716 179.342 209.679C179.922 205.642 178.437 201.968 176.098 201.571C175.981 201.571 175.864 201.571 175.708 201.571Z" fill="#F5F8FF"/>
<path d="M185.167 217.985C185.05 217.985 184.972 217.985 184.856 217.948C182.715 217.647 181.544 214.085 182.201 209.914C182.857 205.705 185.071 202.67 187.173 203.009C188.262 203.159 189.158 204.144 189.627 205.773C190.057 207.251 190.137 209.109 189.828 211.042C189.249 215.024 187.229 217.983 185.167 217.985ZM186.902 204.071C185.657 204.072 183.909 206.424 183.368 210.064C182.789 213.818 183.804 216.66 185.049 216.848C186.333 217.036 188.159 214.608 188.738 210.854C189.008 209.072 188.968 207.366 188.577 206.04C188.225 204.865 187.68 204.146 187.057 204.071C186.98 204.071 186.941 204.071 186.902 204.071Z" fill="#F5F8FF"/>
<path d="M171.238 205.001C171.16 205.001 171.082 205.001 171.043 204.961L145.54 197.536C145.149 197.417 144.914 196.979 145.031 196.58C145.148 196.182 145.577 195.942 145.967 196.061L171.471 203.486C171.861 203.605 172.096 204.043 171.979 204.442C171.863 204.761 171.551 205.001 171.238 205.001Z" fill="#F5F8FF"/>
<path d="M85.0261 270.585C68.5998 274.288 65.5358 307.651 60.2164 342.844C59.6207 346.887 56.429 381.186 56.429 381.186C56.429 381.186 56.1312 387.485 62.3868 390.591C67.7488 393.272 69.919 395.315 101.027 395.613C121.998 393.055 144.911 365.332 110.432 357.611C109.793 348.802 114.772 316.97 107.921 295.395C103.197 280.543 98.1331 272.756 91.7924 270.755C89.7498 270.075 87.4944 270.075 85.0261 270.585Z" fill="#7E97C9"/>
<path opacity="0.1" d="M152.562 395.4C137.837 395.613 117.624 395.826 101.07 395.655C69.9617 395.358 67.7914 393.315 62.4294 390.634C56.1312 387.485 55.8333 382.165 55.8333 382.165C55.8333 382.165 59.025 345.695 59.6208 341.653C63.0678 318.077 66.8126 291.14 75.4939 278.118C67.3232 302.076 66.0041 322.248 65.8764 330.886C65.7913 335.269 66.2169 341.227 67.4936 345.44C68.8979 350.079 72.515 352.972 78.1749 351.398C89.4946 348.249 103.623 354.845 103.623 354.845C103.623 354.845 92.9416 351.057 82.8985 354.547C72.8555 357.994 52.0885 380.931 74.728 389.4C81.5794 391.953 123.071 394.081 152.562 395.4Z" fill="black"/>
<path d="M133.325 369.108C133.325 369.108 129.809 362.237 122.56 362.237C115.311 362.237 99.4302 386.048 100.471 390.492C101.547 394.935 105.782 395.14 105.782 395.14L121.32 394.318L133.325 369.108Z" fill="#7288B5"/>
<path d="M182.903 398.762H299.079C300.824 398.762 302.271 397.315 302.271 395.57V394.634C302.271 392.889 300.824 391.442 299.079 391.442H182.903C181.158 391.442 179.711 392.889 179.711 394.634V395.57C179.711 397.315 181.158 398.762 182.903 398.762Z" fill="#2A2B2D"/>
<path d="M166.518 380.038C184.519 373.527 189.243 375.995 193.328 374.803C203.371 371.867 205.882 374.378 212.393 392.208C213.67 395.741 209.882 395.996 206.095 395.996C202.307 395.996 197.711 388.676 196.264 387.825C194.817 386.974 190.817 386.549 190.817 386.549C190.817 386.549 192.094 386.549 193.966 390.336C195.839 394.123 198.137 395.57 195.243 395.57C192.349 395.57 191.881 390.762 186.434 391.783C180.987 392.847 183.072 395.57 169.455 395.358C155.837 395.145 105.902 397.3 106.115 389.129C106.327 381.384 114.255 365.814 121.617 364.452C127.234 363.388 166.518 380.038 166.518 380.038Z" fill="#E9BB99"/>
<path d="M303.335 375.74H420.405C426.576 375.74 431.852 371.271 432.959 365.143L448.236 280.884C449.683 272.926 443.64 265.606 435.682 265.606H318.613C312.442 265.606 307.165 270.075 306.059 276.203L290.782 360.462C289.335 368.42 295.378 375.74 303.335 375.74Z" fill="#2A2B2D"/>
<path d="M297.888 360.761L313.464 278.246C314.613 272.246 319.974 267.863 326.273 267.863H445.215C447.725 270.757 448.96 274.714 448.194 278.885L432.406 364.931C431.257 371.187 425.809 375.74 419.426 375.74H310.697C302.569 375.74 296.399 368.549 297.888 360.761Z" fill="#67686B"/>
<path d="M326.103 387.017H348.316C352.274 387.017 355.508 383.484 355.508 379.144V338.504C355.508 331.567 360.615 325.95 366.913 325.95H378.531C384.829 325.95 389.936 331.567 389.936 338.504V383.995C389.936 391.783 384.191 398.081 377.084 398.038L316.443 397.613C316.443 391.74 320.783 387.017 326.103 387.017Z" fill="#2A2B2D"/>
<path d="M389.042 339.398V384.208C389.042 391.485 383.382 397.443 376.233 397.996L317.038 397.613C317.038 396.635 321.72 394.89 327.465 394.89H351.508C355.806 394.89 359.253 391.4 359.253 387.145V339.398C359.253 332.589 364.785 327.057 371.594 327.057H376.658C383.51 327.057 389.042 332.589 389.042 339.398Z" fill="#67686B"/>
<path d="M265.163 381.868C256.226 376.889 245.289 378.548 241.332 383.527C237.374 388.506 236.693 391.826 245.63 391.826C254.566 391.826 272.482 392.506 275.461 392.166C278.44 391.783 265.163 381.868 265.163 381.868Z" fill="#E9BB99"/>
<path d="M251.928 378.847C242.31 376.549 235.757 382.123 227.756 387.443C220.82 392.081 219.416 396.592 227.075 392.762C238.353 387.145 244.949 386.464 244.949 386.464L251.928 378.847Z" fill="#E9BB99"/>
<path d="M260.695 381.825C265.546 381.825 269.801 380.293 273.206 380.549C276.61 380.847 287.462 391.954 285.76 392.805C285.632 392.847 285.504 392.932 285.377 392.975C282.781 393.911 279.887 392.89 278.44 390.549C276.908 388.081 274.397 385.23 271.504 386.251C266.652 387.953 261.546 387.783 261.546 387.783L260.695 381.825Z" fill="#E9BB99"/>
<path d="M263.503 393.783C268.482 391.783 260.524 375.229 257.886 375.229C255.247 375.229 245.289 383.187 245.289 383.187C245.289 383.187 247.63 384.506 255.545 381.868C257.545 381.187 259.205 392.464 261.503 393.783C263.843 395.102 263.503 393.783 263.503 393.783Z" fill="#F0CBAF"/>
<path d="M150.774 213.562C150.774 213.562 147.753 218.2 143.667 224.03C143.284 224.583 140.603 228.158 140.476 226.967C138.561 210.625 130.05 205.561 132.092 189.05C133.582 176.879 139.652 175.26 139.652 175.26C139.652 175.26 146.306 167.687 161.838 168.836C172.823 168.331 186.515 175.74 189.64 182.22C192.764 188.699 176.668 192.344 172.555 192.344C168.442 192.344 157.053 197.089 157.053 199.62C157.053 202.151 156.679 205.112 156.391 206.795C156.103 208.479 154.349 217.009 154.349 217.009L150.774 213.562Z" fill="#885050"/>
<path opacity="0.1" d="M131.019 195.815L157.471 204C157.436 202.877 157.715 202.643 158 202.074L131.549 191C131.549 191 130.879 194.137 131.019 195.815Z" fill="#F5F8FF"/>
<path d="M141.156 212.37C142.476 216.966 145.752 219.945 148.433 219.009C151.114 218.072 151.2 214.328 150.902 209.008C150.604 204.199 146.306 201.433 143.625 202.37C140.901 203.306 139.837 207.774 141.156 212.37Z" fill="#E9BB99"/>
<path d="M85.0453 395.732C88.5426 395.732 101.446 395.732 106.551 395.732C111.657 395.732 115.194 355.213 109.767 355.213C104.34 355.213 89.5069 355.213 81.5481 355.213C79.527 355.213 78.5324 357.826 78.2306 361.725C78.1445 362.837 78.2117 368.032 78.2306 369.322C78.6541 372.578 78.6541 373.302 79.3776 378.005C79.6457 379.389 80.526 383.99 80.8247 385.266C82.2253 391.249 83.8821 395.732 85.0453 395.732Z" fill="#FA6C06"/>
<path d="M78.2306 369.322C78.2306 369.322 73.2274 367.875 74.3127 373.664C75.398 379.452 79.3776 378.005 79.3776 378.005C79.6457 379.389 80.526 383.99 80.8247 385.266C80.8247 385.266 72.5038 386.326 70.6949 374.387C68.886 362.448 78.2306 361.725 78.2306 361.725C78.1445 362.837 78.2117 368.032 78.2306 369.322Z" fill="#FA6C06"/>
<path opacity="0.1" d="M92.0317 345.083C92.7552 348.122 98.1819 352.68 98.1819 352.68C98.1819 352.68 92.0317 351.595 89.1374 345.083C86.2432 338.571 90.9467 339.656 92.7552 335.315C94.5638 330.973 92.0317 323.376 92.0317 323.376C92.0317 323.376 101.438 329.526 101.8 335.315C102.162 341.103 91.3081 342.044 92.0317 345.083Z" fill="#F5F8FF"/>
<path opacity="0.1" d="M96.3733 337.847C97.0968 340.886 98.9146 345.445 98.9146 345.445C98.9146 345.445 94.9098 344.359 92.0156 337.847C89.1213 331.335 95.6249 333.868 97.4334 329.526C99.2419 325.185 95.659 319.431 95.659 319.431C95.659 319.431 105.065 325.581 105.427 331.37C105.789 337.158 95.6497 334.808 96.3733 337.847Z" fill="#F5F8FF"/>
</svg>
