<svg width="0" height="0" class="hidden">
	<symbol viewBox="0 0 484 277" xmlns="http://www.w3.org/2000/svg" shape-rendering="geometricPrecision" fill-rule="evenodd" clip-rule="evenodd" id="arrow-down">
		<path d="M0 35L35 0l207 207L449 0l35 35-242 242L0 35z"/>
	</symbol>

	<symbol viewBox="0 0 204 344" xmlns="http://www.w3.org/2000/svg" shape-rendering="geometricPrecision" fill-rule="evenodd" clip-rule="evenodd" id="arrow-left">
		<path d="M63 172L204 32 172 0 0 172l172 172 32-32L63 172z"/>
	</symbol>

	<symbol viewBox="0 0 204 344" xmlns="http://www.w3.org/2000/svg" shape-rendering="geometricPrecision" fill-rule="evenodd" clip-rule="evenodd" id="arrow-right">
		<path d="M141 172L0 312l32 32 172-172L32 0 0 32l141 140z"/>
	</symbol>

	<symbol viewBox="0 0 252 250" xmlns="http://www.w3.org/2000/svg" shape-rendering="geometricPrecision" fill-rule="evenodd" clip-rule="evenodd" id="comment">
		<path d="M50 250l77-48h100c14 0 25-12 25-25V25c0-14-11-25-25-25H25C11 0 0 11 0 25v152c0 13 11 25 25 25h25v48zm70-73l-44 27v-27H25V25h202v152H120z"/><path d="M63 139v-25h88v25H63zM63 88V63h113v25H63z"/>
	</symbol>

	<symbol viewBox="0 0 250 250" xmlns="http://www.w3.org/2000/svg" shape-rendering="geometricPrecision" fill-rule="evenodd" clip-rule="evenodd" id="atomic">
		<path d="M237 237c23-24 16-67-12-112 28-44 35-88 12-111-24-23-67-16-112 12C81-2 37-9 14 14S-2 81 26 125c-28 45-35 88-12 112 23 23 67 16 111-12 45 28 88 35 112 12zm-19-19c11-11 7-38-9-69a324 324 0 01-60 60c31 16 58 20 69 9zM33 33c11-11 38-7 69 9a324 324 0 00-60 60c-16-31-20-58-9-69zm55 55c52-51 112-74 130-55 18 18-4 78-56 129-51 52-111 74-129 56-19-18 4-78 55-130z"/><path d="M26 125c4-8 10-16 16-23a268 268 0 00107 107l-24 16a304 304 0 01-99-100zM225 125l-16 24A268 268 0 00102 42c7-6 15-12 23-16a304 304 0 01100 99zM125 112a13 13 0 110 27 13 13 0 010-27z"/>
	</symbol>

	<symbol viewBox="0 0 250 250" xmlns="http://www.w3.org/2000/svg" shape-rendering="geometricPrecision" fill-rule="evenodd" clip-rule="evenodd" id="smile">
		<path d="M181 164l-19-13a45 45 0 01-74 0l-19 13a68 68 0 00112 0zM148 114V91h22v23h-22zM80 91v23h22V91H80z"/><path d="M125 250a125 125 0 110-250 125 125 0 010 250zm0-23a102 102 0 100-204 102 102 0 000 204z"/>
	</symbol>

	<symbol viewBox="0 0 250 250" xmlns="http://www.w3.org/2000/svg" shape-rendering="geometricPrecision" fill-rule="evenodd" clip-rule="evenodd" id="shine">
		<path d="M136 46a80 80 0 00-22 0V1a127 127 0 0122 0v45z"/><path d="M68 125a57 57 0 10114 0 57 57 0 00-114 0zm91 0a34 34 0 11-68 0 34 34 0 0168 0z"/><path d="M136 249v-45a80 80 0 01-22 0v45a126 126 0 0022 0zM204 114h45a126 126 0 010 22h-45a80 80 0 000-22zM45 125l1-11H1a127 127 0 000 22h45l-1-11zM173 61l32-32 16 16-32 32-16-16zM29 45l32 32 16-16-32-32-16 16zM189 173l32 32-16 16-32-32 16-16zM45 221l32-32-16-16-32 32 16 16z"/>
	</symbol>

	<symbol viewBox="0 0 250 250" xmlns="http://www.w3.org/2000/svg" shape-rendering="geometricPrecision" fill-rule="evenodd" clip-rule="evenodd" id="time">
		<path d="M136 68V23a102 102 0 11-83 30L37 36a125 125 0 0088 214 125 125 0 100-250h-11v68h22zm-11 34l-6 1-43-43-16 16 43 43a23 23 0 1022-17z"/>
	</symbol>

	<symbol viewBox="0 0 250 250" xmlns="http://www.w3.org/2000/svg" shape-rendering="geometricPrecision" fill-rule="evenodd" clip-rule="evenodd" id="tick">
		<path d="M162 83l-60 60-26-26-16 16 42 42 76-76-16-16z"/><path d="M125 250a125 125 0 110-250 125 125 0 010 250zm0-23a102 102 0 100-204 102 102 0 000 204z"/>
	</symbol>

	<symbol viewBox="0 0 250 105" xmlns="http://www.w3.org/2000/svg" shape-rendering="geometricPrecision" fill-rule="evenodd" clip-rule="evenodd" id="glasses">
		<path d="M10 52a10 10 0 110-21h5a52 52 0 0192-6c5-3 12-4 18-4s13 1 18 4a52 52 0 0192 6h5a10 10 0 110 21 52 52 0 11-104-5h-1c0-2-4-5-10-5s-10 3-10 5h-1l1 5a52 52 0 11-105 0zm53 31a31 31 0 100-62 31 31 0 000 62zm156-31a31 31 0 11-63 0 31 31 0 0163 0z"/>
	</symbol>

	<symbol viewBox="0 0 250 250" xmlns="http://www.w3.org/2000/svg" shape-rendering="geometricPrecision" fill-rule="evenodd" clip-rule="evenodd" id="world">
		<path d="M125 0a125 125 0 110 250 125 125 0 010-250zM23 113c4 4 13 9 27 14l18 4v-6c0-38 7-72 19-95-34 14-59 45-64 83zm47 42c-19-4-34-8-46-14 5 36 30 66 63 79-9-17-15-40-17-65zm23 3a358 358 0 0064-1c-5 41-19 70-32 70s-27-29-32-69zm66-24a265 265 0 01-68 1v-10c0-57 18-102 34-102s34 45 34 102v9zm21 20c-2 26-8 49-17 66 34-13 58-44 63-81-12 6-28 11-46 15zm46-42c-5 6-22 13-44 18v-5c0-38-7-72-19-95 34 14 59 45 63 82z"/>
	</symbol>

	<symbol viewBox="0 0 204 204" xmlns="http://www.w3.org/2000/svg" shape-rendering="geometricPrecision" fill-rule="evenodd" clip-rule="evenodd" id="gear">
		<path d="M168 90l-1-6-7-15-2-5 16-22-12-12-22 16-5-2-15-7-6-1-3-27H93l-3 27-6 1-15 7-5 2-22-16-12 12 16 22-2 5-7 15-1 6-27 3v18l27 3 1 6 7 15 2 5-16 22 12 12 22-16 5 2 15 7 6 1 3 28h18l3-28 6-1 15-7 5-2 22 16 12-12-16-22 2-5 7-15 1-6 28-3V93l-28-3zm33 28l-26 4-7 18 16 20c1 2 1 4-1 5l-18 18a3 3 0 01-5 1l-20-16-18 7-4 26c0 2-1 3-3 3H89c-2 0-3-1-3-3l-4-26-18-7-20 16h-2l-3-1-18-18c-2-1-2-3-1-5l16-20-7-18-26-4c-2 0-3-1-3-3V89c0-2 1-3 3-3l26-4 7-18-16-20c-1-2-1-4 1-5l18-18c1-2 3-2 5-1l20 16 18-7 4-26c0-2 1-3 3-3h26c2 0 3 1 3 3l4 26 18 7 20-16c2-1 4-1 5 1l18 18c2 1 2 3 1 5l-16 20 7 18 26 4c2 0 3 1 3 3v26c0 2-1 3-3 3zm-35 59zm-128 0zM166 27zm-64 113a38 38 0 110-76 38 38 0 010 76zm-30-38a30 30 0 1060 0 30 30 0 00-60 0z"/>
	</symbol>

	<symbol viewBox="0 0 205 250" xmlns="http://www.w3.org/2000/svg" shape-rendering="geometricPrecision" fill-rule="evenodd" clip-rule="evenodd" id="lock">
		<path d="M91 136a11 11 0 1023 0 11 11 0 00-23 0z"/><path d="M136 91c13 0 23 10 23 23v45c0 13-10 23-23 23H68c-12 0-23-10-23-23v-45c0-13 11-23 23-23V68a34 34 0 0168 0v23zm-22-23v23H91V68a11 11 0 0123 0zm-46 91v-45h68v45H68z"/><path d="M0 159c0 30 34 61 102 91 68-30 103-61 103-91v-25-89c0-8-4-10-13-16l-10-6c-17-12-46-23-80-23-39 0-77 22-79 23l-10 6C3 35 0 37 0 45v114zm182-14v14c0 17-25 41-80 66-54-25-79-49-79-66V50l1-1 11-7c11-7 43-19 67-19 26 0 50 7 67 19l11 7 2 1a13896 13896 0 010 73v22z"/>
	</symbol>

	<symbol viewBox="0 0 250 225" xmlns="http://www.w3.org/2000/svg" shape-rendering="geometricPrecision" fill-rule="evenodd" clip-rule="evenodd" id="portfolio">
		<path d="M100 0h50c14 0 25 11 25 25v13h50c14 0 25 11 25 25v137c0 14-11 25-25 25H25c-14 0-25-11-25-25V63c0-14 11-25 25-25h50V25c0-14 11-25 25-25zM25 63h200v62H25V63zm0 137v-50h88v13h25v-13h87v50H25zM150 25v13h-50V25h50z"/>
	</symbol>

	<symbol viewBox="0 0 250 250" xmlns="http://www.w3.org/2000/svg" shape-rendering="geometricPrecision" fill-rule="evenodd" clip-rule="evenodd" id="share">
		<path d="M150 50l1 10-63 32a50 50 0 00-88 33 50 50 0 0088 33l63 32a50 50 0 0049 60 50 50 0 10-38-83l-63-32a50 50 0 000-20l63-32a50 50 0 0088-33 50 50 0 00-100 0zm-75 75a25 25 0 11-50 0 25 25 0 0150 0zm125-50a25 25 0 100-50 25 25 0 000 50zm25 125a25 25 0 11-50 0 25 25 0 0150 0z"/>
	</symbol>

	<symbol viewBox="0 0 246 246" xmlns="http://www.w3.org/2000/svg" shape-rendering="geometricPrecision" fill-rule="evenodd" clip-rule="evenodd" id="gear-filled">
		<path d="M243 103l-32-4c-2-8-5-15-9-21l20-26c1-1 1-3-1-5l-22-22c-2-2-4-2-5-1l-26 20c-6-4-13-7-21-9l-4-32c0-2-2-3-4-3h-32c-2 0-4 1-4 3l-4 32c-8 2-15 5-21 9L52 24c-1-1-3-1-5 1L25 47c-2 2-2 4-1 5l20 26c-4 6-7 13-9 21l-32 4c-2 0-3 2-3 4v32c0 2 1 4 3 4l32 4c2 8 5 15 9 21l-20 26c-1 1-1 3 1 5l22 22a4 4 0 005 1l26-20c6 4 13 7 21 9l4 32c0 2 2 3 4 3h32c2 0 4-1 4-3l4-32c8-2 15-5 21-9l26 20h2l3-1 22-22c2-2 2-4 1-5l-20-26c4-6 7-13 9-21l32-4c2 0 3-2 3-4v-32c0-2-1-4-3-4zm-120 56a36 36 0 110-72 36 36 0 010 72z"/>
	</symbol>

	<symbol viewBox="0 0 248 272" xmlns="http://www.w3.org/2000/svg" shape-rendering="geometricPrecision" fill-rule="evenodd" clip-rule="evenodd" id="person">
		<path d="M124 130.8A53.8 53.8 0 00177.6 77V65.2c0-29.7-24-53.8-53.6-53.8a53.8 53.8 0 00-53.6 53.8V77c0 29.7 24 53.8 53.6 53.8zM189 77a65 65 0 01-64.9 65 65 65 0 01-64.8-65V65.2A65 65 0 01124 .2a65 65 0 0164.9 65V77zM210.9 189.3a307.7 307.7 0 00-173.7 0m173.7 0a35.7 35.7 0 0125.7 34.6v36.9H11.5v-37c0-16 10.3-29.9 25.7-34.5m86.8-23.7c38.7 0 70.3 7 90 13a47 47 0 0133.8 45.3V266c0 3.3-2.6 5.9-5.9 5.9H6.1a5.9 5.9 0 01-5.9-6V224A47 47 0 0134 178.6a319 319 0 0190.1-13z"/>
	</symbol>

	<symbol viewBox="0 0 294 323" xmlns="http://www.w3.org/2000/svg" shape-rendering="geometricPrecision" fill-rule="evenodd" clip-rule="evenodd" id="person-filled">
		<path d="M147 168c42 0 77-34 77-77V77a77 77 0 00-154 0v14c0 43 35 77 77 77zM254 212a379 379 0 00-214 0c-24 7-40 29-40 54v50c0 4 3 7 7 7h280c4 0 7-3 7-7v-50c0-25-16-47-40-54z"/>
	</symbol>

	<symbol viewBox="0 0 278 278" xmlns="http://www.w3.org/2000/svg" shape-rendering="geometricPrecision" fill-rule="evenodd" clip-rule="evenodd" id="bulb">
		<path d="M105 242l-1-3-3-1c-8-3-13-10-13-18v-2h102v2c0 8-5 15-13 18l-3 1-1 3c-3 17-17 30-34 30s-31-13-34-30zM119 8h0c-34 7-62 35-70 70l70-70zm0 0a92 92 0 01112 90c0 22-8 44-23 60h0c-8 10-14 21-16 32H86c-2-11-7-22-15-31h0M119 8L71 159m0 0a92 92 0 01-22-81l22 81z" stroke="#6C67AB" stroke-width="11.5"/><path d="M25 98H9a8 8 0 000 16h16a8 8 0 000-16zM28 57L17 46c-3-4-9-4-12 0-3 3-3 8 0 11l12 12c3 3 8 3 11 0 3-4 3-9 0-12zM28 143c-3-3-8-3-11 0L5 155c-3 3-3 8 0 11 3 4 9 4 12 0l11-11c3-3 3-9 0-12zM270 98h-17a8 8 0 000 16h17a8 8 0 000-16zM273 46c-3-4-8-4-12 0l-11 11c-3 3-3 8 0 12 3 3 8 3 11 0l12-12c3-3 3-8 0-11zM273 155l-12-12c-3-3-8-3-11 0s-3 9 0 12l11 11c4 4 9 4 12 0 3-3 3-8 0-11z"/>
	</symbol>

	<symbol viewBox="0 0 508 494" xmlns="http://www.w3.org/2000/svg" shape-rendering="geometricPrecision" fill-rule="evenodd" clip-rule="evenodd" id="branches">
		<path d="M287.9 114.2l-13.4-14-12.1 11.4 9.6 13.7 15.9-11.1zm-89.7 1l16.2 10.8 9.2-13.9-12.3-11.2-13 14.4zm-55.8 84l-9.4 17 15.7 8.6 9.9-14.8-16.2-10.8zm-63 116l18 7.4 6.6-16.2-15.3-8.2-9.3 17zM52 382.4l-3.2 19.2 15.3 2.5 6-14.3-18-7.4zm18 7.4l-18-7.3-5.8 14.3 12.6 8.9L70 389.8zm27.7-68l3.8-19-15.7-3.1-6 14.8 18 7.3zm26 0l18-7.3-6.2-14.8-15.7 3.1 3.8 19zm27.7 68l11.1 15.9 12.7-9-5.9-14.2-18 7.3zm18-7.4l-18 7.4 5.8 14.3 15.3-2.5-3.2-19.2zm-27.5-67.2l-9.2-17-15.4 8.3 6.6 16 18-7.3zM158 211l-16.2-10.7-8.7 13 11 11.2 13.9-13.5zm56.5-85l8.3-17.5-15.2-7.2-9.3 14 16.2 10.8zm57.6-.6l16-11.2-9.7-13.7-15 7.5 8.7 17.4zm58 82.7l13.1 14.4 12.7-11.6-9.8-14-16 11.2zm17 109.1l17.6 8 8-17.6-17.6-8-8 17.6zm-29.8 65.5l-4 19 15.3 3.2 6.4-14.1-17.7-8zm17.7 8l-17.7-8-6.4 14.2 12.3 9.3 11.8-15.4zm30.9-68.1l2.5-19.3-14.3-1.8-5.9 13 17.7 8zm25.8-1.8l18.3-6.6-6.1-16.9-17.3 4.8 5.1 18.7zm24.7 68l10.6 16.3 13-8.4-5.3-14.5-18.3 6.6zm18.3-6.6l-18.3 6.6 5.3 14.6 15.4-2-2.4-19.2zm-25.2-69.3L399 296.5 386 305l5.3 14.6 18.2-6.6zm-63.2-115.6l-15.8 11.1 9.3 13.4 14.8-7-8.3-17.5zM289 66.3c0 13.3-5.5 25.3-14.4 33.8l26.8 28.1a85.3 85.3 0 0026.4-61.9H289zm-46.5-46.6A46.5 46.5 0 01289 66.3h38.8A85.4 85.4 0 00242.4-19v38.8zM196 66.3a46.5 46.5 0 0146.4-46.6V-19a85.4 85.4 0 00-85.3 85.4H196zm15.3 34.6A46.5 46.5 0 01196 66.3H157a85.4 85.4 0 0028 63.4l26.2-28.8zm-52.7 109l55.8-83.9-32.4-21.5-55.8 84 32.4 21.5zm-48 .6a46 46 0 0122.4 5.7l18.8-34a84.9 84.9 0 00-41.1-10.6v38.9zM64.3 257a46.5 46.5 0 0146.5-46.6v-38.9a85.4 85.4 0 00-85.3 85.5h38.8zm24.5 41a46.6 46.6 0 01-24.5-41H25.4a85.5 85.5 0 0044.8 75.2l18.5-34.1zM70 389.9l27.4-67.2-36-14.7-27.3 67.2 36 14.7zm-25.2 11.5c1.4 0 2.7 0 4 .3l6.4-38.3c-3.4-.6-6.9-.9-10.4-.9v38.9zm-24.5 24.6c0-13.7 11-24.6 24.5-24.6v-38.9c-35 0-63.3 28.5-63.3 63.5h38.8zm24.5 24.6c-13.5 0-24.5-11-24.5-24.6h-38.8c0 35 28.3 63.4 63.3 63.4v-38.8zm24.5-24.6c0 13.6-11 24.6-24.5 24.6v38.8c35 0 63.3-28.4 63.3-63.4H69.3zm-10.5-20.2a24.6 24.6 0 0110.5 20.2h38.8a63.4 63.4 0 00-27-52l-22.3 31.8zm21-91.2l-27.8 68L88 397l27.7-68-36-14.6zm30.9-10.8c-3.2 0-6.2-.3-9.2-.9l-7.6 38c5.5 1.2 11 1.7 16.8 1.7v-38.8zm9.1-.9c-3 .6-6 .9-9.1.9v38.8c5.7 0 11.3-.5 16.7-1.6l-7.6-38.1zm49.5 79.7l-27.7-68-36 14.7 27.8 68 36-14.7zm-17.2 43.4c0-8.4 4-15.7 10.4-20.2l-22.3-31.8a63.4 63.4 0 00-27 52h38.9zm24.5 24.6c-13.5 0-24.5-11-24.5-24.6h-38.9c0 35 28.3 63.4 63.4 63.4v-38.8zm24.5-24.6c0 13.6-11 24.6-24.5 24.6v38.8c35 0 63.3-28.4 63.3-63.4h-38.8zm-24.5-24.6c13.4 0 24.5 11 24.5 24.6h38.8c0-35-28.3-63.5-63.3-63.5v38.9zm-4 .3c1.2-.2 2.6-.3 4-.3v-38.9c-3.6 0-7 .3-10.5.9l6.4 38.3zm-48.7-79l27.4 67.2 36-14.7-27.4-67.2-36 14.7zm33.2-65.5c0 17.7-9.8 33.2-24.4 41l18.4 34.2a85.5 85.5 0 0044.9-75.2H157zM144 224.5a46.5 46.5 0 0113.2 32.6H196c0-23.2-9.3-44.2-24.2-59.6l-27.9 27zm54.3-109.2l-56.5 85 32.3 21.5 56.5-85-32.3-21.5zm44.2-2.3a46 46 0 01-19.7-4.5L206 143.6a85 85 0 0036.4 8.2V113zm20.9-5a46 46 0 01-20.9 5v38.8c13.8 0 26.8-3.3 38.4-9.1L263.3 108zM346 197l-58-82.7-31.9 22.3 58 82.7L346 197zM327.7 257c0-13.8 6-26 15.4-34.6l-26-28.8a85.4 85.4 0 00-28.2 63.4h38.8zm27.3 42.4a46.6 46.6 0 01-27.3-42.4H289a85.5 85.5 0 0050 77.8l16-35.4zm-20.1 91.3l29.7-65.6-35.4-16-29.7 65.5 35.4 16zm-26.6 10.5c1.7 0 3.4.1 5 .5l7.8-38c-4.1-1-8.4-1.4-12.8-1.4v38.9zm-24.5 24.6c0-13.7 11-24.6 24.5-24.6v-38.9c-35 0-63.3 28.5-63.3 63.5h38.8zm24.5 24.6c-13.5 0-24.5-11-24.5-24.6H245c0 35 28.3 63.4 63.3 63.4v-38.8zm24.5-24.6c0 13.6-11 24.6-24.5 24.6v38.8c35 0 63.4-28.4 63.4-63.4h-38.9zm-9.7-19.7c6 4.6 9.7 11.7 9.7 19.7h38.9c0-20.7-9.9-39-25-50.6l-23.6 31zm25-91.6l-31 68.2 35.5 16 30.9-68.2-35.4-16zm26.1-10.9c-2 0-4-.1-6-.4l-4.9 38.6c3.6.4 7.2.6 10.9.6v-38.8zm12.3-1.6c-3.9 1-8 1.6-12.3 1.6v38.8c7.8 0 15.4-1 22.6-3l-10.3-37.4zm48 80.1l-24.6-68-36.5 13.2 24.7 68 36.5-13.2zm-19 43.7c0-8.7 4.5-16.4 11.4-20.8l-21.1-32.6a63.4 63.4 0 00-29 53.4h38.8zm24.6 24.6c-13.5 0-24.5-11-24.5-24.6h-38.9c0 35 28.4 63.4 63.4 63.4v-38.8zm24.5-24.6c0 13.6-11 24.6-24.5 24.6v38.8c35 0 63.3-28.4 63.3-63.4h-38.8zM440 401.3c13.5 0 24.5 11 24.5 24.6h38.8c0-35-28.3-63.5-63.3-63.5v38.9zm-3.1.1l3-.1v-38.9c-2.6 0-5.2.2-7.9.5l4.9 38.5zm-45.8-81.9l25.1 69.3 36.5-13.2-25.1-69.3-36.5 13.2zm29.5-62.4c0 16.6-8.6 31.1-21.7 39.4l20.8 32.8a85.4 85.4 0 0039.7-72.2h-38.8zm-46.5-46.6a46.5 46.5 0 0146.5 46.6h38.8a85.4 85.4 0 00-85.3-85.5v38.9zm-19.7 4.3a46 46 0 0119.7-4.3v-38.9a85 85 0 00-36.2 8.1l16.5 35.2zM272 125.3l58.4 83.1 31.7-22.3-58.3-83.1-31.8 22.3z"/>
	</symbol>

	<symbol viewBox="0 0 508 494" xmlns="http://www.w3.org/2000/svg" shape-rendering="geometricPrecision" fill-rule="evenodd" clip-rule="evenodd" id="branches-filled">
		<path d="M302 120a69 69 0 10-94 1l-59 88a69 69 0 10-66 122l-28 71-8-1a46 46 0 1026 8l30-71a69 69 0 0027 0l29 71a46 46 0 1019-7l-29-71a69 69 0 0017-109l59-89a69 69 0 0060-1l61 87a69 69 0 0018 114l-31 69a46 46 0 1018 9l33-72a70 70 0 0027-2l26 71a46 46 0 1019-7l-26-72a69 69 0 00-67-122l-61-87z"/>
	</symbol>

	<symbol viewBox="0 0 284 269" xmlns="http://www.w3.org/2000/svg" shape-rendering="geometricPrecision" fill-rule="evenodd" clip-rule="evenodd" id="pamm">
		<path d="M141.8 66.8l5.5-1a27.6 27.6 0 00-5.5-54.7 27.5 27.5 0 00-5.5 54.6l5.5 1.1zm7.3 113.5c.3-.8.4-1.5.4-2.4V76.6a38.7 38.7 0 10-15.5 0v101.3a7.7 7.7 0 007.8 7.8c3.4 0 6.3-2.3 7.3-5.4zm4.4 12.3a38.5 38.5 0 00-50.3 36.9 38.6 38.6 0 1050.3-36.9zM46.7 180.4a8 8 0 00.5-2.8V62.4c0-6.1 5-11 11-11h32.2a7.6 7.6 0 005.7-12.7 7.6 7.6 0 00-5.7-2.6H42.2c-6.1 0-11 5-11 11.1v130.4a8 8 0 0015.5 2.8zm4.2 12.3a38.4 38.4 0 00-11.7-1.9h-.3A38.5 38.5 0 00.3 229.5a38.6 38.6 0 1050.6-36.8zM191.4 36.3a7.6 7.6 0 001.7 15h32.1c6.2 0 11.1 5 11.1 11.1v115.2a8 8 0 008.4 8 8 8 0 007.7-8V47.2c0-6.1-5-11-11.1-11H193l-1.7.1zm64.9 156.3a38.5 38.5 0 00-11.6-1.8h-.3a38.5 38.5 0 00-38.3 38.7 38.6 38.6 0 1050.2-36.9zm-114.5 64.5a27.5 27.5 0 10-.1-55.1 27.5 27.5 0 000 55zm102.9 0a27.5 27.5 0 10-.1-55.1 27.5 27.5 0 000 55zm-205.8 0a27.5 27.5 0 10-.1-55.1 27.5 27.5 0 000 55z"/>
	</symbol>

	<symbol viewBox="0 0 279 265" xmlns="http://www.w3.org/2000/svg" shape-rendering="geometricPrecision" fill-rule="evenodd" clip-rule="evenodd" id="pamm-filled">
		<path d="M147 75.4a38 38 0 10-15.2 0v99.9a7.6 7.6 0 0015.2 0V75.4zm-116.6-29c0-6 4.9-10.8 11-10.8h47.4a7.5 7.5 0 110 15H57.2c-6 0-11 4.8-11 10.9V175a8 8 0 11-15.8 0V46.5zm218 0c0-6-5-10.8-11-10.8H190a7.5 7.5 0 000 15h31.6c6 0 11 4.8 11 10.9V175a8 8 0 1015.8 0V46.5zm-71 179.7a38 38 0 11-76.1 0 38 38 0 0176.1 0zm63.4 38a38 38 0 10-.1-76 38 38 0 000 76zM76 226.2a38 38 0 11-76 0 38 38 0 0176 0z"/>
	</symbol>

	<symbol viewBox="0 0 206 272" xmlns="http://www.w3.org/2000/svg" shape-rendering="geometricPrecision" fill-rule="evenodd" clip-rule="evenodd" id="mobile">
		<path d="M0 45h-11v18l16-7-5-11zm147 0l-4 11 16 7V45h-12zM0 227l5-11-16-7v18H0zm147 0h12v-18l-16 7 4 11zm49-132l10-6-10 6zm8 14l10-5-10 5zm-20-17l-5-10 5 10zm-9 5l-8 9 6 5 8-4-6-10zm-16-9h-11v8l7 3 4-11zm-33 0l4 11 8-3v-8h-12zm-15 9l-6 10 7 4 6-5-7-9zm-10-5l6-10-6 10zm-11 3l10 5-10-5zm-8 14l9 6-9-6zm3 12l5-10-5 10zm9 6l11 2 2-8-7-4-6 10zm0 18l6 10 7-4-2-8-11 2zm-9 6l5 10-5-10zm-3 12l-10 5 10-5zm8 14l-10 6 10-6zm11 3l6 10-6-10zm10-5l7-9-6-5-7 4 6 10zm15 9h12v-8l-8-3-4 11zm33 0l-4-11-7 3v8h11zm16-9l6-10-8-4-6 5 8 9zm9 5l-5 10 5-10zm12-3l10 6-10-6zm8-14l-10-6 10 6zm-3-12l-6 10 6-10zm-10-6l-11-2-1 8 7 4 5-10zm0-18l-5-10-7 4 1 8 11-2zm10-6l-6-10 6 10zM0 217h11v-11H0v11zm0 0h-11v12H0v-12zM144 57v11h12V57h-12zm-32 24l-6 10 17 10V81h-11zm0 0l5-10-5 10zm-33 9l10 6-10-6zm-8 14l10 5-10-5zm-3 18l-11 3 11-3zm12 15l-6 10 6-10zm0 0l6 10 17-10-17-10-6 10zm0 0l5 10-5-10zm-12 15l11 3-11-3zm3 18l-10 6 10-6zm8 14l10-6-10 6zm33 9l5 10-5-10zm0 0h11v-20l-17 10 6 10zm32 24h12v-11h-12v11zM-11 33v12h22V33h-22zm36-44C13-11 4-5-2 3s-9 19-9 30h22c0-7 2-13 5-16 3-4 6-6 9-6v-22zm98 0H25v22h98v-22zm36 44c0-11-4-22-10-30s-15-14-26-14v22c2 0 5 2 8 6 3 3 5 9 5 16h23zm0 12V33h-23v12h23zm-20 10l4 1 9-21c-4-2-8-3-13-3v23zM8 55h131V32H8v23zm-3 1l3-1V32c-5 0-9 1-13 3L5 56zm-16 183c0 11 3 22 9 30s15 14 27 14v-22c-3 0-6-2-9-6-3-3-5-9-5-16h-22zm0-12v12h22v-12h-22zm19-10l-3-1-10 21c4 2 8 3 13 3v-23zm131 0H8v23h131v-23zm4-1l-4 1v23c5 0 9-1 13-3l-9-21zm16 23v-12h-23v12h23zm-36 44c11 0 20-6 26-14s10-19 10-30h-23c0 7-2 13-5 16-3 4-6 6-8 6v22zm-98 0h98v-22H25v22zm161-183l8 15 20-11-8-15-20 11zm4 1c-1 1-3 1-4-1l20-11c-6-9-18-13-27-7l11 19zm-9 6l9-6-11-19-10 6 12 19zm-26-8c5 1 9 4 12 7l15-17c-5-5-12-9-19-12l-8 22zm-7-22v11h23V77h-23zm3 2c-2 0-3-1-3-2h23c0-11-9-20-20-20v22zm-16 0h16V57h-16v22zm3-2c0 1-1 2-3 2V57c-12 0-20 9-20 20h23zm0 11V77h-23v11h23zm-20 18c4-3 8-6 12-7l-8-22c-7 3-13 7-19 12l15 17zm-23-5l10 6 12-19-10-6-12 19zm5-1c-1 2-3 2-5 1l12-19c-10-6-22-2-27 7l20 11zm-9 15l9-15-20-11-8 15 19 11zm-1-4c2 1 2 3 1 4l-19-11c-6 9-3 21 7 27l11-20zm10 6l-10-6-11 20 9 5 12-19zm5 19v-7l-22-4-1 11h23zm0 7v-7H82l1 11 22-4zm-15 18l10-6-12-19-9 5 11 20zm1-4c1 1 1 3-1 4l-11-20c-10 6-13 18-7 27l19-11zm9 15l-9-15-19 11 8 15 20-11zm-5-1c2-1 4-1 5 1l-20 11c5 9 17 13 27 7l-12-19zm10-6l-10 6 12 19 10-6-12-19zm25 8c-4-1-8-4-12-7l-15 17c6 5 12 9 19 12l8-22zm8 23v-12h-23v12h23zm-3-3c2 0 3 1 3 3h-23c0 10 8 19 20 19v-22zm16 0h-16v22h16v-22zm-3 3c0-2 1-3 3-3v22c11 0 20-9 20-19h-23zm0-12v12h23v-12h-23zm19-18c-3 3-7 6-12 7l8 22c7-3 14-7 19-12l-15-17zm23 5l-9-6-12 19 10 6 11-19zm-4 1c1-2 3-2 4-1l-11 19c9 6 21 2 27-7l-20-11zm8-15l-8 15 20 11 8-15-20-11zm1 4c-1-1-2-3-1-4l20 11c5-9 2-21-7-27l-12 20zm-9-6l9 6 12-20-10-5-11 19zm-5-19l-1 7 22 4 2-11h-23zm-1-7l1 7h23l-2-11-22 4zm15-18l-9 6 11 19 10-5-12-20zm-1 4c-1-1 0-3 1-4l12 20c9-6 12-18 7-27l-20 11zm-76 21l1 9c0 3 2 7 4 10 6 6 14 7 20 7v-23a33 33 0 01-4 0l1 1 1 1v-2-3h-23zm25-25c-6 0-13 0-19 6-5 5-6 13-6 19h23v-4l-1 1h-1 4v-22zm24 25c0-6 0-14-6-19-5-6-13-6-18-6v22h2v-1 4h22zm-24 26c5 0 13-1 19-7 3-3 4-7 5-10v-9h-22a47 47 0 010 5v-1l2-1h-4v23zm-154 55c0 11 8 20 19 20v-23c2 0 3 2 3 3h-22zm11 12v-23 23zM-11 57v160h22V57h-22zM8 37c-11 0-19 9-19 20h22c0 2-1 3-3 3V37zm128 0H8v23h128V37zm20 20c0-11-9-20-20-20v23c-2 0-3-1-3-3h23zm-20 11h8V45h-8v23zm-13 13c0-7 6-13 13-13V45c-19 0-35 16-35 36h22zm0 0h-22 22zm-17 10l12-19-1-1-11 20zm-6-2l6 2 11-20c-5-3-11-4-17-4v22zm-11 7c2-4 6-7 11-7V67c-13 0-25 6-31 17l20 12zm-8 13l8-13-20-12-8 14 20 11zm-2 10c-1-3 0-7 2-10L61 98c-5 8-6 18-4 27l22-6zm6 8c-3-2-5-4-6-8l-22 6c3 9 9 17 17 22l11-20zm1 0h-1l-11 20 12-20zm-1 20h1l-12-20v1l11 19zm-6 8c1-3 3-6 6-8l-11-19c-8 4-14 12-17 21l22 6zm2 10c-2-3-3-7-2-10l-22-6c-2 9-1 19 4 27l20-11zm8 13l-8-13-20 11 8 14 20-12zm11 7c-5 0-9-3-11-7l-20 12c6 11 18 18 31 18v-23zm6-2l-6 2v23c6 0 12-2 17-5l-11-20zm0 0l11 20 1-1-12-19zm17 10h-22 22zm13 13c-7 0-13-6-13-13h-22c0 20 16 36 35 36v-23zm8 0h-8v23h8v-23zm-8 31c11 0 20-9 20-20h-23c0-1 1-3 3-3v23zM8 237h128v-23H8v23z"/>
	</symbol>

	<symbol viewBox="0 0 206 274" xmlns="http://www.w3.org/2000/svg" shape-rendering="geometricPrecision" fill-rule="evenodd" clip-rule="evenodd" id="mobile-filled">
		<path d="M123 221H8c-1 0-2-1-2-3V57l2-2h115c-7 3-13 10-15 19a30 30 0 00-34 13s0 0 0 0l-8 14s0 0 0 0l57 120zm0 0c-7-4-13-11-15-19l15 19zm19-183H6v-5c0-8 2-15 6-20 3-5 8-7 13-7h98c5 0 9 2 13 7s6 12 6 20v5zM6 240v-5h136v5c0 8-2 15-6 20s-8 7-13 7H25c-5 0-10-2-13-7-4-5-6-12-6-20zM192 98l8 15s0 0 0 0c1 1 0 3-1 4h0l-10 5-3 2 1 4a47 47 0 010 17l-1 4 3 2 10 6h0c1 0 2 2 1 4l5 2-5-2-8 14c-1 2-3 2-4 1 0 0 0 0 0 0l-10-5-3-3-3 3c-4 4-9 6-14 8l-4 2v15c0 2-1 3-2 3h-17c-1 0-2-1-2-3v-15l-4-2c-5-2-10-4-14-8l-3-3-4 3-9 5c-2 1-3 1-4-1l-8-14c-1-2 0-4 1-4h0l10-6 3-2-1-4a47 47 0 010-17l1-4-3-2-10-5h0c-1-1-2-3-1-4h0l8-15h0c1-2 2-2 4-1 0 0 0 0 0 0l9 6 4 2 3-3c4-4 9-6 14-8l4-2V77c0-2 1-3 2-3h17c1 0 2 1 2 3v15l4 2c5 2 10 4 14 8l3 3 3-2 10-6s0 0 0 0c1-1 3-1 4 1zm-68 39l1 8c0 2 1 5 3 7 4 4 10 5 15 5 6 0 12-1 16-5 2-2 2-5 3-7l1-8c0-6-1-12-5-16s-9-4-15-4c-5 0-10 0-14 4s-5 10-5 16z"/>
	</symbol>

	<symbol viewBox="0 0 760 760" xmlns="http://www.w3.org/2000/svg" shape-rendering="geometricPrecision" fill-rule="evenodd" clip-rule="evenodd" id="call">
		<path d="M0 380a379 379 0 11759 0 379 379 0 01-759 0zm268-189a3 3 0 01-3-1l-26 6c-10 3-19 10-25 19-9 11-14 24-19 37-5 15-7 30-4 46 2 13 7 26 11 39a335 335 0 0096 144c20 19 42 36 66 50 26 16 55 26 84 35 15 5 31 6 47 3 17-4 33-10 48-21 5-3 10-8 14-13 9-13 11-28 12-43 1-6-1-9-6-12l-25-15c-16-10-33-17-48-28l-5-2c-5-3-11-3-16 1l-7 7-26 29c-9 11-14 12-26 5l-38-23c-32-22-57-50-76-82l-15-27c-3-6-2-12 2-16l19-17 22-20c4-5 5-12 1-18l-5-8-5-8-19-34-17-28c-2-4-6-5-11-5z"/>
	</symbol>

	<symbol viewBox="0 0 576 576" xmlns="http://www.w3.org/2000/svg" shape-rendering="geometricPrecision" fill-rule="evenodd" clip-rule="evenodd" id="qq">
		<path d="M0 288a288 288 0 11576 0 288 288 0 01-576 0zm175-40l-2-2c-2 0-6 11-7 21l-4 18 1 4c-6 7-12 16-16 25-17 34-15 68-4 74 5 2 19-7 33-23 2 20 12 38 27 53-24 7-40 21-38 35 3 17 33 29 67 25 26-3 47-14 54-26h12c7 12 28 23 53 27 33 4 62-7 64-25 2-14-14-28-38-35 15-14 25-32 28-52 12 17 25 28 31 26 8-1 13-37-1-72-4-9-8-18-13-25v-1c3-2 0-12-3-22-3-9-10-17-10-17l-2 2a119 119 0 00-115-152 119 119 0 00-117 142z"/><path fill-rule="evenodd" clip-rule="evenodd" d="M206 295c-7 15-11 32-11 49 0 58 44 106 98 106s98-48 98-106c0-17-4-33-11-48-50 26-141 7-174-1M284 197c0 16-10 29-23 29s-24-13-24-29 11-29 24-29 23 13 23 29zm-4 0c0-10-6-18-14-18s-15 8-15 18 7 18 15 18 14-8 14-18zM351 197c0 16-10 29-23 29s-24-13-24-29 11-29 24-29 23 13 23 29zm-35 5a3 3 0 003-4v-1c0-5 3-8 6-8 4 0 7 3 7 8v1a3 3 0 105 1l1-2c0-8-6-14-13-14-6 0-12 6-12 14l1 2a3 3 0 002 3zM296 234c33 0 61 7 77 18-4 8-15 14-25 21-14 9-41 16-52 16s-35-5-49-13c-12-7-23-14-27-23 15-12 44-19 76-19zm-65 14c4 3 20 16 36 25 3 2 13 9 18 10 22 5 32-4 42-10l36-26s-20 14-39 20c-11 4-39 6-58 1-17-5-35-20-35-20z"/><path fill-rule="evenodd" clip-rule="evenodd" d="M275 193c0 4-3 7-6 7-4 0-6-3-6-7s2-7 6-7c3 0 6 3 6 7z"/>
	</symbol>

	<symbol viewBox="0 0 366 366" xmlns="http://www.w3.org/2000/svg" shape-rendering="geometricPrecision" fill-rule="evenodd" clip-rule="evenodd" id="whatsapp">
		<path d="M183 366a183 183 0 110-366 183 183 0 010 366zm6-81a109 109 0 10-94-55l-16 57 58-15c16 8 34 13 52 13z"/><path fill-rule="evenodd" clip-rule="evenodd" d="M140 252l-35 9 10-34-3-3a90 90 0 0177-139 90 90 0 0190 91 90 90 0 01-137 78l-2-2zm104-50l-5-3-19-9c-2-1-4-2-6 1l-9 11c-1 2-3 2-6 1-2-2-11-5-21-14-9-7-14-16-16-19-1-2 0-4 2-5l4-5 2-5v-4l-8-21c-2-5-5-4-6-4h-5c-2 0-5 0-8 3-2 3-9 9-9 23 0 13 9 26 11 28 1 2 19 29 46 41l16 6c6 2 12 1 17 1 5-1 16-7 18-13 3-7 3-12 2-13z"/>
	</symbol>

	<symbol viewBox="0 0 550 550" xmlns="http://www.w3.org/2000/svg" shape-rendering="geometricPrecision" fill-rule="evenodd" clip-rule="evenodd" id="telegram">
		<path d="M229 331l-4 70c6 0 9-3 13-7l33-32 69 51c13 7 22 3 25-12l45-212c5-19-7-27-19-22L126 269c-18 7-18 18-3 22l68 21 157-99c8-5 14-2 9 3L229 331zm46 219a275 275 0 110-550 275 275 0 010 550z"/>
	</symbol>

	<symbol viewBox="0 0 660 660" xmlns="http://www.w3.org/2000/svg" shape-rendering="geometricPrecision" fill-rule="evenodd" clip-rule="evenodd" id="skype">
		<path d="M330 660a330 330 0 110-660 330 330 0 010 660zm166-293a167 167 0 00-193-199 98 98 0 00-149 82c0 18 5 34 13 49l-3 33a167 167 0 00199 163c14 7 30 11 46 11 53 0 97-43 97-96 0-15-3-29-10-43z"/><path fill-rule="evenodd" clip-rule="evenodd" d="M418 411c-8 11-19 19-34 25s-32 10-53 10c-24 0-44-5-60-13-11-6-20-14-27-24s-11-20-11-30c0-6 2-11 7-16 5-4 10-6 17-6 6 0 11 2 15 5s7 8 10 14c3 7 6 13 10 17 3 4 8 8 14 11s14 4 24 4c14 0 25-3 34-9 8-5 12-12 12-20 0-7-2-12-6-16-5-4-11-7-18-10l-31-7c-17-4-32-8-44-13s-22-12-29-21-10-20-10-33 3-24 11-34c7-9 18-17 33-22 13-5 30-8 49-8 15 0 28 2 39 5 11 4 20 8 28 14 7 6 13 12 16 18 3 7 5 13 5 19s-2 11-7 16c-4 5-10 7-17 7-6 0-11-1-14-4s-7-7-10-13c-5-8-10-14-15-19-6-4-16-6-28-6s-22 2-30 7c-7 4-10 10-10 16 0 3 1 7 3 9l10 8 14 5 23 6 37 9c11 4 21 8 29 13s14 12 19 20c4 8 7 18 7 29 0 13-4 26-12 37z"/>
	</symbol>

	<symbol viewBox="0 0 645 529" xmlns="http://www.w3.org/2000/svg" shape-rendering="geometricPrecision" fill-rule="evenodd" clip-rule="evenodd" id="chat">
		<path d="M448 163h10C441 71 345 0 230 0 103 0 0 86 0 192c0 63 35 118 90 153l2 2-22 69 83-42 4 1c29 8 59 11 89 9-5-14-8-30-8-45 0-98 94-176 210-176z" fill="#F5F8FF"/><path d="M255 340c0 89 87 162 195 162 21 0 42-3 61-8l3-1 71 36-19-59 2-1c46-30 76-77 76-129 0-90-87-163-194-163-108 0-195 73-195 163z"/><path fill-rule="evenodd" clip-rule="evenodd" d="M310 95c18 0 33 14 33 31s-15 31-33 31-32-14-32-31 14-31 32-31zM490 284c0-15 12-27 27-27s28 12 28 27c0 14-13 26-28 26s-27-12-27-26zM355 284c0-15 12-27 27-27s27 12 27 27c0 14-12 26-27 26s-27-12-27-26zM150 157c-18 0-32-14-32-31s14-31 32-31 32 14 32 31-14 31-32 31z"/>
	</symbol>

	<symbol viewBox="0 0 464 464" xmlns="http://www.w3.org/2000/svg" shape-rendering="geometricPrecision" fill-rule="evenodd" clip-rule="evenodd" id="location">
		<path d="M233 464a232 232 0 10-1-464 232 232 0 001 464zm-86-269a87 87 0 01174 0c0 65-87 161-87 161s-87-96-87-161zm56 0a31 31 0 1062 0 31 31 0 00-62 0z"/>
	</symbol>
</svg>