<svg width="155" height="39" fill="none" xmlns="http://www.w3.org/2000/svg"><path d="M42.75 12.5h1.04v6.39l3.76-3.27h1.53l-4.45 3.86 4.71 4.23h-1.46l-4.09-3.64v3.64h-1.04V12.5zM57.23 21.04l.87.46a4.76 4.76 0 01-1 1.37 3.96 3.96 0 01-2.86 1.06 3.87 3.87 0 01-3.1-1.3 4.39 4.39 0 01-.17-5.68 3.88 3.88 0 013.21-1.53c1.38 0 2.49.53 3.3 1.58.6.73.9 1.66.9 2.77H51.1c.01.93.31 1.71.9 2.31.58.6 1.3.9 2.15.9a3.52 3.52 0 002.2-.78c.26-.25.56-.64.88-1.16zm0-2.19c-.15-.55-.35-1-.61-1.33a3.25 3.25 0 00-2.43-1.1c-.8 0-1.49.26-2.06.77a3.4 3.4 0 00-.94 1.67h6.04zM60.31 15.62h1.05v1.45c.42-.55.88-.97 1.38-1.25.5-.27 1.05-.4 1.65-.4a2.75 2.75 0 012.65 1.7c.23.52.34 1.33.34 2.44v4.16h-1.05v-3.86c0-.94-.04-1.56-.11-1.87a2.06 2.06 0 00-.7-1.21 2.1 2.1 0 00-1.34-.4c-.62 0-1.2.2-1.69.62-.5.42-.82.94-.98 1.55-.1.4-.15 1.14-.15 2.2v2.97H60.3v-8.1zM69.6 15.62h1.04v1.4c.36-.52.74-.9 1.12-1.13a3.16 3.16 0 011.67-.48 2.72 2.72 0 011.98.85c.22.26.42.62.57 1.1.35-.64.78-1.13 1.3-1.45a3.1 3.1 0 011.68-.5 2.56 2.56 0 012.43 1.6c.21.51.32 1.27.32 2.29v4.41h-1.07V19.3c0-.87-.06-1.47-.18-1.8a1.62 1.62 0 00-.64-.78c-.3-.2-.65-.3-1.07-.3-.5 0-.96.15-1.38.44-.42.3-.72.7-.92 1.19-.19.5-.29 1.32-.29 2.49v3.17h-1.05v-4.15c0-.98-.05-1.64-.18-2a1.73 1.73 0 00-1.71-1.16c-.49 0-.93.14-1.35.44-.42.29-.73.67-.93 1.17-.2.5-.3 1.25-.3 2.26v3.43H69.6v-8.08zM87.73 15.41c1.25 0 2.29.46 3.1 1.36.75.82 1.13 1.8 1.13 2.93 0 1.13-.4 2.12-1.18 2.97a3.96 3.96 0 01-3.04 1.27 4.22 4.22 0 01-4.22-4.24c0-1.12.38-2.1 1.12-2.92.8-.9 1.84-1.37 3.1-1.37zm0 1.03c-.87 0-1.62.31-2.24.96a3.24 3.24 0 00-.93 2.32c0 .59.14 1.13.42 1.64a3.05 3.05 0 002.75 1.58 3.04 3.04 0 002.74-1.58c.28-.5.43-1.05.43-1.64 0-.9-.31-1.68-.94-2.32a3 3 0 00-2.23-.96zM93.48 15.62h1.06v1.18c.32-.46.65-.8 1-1.04.36-.24.73-.35 1.11-.35.28 0 .6.1.92.28l-.54.88c-.22-.1-.4-.14-.56-.14-.35 0-.68.14-1 .42-.33.29-.57.73-.73 1.33-.13.46-.2 1.4-.2 2.8v2.74h-1.06v-8.1zM105.28 21.04l.88.46a4.76 4.76 0 01-1 1.37 3.96 3.96 0 01-2.86 1.06 3.87 3.87 0 01-3.1-1.3 4.39 4.39 0 01-.17-5.68 3.88 3.88 0 013.2-1.53c1.39 0 2.5.53 3.31 1.58.59.73.89 1.66.9 2.77h-7.29c.02.93.32 1.71.9 2.31.58.6 1.3.9 2.15.9a3.52 3.52 0 002.2-.78c.28-.23.56-.64.88-1.16zm0-2.19c-.14-.55-.34-1-.6-1.33a3.25 3.25 0 00-2.43-1.1c-.8 0-1.5.26-2.06.77a3.4 3.4 0 00-.95 1.67h6.04zM116.45 23.72h-1.03v-1.39c-.44.53-.93.93-1.48 1.2-.54.27-1.13.4-1.78.4a3.96 3.96 0 01-2.93-1.24 4.17 4.17 0 01-1.21-3.04c0-1.16.4-2.17 1.23-3a4.01 4.01 0 012.95-1.24 3.84 3.84 0 013.22 1.7v-4.62h1.03v11.23zm-4.17-7.3a3.16 3.16 0 00-2.78 1.63 3.27 3.27 0 000 3.27 3.16 3.16 0 004.4 1.21 3 3 0 001.17-1.17c.28-.49.41-1.04.41-1.65 0-.94-.3-1.73-.92-2.35a3.08 3.08 0 00-2.28-.94zM125.62 21.04l.88.46a4.76 4.76 0 01-1 1.37 3.96 3.96 0 01-2.86 1.06 3.87 3.87 0 01-3.1-1.3 4.39 4.39 0 01-.18-5.68 3.88 3.88 0 013.22-1.53c1.38 0 2.48.53 3.3 1.58.59.73.89 1.66.9 2.77h-7.29c.02.93.32 1.71.9 2.31.58.6 1.3.9 2.15.9a3.52 3.52 0 002.2-.78c.28-.23.56-.64.88-1.16zm0-2.19c-.14-.55-.34-1-.61-1.33-.27-.33-.62-.6-1.05-.8-.44-.2-.9-.3-1.38-.3-.8 0-1.48.26-2.05.77a3.4 3.4 0 00-.95 1.67h6.04zM132.78 16.51l-.67.7c-.56-.55-1.1-.82-1.63-.82-.33 0-.63.11-.87.34-.24.22-.36.48-.36.78 0 .26.1.5.3.75.2.24.62.53 1.26.85.77.4 1.3.79 1.58 1.17.27.37.4.8.4 1.27 0 .66-.23 1.23-.7 1.69a2.4 2.4 0 01-1.74.7c-.47 0-.92-.1-1.34-.3-.43-.21-.78-.5-1.06-.85l.66-.75c.53.6 1.1.9 1.68.9.42 0 .78-.13 1.08-.4.29-.26.44-.58.44-.94 0-.3-.1-.56-.3-.8-.19-.22-.62-.52-1.3-.86a4.26 4.26 0 01-1.5-1.11c-.26-.37-.39-.79-.39-1.26 0-.62.21-1.13.63-1.53.42-.4.95-.6 1.59-.6.73-.03 1.49.34 2.24 1.07zM134.99 12.3c.23 0 .44.08.6.24.17.17.26.37.26.62 0 .23-.09.43-.25.6a.83.83 0 01-.61.25.82.82 0 01-.6-.25.82.82 0 01-.26-.6c0-.24.09-.45.25-.62a.82.82 0 01.6-.25zm-.52 3.32h1.04v8.1h-1.04v-8.1zM145.7 15.62v6.45c0 1.14-.1 1.97-.3 2.5a3.28 3.28 0 01-1.42 1.72 5.68 5.68 0 01-4.3.31c-.56-.2-1.01-.46-1.36-.8a4.63 4.63 0 01-.96-1.45h1.13c.31.54.7.94 1.2 1.19a3.8 3.8 0 001.8.38c.72 0 1.32-.13 1.8-.39.5-.27.84-.6 1.05-1 .2-.4.3-1.04.3-1.94v-.41a4.2 4.2 0 01-5.34 1 4 4 0 01-2.06-3.56c0-.75.19-1.44.57-2.09.37-.64.88-1.16 1.54-1.54a4.15 4.15 0 013.78-.19 4.6 4.6 0 011.52 1.24v-1.42h1.05zm-4.11.8c-.6 0-1.14.14-1.65.43a3.26 3.26 0 00-1.62 2.81c0 .88.3 1.62.9 2.2.58.57 1.35.87 2.3.87.96 0 1.74-.29 2.31-.86.6-.58.88-1.33.88-2.27 0-.61-.13-1.16-.4-1.63a2.97 2.97 0 00-1.13-1.14 3.33 3.33 0 00-1.6-.41zM147.93 15.62h1.05v1.45c.42-.55.88-.97 1.38-1.25.5-.27 1.05-.4 1.65-.4a2.76 2.76 0 012.65 1.7c.23.53.34 1.33.34 2.44v4.16h-1.04v-3.86a9.6 9.6 0 00-.12-1.87 2.06 2.06 0 00-.7-1.21 2.1 2.1 0 00-1.33-.4c-.63 0-1.2.2-1.7.62s-.82.94-.98 1.55c-.1.4-.15 1.14-.15 2.2v2.97h-1.05v-8.1zM42.37 27.08h3.2v.63h-2.55v2h2.56v.62h-2.56v3.14h-.64v-6.4zM46.35 27.08h.74l1.53 2.48 1.54-2.48h.74l-1.91 3.09 2.03 3.3h-.74l-1.66-2.7-1.66 2.7h-.75l2.04-3.3-1.9-3.1zM54.2 27.08h.65l1.3 4.6 1.84-4.6h.13l1.8 4.6 1.34-4.6h.65l-1.83 6.38h-.12l-1.9-4.83-1.93 4.83h-.12l-1.81-6.38zM66.97 31.9l.5.27c-.16.32-.35.59-.58.79-.21.2-.46.36-.74.46-.28.1-.59.16-.94.16-.77 0-1.37-.25-1.8-.76a2.56 2.56 0 01-.66-1.72c0-.6.19-1.13.56-1.6.46-.6 1.08-.9 1.87-.9.8 0 1.45.31 1.93.92.34.44.52.97.52 1.62h-4.25c.01.55.19 1 .53 1.34.34.35.76.53 1.25.53a2 2 0 001.28-.46c.16-.14.35-.34.53-.65zm0-1.27a2.1 2.1 0 00-.35-.78 1.9 1.9 0 00-1.42-.64c-.46 0-.87.14-1.2.44-.24.21-.43.54-.55.98h3.52zM68.8 33.46v-6.55h.62v2.64c.25-.31.53-.55.85-.7.32-.17.66-.24 1.04-.24.67 0 1.24.24 1.71.73.48.48.72 1.07.72 1.76a2.4 2.4 0 01-.72 1.75c-.48.49-1.06.73-1.73.73-.38 0-.73-.08-1.04-.25-.31-.17-.59-.41-.83-.75v.87h-.61v.01zm2.44-.46a1.83 1.83 0 001.63-.95 1.94 1.94 0 00-.7-2.63c-.28-.17-.6-.25-.92-.25a1.9 1.9 0 00-1.63.94c-.16.28-.24.6-.24.97 0 .54.17 1 .53 1.37.36.37.8.55 1.33.55zM76.74 32.27l.54-.32c.39.7.82 1.05 1.32 1.05.22 0 .42-.05.6-.15.19-.1.34-.23.43-.4a1.02 1.02 0 00-.07-1.16c-.2-.29-.56-.63-1.1-1.02a5.8 5.8 0 01-.99-.87 1.6 1.6 0 01-.13-1.74c.13-.23.32-.41.56-.55a1.66 1.66 0 011.63.03c.26.15.54.42.83.82l-.52.39a2.55 2.55 0 00-.61-.63c-.17-.1-.35-.15-.55-.15a.88.88 0 00-.64.24.76.76 0 00-.24.57c0 .15.02.28.08.4.06.14.17.28.32.43.08.09.36.3.83.64.55.4.93.77 1.14 1.09.2.31.3.63.3.96 0 .46-.17.86-.52 1.2-.35.35-.78.51-1.28.51-.39 0-.74-.1-1.05-.3-.33-.2-.61-.55-.88-1.04zM83.95 28.62a2.45 2.45 0 012.46 2.5c0 .65-.22 1.23-.68 1.72-.46.5-1.06.74-1.78.74a2.3 2.3 0 01-1.77-.74 2.46 2.46 0 01-.68-1.73c0-.65.21-1.22.65-1.7.48-.52 1.08-.8 1.8-.8zm0 .6c-.5 0-.93.18-1.3.55a1.9 1.9 0 00-.54 1.36 1.9 1.9 0 00.92 1.64 1.87 1.87 0 001.86 0c.28-.16.5-.39.66-.69.17-.3.25-.6.25-.95a1.9 1.9 0 00-1.85-1.92zM87.45 26.92h.61v6.55h-.6v-6.55zM89.24 28.74h.61v2.21c0 .54.03.91.08 1.11.09.3.26.52.5.7.25.16.54.24.88.24.35 0 .63-.08.87-.24.23-.17.4-.38.48-.65.06-.18.1-.56.1-1.16v-2.2h.61v2.31c0 .65-.07 1.15-.22 1.47-.15.33-.38.59-.69.78-.3.19-.69.28-1.15.28-.46 0-.84-.1-1.15-.28-.3-.18-.53-.44-.7-.78a3.7 3.7 0 01-.22-1.5v-2.29zM95.25 26.99h.61v1.75h.97v.53h-.97v4.2h-.6v-4.2h-.83v-.53h.82V27zM97.95 26.8c.14 0 .26.04.35.14.1.1.15.22.15.36 0 .14-.05.25-.15.36a.48.48 0 01-.7 0 .48.48 0 01-.16-.36c0-.14.05-.26.16-.36.1-.1.21-.15.35-.15zm-.3 1.94h.6v4.73h-.6v-4.73zM101.75 28.62a2.45 2.45 0 012.46 2.5c0 .65-.22 1.23-.68 1.72-.47.5-1.06.74-1.78.74a2.3 2.3 0 01-1.77-.74 2.46 2.46 0 01-.69-1.73c0-.65.22-1.22.66-1.7.47-.52 1.07-.8 1.8-.8zm0 .6c-.5 0-.94.18-1.3.55a1.9 1.9 0 00-.55 1.36 1.9 1.9 0 00.92 1.64 1.87 1.87 0 001.86 0 1.9 1.9 0 00.92-1.64 1.9 1.9 0 00-1.85-1.92zM105.34 28.74h.61v.85c.24-.33.51-.57.81-.73a2 2 0 01.96-.24c.35 0 .67.09.94.27.28.17.48.41.6.72.14.3.2.78.2 1.43v2.43h-.62v-2.25c0-.54-.02-.9-.06-1.09-.07-.3-.21-.54-.4-.7-.2-.16-.46-.24-.78-.24a1.7 1.7 0 00-1.56 1.27c-.07.24-.09.67-.09 1.3v1.73h-.61v-4.75zM113.13 29.25l-.39.4c-.32-.31-.64-.47-.95-.47-.2 0-.37.07-.51.2a.6.6 0 00-.04.88c.12.14.36.3.73.5.45.23.76.46.92.68.16.21.24.47.24.74 0 .39-.13.72-.4.99-.28.27-.62.4-1.03.4a1.77 1.77 0 01-1.4-.67l.4-.43c.3.35.63.52.98.52.24 0 .45-.07.62-.23a.75.75 0 00.26-.55.75.75 0 00-.17-.47 2.7 2.7 0 00-.77-.5 2.35 2.35 0 01-.87-.66 1.26 1.26 0 01-.23-.73c0-.36.12-.66.36-.9.25-.23.56-.36.93-.36.45.03.88.25 1.32.66z" fill="#2A2B2D"/><path fill-rule="evenodd" clip-rule="evenodd" d="M34.42 24.08c-.05-1.57-.47-3-.78-4.7-.6-3.33-.16-6.73.35-10.1V9.2c-2.8 3.57-7.22 5.52-11.11 8 1.21 2.42 1.85 5.86 1.65 9.41.92-1.72 1.56-3.63 2.86-5.22-1.8 4.9-4.68 10.86-5.2 17.59 7.58-1.4 12.54-5.93 12.23-14.9zM12.19 8.84C9.38 6.35 7.37 3.36 5.42.22c-.18 4.59-.8 8.24-2.18 11.67-.68 1.68-1.53 3.1-2.08 4.79A21.8 21.8 0 00.03 22.5c-.48 9.4 4.85 13.48 11.2 16.46.72-5.56.09-11.38-.7-16.54-.8-5.24-2.07-10.22-3.03-14.55 3.16 9.35 5.2 20.47 7.03 31.1 0 0 4.52-6.4 6.07-9.67 1.86-3.89.67-8.9-1.21-12.36-1.81-3.33-4.4-5.64-7.2-8.11z" fill="#FA6C06"/></svg>